<svg xmlns="http://www.w3.org/2000/svg" viewBox="0 0 800 600" fill="none">
  <!-- Hirogen Panel Frame: Rugged hunter aesthetic with trophy marks -->
  <defs>
    <linearGradient id="hirogenFrameGreen" x1="0%" y1="0%" x2="100%" y2="100%">
      <stop offset="0%" style="stop-color:#557755"/>
      <stop offset="100%" style="stop-color:#334433"/>
    </linearGradient>
    <linearGradient id="hirogenAccentBronze" x1="0%" y1="0%" x2="100%" y2="0%">
      <stop offset="0%" style="stop-color:#334433"/>
      <stop offset="50%" style="stop-color:#AA8855"/>
      <stop offset="100%" style="stop-color:#334433"/>
    </linearGradient>
  </defs>

  <!-- Top bar with rugged edge -->
  <path d="
    M 0 0 L 100 0 L 110 8 L 200 5 L 210 12 L 400 8 L 410 0 L 590 5 L 600 10 L 700 5 L 710 0 L 800 0 L 800 50 L 0 50 Z
  " fill="url(#hirogenFrameGreen)"/>

  <!-- Left sidebar with notched edge -->
  <path d="
    M 0 0 L 90 0 L 90 100 L 80 105 L 80 150 L 90 155 L 90 250 L 80 255 L 80 350 L 90 355 L 90 450 L 80 455 L 80 500 L 90 505 L 90 600 L 0 600 Z
  " fill="url(#hirogenFrameGreen)"/>

  <!-- Bottom bar -->
  <path d="
    M 0 550 L 800 550 L 800 600 L 710 600 L 700 592 L 600 595 L 590 588 L 410 595 L 400 590 L 210 588 L 200 595 L 110 590 L 100 600 L 0 600 Z
  " fill="url(#hirogenFrameGreen)"/>

  <!-- Right sidebar -->
  <path d="
    M 710 50 L 800 50 L 800 600 L 710 600 L 710 505 L 720 500 L 720 455 L 710 450 L 710 355 L 720 350 L 720 255 L 710 250 L 710 155 L 720 150 L 720 105 L 710 100 Z
  " fill="url(#hirogenFrameGreen)"/>

  <!-- Trophy slash marks -->
  <path d="M 100 55 L 115 70 L 100 65" fill="none" stroke="#AA8855" stroke-width="2"/>
  <path d="M 108 55 L 123 70 L 108 65" fill="none" stroke="#AA8855" stroke-width="2"/>
  <path d="M 116 55 L 131 70 L 116 65" fill="none" stroke="#AA8855" stroke-width="2"/>

  <path d="M 684 530 L 699 545 L 684 540" fill="none" stroke="#AA8855" stroke-width="2"/>
  <path d="M 692 530 L 707 545 L 692 540" fill="none" stroke="#AA8855" stroke-width="2"/>
</svg>
