<svg xmlns="http://www.w3.org/2000/svg" viewBox="0 0 100 100" fill="none">
  <!-- Hirogen decoration: Trophy skulls/teeth pattern -->
  <defs>
    <linearGradient id="hirogenDecoGreen" x1="0%" y1="0%" x2="100%" y2="100%">
      <stop offset="0%" style="stop-color:#77AA55"/>
      <stop offset="100%" style="stop-color:#557755"/>
    </linearGradient>
  </defs>
  <!-- Fang/tooth trophies -->
  <path d="M 30 20 L 40 35 L 35 55 L 30 50 L 25 55 L 20 35 Z" fill="url(#hirogenDecoGreen)"/>
  <path d="M 70 20 L 80 35 L 75 55 L 70 50 L 65 55 L 60 35 Z" fill="url(#hirogenDecoGreen)"/>
  <path d="M 50 50 L 60 65 L 55 85 L 50 80 L 45 85 L 40 65 Z" fill="url(#hirogenDecoGreen)"/>

  <!-- Claw marks -->
  <path d="M 10 70 L 25 45" stroke="#AA8855" stroke-width="2" stroke-linecap="round"/>
  <path d="M 15 75 L 30 50" stroke="#AA8855" stroke-width="2" stroke-linecap="round"/>
  <path d="M 20 80 L 35 55" stroke="#AA8855" stroke-width="2" stroke-linecap="round"/>

  <path d="M 90 70 L 75 45" stroke="#AA8855" stroke-width="2" stroke-linecap="round"/>
  <path d="M 85 75 L 70 50" stroke="#AA8855" stroke-width="2" stroke-linecap="round"/>
  <path d="M 80 80 L 65 55" stroke="#AA8855" stroke-width="2" stroke-linecap="round"/>
</svg>
