<svg xmlns="http://www.w3.org/2000/svg" viewBox="0 0 200 150" fill="none">
  <!-- Cardassian Nested Frame: Multi-layered display frame -->
  <defs>
    <linearGradient id="cardassianNestedOuter" x1="0%" y1="0%" x2="100%" y2="100%">
      <stop offset="0%" style="stop-color:#4A6B7C"/>
      <stop offset="100%" style="stop-color:#2A4A5A"/>
    </linearGradient>
    <linearGradient id="cardassianNestedInner" x1="0%" y1="0%" x2="100%" y2="100%">
      <stop offset="0%" style="stop-color:#3A5B6C"/>
      <stop offset="100%" style="stop-color:#1A3A4A"/>
    </linearGradient>
  </defs>

  <!-- Outer frame -->
  <path d="
    M 20 0
    L 180 0
    Q 200 0 200 20
    L 200 130
    Q 200 150 180 150
    L 20 150
    Q 0 150 0 130
    L 0 20
    Q 0 0 20 0
    Z
  " fill="url(#cardassianNestedOuter)"/>

  <!-- Middle frame -->
  <path d="
    M 25 8
    L 175 8
    Q 192 8 192 25
    L 192 125
    Q 192 142 175 142
    L 25 142
    Q 8 142 8 125
    L 8 25
    Q 8 8 25 8
    Z
  " fill="url(#cardassianNestedInner)"/>

  <!-- Inner display area -->
  <path d="
    M 30 16
    L 170 16
    Q 184 16 184 30
    L 184 120
    Q 184 134 170 134
    L 30 134
    Q 16 134 16 120
    L 16 30
    Q 16 16 30 16
    Z
  " fill="#0a1015"/>

  <!-- Corner accents -->
  <ellipse cx="20" cy="20" rx="6" ry="4" fill="#CC6633"/>
  <ellipse cx="180" cy="20" rx="6" ry="4" fill="#CC6633"/>
  <ellipse cx="20" cy="130" rx="6" ry="4" fill="#CC6633"/>
  <ellipse cx="180" cy="130" rx="6" ry="4" fill="#CC6633"/>
</svg>
