<?xml version="1.0" encoding="UTF-8"?>
<svg xmlns="http://www.w3.org/2000/svg" xmlns:xlink="http://www.w3.org/1999/xlink" width="700" height="700" viewBox="0 0 25000 25000">
<defs>
  <clipPath id="clipFrame"><circle cx="12500" cy="12500" r="10200"/></clipPath>
  <clipPath id="clipRing">
    <path d="M12500,850 A11650,11650 0 1,1 12499.9,850 Z M12500,2300 A10200,10200 0 1,0 12500.1,2300 Z" clip-rule="evenodd"/>
  </clipPath>
  <path id="textTop" d="M 1650,12500 A 10850,10850 0 0,1 23350,12500" fill="none"/>
  <path id="textBot" d="M 1550,12500 A 10950,10950 0 1,0 23450,12500" fill="none"/>
</defs>

<!-- Inner area - dark space -->
<g clip-path="url(#clipFrame)">
  <circle cx="12500" cy="12500" r="10200" fill="#081020"/>
  
  <!-- Emblem - Andorian ice blue -->
  <g transform="translate(2500,18785) scale(1.0,-1.0)">
    <g fill="#6ab4dc" stroke="none">
<path d="M9070 11039 c-41 -5 -138 -13 -215 -18 -183 -13 -333 -28 -346 -37
-6 -3 -36 -10 -67 -15 -32 -4 -77 -12 -102 -18 -25 -5 -72 -14 -105 -21 -33
-7 -76 -16 -95 -20 -19 -5 -60 -13 -90 -20 -54 -11 -100 -23 -217 -56 -89 -25
-334 -104 -371 -120 -18 -8 -41 -14 -52 -14 -10 0 -22 -4 -25 -10 -3 -5 -14
-10 -23 -10 -10 0 -56 -16 -102 -36 -88 -36 -564 -271 -660 -325 -30 -17 -84
-47 -119 -66 -91 -49 -353 -224 -388 -259 -22 -21 -131 -104 -138 -104 -6 0
-13 -5 -58 -45 -16 -14 -53 -43 -82 -65 -30 -22 -65 -50 -78 -62 -14 -13 -55
-50 -92 -83 -114 -102 -226 -207 -300 -281 -100 -102 -185 -193 -185 -198 0
-3 -17 -22 -37 -44 -21 -21 -58 -62 -83 -92 -24 -30 -51 -63 -60 -72 -34 -38
-47 -56 -95 -128 -49 -74 -62 -92 -97 -131 -10 -10 -18 -23 -18 -27 0 -5 -9
-17 -20 -27 -11 -10 -20 -23 -20 -30 0 -7 -9 -22 -20 -35 -11 -13 -20 -27 -20
-33 0 -9 -34 -55 -65 -88 -8 -9 -15 -22 -15 -30 0 -8 -9 -22 -20 -32 -11 -9
-20 -23 -20 -30 0 -8 -9 -22 -20 -32 -11 -10 -20 -26 -20 -36 0 -10 -5 -21
-11 -25 -6 -3 -17 -22 -25 -40 -8 -19 -18 -34 -23 -34 -5 0 -12 -14 -16 -31
-4 -17 -13 -33 -21 -36 -8 -3 -14 -13 -14 -23 0 -9 -9 -29 -20 -43 -11 -14
-20 -32 -20 -41 0 -9 -9 -25 -20 -36 -11 -11 -20 -26 -20 -33 0 -8 -9 -24 -20
-37 -11 -13 -20 -28 -20 -35 0 -7 -9 -22 -20 -35 -11 -13 -20 -31 -20 -40 0
-10 -9 -29 -20 -43 -11 -14 -20 -36 -20 -49 0 -12 -9 -36 -20 -53 -11 -16 -20
-38 -20 -48 0 -11 -9 -30 -20 -44 -11 -14 -20 -35 -20 -45 0 -11 -9 -31 -20
-45 -11 -14 -20 -38 -20 -53 0 -15 -6 -33 -14 -39 -8 -7 -18 -37 -21 -66 -4
-30 -13 -59 -20 -65 -8 -6 -17 -30 -20 -52 -4 -23 -14 -48 -21 -56 -8 -7 -14
-25 -14 -38 0 -14 -7 -41 -16 -62 -9 -20 -20 -61 -25 -90 -4 -30 -15 -62 -23
-71 -10 -11 -16 -36 -16 -67 0 -30 -8 -64 -20 -87 -11 -20 -20 -54 -20 -76 0
-21 -9 -58 -20 -82 -11 -25 -20 -66 -20 -95 0 -28 -9 -80 -20 -114 -12 -38
-20 -90 -20 -132 0 -45 -6 -80 -17 -101 -13 -26 -18 -78 -24 -292 -6 -243 -9
-265 -33 -340 -35 -108 -34 -169 3 -226 l29 -44 4 -286 c4 -247 6 -288 21
-309 12 -17 17 -45 17 -93 0 -40 6 -82 16 -105 9 -20 20 -77 24 -127 4 -49 15
-103 24 -120 9 -16 16 -52 16 -78 0 -28 8 -64 20 -87 11 -22 20 -55 20 -75 0
-19 9 -52 20 -72 11 -21 20 -54 20 -73 0 -20 7 -45 15 -57 8 -11 17 -40 21
-64 4 -24 15 -60 26 -79 10 -19 18 -44 18 -55 0 -11 7 -28 15 -39 8 -10 17
-38 21 -62 3 -24 12 -49 20 -55 8 -6 14 -19 14 -28 0 -9 11 -38 25 -66 13 -27
25 -57 25 -66 0 -9 7 -22 15 -29 8 -7 15 -23 15 -35 0 -12 9 -34 20 -48 11
-14 20 -35 20 -48 0 -32 46 -95 78 -108 19 -7 722 -10 2297 -8 2262 2 2270 2
2273 22 1 11 -10 34 -25 51 -80 88 -138 157 -142 168 -2 6 -7 13 -10 16 -3 3
-30 37 -59 75 -29 39 -61 81 -72 93 -11 13 -20 28 -20 32 0 5 -21 39 -47 75
-27 37 -54 79 -62 93 -8 15 -17 29 -21 32 -4 3 -15 21 -23 40 -9 19 -34 67
-57 105 -22 39 -43 78 -47 89 -3 10 -17 39 -30 63 -12 24 -23 52 -23 62 0 10
-6 24 -14 30 -8 7 -18 25 -21 41 -3 15 -15 45 -26 66 -10 21 -19 48 -19 60 0
12 -7 27 -15 34 -8 7 -17 28 -20 49 -4 20 -12 47 -19 61 -8 14 -17 43 -21 65
-3 21 -13 51 -20 66 -8 14 -17 50 -21 80 -4 30 -12 65 -19 79 -7 14 -15 56
-19 95 -4 38 -11 74 -15 80 -14 17 -21 76 -31 252 -9 161 -22 233 -48 280 -15
27 -16 133 -1 170 15 36 36 181 52 353 8 74 18 144 24 155 6 11 14 45 18 75 4
30 14 67 21 82 8 15 14 44 14 65 0 21 9 63 19 93 11 30 23 73 26 95 4 22 14
52 21 67 8 15 14 37 14 50 0 13 9 38 20 56 11 18 20 37 20 43 0 13 34 92 60
141 11 20 20 46 20 56 0 11 7 25 15 32 8 7 15 18 15 25 0 7 16 42 35 77 19 34
41 77 50 93 8 17 19 37 24 45 5 8 14 26 20 40 25 54 59 110 118 193 66 96 81
115 189 252 418 527 947 894 1639 1135 148 51 416 114 550 129 50 6 131 15
180 21 151 19 429 24 550 10 61 -7 153 -16 205 -20 105 -9 219 -26 265 -39 17
-5 57 -14 90 -21 115 -24 304 -77 360 -100 11 -5 43 -16 70 -26 28 -10 61 -24
75 -31 14 -7 28 -13 32 -13 28 0 404 -197 553 -288 77 -48 280 -193 295 -212
3 -3 32 -28 65 -54 124 -100 295 -262 368 -349 26 -31 62 -73 80 -91 18 -19
40 -45 49 -58 68 -91 111 -144 123 -151 8 -4 15 -14 15 -21 0 -7 9 -21 20 -31
11 -10 20 -26 20 -35 0 -9 9 -25 20 -35 11 -10 20 -24 20 -32 0 -7 9 -21 20
-30 11 -10 20 -25 20 -34 0 -9 9 -24 20 -34 11 -10 20 -23 20 -30 0 -7 9 -20
20 -30 11 -10 20 -26 20 -35 0 -10 6 -23 14 -29 8 -7 17 -24 21 -39 4 -15 12
-34 20 -42 7 -8 16 -26 20 -40 4 -14 13 -32 20 -40 7 -8 15 -31 19 -52 4 -20
13 -39 21 -42 9 -3 15 -18 15 -34 0 -16 8 -40 19 -53 10 -13 21 -40 25 -60 4
-21 13 -42 21 -49 8 -7 15 -27 15 -44 0 -17 9 -44 20 -61 11 -16 20 -45 20
-63 0 -17 9 -49 20 -69 11 -21 20 -47 20 -58 0 -11 9 -46 20 -78 11 -31 20
-77 20 -102 0 -25 7 -60 16 -76 13 -26 14 -55 8 -185 -4 -90 -10 -150 -15
-142 -5 7 -9 26 -9 42 0 23 -51 165 -80 226 -43 87 -69 138 -92 178 -15 26
-31 56 -36 67 -6 12 -17 27 -26 34 -9 7 -16 19 -16 26 0 6 -9 22 -20 35 -11
13 -20 27 -20 32 0 12 -185 196 -245 243 -27 22 -72 59 -100 84 -45 39 -170
109 -228 127 -12 4 -40 14 -62 24 -48 20 -103 40 -130 47 -11 2 -29 8 -40 13
-26 10 -123 30 -210 43 -145 21 -400 10 -505 -22 -19 -6 -49 -11 -67 -11 -17
0 -35 -4 -38 -10 -3 -6 -16 -10 -28 -10 -24 0 -93 -22 -144 -45 -17 -8 -34
-15 -38 -15 -15 0 -105 -45 -105 -52 0 -5 -5 -8 -11 -8 -6 0 -43 -21 -82 -47
-40 -27 -76 -50 -82 -52 -56 -23 -295 -249 -295 -278 0 -5 -9 -14 -20 -21 -11
-7 -20 -18 -20 -26 0 -7 -9 -21 -20 -31 -11 -10 -20 -23 -20 -30 0 -7 -9 -20
-20 -30 -11 -10 -20 -24 -20 -31 0 -7 -6 -17 -12 -21 -20 -12 -56 -68 -64 -97
-3 -14 -12 -30 -20 -37 -8 -6 -14 -23 -14 -38 0 -14 -9 -39 -20 -56 -11 -16
-20 -42 -20 -56 0 -15 -9 -38 -20 -52 -11 -14 -20 -39 -20 -56 0 -17 -9 -47
-19 -67 -18 -34 -20 -59 -20 -334 0 -276 1 -300 20 -334 10 -20 19 -54 19 -76
0 -22 9 -57 20 -77 11 -21 20 -49 20 -64 0 -14 9 -36 20 -49 11 -13 20 -32 20
-42 0 -11 9 -31 20 -45 11 -14 20 -33 20 -42 0 -9 9 -24 20 -34 11 -9 20 -25
20 -36 0 -10 7 -21 15 -25 8 -3 15 -11 15 -18 0 -7 17 -32 38 -55 38 -42 43
-48 76 -99 37 -56 252 -256 331 -308 135 -89 337 -179 485 -215 163 -40 446
-55 585 -30 33 5 85 14 115 18 109 17 413 138 470 187 8 7 28 19 44 28 86 44
309 256 400 381 102 138 195 322 245 480 17 55 31 110 31 122 0 32 17 37 24 8
4 -14 16 -35 27 -46 17 -17 20 -29 15 -61 -4 -22 -13 -49 -21 -61 -12 -20 -21
-65 -44 -235 -5 -34 -15 -70 -22 -79 -8 -9 -16 -48 -20 -88 -4 -49 -11 -79
-22 -90 -10 -9 -17 -32 -17 -54 0 -25 -7 -44 -20 -56 -14 -13 -20 -31 -20 -60
0 -27 -7 -51 -20 -68 -11 -14 -20 -38 -20 -55 0 -16 -9 -37 -20 -47 -11 -10
-20 -27 -20 -37 0 -11 -9 -31 -20 -45 -11 -14 -20 -36 -20 -48 0 -12 -9 -32
-20 -45 -11 -13 -20 -35 -20 -50 0 -15 -6 -33 -14 -39 -8 -7 -18 -26 -21 -42
-4 -17 -13 -33 -20 -36 -8 -2 -17 -18 -20 -34 -4 -16 -11 -29 -16 -29 -6 0
-15 -13 -20 -30 -6 -16 -15 -30 -20 -30 -5 0 -16 -15 -24 -32 -22 -47 -39 -75
-58 -96 -10 -10 -17 -23 -17 -29 0 -5 -9 -18 -20 -28 -11 -10 -20 -24 -20 -31
0 -8 -9 -19 -20 -26 -11 -7 -20 -19 -20 -27 0 -12 -52 -80 -109 -141 -13 -14
-31 -36 -39 -49 -53 -79 -363 -389 -437 -435 -16 -11 -50 -37 -75 -58 -41 -36
-160 -120 -295 -211 -152 -102 -440 -252 -564 -294 -70 -23 -111 -44 -111 -57
0 -8 176 -12 676 -14 575 -2 680 0 699 12 19 13 87 109 183 261 17 28 35 55
39 60 5 6 14 21 21 35 7 14 23 43 37 65 13 22 31 54 39 70 9 17 25 44 35 60
37 57 201 390 201 406 0 9 7 22 15 29 8 7 15 17 15 23 0 6 9 30 20 54 11 24
29 62 40 86 11 24 20 50 20 58 0 8 9 31 20 52 11 20 20 42 20 49 0 15 47 144
66 180 8 14 14 39 14 55 0 15 9 46 19 69 10 23 22 59 26 82 3 22 13 48 20 59
8 10 15 34 15 53 0 20 6 44 14 55 7 11 17 45 21 75 3 30 15 85 26 121 10 36
19 77 19 91 0 14 9 54 20 88 11 34 20 84 20 110 0 26 6 63 14 81 9 22 18 108
24 239 7 146 15 216 26 242 11 25 16 71 17 135 1 54 5 132 9 173 l7 75 2 -110
c2 -136 23 -260 50 -296 12 -16 21 -41 21 -56 1 -15 9 -46 20 -68 11 -22 20
-58 20 -80 0 -24 8 -50 20 -65 11 -14 20 -40 20 -58 0 -19 9 -45 20 -59 11
-14 20 -36 20 -48 0 -12 6 -28 14 -34 8 -7 17 -28 21 -49 4 -20 15 -51 26 -68
10 -17 19 -38 19 -47 0 -9 6 -22 14 -29 7 -8 17 -25 21 -38 4 -13 23 -45 41
-72 19 -26 34 -52 34 -56 0 -5 9 -17 20 -27 11 -10 20 -23 20 -30 0 -7 9 -20
20 -30 11 -10 20 -22 20 -28 0 -5 10 -22 23 -37 12 -15 31 -40 42 -56 43 -60
166 -190 263 -276 16 -14 31 -30 33 -35 6 -15 197 -155 289 -213 131 -82 419
-220 461 -220 8 0 19 -4 25 -8 5 -4 36 -16 69 -26 33 -10 71 -22 85 -27 26 -8
127 -30 220 -48 149 -28 436 -34 650 -14 123 12 201 26 310 57 30 9 66 18 80
22 14 3 34 9 45 14 11 4 49 18 85 30 58 20 316 142 364 173 11 6 51 32 90 56
147 92 306 226 467 397 71 75 200 240 236 302 15 26 30 49 34 52 15 12 179
350 179 371 0 5 6 20 14 32 8 12 17 39 21 61 3 21 11 46 16 55 16 29 50 164
60 241 6 41 18 95 27 120 14 37 16 88 16 335 0 201 -4 304 -13 335 -7 25 -17
74 -22 110 -6 36 -17 77 -25 92 -7 14 -14 39 -14 55 0 16 -6 37 -14 48 -7 11
-19 47 -26 80 -7 33 -19 69 -26 80 -8 11 -14 31 -14 46 0 15 -6 32 -14 38 -8
7 -18 25 -21 41 -3 16 -13 34 -20 40 -8 7 -17 27 -21 46 -3 18 -12 38 -20 45
-8 6 -14 15 -14 20 0 12 -18 51 -40 84 -11 17 -29 46 -40 65 -11 19 -28 47
-38 61 -9 14 -29 44 -43 65 -41 61 -169 214 -180 214 -5 0 -9 5 -9 12 0 12
-138 151 -210 210 -139 115 -280 208 -438 287 -174 88 -304 138 -442 171 -19
4 -69 16 -110 25 -168 40 -472 60 -652 45 -268 -23 -270 -24 -448 -70 -93 -24
-144 -40 -207 -67 -17 -7 -34 -13 -37 -13 -5 0 -79 -33 -176 -78 -88 -41 -403
-244 -480 -309 -79 -66 -310 -308 -310 -324 0 -5 -9 -13 -20 -19 -11 -6 -20
-17 -20 -25 0 -8 -9 -19 -20 -25 -11 -6 -20 -17 -20 -24 0 -7 -9 -25 -20 -39
-11 -14 -20 -31 -20 -39 0 -7 -9 -21 -20 -31 -11 -9 -20 -23 -20 -32 0 -8 -9
-19 -20 -25 -11 -6 -20 -19 -20 -29 0 -11 -7 -21 -15 -25 -8 -3 -15 -12 -15
-19 0 -8 -8 -25 -19 -38 -10 -13 -22 -38 -25 -56 -4 -17 -13 -37 -21 -43 -7
-6 -16 -29 -20 -50 -4 -21 -13 -41 -21 -44 -8 -3 -14 -18 -14 -33 0 -15 -8
-42 -19 -58 -10 -17 -20 -54 -23 -83 -3 -29 -12 -60 -22 -70 -9 -11 -16 -36
-16 -58 -1 -21 -9 -57 -20 -79 -11 -22 -19 -46 -20 -54 0 -7 -9 -28 -19 -45
-38 -62 -51 -133 -51 -279 0 -77 -2 -138 -5 -135 -3 3 -8 85 -11 183 -4 113
-11 188 -19 209 -8 19 -18 118 -26 256 -7 149 -16 234 -25 252 -8 15 -14 44
-14 65 0 21 -7 51 -15 66 -8 16 -17 59 -21 95 -3 37 -12 87 -20 112 -7 25 -18
76 -24 114 -6 38 -17 81 -25 97 -8 15 -15 39 -15 53 0 13 -6 37 -14 53 -23 48
-47 125 -60 196 -7 38 -18 73 -25 80 -6 6 -11 20 -11 30 0 11 -8 38 -19 61
-25 55 -59 145 -67 178 -3 15 -12 32 -20 39 -8 6 -14 20 -14 31 0 10 -8 36
-19 56 -10 20 -28 57 -39 82 -11 25 -38 83 -60 130 -23 47 -44 95 -47 108 -4
12 -10 22 -15 22 -5 0 -11 13 -15 30 -4 16 -11 32 -16 36 -5 3 -16 21 -24 40
-8 20 -28 56 -45 80 -16 25 -30 51 -30 58 0 8 -7 19 -16 26 -8 8 -22 27 -30
44 -7 17 -23 45 -34 61 -11 17 -27 44 -35 60 -8 17 -28 48 -45 70 -16 22 -34
50 -40 63 -5 12 -14 22 -20 22 -5 0 -10 6 -10 13 0 12 -54 96 -68 107 -4 3
-11 12 -17 21 -26 43 -91 135 -101 144 -6 6 -48 57 -94 115 -46 58 -91 112
-99 122 -9 9 -25 28 -36 42 -62 80 -390 417 -474 486 -55 45 -114 96 -187 159
-164 142 -555 420 -719 511 -33 18 -76 42 -95 53 -19 11 -57 33 -85 49 -84 47
-408 203 -475 228 -19 7 -39 17 -45 21 -24 17 -295 121 -360 138 -16 5 -57 17
-90 28 -33 11 -80 26 -105 33 -25 7 -65 18 -90 25 -25 7 -54 15 -65 18 -11 3
-54 14 -95 25 -41 10 -102 25 -135 31 -33 7 -85 18 -115 26 -124 30 -152 35
-189 35 -22 0 -51 4 -66 10 -29 11 -161 27 -330 40 -60 5 -157 13 -215 19
-122 12 -531 12 -640 0z m9045 -4034 c263 -35 437 -97 669 -237 142 -85 405
-329 471 -436 6 -9 18 -23 28 -30 9 -7 17 -20 17 -28 0 -9 9 -27 20 -41 11
-14 20 -34 20 -45 0 -10 6 -21 14 -24 8 -3 18 -18 21 -34 3 -16 13 -34 20 -40
8 -7 17 -27 21 -46 3 -18 15 -43 25 -55 10 -12 19 -37 19 -54 0 -18 6 -38 14
-44 8 -7 17 -40 21 -74 4 -34 13 -71 20 -83 15 -24 16 -64 13 -445 -2 -187 -6
-260 -15 -271 -7 -8 -16 -43 -19 -76 -4 -34 -13 -67 -20 -73 -8 -6 -14 -24
-14 -39 0 -15 -8 -37 -19 -49 -10 -11 -21 -39 -25 -60 -3 -21 -13 -41 -21 -45
-8 -3 -15 -16 -15 -29 0 -14 -8 -35 -19 -48 -10 -13 -21 -34 -25 -46 -4 -13
-12 -23 -17 -23 -6 0 -15 -13 -20 -29 -6 -16 -17 -32 -25 -35 -8 -3 -14 -13
-14 -23 0 -10 -9 -24 -20 -31 -11 -7 -20 -19 -20 -27 0 -8 -9 -19 -20 -25 -11
-6 -20 -15 -20 -20 0 -18 -242 -250 -260 -250 -6 0 -10 -4 -10 -8 0 -28 -208
-149 -335 -196 -27 -10 -54 -23 -60 -27 -5 -5 -17 -9 -27 -9 -9 0 -32 -6 -50
-14 -18 -8 -53 -19 -78 -26 -25 -6 -61 -16 -80 -23 -77 -24 -144 -30 -340 -31
-197 0 -282 8 -380 34 -25 6 -63 16 -85 22 -252 68 -487 204 -684 397 -131
129 -188 198 -237 286 -9 16 -23 35 -30 43 -8 7 -14 17 -14 22 0 4 -18 40 -40
79 -22 39 -40 77 -40 84 0 8 -7 20 -15 27 -8 7 -15 20 -15 29 0 9 -9 33 -20
54 -11 20 -20 45 -20 55 0 11 -9 45 -20 77 -39 112 -73 585 -46 637 7 14 17
52 21 84 4 32 13 71 21 86 8 15 14 40 14 57 0 25 44 149 70 200 5 9 18 36 30
61 11 25 34 68 50 95 16 28 33 59 39 70 5 12 16 27 25 34 9 7 16 18 16 23 0 6
10 22 23 37 12 15 31 40 42 56 24 34 178 190 255 257 116 101 353 224 538 279
37 11 77 25 90 30 13 5 36 9 51 9 15 0 41 5 57 10 80 28 326 36 479 15z
m-12505 -295 c178 -32 245 -53 407 -133 89 -44 167 -97 264 -182 25 -22 57
-49 70 -61 42 -36 139 -146 139 -158 0 -6 9 -19 20 -29 11 -9 20 -23 20 -30 0
-8 9 -22 20 -32 11 -10 20 -24 20 -32 0 -7 5 -13 11 -13 5 0 16 -15 24 -34 8
-19 19 -37 24 -40 4 -3 11 -19 15 -36 3 -17 12 -37 19 -45 8 -7 17 -31 21 -53
3 -22 13 -45 21 -52 8 -7 15 -29 15 -50 0 -22 8 -48 19 -62 13 -16 21 -45 24
-93 2 -39 11 -88 20 -110 23 -58 22 -204 -3 -275 -11 -32 -20 -82 -20 -120 0
-48 -5 -73 -20 -95 -11 -16 -20 -45 -20 -62 0 -18 -9 -47 -20 -65 -11 -18 -20
-45 -20 -59 0 -14 -9 -34 -20 -44 -11 -10 -20 -28 -20 -40 0 -12 -9 -30 -20
-40 -11 -10 -20 -26 -20 -36 0 -10 -5 -21 -11 -25 -6 -3 -17 -22 -25 -40 -8
-19 -19 -34 -24 -34 -6 0 -10 -6 -10 -13 0 -6 -18 -32 -40 -56 -22 -24 -40
-46 -40 -48 0 -6 -94 -97 -139 -135 -193 -163 -304 -225 -536 -303 -128 -42
-189 -50 -415 -50 -207 0 -272 7 -370 37 -64 20 -175 61 -185 68 -5 4 -54 30
-107 58 -87 45 -166 100 -267 187 -69 59 -181 180 -181 195 0 6 -7 13 -15 16
-8 3 -17 16 -21 27 -3 12 -13 30 -21 39 -17 19 -32 45 -97 174 -25 50 -46 98
-46 105 0 8 -7 24 -15 36 -8 12 -18 43 -21 70 -4 26 -12 55 -19 63 -38 46 -39
598 0 652 8 13 15 33 15 45 0 13 9 40 20 60 11 21 20 48 20 61 0 13 9 40 20
60 10 20 22 44 25 52 3 8 17 33 30 55 14 22 29 50 34 62 37 82 171 241 302
357 36 33 202 144 227 153 10 4 33 16 52 28 47 28 186 86 235 97 228 53 446
62 635 28z m10155 -876 c65 -22 153 -88 209 -156 25 -31 46 -60 46 -63 0 -4 9
-18 20 -32 11 -14 20 -41 20 -60 0 -18 8 -46 18 -60 23 -36 22 -160 -1 -194
-10 -13 -17 -35 -17 -50 0 -14 -9 -38 -20 -52 -11 -14 -20 -30 -20 -36 0 -6
-9 -16 -20 -23 -11 -7 -20 -17 -20 -23 0 -18 -94 -96 -151 -124 -35 -18 -89
-32 -148 -41 -138 -20 -216 -3 -355 77 -38 22 -146 153 -146 178 0 5 -6 16
-14 24 -8 9 -21 55 -29 103 -11 73 -11 100 0 164 7 42 17 82 22 88 5 6 12 22
16 36 8 28 59 93 113 145 47 45 162 102 233 114 70 13 184 6 244 -15z m-8299
-31 c59 -20 80 -32 162 -96 73 -57 87 -81 96 -162 l7 -60 -20 32 c-14 23 -32
35 -63 43 -24 7 -53 16 -66 21 -53 21 -129 1 -167 -43 -61 -70 -69 -91 -69
-163 1 -61 5 -76 32 -116 43 -63 87 -83 172 -77 78 6 137 39 160 90 13 29 15
31 18 11 2 -12 -2 -32 -9 -45 -8 -13 -12 -27 -10 -33 1 -5 0 -30 -4 -54 -8
-54 -55 -103 -136 -143 -98 -48 -136 -58 -219 -58 -118 0 -223 43 -307 126
-35 34 -63 69 -63 77 0 9 -7 22 -14 30 -21 21 -46 137 -46 210 1 76 22 171 44
192 9 9 16 20 16 25 0 14 103 116 146 144 99 65 236 84 340 49z m7381 -255
c-2 -13 -4 -3 -4 22 0 25 2 35 4 23 2 -13 2 -33 0 -45z m-2325 35 c53 -20 72
-36 109 -91 26 -39 29 -51 29 -125 0 -83 0 -83 -39 -123 -26 -28 -56 -46 -95
-58 -118 -37 -204 6 -263 134 -15 33 -32 60 -36 60 -10 0 -37 -63 -37 -88 0
-46 -108 -121 -176 -122 -47 0 -126 30 -155 59 -40 39 -74 119 -74 171 0 35 8
55 32 88 51 69 94 93 172 94 93 2 148 -31 208 -125 19 -31 27 -36 38 -27 8 7
17 22 21 33 14 46 79 105 133 121 61 19 83 19 133 -1z m2099 -24 c48 -24 100
-91 109 -139 9 -51 -2 -124 -23 -145 -9 -9 -17 -22 -17 -28 0 -14 -52 -51 -93
-66 -79 -30 -188 4 -243 76 -25 33 -29 48 -32 118 -3 71 -1 85 20 117 26 40
71 75 114 88 39 12 121 2 165 -21z m226 -366 c-2 -16 -4 -5 -4 22 0 28 2 40 4
28 2 -13 2 -35 0 -50z"/>
<path d="M18245 6069 c-161 -40 -273 -104 -380 -215 -68 -71 -82 -89 -89 -112
-4 -11 -13 -26 -21 -32 -8 -7 -15 -23 -15 -35 0 -12 -9 -34 -20 -48 -13 -17
-20 -40 -20 -70 0 -34 -7 -53 -30 -82 -27 -34 -30 -45 -30 -109 0 -66 4 -79
50 -170 28 -54 50 -107 50 -117 0 -10 5 -21 11 -25 6 -3 17 -22 25 -40 8 -19
18 -34 23 -34 6 0 12 -8 16 -19 5 -18 55 -69 128 -134 22 -19 67 -47 100 -62
34 -15 69 -31 77 -35 8 -4 48 -15 88 -25 172 -41 414 10 557 119 124 94 209
218 251 365 45 159 41 149 52 119 6 -14 25 -34 41 -44 17 -10 31 -21 31 -25 0
-12 109 -59 138 -59 16 0 57 14 91 31 86 43 111 84 111 182 0 71 -1 74 -37
108 -60 56 -90 70 -149 72 -47 1 -67 -5 -139 -43 -46 -25 -88 -54 -94 -65 -9
-18 -10 -17 -10 10 -1 17 -7 42 -15 57 -8 15 -17 41 -21 59 -16 72 -93 203
-159 271 -78 81 -238 169 -361 200 -57 14 -203 18 -250 7z"/>
<path d="M16920 5566 c-41 -28 -64 -53 -107 -121 -48 -72 -45 -89 35 -184 102
-120 222 -108 339 33 11 13 18 10 50 -20 60 -56 132 -94 179 -94 120 0 237
136 207 242 -10 35 -90 130 -126 152 -17 9 -51 16 -80 16 -46 0 -58 -5 -102
-41 -51 -42 -96 -69 -115 -69 -6 0 -23 14 -38 31 -33 40 -115 79 -167 79 -26
0 -52 -8 -75 -24z"/>
<path d="M16515 5573 c-59 -7 -74 -13 -134 -59 -70 -53 -88 -93 -72 -165 12
-55 36 -86 94 -126 87 -59 191 -56 255 5 75 73 103 160 67 208 -8 10 -15 26
-15 34 -1 19 -38 63 -70 83 -29 17 -81 26 -125 20z"/>
<path d="M4205 5578 c-65 -17 -102 -38 -143 -80 -9 -10 -22 -18 -28 -18 -23 0
-54 -52 -54 -89 1 -38 5 -45 72 -123 52 -61 102 -88 163 -88 66 0 104 20 159
83 l49 57 29 -18 c16 -9 47 -36 68 -59 22 -23 56 -47 76 -53 42 -14 117 -8
154 12 33 18 80 62 80 77 0 6 9 28 20 48 24 45 25 76 5 93 -8 7 -15 22 -15 33
0 64 -102 137 -190 137 -48 0 -110 -23 -110 -41 0 -12 -78 -89 -90 -89 -6 0
-14 -10 -19 -22 -7 -21 -9 -20 -20 14 -7 20 -18 39 -26 42 -8 3 -15 11 -15 19
0 17 -45 50 -89 65 -19 7 -34 11 -35 11 -1 -1 -19 -6 -41 -11z"/>
<path d="M5826 5581 c-3 -4 -18 -11 -33 -15 -31 -6 -67 -36 -100 -84 -19 -25
-23 -45 -23 -100 0 -47 4 -73 14 -81 8 -6 19 -24 26 -40 17 -41 94 -81 157
-81 50 0 115 27 141 59 47 58 62 93 62 141 0 78 -41 143 -122 193 -29 18 -113
23 -122 8z"/>
<path d="M6230 5564 c-24 -13 -47 -28 -50 -33 -16 -26 -58 -77 -79 -97 -20
-18 -23 -29 -18 -59 3 -20 14 -44 25 -53 11 -9 36 -38 56 -64 49 -62 93 -82
166 -75 62 5 109 31 150 81 21 25 26 43 28 107 4 67 1 81 -21 115 -31 49 -52
68 -101 88 -53 22 -103 19 -156 -10z"/>
<path d="M1928 6934 c-4 -3 -35 -10 -70 -15 -103 -13 -321 -70 -342 -90 -6 -5
-18 -9 -27 -9 -9 0 -39 -11 -66 -25 -26 -13 -69 -33 -94 -44 -64 -26 -270
-185 -354 -272 -38 -39 -80 -82 -92 -94 -13 -12 -23 -27 -23 -33 0 -6 -9 -16
-20 -22 -11 -6 -20 -17 -20 -24 0 -7 -9 -21 -20 -31 -11 -10 -20 -25 -20 -34
0 -9 -9 -24 -20 -34 -11 -9 -20 -24 -20 -32 0 -8 -5 -15 -11 -15 -5 0 -16 -15
-24 -34 -8 -19 -19 -37 -24 -40 -5 -4 -13 -21 -16 -39 -4 -17 -13 -39 -20 -47
-7 -8 -15 -32 -18 -54 -3 -21 -13 -46 -22 -56 -8 -9 -15 -32 -15 -51 0 -19 -9
-47 -20 -64 -14 -21 -20 -47 -20 -85 0 -34 -7 -66 -18 -85 -14 -26 -17 -57
-17 -220 0 -162 3 -195 18 -222 10 -20 17 -54 17 -88 0 -36 7 -68 20 -92 11
-21 20 -52 20 -70 0 -18 9 -50 20 -70 11 -21 20 -46 20 -56 0 -10 9 -30 20
-44 11 -14 20 -32 20 -40 0 -7 8 -26 18 -41 31 -47 42 -66 57 -99 9 -18 20
-33 25 -33 6 0 10 -6 10 -14 0 -8 11 -28 25 -44 14 -17 25 -33 25 -36 0 -19
237 -257 310 -312 84 -63 359 -201 436 -220 16 -4 34 -10 39 -14 6 -4 24 -10
40 -13 17 -2 80 -14 140 -26 250 -47 585 -18 800 69 11 5 40 17 65 27 169 68
345 188 489 333 64 64 124 127 134 140 67 94 137 203 137 213 0 7 12 30 25 52
14 22 25 47 25 56 0 8 5 20 11 26 16 16 47 104 64 182 8 35 18 68 23 75 5 6
13 48 16 94 4 46 14 98 22 117 16 39 19 239 4 315 -29 159 -69 319 -91 366
-10 23 -19 48 -19 56 0 9 -7 21 -15 28 -8 7 -15 20 -15 30 0 23 -45 111 -89
175 -19 28 -45 64 -56 82 -12 17 -28 38 -36 47 -8 8 -32 36 -54 62 -60 71
-135 146 -180 179 -22 16 -59 46 -83 67 -63 57 -122 92 -235 138 -56 23 -114
48 -128 56 -32 17 -126 43 -198 55 -30 6 -59 13 -64 16 -29 18 -404 42 -419
27z m1218 -989 c44 -14 97 -35 119 -47 85 -46 213 -155 215 -183 0 -5 9 -21
20 -35 11 -14 20 -34 20 -45 0 -11 9 -38 21 -60 19 -35 21 -55 21 -202 -1
-169 -1 -170 -54 -263 -5 -8 -15 -29 -23 -46 -7 -17 -21 -36 -29 -44 -9 -7
-16 -18 -16 -24 -1 -34 -151 -140 -243 -171 -213 -72 -454 -18 -610 138 -34
34 -68 71 -74 82 -69 110 -99 239 -90 390 6 108 36 199 96 287 27 40 133 148
145 148 2 0 22 10 43 23 131 77 298 97 439 52z m-966 -345 c27 -7 57 -27 88
-59 77 -78 77 -78 77 -166 0 -72 -3 -83 -28 -117 -54 -70 -150 -108 -236 -93
-89 15 -171 100 -185 191 -8 53 7 134 28 150 9 6 16 16 16 22 0 29 147 97 187
86 6 -1 30 -8 53 -14z"/>
<path d="M8585 6068 c-133 -33 -218 -82 -322 -184 -51 -51 -93 -96 -93 -101 0
-6 -9 -21 -19 -35 -11 -13 -23 -36 -26 -51 -4 -14 -13 -28 -21 -31 -8 -3 -14
-15 -14 -27 0 -13 -7 -30 -16 -40 -22 -24 -37 -153 -32 -275 4 -79 9 -111 26
-143 12 -23 22 -48 22 -55 0 -7 9 -25 20 -39 11 -14 20 -30 20 -36 0 -21 64
-104 124 -161 109 -104 173 -140 341 -190 54 -16 253 -7 324 14 113 33 202 87
286 172 44 44 85 87 90 95 20 27 65 119 65 131 0 8 9 30 20 51 11 20 20 46 20
56 0 24 20 71 30 71 4 0 28 -18 53 -40 85 -75 157 -88 245 -44 52 26 106 90
119 143 15 59 -45 181 -103 210 -16 8 -55 13 -92 13 -57 -1 -70 -6 -124 -42
-77 -51 -103 -58 -117 -32 -6 12 -11 30 -11 42 0 11 -6 31 -14 43 -8 12 -17
41 -21 65 -4 23 -10 42 -15 42 -4 0 -13 14 -19 31 -6 18 -28 53 -48 78 -117
144 -250 228 -426 270 -56 13 -216 13 -272 -1z"/>
<path d="M10695 6070 c-11 -5 -33 -9 -48 -9 -29 -1 -124 -28 -142 -41 -5 -4
-21 -10 -35 -13 -39 -9 -140 -78 -188 -128 -60 -63 -122 -155 -122 -182 0 -30
-65 -100 -107 -117 -18 -6 -66 -48 -107 -91 -67 -71 -76 -84 -76 -118 0 -33 7
-44 61 -95 34 -31 84 -68 110 -81 54 -28 119 -105 119 -142 0 -13 9 -31 20
-40 11 -10 20 -22 20 -28 0 -6 30 -42 68 -80 65 -66 206 -165 236 -165 8 0 17
-4 20 -8 3 -5 43 -17 89 -26 94 -20 248 -18 327 4 100 28 246 114 315 184 51
53 135 179 135 203 0 10 6 27 13 38 14 21 42 123 52 192 8 49 -21 248 -40 278
-7 11 -16 35 -19 52 -4 17 -14 37 -22 44 -8 6 -14 18 -14 26 0 27 -188 233
-212 233 -4 0 -31 15 -60 33 -64 39 -102 54 -188 73 -71 15 -174 17 -205 4z"/>
<path d="M5388 2535 c-4 -4 -47 -11 -95 -16 -110 -10 -205 -27 -217 -40 -6 -5
-23 -9 -38 -9 -16 0 -36 -4 -46 -9 -9 -4 -57 -21 -107 -36 -134 -41 -174 -56
-186 -71 -17 -20 1 -37 63 -58 88 -29 149 -63 222 -121 38 -30 79 -55 91 -55
16 0 40 21 79 69 62 75 137 143 189 171 42 23 115 34 156 25 44 -9 91 -51 91
-81 0 -14 8 -37 18 -51 13 -21 17 -48 17 -119 0 -73 -4 -96 -17 -111 -10 -11
-18 -29 -18 -41 0 -12 -9 -31 -20 -42 -11 -11 -20 -26 -20 -34 0 -7 -16 -34
-35 -59 -19 -25 -35 -50 -35 -55 0 -13 36 -22 93 -22 68 0 118 -31 145 -91 18
-39 22 -65 22 -157 0 -70 -5 -122 -14 -143 -7 -19 -16 -66 -20 -105 -3 -39
-13 -88 -21 -107 -8 -20 -15 -62 -15 -94 0 -38 -7 -71 -19 -93 -10 -19 -22
-59 -26 -88 -6 -46 -5 -52 12 -52 32 0 133 118 133 155 0 8 5 17 10 20 17 10
66 117 110 240 15 40 19 45 19 23 1 -27 4 -31 50 -67 l25 -18 -14 -115 c-7
-63 -10 -139 -6 -169 14 -121 15 -125 69 -171 27 -24 57 -50 66 -59 49 -50
268 -167 356 -190 17 -4 62 -16 100 -27 39 -11 94 -23 123 -26 56 -7 122 1
122 14 0 9 -16 14 -125 44 -33 10 -68 21 -77 27 -10 5 -26 9 -35 9 -50 1 -140
44 -198 97 -24 21 -68 53 -97 71 -29 18 -74 60 -100 93 l-48 61 -2 111 c-1
124 0 161 7 194 5 20 8 21 32 12 30 -11 91 4 110 29 15 19 7 114 -13 154 -8
15 -14 39 -14 53 0 14 -9 43 -20 65 -11 22 -20 49 -20 60 0 12 -7 34 -15 50
-8 16 -20 52 -26 80 -6 28 -17 64 -25 78 -8 15 -14 35 -14 44 0 46 -88 158
-135 172 -27 8 -52 81 -61 181 -3 44 -13 89 -20 100 -8 11 -14 33 -14 50 0 17
-6 39 -14 50 -7 11 -18 36 -25 55 -22 67 -93 123 -171 134 -73 11 -284 18
-292 11z"/>
<path d="M9450 2458 c-22 -24 -27 -77 -7 -97 16 -16 15 -148 -1 -178 -8 -14
-14 -112 -18 -290 -4 -203 -10 -278 -21 -310 -20 -54 -13 -69 31 -77 88 -17
216 -98 216 -137 0 -9 9 -28 20 -42 17 -21 20 -40 20 -126 0 -88 -3 -106 -25
-148 -25 -45 -80 -91 -130 -106 -62 -18 -164 -61 -193 -80 -18 -12 -35 -32
-38 -44 -3 -12 -14 -29 -25 -39 -10 -9 -19 -22 -19 -27 0 -5 -10 -19 -22 -31
-39 -37 -178 -211 -178 -223 0 -4 -9 -14 -20 -21 -11 -7 -20 -16 -20 -21 0 -5
-13 -23 -29 -40 -40 -42 -72 -99 -61 -106 12 -7 83 26 125 58 17 12 68 49 115
82 47 33 116 83 154 112 37 29 71 53 75 53 3 0 18 10 33 23 91 76 118 96 158
113 8 3 29 12 47 20 61 27 80 13 108 -79 20 -65 32 -75 68 -55 47 25 132 87
167 121 107 104 168 361 131 557 -19 106 -52 159 -172 282 -60 61 -109 116
-109 121 0 6 -8 19 -17 29 -15 16 -18 51 -21 255 -3 130 -8 230 -12 222 -17
-31 -42 -233 -50 -401 -7 -157 -10 -181 -30 -212 -12 -20 -26 -36 -31 -36 -23
0 -132 68 -151 95 -4 5 -8 182 -8 392 0 333 -2 384 -16 397 -20 20 -19 20 -44
-6z"/>
<path d="M8584 2400 c-18 -4 -63 -24 -100 -45 -38 -21 -85 -47 -104 -58 -19
-10 -42 -25 -51 -33 -8 -8 -19 -14 -23 -14 -4 0 -22 -11 -40 -25 -18 -14 -36
-25 -40 -25 -6 0 -79 -46 -103 -65 -65 -52 -113 -115 -113 -147 0 -13 -7 -33
-15 -44 -10 -16 -15 -60 -17 -170 -3 -129 -1 -152 15 -174 9 -13 17 -37 17
-52 0 -30 11 -43 74 -89 57 -40 74 -93 57 -176 -6 -33 -11 -158 -11 -298 l0
-241 -32 -30 c-18 -17 -52 -38 -75 -48 -34 -15 -42 -24 -48 -52 -4 -24 -19
-45 -52 -71 -25 -21 -56 -47 -67 -58 -11 -11 -48 -34 -80 -51 -56 -28 -82 -54
-56 -54 21 0 202 101 318 177 64 43 121 80 126 82 16 7 74 48 106 74 51 43 64
87 70 237 5 123 8 138 30 168 26 35 95 62 158 62 25 0 41 8 63 31 16 17 29 38
29 46 0 21 48 119 65 133 38 32 274 5 346 -39 38 -23 79 -78 79 -107 0 -12 7
-27 15 -34 11 -9 15 -34 15 -96 0 -73 -3 -88 -26 -121 -14 -21 -32 -42 -40
-46 -8 -4 -14 -12 -14 -18 0 -11 -64 -70 -144 -131 -74 -56 -132 -115 -123
-125 10 -10 65 18 175 91 53 35 117 73 142 86 25 12 82 50 127 84 73 54 83 66
92 106 32 131 40 400 15 486 -14 50 -18 54 -56 65 -45 12 -110 5 -161 -16 -52
-21 -112 -27 -154 -16 -43 12 -153 103 -153 127 0 8 -7 17 -15 20 -8 3 -19 21
-25 39 -6 18 -18 39 -26 45 -10 9 -14 33 -14 81 0 95 14 115 222 312 31 29
220 167 230 167 4 0 8 9 8 20 0 43 -62 18 -266 -111 -165 -104 -247 -165 -315
-234 -98 -100 -97 -99 -105 -167 -4 -35 -11 -71 -15 -80 -32 -62 -88 -64 -185
-7 -111 67 -124 82 -124 152 0 88 29 130 198 290 27 26 55 47 61 47 6 0 11 3
11 8 1 4 34 32 75 62 41 30 76 61 79 68 3 6 4 12 3 11 -1 -1 -16 -4 -33 -9z"/>
<path d="M9778 2347 c-3 -13 -1 -32 3 -43 5 -13 8 -7 8 24 1 46 -4 55 -11 19z"/>
<path d="M10415 2117 c-58 -21 -170 -76 -190 -94 -38 -34 -105 -121 -105 -135
0 -8 -9 -23 -20 -33 -17 -15 -20 -31 -20 -103 0 -146 32 -270 73 -290 346
-165 492 -248 513 -290 6 -13 17 -29 23 -35 16 -16 14 -82 -4 -97 -8 -7 -15
-18 -15 -25 0 -14 -21 -40 -123 -148 -161 -170 -194 -201 -258 -242 -76 -49
-90 -65 -59 -65 22 0 163 66 190 88 8 7 56 43 105 79 50 36 92 68 95 72 3 3
23 18 45 33 22 15 69 55 104 88 35 33 67 60 72 60 25 0 2 -45 -51 -100 -33
-34 -60 -67 -60 -74 0 -21 -80 -94 -126 -115 -24 -12 -61 -23 -83 -27 -22 -4
-46 -13 -52 -20 -6 -8 -17 -14 -24 -14 -7 0 -18 -7 -25 -15 -19 -22 2 -41 60
-55 61 -15 81 -6 247 106 166 112 187 128 191 137 2 4 8 7 13 7 5 0 27 12 48
28 21 15 49 34 61 42 12 8 41 29 64 45 68 50 95 60 160 59 70 -1 78 -4 207
-90 122 -82 299 -233 299 -256 0 -4 19 -18 43 -32 51 -30 121 -44 132 -25 9
13 -17 39 -120 119 -31 25 -78 62 -103 83 -25 22 -62 49 -81 62 -52 32 -63 49
-59 92 3 36 5 38 39 41 51 4 101 -29 248 -166 25 -23 64 -54 86 -68 22 -14 55
-46 74 -70 21 -27 64 -62 115 -93 132 -78 176 -95 190 -72 9 14 -16 38 -85 84
-65 42 -156 116 -227 186 -29 28 -36 44 -40 84 -3 35 -1 52 9 58 8 5 51 9 96
9 l82 0 65 -50 c86 -64 92 -70 124 -104 57 -61 88 -92 112 -111 14 -11 31 -31
38 -45 7 -14 22 -41 32 -61 19 -36 70 -83 120 -109 41 -22 148 -17 200 9 49
25 90 59 90 74 0 5 -17 7 -37 5 -83 -10 -202 47 -223 106 -6 16 -16 37 -24 45
-7 9 -18 31 -24 49 l-11 33 32 -6 c17 -4 68 -24 112 -45 106 -51 140 -56 160
-27 49 69 67 90 60 72 -4 -11 -9 -31 -11 -45 -3 -14 -7 -32 -10 -41 -2 -9 0
-29 7 -45 l11 -29 24 28 c21 24 24 38 24 100 0 40 5 88 10 107 7 24 6 89 -2
207 -11 165 -11 173 8 194 32 35 85 56 164 63 147 13 201 27 237 63 39 39 42
71 10 101 -46 43 -215 25 -307 -34 -33 -20 -51 -37 -91 -81 -23 -27 -59 -118
-59 -151 0 -16 -7 -49 -15 -72 -8 -23 -15 -62 -15 -86 0 -67 -13 -89 -59 -103
-33 -9 -50 -9 -83 1 -62 18 -214 137 -353 275 -133 132 -265 237 -354 283 -83
41 -194 63 -257 50 -27 -6 -89 -11 -139 -13 l-90 -2 -31 62 c-18 34 -36 67
-42 75 -75 92 -101 109 -123 82 -17 -20 -2 -152 20 -170 9 -7 27 -22 40 -32
24 -19 24 -20 5 -29 -12 -6 -74 -8 -161 -4 -127 5 -145 8 -170 29 -89 71 -153
69 -232 -8 -60 -60 -83 -63 -205 -26 -45 13 -103 29 -131 35 -27 7 -61 20 -75
30 -27 20 -73 99 -64 112 10 17 -16 46 -90 98 -42 30 -76 56 -76 59 0 2 9 17
21 33 36 50 71 62 173 57 97 -5 142 -22 184 -65 26 -28 27 -38 6 -78 -14 -27
-14 -30 2 -42 21 -15 122 -17 158 -3 14 5 32 23 41 40 16 31 15 50 -10 165
-12 56 -113 128 -221 158 -67 19 -202 21 -249 4z"/>
<path d="M7029 2048 c-14 -24 -19 -44 -16 -73 8 -65 26 -128 47 -157 11 -15
20 -31 20 -35 0 -5 9 -14 20 -21 11 -7 20 -18 20 -26 0 -7 7 -19 15 -26 33
-27 9 -77 -52 -109 -25 -13 -159 -15 -167 -2 -8 13 -107 21 -127 10 -18 -9
-19 -25 -20 -237 0 -246 -7 -311 -32 -337 -9 -9 -17 -20 -17 -25 0 -5 -52 -61
-116 -125 -87 -86 -114 -119 -106 -127 19 -19 102 27 247 137 196 150 203 161
204 301 1 64 23 143 44 156 20 13 71 9 95 -8 27 -19 30 -79 6 -126 -26 -51 1
-191 47 -239 30 -31 114 -99 123 -99 3 0 40 -20 80 -45 109 -66 127 -60 50 15
-66 65 -99 144 -108 259 -8 103 0 202 19 227 20 27 53 8 81 -49 20 -39 28 -72
33 -146 5 -76 10 -100 26 -117 11 -12 34 -37 50 -57 17 -19 59 -54 95 -78 36
-23 80 -56 98 -73 18 -17 45 -38 60 -46 15 -8 43 -25 62 -36 41 -26 96 -39
104 -26 3 5 -25 38 -62 73 -158 151 -240 239 -246 266 -4 15 -15 36 -23 46
-14 15 -15 45 -10 248 5 151 3 237 -3 250 -11 19 -50 26 -64 12 -4 -4 -32 -13
-63 -19 -108 -21 -183 17 -183 93 0 38 -76 204 -103 224 -12 9 -27 70 -27 110
0 70 -65 93 -101 37z"/>
    </g>
  </g>
</g>

<!-- Ring -->
<g clip-path="url(#clipRing)">
  <rect x="0" y="0" width="25000" height="25000" fill="#162840"/>
</g>

<!-- Ring borders -->
<circle cx="12500" cy="12500" r="11650" fill="none" stroke="#3878a8" stroke-width="40"/>
<circle cx="12500" cy="12500" r="10200" fill="none" stroke="#3878a8" stroke-width="40"/>
<circle cx="12500" cy="12500" r="11600" fill="none" stroke="#90cce8" stroke-width="10"/>
<circle cx="12500" cy="12500" r="10240" fill="none" stroke="#90cce8" stroke-width="10"/>

<!-- Text -->
<text font-family="'Helvetica Neue',Helvetica,Arial,sans-serif" font-size="520" font-weight="900" fill="#6ab4dc" text-anchor="middle">
  <textPath xlink:href="#textTop" startOffset="50%" textLength="21000" lengthAdjust="spacing">ANDORIAN EMPIRE</textPath>
</text>
<text font-family="'Helvetica Neue',Helvetica,Arial,sans-serif" font-size="520" font-weight="900" fill="#6ab4dc" text-anchor="middle">
  <textPath xlink:href="#textBot" startOffset="50%" textLength="23500" lengthAdjust="spacing">HONOR IN ICE AND STEEL</textPath>
</text>

</svg>