<?xml version="1.0" encoding="UTF-8"?>
<svg xmlns="http://www.w3.org/2000/svg" width="700" height="700" viewBox="0 0 25000 25000">
<defs>
  <clipPath id="clipFrame"><circle cx="12500" cy="12500" r="10200"/></clipPath>
  <path id="textTop" d="M 1650,12500 A 10850,10850 0 0,1 23350,12500" fill="none"/>
  <path id="textBot" d="M 1550,12500 A 10950,10950 0 1,0 23450,12500" fill="none"/>
</defs>
<g clip-path="url(#clipFrame)">
  <circle cx="12500" cy="12500" r="10200" fill="#080c0a"/>
  <circle cx="8500" cy="5000" r="25" fill="#60a090" opacity="0.5"/>
  <circle cx="14200" cy="7500" r="20" fill="#00c0c0" opacity="0.4"/>
  <circle cx="5000" cy="12000" r="18" fill="#60a090" opacity="0.3"/>
  <circle cx="17500" cy="14000" r="30" fill="#00c0c0" opacity="0.5"/>
  <circle cx="11000" cy="4000" r="15" fill="#80c0b0" opacity="0.5"/>
  <circle cx="16000" cy="10000" r="22" fill="#00c0c0" opacity="0.4"/>
  <circle cx="9000" cy="16000" r="16" fill="#60a090" opacity="0.3"/>
  <circle cx="13500" cy="17000" r="20" fill="#80c0b0" opacity="0.4"/>
  <g transform="translate(5083,3175) scale(0.75)"><g transform="translate(0,24310) scale(1,-1)"><path d="M10020 23754 c-6 -15 -15 -127 -20 -248 -6 -122 -14 -239 -20 -261
-5 -22 -12 -110 -15 -195 -4 -85 -13 -175 -20 -200 -7 -25 -17 -97 -20 -160
-4 -63 -13 -124 -19 -135 -7 -11 -16 -68 -20 -127 -3 -59 -13 -122 -20 -140
-8 -19 -16 -90 -19 -163 -3 -71 -11 -143 -18 -160 -6 -16 -15 -86 -19 -155 -5
-77 -14 -139 -24 -162 -9 -22 -16 -65 -16 -105 0 -46 -7 -82 -20 -112 -13 -29
-20 -65 -20 -107 0 -39 -7 -80 -17 -102 -11 -25 -18 -81 -23 -174 -4 -84 -12
-143 -19 -152 -7 -8 -16 -60 -20 -115 -4 -55 -13 -107 -20 -115 -7 -8 -16 -51
-20 -95 -5 -45 -14 -88 -21 -96 -6 -8 -15 -54 -19 -102 -4 -48 -13 -98 -20
-111 -7 -12 -16 -74 -20 -137 -4 -62 -13 -120 -19 -127 -6 -8 -14 -52 -18 -99
-4 -46 -12 -95 -19 -109 -7 -14 -15 -53 -18 -88 -4 -34 -13 -72 -21 -85 -7
-12 -17 -48 -20 -81 -4 -32 -12 -68 -18 -80 -6 -11 -15 -60 -19 -107 -3 -47
-14 -100 -23 -117 -9 -18 -16 -55 -16 -87 0 -33 -8 -76 -19 -103 -11 -26 -22
-75 -24 -110 -3 -34 -10 -69 -17 -77 -6 -7 -15 -50 -19 -94 -5 -45 -14 -88
-21 -96 -6 -8 -16 -54 -20 -102 -5 -48 -15 -106 -24 -128 -8 -22 -15 -64 -16
-93 0 -29 -7 -66 -15 -82 -9 -16 -18 -51 -22 -77 -3 -27 -11 -59 -18 -73 -7
-14 -16 -48 -20 -75 -4 -28 -13 -61 -20 -75 -7 -14 -15 -58 -19 -98 -3 -41
-12 -86 -20 -100 -7 -15 -16 -57 -19 -94 -3 -37 -12 -80 -20 -95 -8 -15 -17
-52 -20 -81 -3 -29 -13 -62 -22 -74 -8 -13 -15 -38 -15 -57 0 -19 -9 -53 -19
-75 -10 -23 -21 -69 -24 -103 -3 -34 -12 -72 -21 -85 -9 -13 -16 -43 -16 -73
-1 -28 -9 -67 -20 -90 -11 -22 -19 -54 -20 -71 0 -18 -9 -51 -20 -75 -11 -24
-20 -59 -20 -77 0 -18 -7 -43 -15 -55 -8 -13 -19 -53 -24 -91 -5 -37 -14 -73
-20 -79 -5 -7 -13 -41 -17 -77 -3 -36 -13 -77 -21 -92 -7 -15 -16 -49 -20 -75
-3 -27 -12 -57 -18 -68 -7 -11 -15 -41 -19 -68 -3 -26 -12 -57 -20 -70 -7 -12
-16 -45 -19 -74 -3 -29 -13 -65 -21 -82 -9 -16 -16 -45 -16 -63 0 -18 -9 -53
-20 -77 -11 -24 -20 -53 -20 -66 0 -13 -9 -42 -20 -66 -11 -24 -20 -54 -20
-67 0 -12 -9 -40 -20 -62 -11 -22 -20 -55 -20 -74 0 -18 -9 -53 -20 -77 -11
-24 -20 -61 -20 -82 0 -21 -7 -48 -15 -61 -8 -12 -18 -45 -22 -72 -3 -27 -12
-58 -18 -69 -7 -11 -16 -38 -20 -60 -3 -22 -13 -50 -21 -62 -8 -13 -17 -44
-21 -70 -3 -27 -12 -60 -19 -74 -7 -14 -16 -50 -20 -80 -4 -30 -13 -63 -19
-74 -7 -11 -16 -42 -20 -70 -4 -27 -13 -58 -21 -69 -8 -11 -14 -32 -14 -46 0
-14 -8 -41 -19 -60 -10 -19 -21 -53 -25 -74 -4 -22 -14 -49 -22 -60 -8 -11
-14 -31 -14 -43 0 -13 -9 -40 -20 -60 -11 -21 -20 -45 -20 -53 0 -8 -9 -28
-20 -45 -11 -16 -20 -39 -20 -50 0 -11 -7 -30 -15 -41 -8 -12 -19 -52 -25 -89
-9 -57 -8 -71 4 -83 20 -20 64 -4 126 48 26 22 53 40 59 40 6 0 21 11 33 25
12 14 30 25 40 25 10 0 28 11 40 25 12 14 29 25 38 25 10 0 29 11 44 25 15 14
35 25 45 25 10 0 26 8 35 19 9 10 31 21 47 25 17 3 42 15 56 26 14 11 34 20
44 20 10 0 35 11 55 25 20 14 45 25 55 25 10 0 39 11 65 25 26 14 61 25 79 25
18 0 43 8 56 18 13 11 44 22 69 26 24 4 52 14 61 22 8 8 50 18 92 24 43 5 91
17 108 26 18 9 68 20 113 24 45 4 99 15 121 25 30 13 87 19 250 25 115 5 228
13 250 19 51 14 167 14 236 1 30 -6 141 -15 247 -20 145 -7 200 -14 225 -26
17 -10 66 -20 108 -25 43 -4 91 -15 109 -24 18 -9 67 -20 111 -25 43 -4 90
-15 103 -23 13 -9 58 -20 99 -26 41 -5 88 -16 104 -25 15 -8 47 -20 69 -26 23
-5 47 -17 54 -25 7 -8 27 -17 45 -21 19 -3 41 -15 51 -25 9 -10 27 -19 40 -19
13 0 35 -11 50 -25 15 -14 37 -25 49 -25 13 0 28 -7 35 -15 7 -8 31 -24 54
-35 83 -41 112 -59 125 -74 8 -9 18 -16 23 -16 14 0 87 -46 155 -97 55 -42 95
-54 108 -32 11 16 -17 142 -37 168 -10 13 -18 34 -18 46 0 12 -7 28 -15 35 -7
6 -17 33 -20 58 -3 26 -13 62 -20 80 -8 18 -18 57 -21 87 -4 30 -13 60 -20 66
-8 6 -14 26 -14 43 0 17 -9 51 -20 75 -11 24 -20 55 -20 70 0 14 -9 46 -20 70
-11 24 -20 55 -20 70 0 14 -9 40 -20 56 -11 17 -20 44 -20 60 0 17 -9 48 -20
70 -11 22 -19 52 -20 68 0 15 -9 44 -20 64 -11 21 -20 51 -20 68 0 17 -7 40
-15 53 -9 12 -19 45 -22 74 -3 29 -11 60 -18 68 -7 8 -16 38 -20 65 -4 28 -13
59 -20 71 -7 11 -16 43 -20 70 -4 27 -13 58 -20 69 -6 11 -15 42 -19 70 -5 27
-14 58 -22 69 -8 11 -14 33 -14 49 0 16 -9 49 -19 75 -11 26 -22 70 -25 99 -3
29 -11 62 -19 75 -8 13 -17 46 -20 73 -3 28 -13 64 -21 80 -9 17 -16 44 -16
62 0 18 -9 55 -20 83 -11 28 -20 70 -20 93 -1 23 -9 60 -20 82 -11 22 -19 59
-20 81 0 23 -9 61 -20 85 -11 24 -20 56 -20 70 0 15 -9 46 -20 70 -11 24 -20
58 -20 74 0 17 -7 43 -15 58 -8 16 -17 52 -21 80 -4 29 -13 64 -20 78 -7 14
-16 54 -20 90 -4 35 -12 75 -19 89 -7 14 -16 50 -20 80 -3 30 -12 69 -20 85
-7 17 -17 57 -21 90 -4 33 -12 73 -19 90 -7 16 -16 56 -20 88 -3 32 -12 73
-20 90 -7 18 -16 60 -19 94 -4 35 -14 79 -21 98 -8 19 -15 46 -15 60 0 14 -9
51 -19 82 -11 32 -22 81 -26 108 -4 28 -11 55 -16 61 -5 6 -13 42 -19 80 -5
38 -16 87 -24 109 -8 22 -15 59 -16 82 0 23 -7 62 -15 86 -8 24 -19 73 -24
109 -5 36 -14 75 -20 85 -5 11 -15 57 -20 102 -6 45 -15 90 -20 100 -6 10 -13
49 -17 87 -4 38 -13 81 -20 96 -8 14 -17 59 -20 100 -4 40 -12 87 -19 104 -7
17 -16 60 -20 95 -4 35 -13 75 -20 89 -7 14 -15 58 -19 98 -3 41 -11 83 -17
95 -7 11 -16 56 -20 100 -5 43 -14 88 -20 98 -5 11 -14 59 -20 106 -5 48 -16
107 -24 131 -8 23 -15 69 -15 101 0 32 -9 87 -20 121 -11 34 -20 86 -20 114 0
28 -9 80 -20 114 -12 38 -20 93 -20 135 -1 40 -8 90 -16 112 -8 22 -18 86 -23
142 -4 56 -13 109 -20 117 -7 8 -16 61 -20 118 -5 57 -14 117 -20 133 -7 17
-15 71 -18 120 -2 50 -11 110 -19 134 -7 24 -17 80 -20 125 -4 45 -13 98 -20
118 -7 21 -16 95 -19 165 -4 71 -12 144 -20 163 -7 19 -16 78 -20 130 -3 52
-13 113 -20 135 -8 22 -16 84 -20 137 -3 54 -10 110 -16 125 -6 16 -15 87 -20
158 -5 72 -15 148 -23 170 -10 26 -15 79 -16 150 -1 74 -6 123 -16 150 -10 25
-18 87 -21 168 -4 102 -10 139 -29 185 -26 64 -49 77 -64 36z" fill="#708878" stroke="#384038" stroke-width="8"/></g></g>
  <g transform="translate(5083,3175) scale(0.75)"><g transform="translate(0,24310) scale(1,-1)"><path d="M4800 19625 c-19 -14 -39 -25 -45 -25 -7 0 -22 -9 -35 -20 -13 -11
-28 -20 -35 -20 -6 0 -22 -11 -35 -25 -13 -14 -30 -25 -39 -25 -8 0 -24 -9
-36 -21 -11 -11 -45 -36 -75 -54 -72 -45 -85 -55 -128 -87 -19 -16 -41 -28
-48 -28 -7 0 -18 -8 -23 -19 -6 -10 -24 -24 -41 -31 -16 -7 -30 -16 -30 -20 0
-4 -27 -24 -59 -44 -33 -21 -67 -46 -77 -57 -9 -10 -21 -19 -27 -19 -5 0 -24
-12 -42 -27 -17 -16 -42 -35 -55 -43 -13 -8 -53 -41 -89 -73 -161 -143 -267
-231 -288 -238 -17 -6 -105 -84 -180 -159 -239 -241 -315 -322 -405 -434 -27
-33 -55 -64 -62 -70 -17 -14 -235 -290 -261 -331 -10 -16 -30 -50 -43 -75 -13
-25 -31 -54 -41 -65 -19 -22 -61 -107 -61 -122 0 -5 -9 -18 -20 -28 -11 -10
-20 -25 -21 -34 0 -9 -14 -38 -30 -66 -16 -27 -32 -57 -35 -65 -4 -8 -17 -38
-30 -67 -13 -28 -24 -58 -24 -66 0 -8 -7 -20 -15 -27 -8 -7 -15 -22 -15 -33 0
-11 -8 -38 -19 -61 -10 -23 -23 -59 -29 -81 -13 -54 -30 -102 -53 -150 -11
-22 -19 -52 -19 -67 0 -15 -9 -50 -20 -78 -13 -34 -20 -74 -20 -123 0 -40 -8
-100 -17 -132 -15 -51 -18 -107 -18 -375 0 -275 2 -321 18 -363 9 -26 17 -72
17 -101 0 -32 8 -71 20 -97 11 -24 20 -60 20 -80 0 -20 9 -56 20 -80 11 -24
20 -55 20 -69 0 -14 9 -43 20 -65 11 -22 20 -50 20 -62 0 -13 9 -40 20 -60 11
-21 20 -50 20 -64 0 -15 7 -32 15 -39 8 -7 18 -30 21 -51 4 -22 10 -39 15 -39
4 0 13 -17 20 -37 6 -21 17 -49 24 -63 7 -14 25 -50 40 -80 15 -30 31 -60 36
-66 5 -6 21 -33 35 -60 26 -50 74 -125 85 -134 4 -3 21 -32 38 -65 18 -32 35
-62 39 -65 4 -3 21 -25 37 -50 17 -25 35 -50 40 -57 6 -6 20 -27 33 -45 55
-78 133 -180 206 -268 156 -189 719 -720 763 -720 5 0 19 -10 30 -22 12 -13
37 -34 57 -48 54 -37 108 -76 136 -99 14 -11 39 -32 56 -46 18 -14 36 -25 42
-25 5 0 16 -7 23 -17 8 -9 29 -22 47 -30 17 -7 32 -18 32 -23 0 -5 15 -18 34
-27 18 -10 53 -31 76 -48 68 -47 92 -63 140 -90 25 -14 65 -39 90 -55 25 -16
52 -33 60 -37 8 -3 29 -17 46 -30 17 -13 35 -23 39 -23 5 0 16 -7 26 -16 20
-18 63 -43 125 -73 23 -10 45 -24 48 -29 3 -6 22 -16 42 -22 20 -7 45 -21 55
-31 11 -11 30 -19 44 -19 14 0 29 -8 35 -19 5 -11 23 -22 39 -26 17 -3 40 -14
53 -24 13 -10 39 -22 58 -26 19 -4 42 -13 51 -21 8 -8 31 -19 50 -26 61 -23
139 -78 145 -104 15 -59 -37 -131 -103 -141 -21 -3 -49 -14 -62 -25 -13 -10
-41 -21 -62 -24 -21 -4 -46 -15 -55 -25 -9 -11 -26 -19 -37 -19 -10 0 -32 -11
-49 -25 -16 -14 -35 -25 -42 -25 -7 0 -27 -11 -46 -25 -19 -14 -41 -25 -50
-25 -10 0 -29 -11 -44 -25 -15 -14 -38 -25 -51 -25 -13 0 -28 -6 -32 -14 -4
-8 -24 -21 -43 -30 -68 -33 -102 -55 -117 -75 -8 -12 -25 -21 -38 -21 -14 0
-29 -8 -35 -19 -5 -11 -23 -22 -39 -26 -16 -3 -37 -15 -47 -26 -9 -10 -25 -19
-34 -19 -9 0 -27 -11 -40 -25 -13 -14 -31 -25 -41 -25 -9 0 -24 -11 -33 -25
-9 -14 -25 -25 -35 -25 -10 0 -26 -9 -36 -20 -10 -11 -27 -22 -39 -26 -11 -4
-34 -17 -49 -30 -16 -13 -33 -24 -39 -24 -10 0 -22 -8 -129 -93 -37 -29 -77
-59 -90 -67 -13 -8 -34 -27 -48 -42 -14 -16 -30 -28 -36 -28 -5 0 -44 -32 -85
-70 -41 -39 -78 -70 -82 -70 -3 0 -26 -20 -50 -44 -24 -24 -50 -47 -59 -52
-39 -21 -427 -398 -525 -510 -63 -72 -276 -340 -332 -418 -18 -25 -37 -57 -42
-71 -9 -24 -48 -85 -61 -95 -4 -3 -23 -34 -43 -70 -21 -36 -46 -78 -57 -95
-10 -16 -24 -41 -30 -55 -6 -14 -15 -32 -20 -40 -19 -33 -69 -140 -69 -148 0
-5 -6 -15 -14 -21 -7 -6 -16 -29 -20 -50 -3 -21 -13 -44 -21 -51 -8 -7 -15
-22 -15 -34 -1 -11 -9 -39 -20 -61 -11 -22 -19 -49 -20 -60 0 -12 -9 -38 -20
-60 -11 -22 -20 -50 -20 -62 0 -13 -9 -40 -20 -60 -11 -21 -20 -49 -20 -63 -1
-14 -9 -43 -20 -65 -11 -23 -19 -62 -20 -92 0 -29 -8 -72 -18 -95 -15 -38 -17
-85 -17 -433 0 -315 3 -395 14 -415 8 -13 17 -58 22 -100 4 -41 14 -88 23
-105 9 -16 16 -48 16 -70 0 -22 9 -60 20 -84 11 -24 20 -56 20 -71 0 -15 7
-33 15 -40 8 -7 17 -28 21 -49 3 -20 15 -54 25 -77 10 -22 19 -48 19 -57 0 -9
9 -34 20 -54 11 -21 20 -45 21 -53 0 -8 13 -37 30 -65 16 -27 33 -61 39 -75 5
-14 14 -32 19 -40 5 -8 23 -41 40 -73 40 -75 30 -59 325 -492 98 -143 127
-178 235 -286 53 -53 161 -163 241 -244 80 -81 163 -162 184 -179 22 -17 59
-50 83 -73 24 -24 46 -43 51 -43 4 0 30 -22 59 -48 66 -60 176 -142 191 -142
7 0 17 -9 24 -20 7 -11 18 -20 25 -20 7 0 28 -14 46 -30 19 -17 39 -30 43 -30
5 0 31 -20 59 -45 27 -25 54 -45 60 -45 6 0 31 -19 55 -43 41 -38 74 -64 119
-92 9 -5 29 -20 44 -33 16 -12 34 -22 41 -22 7 0 21 -9 31 -20 10 -11 23 -20
28 -20 5 0 34 -17 64 -37 30 -21 69 -47 87 -58 18 -11 50 -32 72 -47 21 -15
50 -36 64 -45 14 -10 28 -23 32 -29 4 -7 20 -15 35 -19 15 -3 32 -13 37 -21 6
-7 26 -17 45 -20 32 -7 33 -6 26 17 -9 29 -91 111 -159 159 -77 55 -471 435
-549 530 -89 109 -155 198 -162 220 -4 13 -22 45 -39 70 -50 74 -56 83 -72
120 -9 19 -19 37 -23 40 -12 10 -48 66 -76 120 -16 30 -36 64 -46 75 -21 26
-42 65 -74 140 -14 33 -35 77 -45 97 -11 20 -20 46 -20 56 0 11 -6 25 -14 31
-8 6 -19 31 -25 56 -6 24 -15 47 -21 50 -5 3 -10 16 -10 27 0 11 -8 39 -19 62
-30 67 -52 138 -61 192 -4 28 -15 65 -24 82 -9 17 -16 46 -16 65 0 19 -8 61
-19 93 -31 100 -43 485 -25 849 8 163 14 217 27 242 9 18 17 50 17 71 0 22 9
59 20 83 11 24 20 58 20 74 0 17 7 40 15 52 8 11 17 39 21 62 4 22 13 46 20
52 8 6 14 23 14 38 0 14 9 42 19 62 11 20 23 52 26 72 4 20 13 41 20 47 8 6
17 25 20 42 6 26 32 82 64 138 5 8 14 26 20 40 6 14 20 39 31 55 11 17 27 44
36 60 9 17 38 61 63 99 71 107 79 118 103 160 13 21 28 46 33 56 6 9 17 24 25
32 8 9 24 28 35 43 11 14 27 34 35 44 8 9 37 44 64 76 27 33 89 101 137 150
48 50 125 128 171 175 87 90 218 209 246 224 10 5 36 29 59 53 22 23 45 43 50
43 5 0 27 16 49 36 21 20 55 47 74 60 19 13 53 37 75 53 22 17 47 34 55 38 8
3 28 17 43 30 16 13 34 23 41 23 7 0 21 9 31 20 10 11 24 20 31 20 7 0 25 10
41 23 15 12 39 29 53 36 49 25 90 49 105 61 18 15 63 40 121 69 23 12 47 27
53 35 7 8 25 18 41 21 15 3 36 15 46 26 9 10 27 19 39 19 12 0 30 9 40 20 10
11 34 23 54 26 20 4 45 15 56 24 11 10 34 22 50 26 17 4 40 15 52 24 13 10 40
21 60 25 21 4 49 15 63 24 14 10 38 21 54 25 17 4 35 14 40 22 6 8 29 17 51
21 22 3 49 13 60 23 11 10 37 21 59 24 21 4 50 16 65 26 14 10 48 21 75 24 27
3 63 15 81 26 18 11 41 20 52 20 11 0 32 9 45 20 14 10 45 22 69 26 24 4 59
15 78 25 19 10 55 21 80 24 25 4 62 15 81 25 19 10 65 23 102 28 36 6 77 17
90 25 12 8 38 18 56 22 64 13 65 55 7 182 -20 43 -44 96 -54 118 -29 62 -61
167 -61 197 0 15 -5 39 -11 55 -25 63 -29 112 -29 408 -1 287 1 314 20 367 11
32 20 71 20 88 0 16 9 47 20 67 11 21 20 51 20 66 0 16 9 40 20 54 11 14 20
33 20 42 0 10 16 49 35 89 60 120 45 184 -43 196 -26 3 -58 13 -69 21 -13 9
-61 19 -113 24 -63 6 -96 14 -110 26 -12 11 -44 20 -84 24 -40 4 -72 14 -84
24 -11 10 -37 21 -58 24 -22 3 -48 13 -59 23 -11 10 -38 21 -59 25 -22 3 -51
15 -64 26 -14 11 -40 19 -61 19 -21 0 -53 11 -76 25 -22 13 -54 25 -71 25 -17
0 -38 8 -48 19 -10 10 -32 22 -51 25 -18 4 -44 15 -58 26 -14 11 -34 20 -46
20 -11 0 -32 11 -47 25 -15 14 -39 25 -54 25 -14 0 -41 11 -60 25 -19 14 -43
25 -55 25 -12 0 -36 11 -55 25 -19 14 -41 25 -50 25 -9 0 -25 9 -35 20 -10 11
-26 20 -35 20 -9 0 -31 11 -50 25 -19 14 -40 25 -47 25 -7 0 -20 9 -30 19 -10
11 -30 22 -45 26 -15 4 -32 13 -39 21 -6 8 -30 23 -53 34 -44 21 -53 26 -134
80 -29 19 -67 42 -83 52 -17 9 -38 23 -48 32 -10 9 -23 16 -29 16 -7 0 -22 11
-34 25 -12 14 -29 25 -38 25 -9 0 -27 11 -40 25 -13 14 -27 25 -32 25 -5 0
-36 23 -69 50 -33 28 -63 50 -68 50 -4 0 -27 20 -52 45 -24 24 -49 45 -54 45
-6 0 -28 18 -50 40 -22 22 -51 47 -65 54 -31 18 -267 250 -340 335 -30 35 -64
74 -75 87 -11 13 -29 34 -40 48 -11 14 -29 37 -40 50 -11 13 -29 36 -40 50
-11 14 -29 37 -40 50 -11 13 -29 36 -40 51 -11 16 -24 33 -30 39 -5 6 -23 31
-39 56 -16 25 -37 57 -48 72 -10 15 -18 30 -18 33 0 7 -47 71 -67 92 -6 7 -23
37 -38 65 -14 29 -30 60 -35 68 -4 8 -27 56 -49 105 -23 50 -51 107 -61 127
-11 20 -20 44 -20 53 0 9 -9 28 -20 42 -11 14 -20 34 -20 45 0 10 -9 36 -20
58 -11 22 -20 49 -20 60 0 11 -9 38 -20 60 -11 22 -20 53 -20 69 0 16 -9 50
-20 76 -11 26 -20 66 -20 90 0 25 -9 67 -20 95 -16 41 -20 75 -20 173 -1 67
-7 192 -14 277 -11 129 -11 172 0 255 7 55 14 144 14 198 0 71 5 113 20 154
11 32 20 76 20 98 0 22 7 50 15 62 8 12 18 43 21 70 4 26 13 58 21 71 8 13 17
46 20 75 3 29 11 61 18 73 8 12 16 39 20 60 3 21 14 57 25 79 70 151 113 236
121 241 5 3 9 16 9 28 0 13 9 35 20 49 11 14 20 30 20 36 0 14 47 101 65 121
8 9 15 21 15 27 0 5 9 18 20 28 11 10 20 22 20 27 0 5 17 35 38 66 158 236
214 308 324 422 35 36 83 90 108 120 61 74 105 120 116 120 5 0 33 23 62 50
30 28 58 50 64 50 12 0 68 58 68 71 0 5 4 9 10 9 11 0 48 32 127 110 61 60 82
98 61 112 -22 13 -43 9 -78 -17z" fill="#708878" stroke="#384038" stroke-width="8"/></g></g>
  <g transform="translate(5083,3175) scale(0.75)"><g transform="translate(0,24310) scale(1,-1)"><path d="M15240 19633 c2 -32 96 -123 285 -277 50 -40 99 -84 111 -97 12 -13
36 -37 54 -52 18 -15 58 -56 88 -90 30 -34 69 -78 86 -97 72 -79 204 -250 263
-340 34 -52 66 -99 70 -105 33 -40 90 -141 146 -260 37 -77 72 -147 77 -155 6
-8 17 -31 26 -50 9 -19 29 -64 45 -98 17 -35 33 -77 36 -94 3 -16 14 -46 24
-66 11 -20 19 -44 19 -54 0 -10 6 -29 14 -41 8 -12 17 -40 21 -62 4 -21 12
-51 20 -65 7 -14 16 -47 20 -75 4 -27 13 -61 20 -75 7 -14 15 -55 19 -92 3
-36 13 -83 22 -103 22 -55 22 -817 -1 -872 -9 -20 -19 -74 -24 -120 -5 -46
-14 -89 -20 -97 -6 -8 -14 -38 -18 -67 -3 -30 -11 -64 -19 -76 -7 -12 -16 -41
-20 -65 -3 -24 -12 -52 -19 -64 -8 -12 -17 -39 -21 -60 -3 -21 -12 -46 -19
-54 -8 -8 -16 -32 -20 -52 -4 -21 -13 -42 -21 -49 -8 -6 -14 -16 -14 -22 0
-16 -99 -215 -110 -222 -6 -4 -10 -17 -10 -29 0 -13 -15 -43 -33 -67 -19 -24
-46 -66 -62 -94 -32 -55 -106 -167 -117 -175 -4 -3 -17 -21 -31 -40 -74 -109
-126 -181 -165 -230 -117 -146 -475 -510 -530 -539 -10 -5 -34 -24 -52 -41
-18 -17 -47 -38 -64 -47 -17 -9 -35 -22 -39 -29 -4 -8 -22 -21 -38 -30 -17 -8
-48 -33 -71 -55 -22 -21 -46 -39 -52 -39 -7 0 -22 -10 -33 -22 -34 -37 -74
-68 -87 -68 -7 0 -23 -11 -36 -25 -13 -14 -30 -25 -38 -25 -8 0 -27 -11 -44
-25 -16 -14 -35 -25 -42 -25 -7 0 -21 -9 -30 -19 -10 -11 -31 -23 -46 -26 -16
-3 -34 -13 -41 -21 -7 -8 -26 -22 -43 -30 -46 -23 -87 -46 -123 -72 -17 -12
-35 -22 -40 -22 -5 0 -24 -11 -43 -25 -19 -14 -44 -25 -57 -25 -12 0 -27 -9
-33 -20 -6 -11 -21 -20 -33 -20 -13 0 -38 -11 -57 -25 -19 -14 -44 -25 -56
-25 -13 0 -35 -11 -50 -25 -16 -15 -39 -25 -57 -25 -16 0 -42 -11 -59 -25 -16
-14 -40 -25 -52 -25 -13 0 -34 -8 -47 -18 -13 -11 -38 -22 -56 -25 -18 -4 -42
-16 -53 -27 -11 -11 -33 -20 -48 -20 -15 0 -43 -11 -62 -25 -20 -15 -47 -25
-67 -25 -19 0 -55 -11 -81 -25 -26 -14 -57 -25 -70 -25 -13 0 -35 -9 -49 -20
-14 -11 -38 -20 -53 -20 -15 0 -48 -11 -74 -25 -26 -14 -60 -25 -75 -25 -16 0
-45 -11 -65 -25 -27 -18 -50 -25 -86 -25 -27 0 -73 -9 -102 -19 -29 -11 -73
-22 -98 -26 -70 -10 -76 -13 -95 -48 -17 -32 -17 -34 14 -107 18 -41 43 -95
57 -119 13 -24 24 -51 24 -61 0 -9 9 -29 20 -43 11 -14 20 -34 20 -45 0 -11 9
-39 20 -63 11 -24 20 -60 20 -79 0 -20 9 -61 20 -93 18 -51 20 -82 20 -307 0
-225 -2 -256 -20 -307 -11 -32 -20 -77 -20 -101 0 -23 -9 -60 -20 -82 -11 -22
-20 -49 -20 -61 0 -23 -23 -81 -60 -151 -11 -20 -20 -42 -20 -48 0 -7 -8 -23
-19 -36 -27 -35 -37 -128 -17 -160 9 -13 23 -24 32 -24 8 0 32 -9 53 -20 21
-10 72 -23 113 -28 42 -6 86 -17 99 -25 13 -9 52 -20 86 -26 34 -5 72 -16 85
-24 13 -8 41 -18 62 -22 22 -4 51 -15 64 -26 14 -10 39 -19 56 -19 17 0 49
-12 71 -25 22 -14 54 -25 71 -25 17 0 42 -9 56 -19 13 -11 45 -22 70 -26 26
-4 54 -15 63 -25 9 -10 34 -21 55 -25 22 -4 44 -13 51 -21 6 -7 30 -19 52 -25
23 -6 52 -19 65 -30 14 -10 33 -19 43 -19 10 0 35 -11 55 -25 20 -14 47 -25
59 -25 12 0 33 -8 46 -19 13 -10 38 -21 55 -25 18 -4 40 -16 49 -26 9 -10 30
-22 45 -25 15 -3 36 -15 46 -26 9 -10 26 -19 37 -19 10 0 32 -11 49 -25 16
-14 35 -25 42 -25 7 0 21 -9 31 -20 10 -11 24 -20 31 -20 7 0 26 -11 42 -25
17 -14 36 -25 44 -25 8 0 23 -9 33 -20 10 -11 27 -22 39 -26 11 -4 34 -17 49
-30 16 -13 34 -24 42 -24 7 0 18 -7 25 -16 8 -8 27 -22 44 -30 34 -16 92 -55
117 -79 9 -8 19 -15 23 -15 8 0 33 -19 96 -70 14 -11 57 -45 95 -75 39 -30 90
-71 113 -92 24 -21 52 -42 61 -48 36 -21 244 -226 316 -310 28 -33 59 -69 70
-80 48 -50 197 -233 263 -322 71 -96 213 -314 239 -368 14 -27 31 -61 39 -75
24 -44 94 -201 94 -212 0 -6 9 -29 19 -52 46 -99 101 -235 101 -250 0 -9 6
-27 14 -39 7 -12 16 -47 20 -78 3 -31 12 -71 20 -90 7 -19 16 -72 19 -118 4
-46 12 -90 19 -99 10 -11 14 -108 16 -406 2 -334 1 -397 -13 -438 -9 -27 -19
-83 -24 -126 -5 -42 -16 -95 -25 -117 -8 -22 -15 -52 -16 -66 0 -15 -9 -46
-20 -70 -11 -24 -20 -56 -20 -70 0 -15 -7 -32 -15 -39 -8 -7 -15 -24 -15 -38
0 -13 -8 -43 -19 -66 -10 -23 -29 -68 -41 -101 -27 -72 -55 -137 -81 -187 -10
-20 -19 -43 -19 -51 0 -8 -9 -26 -20 -40 -11 -14 -20 -34 -20 -45 0 -10 -9
-27 -20 -37 -11 -10 -20 -23 -20 -30 0 -7 -9 -20 -20 -30 -11 -10 -20 -24 -20
-31 0 -15 -36 -80 -58 -107 -16 -18 -33 -46 -54 -87 -19 -37 -91 -144 -100
-148 -4 -2 -22 -29 -40 -60 -67 -120 -296 -376 -453 -509 -111 -93 -122 -104
-206 -188 -43 -44 -79 -84 -79 -88 0 -29 157 48 300 148 24 17 50 35 59 40 9
6 29 20 44 32 16 13 35 23 42 23 8 0 19 9 25 19 5 11 26 25 45 31 19 6 35 16
35 21 0 5 18 18 40 29 22 11 40 25 40 30 0 6 7 10 15 10 8 0 19 9 25 19 5 11
20 23 32 27 13 4 33 16 44 28 40 40 76 66 89 66 8 0 20 8 27 18 7 11 24 25 38
32 27 14 105 75 183 143 27 23 56 46 65 51 9 5 30 23 47 40 17 17 48 44 68 59
21 16 64 54 95 85 32 31 82 80 112 109 64 60 279 281 330 338 36 41 133 163
160 201 8 12 43 61 78 110 103 148 132 187 163 226 16 20 29 40 29 44 0 4 6
15 14 23 7 9 28 43 45 76 18 33 36 67 41 75 5 8 17 35 28 60 11 25 47 103 81
173 33 71 61 135 61 143 0 8 7 31 16 52 9 20 22 57 29 82 7 25 18 59 24 75 24
67 50 173 55 226 3 31 12 71 20 90 7 19 16 92 20 164 3 72 10 148 16 170 12
50 12 235 0 295 -5 25 -12 108 -15 185 -5 96 -13 158 -26 198 -10 31 -19 75
-19 96 0 21 -6 44 -14 50 -8 6 -17 36 -20 65 -4 30 -14 62 -21 72 -8 11 -15
30 -15 44 -1 14 -8 43 -16 65 -9 22 -20 58 -26 80 -6 22 -16 47 -23 55 -7 8
-15 30 -18 48 -4 18 -14 40 -22 48 -8 9 -15 26 -15 38 0 13 -8 34 -19 47 -10
13 -22 39 -25 56 -4 18 -11 35 -16 38 -4 3 -23 33 -40 67 -18 35 -53 94 -77
131 -25 38 -50 80 -56 95 -14 31 -45 79 -67 103 -8 9 -22 26 -30 38 -194 272
-307 411 -505 615 -11 11 -32 35 -47 54 -15 18 -44 47 -65 63 -21 17 -93 82
-160 145 -67 64 -139 129 -160 145 -21 16 -50 39 -64 52 -15 12 -46 36 -69 52
-23 17 -46 38 -51 48 -5 9 -15 17 -23 17 -7 0 -30 16 -52 36 -21 19 -55 46
-74 58 -19 13 -50 37 -69 55 -18 17 -37 31 -42 31 -5 0 -23 14 -41 30 -17 17
-35 30 -41 30 -5 0 -22 11 -39 25 -16 14 -35 25 -42 25 -7 0 -21 9 -31 20 -10
11 -23 20 -29 20 -6 0 -24 10 -39 23 -16 12 -41 32 -55 43 -15 12 -37 24 -50
28 -12 4 -27 16 -32 27 -6 10 -19 19 -29 19 -10 0 -29 9 -42 19 -14 10 -40 26
-59 35 -50 24 -97 51 -115 66 -19 15 -66 42 -123 69 -24 12 -50 28 -58 36 -9
8 -23 15 -33 15 -10 0 -30 11 -45 25 -15 14 -35 25 -45 25 -10 0 -26 9 -35 19
-10 11 -31 23 -47 26 -15 4 -38 14 -51 24 -13 10 -43 21 -67 24 -24 3 -57 15
-72 26 -16 12 -41 21 -57 21 -44 0 -102 48 -121 102 -8 23 -6 31 17 54 15 15
47 36 72 47 25 11 48 24 51 29 3 5 25 14 49 19 23 5 54 19 68 29 13 11 33 20
43 20 10 0 35 11 55 25 20 14 43 25 51 25 9 0 28 11 45 25 16 14 38 25 48 25
11 0 24 9 30 20 6 11 21 20 34 20 12 0 32 11 44 25 12 14 31 25 42 25 10 0 27
8 37 19 10 10 29 22 43 26 14 4 54 26 90 50 36 24 76 46 90 50 14 4 27 11 30
15 7 9 146 101 182 121 17 8 34 23 39 32 5 8 22 18 38 22 16 3 32 13 35 21 3
8 16 19 28 24 13 6 43 26 68 45 25 19 54 39 65 44 11 5 29 18 39 30 11 11 24
21 30 21 7 0 32 18 56 40 25 22 57 46 72 53 16 6 28 15 28 19 0 4 18 19 39 33
22 13 56 40 75 60 19 19 39 35 44 35 5 0 34 22 63 50 30 27 57 50 62 50 4 0
49 40 100 90 211 205 301 290 309 290 4 0 8 5 8 11 0 7 10 21 23 33 12 12 40
44 62 70 22 27 47 56 56 65 40 41 250 312 283 366 20 33 62 94 92 135 30 41
62 91 72 110 9 19 31 55 48 80 28 42 74 133 129 255 12 28 32 71 44 96 11 25
21 51 21 58 0 6 9 28 20 48 11 21 20 45 20 55 0 9 7 29 15 45 8 15 26 69 40
118 14 50 31 104 37 120 5 17 14 62 19 100 5 39 16 87 24 108 9 21 15 70 15
115 0 42 7 122 15 176 17 110 19 277 5 346 -5 25 -12 110 -16 190 -4 80 -12
159 -20 177 -7 18 -16 54 -19 80 -7 52 -39 161 -60 208 -8 17 -17 50 -21 75
-3 25 -13 54 -20 65 -8 11 -14 29 -14 40 0 11 -9 37 -20 58 -11 20 -20 44 -20
53 0 9 -9 27 -20 41 -11 14 -20 32 -20 40 0 8 -8 31 -19 51 -10 20 -29 60 -41
87 -40 88 -56 116 -103 186 -20 31 -37 59 -37 63 0 4 -24 42 -53 84 -30 42
-85 121 -122 175 -37 53 -93 125 -124 160 -31 34 -73 83 -93 108 -20 25 -58
68 -85 96 -26 27 -75 81 -108 119 -65 74 -296 304 -305 304 -4 0 -27 19 -51
43 -25 23 -63 55 -84 71 -22 16 -60 49 -85 73 -24 24 -48 43 -53 43 -4 0 -36
22 -70 50 -34 27 -73 59 -87 70 -14 11 -53 43 -87 70 -34 28 -66 50 -71 50 -5
0 -19 11 -32 25 -13 14 -28 25 -33 25 -5 0 -23 11 -41 25 -112 92 -143 115
-151 115 -4 0 -20 11 -37 25 -16 14 -35 25 -42 25 -7 0 -21 9 -31 20 -10 11
-23 20 -30 20 -6 0 -22 11 -35 25 -13 14 -30 25 -39 25 -8 0 -31 10 -50 23
-20 12 -43 27 -52 32 -9 6 -41 26 -70 46 -30 20 -71 46 -92 57 -38 22 -77 29
-77 15z" fill="#708878" stroke="#384038" stroke-width="8"/></g></g>
  <g transform="translate(5083,3175) scale(0.75)"><g transform="translate(0,24310) scale(1,-1)"><path d="M9780 13470 c-30 -5 -71 -13 -90 -19 -19 -6 -78 -14 -130 -18 -63 -4
-105 -11 -125 -23 -16 -10 -56 -20 -88 -23 -36 -4 -67 -13 -83 -26 -17 -13
-41 -21 -66 -21 -25 0 -52 -9 -76 -25 -20 -14 -48 -25 -63 -25 -14 0 -37 -9
-51 -19 -13 -11 -42 -23 -64 -26 -21 -4 -48 -15 -59 -25 -11 -10 -33 -21 -50
-24 -16 -4 -38 -16 -48 -27 -10 -10 -26 -19 -36 -19 -9 0 -28 -11 -41 -25 -13
-14 -31 -25 -40 -25 -9 0 -26 -11 -38 -25 -12 -14 -27 -25 -33 -25 -6 0 -24
-10 -39 -22 -16 -13 -45 -34 -65 -48 -98 -67 -292 -282 -330 -364 -8 -17 -19
-38 -24 -46 -24 -39 -51 -103 -51 -123 -1 -12 -9 -40 -20 -62 -11 -22 -20 -56
-20 -75 0 -19 -8 -48 -17 -65 -12 -22 -18 -63 -21 -155 -3 -108 -1 -133 17
-185 12 -32 21 -73 21 -90 0 -17 9 -48 20 -70 11 -22 20 -49 20 -61 0 -12 8
-32 18 -45 9 -13 28 -46 42 -74 37 -74 124 -177 241 -287 104 -97 126 -114
229 -185 30 -21 58 -43 63 -50 4 -6 21 -14 37 -18 16 -4 33 -11 36 -17 4 -6
30 -21 59 -34 29 -12 56 -28 60 -33 3 -6 14 -11 24 -11 9 0 32 -11 51 -25 19
-14 44 -25 56 -25 12 0 32 -9 46 -19 13 -11 42 -23 64 -27 21 -4 50 -15 64
-25 14 -9 47 -20 74 -23 27 -3 61 -13 75 -23 13 -9 60 -19 102 -24 43 -4 88
-15 102 -24 38 -25 433 -38 763 -26 233 9 267 12 303 31 26 13 60 20 93 20 35
0 67 7 92 21 21 11 61 23 90 26 28 3 71 16 96 29 25 13 54 24 65 24 11 0 31 9
45 20 14 11 34 20 46 20 12 0 38 11 58 25 20 14 47 25 60 25 13 0 31 9 40 19
10 11 31 23 46 26 15 3 36 15 46 26 9 10 22 19 29 19 7 0 20 9 30 20 10 11 27
22 39 26 11 4 35 18 52 33 18 14 44 35 58 46 24 19 57 49 167 150 39 36 67 67
134 152 11 14 27 33 35 42 33 38 57 78 69 114 7 20 16 37 21 37 4 0 11 17 15
38 4 20 12 44 19 52 8 8 16 36 19 63 4 26 14 59 24 73 14 22 17 54 16 228 0
186 -2 204 -22 241 -11 22 -21 50 -21 62 0 12 -7 34 -15 50 -23 44 -65 141
-65 149 0 4 -16 26 -35 50 -19 23 -35 47 -35 53 0 5 -6 14 -13 18 -7 4 -37 37
-66 72 -29 35 -71 80 -94 99 -23 19 -60 52 -82 73 -22 22 -43 39 -46 39 -4 0
-35 22 -70 50 -35 27 -75 58 -89 68 -14 10 -42 24 -62 31 -20 7 -41 18 -48 26
-6 7 -23 16 -38 20 -15 3 -36 15 -47 25 -11 9 -36 20 -56 24 -21 4 -48 15 -60
25 -13 10 -43 20 -66 24 -23 3 -54 14 -69 26 -18 14 -41 21 -72 21 -27 0 -57
8 -77 20 -19 11 -63 24 -99 28 -36 5 -73 15 -83 24 -12 11 -50 17 -121 22 -56
3 -121 14 -145 23 -35 13 -88 17 -307 19 -146 1 -290 -2 -320 -6z" fill="#708878" stroke="#384038" stroke-width="8"/></g></g>
  <g transform="translate(5083,3175) scale(0.75)"><g transform="translate(0,24310) scale(1,-1)"><path d="M7974 10385 c-16 -11 -17 -19 -5 -86 7 -41 19 -81 26 -89 7 -8 15
-31 19 -51 4 -21 13 -42 21 -49 8 -7 15 -22 15 -34 0 -11 9 -34 20 -51 11 -16
20 -46 20 -65 0 -19 9 -53 20 -75 11 -22 19 -51 20 -65 0 -14 7 -35 15 -47 8
-12 18 -43 22 -70 3 -26 12 -57 19 -68 7 -11 16 -40 20 -65 3 -25 12 -54 19
-66 8 -12 17 -39 21 -60 3 -21 12 -50 19 -64 8 -14 16 -44 20 -65 4 -22 13
-49 20 -60 7 -11 16 -45 20 -75 4 -30 13 -66 20 -80 7 -14 15 -51 19 -84 3
-32 13 -68 21 -79 8 -12 15 -34 15 -50 0 -15 9 -45 20 -67 11 -22 20 -51 20
-65 0 -14 9 -43 20 -65 11 -22 20 -52 20 -67 1 -15 9 -46 20 -68 11 -22 19
-56 20 -76 0 -20 9 -56 20 -80 11 -24 20 -58 20 -75 0 -18 9 -51 20 -75 11
-24 20 -61 20 -82 0 -21 7 -48 15 -61 8 -12 18 -45 22 -72 3 -27 12 -58 20
-70 7 -11 16 -43 19 -70 3 -27 12 -62 19 -79 7 -16 16 -57 20 -90 4 -33 13
-69 20 -80 6 -11 15 -42 19 -70 4 -27 13 -59 20 -70 7 -11 16 -43 19 -72 3
-29 12 -62 20 -75 8 -13 17 -45 21 -71 3 -27 13 -58 21 -70 8 -12 15 -42 15
-68 0 -26 9 -66 20 -90 11 -24 20 -63 20 -87 0 -23 9 -60 20 -82 11 -22 20
-52 20 -69 0 -16 9 -48 20 -72 11 -24 20 -63 20 -87 0 -24 7 -56 15 -73 9 -16
18 -60 22 -97 3 -37 12 -77 19 -89 8 -12 17 -55 20 -95 4 -40 13 -82 20 -93 7
-11 16 -47 20 -80 4 -33 12 -71 19 -85 7 -14 15 -56 19 -94 4 -38 13 -81 21
-97 8 -15 15 -50 15 -76 1 -26 8 -66 16 -88 9 -22 20 -69 24 -105 5 -36 16
-82 24 -102 9 -21 16 -60 16 -87 0 -28 9 -73 20 -101 11 -28 20 -70 20 -94 0
-24 9 -72 20 -106 11 -34 20 -84 20 -111 0 -27 9 -71 20 -99 11 -28 20 -72 20
-98 0 -26 7 -60 15 -76 9 -16 18 -57 22 -90 3 -34 12 -73 20 -89 7 -15 16 -64
20 -110 3 -45 11 -93 18 -107 7 -14 15 -58 19 -98 4 -40 13 -87 20 -105 7 -18
16 -71 19 -118 3 -47 12 -103 21 -125 8 -21 17 -70 20 -108 3 -37 11 -75 17
-82 7 -8 16 -60 20 -115 5 -55 14 -110 20 -122 7 -11 15 -71 20 -131 5 -61 15
-129 23 -151 8 -22 15 -74 16 -116 0 -48 8 -100 20 -139 11 -34 20 -88 20
-119 1 -31 7 -74 15 -96 8 -22 19 -90 24 -152 6 -62 15 -122 21 -134 7 -11 15
-72 20 -133 4 -62 12 -122 18 -133 7 -12 16 -77 21 -144 5 -68 14 -137 20
-152 6 -16 14 -88 17 -160 4 -76 13 -147 21 -167 7 -19 16 -77 19 -130 3 -52
12 -115 19 -140 8 -25 17 -110 20 -190 4 -80 13 -174 20 -210 8 -36 17 -119
20 -185 7 -118 39 -295 54 -295 19 0 41 83 47 180 4 58 12 121 19 140 8 19 16
96 19 171 3 79 11 150 20 170 8 21 16 91 19 179 3 80 11 159 17 175 7 17 16
93 21 169 5 77 15 163 23 190 7 28 16 88 20 132 3 45 12 99 20 120 8 22 17 86
19 144 3 58 11 119 17 135 7 17 16 76 20 132 5 55 14 111 21 124 6 13 15 73
19 135 5 61 13 121 20 133 6 12 15 66 19 120 5 54 14 108 21 121 6 12 15 70
20 128 5 59 16 125 24 147 8 22 16 65 16 95 0 30 7 73 15 95 8 22 17 74 21
115 3 41 12 95 19 120 8 25 17 77 20 115 4 39 13 90 20 115 7 25 16 80 20 122
3 43 12 92 19 110 7 18 16 60 20 93 4 33 13 78 20 100 7 22 17 80 20 129 4 50
14 105 22 124 8 19 14 49 14 66 0 17 7 56 15 86 9 30 20 91 26 135 6 44 17 92
25 107 8 15 14 40 14 56 0 16 9 58 20 92 11 34 20 82 20 107 0 24 7 60 15 79
8 20 19 68 24 108 5 40 14 82 20 93 6 12 13 47 16 79 3 33 14 91 24 129 39
142 43 162 56 242 8 45 18 90 23 100 6 10 13 45 17 78 4 33 12 68 17 79 6 10
16 55 23 100 14 86 26 132 56 234 10 34 19 76 19 92 0 17 9 56 19 87 11 32 22
79 25 106 3 26 12 61 21 77 8 16 15 47 15 69 0 22 7 58 16 80 8 22 22 66 29
98 19 80 33 137 56 214 10 36 19 77 19 92 0 14 9 49 20 77 11 28 20 65 20 83
0 18 7 45 15 61 8 16 18 47 21 70 4 22 11 50 17 61 6 11 16 47 23 80 17 79 40
169 58 225 8 25 18 68 22 95 3 28 12 61 19 75 7 14 16 48 19 75 4 28 13 59 20
70 7 11 16 42 19 68 4 27 14 58 22 70 8 12 15 35 15 52 0 16 9 50 20 74 11 24
20 55 20 70 1 14 9 44 20 66 11 22 20 51 20 65 0 14 9 43 20 65 11 22 20 56
20 75 0 19 9 53 20 75 11 22 19 56 20 75 0 20 7 45 15 57 8 11 17 40 21 64 3
24 13 54 20 66 8 13 17 44 20 70 4 27 12 57 19 69 8 12 18 43 23 70 6 27 15
63 21 79 25 71 43 133 53 180 6 28 17 57 24 66 8 8 14 26 14 40 0 13 9 38 20
54 11 17 20 41 20 55 0 14 9 42 20 63 11 20 20 43 20 51 0 7 7 37 16 65 14 41
14 53 4 66 -22 27 -57 17 -102 -27 -24 -24 -54 -49 -68 -56 -14 -6 -50 -30
-80 -52 -30 -22 -59 -40 -64 -40 -5 0 -17 -7 -27 -16 -19 -17 -63 -43 -119
-70 -19 -9 -45 -25 -59 -35 -13 -10 -39 -19 -57 -19 -19 0 -41 -8 -51 -19 -10
-10 -36 -22 -58 -25 -22 -4 -49 -16 -60 -25 -11 -10 -35 -21 -54 -25 -19 -3
-43 -14 -53 -23 -10 -9 -43 -20 -74 -24 -31 -4 -64 -15 -74 -24 -13 -12 -47
-19 -107 -24 -51 -5 -102 -15 -122 -25 -19 -10 -66 -20 -110 -23 -44 -3 -88
-12 -106 -22 -20 -12 -65 -20 -131 -24 -57 -4 -120 -15 -145 -24 -39 -15 -84
-18 -374 -17 -281 0 -340 2 -395 17 -36 10 -112 20 -170 23 -73 5 -114 12
-135 24 -18 10 -62 20 -108 24 -47 3 -88 12 -104 23 -14 10 -55 20 -90 24 -38
4 -71 13 -83 24 -11 10 -45 20 -79 24 -33 4 -68 15 -78 24 -10 9 -37 20 -60
25 -23 5 -49 17 -57 25 -9 8 -33 18 -55 22 -22 3 -47 15 -57 26 -9 10 -27 19
-39 19 -11 0 -36 11 -55 25 -19 14 -41 25 -50 25 -9 0 -31 11 -50 25 -19 14
-42 25 -52 25 -9 0 -22 9 -28 20 -6 11 -19 20 -30 20 -10 0 -32 11 -48 25 -17
14 -37 25 -45 25 -9 0 -22 8 -29 18 -21 30 -131 118 -155 124 -12 3 -30 0 -39
-7z" fill="#708878" stroke="#384038" stroke-width="8"/></g></g>
</g>
<circle cx="12500" cy="12500" r="10900" fill="none" stroke="#141c18" stroke-width="1400"/>
<!-- Cyan visor line -->
<circle cx="12500" cy="12500" r="10900" fill="none" stroke="#00c0c0" stroke-width="15"/>
<circle cx="12500" cy="12500" r="11600" fill="none" stroke="#080c0a" stroke-width="40"/>
<circle cx="12500" cy="12500" r="10200" fill="none" stroke="#080c0a" stroke-width="40"/>
<circle cx="12500" cy="12500" r="11620" fill="none" stroke="#304840" stroke-width="15"/>
<circle cx="12500" cy="12500" r="10180" fill="none" stroke="#304840" stroke-width="15"/>
<text font-family="'Helvetica Neue',Helvetica,Arial,sans-serif" font-size="500" font-weight="900" fill="#00a0a0" text-anchor="middle"><textPath href="#textTop" startOffset="50%">BREEN CONFEDERACY</textPath></text>
<text font-family="'Helvetica Neue',Helvetica,Arial,sans-serif" font-size="500" font-weight="900" fill="#00a0a0" text-anchor="middle"><textPath href="#textBot" startOffset="50%">FROST LEGION</textPath></text>
<g font-family="'Helvetica Neue',Helvetica,Arial,sans-serif" font-size="500" font-weight="900" text-anchor="middle" dominant-baseline="central">
  <text x="1600" y="12500" fill="#00a0a0">◇</text>
  <text x="23400" y="12500" fill="#00a0a0">◇</text>
</g>
</svg>