<svg version="1.0" xmlns="http://www.w3.org/2000/svg"
 width="375.000000" height="500.000000" viewBox="0 0 375.000000 500.000000"
 preserveAspectRatio="xMidYMid meet">
<metadata>
Created by potrace 1.16, written by Peter Selinger 2001-2019
</metadata>
<g transform="translate(0.000000,500.000000) scale(0.100000,-0.100000)"
fill="#bb88ff" stroke="none">
<path d="M1080 3255 l-784 -786 784 -784 c432 -432 790 -785 796 -785 12 0
1564 1557 1564 1568 0 4 -201 210 -445 457 l-445 450 0 172 c0 94 -3 174 -7
176 -5 3 -87 8 -183 11 l-175 7 -150 150 c-83 82 -155 149 -160 149 -6 0 -364
-353 -795 -785z m1208 363 c17 -17 17 -2169 0 -2186 -9 -9 -115 -12 -414 -12
-357 0 -403 2 -408 16 -8 20 -8 598 0 618 5 13 22 16 79 16 l73 0 5 -187 c5
-198 14 -244 56 -292 20 -22 27 -23 92 -19 101 8 153 54 194 172 10 28 22 55
26 60 5 6 9 21 9 35 0 13 4 38 9 55 16 54 32 139 41 216 4 41 13 116 19 165
27 240 31 346 31 821 0 383 3 513 12 522 16 16 160 16 176 0z m-666 -1123 c13
-59 39 -86 99 -104 l54 -17 0 -58 0 -58 -55 -19 c-55 -19 -89 -50 -90 -80 0
-31 -26 -40 -102 -37 l-73 3 -3 31 c-4 41 -29 63 -94 85 l-53 18 -3 55 c-2 40
1 57 10 60 108 31 138 54 138 107 0 47 23 61 99 56 l66 -5 7 -37z m-373 -129
c7 -8 11 -36 9 -63 l-3 -48 -135 0 -135 0 -3 54 c-2 37 1 57 10 62 7 5 65 9
129 9 89 0 119 -3 128 -14z"/>
</g>
</svg>
