<?xml version="1.0" encoding="UTF-8"?>
<svg xmlns="http://www.w3.org/2000/svg" width="700" height="700" viewBox="0 0 25000 25000">
<defs>
  <clipPath id="clipFrame"><circle cx="12500" cy="12500" r="10200"/></clipPath>
  
  <filter id="fabric" x="0%" y="0%" width="100%" height="100%">
    <feTurbulence type="fractalNoise" baseFrequency="0.035" numOctaves="4" seed="15" result="noise"/>
    <feColorMatrix in="noise" type="saturate" values="0" result="grey"/>
    <feComponentTransfer in="grey" result="subtle">
      <feFuncR type="linear" slope="0.05" intercept="0"/>
      <feFuncG type="linear" slope="0.03" intercept="0"/>
      <feFuncB type="linear" slope="0.08" intercept="0"/>
      <feFuncA type="linear" slope="0.4" intercept="0"/>
    </feComponentTransfer>
    <feComposite in="subtle" in2="SourceAlpha" operator="in" result="clipped"/>
    <feBlend in="SourceGraphic" in2="clipped" mode="multiply"/>
  </filter>
  
  <filter id="stitchBev" x="-5%" y="-5%" width="110%" height="110%">
    <feGaussianBlur in="SourceAlpha" stdDeviation="20" result="b"/>
    <feSpecularLighting in="b" surfaceScale="6" specularConstant="0.5" specularExponent="15" lighting-color="#b0a0d0" result="s">
      <feDistantLight azimuth="225" elevation="40"/>
    </feSpecularLighting>
    <feComposite in="s" in2="SourceAlpha" operator="in" result="sc"/>
    <feComposite in="SourceGraphic" in2="sc" operator="arithmetic" k1="0" k2="1" k3="0.3" k4="0"/>
  </filter>

  <path id="textTop" d="M 1650,12500 A 10850,10850 0 0,1 23350,12500" fill="none"/>
  <path id="textBot" d="M 1550,12500 A 10950,10950 0 1,0 23450,12500" fill="none"/>
</defs>

<g clip-path="url(#clipFrame)">
  <circle cx="12500" cy="12500" r="10200" fill="#1a1830"/>
  <circle cx="12500" cy="12500" r="10200" fill="#1a1830" filter="url(#fabric)"/>
  
  <g filter="url(#stitchBev)">
    <g transform="translate(3677,4386) scale(0.92)">
      <g transform="translate(0,17280) scale(1,-1)">
        <path d="M9574 16707 c-12 -7 -32 -25 -45 -40 -19 -22 -1020 -1028 -1168
-1172 -25 -25 -1316 -1323 -1339 -1347 -9 -10 -1644 -1636 -1657 -1648 -19
-19 -500 -500 -510 -510 -7 -8 -452 -452 -538 -537 -49 -50 -1161 -1162 -1172
-1173 -22 -22 -1001 -1003 -1014 -1015 -62 -59 -721 -727 -738 -749 -15 -20
-23 -44 -23 -70 0 -39 5 -46 107 -143 60 -56 112 -105 116 -110 4 -4 792 -794
1750 -1755 958 -961 1808 -1814 1889 -1895 117 -118 299 -300 376 -377 82 -82
421 -422 1546 -1551 734 -737 1339 -1343 1343 -1348 16 -14 690 -687 776 -774
111 -112 94 -94 190 -194 89 -93 118 -113 146 -104 11 3 56 47 102 96 46 50
106 112 133 138 27 25 185 183 353 351 167 168 524 526 794 795 269 270 494
495 499 500 16 18 1907 1916 3500 3515 861 864 1824 1830 2140 2148 316 318
594 594 616 614 55 47 79 88 70 121 -3 15 -91 109 -212 229 -113 111 -220 217
-238 235 -17 17 -305 307 -641 645 -335 338 -621 626 -635 641 -14 15 -223
226 -465 468 -242 243 -865 867 -1385 1388 -520 521 -965 965 -990 988 -25 22
-49 47 -55 55 -5 8 -19 28 -30 44 -20 28 -20 45 -21 957 -1 827 -3 931 -17
944 -14 14 -82 16 -544 20 -954 6 -1298 11 -1333 19 -29 6 -110 82 -475 448
-242 243 -452 455 -466 472 -14 16 -64 66 -110 111 -136 132 -368 371 -458
470 -48 53 -97 96 -114 102 -16 6 -30 11 -31 11 -1 -1 -11 -6 -22 -13z m2151
-2155 c36 -7 41 -11 57 -57 17 -44 18 -66 11 -185 -4 -74 -8 -760 -8 -1525 0
-764 -4 -3255 -9 -5535 -5 -2739 -5 -4159 2 -4188 9 -38 -1 -108 -18 -126 -3
-2 -928 -7 -2055 -11 -1128 -3 -2070 -8 -2095 -10 -25 -3 -72 1 -104 8 -52 10
-61 15 -67 40 -4 15 -10 757 -14 1649 -6 1750 -7 1720 44 1740 33 14 737 11
763 -3 10 -5 25 -24 34 -42 18 -34 17 -115 -6 -407 -7 -92 -7 -186 0 -295 5
-88 14 -362 20 -610 10 -395 14 -458 31 -517 10 -36 19 -88 19 -115 0 -27 6
-58 15 -69 8 -10 17 -45 21 -76 4 -32 13 -63 20 -69 8 -6 14 -21 14 -32 0 -32
75 -175 132 -251 34 -46 72 -82 112 -107 l61 -39 253 0 c231 0 260 2 325 22
39 11 82 27 96 34 14 8 34 14 43 14 9 0 18 3 20 8 2 4 37 30 78 57 71 46 142
111 203 186 55 68 107 139 107 145 0 4 7 15 16 25 18 20 28 39 102 182 28 57
52 108 52 115 0 7 4 12 10 12 5 0 13 12 16 27 4 16 13 39 20 53 35 68 77 181
98 265 7 28 18 60 24 70 16 31 46 127 83 265 6 25 18 65 26 90 8 25 18 74 23
110 4 36 15 79 24 95 9 17 16 47 16 68 0 21 7 54 16 75 8 20 18 66 21 102 3
36 11 76 18 90 7 14 15 59 19 100 4 41 13 100 21 130 7 30 16 89 20 130 3 41
13 98 20 125 8 28 19 99 25 158 6 59 15 119 20 132 5 13 12 66 15 117 4 51 13
113 20 138 7 25 16 97 20 160 3 63 12 138 20 165 7 28 16 113 18 190 3 77 11
154 17 170 7 17 16 113 20 215 5 102 14 203 20 225 6 22 13 114 16 205 2 91
11 215 19 275 8 61 20 229 25 375 6 146 15 326 20 400 5 74 14 367 20 651 6
284 15 615 21 735 7 135 13 924 16 2053 3 1101 8 1842 14 1852 5 10 19 20 31
22 39 7 831 6 873 -1z m-3469 -5758 c27 -33 34 -72 34 -202 0 -83 4 -109 20
-139 11 -21 20 -45 20 -55 0 -35 80 -162 142 -227 61 -62 209 -131 282 -131
19 0 47 -5 63 -11 15 -6 62 -15 103 -19 42 -5 93 -16 114 -26 63 -31 66 -48
66 -368 -1 -345 6 -327 -140 -346 -52 -6 -126 -14 -165 -17 -142 -10 -278 -88
-386 -224 -66 -81 -119 -229 -119 -331 0 -60 -3 -70 -27 -93 l-28 -25 -370 0
c-464 0 -439 -7 -472 138 -12 53 -23 107 -23 120 0 12 -9 39 -20 59 -11 21
-20 44 -20 51 0 17 -87 127 -127 162 -49 42 -91 70 -106 70 -8 0 -20 6 -26 14
-7 8 -26 18 -42 21 -17 4 -42 13 -57 21 -19 10 -66 14 -165 14 -151 0 -202 13
-213 54 -2 11 -4 171 -2 354 3 283 5 334 18 342 8 5 67 10 130 10 74 1 129 6
155 15 22 8 51 15 65 15 14 0 43 9 65 20 22 11 48 19 57 20 9 0 18 3 20 8 2 4
22 20 46 36 68 46 182 183 182 219 0 7 9 26 20 42 11 17 20 43 20 58 0 15 7
44 15 64 9 20 18 85 21 152 7 125 14 148 47 161 12 4 193 6 402 4 l380 -4 21
-26z m-1917 -818 l31 -30 0 -306 0 -307 -26 -24 c-30 -28 54 -26 -803 -20
-556 4 -605 7 -625 39 -3 5 -6 150 -7 322 -1 345 -3 334 62 350 19 5 327 8
686 7 l652 -2 30 -29z" fill="#b0a0d0" stroke="#8070a0" stroke-width="1.2" stroke-dasharray="5,3.5" stroke-linecap="round"/>
      </g>
    </g>
  </g>
  
  <g opacity="0.3">
    <g transform="translate(3677,4386) scale(0.92)">
      <g transform="translate(0,17280) scale(1,-1)">
        <path d="M9574 16707 c-12 -7 -32 -25 -45 -40 -19 -22 -1020 -1028 -1168
-1172 -25 -25 -1316 -1323 -1339 -1347 -9 -10 -1644 -1636 -1657 -1648 -19
-19 -500 -500 -510 -510 -7 -8 -452 -452 -538 -537 -49 -50 -1161 -1162 -1172
-1173 -22 -22 -1001 -1003 -1014 -1015 -62 -59 -721 -727 -738 -749 -15 -20
-23 -44 -23 -70 0 -39 5 -46 107 -143 60 -56 112 -105 116 -110 4 -4 792 -794
1750 -1755 958 -961 1808 -1814 1889 -1895 117 -118 299 -300 376 -377 82 -82
421 -422 1546 -1551 734 -737 1339 -1343 1343 -1348 16 -14 690 -687 776 -774
111 -112 94 -94 190 -194 89 -93 118 -113 146 -104 11 3 56 47 102 96 46 50
106 112 133 138 27 25 185 183 353 351 167 168 524 526 794 795 269 270 494
495 499 500 16 18 1907 1916 3500 3515 861 864 1824 1830 2140 2148 316 318
594 594 616 614 55 47 79 88 70 121 -3 15 -91 109 -212 229 -113 111 -220 217
-238 235 -17 17 -305 307 -641 645 -335 338 -621 626 -635 641 -14 15 -223
226 -465 468 -242 243 -865 867 -1385 1388 -520 521 -965 965 -990 988 -25 22
-49 47 -55 55 -5 8 -19 28 -30 44 -20 28 -20 45 -21 957 -1 827 -3 931 -17
944 -14 14 -82 16 -544 20 -954 6 -1298 11 -1333 19 -29 6 -110 82 -475 448
-242 243 -452 455 -466 472 -14 16 -64 66 -110 111 -136 132 -368 371 -458
470 -48 53 -97 96 -114 102 -16 6 -30 11 -31 11 -1 -1 -11 -6 -22 -13z m2151
-2155 c36 -7 41 -11 57 -57 17 -44 18 -66 11 -185 -4 -74 -8 -760 -8 -1525 0
-764 -4 -3255 -9 -5535 -5 -2739 -5 -4159 2 -4188 9 -38 -1 -108 -18 -126 -3
-2 -928 -7 -2055 -11 -1128 -3 -2070 -8 -2095 -10 -25 -3 -72 1 -104 8 -52 10
-61 15 -67 40 -4 15 -10 757 -14 1649 -6 1750 -7 1720 44 1740 33 14 737 11
763 -3 10 -5 25 -24 34 -42 18 -34 17 -115 -6 -407 -7 -92 -7 -186 0 -295 5
-88 14 -362 20 -610 10 -395 14 -458 31 -517 10 -36 19 -88 19 -115 0 -27 6
-58 15 -69 8 -10 17 -45 21 -76 4 -32 13 -63 20 -69 8 -6 14 -21 14 -32 0 -32
75 -175 132 -251 34 -46 72 -82 112 -107 l61 -39 253 0 c231 0 260 2 325 22
39 11 82 27 96 34 14 8 34 14 43 14 9 0 18 3 20 8 2 4 37 30 78 57 71 46 142
111 203 186 55 68 107 139 107 145 0 4 7 15 16 25 18 20 28 39 102 182 28 57
52 108 52 115 0 7 4 12 10 12 5 0 13 12 16 27 4 16 13 39 20 53 35 68 77 181
98 265 7 28 18 60 24 70 16 31 46 127 83 265 6 25 18 65 26 90 8 25 18 74 23
110 4 36 15 79 24 95 9 17 16 47 16 68 0 21 7 54 16 75 8 20 18 66 21 102 3
36 11 76 18 90 7 14 15 59 19 100 4 41 13 100 21 130 7 30 16 89 20 130 3 41
13 98 20 125 8 28 19 99 25 158 6 59 15 119 20 132 5 13 12 66 15 117 4 51 13
113 20 138 7 25 16 97 20 160 3 63 12 138 20 165 7 28 16 113 18 190 3 77 11
154 17 170 7 17 16 113 20 215 5 102 14 203 20 225 6 22 13 114 16 205 2 91
11 215 19 275 8 61 20 229 25 375 6 146 15 326 20 400 5 74 14 367 20 651 6
284 15 615 21 735 7 135 13 924 16 2053 3 1101 8 1842 14 1852 5 10 19 20 31
22 39 7 831 6 873 -1z m-3469 -5758 c27 -33 34 -72 34 -202 0 -83 4 -109 20
-139 11 -21 20 -45 20 -55 0 -35 80 -162 142 -227 61 -62 209 -131 282 -131
19 0 47 -5 63 -11 15 -6 62 -15 103 -19 42 -5 93 -16 114 -26 63 -31 66 -48
66 -368 -1 -345 6 -327 -140 -346 -52 -6 -126 -14 -165 -17 -142 -10 -278 -88
-386 -224 -66 -81 -119 -229 -119 -331 0 -60 -3 -70 -27 -93 l-28 -25 -370 0
c-464 0 -439 -7 -472 138 -12 53 -23 107 -23 120 0 12 -9 39 -20 59 -11 21
-20 44 -20 51 0 17 -87 127 -127 162 -49 42 -91 70 -106 70 -8 0 -20 6 -26 14
-7 8 -26 18 -42 21 -17 4 -42 13 -57 21 -19 10 -66 14 -165 14 -151 0 -202 13
-213 54 -2 11 -4 171 -2 354 3 283 5 334 18 342 8 5 67 10 130 10 74 1 129 6
155 15 22 8 51 15 65 15 14 0 43 9 65 20 22 11 48 19 57 20 9 0 18 3 20 8 2 4
22 20 46 36 68 46 182 183 182 219 0 7 9 26 20 42 11 17 20 43 20 58 0 15 7
44 15 64 9 20 18 85 21 152 7 125 14 148 47 161 12 4 193 6 402 4 l380 -4 21
-26z m-1917 -818 l31 -30 0 -306 0 -307 -26 -24 c-30 -28 54 -26 -803 -20
-556 4 -605 7 -625 39 -3 5 -6 150 -7 322 -1 345 -3 334 62 350 19 5 327 8
686 7 l652 -2 30 -29z" fill="none" stroke="#d8c8f0" stroke-width="0.8" stroke-dasharray="4,4.5" stroke-dashoffset="2.5" stroke-linecap="round"/>
      </g>
    </g>
  </g>
</g>

<!-- Stitched Ring -->
<circle cx="12500" cy="12500" r="10900" fill="none" stroke="#241838" stroke-width="1400"/>
<circle cx="12500" cy="12500" r="10900" fill="none" stroke="#241838" stroke-width="1400" filter="url(#fabric)"/>

<circle cx="12500" cy="12500" r="11540" fill="none" stroke="#8070a0" stroke-width="40" stroke-dasharray="60,45" stroke-linecap="round"/>
<circle cx="12500" cy="12500" r="11540" fill="none" stroke="#a090d0" stroke-width="15" stroke-dasharray="55,50" stroke-dashoffset="30" stroke-linecap="round" opacity="0.3"/>
<circle cx="12500" cy="12500" r="10260" fill="none" stroke="#8070a0" stroke-width="40" stroke-dasharray="60,45" stroke-linecap="round"/>
<circle cx="12500" cy="12500" r="10260" fill="none" stroke="#a090d0" stroke-width="15" stroke-dasharray="55,50" stroke-dashoffset="30" stroke-linecap="round" opacity="0.3"/>

<!-- Stitched text -->
<text font-family="'Impact','Arial Black',sans-serif" font-size="520" font-weight="bold"
      fill="none" stroke="#8070a0" stroke-width="16" stroke-dasharray="35,25" stroke-linecap="round"
      text-anchor="middle"><textPath href="#textTop" startOffset="50%">THE DOMINION</textPath></text>
<text font-family="'Impact','Arial Black',sans-serif" font-size="520" font-weight="bold"
      fill="none" stroke="#c0b0e0" stroke-width="7" stroke-dasharray="30,30" stroke-dashoffset="18" stroke-linecap="round"
      text-anchor="middle" opacity="0.35"><textPath href="#textTop" startOffset="50%">THE DOMINION</textPath></text>

<text font-family="'Impact','Arial Black',sans-serif" font-size="520" font-weight="bold"
      fill="none" stroke="#8070a0" stroke-width="16" stroke-dasharray="35,25" stroke-linecap="round"
      text-anchor="middle"><textPath href="#textBot" startOffset="50%">FOUNDERS&#x27; ORDER</textPath></text>
<text font-family="'Impact','Arial Black',sans-serif" font-size="520" font-weight="bold"
      fill="none" stroke="#c0b0e0" stroke-width="7" stroke-dasharray="30,30" stroke-dashoffset="18" stroke-linecap="round"
      text-anchor="middle" opacity="0.35"><textPath href="#textBot" startOffset="50%">FOUNDERS&#x27; ORDER</textPath></text>

<g font-family="'Impact','Arial Black',sans-serif" font-size="520" font-weight="bold" text-anchor="middle" dominant-baseline="central">
  <text x="1600" y="12500" fill="none" stroke="#8070a0" stroke-width="14" stroke-dasharray="30,22" stroke-linecap="round">◆</text>
  <text x="1600" y="12500" fill="none" stroke="#c0b0e0" stroke-width="6" stroke-dasharray="25,27" stroke-dashoffset="15" stroke-linecap="round" opacity="0.35">◆</text>
  <text x="23400" y="12500" fill="none" stroke="#8070a0" stroke-width="14" stroke-dasharray="30,22" stroke-linecap="round">◆</text>
  <text x="23400" y="12500" fill="none" stroke="#c0b0e0" stroke-width="6" stroke-dasharray="25,27" stroke-dashoffset="15" stroke-linecap="round" opacity="0.35">◆</text>
</g>
</svg>