<svg viewBox="0 0 5000 4860" xmlns="http://www.w3.org/2000/svg">
<defs>
  <clipPath id="nebClipL"><path d="M2605 3812 c39 -4 80 -13 92 -20 12 -7 33 -12 47 -12 13 0 37 -6 53 -14 168 -81 210 -104 262 -142 121 -88 244 -220 308 -329 29 -49 83 -167 83 -180 0 -7 4 -16 9 -19 5 -4 12 -25 16 -49 4 -23 11 -49 15 -57 5 -8 14 -69 20 -135 13 -118 3 -295 -20 -380 -35 -128 -46 -163 -59 -185 -4 -8 -15 -28 -24 -45 -36 -71 -52 -100 -57 -105 -3 -3 -17 -24 -32 -46 -42 -66 -197 -216 -273 -266 -83 -54 -183 -108 -201 -108 -7 0 -25 -6 -41 -14 -38 -19 -119 -43 -168 -50 -22 -3 -62 -10 -90 -15 -64 -12 -176 -12 -240 0 -27 5 -75 13 -105 18 -73 11 -119 28 -250 91 -76 36 -87 43 -159 94 -147 106 -278 262 -350 421 -31 69 -81 222 -81 249 0 14 -7 51 -15 83 -17 66 -20 222 -5 273 6 19 15 62 19 95 8 54 16 82 42 150 24 64 78 169 118 230 53 81 43 70 146 175 94 96 245 200 290 200 7 0 18 7 25 15 7 8 22 15 34 15 12 0 31 7 42 15 10 8 33 15 49 15 17 0 41 7 55 15 14 8 52 15 85 16 33 0 71 5 85 9 27 10 161 6 275 -8z"/></clipPath>
  <clipPath id="rClipL"><path d="M2309 3936 c-2 -2 -42 -10 -89 -16 -47 -6 -89 -16 -94 -21 -6 -5 -20 -9 -33 -9 -12 0 -39 -7 -60 -16 -89 -38 -105 -45 -140 -61 -45 -21 -136 -74 -143 -84 -3 -3 -23 -17 -45 -31 -65 -41 -219 -203 -278 -291 -65 -98 -117 -194 -117 -216 0 -9 -7 -25 -15 -35 -8 -11 -15 -29 -15 -41 0 -11 -6 -29 -14 -40 -7 -11 -16 -40 -19 -65 -3 -25 -10 -65 -16 -90 -13 -58 -13 -301 0 -360 6 -25 14 -69 19 -99 5 -29 13 -58 19 -64 6 -6 11 -23 11 -38 0 -15 6 -40 14 -56 8 -15 30 -62 50 -103 59 -123 114 -199 231 -317 164 -164 298 -243 530 -313 17 -4 67 -16 113 -25 101 -20 350 -16 457 8 118 27 173 42 181 50 4 4 15 7 24 7 10 0 23 7 30 15 7 8 23 15 36 15 12 0 25 4 28 9 3 5 25 19 48 31 69 35 187 128 266 209 123 125 238 317 281 471 7 25 17 55 22 68 33 83 46 406 22 525 -27 134 -110 338 -171 425 -12 16 -22 34 -22 39 0 5 -13 22 -30 38 -16 16 -30 34 -30 40 0 22 -235 239 -280 258 -8 4 -37 21 -65 37 -27 16 -57 33 -65 36 -8 3 -23 10 -32 15 -19 9 -107 39 -173 58 -76 21 -235 41 -333 41 -54 0 -101 -2 -103 -4z m296 -124 c39 -4 80 -13 92 -20 12 -7 33 -12 47 -12 13 0 37 -6 53 -14 168 -81 210 -104 262 -142 121 -88 244 -220 308 -329 29 -49 83 -167 83 -180 0 -7 4 -16 9 -19 5 -4 12 -25 16 -49 4 -23 11 -49 15 -57 5 -8 14 -69 20 -135 13 -118 3 -295 -20 -380 -35 -128 -46 -163 -59 -185 -4 -8 -15 -28 -24 -45 -36 -71 -52 -100 -57 -105 -3 -3 -17 -24 -32 -46 -42 -66 -197 -216 -273 -266 -83 -54 -183 -108 -201 -108 -7 0 -25 -6 -41 -14 -38 -19 -119 -43 -168 -50 -22 -3 -62 -10 -90 -15 -64 -12 -176 -12 -240 0 -27 5 -75 13 -105 18 -73 11 -119 28 -250 91 -76 36 -87 43 -159 94 -147 106 -278 262 -350 421 -31 69 -81 222 -81 249 0 14 -7 51 -15 83 -17 66 -20 222 -5 273 6 19 15 62 19 95 8 54 16 82 42 150 24 64 78 169 118 230 53 81 43 70 146 175 94 96 245 200 290 200 7 0 18 7 25 15 7 8 22 15 34 15 12 0 31 7 42 15 10 8 33 15 49 15 17 0 41 7 55 15 14 8 52 15 85 16 33 0 71 5 85 9 27 10 161 6 275 -8z"/></clipPath>
  <path id="txtTopL" d="M 1354,2118 A 1068,1068 0 0,1 3490,2118" fill="none"/>
  <path id="txtBotL" d="M 1290,2118 A 1132,1132 0 1,0 3554,2118" fill="none"/>
</defs>

<g transform="translate(0,4860) scale(1,-1)">
  <g clip-path="url(#nebClipL)">
    <circle cx="2425" cy="2730" r="1600" fill="#0f1d3a"/>
    <circle cx="2482" cy="2600" r="14" fill="#8ba399" opacity="0.49"/>
    <circle cx="2123" cy="2359" r="19" fill="#9c899c" opacity="0.78"/>
    <circle cx="3118" cy="3113" r="11" fill="#799ba8" opacity="0.47"/>
    <circle cx="1920" cy="2192" r="8" fill="#a282c5" opacity="0.53"/>
    <circle cx="2311" cy="2560" r="8" fill="#7696cc" opacity="0.84"/>
    <circle cx="2429" cy="2092" r="15" fill="#7f8aae" opacity="0.80"/>
    <circle cx="2911" cy="2881" r="3" fill="#9f95cc" opacity="0.77"/>
    <circle cx="3007" cy="2225" r="16" fill="#a38fba" opacity="0.51"/>
    <circle cx="1707" cy="2354" r="13" fill="#8882d4" opacity="0.54"/>
    <circle cx="2590" cy="2869" r="19" fill="#8d96bf" opacity="0.78"/>
    <circle cx="2288" cy="2062" r="16" fill="#7e81b0" opacity="0.61"/>
    <circle cx="2025" cy="3094" r="7" fill="#7491c4" opacity="0.71"/>
    <circle cx="2248" cy="2910" r="10" fill="#a5a2c2" opacity="0.83"/>
    <circle cx="2223" cy="2261" r="4" fill="#808bb9" opacity="0.47"/>
    <circle cx="2239" cy="3232" r="13" fill="#86aec0" opacity="0.62"/>
    <circle cx="1681" cy="2572" r="17" fill="#7798b0" opacity="0.55"/>
    <circle cx="2218" cy="3127" r="15" fill="#70a1b1" opacity="0.60"/>
    <circle cx="2888" cy="2782" r="4" fill="#9a95c0" opacity="0.72"/>
    <circle cx="1729" cy="2691" r="4" fill="#83a0bf" opacity="0.72"/>
    <circle cx="2778" cy="2932" r="8" fill="#9c92a8" opacity="0.53"/>
    <circle cx="2559" cy="2236" r="14" fill="#88abae" opacity="0.70"/>
    <circle cx="2795" cy="2561" r="8" fill="#9380be" opacity="0.56"/>
    <circle cx="2469" cy="3026" r="11" fill="#95a6c1" opacity="0.64"/>
    <circle cx="2570" cy="2351" r="11" fill="#7da0d4" opacity="0.77"/>
    <circle cx="2768" cy="3417" r="17" fill="#9f8aa2" opacity="0.56"/>
    <circle cx="2239" cy="3372" r="13" fill="#9795a3" opacity="0.78"/>
    <circle cx="2584" cy="2040" r="14" fill="#9b93b4" opacity="0.77"/>
    <circle cx="2396" cy="2949" r="6" fill="#728fd4" opacity="0.69"/>
    <circle cx="2469" cy="3221" r="16" fill="#8d9ab0" opacity="0.74"/>
    <circle cx="2712" cy="2709" r="10" fill="#898faa" opacity="0.71"/>
    <circle cx="1945" cy="3385" r="2" fill="#a086ce" opacity="0.54"/>
    <circle cx="2763" cy="3225" r="16" fill="#9ca1d3" opacity="0.47"/>
    <circle cx="2457" cy="2735" r="8" fill="#a687d2" opacity="0.50"/>
    <circle cx="2567" cy="3099" r="11" fill="#91a3c0" opacity="0.83"/>
    <circle cx="2917" cy="3304" r="16" fill="#97aed8" opacity="0.62"/>
    <circle cx="2136" cy="3203" r="18" fill="#8c8ad4" opacity="0.63"/>
    <circle cx="3000" cy="3087" r="14" fill="#a5a8bb" opacity="0.76"/>
    <circle cx="2919" cy="2573" r="11" fill="#988fbb" opacity="0.63"/>
    <circle cx="2732" cy="2193" r="14" fill="#7f91c2" opacity="0.58"/>
    <circle cx="2780" cy="2353" r="12" fill="#7889b5" opacity="0.60"/>
    <circle cx="2024" cy="2542" r="5" fill="#7d84cd" opacity="0.61"/>
    <circle cx="2270" cy="2369" r="12" fill="#8a83b2" opacity="0.78"/>
    <circle cx="1709" cy="3089" r="8" fill="#a1a59a" opacity="0.79"/>
    <circle cx="1939" cy="2547" r="16" fill="#889e98" opacity="0.83"/>
    <circle cx="2561" cy="3246" r="8" fill="#889ab4" opacity="0.65"/>
    <circle cx="2475" cy="2377" r="8" fill="#8f81c9" opacity="0.58"/>
    <circle cx="1953" cy="2775" r="14" fill="#89aead" opacity="0.79"/>
    <circle cx="1868" cy="2436" r="17" fill="#97a29b" opacity="0.81"/>
    <circle cx="2264" cy="2688" r="15" fill="#9a81a2" opacity="0.71"/>
    <circle cx="2738" cy="3033" r="5" fill="#8d8b9e" opacity="0.55"/>
    <circle cx="2061" cy="2173" r="8" fill="#8d94c3" opacity="0.75"/>
    <circle cx="2633" cy="2734" r="10" fill="#a09ab8" opacity="0.78"/>
    <circle cx="3167" cy="2770" r="10" fill="#9fa29e" opacity="0.85"/>
    <circle cx="1931" cy="3273" r="8" fill="#99849d" opacity="0.75"/>
    <circle cx="2119" cy="2047" r="17" fill="#7c81ab" opacity="0.55"/>
    <circle cx="2813" cy="2048" r="9" fill="#77a4b3" opacity="0.64"/>
    <circle cx="3181" cy="2922" r="6" fill="#878aa6" opacity="0.76"/>
    <circle cx="3109" cy="2348" r="5" fill="#83869b" opacity="0.82"/>
    <circle cx="3074" cy="2548" r="12" fill="#8899b1" opacity="0.48"/>
    <circle cx="2957" cy="2430" r="14" fill="#988fa5" opacity="0.73"/>
    <circle cx="1851" cy="2936" r="7" fill="#9ba6a7" opacity="0.77"/>
    <circle cx="2109" cy="2859" r="13" fill="#7296ce" opacity="0.71"/>
    <circle cx="2443" cy="2221" r="4" fill="#999599" opacity="0.79"/>
    <circle cx="1870" cy="3044" r="16" fill="#769bc6" opacity="0.70"/>
    <circle cx="2410" cy="3485" r="15" fill="#9d89cf" opacity="0.52"/>
    <circle cx="1601" cy="2701" r="10" fill="#9991d5" opacity="0.64"/>
    <circle cx="2570" cy="3461" r="15" fill="#9591c1" opacity="0.79"/>
    <circle cx="2539" cy="2583" r="19" fill="#7591d1" opacity="0.55"/>
    <circle cx="2052" cy="2747" r="11" fill="#97aac8" opacity="0.58"/>
    <circle cx="1679" cy="2902" r="10" fill="#848bd6" opacity="0.53"/>
    <circle cx="2075" cy="3391" r="15" fill="#8591bb" opacity="0.67"/>

    <path d="M 2050 2980 L 2075 3075 L 2170 3100 L 2075 3125 L 2050 3220 L 2025 3125 L 1930 3100 L 2025 3075 Z" fill="#98a8d0" opacity="0.85"/>
    <path d="M 2900 2425 L 2916 2484 L 2975 2500 L 2916 2516 L 2900 2575 L 2884 2516 L 2825 2500 L 2884 2484 Z" fill="#8898c8" opacity="0.80"/>
    <path d="M 2650 3305 L 2659 3341 L 2695 3350 L 2659 3359 L 2650 3395 L 2641 3359 L 2605 3350 L 2641 3341 Z" fill="#8090c0" opacity="0.75"/>
  </g>

  <circle cx="2422" cy="2742" r="1100" fill="none" stroke="#4a5068" stroke-width="190"/>
  <path d="M2309 3936 c-2 -2 -42 -10 -89 -16 -47 -6 -89 -16 -94 -21 -6 -5 -20 -9 -33 -9 -12 0 -39 -7 -60 -16 -89 -38 -105 -45 -140 -61 -45 -21 -136 -74 -143 -84 -3 -3 -23 -17 -45 -31 -65 -41 -219 -203 -278 -291 -65 -98 -117 -194 -117 -216 0 -9 -7 -25 -15 -35 -8 -11 -15 -29 -15 -41 0 -11 -6 -29 -14 -40 -7 -11 -16 -40 -19 -65 -3 -25 -10 -65 -16 -90 -13 -58 -13 -301 0 -360 6 -25 14 -69 19 -99 5 -29 13 -58 19 -64 6 -6 11 -23 11 -38 0 -15 6 -40 14 -56 8 -15 30 -62 50 -103 59 -123 114 -199 231 -317 164 -164 298 -243 530 -313 17 -4 67 -16 113 -25 101 -20 350 -16 457 8 118 27 173 42 181 50 4 4 15 7 24 7 10 0 23 7 30 15 7 8 23 15 36 15 12 0 25 4 28 9 3 5 25 19 48 31 69 35 187 128 266 209 123 125 238 317 281 471 7 25 17 55 22 68 33 83 46 406 22 525 -27 134 -110 338 -171 425 -12 16 -22 34 -22 39 0 5 -13 22 -30 38 -16 16 -30 34 -30 40 0 22 -235 239 -280 258 -8 4 -37 21 -65 37 -27 16 -57 33 -65 36 -8 3 -23 10 -32 15 -19 9 -107 39 -173 58 -76 21 -235 41 -333 41 -54 0 -101 -2 -103 -4z m296 -124 c39 -4 80 -13 92 -20 12 -7 33 -12 47 -12 13 0 37 -6 53 -14 168 -81 210 -104 262 -142 121 -88 244 -220 308 -329 29 -49 83 -167 83 -180 0 -7 4 -16 9 -19 5 -4 12 -25 16 -49 4 -23 11 -49 15 -57 5 -8 14 -69 20 -135 13 -118 3 -295 -20 -380 -35 -128 -46 -163 -59 -185 -4 -8 -15 -28 -24 -45 -36 -71 -52 -100 -57 -105 -3 -3 -17 -24 -32 -46 -42 -66 -197 -216 -273 -266 -83 -54 -183 -108 -201 -108 -7 0 -25 -6 -41 -14 -38 -19 -119 -43 -168 -50 -22 -3 -62 -10 -90 -15 -64 -12 -176 -12 -240 0 -27 5 -75 13 -105 18 -73 11 -119 28 -250 91 -76 36 -87 43 -159 94 -147 106 -278 262 -350 421 -31 69 -81 222 -81 249 0 14 -7 51 -15 83 -17 66 -20 222 -5 273 6 19 15 62 19 95 8 54 16 82 42 150 24 64 78 169 118 230 53 81 43 70 146 175 94 96 245 200 290 200 7 0 18 7 25 15 7 8 22 15 34 15 12 0 31 7 42 15 10 8 33 15 49 15 17 0 41 7 55 15 14 8 52 15 85 16 33 0 71 5 85 9 27 10 161 6 275 -8z" fill="#4a5068"/>
  <circle cx="2422" cy="2742" r="1195" fill="none" stroke="#606880" stroke-width="10"/>
  <circle cx="2422" cy="2742" r="1005" fill="none" stroke="#606880" stroke-width="10"/>

  <g>

    <path d="M1605 3891 c-17 -4 -56 -24 -88 -44 -64 -41 -77 -45 -77 -21 0 31 -62 6 -108 -43 -47 -51 -67 -90 -88 -173 -19 -79 -19 -80 25 -80 37 0 99 27 166 72 39 27 165 157 176 183 5 11 13 27 17 35 26 45 32 62 27 70 -7 11 -7 11 -50 1z" fill="#d4a017"/>
    <path d="M1605 3891 c-17 -4 -56 -24 -88 -44 -64 -41 -77 -45 -77 -21 0 31 -62 6 -108 -43 -47 -51 -67 -90 -88 -173 -19 -79 -19 -80 25 -80 37 0 99 27 166 72 39 27 165 157 176 183 5 11 13 27 17 35 26 45 32 62 27 70 -7 11 -7 11 -50 1z" fill="none" stroke="#8a6a08" stroke-width="14" opacity="0.60"/>
    <path d="M3230 3879 c0 -6 20 -42 46 -80 45 -69 135 -158 209 -208 63 -43 159 -65 167 -39 12 34 -54 177 -107 235 -43 46 -95 68 -95 39 0 -23 -18 -20 -56 9 -18 14 -37 25 -42 25 -5 0 -15 7 -22 15 -15 18 -100 21 -100 4z" fill="#c89615"/>
    <path d="M3230 3879 c0 -6 20 -42 46 -80 45 -69 135 -158 209 -208 63 -43 159 -65 167 -39 12 34 -54 177 -107 235 -43 46 -95 68 -95 39 0 -23 -18 -20 -56 9 -18 14 -37 25 -42 25 -5 0 -15 7 -22 15 -15 18 -100 21 -100 4z" fill="none" stroke="#8a6a08" stroke-width="14" opacity="0.60"/>
    <path d="M1155 3648 c-39 -45 -95 -151 -95 -180 0 -9 -5 -29 -11 -45 -8 -22 -12 -24 -19 -13 -6 8 -10 30 -10 48 0 24 -4 32 -18 32 -55 0 -111 -175 -98 -302 15 -141 18 -158 26 -158 4 0 13 -13 19 -30 18 -52 46 -40 143 58 128 129 143 190 32 138 -77 -36 -88 -33 -92 29 l-2 50 19 -25 19 -24 37 19 c90 48 267 228 250 255 -7 12 -63 2 -93 -17 -13 -8 -33 -13 -45 -11 -30 4 -35 65 -11 134 17 50 15 84 -5 84 -5 0 -26 -19 -46 -42z" fill="#daa820"/>
    <path d="M1155 3648 c-39 -45 -95 -151 -95 -180 0 -9 -5 -29 -11 -45 -8 -22 -12 -24 -19 -13 -6 8 -10 30 -10 48 0 24 -4 32 -18 32 -55 0 -111 -175 -98 -302 15 -141 18 -158 26 -158 4 0 13 -13 19 -30 18 -52 46 -40 143 58 128 129 143 190 32 138 -77 -36 -88 -33 -92 29 l-2 50 19 -25 19 -24 37 19 c90 48 267 228 250 255 -7 12 -63 2 -93 -17 -13 -8 -33 -13 -45 -11 -30 4 -35 65 -11 134 17 50 15 84 -5 84 -5 0 -26 -19 -46 -42z" fill="none" stroke="#8a6a08" stroke-width="14" opacity="0.60"/>
    <path d="M3670 3665 c0 -15 7 -39 16 -56 9 -19 14 -49 12 -82 -3 -45 -6 -52 -25 -55 -13 -2 -33 4 -45 12 -29 20 -78 21 -78 2 0 -20 100 -137 147 -173 52 -39 123 -76 131 -69 3 4 6 52 5 107 -3 132 -35 225 -105 302 -40 43 -58 47 -58 12z" fill="#c09010"/>
    <path d="M3670 3665 c0 -15 7 -39 16 -56 9 -19 14 -49 12 -82 -3 -45 -6 -52 -25 -55 -13 -2 -33 4 -45 12 -29 20 -78 21 -78 2 0 -20 100 -137 147 -173 52 -39 123 -76 131 -69 3 4 6 52 5 107 -3 132 -35 225 -105 302 -40 43 -58 47 -58 12z" fill="none" stroke="#8a6a08" stroke-width="14" opacity="0.60"/>
    <path d="M3875 3489 c-4 -6 -9 -74 -11 -152 -5 -164 -11 -178 -66 -157 -18 7 -40 19 -49 27 -8 7 -23 13 -32 13 -21 0 -23 -45 -3 -66 8 -7 16 -17 18 -21 2 -5 40 -43 85 -86 56 -53 86 -75 97 -71 9 3 26 27 38 53 19 40 21 64 22 187 0 117 -3 145 -17 167 -9 15 -17 33 -17 42 0 17 -39 75 -51 75 -4 0 -11 -5 -14 -11z" fill="#cda018"/>
    <path d="M3875 3489 c-4 -6 -9 -74 -11 -152 -5 -164 -11 -178 -66 -157 -18 7 -40 19 -49 27 -8 7 -23 13 -32 13 -21 0 -23 -45 -3 -66 8 -7 16 -17 18 -21 2 -5 40 -43 85 -86 56 -53 86 -75 97 -71 9 3 26 27 38 53 19 40 21 64 22 187 0 117 -3 145 -17 167 -9 15 -17 33 -17 42 0 17 -39 75 -51 75 -4 0 -11 -5 -14 -11z" fill="none" stroke="#8a6a08" stroke-width="14" opacity="0.60"/>
    <path d="M794 3219 c-28 -63 -25 -224 5 -304 46 -122 113 -225 146 -225 12 0 50 36 96 90 47 56 99 184 81 202 -8 8 -15 8 -24 1 -28 -23 -110 -63 -127 -63 -28 0 -89 135 -115 255 -9 43 -27 85 -36 85 -4 0 -15 -19 -26 -41z" fill="#d0a015"/>
    <path d="M794 3219 c-28 -63 -25 -224 5 -304 46 -122 113 -225 146 -225 12 0 50 36 96 90 47 56 99 184 81 202 -8 8 -15 8 -24 1 -28 -23 -110 -63 -127 -63 -28 0 -89 135 -115 255 -9 43 -27 85 -36 85 -4 0 -15 -19 -26 -41z" fill="none" stroke="#8a6a08" stroke-width="14" opacity="0.60"/>
    <path d="M4042 3225 c-7 -14 -12 -35 -12 -47 0 -21 -24 -100 -47 -155 -7 -17 -13 -35 -13 -40 0 -11 -49 -63 -59 -63 -10 0 -41 16 -91 48 -47 30 -60 28 -60 -8 0 -19 20 -63 55 -119 62 -98 99 -141 124 -141 26 0 111 103 111 133 0 8 7 20 15 27 8 7 15 24 15 39 0 15 7 37 16 49 12 18 14 43 11 125 -6 146 -36 216 -65 152z" fill="#c49812"/>
    <path d="M4042 3225 c-7 -14 -12 -35 -12 -47 0 -21 -24 -100 -47 -155 -7 -17 -13 -35 -13 -40 0 -11 -49 -63 -59 -63 -10 0 -41 16 -91 48 -47 30 -60 28 -60 -8 0 -19 20 -63 55 -119 62 -98 99 -141 124 -141 26 0 111 103 111 133 0 8 7 20 15 27 8 7 15 24 15 39 0 15 7 37 16 49 12 18 14 43 11 125 -6 146 -36 216 -65 152z" fill="none" stroke="#8a6a08" stroke-width="14" opacity="0.60"/>
    <path d="M4160 2938 c-11 -18 -20 -36 -20 -40 0 -11 -62 -142 -70 -148 -3 -3 -10 -12 -14 -20 -28 -60 -95 -130 -124 -130 -8 0 -41 25 -74 56 -75 68 -91 62 -64 -24 23 -73 69 -169 100 -207 l24 -29 46 24 c26 13 74 50 108 82 33 33 63 57 66 54 3 -3 -3 -16 -14 -28 -22 -26 -24 -29 -64 -85 -39 -56 -138 -133 -170 -133 -22 0 -31 10 -59 70 -36 75 -54 96 -72 85 -14 -9 -8 -167 8 -187 6 -7 13 -26 16 -43 3 -16 12 -48 20 -70 18 -48 37 -53 109 -29 172 57 276 187 317 394 27 140 22 176 -18 123 -11 -16 -24 -32 -29 -38 -4 -5 -11 -18 -15 -27 -3 -10 -11 -18 -17 -18 -11 0 -14 33 -4 43 22 22 45 124 50 228 8 129 -1 153 -36 97z" fill="#d8a820"/>
    <path d="M4160 2938 c-11 -18 -20 -36 -20 -40 0 -11 -62 -142 -70 -148 -3 -3 -10 -12 -14 -20 -28 -60 -95 -130 -124 -130 -8 0 -41 25 -74 56 -75 68 -91 62 -64 -24 23 -73 69 -169 100 -207 l24 -29 46 24 c26 13 74 50 108 82 33 33 63 57 66 54 3 -3 -3 -16 -14 -28 -22 -26 -24 -29 -64 -85 -39 -56 -138 -133 -170 -133 -22 0 -31 10 -59 70 -36 75 -54 96 -72 85 -14 -9 -8 -167 8 -187 6 -7 13 -26 16 -43 3 -16 12 -48 20 -70 18 -48 37 -53 109 -29 172 57 276 187 317 394 27 140 22 176 -18 123 -11 -16 -24 -32 -29 -38 -4 -5 -11 -18 -15 -27 -3 -10 -11 -18 -17 -18 -11 0 -14 33 -4 43 22 22 45 124 50 228 8 129 -1 153 -36 97z" fill="none" stroke="#8a6a08" stroke-width="14" opacity="0.60"/>
    <path d="M679 2953 c-11 -92 1 -184 43 -311 11 -35 18 -66 14 -69 -3 -4 -6 0 -6 8 0 8 -8 22 -17 31 -10 9 -26 28 -36 42 -10 15 -22 24 -28 21 -15 -10 -11 -130 6 -161 8 -16 15 -39 15 -50 0 -12 11 -46 24 -76 53 -119 118 -189 226 -240 119 -57 141 -52 168 34 41 131 54 276 24 286 -7 2 -22 -18 -37 -51 -25 -54 -68 -107 -88 -107 -5 0 -35 19 -67 43 -58 42 -108 102 -96 114 3 3 6 1 6 -5 0 -7 7 -12 14 -12 8 0 35 -13 59 -30 25 -16 52 -30 61 -30 30 0 99 128 131 242 27 96 6 102 -71 23 -30 -30 -60 -55 -68 -55 -32 0 -144 150 -210 283 -21 42 -45 77 -52 77 -8 0 -14 -3 -15 -7z" fill="#dead25"/>
    <path d="M679 2953 c-11 -92 1 -184 43 -311 11 -35 18 -66 14 -69 -3 -4 -6 0 -6 8 0 8 -8 22 -17 31 -10 9 -26 28 -36 42 -10 15 -22 24 -28 21 -15 -10 -11 -130 6 -161 8 -16 15 -39 15 -50 0 -12 11 -46 24 -76 53 -119 118 -189 226 -240 119 -57 141 -52 168 34 41 131 54 276 24 286 -7 2 -22 -18 -37 -51 -25 -54 -68 -107 -88 -107 -5 0 -35 19 -67 43 -58 42 -108 102 -96 114 3 3 6 1 6 -5 0 -7 7 -12 14 -12 8 0 35 -13 59 -30 25 -16 52 -30 61 -30 30 0 99 128 131 242 27 96 6 102 -71 23 -30 -30 -60 -55 -68 -55 -32 0 -144 150 -210 283 -21 42 -45 77 -52 77 -8 0 -14 -3 -15 -7z" fill="none" stroke="#8a6a08" stroke-width="14" opacity="0.60"/>
    <path d="M696 2261 c-9 -15 3 -57 36 -126 50 -103 56 -111 122 -173 90 -84 137 -106 261 -121 95 -12 99 -9 114 104 14 101 5 209 -22 264 -17 35 -29 29 -51 -26 -10 -26 -28 -71 -39 -100 -12 -31 -28 -53 -39 -56 -19 -5 -129 29 -138 43 -3 4 -14 10 -25 14 -19 6 -70 50 -171 148 -25 23 -44 36 -48 29z" fill="#b88a10"/>
    <path d="M696 2261 c-9 -15 3 -57 36 -126 50 -103 56 -111 122 -173 90 -84 137 -106 261 -121 95 -12 99 -9 114 104 14 101 5 209 -22 264 -17 35 -29 29 -51 -26 -10 -26 -28 -71 -39 -100 -12 -31 -28 -53 -39 -56 -19 -5 -129 29 -138 43 -3 4 -14 10 -25 14 -19 6 -70 50 -171 148 -25 23 -44 36 -48 29z" fill="none" stroke="#8a6a08" stroke-width="14" opacity="0.60"/>
    <path d="M4115 2204 c-84 -78 -160 -137 -190 -148 -5 -1 -26 -9 -45 -16 -74 -26 -85 -25 -108 15 -12 20 -22 44 -22 54 0 9 -7 26 -15 37 -8 10 -15 36 -15 57 0 38 -18 50 -37 25 -43 -56 -36 -353 9 -382 13 -7 40 -5 104 8 80 16 101 23 144 48 8 4 24 12 35 17 25 11 122 110 140 142 60 106 91 199 68 199 -5 0 -35 -25 -68 -56z" fill="#c49515"/>
    <path d="M4115 2204 c-84 -78 -160 -137 -190 -148 -5 -1 -26 -9 -45 -16 -74 -26 -85 -25 -108 15 -12 20 -22 44 -22 54 0 9 -7 26 -15 37 -8 10 -15 36 -15 57 0 38 -18 50 -37 25 -43 -56 -36 -353 9 -382 13 -7 40 -5 104 8 80 16 101 23 144 48 8 4 24 12 35 17 25 11 122 110 140 142 60 106 91 199 68 199 -5 0 -35 -25 -68 -56z" fill="none" stroke="#8a6a08" stroke-width="14" opacity="0.60"/>
    <path d="M1310 1938 c-1 -18 -7 -44 -15 -58 -8 -14 -14 -34 -15 -46 0 -11 -9 -29 -21 -40 -18 -16 -34 -18 -107 -16 -47 2 -93 7 -101 12 -27 14 -104 16 -108 3 -7 -20 73 -98 129 -125 85 -41 118 -49 214 -55 88 -5 92 -5 104 17 15 28 4 231 -15 275 -7 17 -15 38 -19 48 -3 9 -15 17 -26 17 -16 0 -20 -7 -20 -32z" fill="#cfa018"/>
    <path d="M1310 1938 c-1 -18 -7 -44 -15 -58 -8 -14 -14 -34 -15 -46 0 -11 -9 -29 -21 -40 -18 -16 -34 -18 -107 -16 -47 2 -93 7 -101 12 -27 14 -104 16 -108 3 -7 -20 73 -98 129 -125 85 -41 118 -49 214 -55 88 -5 92 -5 104 17 15 28 4 231 -15 275 -7 17 -15 38 -19 48 -3 9 -15 17 -26 17 -16 0 -20 -7 -20 -32z" fill="none" stroke="#8a6a08" stroke-width="14" opacity="0.60"/>
    <path d="M3546 1963 c-18 -18 -38 -84 -50 -168 -15 -97 -12 -148 10 -165 24 -21 241 3 266 28 7 7 19 12 28 12 22 1 140 98 140 115 0 17 -51 21 -79 6 -24 -14 -181 -23 -215 -13 -31 8 -43 37 -64 146 -7 39 -21 54 -36 39z" fill="#c09012"/>
    <path d="M3546 1963 c-18 -18 -38 -84 -50 -168 -15 -97 -12 -148 10 -165 24 -21 241 3 266 28 7 7 19 12 28 12 22 1 140 98 140 115 0 17 -51 21 -79 6 -24 -14 -181 -23 -215 -13 -31 8 -43 37 -64 146 -7 39 -21 54 -36 39z" fill="none" stroke="#8a6a08" stroke-width="14" opacity="0.60"/>
  </g>

  <path d="M1473 1773 c-9 -3 -13 -32 -13 -93 0 -116 1 -115 -177 -106 -110 6 -133 5 -133 -7 0 -18 72 -84 107 -99 98 -40 132 -47 221 -48 86 0 95 -2 134 -30 26 -19 53 -30 74 -30 18 0 36 -4 39 -10 4 -6 65 -10 148 -10 78 0 160 -5 182 -11 22 -6 55 -13 73 -16 18 -3 35 -10 38 -15 13 -20 -23 -28 -128 -28 -64 0 -108 -4 -108 -10 0 -5 17 -20 38 -34 20 -13 43 -30 50 -39 8 -9 29 -21 48 -27 30 -10 47 -7 130 19 129 42 134 45 134 86 0 27 -7 39 -37 62 -54 40 -69 47 -153 72 -41 12 -89 26 -106 31 -17 6 -39 10 -49 10 -38 0 -213 55 -277 86 -49 25 -67 19 -48 -15 22 -42 6 -91 -30 -91 -14 0 -17 13 -18 76 -2 42 -9 88 -16 103 -7 14 -23 46 -34 71 -26 56 -73 110 -89 103z M3368 1741 c-33 -36 -76 -129 -89 -190 -5 -25 -12 -58 -15 -72 -5 -24 -3 -26 69 -44 71 -18 77 -18 148 -1 97 23 124 33 184 70 115 70 99 90 -51 66 -60 -10 -158 0 -176 18 -4 4 -11 45 -15 92 -5 46 -13 85 -19 87 -6 2 -22 -10 -36 -26z M3180 1522 c-38 -27 -238 -82 -299 -82 -17 0 -45 -6 -63 -14 -18 -7 -69 -29 -113 -47 -160 -66 -195 -122 -101 -163 123 -55 205 -62 253 -23 15 13 41 30 57 38 61 29 44 38 -80 41 -129 3 -152 15 -87 44 25 12 79 20 163 25 186 11 322 28 348 45 24 16 21 34 -5 34 -27 0 -42 32 -36 78 6 46 0 50 -37 24z" fill="#9a7818"/>
  <path d="M1473 1773 c-9 -3 -13 -32 -13 -93 0 -116 1 -115 -177 -106 -110 6 -133 5 -133 -7 0 -18 72 -84 107 -99 98 -40 132 -47 221 -48 86 0 95 -2 134 -30 26 -19 53 -30 74 -30 18 0 36 -4 39 -10 4 -6 65 -10 148 -10 78 0 160 -5 182 -11 22 -6 55 -13 73 -16 18 -3 35 -10 38 -15 13 -20 -23 -28 -128 -28 -64 0 -108 -4 -108 -10 0 -5 17 -20 38 -34 20 -13 43 -30 50 -39 8 -9 29 -21 48 -27 30 -10 47 -7 130 19 129 42 134 45 134 86 0 27 -7 39 -37 62 -54 40 -69 47 -153 72 -41 12 -89 26 -106 31 -17 6 -39 10 -49 10 -38 0 -213 55 -277 86 -49 25 -67 19 -48 -15 22 -42 6 -91 -30 -91 -14 0 -17 13 -18 76 -2 42 -9 88 -16 103 -7 14 -23 46 -34 71 -26 56 -73 110 -89 103z M3368 1741 c-33 -36 -76 -129 -89 -190 -5 -25 -12 -58 -15 -72 -5 -24 -3 -26 69 -44 71 -18 77 -18 148 -1 97 23 124 33 184 70 115 70 99 90 -51 66 -60 -10 -158 0 -176 18 -4 4 -11 45 -15 92 -5 46 -13 85 -19 87 -6 2 -22 -10 -36 -26z M3180 1522 c-38 -27 -238 -82 -299 -82 -17 0 -45 -6 -63 -14 -18 -7 -69 -29 -113 -47 -160 -66 -195 -122 -101 -163 123 -55 205 -62 253 -23 15 13 41 30 57 38 61 29 44 38 -80 41 -129 3 -152 15 -87 44 25 12 79 20 163 25 186 11 322 28 348 45 24 16 21 34 -5 34 -27 0 -42 32 -36 78 6 46 0 50 -37 24z" fill="none" stroke="#705810" stroke-width="14" opacity="0.60"/>
</g>

<text font-family="'Helvetica Neue', Helvetica, Arial, sans-serif" font-size="95" font-weight="900"
      fill="#c8d0e0" opacity="0.95" text-anchor="middle">
  <textPath href="#txtTopL" startOffset="50%" textLength="2818" lengthAdjust="spacing">UNITED FEDERATION OF PLANETS</textPath>
</text>
<text font-family="'Helvetica Neue', Helvetica, Arial, sans-serif" font-size="95" font-weight="900"
      fill="#c8d0e0" opacity="0.95" text-anchor="middle">
  <textPath href="#txtBotL" startOffset="50%" textLength="2987" lengthAdjust="spacing">STARFLEET COMMAND</textPath>
</text>
<g font-family="'Helvetica Neue', Helvetica, Arial, sans-serif" font-size="95" font-weight="900" text-anchor="middle" dominant-baseline="central">
  <text x="1322" y="2118" fill="#c8d0e0" opacity="0.95">★</text>
  <text x="3522" y="2118" fill="#c8d0e0" opacity="0.95">★</text>
</g>
</svg>