<svg viewBox="0 0 5000 4860" xmlns="http://www.w3.org/2000/svg">
<defs>
  <filter id="weaveL" x="-5%" y="-5%" width="110%" height="110%">
    <feTurbulence type="turbulence" baseFrequency="0.03 0.08" numOctaves="2" seed="5" result="weave"/>
    <feColorMatrix in="weave" type="saturate" values="0" result="bw"/>
    <feComposite in="SourceGraphic" in2="bw" operator="arithmetic" k1="0.15" k2="0.85" k3="0" k4="0"/>
  </filter>
  <clipPath id="nebClipL"><path d="M2605 3812 c39 -4 80 -13 92 -20 12 -7 33 -12 47 -12 13 0 37 -6 53 -14 168 -81 210 -104 262 -142 121 -88 244 -220 308 -329 29 -49 83 -167 83 -180 0 -7 4 -16 9 -19 5 -4 12 -25 16 -49 4 -23 11 -49 15 -57 5 -8 14 -69 20 -135 13 -118 3 -295 -20 -380 -35 -128 -46 -163 -59 -185 -4 -8 -15 -28 -24 -45 -36 -71 -52 -100 -57 -105 -3 -3 -17 -24 -32 -46 -42 -66 -197 -216 -273 -266 -83 -54 -183 -108 -201 -108 -7 0 -25 -6 -41 -14 -38 -19 -119 -43 -168 -50 -22 -3 -62 -10 -90 -15 -64 -12 -176 -12 -240 0 -27 5 -75 13 -105 18 -73 11 -119 28 -250 91 -76 36 -87 43 -159 94 -147 106 -278 262 -350 421 -31 69 -81 222 -81 249 0 14 -7 51 -15 83 -17 66 -20 222 -5 273 6 19 15 62 19 95 8 54 16 82 42 150 24 64 78 169 118 230 53 81 43 70 146 175 94 96 245 200 290 200 7 0 18 7 25 15 7 8 22 15 34 15 12 0 31 7 42 15 10 8 33 15 49 15 17 0 41 7 55 15 14 8 52 15 85 16 33 0 71 5 85 9 27 10 161 6 275 -8z"/></clipPath>
  <clipPath id="rClipL"><path d="M2309 3936 c-2 -2 -42 -10 -89 -16 -47 -6 -89 -16 -94 -21 -6 -5 -20 -9 -33 -9 -12 0 -39 -7 -60 -16 -89 -38 -105 -45 -140 -61 -45 -21 -136 -74 -143 -84 -3 -3 -23 -17 -45 -31 -65 -41 -219 -203 -278 -291 -65 -98 -117 -194 -117 -216 0 -9 -7 -25 -15 -35 -8 -11 -15 -29 -15 -41 0 -11 -6 -29 -14 -40 -7 -11 -16 -40 -19 -65 -3 -25 -10 -65 -16 -90 -13 -58 -13 -301 0 -360 6 -25 14 -69 19 -99 5 -29 13 -58 19 -64 6 -6 11 -23 11 -38 0 -15 6 -40 14 -56 8 -15 30 -62 50 -103 59 -123 114 -199 231 -317 164 -164 298 -243 530 -313 17 -4 67 -16 113 -25 101 -20 350 -16 457 8 118 27 173 42 181 50 4 4 15 7 24 7 10 0 23 7 30 15 7 8 23 15 36 15 12 0 25 4 28 9 3 5 25 19 48 31 69 35 187 128 266 209 123 125 238 317 281 471 7 25 17 55 22 68 33 83 46 406 22 525 -27 134 -110 338 -171 425 -12 16 -22 34 -22 39 0 5 -13 22 -30 38 -16 16 -30 34 -30 40 0 22 -235 239 -280 258 -8 4 -37 21 -65 37 -27 16 -57 33 -65 36 -8 3 -23 10 -32 15 -19 9 -107 39 -173 58 -76 21 -235 41 -333 41 -54 0 -101 -2 -103 -4z m296 -124 c39 -4 80 -13 92 -20 12 -7 33 -12 47 -12 13 0 37 -6 53 -14 168 -81 210 -104 262 -142 121 -88 244 -220 308 -329 29 -49 83 -167 83 -180 0 -7 4 -16 9 -19 5 -4 12 -25 16 -49 4 -23 11 -49 15 -57 5 -8 14 -69 20 -135 13 -118 3 -295 -20 -380 -35 -128 -46 -163 -59 -185 -4 -8 -15 -28 -24 -45 -36 -71 -52 -100 -57 -105 -3 -3 -17 -24 -32 -46 -42 -66 -197 -216 -273 -266 -83 -54 -183 -108 -201 -108 -7 0 -25 -6 -41 -14 -38 -19 -119 -43 -168 -50 -22 -3 -62 -10 -90 -15 -64 -12 -176 -12 -240 0 -27 5 -75 13 -105 18 -73 11 -119 28 -250 91 -76 36 -87 43 -159 94 -147 106 -278 262 -350 421 -31 69 -81 222 -81 249 0 14 -7 51 -15 83 -17 66 -20 222 -5 273 6 19 15 62 19 95 8 54 16 82 42 150 24 64 78 169 118 230 53 81 43 70 146 175 94 96 245 200 290 200 7 0 18 7 25 15 7 8 22 15 34 15 12 0 31 7 42 15 10 8 33 15 49 15 17 0 41 7 55 15 14 8 52 15 85 16 33 0 71 5 85 9 27 10 161 6 275 -8z"/></clipPath>
  <path id="txtTopL" d="M 1354,2118 A 1068,1068 0 0,1 3490,2118" fill="none"/>
  <path id="txtBotL" d="M 1290,2118 A 1132,1132 0 1,0 3554,2118" fill="none"/>
</defs>

<g transform="translate(0,4860) scale(1,-1)">

  <!-- NEBULA -->
  <g clip-path="url(#nebClipL)">
    <circle cx="2425" cy="2730" r="1600" fill="#101828" filter="url(#weaveL)"/>
    <circle cx="1988" cy="2477" r="12" fill="#5c6788" opacity="0.54"/>
    <circle cx="2347" cy="2228" r="12" fill="#5b758c" opacity="0.73"/>
    <circle cx="2711" cy="3445" r="14" fill="#48759f" opacity="0.75"/>
    <circle cx="3158" cy="2434" r="15" fill="#4c7a85" opacity="0.58"/>
    <circle cx="2720" cy="2117" r="4" fill="#5e5cb0" opacity="0.49"/>
    <circle cx="1990" cy="3349" r="6" fill="#647aa5" opacity="0.51"/>
    <circle cx="2928" cy="2261" r="15" fill="#717978" opacity="0.63"/>
    <circle cx="2573" cy="2795" r="12" fill="#725eb0" opacity="0.45"/>
    <circle cx="3043" cy="3055" r="4" fill="#4e879b" opacity="0.45"/>
    <circle cx="2496" cy="2960" r="7" fill="#55858d" opacity="0.47"/>
    <circle cx="1874" cy="2996" r="11" fill="#587897" opacity="0.49"/>
    <circle cx="1786" cy="3024" r="14" fill="#4b5da0" opacity="0.55"/>
    <circle cx="3074" cy="2845" r="6" fill="#486da9" opacity="0.45"/>
    <circle cx="1760" cy="2687" r="15" fill="#528794" opacity="0.59"/>
    <circle cx="1885" cy="2211" r="8" fill="#485f7c" opacity="0.73"/>
    <circle cx="2081" cy="2217" r="12" fill="#517a7a" opacity="0.69"/>
    <circle cx="2483" cy="2500" r="12" fill="#517380" opacity="0.41"/>
    <circle cx="2929" cy="2426" r="7" fill="#4a6e85" opacity="0.64"/>
    <circle cx="1928" cy="2595" r="12" fill="#5e7bb0" opacity="0.71"/>
    <circle cx="2375" cy="2067" r="15" fill="#776187" opacity="0.70"/>
    <circle cx="2857" cy="3176" r="15" fill="#537279" opacity="0.46"/>
    <circle cx="2070" cy="3078" r="16" fill="#6282af" opacity="0.66"/>
    <circle cx="2950" cy="3365" r="5" fill="#52847e" opacity="0.53"/>
    <circle cx="2852" cy="3018" r="3" fill="#666684" opacity="0.69"/>
    <circle cx="2766" cy="3080" r="9" fill="#5b6686" opacity="0.41"/>
    <circle cx="2581" cy="3416" r="5" fill="#5d69af" opacity="0.42"/>
    <circle cx="2715" cy="2783" r="15" fill="#5e8198" opacity="0.54"/>
    <circle cx="3169" cy="2637" r="15" fill="#6a6d79" opacity="0.44"/>
    <circle cx="2080" cy="1999" r="14" fill="#537d88" opacity="0.41"/>
    <circle cx="2140" cy="3244" r="10" fill="#5e86aa" opacity="0.51"/>
    <circle cx="2202" cy="2635" r="12" fill="#685f90" opacity="0.71"/>
    <circle cx="2322" cy="2888" r="6" fill="#4a8593" opacity="0.40"/>
    <circle cx="2288" cy="3188" r="16" fill="#6a83a6" opacity="0.73"/>
    <circle cx="2707" cy="3216" r="13" fill="#546f93" opacity="0.42"/>
    <circle cx="2380" cy="3065" r="13" fill="#5d7f8c" opacity="0.63"/>
    <circle cx="3057" cy="2278" r="4" fill="#5b788b" opacity="0.63"/>
    <circle cx="2504" cy="2207" r="7" fill="#746a9b" opacity="0.44"/>
    <circle cx="3080" cy="3225" r="7" fill="#6083a7" opacity="0.72"/>
    <circle cx="2964" cy="2877" r="11" fill="#5b719b" opacity="0.69"/>
    <circle cx="2849" cy="2617" r="7" fill="#5573aa" opacity="0.60"/>
    <circle cx="2766" cy="2415" r="12" fill="#657494" opacity="0.64"/>
    <circle cx="1773" cy="2832" r="9" fill="#7762a2" opacity="0.43"/>
    <circle cx="2303" cy="2409" r="10" fill="#707f8d" opacity="0.43"/>
    <circle cx="1931" cy="3174" r="15" fill="#57838b" opacity="0.48"/>
    <circle cx="2004" cy="2031" r="5" fill="#495a87" opacity="0.74"/>
    <circle cx="2273" cy="2572" r="12" fill="#4c7592" opacity="0.71"/>
    <circle cx="2100" cy="3430" r="9" fill="#758490" opacity="0.57"/>
    <circle cx="2563" cy="2084" r="6" fill="#718478" opacity="0.71"/>
    <circle cx="2469" cy="2651" r="17" fill="#4e7386" opacity="0.46"/>
    <circle cx="1756" cy="2465" r="15" fill="#69757b" opacity="0.60"/>
    <circle cx="1910" cy="2846" r="15" fill="#4f7580" opacity="0.68"/>
    <circle cx="2082" cy="2818" r="13" fill="#6b7e8c" opacity="0.73"/>
    <circle cx="2755" cy="2623" r="16" fill="#6f8698" opacity="0.55"/>
    <circle cx="2683" cy="2306" r="15" fill="#6462a7" opacity="0.70"/>
    <circle cx="2098" cy="2377" r="9" fill="#7867ad" opacity="0.62"/>
    <circle cx="2290" cy="3357" r="12" fill="#6977a0" opacity="0.48"/>
    <circle cx="2589" cy="3234" r="9" fill="#756a87" opacity="0.50"/>
    <circle cx="2892" cy="2060" r="6" fill="#6a5d80" opacity="0.45"/>

    <path d="M 2050 2980 L 2075 3075 L 2170 3100 L 2075 3125 L 2050 3220 L 2025 3125 L 1930 3100 L 2025 3075 Z" fill="#6878a8" opacity="0.85"/>
    <path d="M 2050 2980 L 2075 3075 L 2170 3100 L 2075 3125 L 2050 3220 L 2025 3125 L 1930 3100 L 2025 3075 Z" fill="none" stroke="#90a0d0" stroke-width="6" stroke-dasharray="18,12" opacity="0.75"/>
    <path d="M 2900 2425 L 2916 2484 L 2975 2500 L 2916 2516 L 2900 2575 L 2884 2516 L 2825 2500 L 2884 2484 Z" fill="#6070a0" opacity="0.80"/>
    <path d="M 2900 2425 L 2916 2484 L 2975 2500 L 2916 2516 L 2900 2575 L 2884 2516 L 2825 2500 L 2884 2484 Z" fill="none" stroke="#8898c8" stroke-width="5" stroke-dasharray="14,10" opacity="0.65"/>
    <path d="M 2650 3305 L 2659 3341 L 2695 3350 L 2659 3359 L 2650 3395 L 2641 3359 L 2605 3350 L 2641 3341 Z" fill="#5868a0" opacity="0.75"/>
    <path d="M 2650 3305 L 2659 3341 L 2695 3350 L 2659 3359 L 2650 3395 L 2641 3359 L 2605 3350 L 2641 3341 Z" fill="none" stroke="#8090c0" stroke-width="4" stroke-dasharray="10,8" opacity="0.60"/>
  </g>

  <!-- RING BAND -->
  <circle cx="2422" cy="2742" r="1100" fill="none" stroke="#1c2440" stroke-width="190" filter="url(#weaveL)"/>
  <path d="M2309 3936 c-2 -2 -42 -10 -89 -16 -47 -6 -89 -16 -94 -21 -6 -5 -20 -9 -33 -9 -12 0 -39 -7 -60 -16 -89 -38 -105 -45 -140 -61 -45 -21 -136 -74 -143 -84 -3 -3 -23 -17 -45 -31 -65 -41 -219 -203 -278 -291 -65 -98 -117 -194 -117 -216 0 -9 -7 -25 -15 -35 -8 -11 -15 -29 -15 -41 0 -11 -6 -29 -14 -40 -7 -11 -16 -40 -19 -65 -3 -25 -10 -65 -16 -90 -13 -58 -13 -301 0 -360 6 -25 14 -69 19 -99 5 -29 13 -58 19 -64 6 -6 11 -23 11 -38 0 -15 6 -40 14 -56 8 -15 30 -62 50 -103 59 -123 114 -199 231 -317 164 -164 298 -243 530 -313 17 -4 67 -16 113 -25 101 -20 350 -16 457 8 118 27 173 42 181 50 4 4 15 7 24 7 10 0 23 7 30 15 7 8 23 15 36 15 12 0 25 4 28 9 3 5 25 19 48 31 69 35 187 128 266 209 123 125 238 317 281 471 7 25 17 55 22 68 33 83 46 406 22 525 -27 134 -110 338 -171 425 -12 16 -22 34 -22 39 0 5 -13 22 -30 38 -16 16 -30 34 -30 40 0 22 -235 239 -280 258 -8 4 -37 21 -65 37 -27 16 -57 33 -65 36 -8 3 -23 10 -32 15 -19 9 -107 39 -173 58 -76 21 -235 41 -333 41 -54 0 -101 -2 -103 -4z m296 -124 c39 -4 80 -13 92 -20 12 -7 33 -12 47 -12 13 0 37 -6 53 -14 168 -81 210 -104 262 -142 121 -88 244 -220 308 -329 29 -49 83 -167 83 -180 0 -7 4 -16 9 -19 5 -4 12 -25 16 -49 4 -23 11 -49 15 -57 5 -8 14 -69 20 -135 13 -118 3 -295 -20 -380 -35 -128 -46 -163 -59 -185 -4 -8 -15 -28 -24 -45 -36 -71 -52 -100 -57 -105 -3 -3 -17 -24 -32 -46 -42 -66 -197 -216 -273 -266 -83 -54 -183 -108 -201 -108 -7 0 -25 -6 -41 -14 -38 -19 -119 -43 -168 -50 -22 -3 -62 -10 -90 -15 -64 -12 -176 -12 -240 0 -27 5 -75 13 -105 18 -73 11 -119 28 -250 91 -76 36 -87 43 -159 94 -147 106 -278 262 -350 421 -31 69 -81 222 -81 249 0 14 -7 51 -15 83 -17 66 -20 222 -5 273 6 19 15 62 19 95 8 54 16 82 42 150 24 64 78 169 118 230 53 81 43 70 146 175 94 96 245 200 290 200 7 0 18 7 25 15 7 8 22 15 34 15 12 0 31 7 42 15 10 8 33 15 49 15 17 0 41 7 55 15 14 8 52 15 85 16 33 0 71 5 85 9 27 10 161 6 275 -8z" fill="#1c2440" filter="url(#weaveL)"/>
  
  <!-- Ring borders: outer fabric edge + stitch -->
  <circle cx="2422" cy="2742" r="1197" fill="none" stroke="#182030" stroke-width="14" opacity="0.60"/>
  <circle cx="2422" cy="2742" r="1197" fill="none" stroke="#6888c0" stroke-width="5" stroke-dasharray="18,12" opacity="0.75"/>
  <circle cx="2422" cy="2742" r="1003" fill="none" stroke="#182030" stroke-width="14" opacity="0.60"/>
  <circle cx="2422" cy="2742" r="1003" fill="none" stroke="#6888c0" stroke-width="5" stroke-dasharray="18,12" opacity="0.70"/>

  <!-- LEAVES with stitch outline along outer shape -->
  <g>
    <!-- Outer fabric edge of entire leaf group -->
    <path d="M1605 3891 c-17 -4 -56 -24 -88 -44 -64 -41 -77 -45 -77 -21 0 31 -62 6 -108 -43 -47 -51 -67 -90 -88 -173 -19 -79 -19 -80 25 -80 37 0 99 27 166 72 39 27 165 157 176 183 5 11 13 27 17 35 26 45 32 62 27 70 -7 11 -7 11 -50 1z M3230 3879 c0 -6 20 -42 46 -80 45 -69 135 -158 209 -208 63 -43 159 -65 167 -39 12 34 -54 177 -107 235 -43 46 -95 68 -95 39 0 -23 -18 -20 -56 9 -18 14 -37 25 -42 25 -5 0 -15 7 -22 15 -15 18 -100 21 -100 4z M1155 3648 c-39 -45 -95 -151 -95 -180 0 -9 -5 -29 -11 -45 -8 -22 -12 -24 -19 -13 -6 8 -10 30 -10 48 0 24 -4 32 -18 32 -55 0 -111 -175 -98 -302 15 -141 18 -158 26 -158 4 0 13 -13 19 -30 18 -52 46 -40 143 58 128 129 143 190 32 138 -77 -36 -88 -33 -92 29 l-2 50 19 -25 19 -24 37 19 c90 48 267 228 250 255 -7 12 -63 2 -93 -17 -13 -8 -33 -13 -45 -11 -30 4 -35 65 -11 134 17 50 15 84 -5 84 -5 0 -26 -19 -46 -42z M3670 3665 c0 -15 7 -39 16 -56 9 -19 14 -49 12 -82 -3 -45 -6 -52 -25 -55 -13 -2 -33 4 -45 12 -29 20 -78 21 -78 2 0 -20 100 -137 147 -173 52 -39 123 -76 131 -69 3 4 6 52 5 107 -3 132 -35 225 -105 302 -40 43 -58 47 -58 12z M3875 3489 c-4 -6 -9 -74 -11 -152 -5 -164 -11 -178 -66 -157 -18 7 -40 19 -49 27 -8 7 -23 13 -32 13 -21 0 -23 -45 -3 -66 8 -7 16 -17 18 -21 2 -5 40 -43 85 -86 56 -53 86 -75 97 -71 9 3 26 27 38 53 19 40 21 64 22 187 0 117 -3 145 -17 167 -9 15 -17 33 -17 42 0 17 -39 75 -51 75 -4 0 -11 -5 -14 -11z M794 3219 c-28 -63 -25 -224 5 -304 46 -122 113 -225 146 -225 12 0 50 36 96 90 47 56 99 184 81 202 -8 8 -15 8 -24 1 -28 -23 -110 -63 -127 -63 -28 0 -89 135 -115 255 -9 43 -27 85 -36 85 -4 0 -15 -19 -26 -41z M4042 3225 c-7 -14 -12 -35 -12 -47 0 -21 -24 -100 -47 -155 -7 -17 -13 -35 -13 -40 0 -11 -49 -63 -59 -63 -10 0 -41 16 -91 48 -47 30 -60 28 -60 -8 0 -19 20 -63 55 -119 62 -98 99 -141 124 -141 26 0 111 103 111 133 0 8 7 20 15 27 8 7 15 24 15 39 0 15 7 37 16 49 12 18 14 43 11 125 -6 146 -36 216 -65 152z M4160 2938 c-11 -18 -20 -36 -20 -40 0 -11 -62 -142 -70 -148 -3 -3 -10 -12 -14 -20 -28 -60 -95 -130 -124 -130 -8 0 -41 25 -74 56 -75 68 -91 62 -64 -24 23 -73 69 -169 100 -207 l24 -29 46 24 c26 13 74 50 108 82 33 33 63 57 66 54 3 -3 -3 -16 -14 -28 -22 -26 -24 -29 -64 -85 -39 -56 -138 -133 -170 -133 -22 0 -31 10 -59 70 -36 75 -54 96 -72 85 -14 -9 -8 -167 8 -187 6 -7 13 -26 16 -43 3 -16 12 -48 20 -70 18 -48 37 -53 109 -29 172 57 276 187 317 394 27 140 22 176 -18 123 -11 -16 -24 -32 -29 -38 -4 -5 -11 -18 -15 -27 -3 -10 -11 -18 -17 -18 -11 0 -14 33 -4 43 22 22 45 124 50 228 8 129 -1 153 -36 97z M679 2953 c-11 -92 1 -184 43 -311 11 -35 18 -66 14 -69 -3 -4 -6 0 -6 8 0 8 -8 22 -17 31 -10 9 -26 28 -36 42 -10 15 -22 24 -28 21 -15 -10 -11 -130 6 -161 8 -16 15 -39 15 -50 0 -12 11 -46 24 -76 53 -119 118 -189 226 -240 119 -57 141 -52 168 34 41 131 54 276 24 286 -7 2 -22 -18 -37 -51 -25 -54 -68 -107 -88 -107 -5 0 -35 19 -67 43 -58 42 -108 102 -96 114 3 3 6 1 6 -5 0 -7 7 -12 14 -12 8 0 35 -13 59 -30 25 -16 52 -30 61 -30 30 0 99 128 131 242 27 96 6 102 -71 23 -30 -30 -60 -55 -68 -55 -32 0 -144 150 -210 283 -21 42 -45 77 -52 77 -8 0 -14 -3 -15 -7z M696 2261 c-9 -15 3 -57 36 -126 50 -103 56 -111 122 -173 90 -84 137 -106 261 -121 95 -12 99 -9 114 104 14 101 5 209 -22 264 -17 35 -29 29 -51 -26 -10 -26 -28 -71 -39 -100 -12 -31 -28 -53 -39 -56 -19 -5 -129 29 -138 43 -3 4 -14 10 -25 14 -19 6 -70 50 -171 148 -25 23 -44 36 -48 29z M4115 2204 c-84 -78 -160 -137 -190 -148 -5 -1 -26 -9 -45 -16 -74 -26 -85 -25 -108 15 -12 20 -22 44 -22 54 0 9 -7 26 -15 37 -8 10 -15 36 -15 57 0 38 -18 50 -37 25 -43 -56 -36 -353 9 -382 13 -7 40 -5 104 8 80 16 101 23 144 48 8 4 24 12 35 17 25 11 122 110 140 142 60 106 91 199 68 199 -5 0 -35 -25 -68 -56z M1310 1938 c-1 -18 -7 -44 -15 -58 -8 -14 -14 -34 -15 -46 0 -11 -9 -29 -21 -40 -18 -16 -34 -18 -107 -16 -47 2 -93 7 -101 12 -27 14 -104 16 -108 3 -7 -20 73 -98 129 -125 85 -41 118 -49 214 -55 88 -5 92 -5 104 17 15 28 4 231 -15 275 -7 17 -15 38 -19 48 -3 9 -15 17 -26 17 -16 0 -20 -7 -20 -32z M3546 1963 c-18 -18 -38 -84 -50 -168 -15 -97 -12 -148 10 -165 24 -21 241 3 266 28 7 7 19 12 28 12 22 1 140 98 140 115 0 17 -51 21 -79 6 -24 -14 -181 -23 -215 -13 -31 8 -43 37 -64 146 -7 39 -21 54 -36 39z" fill="none" stroke="#584008" stroke-width="24" opacity="0.45"/>
    <path d="M1605 3891 c-17 -4 -56 -24 -88 -44 -64 -41 -77 -45 -77 -21 0 31 -62 6 -108 -43 -47 -51 -67 -90 -88 -173 -19 -79 -19 -80 25 -80 37 0 99 27 166 72 39 27 165 157 176 183 5 11 13 27 17 35 26 45 32 62 27 70 -7 11 -7 11 -50 1z M3230 3879 c0 -6 20 -42 46 -80 45 -69 135 -158 209 -208 63 -43 159 -65 167 -39 12 34 -54 177 -107 235 -43 46 -95 68 -95 39 0 -23 -18 -20 -56 9 -18 14 -37 25 -42 25 -5 0 -15 7 -22 15 -15 18 -100 21 -100 4z M1155 3648 c-39 -45 -95 -151 -95 -180 0 -9 -5 -29 -11 -45 -8 -22 -12 -24 -19 -13 -6 8 -10 30 -10 48 0 24 -4 32 -18 32 -55 0 -111 -175 -98 -302 15 -141 18 -158 26 -158 4 0 13 -13 19 -30 18 -52 46 -40 143 58 128 129 143 190 32 138 -77 -36 -88 -33 -92 29 l-2 50 19 -25 19 -24 37 19 c90 48 267 228 250 255 -7 12 -63 2 -93 -17 -13 -8 -33 -13 -45 -11 -30 4 -35 65 -11 134 17 50 15 84 -5 84 -5 0 -26 -19 -46 -42z M3670 3665 c0 -15 7 -39 16 -56 9 -19 14 -49 12 -82 -3 -45 -6 -52 -25 -55 -13 -2 -33 4 -45 12 -29 20 -78 21 -78 2 0 -20 100 -137 147 -173 52 -39 123 -76 131 -69 3 4 6 52 5 107 -3 132 -35 225 -105 302 -40 43 -58 47 -58 12z M3875 3489 c-4 -6 -9 -74 -11 -152 -5 -164 -11 -178 -66 -157 -18 7 -40 19 -49 27 -8 7 -23 13 -32 13 -21 0 -23 -45 -3 -66 8 -7 16 -17 18 -21 2 -5 40 -43 85 -86 56 -53 86 -75 97 -71 9 3 26 27 38 53 19 40 21 64 22 187 0 117 -3 145 -17 167 -9 15 -17 33 -17 42 0 17 -39 75 -51 75 -4 0 -11 -5 -14 -11z M794 3219 c-28 -63 -25 -224 5 -304 46 -122 113 -225 146 -225 12 0 50 36 96 90 47 56 99 184 81 202 -8 8 -15 8 -24 1 -28 -23 -110 -63 -127 -63 -28 0 -89 135 -115 255 -9 43 -27 85 -36 85 -4 0 -15 -19 -26 -41z M4042 3225 c-7 -14 -12 -35 -12 -47 0 -21 -24 -100 -47 -155 -7 -17 -13 -35 -13 -40 0 -11 -49 -63 -59 -63 -10 0 -41 16 -91 48 -47 30 -60 28 -60 -8 0 -19 20 -63 55 -119 62 -98 99 -141 124 -141 26 0 111 103 111 133 0 8 7 20 15 27 8 7 15 24 15 39 0 15 7 37 16 49 12 18 14 43 11 125 -6 146 -36 216 -65 152z M4160 2938 c-11 -18 -20 -36 -20 -40 0 -11 -62 -142 -70 -148 -3 -3 -10 -12 -14 -20 -28 -60 -95 -130 -124 -130 -8 0 -41 25 -74 56 -75 68 -91 62 -64 -24 23 -73 69 -169 100 -207 l24 -29 46 24 c26 13 74 50 108 82 33 33 63 57 66 54 3 -3 -3 -16 -14 -28 -22 -26 -24 -29 -64 -85 -39 -56 -138 -133 -170 -133 -22 0 -31 10 -59 70 -36 75 -54 96 -72 85 -14 -9 -8 -167 8 -187 6 -7 13 -26 16 -43 3 -16 12 -48 20 -70 18 -48 37 -53 109 -29 172 57 276 187 317 394 27 140 22 176 -18 123 -11 -16 -24 -32 -29 -38 -4 -5 -11 -18 -15 -27 -3 -10 -11 -18 -17 -18 -11 0 -14 33 -4 43 22 22 45 124 50 228 8 129 -1 153 -36 97z M679 2953 c-11 -92 1 -184 43 -311 11 -35 18 -66 14 -69 -3 -4 -6 0 -6 8 0 8 -8 22 -17 31 -10 9 -26 28 -36 42 -10 15 -22 24 -28 21 -15 -10 -11 -130 6 -161 8 -16 15 -39 15 -50 0 -12 11 -46 24 -76 53 -119 118 -189 226 -240 119 -57 141 -52 168 34 41 131 54 276 24 286 -7 2 -22 -18 -37 -51 -25 -54 -68 -107 -88 -107 -5 0 -35 19 -67 43 -58 42 -108 102 -96 114 3 3 6 1 6 -5 0 -7 7 -12 14 -12 8 0 35 -13 59 -30 25 -16 52 -30 61 -30 30 0 99 128 131 242 27 96 6 102 -71 23 -30 -30 -60 -55 -68 -55 -32 0 -144 150 -210 283 -21 42 -45 77 -52 77 -8 0 -14 -3 -15 -7z M696 2261 c-9 -15 3 -57 36 -126 50 -103 56 -111 122 -173 90 -84 137 -106 261 -121 95 -12 99 -9 114 104 14 101 5 209 -22 264 -17 35 -29 29 -51 -26 -10 -26 -28 -71 -39 -100 -12 -31 -28 -53 -39 -56 -19 -5 -129 29 -138 43 -3 4 -14 10 -25 14 -19 6 -70 50 -171 148 -25 23 -44 36 -48 29z M4115 2204 c-84 -78 -160 -137 -190 -148 -5 -1 -26 -9 -45 -16 -74 -26 -85 -25 -108 15 -12 20 -22 44 -22 54 0 9 -7 26 -15 37 -8 10 -15 36 -15 57 0 38 -18 50 -37 25 -43 -56 -36 -353 9 -382 13 -7 40 -5 104 8 80 16 101 23 144 48 8 4 24 12 35 17 25 11 122 110 140 142 60 106 91 199 68 199 -5 0 -35 -25 -68 -56z M1310 1938 c-1 -18 -7 -44 -15 -58 -8 -14 -14 -34 -15 -46 0 -11 -9 -29 -21 -40 -18 -16 -34 -18 -107 -16 -47 2 -93 7 -101 12 -27 14 -104 16 -108 3 -7 -20 73 -98 129 -125 85 -41 118 -49 214 -55 88 -5 92 -5 104 17 15 28 4 231 -15 275 -7 17 -15 38 -19 48 -3 9 -15 17 -26 17 -16 0 -20 -7 -20 -32z M3546 1963 c-18 -18 -38 -84 -50 -168 -15 -97 -12 -148 10 -165 24 -21 241 3 266 28 7 7 19 12 28 12 22 1 140 98 140 115 0 17 -51 21 -79 6 -24 -14 -181 -23 -215 -13 -31 8 -43 37 -64 146 -7 39 -21 54 -36 39z" fill="none" stroke="#d0a828" stroke-width="5" stroke-dasharray="18,12" opacity="0.75"/>

    <path d="M1605 3891 c-17 -4 -56 -24 -88 -44 -64 -41 -77 -45 -77 -21 0 31 -62 6 -108 -43 -47 -51 -67 -90 -88 -173 -19 -79 -19 -80 25 -80 37 0 99 27 166 72 39 27 165 157 176 183 5 11 13 27 17 35 26 45 32 62 27 70 -7 11 -7 11 -50 1z" fill="#b8880c" opacity="0.90"/>
    <path d="M1605 3891 c-17 -4 -56 -24 -88 -44 -64 -41 -77 -45 -77 -21 0 31 -62 6 -108 -43 -47 -51 -67 -90 -88 -173 -19 -79 -19 -80 25 -80 37 0 99 27 166 72 39 27 165 157 176 183 5 11 13 27 17 35 26 45 32 62 27 70 -7 11 -7 11 -50 1z" fill="none" stroke="#705808" stroke-width="16" opacity="0.50"/>
    <path d="M1605 3891 c-17 -4 -56 -24 -88 -44 -64 -41 -77 -45 -77 -21 0 31 -62 6 -108 -43 -47 -51 -67 -90 -88 -173 -19 -79 -19 -80 25 -80 37 0 99 27 166 72 39 27 165 157 176 183 5 11 13 27 17 35 26 45 32 62 27 70 -7 11 -7 11 -50 1z" fill="none" stroke="#e8c848" stroke-width="4" stroke-dasharray="16,10" opacity="0.80"/>
    <path d="M3230 3879 c0 -6 20 -42 46 -80 45 -69 135 -158 209 -208 63 -43 159 -65 167 -39 12 34 -54 177 -107 235 -43 46 -95 68 -95 39 0 -23 -18 -20 -56 9 -18 14 -37 25 -42 25 -5 0 -15 7 -22 15 -15 18 -100 21 -100 4z" fill="#a87e0a" opacity="0.90"/>
    <path d="M3230 3879 c0 -6 20 -42 46 -80 45 -69 135 -158 209 -208 63 -43 159 -65 167 -39 12 34 -54 177 -107 235 -43 46 -95 68 -95 39 0 -23 -18 -20 -56 9 -18 14 -37 25 -42 25 -5 0 -15 7 -22 15 -15 18 -100 21 -100 4z" fill="none" stroke="#705808" stroke-width="16" opacity="0.50"/>
    <path d="M3230 3879 c0 -6 20 -42 46 -80 45 -69 135 -158 209 -208 63 -43 159 -65 167 -39 12 34 -54 177 -107 235 -43 46 -95 68 -95 39 0 -23 -18 -20 -56 9 -18 14 -37 25 -42 25 -5 0 -15 7 -22 15 -15 18 -100 21 -100 4z" fill="none" stroke="#e8c848" stroke-width="4" stroke-dasharray="16,10" opacity="0.80"/>
    <path d="M1155 3648 c-39 -45 -95 -151 -95 -180 0 -9 -5 -29 -11 -45 -8 -22 -12 -24 -19 -13 -6 8 -10 30 -10 48 0 24 -4 32 -18 32 -55 0 -111 -175 -98 -302 15 -141 18 -158 26 -158 4 0 13 -13 19 -30 18 -52 46 -40 143 58 128 129 143 190 32 138 -77 -36 -88 -33 -92 29 l-2 50 19 -25 19 -24 37 19 c90 48 267 228 250 255 -7 12 -63 2 -93 -17 -13 -8 -33 -13 -45 -11 -30 4 -35 65 -11 134 17 50 15 84 -5 84 -5 0 -26 -19 -46 -42z" fill="#c09010" opacity="0.90"/>
    <path d="M1155 3648 c-39 -45 -95 -151 -95 -180 0 -9 -5 -29 -11 -45 -8 -22 -12 -24 -19 -13 -6 8 -10 30 -10 48 0 24 -4 32 -18 32 -55 0 -111 -175 -98 -302 15 -141 18 -158 26 -158 4 0 13 -13 19 -30 18 -52 46 -40 143 58 128 129 143 190 32 138 -77 -36 -88 -33 -92 29 l-2 50 19 -25 19 -24 37 19 c90 48 267 228 250 255 -7 12 -63 2 -93 -17 -13 -8 -33 -13 -45 -11 -30 4 -35 65 -11 134 17 50 15 84 -5 84 -5 0 -26 -19 -46 -42z" fill="none" stroke="#705808" stroke-width="16" opacity="0.50"/>
    <path d="M1155 3648 c-39 -45 -95 -151 -95 -180 0 -9 -5 -29 -11 -45 -8 -22 -12 -24 -19 -13 -6 8 -10 30 -10 48 0 24 -4 32 -18 32 -55 0 -111 -175 -98 -302 15 -141 18 -158 26 -158 4 0 13 -13 19 -30 18 -52 46 -40 143 58 128 129 143 190 32 138 -77 -36 -88 -33 -92 29 l-2 50 19 -25 19 -24 37 19 c90 48 267 228 250 255 -7 12 -63 2 -93 -17 -13 -8 -33 -13 -45 -11 -30 4 -35 65 -11 134 17 50 15 84 -5 84 -5 0 -26 -19 -46 -42z" fill="none" stroke="#e8c848" stroke-width="4" stroke-dasharray="16,10" opacity="0.80"/>
    <path d="M3670 3665 c0 -15 7 -39 16 -56 9 -19 14 -49 12 -82 -3 -45 -6 -52 -25 -55 -13 -2 -33 4 -45 12 -29 20 -78 21 -78 2 0 -20 100 -137 147 -173 52 -39 123 -76 131 -69 3 4 6 52 5 107 -3 132 -35 225 -105 302 -40 43 -58 47 -58 12z" fill="#a07808" opacity="0.90"/>
    <path d="M3670 3665 c0 -15 7 -39 16 -56 9 -19 14 -49 12 -82 -3 -45 -6 -52 -25 -55 -13 -2 -33 4 -45 12 -29 20 -78 21 -78 2 0 -20 100 -137 147 -173 52 -39 123 -76 131 -69 3 4 6 52 5 107 -3 132 -35 225 -105 302 -40 43 -58 47 -58 12z" fill="none" stroke="#705808" stroke-width="16" opacity="0.50"/>
    <path d="M3670 3665 c0 -15 7 -39 16 -56 9 -19 14 -49 12 -82 -3 -45 -6 -52 -25 -55 -13 -2 -33 4 -45 12 -29 20 -78 21 -78 2 0 -20 100 -137 147 -173 52 -39 123 -76 131 -69 3 4 6 52 5 107 -3 132 -35 225 -105 302 -40 43 -58 47 -58 12z" fill="none" stroke="#e8c848" stroke-width="4" stroke-dasharray="16,10" opacity="0.80"/>
    <path d="M3875 3489 c-4 -6 -9 -74 -11 -152 -5 -164 -11 -178 -66 -157 -18 7 -40 19 -49 27 -8 7 -23 13 -32 13 -21 0 -23 -45 -3 -66 8 -7 16 -17 18 -21 2 -5 40 -43 85 -86 56 -53 86 -75 97 -71 9 3 26 27 38 53 19 40 21 64 22 187 0 117 -3 145 -17 167 -9 15 -17 33 -17 42 0 17 -39 75 -51 75 -4 0 -11 -5 -14 -11z" fill="#b08808" opacity="0.90"/>
    <path d="M3875 3489 c-4 -6 -9 -74 -11 -152 -5 -164 -11 -178 -66 -157 -18 7 -40 19 -49 27 -8 7 -23 13 -32 13 -21 0 -23 -45 -3 -66 8 -7 16 -17 18 -21 2 -5 40 -43 85 -86 56 -53 86 -75 97 -71 9 3 26 27 38 53 19 40 21 64 22 187 0 117 -3 145 -17 167 -9 15 -17 33 -17 42 0 17 -39 75 -51 75 -4 0 -11 -5 -14 -11z" fill="none" stroke="#705808" stroke-width="16" opacity="0.50"/>
    <path d="M3875 3489 c-4 -6 -9 -74 -11 -152 -5 -164 -11 -178 -66 -157 -18 7 -40 19 -49 27 -8 7 -23 13 -32 13 -21 0 -23 -45 -3 -66 8 -7 16 -17 18 -21 2 -5 40 -43 85 -86 56 -53 86 -75 97 -71 9 3 26 27 38 53 19 40 21 64 22 187 0 117 -3 145 -17 167 -9 15 -17 33 -17 42 0 17 -39 75 -51 75 -4 0 -11 -5 -14 -11z" fill="none" stroke="#e8c848" stroke-width="4" stroke-dasharray="16,10" opacity="0.80"/>
    <path d="M794 3219 c-28 -63 -25 -224 5 -304 46 -122 113 -225 146 -225 12 0 50 36 96 90 47 56 99 184 81 202 -8 8 -15 8 -24 1 -28 -23 -110 -63 -127 -63 -28 0 -89 135 -115 255 -9 43 -27 85 -36 85 -4 0 -15 -19 -26 -41z" fill="#b88c0a" opacity="0.90"/>
    <path d="M794 3219 c-28 -63 -25 -224 5 -304 46 -122 113 -225 146 -225 12 0 50 36 96 90 47 56 99 184 81 202 -8 8 -15 8 -24 1 -28 -23 -110 -63 -127 -63 -28 0 -89 135 -115 255 -9 43 -27 85 -36 85 -4 0 -15 -19 -26 -41z" fill="none" stroke="#705808" stroke-width="16" opacity="0.50"/>
    <path d="M794 3219 c-28 -63 -25 -224 5 -304 46 -122 113 -225 146 -225 12 0 50 36 96 90 47 56 99 184 81 202 -8 8 -15 8 -24 1 -28 -23 -110 -63 -127 -63 -28 0 -89 135 -115 255 -9 43 -27 85 -36 85 -4 0 -15 -19 -26 -41z" fill="none" stroke="#e8c848" stroke-width="4" stroke-dasharray="16,10" opacity="0.80"/>
    <path d="M4042 3225 c-7 -14 -12 -35 -12 -47 0 -21 -24 -100 -47 -155 -7 -17 -13 -35 -13 -40 0 -11 -49 -63 -59 -63 -10 0 -41 16 -91 48 -47 30 -60 28 -60 -8 0 -19 20 -63 55 -119 62 -98 99 -141 124 -141 26 0 111 103 111 133 0 8 7 20 15 27 8 7 15 24 15 39 0 15 7 37 16 49 12 18 14 43 11 125 -6 146 -36 216 -65 152z" fill="#a48008" opacity="0.90"/>
    <path d="M4042 3225 c-7 -14 -12 -35 -12 -47 0 -21 -24 -100 -47 -155 -7 -17 -13 -35 -13 -40 0 -11 -49 -63 -59 -63 -10 0 -41 16 -91 48 -47 30 -60 28 -60 -8 0 -19 20 -63 55 -119 62 -98 99 -141 124 -141 26 0 111 103 111 133 0 8 7 20 15 27 8 7 15 24 15 39 0 15 7 37 16 49 12 18 14 43 11 125 -6 146 -36 216 -65 152z" fill="none" stroke="#705808" stroke-width="16" opacity="0.50"/>
    <path d="M4042 3225 c-7 -14 -12 -35 -12 -47 0 -21 -24 -100 -47 -155 -7 -17 -13 -35 -13 -40 0 -11 -49 -63 -59 -63 -10 0 -41 16 -91 48 -47 30 -60 28 -60 -8 0 -19 20 -63 55 -119 62 -98 99 -141 124 -141 26 0 111 103 111 133 0 8 7 20 15 27 8 7 15 24 15 39 0 15 7 37 16 49 12 18 14 43 11 125 -6 146 -36 216 -65 152z" fill="none" stroke="#e8c848" stroke-width="4" stroke-dasharray="16,10" opacity="0.80"/>
    <path d="M4160 2938 c-11 -18 -20 -36 -20 -40 0 -11 -62 -142 -70 -148 -3 -3 -10 -12 -14 -20 -28 -60 -95 -130 -124 -130 -8 0 -41 25 -74 56 -75 68 -91 62 -64 -24 23 -73 69 -169 100 -207 l24 -29 46 24 c26 13 74 50 108 82 33 33 63 57 66 54 3 -3 -3 -16 -14 -28 -22 -26 -24 -29 -64 -85 -39 -56 -138 -133 -170 -133 -22 0 -31 10 -59 70 -36 75 -54 96 -72 85 -14 -9 -8 -167 8 -187 6 -7 13 -26 16 -43 3 -16 12 -48 20 -70 18 -48 37 -53 109 -29 172 57 276 187 317 394 27 140 22 176 -18 123 -11 -16 -24 -32 -29 -38 -4 -5 -11 -18 -15 -27 -3 -10 -11 -18 -17 -18 -11 0 -14 33 -4 43 22 22 45 124 50 228 8 129 -1 153 -36 97z" fill="#ba9010" opacity="0.90"/>
    <path d="M4160 2938 c-11 -18 -20 -36 -20 -40 0 -11 -62 -142 -70 -148 -3 -3 -10 -12 -14 -20 -28 -60 -95 -130 -124 -130 -8 0 -41 25 -74 56 -75 68 -91 62 -64 -24 23 -73 69 -169 100 -207 l24 -29 46 24 c26 13 74 50 108 82 33 33 63 57 66 54 3 -3 -3 -16 -14 -28 -22 -26 -24 -29 -64 -85 -39 -56 -138 -133 -170 -133 -22 0 -31 10 -59 70 -36 75 -54 96 -72 85 -14 -9 -8 -167 8 -187 6 -7 13 -26 16 -43 3 -16 12 -48 20 -70 18 -48 37 -53 109 -29 172 57 276 187 317 394 27 140 22 176 -18 123 -11 -16 -24 -32 -29 -38 -4 -5 -11 -18 -15 -27 -3 -10 -11 -18 -17 -18 -11 0 -14 33 -4 43 22 22 45 124 50 228 8 129 -1 153 -36 97z" fill="none" stroke="#705808" stroke-width="16" opacity="0.50"/>
    <path d="M4160 2938 c-11 -18 -20 -36 -20 -40 0 -11 -62 -142 -70 -148 -3 -3 -10 -12 -14 -20 -28 -60 -95 -130 -124 -130 -8 0 -41 25 -74 56 -75 68 -91 62 -64 -24 23 -73 69 -169 100 -207 l24 -29 46 24 c26 13 74 50 108 82 33 33 63 57 66 54 3 -3 -3 -16 -14 -28 -22 -26 -24 -29 -64 -85 -39 -56 -138 -133 -170 -133 -22 0 -31 10 -59 70 -36 75 -54 96 -72 85 -14 -9 -8 -167 8 -187 6 -7 13 -26 16 -43 3 -16 12 -48 20 -70 18 -48 37 -53 109 -29 172 57 276 187 317 394 27 140 22 176 -18 123 -11 -16 -24 -32 -29 -38 -4 -5 -11 -18 -15 -27 -3 -10 -11 -18 -17 -18 -11 0 -14 33 -4 43 22 22 45 124 50 228 8 129 -1 153 -36 97z" fill="none" stroke="#e8c848" stroke-width="4" stroke-dasharray="16,10" opacity="0.80"/>
    <path d="M679 2953 c-11 -92 1 -184 43 -311 11 -35 18 -66 14 -69 -3 -4 -6 0 -6 8 0 8 -8 22 -17 31 -10 9 -26 28 -36 42 -10 15 -22 24 -28 21 -15 -10 -11 -130 6 -161 8 -16 15 -39 15 -50 0 -12 11 -46 24 -76 53 -119 118 -189 226 -240 119 -57 141 -52 168 34 41 131 54 276 24 286 -7 2 -22 -18 -37 -51 -25 -54 -68 -107 -88 -107 -5 0 -35 19 -67 43 -58 42 -108 102 -96 114 3 3 6 1 6 -5 0 -7 7 -12 14 -12 8 0 35 -13 59 -30 25 -16 52 -30 61 -30 30 0 99 128 131 242 27 96 6 102 -71 23 -30 -30 -60 -55 -68 -55 -32 0 -144 150 -210 283 -21 42 -45 77 -52 77 -8 0 -14 -3 -15 -7z" fill="#c09818" opacity="0.90"/>
    <path d="M679 2953 c-11 -92 1 -184 43 -311 11 -35 18 -66 14 -69 -3 -4 -6 0 -6 8 0 8 -8 22 -17 31 -10 9 -26 28 -36 42 -10 15 -22 24 -28 21 -15 -10 -11 -130 6 -161 8 -16 15 -39 15 -50 0 -12 11 -46 24 -76 53 -119 118 -189 226 -240 119 -57 141 -52 168 34 41 131 54 276 24 286 -7 2 -22 -18 -37 -51 -25 -54 -68 -107 -88 -107 -5 0 -35 19 -67 43 -58 42 -108 102 -96 114 3 3 6 1 6 -5 0 -7 7 -12 14 -12 8 0 35 -13 59 -30 25 -16 52 -30 61 -30 30 0 99 128 131 242 27 96 6 102 -71 23 -30 -30 -60 -55 -68 -55 -32 0 -144 150 -210 283 -21 42 -45 77 -52 77 -8 0 -14 -3 -15 -7z" fill="none" stroke="#705808" stroke-width="16" opacity="0.50"/>
    <path d="M679 2953 c-11 -92 1 -184 43 -311 11 -35 18 -66 14 -69 -3 -4 -6 0 -6 8 0 8 -8 22 -17 31 -10 9 -26 28 -36 42 -10 15 -22 24 -28 21 -15 -10 -11 -130 6 -161 8 -16 15 -39 15 -50 0 -12 11 -46 24 -76 53 -119 118 -189 226 -240 119 -57 141 -52 168 34 41 131 54 276 24 286 -7 2 -22 -18 -37 -51 -25 -54 -68 -107 -88 -107 -5 0 -35 19 -67 43 -58 42 -108 102 -96 114 3 3 6 1 6 -5 0 -7 7 -12 14 -12 8 0 35 -13 59 -30 25 -16 52 -30 61 -30 30 0 99 128 131 242 27 96 6 102 -71 23 -30 -30 -60 -55 -68 -55 -32 0 -144 150 -210 283 -21 42 -45 77 -52 77 -8 0 -14 -3 -15 -7z" fill="none" stroke="#e8c848" stroke-width="4" stroke-dasharray="16,10" opacity="0.80"/>
    <path d="M696 2261 c-9 -15 3 -57 36 -126 50 -103 56 -111 122 -173 90 -84 137 -106 261 -121 95 -12 99 -9 114 104 14 101 5 209 -22 264 -17 35 -29 29 -51 -26 -10 -26 -28 -71 -39 -100 -12 -31 -28 -53 -39 -56 -19 -5 -129 29 -138 43 -3 4 -14 10 -25 14 -19 6 -70 50 -171 148 -25 23 -44 36 -48 29z" fill="#987008" opacity="0.90"/>
    <path d="M696 2261 c-9 -15 3 -57 36 -126 50 -103 56 -111 122 -173 90 -84 137 -106 261 -121 95 -12 99 -9 114 104 14 101 5 209 -22 264 -17 35 -29 29 -51 -26 -10 -26 -28 -71 -39 -100 -12 -31 -28 -53 -39 -56 -19 -5 -129 29 -138 43 -3 4 -14 10 -25 14 -19 6 -70 50 -171 148 -25 23 -44 36 -48 29z" fill="none" stroke="#705808" stroke-width="16" opacity="0.50"/>
    <path d="M696 2261 c-9 -15 3 -57 36 -126 50 -103 56 -111 122 -173 90 -84 137 -106 261 -121 95 -12 99 -9 114 104 14 101 5 209 -22 264 -17 35 -29 29 -51 -26 -10 -26 -28 -71 -39 -100 -12 -31 -28 -53 -39 -56 -19 -5 -129 29 -138 43 -3 4 -14 10 -25 14 -19 6 -70 50 -171 148 -25 23 -44 36 -48 29z" fill="none" stroke="#e8c848" stroke-width="4" stroke-dasharray="16,10" opacity="0.80"/>
    <path d="M4115 2204 c-84 -78 -160 -137 -190 -148 -5 -1 -26 -9 -45 -16 -74 -26 -85 -25 -108 15 -12 20 -22 44 -22 54 0 9 -7 26 -15 37 -8 10 -15 36 -15 57 0 38 -18 50 -37 25 -43 -56 -36 -353 9 -382 13 -7 40 -5 104 8 80 16 101 23 144 48 8 4 24 12 35 17 25 11 122 110 140 142 60 106 91 199 68 199 -5 0 -35 -25 -68 -56z" fill="#a88208" opacity="0.90"/>
    <path d="M4115 2204 c-84 -78 -160 -137 -190 -148 -5 -1 -26 -9 -45 -16 -74 -26 -85 -25 -108 15 -12 20 -22 44 -22 54 0 9 -7 26 -15 37 -8 10 -15 36 -15 57 0 38 -18 50 -37 25 -43 -56 -36 -353 9 -382 13 -7 40 -5 104 8 80 16 101 23 144 48 8 4 24 12 35 17 25 11 122 110 140 142 60 106 91 199 68 199 -5 0 -35 -25 -68 -56z" fill="none" stroke="#705808" stroke-width="16" opacity="0.50"/>
    <path d="M4115 2204 c-84 -78 -160 -137 -190 -148 -5 -1 -26 -9 -45 -16 -74 -26 -85 -25 -108 15 -12 20 -22 44 -22 54 0 9 -7 26 -15 37 -8 10 -15 36 -15 57 0 38 -18 50 -37 25 -43 -56 -36 -353 9 -382 13 -7 40 -5 104 8 80 16 101 23 144 48 8 4 24 12 35 17 25 11 122 110 140 142 60 106 91 199 68 199 -5 0 -35 -25 -68 -56z" fill="none" stroke="#e8c848" stroke-width="4" stroke-dasharray="16,10" opacity="0.80"/>
    <path d="M1310 1938 c-1 -18 -7 -44 -15 -58 -8 -14 -14 -34 -15 -46 0 -11 -9 -29 -21 -40 -18 -16 -34 -18 -107 -16 -47 2 -93 7 -101 12 -27 14 -104 16 -108 3 -7 -20 73 -98 129 -125 85 -41 118 -49 214 -55 88 -5 92 -5 104 17 15 28 4 231 -15 275 -7 17 -15 38 -19 48 -3 9 -15 17 -26 17 -16 0 -20 -7 -20 -32z" fill="#b08a10" opacity="0.90"/>
    <path d="M1310 1938 c-1 -18 -7 -44 -15 -58 -8 -14 -14 -34 -15 -46 0 -11 -9 -29 -21 -40 -18 -16 -34 -18 -107 -16 -47 2 -93 7 -101 12 -27 14 -104 16 -108 3 -7 -20 73 -98 129 -125 85 -41 118 -49 214 -55 88 -5 92 -5 104 17 15 28 4 231 -15 275 -7 17 -15 38 -19 48 -3 9 -15 17 -26 17 -16 0 -20 -7 -20 -32z" fill="none" stroke="#705808" stroke-width="16" opacity="0.50"/>
    <path d="M1310 1938 c-1 -18 -7 -44 -15 -58 -8 -14 -14 -34 -15 -46 0 -11 -9 -29 -21 -40 -18 -16 -34 -18 -107 -16 -47 2 -93 7 -101 12 -27 14 -104 16 -108 3 -7 -20 73 -98 129 -125 85 -41 118 -49 214 -55 88 -5 92 -5 104 17 15 28 4 231 -15 275 -7 17 -15 38 -19 48 -3 9 -15 17 -26 17 -16 0 -20 -7 -20 -32z" fill="none" stroke="#e8c848" stroke-width="4" stroke-dasharray="16,10" opacity="0.80"/>
    <path d="M3546 1963 c-18 -18 -38 -84 -50 -168 -15 -97 -12 -148 10 -165 24 -21 241 3 266 28 7 7 19 12 28 12 22 1 140 98 140 115 0 17 -51 21 -79 6 -24 -14 -181 -23 -215 -13 -31 8 -43 37 -64 146 -7 39 -21 54 -36 39z" fill="#a07808" opacity="0.90"/>
    <path d="M3546 1963 c-18 -18 -38 -84 -50 -168 -15 -97 -12 -148 10 -165 24 -21 241 3 266 28 7 7 19 12 28 12 22 1 140 98 140 115 0 17 -51 21 -79 6 -24 -14 -181 -23 -215 -13 -31 8 -43 37 -64 146 -7 39 -21 54 -36 39z" fill="none" stroke="#705808" stroke-width="16" opacity="0.50"/>
    <path d="M3546 1963 c-18 -18 -38 -84 -50 -168 -15 -97 -12 -148 10 -165 24 -21 241 3 266 28 7 7 19 12 28 12 22 1 140 98 140 115 0 17 -51 21 -79 6 -24 -14 -181 -23 -215 -13 -31 8 -43 37 -64 146 -7 39 -21 54 -36 39z" fill="none" stroke="#e8c848" stroke-width="4" stroke-dasharray="16,10" opacity="0.80"/>
  </g>

  <!-- CORD with stitch outline -->
  <path d="M1473 1773 c-9 -3 -13 -32 -13 -93 0 -116 1 -115 -177 -106 -110 6 -133 5 -133 -7 0 -18 72 -84 107 -99 98 -40 132 -47 221 -48 86 0 95 -2 134 -30 26 -19 53 -30 74 -30 18 0 36 -4 39 -10 4 -6 65 -10 148 -10 78 0 160 -5 182 -11 22 -6 55 -13 73 -16 18 -3 35 -10 38 -15 13 -20 -23 -28 -128 -28 -64 0 -108 -4 -108 -10 0 -5 17 -20 38 -34 20 -13 43 -30 50 -39 8 -9 29 -21 48 -27 30 -10 47 -7 130 19 129 42 134 45 134 86 0 27 -7 39 -37 62 -54 40 -69 47 -153 72 -41 12 -89 26 -106 31 -17 6 -39 10 -49 10 -38 0 -213 55 -277 86 -49 25 -67 19 -48 -15 22 -42 6 -91 -30 -91 -14 0 -17 13 -18 76 -2 42 -9 88 -16 103 -7 14 -23 46 -34 71 -26 56 -73 110 -89 103z M3368 1741 c-33 -36 -76 -129 -89 -190 -5 -25 -12 -58 -15 -72 -5 -24 -3 -26 69 -44 71 -18 77 -18 148 -1 97 23 124 33 184 70 115 70 99 90 -51 66 -60 -10 -158 0 -176 18 -4 4 -11 45 -15 92 -5 46 -13 85 -19 87 -6 2 -22 -10 -36 -26z M3180 1522 c-38 -27 -238 -82 -299 -82 -17 0 -45 -6 -63 -14 -18 -7 -69 -29 -113 -47 -160 -66 -195 -122 -101 -163 123 -55 205 -62 253 -23 15 13 41 30 57 38 61 29 44 38 -80 41 -129 3 -152 15 -87 44 25 12 79 20 163 25 186 11 322 28 348 45 24 16 21 34 -5 34 -27 0 -42 32 -36 78 6 46 0 50 -37 24z" fill="#7a5810" opacity="0.90"/>
  <path d="M1473 1773 c-9 -3 -13 -32 -13 -93 0 -116 1 -115 -177 -106 -110 6 -133 5 -133 -7 0 -18 72 -84 107 -99 98 -40 132 -47 221 -48 86 0 95 -2 134 -30 26 -19 53 -30 74 -30 18 0 36 -4 39 -10 4 -6 65 -10 148 -10 78 0 160 -5 182 -11 22 -6 55 -13 73 -16 18 -3 35 -10 38 -15 13 -20 -23 -28 -128 -28 -64 0 -108 -4 -108 -10 0 -5 17 -20 38 -34 20 -13 43 -30 50 -39 8 -9 29 -21 48 -27 30 -10 47 -7 130 19 129 42 134 45 134 86 0 27 -7 39 -37 62 -54 40 -69 47 -153 72 -41 12 -89 26 -106 31 -17 6 -39 10 -49 10 -38 0 -213 55 -277 86 -49 25 -67 19 -48 -15 22 -42 6 -91 -30 -91 -14 0 -17 13 -18 76 -2 42 -9 88 -16 103 -7 14 -23 46 -34 71 -26 56 -73 110 -89 103z M3368 1741 c-33 -36 -76 -129 -89 -190 -5 -25 -12 -58 -15 -72 -5 -24 -3 -26 69 -44 71 -18 77 -18 148 -1 97 23 124 33 184 70 115 70 99 90 -51 66 -60 -10 -158 0 -176 18 -4 4 -11 45 -15 92 -5 46 -13 85 -19 87 -6 2 -22 -10 -36 -26z M3180 1522 c-38 -27 -238 -82 -299 -82 -17 0 -45 -6 -63 -14 -18 -7 -69 -29 -113 -47 -160 -66 -195 -122 -101 -163 123 -55 205 -62 253 -23 15 13 41 30 57 38 61 29 44 38 -80 41 -129 3 -152 15 -87 44 25 12 79 20 163 25 186 11 322 28 348 45 24 16 21 34 -5 34 -27 0 -42 32 -36 78 6 46 0 50 -37 24z" fill="none" stroke="#584008" stroke-width="20" opacity="0.45"/>
  <path d="M1473 1773 c-9 -3 -13 -32 -13 -93 0 -116 1 -115 -177 -106 -110 6 -133 5 -133 -7 0 -18 72 -84 107 -99 98 -40 132 -47 221 -48 86 0 95 -2 134 -30 26 -19 53 -30 74 -30 18 0 36 -4 39 -10 4 -6 65 -10 148 -10 78 0 160 -5 182 -11 22 -6 55 -13 73 -16 18 -3 35 -10 38 -15 13 -20 -23 -28 -128 -28 -64 0 -108 -4 -108 -10 0 -5 17 -20 38 -34 20 -13 43 -30 50 -39 8 -9 29 -21 48 -27 30 -10 47 -7 130 19 129 42 134 45 134 86 0 27 -7 39 -37 62 -54 40 -69 47 -153 72 -41 12 -89 26 -106 31 -17 6 -39 10 -49 10 -38 0 -213 55 -277 86 -49 25 -67 19 -48 -15 22 -42 6 -91 -30 -91 -14 0 -17 13 -18 76 -2 42 -9 88 -16 103 -7 14 -23 46 -34 71 -26 56 -73 110 -89 103z M3368 1741 c-33 -36 -76 -129 -89 -190 -5 -25 -12 -58 -15 -72 -5 -24 -3 -26 69 -44 71 -18 77 -18 148 -1 97 23 124 33 184 70 115 70 99 90 -51 66 -60 -10 -158 0 -176 18 -4 4 -11 45 -15 92 -5 46 -13 85 -19 87 -6 2 -22 -10 -36 -26z M3180 1522 c-38 -27 -238 -82 -299 -82 -17 0 -45 -6 -63 -14 -18 -7 -69 -29 -113 -47 -160 -66 -195 -122 -101 -163 123 -55 205 -62 253 -23 15 13 41 30 57 38 61 29 44 38 -80 41 -129 3 -152 15 -87 44 25 12 79 20 163 25 186 11 322 28 348 45 24 16 21 34 -5 34 -27 0 -42 32 -36 78 6 46 0 50 -37 24z" fill="none" stroke="#c8a030" stroke-width="4" stroke-dasharray="14,10" opacity="0.75"/>

</g>

<!-- TEXT -->
<text font-family="'Helvetica Neue', Helvetica, Arial, sans-serif" font-size="95" font-weight="900"
      fill="#18202a" opacity="0.50" text-anchor="middle" transform="translate(3,3)">
  <textPath href="#txtTopL" startOffset="50%" textLength="2818" lengthAdjust="spacing">UNITED FEDERATION OF PLANETS</textPath>
</text>
<text font-family="'Helvetica Neue', Helvetica, Arial, sans-serif" font-size="95" font-weight="900"
      fill="#90a8c8" opacity="0.92" text-anchor="middle">
  <textPath href="#txtTopL" startOffset="50%" textLength="2818" lengthAdjust="spacing">UNITED FEDERATION OF PLANETS</textPath>
</text>
<text font-family="'Helvetica Neue', Helvetica, Arial, sans-serif" font-size="95" font-weight="900"
      fill="#18202a" opacity="0.50" text-anchor="middle" transform="translate(3,3)">
  <textPath href="#txtBotL" startOffset="50%" textLength="2987" lengthAdjust="spacing">STARFLEET COMMAND</textPath>
</text>
<text font-family="'Helvetica Neue', Helvetica, Arial, sans-serif" font-size="95" font-weight="900"
      fill="#90a8c8" opacity="0.92" text-anchor="middle">
  <textPath href="#txtBotL" startOffset="50%" textLength="2987" lengthAdjust="spacing">STARFLEET COMMAND</textPath>
</text>
<g font-family="'Helvetica Neue', Helvetica, Arial, sans-serif" font-size="95" font-weight="900" text-anchor="middle" dominant-baseline="central">
  <text x="1322" y="2118" fill="#90a8c8" opacity="0.92">★</text>
  <text x="3522" y="2118" fill="#90a8c8" opacity="0.92">★</text>
</g>
</svg>