<svg viewBox="0 0 5000 4860" xmlns="http://www.w3.org/2000/svg">
<defs>
  <filter id="shBlurL" x="-10%" y="-10%" width="120%" height="120%">
    <feGaussianBlur stdDeviation="25"/>
  </filter>
  <filter id="ringGlowL" x="-30%" y="-30%" width="160%" height="160%">
    <feGaussianBlur stdDeviation="45" result="glow"/>
    <feMerge><feMergeNode in="glow"/><feMergeNode in="SourceGraphic"/></feMerge>
  </filter>
  <clipPath id="nebClipL"><path d="M2605 3812 c39 -4 80 -13 92 -20 12 -7 33 -12 47 -12 13 0 37 -6 53 -14 168 -81 210 -104 262 -142 121 -88 244 -220 308 -329 29 -49 83 -167 83 -180 0 -7 4 -16 9 -19 5 -4 12 -25 16 -49 4 -23 11 -49 15 -57 5 -8 14 -69 20 -135 13 -118 3 -295 -20 -380 -35 -128 -46 -163 -59 -185 -4 -8 -15 -28 -24 -45 -36 -71 -52 -100 -57 -105 -3 -3 -17 -24 -32 -46 -42 -66 -197 -216 -273 -266 -83 -54 -183 -108 -201 -108 -7 0 -25 -6 -41 -14 -38 -19 -119 -43 -168 -50 -22 -3 -62 -10 -90 -15 -64 -12 -176 -12 -240 0 -27 5 -75 13 -105 18 -73 11 -119 28 -250 91 -76 36 -87 43 -159 94 -147 106 -278 262 -350 421 -31 69 -81 222 -81 249 0 14 -7 51 -15 83 -17 66 -20 222 -5 273 6 19 15 62 19 95 8 54 16 82 42 150 24 64 78 169 118 230 53 81 43 70 146 175 94 96 245 200 290 200 7 0 18 7 25 15 7 8 22 15 34 15 12 0 31 7 42 15 10 8 33 15 49 15 17 0 41 7 55 15 14 8 52 15 85 16 33 0 71 5 85 9 27 10 161 6 275 -8z"/></clipPath>
  <radialGradient id="nebL" cx="0.42" cy="0.45" r="0.52" fx="0.38" fy="0.40">
    <stop offset="0%" stop-color="#2a4080"/><stop offset="25%" stop-color="#1a3060"/>
    <stop offset="50%" stop-color="#102048"/><stop offset="75%" stop-color="#0a1430"/>
    <stop offset="100%" stop-color="#050a18"/>
  </radialGradient>
  <radialGradient id="sphSL" cx="0.5" cy="0.5" r="0.5" fx="0.32" fy="0.28">
    <stop offset="0%" stop-color="#ffffff"/><stop offset="12%" stop-color="#e0e8ff"/>
    <stop offset="35%" stop-color="#8898c8"/><stop offset="65%" stop-color="#405080"/>
    <stop offset="100%" stop-color="#182040"/>
  </radialGradient>
  <radialGradient id="sphBL" cx="0.5" cy="0.5" r="0.5" fx="0.32" fy="0.28">
    <stop offset="0%" stop-color="#ffffff"/><stop offset="8%" stop-color="#e8f0ff"/>
    <stop offset="25%" stop-color="#a0b0e0"/><stop offset="50%" stop-color="#5068a0"/>
    <stop offset="75%" stop-color="#304070"/><stop offset="100%" stop-color="#101830"/>
  </radialGradient>

  <!-- RING -->
  <radialGradient id="rTubeL" cx="0.5" cy="0.53" r="0.42" fx="0.42" fy="0.45">
    <stop offset="0%" stop-color="#38384a"/><stop offset="40%" stop-color="#58586a"/>
    <stop offset="60%" stop-color="#78788a"/><stop offset="72%" stop-color="#a0a0b8"/>
    <stop offset="82%" stop-color="#d0d0e8"/><stop offset="90%" stop-color="#e8e8f8"/>
    <stop offset="96%" stop-color="#c0c0d0"/><stop offset="100%" stop-color="#606070"/>
  </radialGradient>
  <linearGradient id="rDirL" x1="0" y1="1" x2="1" y2="0">
    <stop offset="0%" stop-color="#e8e8ff" stop-opacity="0.45"/>
    <stop offset="30%" stop-color="#c0c0d8" stop-opacity="0.18"/>
    <stop offset="65%" stop-color="#404050" stop-opacity="0"/>
    <stop offset="100%" stop-color="#181820" stop-opacity="0.30"/>
  </linearGradient>
  <linearGradient id="rSpecL" x1="0.3" y1="1" x2="0.7" y2="0">
    <stop offset="0%" stop-color="#ffffff" stop-opacity="0"/>
    <stop offset="55%" stop-color="#ffffff" stop-opacity="0"/>
    <stop offset="80%" stop-color="#ffffff" stop-opacity="0.3"/>
    <stop offset="90%" stop-color="#ffffff" stop-opacity="0.5"/>
    <stop offset="96%" stop-color="#e0e0f0" stop-opacity="0.15"/>
    <stop offset="100%" stop-color="#c0c0d0" stop-opacity="0"/>
  </linearGradient>
  <radialGradient id="rBandL" cx="0.5" cy="0.50" r="0.50" fx="0.45" fy="0.42">
    <stop offset="0%" stop-color="#505060"/><stop offset="35%" stop-color="#70708a"/>
    <stop offset="55%" stop-color="#9898b0"/><stop offset="70%" stop-color="#b8b8d0"/>
    <stop offset="82%" stop-color="#d0d0e8"/><stop offset="92%" stop-color="#b8b8c8"/>
    <stop offset="100%" stop-color="#606070"/>
  </radialGradient>
  <pattern id="ridgesL" patternUnits="userSpaceOnUse">
    <rect fill="none"/>
    <line x1="18" y1="0" x2="18" y2="36" stroke="#ffffff" stroke-width="2.5" opacity="0.1"/>
    <line x1="0" y1="0" x2="0" y2="36" stroke="#000000" stroke-width="2" opacity="0.07"/>
  </pattern>
  <clipPath id="rClipL"><path d="M2309 3936 c-2 -2 -42 -10 -89 -16 -47 -6 -89 -16 -94 -21 -6 -5 -20 -9 -33 -9 -12 0 -39 -7 -60 -16 -89 -38 -105 -45 -140 -61 -45 -21 -136 -74 -143 -84 -3 -3 -23 -17 -45 -31 -65 -41 -219 -203 -278 -291 -65 -98 -117 -194 -117 -216 0 -9 -7 -25 -15 -35 -8 -11 -15 -29 -15 -41 0 -11 -6 -29 -14 -40 -7 -11 -16 -40 -19 -65 -3 -25 -10 -65 -16 -90 -13 -58 -13 -301 0 -360 6 -25 14 -69 19 -99 5 -29 13 -58 19 -64 6 -6 11 -23 11 -38 0 -15 6 -40 14 -56 8 -15 30 -62 50 -103 59 -123 114 -199 231 -317 164 -164 298 -243 530 -313 17 -4 67 -16 113 -25 101 -20 350 -16 457 8 118 27 173 42 181 50 4 4 15 7 24 7 10 0 23 7 30 15 7 8 23 15 36 15 12 0 25 4 28 9 3 5 25 19 48 31 69 35 187 128 266 209 123 125 238 317 281 471 7 25 17 55 22 68 33 83 46 406 22 525 -27 134 -110 338 -171 425 -12 16 -22 34 -22 39 0 5 -13 22 -30 38 -16 16 -30 34 -30 40 0 22 -235 239 -280 258 -8 4 -37 21 -65 37 -27 16 -57 33 -65 36 -8 3 -23 10 -32 15 -19 9 -107 39 -173 58 -76 21 -235 41 -333 41 -54 0 -101 -2 -103 -4z m296 -124 c39 -4 80 -13 92 -20 12 -7 33 -12 47 -12 13 0 37 -6 53 -14 168 -81 210 -104 262 -142 121 -88 244 -220 308 -329 29 -49 83 -167 83 -180 0 -7 4 -16 9 -19 5 -4 12 -25 16 -49 4 -23 11 -49 15 -57 5 -8 14 -69 20 -135 13 -118 3 -295 -20 -380 -35 -128 -46 -163 -59 -185 -4 -8 -15 -28 -24 -45 -36 -71 -52 -100 -57 -105 -3 -3 -17 -24 -32 -46 -42 -66 -197 -216 -273 -266 -83 -54 -183 -108 -201 -108 -7 0 -25 -6 -41 -14 -38 -19 -119 -43 -168 -50 -22 -3 -62 -10 -90 -15 -64 -12 -176 -12 -240 0 -27 5 -75 13 -105 18 -73 11 -119 28 -250 91 -76 36 -87 43 -159 94 -147 106 -278 262 -350 421 -31 69 -81 222 -81 249 0 14 -7 51 -15 83 -17 66 -20 222 -5 273 6 19 15 62 19 95 8 54 16 82 42 150 24 64 78 169 118 230 53 81 43 70 146 175 94 96 245 200 290 200 7 0 18 7 25 15 7 8 22 15 34 15 12 0 31 7 42 15 10 8 33 15 49 15 17 0 41 7 55 15 14 8 52 15 85 16 33 0 71 5 85 9 27 10 161 6 275 -8z"/></clipPath>

  <!-- LEAF shared overlays -->
  <linearGradient id="lG2L" x1="1" y1="0" x2="0" y2="1">
    <stop offset="0%" stop-color="#ffffc0" stop-opacity="0.45"/>
    <stop offset="25%" stop-color="#d8a820" stop-opacity="0.25"/>
    <stop offset="50%" stop-color="#fff070" stop-opacity="0.45"/>
    <stop offset="75%" stop-color="#d8a820" stop-opacity="0.25"/>
    <stop offset="100%" stop-color="#ffffc0" stop-opacity="0.45"/>
  </linearGradient>
  <radialGradient id="lHLL" cx="0.38" cy="0.30" r="0.65" fx="0.33" fy="0.25">
    <stop offset="0%" stop-color="#ffffff" stop-opacity="0.90"/>
    <stop offset="10%" stop-color="#fffef0" stop-opacity="0.70"/>
    <stop offset="25%" stop-color="#fff8c0" stop-opacity="0.45"/>
    <stop offset="45%" stop-color="#ffe880" stop-opacity="0.18"/>
    <stop offset="70%" stop-color="#d4a020" stop-opacity="0.03"/>
    <stop offset="100%" stop-color="#604008" stop-opacity="0"/>
  </radialGradient>
  <radialGradient id="lSHL" cx="0.5" cy="0.5" r="0.55">
    <stop offset="0%" stop-color="#201005" stop-opacity="0"/>
    <stop offset="80%" stop-color="#201005" stop-opacity="0"/>
    <stop offset="94%" stop-color="#301808" stop-opacity="0.10"/>
    <stop offset="100%" stop-color="#100800" stop-opacity="0.18"/>
  </radialGradient>

  <!-- CORD -->
  <linearGradient id="cGL" x1="0" y1="0" x2="1" y2="1">
    <stop offset="0%" stop-color="#d8a830"/><stop offset="25%" stop-color="#a07818"/>
    <stop offset="50%" stop-color="#c09028"/><stop offset="75%" stop-color="#886818"/>
    <stop offset="100%" stop-color="#b08828"/>
  </linearGradient>
  <linearGradient id="cHLL" x1="0" y1="1" x2="1" y2="0">
    <stop offset="0%" stop-color="#fff0c0" stop-opacity="0.70"/>
    <stop offset="30%" stop-color="#e0c050" stop-opacity="0.35"/>
    <stop offset="60%" stop-color="#a07828" stop-opacity="0"/>
    <stop offset="100%" stop-color="#504010" stop-opacity="0"/>
  </linearGradient>
  <linearGradient id="cSHL" x1="0" y1="1" x2="1" y2="0">
    <stop offset="0%" stop-color="#201005" stop-opacity="0"/>
    <stop offset="50%" stop-color="#201005" stop-opacity="0"/>
    <stop offset="80%" stop-color="#180c04" stop-opacity="0.40"/>
    <stop offset="100%" stop-color="#0c0602" stop-opacity="0.50"/>
  </linearGradient>
  <pattern id="barkL" patternUnits="userSpaceOnUse" patternTransform="rotate(35)">
    <rect fill="none"/>
    <line x1="15" y1="0" x2="15" y2="100" stroke="#806018" stroke-width="3" opacity="0.18"/>
    <line x1="45" y1="0" x2="45" y2="100" stroke="#806018" stroke-width="2" opacity="0.10"/>
  </pattern>

  <radialGradient id="auraGL" cx="0.5" cy="0.53" r="0.55">
    <stop offset="0%" stop-color="#3060b0" stop-opacity="0.25"/>
    <stop offset="40%" stop-color="#204080" stop-opacity="0.15"/>
    <stop offset="70%" stop-color="#102050" stop-opacity="0.08"/>
    <stop offset="100%" stop-color="#081030" stop-opacity="0"/>
  </radialGradient>

  <!-- TEXT ARCS: full circle for more text, screen coords -->
  <path id="txtTopL" d="M 1354,2118 A 1068,1068 0 0,1 3490,2118" fill="none"/>
  <path id="txtBotL" d="M 1290,2118 A 1132,1132 0 1,0 3554,2118" fill="none"/>

  <style>
    @keyframes auraPulseL { 0%,100% { opacity: 0.5; } 50% { opacity: 0.85; } }
    @keyframes starTwinkleL { 0%,100% { opacity: 0.7; } 50% { opacity: 1.0; } }
    @keyframes ringPulseL { 0%,100% { opacity: 0.0; } 50% { opacity: 0.45; } }
    .auraL { animation: auraPulseL 4s ease-in-out infinite; }
    .bigStarL { animation: starTwinkleL 3s ease-in-out infinite; }
    .ringGlowL { animation: ringPulseL 3.5s ease-in-out infinite; }
  </style>
</defs>

<!-- ============ Y-FLIPPED CONTENT ============ -->
<g transform="translate(0,4860) scale(1,-1)">

  <circle cx="2500" cy="2588" r="2400" fill="url(#auraGL)" class="auraL"/>

  <g clip-path="url(#nebClipL)">
    <circle cx="2500" cy="2588" r="1600" fill="url(#nebL)"/>
    <circle cx="2754" cy="3706" r="28" fill="url(#sphSL)"/>
    <circle cx="2020" cy="3664" r="75" fill="#4060c0" opacity="0.2"/>
    <circle cx="2020" cy="3664" r="55" fill="url(#sphBL)" class="bigStarL"/>
    <circle cx="2560" cy="3656" r="28" fill="url(#sphSL)"/>
    <circle cx="2247" cy="3553" r="28" fill="url(#sphSL)"/>
    <circle cx="3047" cy="3493" r="28" fill="url(#sphSL)"/>
    <circle cx="2332" cy="3428" r="28" fill="url(#sphSL)"/>
    <circle cx="1834" cy="3315" r="28" fill="url(#sphSL)"/>
    <circle cx="2175" cy="3300" r="28" fill="url(#sphSL)"/>
    <circle cx="2010" cy="3284" r="28" fill="url(#sphSL)"/>
    <circle cx="3045" cy="3240" r="40" fill="url(#sphSL)"/>
    <circle cx="2555" cy="3181" r="75" fill="#4060c0" opacity="0.2"/>
    <circle cx="2555" cy="3181" r="55" fill="url(#sphBL)" class="bigStarL"/>
    <circle cx="3100" cy="3150" r="40" fill="url(#sphSL)"/>
    <circle cx="3326" cy="3137" r="40" fill="url(#sphSL)"/>
    <circle cx="2817" cy="3123" r="28" fill="url(#sphSL)"/>
    <circle cx="2945" cy="3100" r="28" fill="url(#sphSL)"/>
    <circle cx="2462" cy="3094" r="75" fill="#4060c0" opacity="0.2"/>
    <circle cx="2462" cy="3094" r="55" fill="url(#sphBL)" class="bigStarL"/>
    <circle cx="3030" cy="3031" r="28" fill="url(#sphSL)"/>
    <circle cx="1475" cy="3020" r="28" fill="url(#sphSL)"/>
    <circle cx="2415" cy="2991" r="28" fill="url(#sphSL)"/>
    <circle cx="2865" cy="2990" r="28" fill="url(#sphSL)"/>
    <circle cx="2743" cy="2973" r="28" fill="url(#sphSL)"/>
    <circle cx="3210" cy="2940" r="40" fill="url(#sphSL)"/>
    <circle cx="2870" cy="2907" r="40" fill="url(#sphSL)"/>
    <circle cx="2972" cy="2894" r="28" fill="url(#sphSL)"/>
    <circle cx="2077" cy="2865" r="105" fill="#4060c0" opacity="0.2"/>
    <circle cx="2077" cy="2865" r="85" fill="url(#sphBL)" class="bigStarL"/>
    <circle cx="3060" cy="2870" r="40" fill="url(#sphSL)"/>
    <circle cx="3342" cy="2868" r="28" fill="url(#sphSL)"/>
    <circle cx="1532" cy="2858" r="40" fill="url(#sphSL)"/>
    <circle cx="2840" cy="2780" r="28" fill="url(#sphSL)"/>
    <circle cx="2780" cy="2745" r="40" fill="url(#sphSL)"/>
    <circle cx="2400" cy="2735" r="28" fill="url(#sphSL)"/>
    <circle cx="1700" cy="2720" r="28" fill="url(#sphSL)"/>
    <circle cx="2631" cy="2726" r="28" fill="url(#sphSL)"/>
    <circle cx="2895" cy="2701" r="28" fill="url(#sphSL)"/>
    <circle cx="3272" cy="2646" r="28" fill="url(#sphSL)"/>
    <circle cx="2425" cy="2629" r="28" fill="url(#sphSL)"/>
    <circle cx="2253" cy="2614" r="28" fill="url(#sphSL)"/>
    <circle cx="2787" cy="2623" r="28" fill="url(#sphSL)"/>
    <circle cx="1454" cy="2579" r="28" fill="url(#sphSL)"/>
    <circle cx="2477" cy="2573" r="28" fill="url(#sphSL)"/>
    <circle cx="2645" cy="2547" r="28" fill="url(#sphSL)"/>
    <circle cx="3032" cy="2547" r="28" fill="url(#sphSL)"/>
    <circle cx="2751" cy="2514" r="75" fill="#4060c0" opacity="0.2"/>
    <circle cx="2751" cy="2514" r="55" fill="url(#sphBL)" class="bigStarL"/>
    <circle cx="2310" cy="2516" r="28" fill="url(#sphSL)"/>
    <circle cx="1784" cy="2509" r="28" fill="url(#sphSL)"/>
    <circle cx="1480" cy="2450" r="28" fill="url(#sphSL)"/>
    <circle cx="2730" cy="2431" r="75" fill="#4060c0" opacity="0.2"/>
    <circle cx="2730" cy="2431" r="55" fill="url(#sphBL)" class="bigStarL"/>
    <circle cx="1927" cy="2414" r="28" fill="url(#sphSL)"/>
    <circle cx="2010" cy="2405" r="28" fill="url(#sphSL)"/>
    <circle cx="2540" cy="2400" r="40" fill="url(#sphSL)"/>
    <circle cx="3310" cy="2391" r="28" fill="url(#sphSL)"/>
    <circle cx="2397" cy="2324" r="28" fill="url(#sphSL)"/>
    <circle cx="1736" cy="2294" r="28" fill="url(#sphSL)"/>
    <circle cx="1894" cy="2285" r="28" fill="url(#sphSL)"/>
    <circle cx="2107" cy="2294" r="28" fill="url(#sphSL)"/>
    <circle cx="1980" cy="2249" r="28" fill="url(#sphSL)"/>
    <circle cx="1517" cy="2234" r="28" fill="url(#sphSL)"/>
    <circle cx="2524" cy="2225" r="40" fill="url(#sphSL)"/>
    <circle cx="2148" cy="2219" r="40" fill="url(#sphSL)"/>
    <circle cx="2617" cy="2193" r="28" fill="url(#sphSL)"/>
    <circle cx="2540" cy="2151" r="28" fill="url(#sphSL)"/>
    <circle cx="3150" cy="2115" r="28" fill="url(#sphSL)"/>
    <circle cx="2030" cy="2090" r="40" fill="url(#sphSL)"/>
    <circle cx="1954" cy="2039" r="28" fill="url(#sphSL)"/>
    <circle cx="2622" cy="2028" r="28" fill="url(#sphSL)"/>
    <circle cx="2445" cy="2030" r="28" fill="url(#sphSL)"/>
    <circle cx="2035" cy="1990" r="28" fill="url(#sphSL)"/>
    <circle cx="2513" cy="1978" r="40" fill="url(#sphSL)"/>
    <circle cx="1820" cy="1915" r="40" fill="url(#sphSL)"/>
    <circle cx="2550" cy="1745" r="40" fill="url(#sphSL)"/>
  
    <!-- 4-pointed decorative stars -->
    <g>
      <!-- Large 4-point star - glow -->
      <path d="M 2050 2980 L 2075 3075 L 2170 3100 L 2075 3125 L 2050 3220 L 2025 3125 L 1930 3100 L 2025 3075 Z" fill="#8090c0" opacity="0.35" filter="url(#shBlurL)"/>
      <path d="M 2050 2980 L 2075 3075 L 2170 3100 L 2075 3125 L 2050 3220 L 2025 3125 L 1930 3100 L 2025 3075 Z" fill="#d0e0ff"/>
      <path d="M 2050 2980 L 2075 3075 L 2170 3100 L 2075 3125 L 2050 3220 L 2025 3125 L 1930 3100 L 2025 3075 Z" fill="#ffffff" opacity="0.6" transform="translate(2050,3100) scale(0.4) translate(-2050,-3100)"/>
      
      <!-- Medium 4-point star - glow -->
      <path d="M 2900 2425 L 2916 2484 L 2975 2500 L 2916 2516 L 2900 2575 L 2884 2516 L 2825 2500 L 2884 2484 Z" fill="#8090c0" opacity="0.30" filter="url(#shBlurL)"/>
      <path d="M 2900 2425 L 2916 2484 L 2975 2500 L 2916 2516 L 2900 2575 L 2884 2516 L 2825 2500 L 2884 2484 Z" fill="#c8d8ff"/>
      <path d="M 2900 2425 L 2916 2484 L 2975 2500 L 2916 2516 L 2900 2575 L 2884 2516 L 2825 2500 L 2884 2484 Z" fill="#ffffff" opacity="0.6" transform="translate(2900,2500) scale(0.4) translate(-2900,-2500)"/>
      
      <!-- Small 4-point star - glow -->
      <path d="M 2650 3305 L 2659 3341 L 2695 3350 L 2659 3359 L 2650 3395 L 2641 3359 L 2605 3350 L 2641 3341 Z" fill="#8090c0" opacity="0.25" filter="url(#shBlurL)"/>
      <path d="M 2650 3305 L 2659 3341 L 2695 3350 L 2659 3359 L 2650 3395 L 2641 3359 L 2605 3350 L 2641 3341 Z" fill="#c0d4ff"/>
      <path d="M 2650 3305 L 2659 3341 L 2695 3350 L 2659 3359 L 2650 3395 L 2641 3359 L 2605 3350 L 2641 3341 Z" fill="#ffffff" opacity="0.6" transform="translate(2650,3350) scale(0.4) translate(-2650,-3350)"/>
    </g>
  </g>

  <!-- ===== PULSING RING GLOW ===== -->
  <circle cx="2422" cy="2742" r="1100" fill="none" stroke="#8090c0" stroke-width="270" opacity="0" class="ringGlowL" filter="url(#ringGlowL)"/>

  <!-- ===== THICK RING BAND ===== -->
  <circle cx="2422" cy="2742" r="1100" fill="none" stroke="url(#rBandL)" stroke-width="190"/>

  <!-- Ring detail layer -->
  <g>
    <path d="M2309 3936 c-2 -2 -42 -10 -89 -16 -47 -6 -89 -16 -94 -21 -6 -5 -20 -9 -33 -9 -12 0 -39 -7 -60 -16 -89 -38 -105 -45 -140 -61 -45 -21 -136 -74 -143 -84 -3 -3 -23 -17 -45 -31 -65 -41 -219 -203 -278 -291 -65 -98 -117 -194 -117 -216 0 -9 -7 -25 -15 -35 -8 -11 -15 -29 -15 -41 0 -11 -6 -29 -14 -40 -7 -11 -16 -40 -19 -65 -3 -25 -10 -65 -16 -90 -13 -58 -13 -301 0 -360 6 -25 14 -69 19 -99 5 -29 13 -58 19 -64 6 -6 11 -23 11 -38 0 -15 6 -40 14 -56 8 -15 30 -62 50 -103 59 -123 114 -199 231 -317 164 -164 298 -243 530 -313 17 -4 67 -16 113 -25 101 -20 350 -16 457 8 118 27 173 42 181 50 4 4 15 7 24 7 10 0 23 7 30 15 7 8 23 15 36 15 12 0 25 4 28 9 3 5 25 19 48 31 69 35 187 128 266 209 123 125 238 317 281 471 7 25 17 55 22 68 33 83 46 406 22 525 -27 134 -110 338 -171 425 -12 16 -22 34 -22 39 0 5 -13 22 -30 38 -16 16 -30 34 -30 40 0 22 -235 239 -280 258 -8 4 -37 21 -65 37 -27 16 -57 33 -65 36 -8 3 -23 10 -32 15 -19 9 -107 39 -173 58 -76 21 -235 41 -333 41 -54 0 -101 -2 -103 -4z m296 -124 c39 -4 80 -13 92 -20 12 -7 33 -12 47 -12 13 0 37 -6 53 -14 168 -81 210 -104 262 -142 121 -88 244 -220 308 -329 29 -49 83 -167 83 -180 0 -7 4 -16 9 -19 5 -4 12 -25 16 -49 4 -23 11 -49 15 -57 5 -8 14 -69 20 -135 13 -118 3 -295 -20 -380 -35 -128 -46 -163 -59 -185 -4 -8 -15 -28 -24 -45 -36 -71 -52 -100 -57 -105 -3 -3 -17 -24 -32 -46 -42 -66 -197 -216 -273 -266 -83 -54 -183 -108 -201 -108 -7 0 -25 -6 -41 -14 -38 -19 -119 -43 -168 -50 -22 -3 -62 -10 -90 -15 -64 -12 -176 -12 -240 0 -27 5 -75 13 -105 18 -73 11 -119 28 -250 91 -76 36 -87 43 -159 94 -147 106 -278 262 -350 421 -31 69 -81 222 -81 249 0 14 -7 51 -15 83 -17 66 -20 222 -5 273 6 19 15 62 19 95 8 54 16 82 42 150 24 64 78 169 118 230 53 81 43 70 146 175 94 96 245 200 290 200 7 0 18 7 25 15 7 8 22 15 34 15 12 0 31 7 42 15 10 8 33 15 49 15 17 0 41 7 55 15 14 8 52 15 85 16 33 0 71 5 85 9 27 10 161 6 275 -8z" fill="#08080c" transform="translate(30,-30)" opacity="0.5" filter="url(#shBlurL)"/>
    <path d="M2309 3936 c-2 -2 -42 -10 -89 -16 -47 -6 -89 -16 -94 -21 -6 -5 -20 -9 -33 -9 -12 0 -39 -7 -60 -16 -89 -38 -105 -45 -140 -61 -45 -21 -136 -74 -143 -84 -3 -3 -23 -17 -45 -31 -65 -41 -219 -203 -278 -291 -65 -98 -117 -194 -117 -216 0 -9 -7 -25 -15 -35 -8 -11 -15 -29 -15 -41 0 -11 -6 -29 -14 -40 -7 -11 -16 -40 -19 -65 -3 -25 -10 -65 -16 -90 -13 -58 -13 -301 0 -360 6 -25 14 -69 19 -99 5 -29 13 -58 19 -64 6 -6 11 -23 11 -38 0 -15 6 -40 14 -56 8 -15 30 -62 50 -103 59 -123 114 -199 231 -317 164 -164 298 -243 530 -313 17 -4 67 -16 113 -25 101 -20 350 -16 457 8 118 27 173 42 181 50 4 4 15 7 24 7 10 0 23 7 30 15 7 8 23 15 36 15 12 0 25 4 28 9 3 5 25 19 48 31 69 35 187 128 266 209 123 125 238 317 281 471 7 25 17 55 22 68 33 83 46 406 22 525 -27 134 -110 338 -171 425 -12 16 -22 34 -22 39 0 5 -13 22 -30 38 -16 16 -30 34 -30 40 0 22 -235 239 -280 258 -8 4 -37 21 -65 37 -27 16 -57 33 -65 36 -8 3 -23 10 -32 15 -19 9 -107 39 -173 58 -76 21 -235 41 -333 41 -54 0 -101 -2 -103 -4z m296 -124 c39 -4 80 -13 92 -20 12 -7 33 -12 47 -12 13 0 37 -6 53 -14 168 -81 210 -104 262 -142 121 -88 244 -220 308 -329 29 -49 83 -167 83 -180 0 -7 4 -16 9 -19 5 -4 12 -25 16 -49 4 -23 11 -49 15 -57 5 -8 14 -69 20 -135 13 -118 3 -295 -20 -380 -35 -128 -46 -163 -59 -185 -4 -8 -15 -28 -24 -45 -36 -71 -52 -100 -57 -105 -3 -3 -17 -24 -32 -46 -42 -66 -197 -216 -273 -266 -83 -54 -183 -108 -201 -108 -7 0 -25 -6 -41 -14 -38 -19 -119 -43 -168 -50 -22 -3 -62 -10 -90 -15 -64 -12 -176 -12 -240 0 -27 5 -75 13 -105 18 -73 11 -119 28 -250 91 -76 36 -87 43 -159 94 -147 106 -278 262 -350 421 -31 69 -81 222 -81 249 0 14 -7 51 -15 83 -17 66 -20 222 -5 273 6 19 15 62 19 95 8 54 16 82 42 150 24 64 78 169 118 230 53 81 43 70 146 175 94 96 245 200 290 200 7 0 18 7 25 15 7 8 22 15 34 15 12 0 31 7 42 15 10 8 33 15 49 15 17 0 41 7 55 15 14 8 52 15 85 16 33 0 71 5 85 9 27 10 161 6 275 -8z" fill="url(#rTubeL)"/>
    <path d="M2309 3936 c-2 -2 -42 -10 -89 -16 -47 -6 -89 -16 -94 -21 -6 -5 -20 -9 -33 -9 -12 0 -39 -7 -60 -16 -89 -38 -105 -45 -140 -61 -45 -21 -136 -74 -143 -84 -3 -3 -23 -17 -45 -31 -65 -41 -219 -203 -278 -291 -65 -98 -117 -194 -117 -216 0 -9 -7 -25 -15 -35 -8 -11 -15 -29 -15 -41 0 -11 -6 -29 -14 -40 -7 -11 -16 -40 -19 -65 -3 -25 -10 -65 -16 -90 -13 -58 -13 -301 0 -360 6 -25 14 -69 19 -99 5 -29 13 -58 19 -64 6 -6 11 -23 11 -38 0 -15 6 -40 14 -56 8 -15 30 -62 50 -103 59 -123 114 -199 231 -317 164 -164 298 -243 530 -313 17 -4 67 -16 113 -25 101 -20 350 -16 457 8 118 27 173 42 181 50 4 4 15 7 24 7 10 0 23 7 30 15 7 8 23 15 36 15 12 0 25 4 28 9 3 5 25 19 48 31 69 35 187 128 266 209 123 125 238 317 281 471 7 25 17 55 22 68 33 83 46 406 22 525 -27 134 -110 338 -171 425 -12 16 -22 34 -22 39 0 5 -13 22 -30 38 -16 16 -30 34 -30 40 0 22 -235 239 -280 258 -8 4 -37 21 -65 37 -27 16 -57 33 -65 36 -8 3 -23 10 -32 15 -19 9 -107 39 -173 58 -76 21 -235 41 -333 41 -54 0 -101 -2 -103 -4z m296 -124 c39 -4 80 -13 92 -20 12 -7 33 -12 47 -12 13 0 37 -6 53 -14 168 -81 210 -104 262 -142 121 -88 244 -220 308 -329 29 -49 83 -167 83 -180 0 -7 4 -16 9 -19 5 -4 12 -25 16 -49 4 -23 11 -49 15 -57 5 -8 14 -69 20 -135 13 -118 3 -295 -20 -380 -35 -128 -46 -163 -59 -185 -4 -8 -15 -28 -24 -45 -36 -71 -52 -100 -57 -105 -3 -3 -17 -24 -32 -46 -42 -66 -197 -216 -273 -266 -83 -54 -183 -108 -201 -108 -7 0 -25 -6 -41 -14 -38 -19 -119 -43 -168 -50 -22 -3 -62 -10 -90 -15 -64 -12 -176 -12 -240 0 -27 5 -75 13 -105 18 -73 11 -119 28 -250 91 -76 36 -87 43 -159 94 -147 106 -278 262 -350 421 -31 69 -81 222 -81 249 0 14 -7 51 -15 83 -17 66 -20 222 -5 273 6 19 15 62 19 95 8 54 16 82 42 150 24 64 78 169 118 230 53 81 43 70 146 175 94 96 245 200 290 200 7 0 18 7 25 15 7 8 22 15 34 15 12 0 31 7 42 15 10 8 33 15 49 15 17 0 41 7 55 15 14 8 52 15 85 16 33 0 71 5 85 9 27 10 161 6 275 -8z" fill="url(#rDirL)"/>
    <path d="M2309 3936 c-2 -2 -42 -10 -89 -16 -47 -6 -89 -16 -94 -21 -6 -5 -20 -9 -33 -9 -12 0 -39 -7 -60 -16 -89 -38 -105 -45 -140 -61 -45 -21 -136 -74 -143 -84 -3 -3 -23 -17 -45 -31 -65 -41 -219 -203 -278 -291 -65 -98 -117 -194 -117 -216 0 -9 -7 -25 -15 -35 -8 -11 -15 -29 -15 -41 0 -11 -6 -29 -14 -40 -7 -11 -16 -40 -19 -65 -3 -25 -10 -65 -16 -90 -13 -58 -13 -301 0 -360 6 -25 14 -69 19 -99 5 -29 13 -58 19 -64 6 -6 11 -23 11 -38 0 -15 6 -40 14 -56 8 -15 30 -62 50 -103 59 -123 114 -199 231 -317 164 -164 298 -243 530 -313 17 -4 67 -16 113 -25 101 -20 350 -16 457 8 118 27 173 42 181 50 4 4 15 7 24 7 10 0 23 7 30 15 7 8 23 15 36 15 12 0 25 4 28 9 3 5 25 19 48 31 69 35 187 128 266 209 123 125 238 317 281 471 7 25 17 55 22 68 33 83 46 406 22 525 -27 134 -110 338 -171 425 -12 16 -22 34 -22 39 0 5 -13 22 -30 38 -16 16 -30 34 -30 40 0 22 -235 239 -280 258 -8 4 -37 21 -65 37 -27 16 -57 33 -65 36 -8 3 -23 10 -32 15 -19 9 -107 39 -173 58 -76 21 -235 41 -333 41 -54 0 -101 -2 -103 -4z m296 -124 c39 -4 80 -13 92 -20 12 -7 33 -12 47 -12 13 0 37 -6 53 -14 168 -81 210 -104 262 -142 121 -88 244 -220 308 -329 29 -49 83 -167 83 -180 0 -7 4 -16 9 -19 5 -4 12 -25 16 -49 4 -23 11 -49 15 -57 5 -8 14 -69 20 -135 13 -118 3 -295 -20 -380 -35 -128 -46 -163 -59 -185 -4 -8 -15 -28 -24 -45 -36 -71 -52 -100 -57 -105 -3 -3 -17 -24 -32 -46 -42 -66 -197 -216 -273 -266 -83 -54 -183 -108 -201 -108 -7 0 -25 -6 -41 -14 -38 -19 -119 -43 -168 -50 -22 -3 -62 -10 -90 -15 -64 -12 -176 -12 -240 0 -27 5 -75 13 -105 18 -73 11 -119 28 -250 91 -76 36 -87 43 -159 94 -147 106 -278 262 -350 421 -31 69 -81 222 -81 249 0 14 -7 51 -15 83 -17 66 -20 222 -5 273 6 19 15 62 19 95 8 54 16 82 42 150 24 64 78 169 118 230 53 81 43 70 146 175 94 96 245 200 290 200 7 0 18 7 25 15 7 8 22 15 34 15 12 0 31 7 42 15 10 8 33 15 49 15 17 0 41 7 55 15 14 8 52 15 85 16 33 0 71 5 85 9 27 10 161 6 275 -8z" fill="url(#rSpecL)"/>
    <rect x="500" y="500" fill="url(#ridgesL)" clip-path="url(#rClipL)"/>
  </g>

  <!-- Ring borders -->
  <circle cx="2422" cy="2742" r="1185" fill="none" stroke="#1a1a28" stroke-width="30" opacity="0.85"/>
  <circle cx="2422" cy="2742" r="1198" fill="none" stroke="#d0d0e8" stroke-width="14" opacity="0.80"/>
  <circle cx="2422" cy="2742" r="1206" fill="none" stroke="#f0f0ff" stroke-width="5" opacity="0.85"/>
  <circle cx="2422" cy="2742" r="1015" fill="none" stroke="#1a1a28" stroke-width="30" opacity="0.85"/>
  <circle cx="2422" cy="2742" r="1002" fill="none" stroke="#d0d0e8" stroke-width="14" opacity="0.75"/>
  <circle cx="2422" cy="2742" r="994" fill="none" stroke="#f0f0ff" stroke-width="5" opacity="0.80"/>
  <circle cx="2422" cy="2742" r="1100" fill="none" stroke="#080810" stroke-width="18" opacity="0.50"/>
  <circle cx="2422" cy="2742" r="1112" fill="none" stroke="#c8c8e0" stroke-width="3" opacity="0.35"/>
  <circle cx="2422" cy="2742" r="1088" fill="none" stroke="#c8c8e0" stroke-width="3" opacity="0.30"/>

  <!-- ===== LEAVES (individually colored) ===== -->
  <g>
    <!-- Drop shadow for all leaves -->
    <path d="M1605 3891 c-17 -4 -56 -24 -88 -44 -64 -41 -77 -45 -77 -21 0 31 -62 6 -108 -43 -47 -51 -67 -90 -88 -173 -19 -79 -19 -80 25 -80 37 0 99 27 166 72 39 27 165 157 176 183 5 11 13 27 17 35 26 45 32 62 27 70 -7 11 -7 11 -50 1z M3230 3879 c0 -6 20 -42 46 -80 45 -69 135 -158 209 -208 63 -43 159 -65 167 -39 12 34 -54 177 -107 235 -43 46 -95 68 -95 39 0 -23 -18 -20 -56 9 -18 14 -37 25 -42 25 -5 0 -15 7 -22 15 -15 18 -100 21 -100 4z M1155 3648 c-39 -45 -95 -151 -95 -180 0 -9 -5 -29 -11 -45 -8 -22 -12 -24 -19 -13 -6 8 -10 30 -10 48 0 24 -4 32 -18 32 -55 0 -111 -175 -98 -302 15 -141 18 -158 26 -158 4 0 13 -13 19 -30 18 -52 46 -40 143 58 128 129 143 190 32 138 -77 -36 -88 -33 -92 29 l-2 50 19 -25 19 -24 37 19 c90 48 267 228 250 255 -7 12 -63 2 -93 -17 -13 -8 -33 -13 -45 -11 -30 4 -35 65 -11 134 17 50 15 84 -5 84 -5 0 -26 -19 -46 -42z M3670 3665 c0 -15 7 -39 16 -56 9 -19 14 -49 12 -82 -3 -45 -6 -52 -25 -55 -13 -2 -33 4 -45 12 -29 20 -78 21 -78 2 0 -20 100 -137 147 -173 52 -39 123 -76 131 -69 3 4 6 52 5 107 -3 132 -35 225 -105 302 -40 43 -58 47 -58 12z M3875 3489 c-4 -6 -9 -74 -11 -152 -5 -164 -11 -178 -66 -157 -18 7 -40 19 -49 27 -8 7 -23 13 -32 13 -21 0 -23 -45 -3 -66 8 -7 16 -17 18 -21 2 -5 40 -43 85 -86 56 -53 86 -75 97 -71 9 3 26 27 38 53 19 40 21 64 22 187 0 117 -3 145 -17 167 -9 15 -17 33 -17 42 0 17 -39 75 -51 75 -4 0 -11 -5 -14 -11z M794 3219 c-28 -63 -25 -224 5 -304 46 -122 113 -225 146 -225 12 0 50 36 96 90 47 56 99 184 81 202 -8 8 -15 8 -24 1 -28 -23 -110 -63 -127 -63 -28 0 -89 135 -115 255 -9 43 -27 85 -36 85 -4 0 -15 -19 -26 -41z M4042 3225 c-7 -14 -12 -35 -12 -47 0 -21 -24 -100 -47 -155 -7 -17 -13 -35 -13 -40 0 -11 -49 -63 -59 -63 -10 0 -41 16 -91 48 -47 30 -60 28 -60 -8 0 -19 20 -63 55 -119 62 -98 99 -141 124 -141 26 0 111 103 111 133 0 8 7 20 15 27 8 7 15 24 15 39 0 15 7 37 16 49 12 18 14 43 11 125 -6 146 -36 216 -65 152z M4160 2938 c-11 -18 -20 -36 -20 -40 0 -11 -62 -142 -70 -148 -3 -3 -10 -12 -14 -20 -28 -60 -95 -130 -124 -130 -8 0 -41 25 -74 56 -75 68 -91 62 -64 -24 23 -73 69 -169 100 -207 l24 -29 46 24 c26 13 74 50 108 82 33 33 63 57 66 54 3 -3 -3 -16 -14 -28 -22 -26 -24 -29 -64 -85 -39 -56 -138 -133 -170 -133 -22 0 -31 10 -59 70 -36 75 -54 96 -72 85 -14 -9 -8 -167 8 -187 6 -7 13 -26 16 -43 3 -16 12 -48 20 -70 18 -48 37 -53 109 -29 172 57 276 187 317 394 27 140 22 176 -18 123 -11 -16 -24 -32 -29 -38 -4 -5 -11 -18 -15 -27 -3 -10 -11 -18 -17 -18 -11 0 -14 33 -4 43 22 22 45 124 50 228 8 129 -1 153 -36 97z M679 2953 c-11 -92 1 -184 43 -311 11 -35 18 -66 14 -69 -3 -4 -6 0 -6 8 0 8 -8 22 -17 31 -10 9 -26 28 -36 42 -10 15 -22 24 -28 21 -15 -10 -11 -130 6 -161 8 -16 15 -39 15 -50 0 -12 11 -46 24 -76 53 -119 118 -189 226 -240 119 -57 141 -52 168 34 41 131 54 276 24 286 -7 2 -22 -18 -37 -51 -25 -54 -68 -107 -88 -107 -5 0 -35 19 -67 43 -58 42 -108 102 -96 114 3 3 6 1 6 -5 0 -7 7 -12 14 -12 8 0 35 -13 59 -30 25 -16 52 -30 61 -30 30 0 99 128 131 242 27 96 6 102 -71 23 -30 -30 -60 -55 -68 -55 -32 0 -144 150 -210 283 -21 42 -45 77 -52 77 -8 0 -14 -3 -15 -7z M696 2261 c-9 -15 3 -57 36 -126 50 -103 56 -111 122 -173 90 -84 137 -106 261 -121 95 -12 99 -9 114 104 14 101 5 209 -22 264 -17 35 -29 29 -51 -26 -10 -26 -28 -71 -39 -100 -12 -31 -28 -53 -39 -56 -19 -5 -129 29 -138 43 -3 4 -14 10 -25 14 -19 6 -70 50 -171 148 -25 23 -44 36 -48 29z M4115 2204 c-84 -78 -160 -137 -190 -148 -5 -1 -26 -9 -45 -16 -74 -26 -85 -25 -108 15 -12 20 -22 44 -22 54 0 9 -7 26 -15 37 -8 10 -15 36 -15 57 0 38 -18 50 -37 25 -43 -56 -36 -353 9 -382 13 -7 40 -5 104 8 80 16 101 23 144 48 8 4 24 12 35 17 25 11 122 110 140 142 60 106 91 199 68 199 -5 0 -35 -25 -68 -56z M1310 1938 c-1 -18 -7 -44 -15 -58 -8 -14 -14 -34 -15 -46 0 -11 -9 -29 -21 -40 -18 -16 -34 -18 -107 -16 -47 2 -93 7 -101 12 -27 14 -104 16 -108 3 -7 -20 73 -98 129 -125 85 -41 118 -49 214 -55 88 -5 92 -5 104 17 15 28 4 231 -15 275 -7 17 -15 38 -19 48 -3 9 -15 17 -26 17 -16 0 -20 -7 -20 -32z M3546 1963 c-18 -18 -38 -84 -50 -168 -15 -97 -12 -148 10 -165 24 -21 241 3 266 28 7 7 19 12 28 12 22 1 140 98 140 115 0 17 -51 21 -79 6 -24 -14 -181 -23 -215 -13 -31 8 -43 37 -64 146 -7 39 -21 54 -36 39z" fill="#1a0c04" transform="translate(25,-25)" opacity="0.35" filter="url(#shBlurL)"/>
    <!-- Leaf 0 -->
    <path d="M1605 3891 c-17 -4 -56 -24 -88 -44 -64 -41 -77 -45 -77 -21 0 31 -62 6 -108 -43 -47 -51 -67 -90 -88 -173 -19 -79 -19 -80 25 -80 37 0 99 27 166 72 39 27 165 157 176 183 5 11 13 27 17 35 26 45 32 62 27 70 -7 11 -7 11 -50 1z" fill="#ffd830"/>
    <path d="M1605 3891 c-17 -4 -56 -24 -88 -44 -64 -41 -77 -45 -77 -21 0 31 -62 6 -108 -43 -47 -51 -67 -90 -88 -173 -19 -79 -19 -80 25 -80 37 0 99 27 166 72 39 27 165 157 176 183 5 11 13 27 17 35 26 45 32 62 27 70 -7 11 -7 11 -50 1z" fill="url(#lG2L)"/>
    <path d="M1605 3891 c-17 -4 -56 -24 -88 -44 -64 -41 -77 -45 -77 -21 0 31 -62 6 -108 -43 -47 -51 -67 -90 -88 -173 -19 -79 -19 -80 25 -80 37 0 99 27 166 72 39 27 165 157 176 183 5 11 13 27 17 35 26 45 32 62 27 70 -7 11 -7 11 -50 1z" fill="url(#lHLL)"/>
    <path d="M1605 3891 c-17 -4 -56 -24 -88 -44 -64 -41 -77 -45 -77 -21 0 31 -62 6 -108 -43 -47 -51 -67 -90 -88 -173 -19 -79 -19 -80 25 -80 37 0 99 27 166 72 39 27 165 157 176 183 5 11 13 27 17 35 26 45 32 62 27 70 -7 11 -7 11 -50 1z" fill="url(#lSHL)"/>
    <path d="M1605 3891 c-17 -4 -56 -24 -88 -44 -64 -41 -77 -45 -77 -21 0 31 -62 6 -108 -43 -47 -51 -67 -90 -88 -173 -19 -79 -19 -80 25 -80 37 0 99 27 166 72 39 27 165 157 176 183 5 11 13 27 17 35 26 45 32 62 27 70 -7 11 -7 11 -50 1z" fill="none" stroke="#805818" stroke-width="26" opacity="0.72"/>
    <path d="M1605 3891 c-17 -4 -56 -24 -88 -44 -64 -41 -77 -45 -77 -21 0 31 -62 6 -108 -43 -47 -51 -67 -90 -88 -173 -19 -79 -19 -80 25 -80 37 0 99 27 166 72 39 27 165 157 176 183 5 11 13 27 17 35 26 45 32 62 27 70 -7 11 -7 11 -50 1z" fill="none" stroke="#fff080" stroke-width="5" opacity="0.30"/>
    <path d="M1605 3891 c-17 -4 -56 -24 -88 -44 -64 -41 -77 -45 -77 -21 0 31 -62 6 -108 -43 -47 -51 -67 -90 -88 -173 -19 -79 -19 -80 25 -80 37 0 99 27 166 72 39 27 165 157 176 183 5 11 13 27 17 35 26 45 32 62 27 70 -7 11 -7 11 -50 1z" fill="none" stroke="#805818" stroke-width="9" opacity="0.40"/>
    <!-- Leaf 1 -->
    <path d="M3230 3879 c0 -6 20 -42 46 -80 45 -69 135 -158 209 -208 63 -43 159 -65 167 -39 12 34 -54 177 -107 235 -43 46 -95 68 -95 39 0 -23 -18 -20 -56 9 -18 14 -37 25 -42 25 -5 0 -15 7 -22 15 -15 18 -100 21 -100 4z" fill="#e8c028"/>
    <path d="M3230 3879 c0 -6 20 -42 46 -80 45 -69 135 -158 209 -208 63 -43 159 -65 167 -39 12 34 -54 177 -107 235 -43 46 -95 68 -95 39 0 -23 -18 -20 -56 9 -18 14 -37 25 -42 25 -5 0 -15 7 -22 15 -15 18 -100 21 -100 4z" fill="url(#lG2L)"/>
    <path d="M3230 3879 c0 -6 20 -42 46 -80 45 -69 135 -158 209 -208 63 -43 159 -65 167 -39 12 34 -54 177 -107 235 -43 46 -95 68 -95 39 0 -23 -18 -20 -56 9 -18 14 -37 25 -42 25 -5 0 -15 7 -22 15 -15 18 -100 21 -100 4z" fill="url(#lHLL)"/>
    <path d="M3230 3879 c0 -6 20 -42 46 -80 45 -69 135 -158 209 -208 63 -43 159 -65 167 -39 12 34 -54 177 -107 235 -43 46 -95 68 -95 39 0 -23 -18 -20 -56 9 -18 14 -37 25 -42 25 -5 0 -15 7 -22 15 -15 18 -100 21 -100 4z" fill="url(#lSHL)"/>
    <path d="M3230 3879 c0 -6 20 -42 46 -80 45 -69 135 -158 209 -208 63 -43 159 -65 167 -39 12 34 -54 177 -107 235 -43 46 -95 68 -95 39 0 -23 -18 -20 -56 9 -18 14 -37 25 -42 25 -5 0 -15 7 -22 15 -15 18 -100 21 -100 4z" fill="none" stroke="#705010" stroke-width="26" opacity="0.72"/>
    <path d="M3230 3879 c0 -6 20 -42 46 -80 45 -69 135 -158 209 -208 63 -43 159 -65 167 -39 12 34 -54 177 -107 235 -43 46 -95 68 -95 39 0 -23 -18 -20 -56 9 -18 14 -37 25 -42 25 -5 0 -15 7 -22 15 -15 18 -100 21 -100 4z" fill="none" stroke="#ffe868" stroke-width="5" opacity="0.30"/>
    <path d="M3230 3879 c0 -6 20 -42 46 -80 45 -69 135 -158 209 -208 63 -43 159 -65 167 -39 12 34 -54 177 -107 235 -43 46 -95 68 -95 39 0 -23 -18 -20 -56 9 -18 14 -37 25 -42 25 -5 0 -15 7 -22 15 -15 18 -100 21 -100 4z" fill="none" stroke="#705010" stroke-width="9" opacity="0.40"/>
    <!-- Leaf 2 -->
    <path d="M1155 3648 c-39 -45 -95 -151 -95 -180 0 -9 -5 -29 -11 -45 -8 -22 -12 -24 -19 -13 -6 8 -10 30 -10 48 0 24 -4 32 -18 32 -55 0 -111 -175 -98 -302 15 -141 18 -158 26 -158 4 0 13 -13 19 -30 18 -52 46 -40 143 58 128 129 143 190 32 138 -77 -36 -88 -33 -92 29 l-2 50 19 -25 19 -24 37 19 c90 48 267 228 250 255 -7 12 -63 2 -93 -17 -13 -8 -33 -13 -45 -11 -30 4 -35 65 -11 134 17 50 15 84 -5 84 -5 0 -26 -19 -46 -42z" fill="#ffe040"/>
    <path d="M1155 3648 c-39 -45 -95 -151 -95 -180 0 -9 -5 -29 -11 -45 -8 -22 -12 -24 -19 -13 -6 8 -10 30 -10 48 0 24 -4 32 -18 32 -55 0 -111 -175 -98 -302 15 -141 18 -158 26 -158 4 0 13 -13 19 -30 18 -52 46 -40 143 58 128 129 143 190 32 138 -77 -36 -88 -33 -92 29 l-2 50 19 -25 19 -24 37 19 c90 48 267 228 250 255 -7 12 -63 2 -93 -17 -13 -8 -33 -13 -45 -11 -30 4 -35 65 -11 134 17 50 15 84 -5 84 -5 0 -26 -19 -46 -42z" fill="url(#lG2L)"/>
    <path d="M1155 3648 c-39 -45 -95 -151 -95 -180 0 -9 -5 -29 -11 -45 -8 -22 -12 -24 -19 -13 -6 8 -10 30 -10 48 0 24 -4 32 -18 32 -55 0 -111 -175 -98 -302 15 -141 18 -158 26 -158 4 0 13 -13 19 -30 18 -52 46 -40 143 58 128 129 143 190 32 138 -77 -36 -88 -33 -92 29 l-2 50 19 -25 19 -24 37 19 c90 48 267 228 250 255 -7 12 -63 2 -93 -17 -13 -8 -33 -13 -45 -11 -30 4 -35 65 -11 134 17 50 15 84 -5 84 -5 0 -26 -19 -46 -42z" fill="url(#lHLL)"/>
    <path d="M1155 3648 c-39 -45 -95 -151 -95 -180 0 -9 -5 -29 -11 -45 -8 -22 -12 -24 -19 -13 -6 8 -10 30 -10 48 0 24 -4 32 -18 32 -55 0 -111 -175 -98 -302 15 -141 18 -158 26 -158 4 0 13 -13 19 -30 18 -52 46 -40 143 58 128 129 143 190 32 138 -77 -36 -88 -33 -92 29 l-2 50 19 -25 19 -24 37 19 c90 48 267 228 250 255 -7 12 -63 2 -93 -17 -13 -8 -33 -13 -45 -11 -30 4 -35 65 -11 134 17 50 15 84 -5 84 -5 0 -26 -19 -46 -42z" fill="url(#lSHL)"/>
    <path d="M1155 3648 c-39 -45 -95 -151 -95 -180 0 -9 -5 -29 -11 -45 -8 -22 -12 -24 -19 -13 -6 8 -10 30 -10 48 0 24 -4 32 -18 32 -55 0 -111 -175 -98 -302 15 -141 18 -158 26 -158 4 0 13 -13 19 -30 18 -52 46 -40 143 58 128 129 143 190 32 138 -77 -36 -88 -33 -92 29 l-2 50 19 -25 19 -24 37 19 c90 48 267 228 250 255 -7 12 -63 2 -93 -17 -13 -8 -33 -13 -45 -11 -30 4 -35 65 -11 134 17 50 15 84 -5 84 -5 0 -26 -19 -46 -42z" fill="none" stroke="#886018" stroke-width="26" opacity="0.72"/>
    <path d="M1155 3648 c-39 -45 -95 -151 -95 -180 0 -9 -5 -29 -11 -45 -8 -22 -12 -24 -19 -13 -6 8 -10 30 -10 48 0 24 -4 32 -18 32 -55 0 -111 -175 -98 -302 15 -141 18 -158 26 -158 4 0 13 -13 19 -30 18 -52 46 -40 143 58 128 129 143 190 32 138 -77 -36 -88 -33 -92 29 l-2 50 19 -25 19 -24 37 19 c90 48 267 228 250 255 -7 12 -63 2 -93 -17 -13 -8 -33 -13 -45 -11 -30 4 -35 65 -11 134 17 50 15 84 -5 84 -5 0 -26 -19 -46 -42z" fill="none" stroke="#fff890" stroke-width="5" opacity="0.30"/>
    <path d="M1155 3648 c-39 -45 -95 -151 -95 -180 0 -9 -5 -29 -11 -45 -8 -22 -12 -24 -19 -13 -6 8 -10 30 -10 48 0 24 -4 32 -18 32 -55 0 -111 -175 -98 -302 15 -141 18 -158 26 -158 4 0 13 -13 19 -30 18 -52 46 -40 143 58 128 129 143 190 32 138 -77 -36 -88 -33 -92 29 l-2 50 19 -25 19 -24 37 19 c90 48 267 228 250 255 -7 12 -63 2 -93 -17 -13 -8 -33 -13 -45 -11 -30 4 -35 65 -11 134 17 50 15 84 -5 84 -5 0 -26 -19 -46 -42z" fill="none" stroke="#886018" stroke-width="9" opacity="0.40"/>
    <!-- Leaf 3 -->
    <path d="M3670 3665 c0 -15 7 -39 16 -56 9 -19 14 -49 12 -82 -3 -45 -6 -52 -25 -55 -13 -2 -33 4 -45 12 -29 20 -78 21 -78 2 0 -20 100 -137 147 -173 52 -39 123 -76 131 -69 3 4 6 52 5 107 -3 132 -35 225 -105 302 -40 43 -58 47 -58 12z" fill="#d8b020"/>
    <path d="M3670 3665 c0 -15 7 -39 16 -56 9 -19 14 -49 12 -82 -3 -45 -6 -52 -25 -55 -13 -2 -33 4 -45 12 -29 20 -78 21 -78 2 0 -20 100 -137 147 -173 52 -39 123 -76 131 -69 3 4 6 52 5 107 -3 132 -35 225 -105 302 -40 43 -58 47 -58 12z" fill="url(#lG2L)"/>
    <path d="M3670 3665 c0 -15 7 -39 16 -56 9 -19 14 -49 12 -82 -3 -45 -6 -52 -25 -55 -13 -2 -33 4 -45 12 -29 20 -78 21 -78 2 0 -20 100 -137 147 -173 52 -39 123 -76 131 -69 3 4 6 52 5 107 -3 132 -35 225 -105 302 -40 43 -58 47 -58 12z" fill="url(#lHLL)"/>
    <path d="M3670 3665 c0 -15 7 -39 16 -56 9 -19 14 -49 12 -82 -3 -45 -6 -52 -25 -55 -13 -2 -33 4 -45 12 -29 20 -78 21 -78 2 0 -20 100 -137 147 -173 52 -39 123 -76 131 -69 3 4 6 52 5 107 -3 132 -35 225 -105 302 -40 43 -58 47 -58 12z" fill="url(#lSHL)"/>
    <path d="M3670 3665 c0 -15 7 -39 16 -56 9 -19 14 -49 12 -82 -3 -45 -6 -52 -25 -55 -13 -2 -33 4 -45 12 -29 20 -78 21 -78 2 0 -20 100 -137 147 -173 52 -39 123 -76 131 -69 3 4 6 52 5 107 -3 132 -35 225 -105 302 -40 43 -58 47 -58 12z" fill="none" stroke="#684810" stroke-width="26" opacity="0.72"/>
    <path d="M3670 3665 c0 -15 7 -39 16 -56 9 -19 14 -49 12 -82 -3 -45 -6 -52 -25 -55 -13 -2 -33 4 -45 12 -29 20 -78 21 -78 2 0 -20 100 -137 147 -173 52 -39 123 -76 131 -69 3 4 6 52 5 107 -3 132 -35 225 -105 302 -40 43 -58 47 -58 12z" fill="none" stroke="#f0d850" stroke-width="5" opacity="0.30"/>
    <path d="M3670 3665 c0 -15 7 -39 16 -56 9 -19 14 -49 12 -82 -3 -45 -6 -52 -25 -55 -13 -2 -33 4 -45 12 -29 20 -78 21 -78 2 0 -20 100 -137 147 -173 52 -39 123 -76 131 -69 3 4 6 52 5 107 -3 132 -35 225 -105 302 -40 43 -58 47 -58 12z" fill="none" stroke="#684810" stroke-width="9" opacity="0.40"/>
    <!-- Leaf 4 -->
    <path d="M3875 3489 c-4 -6 -9 -74 -11 -152 -5 -164 -11 -178 -66 -157 -18 7 -40 19 -49 27 -8 7 -23 13 -32 13 -21 0 -23 -45 -3 -66 8 -7 16 -17 18 -21 2 -5 40 -43 85 -86 56 -53 86 -75 97 -71 9 3 26 27 38 53 19 40 21 64 22 187 0 117 -3 145 -17 167 -9 15 -17 33 -17 42 0 17 -39 75 -51 75 -4 0 -11 -5 -14 -11z" fill="#f0c830"/>
    <path d="M3875 3489 c-4 -6 -9 -74 -11 -152 -5 -164 -11 -178 -66 -157 -18 7 -40 19 -49 27 -8 7 -23 13 -32 13 -21 0 -23 -45 -3 -66 8 -7 16 -17 18 -21 2 -5 40 -43 85 -86 56 -53 86 -75 97 -71 9 3 26 27 38 53 19 40 21 64 22 187 0 117 -3 145 -17 167 -9 15 -17 33 -17 42 0 17 -39 75 -51 75 -4 0 -11 -5 -14 -11z" fill="url(#lG2L)"/>
    <path d="M3875 3489 c-4 -6 -9 -74 -11 -152 -5 -164 -11 -178 -66 -157 -18 7 -40 19 -49 27 -8 7 -23 13 -32 13 -21 0 -23 -45 -3 -66 8 -7 16 -17 18 -21 2 -5 40 -43 85 -86 56 -53 86 -75 97 -71 9 3 26 27 38 53 19 40 21 64 22 187 0 117 -3 145 -17 167 -9 15 -17 33 -17 42 0 17 -39 75 -51 75 -4 0 -11 -5 -14 -11z" fill="url(#lHLL)"/>
    <path d="M3875 3489 c-4 -6 -9 -74 -11 -152 -5 -164 -11 -178 -66 -157 -18 7 -40 19 -49 27 -8 7 -23 13 -32 13 -21 0 -23 -45 -3 -66 8 -7 16 -17 18 -21 2 -5 40 -43 85 -86 56 -53 86 -75 97 -71 9 3 26 27 38 53 19 40 21 64 22 187 0 117 -3 145 -17 167 -9 15 -17 33 -17 42 0 17 -39 75 -51 75 -4 0 -11 -5 -14 -11z" fill="url(#lSHL)"/>
    <path d="M3875 3489 c-4 -6 -9 -74 -11 -152 -5 -164 -11 -178 -66 -157 -18 7 -40 19 -49 27 -8 7 -23 13 -32 13 -21 0 -23 -45 -3 -66 8 -7 16 -17 18 -21 2 -5 40 -43 85 -86 56 -53 86 -75 97 -71 9 3 26 27 38 53 19 40 21 64 22 187 0 117 -3 145 -17 167 -9 15 -17 33 -17 42 0 17 -39 75 -51 75 -4 0 -11 -5 -14 -11z" fill="none" stroke="#786010" stroke-width="26" opacity="0.72"/>
    <path d="M3875 3489 c-4 -6 -9 -74 -11 -152 -5 -164 -11 -178 -66 -157 -18 7 -40 19 -49 27 -8 7 -23 13 -32 13 -21 0 -23 -45 -3 -66 8 -7 16 -17 18 -21 2 -5 40 -43 85 -86 56 -53 86 -75 97 -71 9 3 26 27 38 53 19 40 21 64 22 187 0 117 -3 145 -17 167 -9 15 -17 33 -17 42 0 17 -39 75 -51 75 -4 0 -11 -5 -14 -11z" fill="none" stroke="#ffe070" stroke-width="5" opacity="0.30"/>
    <path d="M3875 3489 c-4 -6 -9 -74 -11 -152 -5 -164 -11 -178 -66 -157 -18 7 -40 19 -49 27 -8 7 -23 13 -32 13 -21 0 -23 -45 -3 -66 8 -7 16 -17 18 -21 2 -5 40 -43 85 -86 56 -53 86 -75 97 -71 9 3 26 27 38 53 19 40 21 64 22 187 0 117 -3 145 -17 167 -9 15 -17 33 -17 42 0 17 -39 75 -51 75 -4 0 -11 -5 -14 -11z" fill="none" stroke="#786010" stroke-width="9" opacity="0.40"/>
    <!-- Leaf 5 -->
    <path d="M794 3219 c-28 -63 -25 -224 5 -304 46 -122 113 -225 146 -225 12 0 50 36 96 90 47 56 99 184 81 202 -8 8 -15 8 -24 1 -28 -23 -110 -63 -127 -63 -28 0 -89 135 -115 255 -9 43 -27 85 -36 85 -4 0 -15 -19 -26 -41z" fill="#ffd038"/>
    <path d="M794 3219 c-28 -63 -25 -224 5 -304 46 -122 113 -225 146 -225 12 0 50 36 96 90 47 56 99 184 81 202 -8 8 -15 8 -24 1 -28 -23 -110 -63 -127 -63 -28 0 -89 135 -115 255 -9 43 -27 85 -36 85 -4 0 -15 -19 -26 -41z" fill="url(#lG2L)"/>
    <path d="M794 3219 c-28 -63 -25 -224 5 -304 46 -122 113 -225 146 -225 12 0 50 36 96 90 47 56 99 184 81 202 -8 8 -15 8 -24 1 -28 -23 -110 -63 -127 -63 -28 0 -89 135 -115 255 -9 43 -27 85 -36 85 -4 0 -15 -19 -26 -41z" fill="url(#lHLL)"/>
    <path d="M794 3219 c-28 -63 -25 -224 5 -304 46 -122 113 -225 146 -225 12 0 50 36 96 90 47 56 99 184 81 202 -8 8 -15 8 -24 1 -28 -23 -110 -63 -127 -63 -28 0 -89 135 -115 255 -9 43 -27 85 -36 85 -4 0 -15 -19 -26 -41z" fill="url(#lSHL)"/>
    <path d="M794 3219 c-28 -63 -25 -224 5 -304 46 -122 113 -225 146 -225 12 0 50 36 96 90 47 56 99 184 81 202 -8 8 -15 8 -24 1 -28 -23 -110 -63 -127 -63 -28 0 -89 135 -115 255 -9 43 -27 85 -36 85 -4 0 -15 -19 -26 -41z" fill="none" stroke="#805818" stroke-width="26" opacity="0.72"/>
    <path d="M794 3219 c-28 -63 -25 -224 5 -304 46 -122 113 -225 146 -225 12 0 50 36 96 90 47 56 99 184 81 202 -8 8 -15 8 -24 1 -28 -23 -110 -63 -127 -63 -28 0 -89 135 -115 255 -9 43 -27 85 -36 85 -4 0 -15 -19 -26 -41z" fill="none" stroke="#fff078" stroke-width="5" opacity="0.30"/>
    <path d="M794 3219 c-28 -63 -25 -224 5 -304 46 -122 113 -225 146 -225 12 0 50 36 96 90 47 56 99 184 81 202 -8 8 -15 8 -24 1 -28 -23 -110 -63 -127 -63 -28 0 -89 135 -115 255 -9 43 -27 85 -36 85 -4 0 -15 -19 -26 -41z" fill="none" stroke="#805818" stroke-width="9" opacity="0.40"/>
    <!-- Leaf 6 -->
    <path d="M4042 3225 c-7 -14 -12 -35 -12 -47 0 -21 -24 -100 -47 -155 -7 -17 -13 -35 -13 -40 0 -11 -49 -63 -59 -63 -10 0 -41 16 -91 48 -47 30 -60 28 -60 -8 0 -19 20 -63 55 -119 62 -98 99 -141 124 -141 26 0 111 103 111 133 0 8 7 20 15 27 8 7 15 24 15 39 0 15 7 37 16 49 12 18 14 43 11 125 -6 146 -36 216 -65 152z" fill="#e0b828"/>
    <path d="M4042 3225 c-7 -14 -12 -35 -12 -47 0 -21 -24 -100 -47 -155 -7 -17 -13 -35 -13 -40 0 -11 -49 -63 -59 -63 -10 0 -41 16 -91 48 -47 30 -60 28 -60 -8 0 -19 20 -63 55 -119 62 -98 99 -141 124 -141 26 0 111 103 111 133 0 8 7 20 15 27 8 7 15 24 15 39 0 15 7 37 16 49 12 18 14 43 11 125 -6 146 -36 216 -65 152z" fill="url(#lG2L)"/>
    <path d="M4042 3225 c-7 -14 -12 -35 -12 -47 0 -21 -24 -100 -47 -155 -7 -17 -13 -35 -13 -40 0 -11 -49 -63 -59 -63 -10 0 -41 16 -91 48 -47 30 -60 28 -60 -8 0 -19 20 -63 55 -119 62 -98 99 -141 124 -141 26 0 111 103 111 133 0 8 7 20 15 27 8 7 15 24 15 39 0 15 7 37 16 49 12 18 14 43 11 125 -6 146 -36 216 -65 152z" fill="url(#lHLL)"/>
    <path d="M4042 3225 c-7 -14 -12 -35 -12 -47 0 -21 -24 -100 -47 -155 -7 -17 -13 -35 -13 -40 0 -11 -49 -63 -59 -63 -10 0 -41 16 -91 48 -47 30 -60 28 -60 -8 0 -19 20 -63 55 -119 62 -98 99 -141 124 -141 26 0 111 103 111 133 0 8 7 20 15 27 8 7 15 24 15 39 0 15 7 37 16 49 12 18 14 43 11 125 -6 146 -36 216 -65 152z" fill="url(#lSHL)"/>
    <path d="M4042 3225 c-7 -14 -12 -35 -12 -47 0 -21 -24 -100 -47 -155 -7 -17 -13 -35 -13 -40 0 -11 -49 -63 -59 -63 -10 0 -41 16 -91 48 -47 30 -60 28 -60 -8 0 -19 20 -63 55 -119 62 -98 99 -141 124 -141 26 0 111 103 111 133 0 8 7 20 15 27 8 7 15 24 15 39 0 15 7 37 16 49 12 18 14 43 11 125 -6 146 -36 216 -65 152z" fill="none" stroke="#705010" stroke-width="26" opacity="0.72"/>
    <path d="M4042 3225 c-7 -14 -12 -35 -12 -47 0 -21 -24 -100 -47 -155 -7 -17 -13 -35 -13 -40 0 -11 -49 -63 -59 -63 -10 0 -41 16 -91 48 -47 30 -60 28 -60 -8 0 -19 20 -63 55 -119 62 -98 99 -141 124 -141 26 0 111 103 111 133 0 8 7 20 15 27 8 7 15 24 15 39 0 15 7 37 16 49 12 18 14 43 11 125 -6 146 -36 216 -65 152z" fill="none" stroke="#f8d858" stroke-width="5" opacity="0.30"/>
    <path d="M4042 3225 c-7 -14 -12 -35 -12 -47 0 -21 -24 -100 -47 -155 -7 -17 -13 -35 -13 -40 0 -11 -49 -63 -59 -63 -10 0 -41 16 -91 48 -47 30 -60 28 -60 -8 0 -19 20 -63 55 -119 62 -98 99 -141 124 -141 26 0 111 103 111 133 0 8 7 20 15 27 8 7 15 24 15 39 0 15 7 37 16 49 12 18 14 43 11 125 -6 146 -36 216 -65 152z" fill="none" stroke="#705010" stroke-width="9" opacity="0.40"/>
    <!-- Leaf 7 -->
    <path d="M4160 2938 c-11 -18 -20 -36 -20 -40 0 -11 -62 -142 -70 -148 -3 -3 -10 -12 -14 -20 -28 -60 -95 -130 -124 -130 -8 0 -41 25 -74 56 -75 68 -91 62 -64 -24 23 -73 69 -169 100 -207 l24 -29 46 24 c26 13 74 50 108 82 33 33 63 57 66 54 3 -3 -3 -16 -14 -28 -22 -26 -24 -29 -64 -85 -39 -56 -138 -133 -170 -133 -22 0 -31 10 -59 70 -36 75 -54 96 -72 85 -14 -9 -8 -167 8 -187 6 -7 13 -26 16 -43 3 -16 12 -48 20 -70 18 -48 37 -53 109 -29 172 57 276 187 317 394 27 140 22 176 -18 123 -11 -16 -24 -32 -29 -38 -4 -5 -11 -18 -15 -27 -3 -10 -11 -18 -17 -18 -11 0 -14 33 -4 43 22 22 45 124 50 228 8 129 -1 153 -36 97z" fill="#f8d040"/>
    <path d="M4160 2938 c-11 -18 -20 -36 -20 -40 0 -11 -62 -142 -70 -148 -3 -3 -10 -12 -14 -20 -28 -60 -95 -130 -124 -130 -8 0 -41 25 -74 56 -75 68 -91 62 -64 -24 23 -73 69 -169 100 -207 l24 -29 46 24 c26 13 74 50 108 82 33 33 63 57 66 54 3 -3 -3 -16 -14 -28 -22 -26 -24 -29 -64 -85 -39 -56 -138 -133 -170 -133 -22 0 -31 10 -59 70 -36 75 -54 96 -72 85 -14 -9 -8 -167 8 -187 6 -7 13 -26 16 -43 3 -16 12 -48 20 -70 18 -48 37 -53 109 -29 172 57 276 187 317 394 27 140 22 176 -18 123 -11 -16 -24 -32 -29 -38 -4 -5 -11 -18 -15 -27 -3 -10 -11 -18 -17 -18 -11 0 -14 33 -4 43 22 22 45 124 50 228 8 129 -1 153 -36 97z" fill="url(#lG2L)"/>
    <path d="M4160 2938 c-11 -18 -20 -36 -20 -40 0 -11 -62 -142 -70 -148 -3 -3 -10 -12 -14 -20 -28 -60 -95 -130 -124 -130 -8 0 -41 25 -74 56 -75 68 -91 62 -64 -24 23 -73 69 -169 100 -207 l24 -29 46 24 c26 13 74 50 108 82 33 33 63 57 66 54 3 -3 -3 -16 -14 -28 -22 -26 -24 -29 -64 -85 -39 -56 -138 -133 -170 -133 -22 0 -31 10 -59 70 -36 75 -54 96 -72 85 -14 -9 -8 -167 8 -187 6 -7 13 -26 16 -43 3 -16 12 -48 20 -70 18 -48 37 -53 109 -29 172 57 276 187 317 394 27 140 22 176 -18 123 -11 -16 -24 -32 -29 -38 -4 -5 -11 -18 -15 -27 -3 -10 -11 -18 -17 -18 -11 0 -14 33 -4 43 22 22 45 124 50 228 8 129 -1 153 -36 97z" fill="url(#lHLL)"/>
    <path d="M4160 2938 c-11 -18 -20 -36 -20 -40 0 -11 -62 -142 -70 -148 -3 -3 -10 -12 -14 -20 -28 -60 -95 -130 -124 -130 -8 0 -41 25 -74 56 -75 68 -91 62 -64 -24 23 -73 69 -169 100 -207 l24 -29 46 24 c26 13 74 50 108 82 33 33 63 57 66 54 3 -3 -3 -16 -14 -28 -22 -26 -24 -29 -64 -85 -39 -56 -138 -133 -170 -133 -22 0 -31 10 -59 70 -36 75 -54 96 -72 85 -14 -9 -8 -167 8 -187 6 -7 13 -26 16 -43 3 -16 12 -48 20 -70 18 -48 37 -53 109 -29 172 57 276 187 317 394 27 140 22 176 -18 123 -11 -16 -24 -32 -29 -38 -4 -5 -11 -18 -15 -27 -3 -10 -11 -18 -17 -18 -11 0 -14 33 -4 43 22 22 45 124 50 228 8 129 -1 153 -36 97z" fill="url(#lSHL)"/>
    <path d="M4160 2938 c-11 -18 -20 -36 -20 -40 0 -11 -62 -142 -70 -148 -3 -3 -10 -12 -14 -20 -28 -60 -95 -130 -124 -130 -8 0 -41 25 -74 56 -75 68 -91 62 -64 -24 23 -73 69 -169 100 -207 l24 -29 46 24 c26 13 74 50 108 82 33 33 63 57 66 54 3 -3 -3 -16 -14 -28 -22 -26 -24 -29 -64 -85 -39 -56 -138 -133 -170 -133 -22 0 -31 10 -59 70 -36 75 -54 96 -72 85 -14 -9 -8 -167 8 -187 6 -7 13 -26 16 -43 3 -16 12 -48 20 -70 18 -48 37 -53 109 -29 172 57 276 187 317 394 27 140 22 176 -18 123 -11 -16 -24 -32 -29 -38 -4 -5 -11 -18 -15 -27 -3 -10 -11 -18 -17 -18 -11 0 -14 33 -4 43 22 22 45 124 50 228 8 129 -1 153 -36 97z" fill="none" stroke="#886818" stroke-width="26" opacity="0.72"/>
    <path d="M4160 2938 c-11 -18 -20 -36 -20 -40 0 -11 -62 -142 -70 -148 -3 -3 -10 -12 -14 -20 -28 -60 -95 -130 -124 -130 -8 0 -41 25 -74 56 -75 68 -91 62 -64 -24 23 -73 69 -169 100 -207 l24 -29 46 24 c26 13 74 50 108 82 33 33 63 57 66 54 3 -3 -3 -16 -14 -28 -22 -26 -24 -29 -64 -85 -39 -56 -138 -133 -170 -133 -22 0 -31 10 -59 70 -36 75 -54 96 -72 85 -14 -9 -8 -167 8 -187 6 -7 13 -26 16 -43 3 -16 12 -48 20 -70 18 -48 37 -53 109 -29 172 57 276 187 317 394 27 140 22 176 -18 123 -11 -16 -24 -32 -29 -38 -4 -5 -11 -18 -15 -27 -3 -10 -11 -18 -17 -18 -11 0 -14 33 -4 43 22 22 45 124 50 228 8 129 -1 153 -36 97z" fill="none" stroke="#ffec80" stroke-width="5" opacity="0.30"/>
    <path d="M4160 2938 c-11 -18 -20 -36 -20 -40 0 -11 -62 -142 -70 -148 -3 -3 -10 -12 -14 -20 -28 -60 -95 -130 -124 -130 -8 0 -41 25 -74 56 -75 68 -91 62 -64 -24 23 -73 69 -169 100 -207 l24 -29 46 24 c26 13 74 50 108 82 33 33 63 57 66 54 3 -3 -3 -16 -14 -28 -22 -26 -24 -29 -64 -85 -39 -56 -138 -133 -170 -133 -22 0 -31 10 -59 70 -36 75 -54 96 -72 85 -14 -9 -8 -167 8 -187 6 -7 13 -26 16 -43 3 -16 12 -48 20 -70 18 -48 37 -53 109 -29 172 57 276 187 317 394 27 140 22 176 -18 123 -11 -16 -24 -32 -29 -38 -4 -5 -11 -18 -15 -27 -3 -10 -11 -18 -17 -18 -11 0 -14 33 -4 43 22 22 45 124 50 228 8 129 -1 153 -36 97z" fill="none" stroke="#886818" stroke-width="9" opacity="0.40"/>
    <!-- Leaf 8 -->
    <path d="M679 2953 c-11 -92 1 -184 43 -311 11 -35 18 -66 14 -69 -3 -4 -6 0 -6 8 0 8 -8 22 -17 31 -10 9 -26 28 -36 42 -10 15 -22 24 -28 21 -15 -10 -11 -130 6 -161 8 -16 15 -39 15 -50 0 -12 11 -46 24 -76 53 -119 118 -189 226 -240 119 -57 141 -52 168 34 41 131 54 276 24 286 -7 2 -22 -18 -37 -51 -25 -54 -68 -107 -88 -107 -5 0 -35 19 -67 43 -58 42 -108 102 -96 114 3 3 6 1 6 -5 0 -7 7 -12 14 -12 8 0 35 -13 59 -30 25 -16 52 -30 61 -30 30 0 99 128 131 242 27 96 6 102 -71 23 -30 -30 -60 -55 -68 -55 -32 0 -144 150 -210 283 -21 42 -45 77 -52 77 -8 0 -14 -3 -15 -7z" fill="#ffe848"/>
    <path d="M679 2953 c-11 -92 1 -184 43 -311 11 -35 18 -66 14 -69 -3 -4 -6 0 -6 8 0 8 -8 22 -17 31 -10 9 -26 28 -36 42 -10 15 -22 24 -28 21 -15 -10 -11 -130 6 -161 8 -16 15 -39 15 -50 0 -12 11 -46 24 -76 53 -119 118 -189 226 -240 119 -57 141 -52 168 34 41 131 54 276 24 286 -7 2 -22 -18 -37 -51 -25 -54 -68 -107 -88 -107 -5 0 -35 19 -67 43 -58 42 -108 102 -96 114 3 3 6 1 6 -5 0 -7 7 -12 14 -12 8 0 35 -13 59 -30 25 -16 52 -30 61 -30 30 0 99 128 131 242 27 96 6 102 -71 23 -30 -30 -60 -55 -68 -55 -32 0 -144 150 -210 283 -21 42 -45 77 -52 77 -8 0 -14 -3 -15 -7z" fill="url(#lG2L)"/>
    <path d="M679 2953 c-11 -92 1 -184 43 -311 11 -35 18 -66 14 -69 -3 -4 -6 0 -6 8 0 8 -8 22 -17 31 -10 9 -26 28 -36 42 -10 15 -22 24 -28 21 -15 -10 -11 -130 6 -161 8 -16 15 -39 15 -50 0 -12 11 -46 24 -76 53 -119 118 -189 226 -240 119 -57 141 -52 168 34 41 131 54 276 24 286 -7 2 -22 -18 -37 -51 -25 -54 -68 -107 -88 -107 -5 0 -35 19 -67 43 -58 42 -108 102 -96 114 3 3 6 1 6 -5 0 -7 7 -12 14 -12 8 0 35 -13 59 -30 25 -16 52 -30 61 -30 30 0 99 128 131 242 27 96 6 102 -71 23 -30 -30 -60 -55 -68 -55 -32 0 -144 150 -210 283 -21 42 -45 77 -52 77 -8 0 -14 -3 -15 -7z" fill="url(#lHLL)"/>
    <path d="M679 2953 c-11 -92 1 -184 43 -311 11 -35 18 -66 14 -69 -3 -4 -6 0 -6 8 0 8 -8 22 -17 31 -10 9 -26 28 -36 42 -10 15 -22 24 -28 21 -15 -10 -11 -130 6 -161 8 -16 15 -39 15 -50 0 -12 11 -46 24 -76 53 -119 118 -189 226 -240 119 -57 141 -52 168 34 41 131 54 276 24 286 -7 2 -22 -18 -37 -51 -25 -54 -68 -107 -88 -107 -5 0 -35 19 -67 43 -58 42 -108 102 -96 114 3 3 6 1 6 -5 0 -7 7 -12 14 -12 8 0 35 -13 59 -30 25 -16 52 -30 61 -30 30 0 99 128 131 242 27 96 6 102 -71 23 -30 -30 -60 -55 -68 -55 -32 0 -144 150 -210 283 -21 42 -45 77 -52 77 -8 0 -14 -3 -15 -7z" fill="url(#lSHL)"/>
    <path d="M679 2953 c-11 -92 1 -184 43 -311 11 -35 18 -66 14 -69 -3 -4 -6 0 -6 8 0 8 -8 22 -17 31 -10 9 -26 28 -36 42 -10 15 -22 24 -28 21 -15 -10 -11 -130 6 -161 8 -16 15 -39 15 -50 0 -12 11 -46 24 -76 53 -119 118 -189 226 -240 119 -57 141 -52 168 34 41 131 54 276 24 286 -7 2 -22 -18 -37 -51 -25 -54 -68 -107 -88 -107 -5 0 -35 19 -67 43 -58 42 -108 102 -96 114 3 3 6 1 6 -5 0 -7 7 -12 14 -12 8 0 35 -13 59 -30 25 -16 52 -30 61 -30 30 0 99 128 131 242 27 96 6 102 -71 23 -30 -30 -60 -55 -68 -55 -32 0 -144 150 -210 283 -21 42 -45 77 -52 77 -8 0 -14 -3 -15 -7z" fill="none" stroke="#907020" stroke-width="26" opacity="0.72"/>
    <path d="M679 2953 c-11 -92 1 -184 43 -311 11 -35 18 -66 14 -69 -3 -4 -6 0 -6 8 0 8 -8 22 -17 31 -10 9 -26 28 -36 42 -10 15 -22 24 -28 21 -15 -10 -11 -130 6 -161 8 -16 15 -39 15 -50 0 -12 11 -46 24 -76 53 -119 118 -189 226 -240 119 -57 141 -52 168 34 41 131 54 276 24 286 -7 2 -22 -18 -37 -51 -25 -54 -68 -107 -88 -107 -5 0 -35 19 -67 43 -58 42 -108 102 -96 114 3 3 6 1 6 -5 0 -7 7 -12 14 -12 8 0 35 -13 59 -30 25 -16 52 -30 61 -30 30 0 99 128 131 242 27 96 6 102 -71 23 -30 -30 -60 -55 -68 -55 -32 0 -144 150 -210 283 -21 42 -45 77 -52 77 -8 0 -14 -3 -15 -7z" fill="none" stroke="#ffffa0" stroke-width="5" opacity="0.30"/>
    <path d="M679 2953 c-11 -92 1 -184 43 -311 11 -35 18 -66 14 -69 -3 -4 -6 0 -6 8 0 8 -8 22 -17 31 -10 9 -26 28 -36 42 -10 15 -22 24 -28 21 -15 -10 -11 -130 6 -161 8 -16 15 -39 15 -50 0 -12 11 -46 24 -76 53 -119 118 -189 226 -240 119 -57 141 -52 168 34 41 131 54 276 24 286 -7 2 -22 -18 -37 -51 -25 -54 -68 -107 -88 -107 -5 0 -35 19 -67 43 -58 42 -108 102 -96 114 3 3 6 1 6 -5 0 -7 7 -12 14 -12 8 0 35 -13 59 -30 25 -16 52 -30 61 -30 30 0 99 128 131 242 27 96 6 102 -71 23 -30 -30 -60 -55 -68 -55 -32 0 -144 150 -210 283 -21 42 -45 77 -52 77 -8 0 -14 -3 -15 -7z" fill="none" stroke="#907020" stroke-width="9" opacity="0.40"/>
    <!-- Leaf 9 -->
    <path d="M696 2261 c-9 -15 3 -57 36 -126 50 -103 56 -111 122 -173 90 -84 137 -106 261 -121 95 -12 99 -9 114 104 14 101 5 209 -22 264 -17 35 -29 29 -51 -26 -10 -26 -28 -71 -39 -100 -12 -31 -28 -53 -39 -56 -19 -5 -129 29 -138 43 -3 4 -14 10 -25 14 -19 6 -70 50 -171 148 -25 23 -44 36 -48 29z" fill="#d8a820"/>
    <path d="M696 2261 c-9 -15 3 -57 36 -126 50 -103 56 -111 122 -173 90 -84 137 -106 261 -121 95 -12 99 -9 114 104 14 101 5 209 -22 264 -17 35 -29 29 -51 -26 -10 -26 -28 -71 -39 -100 -12 -31 -28 -53 -39 -56 -19 -5 -129 29 -138 43 -3 4 -14 10 -25 14 -19 6 -70 50 -171 148 -25 23 -44 36 -48 29z" fill="url(#lG2L)"/>
    <path d="M696 2261 c-9 -15 3 -57 36 -126 50 -103 56 -111 122 -173 90 -84 137 -106 261 -121 95 -12 99 -9 114 104 14 101 5 209 -22 264 -17 35 -29 29 -51 -26 -10 -26 -28 -71 -39 -100 -12 -31 -28 -53 -39 -56 -19 -5 -129 29 -138 43 -3 4 -14 10 -25 14 -19 6 -70 50 -171 148 -25 23 -44 36 -48 29z" fill="url(#lHLL)"/>
    <path d="M696 2261 c-9 -15 3 -57 36 -126 50 -103 56 -111 122 -173 90 -84 137 -106 261 -121 95 -12 99 -9 114 104 14 101 5 209 -22 264 -17 35 -29 29 -51 -26 -10 -26 -28 -71 -39 -100 -12 -31 -28 -53 -39 -56 -19 -5 -129 29 -138 43 -3 4 -14 10 -25 14 -19 6 -70 50 -171 148 -25 23 -44 36 -48 29z" fill="url(#lSHL)"/>
    <path d="M696 2261 c-9 -15 3 -57 36 -126 50 -103 56 -111 122 -173 90 -84 137 -106 261 -121 95 -12 99 -9 114 104 14 101 5 209 -22 264 -17 35 -29 29 -51 -26 -10 -26 -28 -71 -39 -100 -12 -31 -28 -53 -39 -56 -19 -5 -129 29 -138 43 -3 4 -14 10 -25 14 -19 6 -70 50 -171 148 -25 23 -44 36 -48 29z" fill="none" stroke="#604008" stroke-width="26" opacity="0.72"/>
    <path d="M696 2261 c-9 -15 3 -57 36 -126 50 -103 56 -111 122 -173 90 -84 137 -106 261 -121 95 -12 99 -9 114 104 14 101 5 209 -22 264 -17 35 -29 29 -51 -26 -10 -26 -28 -71 -39 -100 -12 -31 -28 -53 -39 -56 -19 -5 -129 29 -138 43 -3 4 -14 10 -25 14 -19 6 -70 50 -171 148 -25 23 -44 36 -48 29z" fill="none" stroke="#f0c848" stroke-width="5" opacity="0.30"/>
    <path d="M696 2261 c-9 -15 3 -57 36 -126 50 -103 56 -111 122 -173 90 -84 137 -106 261 -121 95 -12 99 -9 114 104 14 101 5 209 -22 264 -17 35 -29 29 -51 -26 -10 -26 -28 -71 -39 -100 -12 -31 -28 -53 -39 -56 -19 -5 -129 29 -138 43 -3 4 -14 10 -25 14 -19 6 -70 50 -171 148 -25 23 -44 36 -48 29z" fill="none" stroke="#604008" stroke-width="9" opacity="0.40"/>
    <!-- Leaf 10 -->
    <path d="M4115 2204 c-84 -78 -160 -137 -190 -148 -5 -1 -26 -9 -45 -16 -74 -26 -85 -25 -108 15 -12 20 -22 44 -22 54 0 9 -7 26 -15 37 -8 10 -15 36 -15 57 0 38 -18 50 -37 25 -43 -56 -36 -353 9 -382 13 -7 40 -5 104 8 80 16 101 23 144 48 8 4 24 12 35 17 25 11 122 110 140 142 60 106 91 199 68 199 -5 0 -35 -25 -68 -56z" fill="#e8b830"/>
    <path d="M4115 2204 c-84 -78 -160 -137 -190 -148 -5 -1 -26 -9 -45 -16 -74 -26 -85 -25 -108 15 -12 20 -22 44 -22 54 0 9 -7 26 -15 37 -8 10 -15 36 -15 57 0 38 -18 50 -37 25 -43 -56 -36 -353 9 -382 13 -7 40 -5 104 8 80 16 101 23 144 48 8 4 24 12 35 17 25 11 122 110 140 142 60 106 91 199 68 199 -5 0 -35 -25 -68 -56z" fill="url(#lG2L)"/>
    <path d="M4115 2204 c-84 -78 -160 -137 -190 -148 -5 -1 -26 -9 -45 -16 -74 -26 -85 -25 -108 15 -12 20 -22 44 -22 54 0 9 -7 26 -15 37 -8 10 -15 36 -15 57 0 38 -18 50 -37 25 -43 -56 -36 -353 9 -382 13 -7 40 -5 104 8 80 16 101 23 144 48 8 4 24 12 35 17 25 11 122 110 140 142 60 106 91 199 68 199 -5 0 -35 -25 -68 -56z" fill="url(#lHLL)"/>
    <path d="M4115 2204 c-84 -78 -160 -137 -190 -148 -5 -1 -26 -9 -45 -16 -74 -26 -85 -25 -108 15 -12 20 -22 44 -22 54 0 9 -7 26 -15 37 -8 10 -15 36 -15 57 0 38 -18 50 -37 25 -43 -56 -36 -353 9 -382 13 -7 40 -5 104 8 80 16 101 23 144 48 8 4 24 12 35 17 25 11 122 110 140 142 60 106 91 199 68 199 -5 0 -35 -25 -68 -56z" fill="url(#lSHL)"/>
    <path d="M4115 2204 c-84 -78 -160 -137 -190 -148 -5 -1 -26 -9 -45 -16 -74 -26 -85 -25 -108 15 -12 20 -22 44 -22 54 0 9 -7 26 -15 37 -8 10 -15 36 -15 57 0 38 -18 50 -37 25 -43 -56 -36 -353 9 -382 13 -7 40 -5 104 8 80 16 101 23 144 48 8 4 24 12 35 17 25 11 122 110 140 142 60 106 91 199 68 199 -5 0 -35 -25 -68 -56z" fill="none" stroke="#685010" stroke-width="26" opacity="0.72"/>
    <path d="M4115 2204 c-84 -78 -160 -137 -190 -148 -5 -1 -26 -9 -45 -16 -74 -26 -85 -25 -108 15 -12 20 -22 44 -22 54 0 9 -7 26 -15 37 -8 10 -15 36 -15 57 0 38 -18 50 -37 25 -43 -56 -36 -353 9 -382 13 -7 40 -5 104 8 80 16 101 23 144 48 8 4 24 12 35 17 25 11 122 110 140 142 60 106 91 199 68 199 -5 0 -35 -25 -68 -56z" fill="none" stroke="#fad060" stroke-width="5" opacity="0.30"/>
    <path d="M4115 2204 c-84 -78 -160 -137 -190 -148 -5 -1 -26 -9 -45 -16 -74 -26 -85 -25 -108 15 -12 20 -22 44 -22 54 0 9 -7 26 -15 37 -8 10 -15 36 -15 57 0 38 -18 50 -37 25 -43 -56 -36 -353 9 -382 13 -7 40 -5 104 8 80 16 101 23 144 48 8 4 24 12 35 17 25 11 122 110 140 142 60 106 91 199 68 199 -5 0 -35 -25 -68 -56z" fill="none" stroke="#685010" stroke-width="9" opacity="0.40"/>
    <!-- Leaf 11 -->
    <path d="M1310 1938 c-1 -18 -7 -44 -15 -58 -8 -14 -14 -34 -15 -46 0 -11 -9 -29 -21 -40 -18 -16 -34 -18 -107 -16 -47 2 -93 7 -101 12 -27 14 -104 16 -108 3 -7 -20 73 -98 129 -125 85 -41 118 -49 214 -55 88 -5 92 -5 104 17 15 28 4 231 -15 275 -7 17 -15 38 -19 48 -3 9 -15 17 -26 17 -16 0 -20 -7 -20 -32z" fill="#f0c030"/>
    <path d="M1310 1938 c-1 -18 -7 -44 -15 -58 -8 -14 -14 -34 -15 -46 0 -11 -9 -29 -21 -40 -18 -16 -34 -18 -107 -16 -47 2 -93 7 -101 12 -27 14 -104 16 -108 3 -7 -20 73 -98 129 -125 85 -41 118 -49 214 -55 88 -5 92 -5 104 17 15 28 4 231 -15 275 -7 17 -15 38 -19 48 -3 9 -15 17 -26 17 -16 0 -20 -7 -20 -32z" fill="url(#lG2L)"/>
    <path d="M1310 1938 c-1 -18 -7 -44 -15 -58 -8 -14 -14 -34 -15 -46 0 -11 -9 -29 -21 -40 -18 -16 -34 -18 -107 -16 -47 2 -93 7 -101 12 -27 14 -104 16 -108 3 -7 -20 73 -98 129 -125 85 -41 118 -49 214 -55 88 -5 92 -5 104 17 15 28 4 231 -15 275 -7 17 -15 38 -19 48 -3 9 -15 17 -26 17 -16 0 -20 -7 -20 -32z" fill="url(#lHLL)"/>
    <path d="M1310 1938 c-1 -18 -7 -44 -15 -58 -8 -14 -14 -34 -15 -46 0 -11 -9 -29 -21 -40 -18 -16 -34 -18 -107 -16 -47 2 -93 7 -101 12 -27 14 -104 16 -108 3 -7 -20 73 -98 129 -125 85 -41 118 -49 214 -55 88 -5 92 -5 104 17 15 28 4 231 -15 275 -7 17 -15 38 -19 48 -3 9 -15 17 -26 17 -16 0 -20 -7 -20 -32z" fill="url(#lSHL)"/>
    <path d="M1310 1938 c-1 -18 -7 -44 -15 -58 -8 -14 -14 -34 -15 -46 0 -11 -9 -29 -21 -40 -18 -16 -34 -18 -107 -16 -47 2 -93 7 -101 12 -27 14 -104 16 -108 3 -7 -20 73 -98 129 -125 85 -41 118 -49 214 -55 88 -5 92 -5 104 17 15 28 4 231 -15 275 -7 17 -15 38 -19 48 -3 9 -15 17 -26 17 -16 0 -20 -7 -20 -32z" fill="none" stroke="#786010" stroke-width="26" opacity="0.72"/>
    <path d="M1310 1938 c-1 -18 -7 -44 -15 -58 -8 -14 -14 -34 -15 -46 0 -11 -9 -29 -21 -40 -18 -16 -34 -18 -107 -16 -47 2 -93 7 -101 12 -27 14 -104 16 -108 3 -7 -20 73 -98 129 -125 85 -41 118 -49 214 -55 88 -5 92 -5 104 17 15 28 4 231 -15 275 -7 17 -15 38 -19 48 -3 9 -15 17 -26 17 -16 0 -20 -7 -20 -32z" fill="none" stroke="#ffe060" stroke-width="5" opacity="0.30"/>
    <path d="M1310 1938 c-1 -18 -7 -44 -15 -58 -8 -14 -14 -34 -15 -46 0 -11 -9 -29 -21 -40 -18 -16 -34 -18 -107 -16 -47 2 -93 7 -101 12 -27 14 -104 16 -108 3 -7 -20 73 -98 129 -125 85 -41 118 -49 214 -55 88 -5 92 -5 104 17 15 28 4 231 -15 275 -7 17 -15 38 -19 48 -3 9 -15 17 -26 17 -16 0 -20 -7 -20 -32z" fill="none" stroke="#786010" stroke-width="9" opacity="0.40"/>
    <!-- Leaf 12 -->
    <path d="M3546 1963 c-18 -18 -38 -84 -50 -168 -15 -97 -12 -148 10 -165 24 -21 241 3 266 28 7 7 19 12 28 12 22 1 140 98 140 115 0 17 -51 21 -79 6 -24 -14 -181 -23 -215 -13 -31 8 -43 37 -64 146 -7 39 -21 54 -36 39z" fill="#ddb028"/>
    <path d="M3546 1963 c-18 -18 -38 -84 -50 -168 -15 -97 -12 -148 10 -165 24 -21 241 3 266 28 7 7 19 12 28 12 22 1 140 98 140 115 0 17 -51 21 -79 6 -24 -14 -181 -23 -215 -13 -31 8 -43 37 -64 146 -7 39 -21 54 -36 39z" fill="url(#lG2L)"/>
    <path d="M3546 1963 c-18 -18 -38 -84 -50 -168 -15 -97 -12 -148 10 -165 24 -21 241 3 266 28 7 7 19 12 28 12 22 1 140 98 140 115 0 17 -51 21 -79 6 -24 -14 -181 -23 -215 -13 -31 8 -43 37 -64 146 -7 39 -21 54 -36 39z" fill="url(#lHLL)"/>
    <path d="M3546 1963 c-18 -18 -38 -84 -50 -168 -15 -97 -12 -148 10 -165 24 -21 241 3 266 28 7 7 19 12 28 12 22 1 140 98 140 115 0 17 -51 21 -79 6 -24 -14 -181 -23 -215 -13 -31 8 -43 37 -64 146 -7 39 -21 54 -36 39z" fill="url(#lSHL)"/>
    <path d="M3546 1963 c-18 -18 -38 -84 -50 -168 -15 -97 -12 -148 10 -165 24 -21 241 3 266 28 7 7 19 12 28 12 22 1 140 98 140 115 0 17 -51 21 -79 6 -24 -14 -181 -23 -215 -13 -31 8 -43 37 -64 146 -7 39 -21 54 -36 39z" fill="none" stroke="#685010" stroke-width="26" opacity="0.72"/>
    <path d="M3546 1963 c-18 -18 -38 -84 -50 -168 -15 -97 -12 -148 10 -165 24 -21 241 3 266 28 7 7 19 12 28 12 22 1 140 98 140 115 0 17 -51 21 -79 6 -24 -14 -181 -23 -215 -13 -31 8 -43 37 -64 146 -7 39 -21 54 -36 39z" fill="none" stroke="#f0d050" stroke-width="5" opacity="0.30"/>
    <path d="M3546 1963 c-18 -18 -38 -84 -50 -168 -15 -97 -12 -148 10 -165 24 -21 241 3 266 28 7 7 19 12 28 12 22 1 140 98 140 115 0 17 -51 21 -79 6 -24 -14 -181 -23 -215 -13 -31 8 -43 37 -64 146 -7 39 -21 54 -36 39z" fill="none" stroke="#685010" stroke-width="9" opacity="0.40"/>
  </g>

  <!-- ===== CORD ===== -->
  <path d="M1473 1773 c-9 -3 -13 -32 -13 -93 0 -116 1 -115 -177 -106 -110 6 -133 5 -133 -7 0 -18 72 -84 107 -99 98 -40 132 -47 221 -48 86 0 95 -2 134 -30 26 -19 53 -30 74 -30 18 0 36 -4 39 -10 4 -6 65 -10 148 -10 78 0 160 -5 182 -11 22 -6 55 -13 73 -16 18 -3 35 -10 38 -15 13 -20 -23 -28 -128 -28 -64 0 -108 -4 -108 -10 0 -5 17 -20 38 -34 20 -13 43 -30 50 -39 8 -9 29 -21 48 -27 30 -10 47 -7 130 19 129 42 134 45 134 86 0 27 -7 39 -37 62 -54 40 -69 47 -153 72 -41 12 -89 26 -106 31 -17 6 -39 10 -49 10 -38 0 -213 55 -277 86 -49 25 -67 19 -48 -15 22 -42 6 -91 -30 -91 -14 0 -17 13 -18 76 -2 42 -9 88 -16 103 -7 14 -23 46 -34 71 -26 56 -73 110 -89 103z M3368 1741 c-33 -36 -76 -129 -89 -190 -5 -25 -12 -58 -15 -72 -5 -24 -3 -26 69 -44 71 -18 77 -18 148 -1 97 23 124 33 184 70 115 70 99 90 -51 66 -60 -10 -158 0 -176 18 -4 4 -11 45 -15 92 -5 46 -13 85 -19 87 -6 2 -22 -10 -36 -26z M3180 1522 c-38 -27 -238 -82 -299 -82 -17 0 -45 -6 -63 -14 -18 -7 -69 -29 -113 -47 -160 -66 -195 -122 -101 -163 123 -55 205 -62 253 -23 15 13 41 30 57 38 61 29 44 38 -80 41 -129 3 -152 15 -87 44 25 12 79 20 163 25 186 11 322 28 348 45 24 16 21 34 -5 34 -27 0 -42 32 -36 78 6 46 0 50 -37 24z" fill="#0c0804" transform="translate(20,-20)" opacity="0.35" filter="url(#shBlurL)"/>
  <path d="M1473 1773 c-9 -3 -13 -32 -13 -93 0 -116 1 -115 -177 -106 -110 6 -133 5 -133 -7 0 -18 72 -84 107 -99 98 -40 132 -47 221 -48 86 0 95 -2 134 -30 26 -19 53 -30 74 -30 18 0 36 -4 39 -10 4 -6 65 -10 148 -10 78 0 160 -5 182 -11 22 -6 55 -13 73 -16 18 -3 35 -10 38 -15 13 -20 -23 -28 -128 -28 -64 0 -108 -4 -108 -10 0 -5 17 -20 38 -34 20 -13 43 -30 50 -39 8 -9 29 -21 48 -27 30 -10 47 -7 130 19 129 42 134 45 134 86 0 27 -7 39 -37 62 -54 40 -69 47 -153 72 -41 12 -89 26 -106 31 -17 6 -39 10 -49 10 -38 0 -213 55 -277 86 -49 25 -67 19 -48 -15 22 -42 6 -91 -30 -91 -14 0 -17 13 -18 76 -2 42 -9 88 -16 103 -7 14 -23 46 -34 71 -26 56 -73 110 -89 103z M3368 1741 c-33 -36 -76 -129 -89 -190 -5 -25 -12 -58 -15 -72 -5 -24 -3 -26 69 -44 71 -18 77 -18 148 -1 97 23 124 33 184 70 115 70 99 90 -51 66 -60 -10 -158 0 -176 18 -4 4 -11 45 -15 92 -5 46 -13 85 -19 87 -6 2 -22 -10 -36 -26z M3180 1522 c-38 -27 -238 -82 -299 -82 -17 0 -45 -6 -63 -14 -18 -7 -69 -29 -113 -47 -160 -66 -195 -122 -101 -163 123 -55 205 -62 253 -23 15 13 41 30 57 38 61 29 44 38 -80 41 -129 3 -152 15 -87 44 25 12 79 20 163 25 186 11 322 28 348 45 24 16 21 34 -5 34 -27 0 -42 32 -36 78 6 46 0 50 -37 24z" fill="none" stroke="#6a4810" stroke-width="24" opacity="0.70"/>
  <path d="M1473 1773 c-9 -3 -13 -32 -13 -93 0 -116 1 -115 -177 -106 -110 6 -133 5 -133 -7 0 -18 72 -84 107 -99 98 -40 132 -47 221 -48 86 0 95 -2 134 -30 26 -19 53 -30 74 -30 18 0 36 -4 39 -10 4 -6 65 -10 148 -10 78 0 160 -5 182 -11 22 -6 55 -13 73 -16 18 -3 35 -10 38 -15 13 -20 -23 -28 -128 -28 -64 0 -108 -4 -108 -10 0 -5 17 -20 38 -34 20 -13 43 -30 50 -39 8 -9 29 -21 48 -27 30 -10 47 -7 130 19 129 42 134 45 134 86 0 27 -7 39 -37 62 -54 40 -69 47 -153 72 -41 12 -89 26 -106 31 -17 6 -39 10 -49 10 -38 0 -213 55 -277 86 -49 25 -67 19 -48 -15 22 -42 6 -91 -30 -91 -14 0 -17 13 -18 76 -2 42 -9 88 -16 103 -7 14 -23 46 -34 71 -26 56 -73 110 -89 103z M3368 1741 c-33 -36 -76 -129 -89 -190 -5 -25 -12 -58 -15 -72 -5 -24 -3 -26 69 -44 71 -18 77 -18 148 -1 97 23 124 33 184 70 115 70 99 90 -51 66 -60 -10 -158 0 -176 18 -4 4 -11 45 -15 92 -5 46 -13 85 -19 87 -6 2 -22 -10 -36 -26z M3180 1522 c-38 -27 -238 -82 -299 -82 -17 0 -45 -6 -63 -14 -18 -7 -69 -29 -113 -47 -160 -66 -195 -122 -101 -163 123 -55 205 -62 253 -23 15 13 41 30 57 38 61 29 44 38 -80 41 -129 3 -152 15 -87 44 25 12 79 20 163 25 186 11 322 28 348 45 24 16 21 34 -5 34 -27 0 -42 32 -36 78 6 46 0 50 -37 24z" fill="url(#cGL)"/>
  <path d="M1473 1773 c-9 -3 -13 -32 -13 -93 0 -116 1 -115 -177 -106 -110 6 -133 5 -133 -7 0 -18 72 -84 107 -99 98 -40 132 -47 221 -48 86 0 95 -2 134 -30 26 -19 53 -30 74 -30 18 0 36 -4 39 -10 4 -6 65 -10 148 -10 78 0 160 -5 182 -11 22 -6 55 -13 73 -16 18 -3 35 -10 38 -15 13 -20 -23 -28 -128 -28 -64 0 -108 -4 -108 -10 0 -5 17 -20 38 -34 20 -13 43 -30 50 -39 8 -9 29 -21 48 -27 30 -10 47 -7 130 19 129 42 134 45 134 86 0 27 -7 39 -37 62 -54 40 -69 47 -153 72 -41 12 -89 26 -106 31 -17 6 -39 10 -49 10 -38 0 -213 55 -277 86 -49 25 -67 19 -48 -15 22 -42 6 -91 -30 -91 -14 0 -17 13 -18 76 -2 42 -9 88 -16 103 -7 14 -23 46 -34 71 -26 56 -73 110 -89 103z M3368 1741 c-33 -36 -76 -129 -89 -190 -5 -25 -12 -58 -15 -72 -5 -24 -3 -26 69 -44 71 -18 77 -18 148 -1 97 23 124 33 184 70 115 70 99 90 -51 66 -60 -10 -158 0 -176 18 -4 4 -11 45 -15 92 -5 46 -13 85 -19 87 -6 2 -22 -10 -36 -26z M3180 1522 c-38 -27 -238 -82 -299 -82 -17 0 -45 -6 -63 -14 -18 -7 -69 -29 -113 -47 -160 -66 -195 -122 -101 -163 123 -55 205 -62 253 -23 15 13 41 30 57 38 61 29 44 38 -80 41 -129 3 -152 15 -87 44 25 12 79 20 163 25 186 11 322 28 348 45 24 16 21 34 -5 34 -27 0 -42 32 -36 78 6 46 0 50 -37 24z" fill="url(#barkL)"/>
  <path d="M1473 1773 c-9 -3 -13 -32 -13 -93 0 -116 1 -115 -177 -106 -110 6 -133 5 -133 -7 0 -18 72 -84 107 -99 98 -40 132 -47 221 -48 86 0 95 -2 134 -30 26 -19 53 -30 74 -30 18 0 36 -4 39 -10 4 -6 65 -10 148 -10 78 0 160 -5 182 -11 22 -6 55 -13 73 -16 18 -3 35 -10 38 -15 13 -20 -23 -28 -128 -28 -64 0 -108 -4 -108 -10 0 -5 17 -20 38 -34 20 -13 43 -30 50 -39 8 -9 29 -21 48 -27 30 -10 47 -7 130 19 129 42 134 45 134 86 0 27 -7 39 -37 62 -54 40 -69 47 -153 72 -41 12 -89 26 -106 31 -17 6 -39 10 -49 10 -38 0 -213 55 -277 86 -49 25 -67 19 -48 -15 22 -42 6 -91 -30 -91 -14 0 -17 13 -18 76 -2 42 -9 88 -16 103 -7 14 -23 46 -34 71 -26 56 -73 110 -89 103z M3368 1741 c-33 -36 -76 -129 -89 -190 -5 -25 -12 -58 -15 -72 -5 -24 -3 -26 69 -44 71 -18 77 -18 148 -1 97 23 124 33 184 70 115 70 99 90 -51 66 -60 -10 -158 0 -176 18 -4 4 -11 45 -15 92 -5 46 -13 85 -19 87 -6 2 -22 -10 -36 -26z M3180 1522 c-38 -27 -238 -82 -299 -82 -17 0 -45 -6 -63 -14 -18 -7 -69 -29 -113 -47 -160 -66 -195 -122 -101 -163 123 -55 205 -62 253 -23 15 13 41 30 57 38 61 29 44 38 -80 41 -129 3 -152 15 -87 44 25 12 79 20 163 25 186 11 322 28 348 45 24 16 21 34 -5 34 -27 0 -42 32 -36 78 6 46 0 50 -37 24z" fill="url(#cHLL)"/>
  <path d="M1473 1773 c-9 -3 -13 -32 -13 -93 0 -116 1 -115 -177 -106 -110 6 -133 5 -133 -7 0 -18 72 -84 107 -99 98 -40 132 -47 221 -48 86 0 95 -2 134 -30 26 -19 53 -30 74 -30 18 0 36 -4 39 -10 4 -6 65 -10 148 -10 78 0 160 -5 182 -11 22 -6 55 -13 73 -16 18 -3 35 -10 38 -15 13 -20 -23 -28 -128 -28 -64 0 -108 -4 -108 -10 0 -5 17 -20 38 -34 20 -13 43 -30 50 -39 8 -9 29 -21 48 -27 30 -10 47 -7 130 19 129 42 134 45 134 86 0 27 -7 39 -37 62 -54 40 -69 47 -153 72 -41 12 -89 26 -106 31 -17 6 -39 10 -49 10 -38 0 -213 55 -277 86 -49 25 -67 19 -48 -15 22 -42 6 -91 -30 -91 -14 0 -17 13 -18 76 -2 42 -9 88 -16 103 -7 14 -23 46 -34 71 -26 56 -73 110 -89 103z M3368 1741 c-33 -36 -76 -129 -89 -190 -5 -25 -12 -58 -15 -72 -5 -24 -3 -26 69 -44 71 -18 77 -18 148 -1 97 23 124 33 184 70 115 70 99 90 -51 66 -60 -10 -158 0 -176 18 -4 4 -11 45 -15 92 -5 46 -13 85 -19 87 -6 2 -22 -10 -36 -26z M3180 1522 c-38 -27 -238 -82 -299 -82 -17 0 -45 -6 -63 -14 -18 -7 -69 -29 -113 -47 -160 -66 -195 -122 -101 -163 123 -55 205 -62 253 -23 15 13 41 30 57 38 61 29 44 38 -80 41 -129 3 -152 15 -87 44 25 12 79 20 163 25 186 11 322 28 348 45 24 16 21 34 -5 34 -27 0 -42 32 -36 78 6 46 0 50 -37 24z" fill="url(#cSHL)"/>
  <path d="M1473 1773 c-9 -3 -13 -32 -13 -93 0 -116 1 -115 -177 -106 -110 6 -133 5 -133 -7 0 -18 72 -84 107 -99 98 -40 132 -47 221 -48 86 0 95 -2 134 -30 26 -19 53 -30 74 -30 18 0 36 -4 39 -10 4 -6 65 -10 148 -10 78 0 160 -5 182 -11 22 -6 55 -13 73 -16 18 -3 35 -10 38 -15 13 -20 -23 -28 -128 -28 -64 0 -108 -4 -108 -10 0 -5 17 -20 38 -34 20 -13 43 -30 50 -39 8 -9 29 -21 48 -27 30 -10 47 -7 130 19 129 42 134 45 134 86 0 27 -7 39 -37 62 -54 40 -69 47 -153 72 -41 12 -89 26 -106 31 -17 6 -39 10 -49 10 -38 0 -213 55 -277 86 -49 25 -67 19 -48 -15 22 -42 6 -91 -30 -91 -14 0 -17 13 -18 76 -2 42 -9 88 -16 103 -7 14 -23 46 -34 71 -26 56 -73 110 -89 103z M3368 1741 c-33 -36 -76 -129 -89 -190 -5 -25 -12 -58 -15 -72 -5 -24 -3 -26 69 -44 71 -18 77 -18 148 -1 97 23 124 33 184 70 115 70 99 90 -51 66 -60 -10 -158 0 -176 18 -4 4 -11 45 -15 92 -5 46 -13 85 -19 87 -6 2 -22 -10 -36 -26z M3180 1522 c-38 -27 -238 -82 -299 -82 -17 0 -45 -6 -63 -14 -18 -7 -69 -29 -113 -47 -160 -66 -195 -122 -101 -163 123 -55 205 -62 253 -23 15 13 41 30 57 38 61 29 44 38 -80 41 -129 3 -152 15 -87 44 25 12 79 20 163 25 186 11 322 28 348 45 24 16 21 34 -5 34 -27 0 -42 32 -36 78 6 46 0 50 -37 24z" fill="none" stroke="#ffe080" stroke-width="4" opacity="0.20"/>
  <path d="M1473 1773 c-9 -3 -13 -32 -13 -93 0 -116 1 -115 -177 -106 -110 6 -133 5 -133 -7 0 -18 72 -84 107 -99 98 -40 132 -47 221 -48 86 0 95 -2 134 -30 26 -19 53 -30 74 -30 18 0 36 -4 39 -10 4 -6 65 -10 148 -10 78 0 160 -5 182 -11 22 -6 55 -13 73 -16 18 -3 35 -10 38 -15 13 -20 -23 -28 -128 -28 -64 0 -108 -4 -108 -10 0 -5 17 -20 38 -34 20 -13 43 -30 50 -39 8 -9 29 -21 48 -27 30 -10 47 -7 130 19 129 42 134 45 134 86 0 27 -7 39 -37 62 -54 40 -69 47 -153 72 -41 12 -89 26 -106 31 -17 6 -39 10 -49 10 -38 0 -213 55 -277 86 -49 25 -67 19 -48 -15 22 -42 6 -91 -30 -91 -14 0 -17 13 -18 76 -2 42 -9 88 -16 103 -7 14 -23 46 -34 71 -26 56 -73 110 -89 103z M3368 1741 c-33 -36 -76 -129 -89 -190 -5 -25 -12 -58 -15 -72 -5 -24 -3 -26 69 -44 71 -18 77 -18 148 -1 97 23 124 33 184 70 115 70 99 90 -51 66 -60 -10 -158 0 -176 18 -4 4 -11 45 -15 92 -5 46 -13 85 -19 87 -6 2 -22 -10 -36 -26z M3180 1522 c-38 -27 -238 -82 -299 -82 -17 0 -45 -6 -63 -14 -18 -7 -69 -29 -113 -47 -160 -66 -195 -122 -101 -163 123 -55 205 -62 253 -23 15 13 41 30 57 38 61 29 44 38 -80 41 -129 3 -152 15 -87 44 25 12 79 20 163 25 186 11 322 28 348 45 24 16 21 34 -5 34 -27 0 -42 32 -36 78 6 46 0 50 -37 24z" fill="none" stroke="#403008" stroke-width="8" opacity="0.35"/>

</g>

<!-- ===== ENGRAVED TEXT (screen coords, on top) ===== -->
<!-- Top arc: raised metallic text -->
<text font-family="'Helvetica Neue', Helvetica, Arial, sans-serif" font-size="95" font-weight="900"
      fill="#000018" opacity="0.70" text-anchor="middle" transform="translate(4,5)">
  <textPath href="#txtTopL" startOffset="50%" textLength="2818" lengthAdjust="spacing">UNITED FEDERATION OF PLANETS</textPath>
</text>
<text font-family="'Helvetica Neue', Helvetica, Arial, sans-serif" font-size="95" font-weight="900"
      fill="#d0d8f0" opacity="0.95" text-anchor="middle">
  <textPath href="#txtTopL" startOffset="50%" textLength="2818" lengthAdjust="spacing">UNITED FEDERATION OF PLANETS</textPath>
</text>
<text font-family="'Helvetica Neue', Helvetica, Arial, sans-serif" font-size="95" font-weight="900"
      fill="#ffffff" opacity="0.50" text-anchor="middle" transform="translate(-1,-2)">
  <textPath href="#txtTopL" startOffset="50%" textLength="2818" lengthAdjust="spacing">UNITED FEDERATION OF PLANETS</textPath>
</text>

<!-- Bottom arc: STARFLEET COMMAND, right-side-up, shifted down -->
<text font-family="'Helvetica Neue', Helvetica, Arial, sans-serif" font-size="95" font-weight="900"
      fill="#000018" opacity="0.70" text-anchor="middle" transform="translate(4,5)">
  <textPath href="#txtBotL" startOffset="50%" textLength="2987" lengthAdjust="spacing">STARFLEET COMMAND</textPath>
</text>
<text font-family="'Helvetica Neue', Helvetica, Arial, sans-serif" font-size="95" font-weight="900"
      fill="#d0d8f0" opacity="0.95" text-anchor="middle">
  <textPath href="#txtBotL" startOffset="50%" textLength="2987" lengthAdjust="spacing">STARFLEET COMMAND</textPath>
</text>
<text font-family="'Helvetica Neue', Helvetica, Arial, sans-serif" font-size="95" font-weight="900"
      fill="#ffffff" opacity="0.50" text-anchor="middle" transform="translate(-1,-2)">
  <textPath href="#txtBotL" startOffset="50%" textLength="2987" lengthAdjust="spacing">STARFLEET COMMAND</textPath>
</text>


<!-- Decorative stars at 9 and 3 o'clock positions -->
<g font-family="'Helvetica Neue', Helvetica, Arial, sans-serif" font-size="95" font-weight="900" text-anchor="middle" dominant-baseline="central">
  <text x="1322" y="2118" fill="#000018" opacity="0.70" dx="4" dy="5"></text>
  <text x="1322" y="2118" fill="#d0d8f0" opacity="0.95"></text>
  <text x="1322" y="2118" fill="#ffffff" opacity="0.50" dx="-1" dy="-2"></text>
  <text x="3522" y="2118" fill="#000018" opacity="0.70" dx="4" dy="5"></text>
  <text x="3522" y="2118" fill="#d0d8f0" opacity="0.95"></text>
  <text x="3522" y="2118" fill="#ffffff" opacity="0.50" dx="-1" dy="-2"></text>
</g>
</svg>