<?xml version="1.0" encoding="UTF-8"?>
<svg xmlns="http://www.w3.org/2000/svg" viewBox="0 0 5400 5400" width="600" height="600">
<defs>
  <!-- Thread colors (muted gold) -->
  <linearGradient id="sThread1" x1="0%" y1="0%" x2="100%" y2="100%">
    <stop offset="0%" stop-color="#c4a050"/>
    <stop offset="50%" stop-color="#a88530"/>
    <stop offset="100%" stop-color="#8a6820"/>
  </linearGradient>
  <linearGradient id="sThread2" x1="0%" y1="0%" x2="0%" y2="100%">
    <stop offset="0%" stop-color="#b89840"/>
    <stop offset="50%" stop-color="#9a7828"/>
    <stop offset="100%" stop-color="#7a5818"/>
  </linearGradient>
  <linearGradient id="sTextThread" x1="0%" y1="0%" x2="0%" y2="100%">
    <stop offset="0%" stop-color="#c4a050"/>
    <stop offset="50%" stop-color="#a88530"/>
    <stop offset="100%" stop-color="#8a6820"/>
  </linearGradient>
  
  <!-- Fabric texture filter -->
  <filter id="sFabric" x="0%" y="0%" width="100%" height="100%">
    <feTurbulence type="fractalNoise" baseFrequency="0.8" numOctaves="4" seed="7" result="noise"/>
    <feColorMatrix in="noise" type="saturate" values="0" result="grey"/>
    <feBlend in="SourceGraphic" in2="grey" mode="multiply"/>
  </filter>
  
  <!-- Nebula clip -->
  <clipPath id="sNebClip"><circle cx="2700" cy="2700" r="1920"/></clipPath>
  
  <!-- Ring band clip -->
  <clipPath id="sRingClip">
    <path d="M 4780 2700 A 2080 2080 0 1 1 620 2700 A 2080 2080 0 1 1 4780 2700 Z
             M 4620 2700 A 1920 1920 0 1 0 780 2700 A 1920 1920 0 1 0 4620 2700 Z" fill-rule="evenodd"/>
  </clipPath>
  
  <!-- Text arcs -->
  <path id="sTxtTop" d="M 950 2700 A 1750 1750 0 0 1 4450 2700" fill="none"/>
  <path id="sTxtBot" d="M 850 2780 A 1850 1850 0 0 0 4550 2780" fill="none"/>
</defs>

<!-- === NEBULA BACKGROUND (stitched style, inside ring) === -->
<g clip-path="url(#sNebClip)">
  <!-- Dark fabric base -->
  <circle cx="2700" cy="2700" r="2400" fill="#1a1008"/>
  <!-- Stitched nebula clouds (low opacity, thread-like) -->
  <circle cx="2300" cy="2400" r="1200" fill="#3a2510" opacity="0.4"/>
  <circle cx="3200" cy="3100" r="1000" fill="#2a1a0a" opacity="0.35"/>
  <circle cx="2700" cy="3300" r="900" fill="#352010" opacity="0.3"/>
  
  <!-- Stars as cross-stitches -->
  <g stroke="#c4a050" stroke-width="3" opacity="0.6">
    <line x1="1903" y1="2097" x2="1897" y2="2103"/>
    <line x1="1897" y1="2097" x2="1903" y2="2103"/>
    <line x1="3597" y1="2197" x2="3603" y2="2203"/>
    <line x1="3603" y1="2197" x2="3597" y2="2203"/>
    <line x1="2297" y1="3497" x2="2303" y2="3503"/>
    <line x1="2303" y1="3497" x2="2297" y2="3503"/>
    <line x1="3397" y1="3397" x2="3403" y2="3403"/>
    <line x1="3403" y1="3397" x2="3397" y2="3403"/>
    <line x1="1503" y1="2497" x2="1497" y2="2503"/>
    <line x1="1497" y1="2497" x2="1503" y2="2503"/>
    <line x1="3797" y1="2797" x2="3803" y2="2803"/>
    <line x1="3803" y1="2797" x2="3797" y2="2803"/>
    <line x1="2503" y1="1997" x2="2497" y2="2003"/>
    <line x1="2497" y1="1997" x2="2503" y2="2003"/>
    <line x1="3997" y1="2397" x2="4003" y2="2403"/>
    <line x1="4003" y1="2397" x2="3997" y2="2403"/>
    <line x1="2997" y1="1797" x2="3003" y2="1803"/>
    <line x1="3003" y1="1797" x2="2997" y2="1803"/>
    <line x1="1703" y1="3297" x2="1697" y2="3303"/>
    <line x1="1697" y1="3297" x2="1703" y2="3303"/>
  </g>
  
  <!-- Stitched planet circles -->
  <circle cx="3900" cy="1900" r="80" fill="none" stroke="#8a6820" stroke-width="4" stroke-dasharray="6,4" opacity="0.5"/>
  <circle cx="1700" cy="3600" r="45" fill="none" stroke="#7a5818" stroke-width="3" stroke-dasharray="5,3" opacity="0.4"/>
  <circle cx="3500" cy="3800" r="110" fill="none" stroke="#8a6820" stroke-width="4" stroke-dasharray="8,5" opacity="0.45"/>
</g>

<!-- === RING BAND (opaque, stitched) === -->
<g clip-path="url(#sRingClip)">
  <circle cx="2700" cy="2700" r="2090" fill="#1a1008"/>
</g>

<!-- === RING STITCHES === -->
<!-- Main ring stitch -->
<circle cx="2700" cy="2700" r="2050" fill="none" stroke="url(#sThread1)" stroke-width="28" stroke-dasharray="12,6" opacity="0.85"/>
<!-- Inner highlight stitch -->
<circle cx="2700" cy="2700" r="1925" fill="none" stroke="#b89840" stroke-width="3" stroke-dasharray="8,4" opacity="0.5"/>
<!-- Outer highlight stitch -->
<circle cx="2700" cy="2700" r="2075" fill="none" stroke="#b89840" stroke-width="3" stroke-dasharray="8,4" opacity="0.5"/>

<!-- === FERENGI SYMBOL (stitched) === -->
<g transform="translate(1001,4190) scale(0.165,-0.165)">
  
  <!-- UPPER BODY -->
  <path d="M5198 17040 c-27 -17 -48 -36 -48 -44 0 -8 -7 -22 -16 -31 -9 -9 -21
-35 -26 -58 -5 -23 -15 -49 -22 -57 -8 -8 -17 -29 -21 -47 -3 -17 -13 -37 -21
-44 -8 -6 -14 -19 -14 -29 0 -9 -9 -29 -20 -43 -11 -14 -20 -29 -20 -34 0 -15
-63 -136 -101 -193 -9 -14 -20 -37 -24 -50 -4 -14 -13 -32 -20 -40 -8 -8 -17
-28 -21 -43 -3 -16 -13 -31 -20 -34 -8 -3 -14 -13 -14 -22 0 -9 -8 -28 -17
-41 -28 -39 -73 -133 -73 -151 0 -9 -6 -19 -14 -22 -7 -3 -16 -21 -20 -40 -4
-19 -13 -40 -21 -47 -8 -7 -15 -18 -15 -24 0 -14 -49 -113 -73 -146 -9 -13
-17 -30 -17 -37 0 -7 -9 -22 -20 -33 -11 -11 -20 -29 -20 -40 0 -11 -6 -23
-14 -26 -8 -3 -17 -17 -21 -31 -3 -15 -15 -38 -26 -51 -10 -14 -19 -30 -19
-37 0 -7 -6 -18 -14 -24 -8 -7 -17 -24 -21 -39 -4 -15 -12 -34 -20 -42 -7 -8
-18 -32 -24 -52 -7 -20 -19 -42 -27 -48 -7 -7 -14 -23 -14 -36 0 -12 -5 -26
-11 -30 -6 -3 -17 -21 -25 -38 -8 -17 -18 -38 -23 -46 -8 -13 -48 -99 -66
-140 -3 -8 -17 -33 -30 -55 -14 -22 -31 -54 -39 -71 -8 -17 -22 -36 -30 -44
-9 -7 -16 -23 -16 -36 0 -12 -4 -25 -9 -29 -14 -8 -71 -125 -71 -144 0 -9 -9
-24 -20 -34 -11 -9 -20 -26 -20 -38 0 -11 -9 -32 -20 -46 -11 -14 -20 -33 -20
-43 0 -9 -9 -27 -20 -40 -11 -13 -20 -28 -20 -35 0 -7 -9 -22 -20 -35 -11 -13
-20 -30 -20 -37 0 -8 -9 -26 -20 -40 -11 -14 -20 -34 -20 -44 0 -10 -4 -20 -9
-24 -12 -7 -71 -124 -71 -140 0 -7 -9 -22 -20 -35 -11 -13 -20 -31 -20 -40 0
-10 -9 -29 -20 -43 -11 -14 -20 -29 -20 -35 0 -5 -9 -19 -20 -32 -11 -13 -20
-31 -20 -41 0 -10 -4 -21 -10 -24 -5 -3 -28 -43 -50 -88 -42 -85 -52 -104 -82
-149 -10 -15 -18 -34 -18 -41 0 -8 -9 -26 -20 -40 -11 -14 -20 -32 -20 -40 0
-8 -8 -25 -19 -38 -10 -13 -22 -39 -25 -56 -4 -18 -11 -33 -16 -33 -5 0 -14
-15 -20 -34 -6 -19 -18 -40 -26 -46 -7 -7 -14 -20 -14 -30 0 -9 -9 -29 -20
-43 -11 -14 -20 -32 -20 -40 0 -7 -9 -22 -19 -31 -10 -10 -22 -32 -25 -51 -4
-18 -13 -38 -21 -45 -8 -7 -15 -18 -15 -25 0 -7 -8 -23 -19 -36 -10 -13 -22
-35 -26 -49 -4 -14 -13 -32 -20 -40 -7 -8 -16 -26 -20 -40 -4 -14 -13 -32 -20
-40 -7 -8 -15 -31 -19 -52 -4 -20 -13 -38 -20 -41 -8 -3 -17 -19 -21 -36 -3
-16 -12 -35 -20 -41 -8 -6 -17 -24 -20 -40 -3 -16 -12 -34 -20 -40 -7 -6 -16
-26 -19 -44 -4 -19 -13 -39 -21 -46 -7 -6 -17 -24 -20 -40 -3 -16 -12 -31 -20
-33 -7 -3 -16 -20 -20 -37 -4 -17 -13 -34 -21 -37 -8 -3 -14 -13 -14 -23 0 -9
-9 -28 -19 -42 -11 -13 -23 -36 -26 -51 -4 -14 -13 -31 -20 -37 -8 -6 -17 -24
-20 -40 -3 -16 -13 -34 -20 -40 -8 -7 -17 -27 -21 -46 -3 -18 -12 -38 -19 -44
-8 -6 -17 -25 -20 -41 -4 -16 -10 -31 -15 -34 -5 -3 -23 -36 -40 -73 -18 -37
-36 -74 -41 -82 -5 -8 -16 -28 -25 -45 -8 -16 -26 -48 -40 -70 -13 -22 -31
-54 -39 -72 -8 -17 -19 -34 -24 -37 -5 -4 -13 -21 -17 -39 -3 -17 -15 -43 -25
-56 -11 -13 -19 -31 -19 -41 0 -9 -9 -25 -20 -35 -11 -10 -20 -27 -20 -37 0
-11 -9 -31 -20 -45 -11 -14 -20 -33 -20 -42 0 -9 -9 -29 -20 -46 -11 -16 -20
-37 -20 -46 0 -9 -9 -24 -20 -34 -11 -10 -20 -26 -20 -35 0 -9 -9 -25 -20 -35
-11 -10 -20 -25 -20 -32 0 -8 -9 -26 -20 -40 -11 -14 -20 -34 -20 -43 0 -10
-7 -23 -15 -30 -8 -6 -17 -22 -21 -33 -4 -12 -15 -33 -25 -46 -11 -13 -19 -31
-19 -41 0 -10 -9 -29 -20 -43 -11 -14 -20 -33 -20 -42 0 -9 -9 -28 -20 -42
-11 -14 -20 -33 -20 -43 0 -10 -9 -29 -20 -43 -11 -14 -20 -32 -20 -40 0 -8
-9 -26 -20 -40 -11 -14 -20 -32 -20 -40 0 -7 -9 -22 -20 -32 -11 -10 -20 -24
-20 -30 0 -7 -9 -24 -20 -38 -11 -14 -20 -32 -20 -40 0 -7 -9 -24 -20 -37 -11
-13 -20 -33 -20 -45 0 -12 -8 -33 -19 -46 -10 -13 -21 -34 -25 -46 -4 -11 -13
-27 -21 -33 -8 -7 -15 -21 -15 -31 0 -11 -9 -27 -20 -36 -11 -10 -20 -25 -20
-34 0 -9 -9 -26 -19 -38 -23 -27 -36 -103 -22 -130 6 -10 31 -27 55 -36 41
-16 48 -16 99 -1 41 12 99 16 221 16 156 0 170 2 214 24 43 22 132 101 132
117 0 4 20 28 45 55 25 26 45 50 45 53 0 4 30 38 66 76 36 39 84 94 106 123
22 28 44 52 48 52 4 0 12 11 18 24 10 22 66 87 234 268 39 42 74 82 79 89 7
12 41 50 215 238 34 36 65 74 70 83 5 9 32 41 60 70 28 29 55 60 60 69 9 17
79 97 175 203 31 33 60 68 65 77 13 24 108 132 198 225 44 45 84 90 89 100 6
10 24 32 41 49 17 17 60 65 96 106 36 41 82 92 103 114 20 21 37 42 37 46 0 4
28 37 63 72 75 77 232 247 278 302 19 22 42 46 52 53 9 7 41 43 71 80 29 37
65 80 80 95 14 15 26 31 26 35 0 4 26 34 58 67 31 34 66 73 77 89 11 15 39 47
63 72 23 24 42 47 42 52 0 4 28 37 63 73 34 36 96 105 137 154 81 96 170 197
279 315 38 41 92 100 119 131 28 32 58 66 68 76 11 11 26 30 34 43 8 13 24 33
35 44 11 12 41 46 65 76 25 30 69 79 98 109 28 30 52 58 52 63 0 4 9 17 20 28
10 10 50 54 87 97 37 43 81 92 99 108 18 17 49 50 69 75 21 25 59 69 86 98 27
29 49 57 49 61 0 4 11 20 25 35 14 15 25 32 25 38 0 12 6 20 75 89 40 41 52
47 101 53 69 8 180 -2 216 -20 14 -8 59 -17 100 -20 40 -4 85 -13 100 -20 16
-8 59 -14 103 -14 42 0 90 -6 109 -14 18 -7 53 -17 77 -20 43 -7 78 -20 151
-57 20 -11 45 -19 56 -19 10 0 27 -7 38 -15 10 -8 28 -15 39 -15 11 0 38 -9
60 -20 22 -11 49 -20 60 -20 11 0 29 -7 39 -15 11 -8 31 -15 46 -15 14 0 42
-9 63 -20 20 -11 43 -20 51 -20 8 0 27 -6 43 -14 56 -28 120 -56 128 -56 8 0
58 -22 134 -58 19 -10 57 -32 85 -49 28 -18 56 -33 62 -33 6 0 17 -6 23 -14 7
-8 27 -17 45 -20 19 -4 39 -13 46 -21 7 -8 18 -15 24 -15 6 0 34 -15 61 -32
28 -17 69 -42 93 -55 24 -13 64 -39 89 -58 25 -19 50 -35 56 -35 5 0 37 -22
71 -49 58 -46 137 -102 346 -245 139 -95 260 -195 409 -336 127 -121 335 -338
416 -435 22 -27 45 -53 50 -59 40 -42 145 -169 170 -206 17 -25 33 -49 38 -55
4 -5 30 -39 57 -75 28 -36 62 -80 77 -98 42 -50 78 -101 113 -159 17 -29 35
-53 39 -53 3 0 12 -12 19 -27 6 -16 23 -46 37 -68 13 -22 32 -53 40 -70 9 -16
27 -48 41 -70 13 -22 32 -57 41 -77 9 -21 19 -38 24 -38 4 0 10 -13 14 -30 4
-16 10 -32 15 -35 4 -3 26 -43 49 -89 23 -47 46 -88 51 -91 6 -3 10 -15 10
-27 0 -11 9 -31 20 -45 11 -14 20 -35 20 -45 0 -11 9 -31 20 -45 11 -14 20
-33 20 -43 0 -9 9 -27 20 -40 11 -13 20 -30 20 -37 0 -8 9 -26 20 -40 11 -14
20 -35 20 -47 0 -11 9 -34 20 -51 11 -16 20 -42 20 -56 0 -14 9 -36 20 -49 11
-13 20 -37 20 -53 0 -17 7 -38 15 -47 9 -10 19 -35 22 -56 3 -22 12 -46 19
-55 8 -8 18 -36 22 -61 5 -25 16 -56 25 -69 10 -13 17 -39 17 -59 0 -19 9 -48
20 -65 11 -16 20 -47 20 -68 0 -20 9 -54 20 -74 11 -21 20 -56 20 -78 0 -22 9
-60 20 -84 11 -24 20 -63 20 -87 0 -25 9 -70 20 -101 11 -32 20 -80 20 -108 0
-31 8 -64 20 -88 14 -26 20 -56 20 -105 0 -38 9 -102 20 -143 13 -49 20 -107
20 -174 0 -55 7 -131 15 -170 8 -38 15 -97 15 -130 1 -70 13 -142 27 -156 6
-6 1435 -10 3969 -9 l3958 0 28 27 c25 24 28 33 28 95 0 39 -7 84 -15 105 -12
27 -17 94 -21 267 -4 161 -10 245 -20 276 -8 25 -17 97 -20 160 -3 63 -12 142
-20 175 -8 33 -18 107 -23 165 -5 58 -16 123 -24 145 -9 22 -16 66 -17 97 0
39 -6 68 -20 90 -13 21 -20 51 -20 83 0 30 -6 60 -16 74 -10 13 -18 51 -21 89
-3 37 -13 88 -24 114 -10 26 -19 65 -19 87 0 23 -9 58 -20 78 -11 21 -20 55
-20 75 0 21 -9 52 -20 70 -11 18 -20 45 -20 61 0 15 -9 44 -20 64 -11 21 -20
55 -20 77 0 22 -7 47 -16 57 -9 10 -18 37 -21 61 -4 23 -15 56 -25 73 -10 16
-18 45 -18 64 0 19 -7 42 -15 51 -9 10 -19 35 -22 56 -3 22 -14 50 -25 63 -10
13 -18 34 -18 47 0 13 -9 41 -20 61 -11 21 -20 51 -20 68 0 16 -9 44 -20 60
-11 17 -20 44 -20 61 0 18 -8 38 -20 49 -11 10 -20 25 -20 34 0 9 -9 30 -20
46 -11 17 -20 37 -20 46 0 9 -9 28 -20 42 -11 14 -20 36 -20 50 0 13 -9 36
-20 50 -11 14 -20 34 -20 45 0 10 -9 27 -20 37 -11 10 -20 25 -20 34 0 9 -9
30 -20 46 -11 17 -20 39 -20 51 0 12 -9 31 -20 44 -11 13 -20 31 -20 41 0 10
-4 20 -9 24 -12 7 -71 124 -71 140 0 7 -9 24 -20 38 -11 14 -20 32 -20 40 0 7
-9 22 -20 32 -11 10 -20 26 -20 35 0 9 -9 25 -20 35 -11 10 -20 28 -20 40 0
13 -7 28 -14 35 -8 6 -20 28 -27 48 -7 20 -27 58 -46 84 -18 26 -33 52 -33 56
0 5 -9 17 -20 27 -11 10 -20 26 -20 35 0 9 -9 25 -20 35 -11 10 -20 26 -20 35
0 9 -9 25 -20 35 -11 10 -20 22 -20 27 0 5 -20 35 -45 66 -25 31 -51 66 -60
77 -8 11 -24 32 -35 47 -11 14 -20 31 -20 36 0 5 -7 15 -16 22 -8 8 -21 28
-29 47 -8 18 -19 33 -24 33 -6 0 -11 6 -11 13 0 15 -71 112 -126 173 -21 23
-40 48 -43 55 -2 8 -20 35 -40 61 -20 25 -49 65 -65 87 -17 23 -33 41 -38 41
-4 0 -8 6 -8 13 0 8 -21 36 -46 63 -25 27 -98 105 -162 173 -65 69 -153 163
-197 210 -45 47 -102 111 -127 141 -52 62 -206 220 -256 263 -18 15 -76 64
-130 109 -53 45 -99 85 -102 89 -3 3 -30 22 -60 42 -30 20 -68 48 -85 62 -45
40 -131 105 -212 159 -40 26 -77 54 -84 62 -6 8 -15 14 -20 14 -11 0 -94 57
-174 120 -71 56 -223 160 -233 160 -4 0 -31 16 -61 35 -29 19 -56 35 -60 35
-3 0 -30 16 -60 35 -29 19 -56 35 -60 35 -3 0 -29 15 -56 33 -28 17 -75 45
-105 60 -30 16 -62 32 -70 36 -14 8 -50 24 -150 68 -19 9 -52 24 -72 34 -20
11 -43 19 -51 19 -8 0 -20 7 -27 15 -7 8 -21 15 -31 15 -11 0 -36 9 -56 20
-21 11 -43 20 -50 20 -6 0 -24 6 -40 14 -15 8 -53 24 -83 36 -30 12 -68 28
-83 36 -16 8 -34 14 -40 14 -7 0 -29 9 -50 20 -20 11 -44 20 -53 20 -9 0 -28
6 -42 14 -33 18 -114 45 -167 56 -47 10 -126 36 -173 56 -18 8 -49 14 -70 14
-20 0 -50 7 -66 15 -16 8 -54 18 -85 21 -31 4 -68 13 -83 20 -15 8 -53 14 -85
14 -32 0 -71 7 -87 15 -16 8 -54 18 -85 21 -31 3 -72 12 -91 19 -19 8 -78 16
-130 18 -53 2 -106 9 -119 16 -12 7 -79 16 -149 21 -70 5 -143 13 -162 19 -25
8 -1130 11 -3815 11 l-3780 0 -47 -30z" fill="#8a6820" fill-opacity="0.5"/>
  <path d="M5198 17040 c-27 -17 -48 -36 -48 -44 0 -8 -7 -22 -16 -31 -9 -9 -21
-35 -26 -58 -5 -23 -15 -49 -22 -57 -8 -8 -17 -29 -21 -47 -3 -17 -13 -37 -21
-44 -8 -6 -14 -19 -14 -29 0 -9 -9 -29 -20 -43 -11 -14 -20 -29 -20 -34 0 -15
-63 -136 -101 -193 -9 -14 -20 -37 -24 -50 -4 -14 -13 -32 -20 -40 -8 -8 -17
-28 -21 -43 -3 -16 -13 -31 -20 -34 -8 -3 -14 -13 -14 -22 0 -9 -8 -28 -17
-41 -28 -39 -73 -133 -73 -151 0 -9 -6 -19 -14 -22 -7 -3 -16 -21 -20 -40 -4
-19 -13 -40 -21 -47 -8 -7 -15 -18 -15 -24 0 -14 -49 -113 -73 -146 -9 -13
-17 -30 -17 -37 0 -7 -9 -22 -20 -33 -11 -11 -20 -29 -20 -40 0 -11 -6 -23
-14 -26 -8 -3 -17 -17 -21 -31 -3 -15 -15 -38 -26 -51 -10 -14 -19 -30 -19
-37 0 -7 -6 -18 -14 -24 -8 -7 -17 -24 -21 -39 -4 -15 -12 -34 -20 -42 -7 -8
-18 -32 -24 -52 -7 -20 -19 -42 -27 -48 -7 -7 -14 -23 -14 -36 0 -12 -5 -26
-11 -30 -6 -3 -17 -21 -25 -38 -8 -17 -18 -38 -23 -46 -8 -13 -48 -99 -66
-140 -3 -8 -17 -33 -30 -55 -14 -22 -31 -54 -39 -71 -8 -17 -22 -36 -30 -44
-9 -7 -16 -23 -16 -36 0 -12 -4 -25 -9 -29 -14 -8 -71 -125 -71 -144 0 -9 -9
-24 -20 -34 -11 -9 -20 -26 -20 -38 0 -11 -9 -32 -20 -46 -11 -14 -20 -33 -20
-43 0 -9 -9 -27 -20 -40 -11 -13 -20 -28 -20 -35 0 -7 -9 -22 -20 -35 -11 -13
-20 -30 -20 -37 0 -8 -9 -26 -20 -40 -11 -14 -20 -34 -20 -44 0 -10 -4 -20 -9
-24 -12 -7 -71 -124 -71 -140 0 -7 -9 -22 -20 -35 -11 -13 -20 -31 -20 -40 0
-10 -9 -29 -20 -43 -11 -14 -20 -29 -20 -35 0 -5 -9 -19 -20 -32 -11 -13 -20
-31 -20 -41 0 -10 -4 -21 -10 -24 -5 -3 -28 -43 -50 -88 -42 -85 -52 -104 -82
-149 -10 -15 -18 -34 -18 -41 0 -8 -9 -26 -20 -40 -11 -14 -20 -32 -20 -40 0
-8 -8 -25 -19 -38 -10 -13 -22 -39 -25 -56 -4 -18 -11 -33 -16 -33 -5 0 -14
-15 -20 -34 -6 -19 -18 -40 -26 -46 -7 -7 -14 -20 -14 -30 0 -9 -9 -29 -20
-43 -11 -14 -20 -32 -20 -40 0 -7 -9 -22 -19 -31 -10 -10 -22 -32 -25 -51 -4
-18 -13 -38 -21 -45 -8 -7 -15 -18 -15 -25 0 -7 -8 -23 -19 -36 -10 -13 -22
-35 -26 -49 -4 -14 -13 -32 -20 -40 -7 -8 -16 -26 -20 -40 -4 -14 -13 -32 -20
-40 -7 -8 -15 -31 -19 -52 -4 -20 -13 -38 -20 -41 -8 -3 -17 -19 -21 -36 -3
-16 -12 -35 -20 -41 -8 -6 -17 -24 -20 -40 -3 -16 -12 -34 -20 -40 -7 -6 -16
-26 -19 -44 -4 -19 -13 -39 -21 -46 -7 -6 -17 -24 -20 -40 -3 -16 -12 -31 -20
-33 -7 -3 -16 -20 -20 -37 -4 -17 -13 -34 -21 -37 -8 -3 -14 -13 -14 -23 0 -9
-9 -28 -19 -42 -11 -13 -23 -36 -26 -51 -4 -14 -13 -31 -20 -37 -8 -6 -17 -24
-20 -40 -3 -16 -13 -34 -20 -40 -8 -7 -17 -27 -21 -46 -3 -18 -12 -38 -19 -44
-8 -6 -17 -25 -20 -41 -4 -16 -10 -31 -15 -34 -5 -3 -23 -36 -40 -73 -18 -37
-36 -74 -41 -82 -5 -8 -16 -28 -25 -45 -8 -16 -26 -48 -40 -70 -13 -22 -31
-54 -39 -72 -8 -17 -19 -34 -24 -37 -5 -4 -13 -21 -17 -39 -3 -17 -15 -43 -25
-56 -11 -13 -19 -31 -19 -41 0 -9 -9 -25 -20 -35 -11 -10 -20 -27 -20 -37 0
-11 -9 -31 -20 -45 -11 -14 -20 -33 -20 -42 0 -9 -9 -29 -20 -46 -11 -16 -20
-37 -20 -46 0 -9 -9 -24 -20 -34 -11 -10 -20 -26 -20 -35 0 -9 -9 -25 -20 -35
-11 -10 -20 -25 -20 -32 0 -8 -9 -26 -20 -40 -11 -14 -20 -34 -20 -43 0 -10
-7 -23 -15 -30 -8 -6 -17 -22 -21 -33 -4 -12 -15 -33 -25 -46 -11 -13 -19 -31
-19 -41 0 -10 -9 -29 -20 -43 -11 -14 -20 -33 -20 -42 0 -9 -9 -28 -20 -42
-11 -14 -20 -33 -20 -43 0 -10 -9 -29 -20 -43 -11 -14 -20 -32 -20 -40 0 -8
-9 -26 -20 -40 -11 -14 -20 -32 -20 -40 0 -7 -9 -22 -20 -32 -11 -10 -20 -24
-20 -30 0 -7 -9 -24 -20 -38 -11 -14 -20 -32 -20 -40 0 -7 -9 -24 -20 -37 -11
-13 -20 -33 -20 -45 0 -12 -8 -33 -19 -46 -10 -13 -21 -34 -25 -46 -4 -11 -13
-27 -21 -33 -8 -7 -15 -21 -15 -31 0 -11 -9 -27 -20 -36 -11 -10 -20 -25 -20
-34 0 -9 -9 -26 -19 -38 -23 -27 -36 -103 -22 -130 6 -10 31 -27 55 -36 41
-16 48 -16 99 -1 41 12 99 16 221 16 156 0 170 2 214 24 43 22 132 101 132
117 0 4 20 28 45 55 25 26 45 50 45 53 0 4 30 38 66 76 36 39 84 94 106 123
22 28 44 52 48 52 4 0 12 11 18 24 10 22 66 87 234 268 39 42 74 82 79 89 7
12 41 50 215 238 34 36 65 74 70 83 5 9 32 41 60 70 28 29 55 60 60 69 9 17
79 97 175 203 31 33 60 68 65 77 13 24 108 132 198 225 44 45 84 90 89 100 6
10 24 32 41 49 17 17 60 65 96 106 36 41 82 92 103 114 20 21 37 42 37 46 0 4
28 37 63 72 75 77 232 247 278 302 19 22 42 46 52 53 9 7 41 43 71 80 29 37
65 80 80 95 14 15 26 31 26 35 0 4 26 34 58 67 31 34 66 73 77 89 11 15 39 47
63 72 23 24 42 47 42 52 0 4 28 37 63 73 34 36 96 105 137 154 81 96 170 197
279 315 38 41 92 100 119 131 28 32 58 66 68 76 11 11 26 30 34 43 8 13 24 33
35 44 11 12 41 46 65 76 25 30 69 79 98 109 28 30 52 58 52 63 0 4 9 17 20 28
10 10 50 54 87 97 37 43 81 92 99 108 18 17 49 50 69 75 21 25 59 69 86 98 27
29 49 57 49 61 0 4 11 20 25 35 14 15 25 32 25 38 0 12 6 20 75 89 40 41 52
47 101 53 69 8 180 -2 216 -20 14 -8 59 -17 100 -20 40 -4 85 -13 100 -20 16
-8 59 -14 103 -14 42 0 90 -6 109 -14 18 -7 53 -17 77 -20 43 -7 78 -20 151
-57 20 -11 45 -19 56 -19 10 0 27 -7 38 -15 10 -8 28 -15 39 -15 11 0 38 -9
60 -20 22 -11 49 -20 60 -20 11 0 29 -7 39 -15 11 -8 31 -15 46 -15 14 0 42
-9 63 -20 20 -11 43 -20 51 -20 8 0 27 -6 43 -14 56 -28 120 -56 128 -56 8 0
58 -22 134 -58 19 -10 57 -32 85 -49 28 -18 56 -33 62 -33 6 0 17 -6 23 -14 7
-8 27 -17 45 -20 19 -4 39 -13 46 -21 7 -8 18 -15 24 -15 6 0 34 -15 61 -32
28 -17 69 -42 93 -55 24 -13 64 -39 89 -58 25 -19 50 -35 56 -35 5 0 37 -22
71 -49 58 -46 137 -102 346 -245 139 -95 260 -195 409 -336 127 -121 335 -338
416 -435 22 -27 45 -53 50 -59 40 -42 145 -169 170 -206 17 -25 33 -49 38 -55
4 -5 30 -39 57 -75 28 -36 62 -80 77 -98 42 -50 78 -101 113 -159 17 -29 35
-53 39 -53 3 0 12 -12 19 -27 6 -16 23 -46 37 -68 13 -22 32 -53 40 -70 9 -16
27 -48 41 -70 13 -22 32 -57 41 -77 9 -21 19 -38 24 -38 4 0 10 -13 14 -30 4
-16 10 -32 15 -35 4 -3 26 -43 49 -89 23 -47 46 -88 51 -91 6 -3 10 -15 10
-27 0 -11 9 -31 20 -45 11 -14 20 -35 20 -45 0 -11 9 -31 20 -45 11 -14 20
-33 20 -43 0 -9 9 -27 20 -40 11 -13 20 -30 20 -37 0 -8 9 -26 20 -40 11 -14
20 -35 20 -47 0 -11 9 -34 20 -51 11 -16 20 -42 20 -56 0 -14 9 -36 20 -49 11
-13 20 -37 20 -53 0 -17 7 -38 15 -47 9 -10 19 -35 22 -56 3 -22 12 -46 19
-55 8 -8 18 -36 22 -61 5 -25 16 -56 25 -69 10 -13 17 -39 17 -59 0 -19 9 -48
20 -65 11 -16 20 -47 20 -68 0 -20 9 -54 20 -74 11 -21 20 -56 20 -78 0 -22 9
-60 20 -84 11 -24 20 -63 20 -87 0 -25 9 -70 20 -101 11 -32 20 -80 20 -108 0
-31 8 -64 20 -88 14 -26 20 -56 20 -105 0 -38 9 -102 20 -143 13 -49 20 -107
20 -174 0 -55 7 -131 15 -170 8 -38 15 -97 15 -130 1 -70 13 -142 27 -156 6
-6 1435 -10 3969 -9 l3958 0 28 27 c25 24 28 33 28 95 0 39 -7 84 -15 105 -12
27 -17 94 -21 267 -4 161 -10 245 -20 276 -8 25 -17 97 -20 160 -3 63 -12 142
-20 175 -8 33 -18 107 -23 165 -5 58 -16 123 -24 145 -9 22 -16 66 -17 97 0
39 -6 68 -20 90 -13 21 -20 51 -20 83 0 30 -6 60 -16 74 -10 13 -18 51 -21 89
-3 37 -13 88 -24 114 -10 26 -19 65 -19 87 0 23 -9 58 -20 78 -11 21 -20 55
-20 75 0 21 -9 52 -20 70 -11 18 -20 45 -20 61 0 15 -9 44 -20 64 -11 21 -20
55 -20 77 0 22 -7 47 -16 57 -9 10 -18 37 -21 61 -4 23 -15 56 -25 73 -10 16
-18 45 -18 64 0 19 -7 42 -15 51 -9 10 -19 35 -22 56 -3 22 -14 50 -25 63 -10
13 -18 34 -18 47 0 13 -9 41 -20 61 -11 21 -20 51 -20 68 0 16 -9 44 -20 60
-11 17 -20 44 -20 61 0 18 -8 38 -20 49 -11 10 -20 25 -20 34 0 9 -9 30 -20
46 -11 17 -20 37 -20 46 0 9 -9 28 -20 42 -11 14 -20 36 -20 50 0 13 -9 36
-20 50 -11 14 -20 34 -20 45 0 10 -9 27 -20 37 -11 10 -20 25 -20 34 0 9 -9
30 -20 46 -11 17 -20 39 -20 51 0 12 -9 31 -20 44 -11 13 -20 31 -20 41 0 10
-4 20 -9 24 -12 7 -71 124 -71 140 0 7 -9 24 -20 38 -11 14 -20 32 -20 40 0 7
-9 22 -20 32 -11 10 -20 26 -20 35 0 9 -9 25 -20 35 -11 10 -20 28 -20 40 0
13 -7 28 -14 35 -8 6 -20 28 -27 48 -7 20 -27 58 -46 84 -18 26 -33 52 -33 56
0 5 -9 17 -20 27 -11 10 -20 26 -20 35 0 9 -9 25 -20 35 -11 10 -20 26 -20 35
0 9 -9 25 -20 35 -11 10 -20 22 -20 27 0 5 -20 35 -45 66 -25 31 -51 66 -60
77 -8 11 -24 32 -35 47 -11 14 -20 31 -20 36 0 5 -7 15 -16 22 -8 8 -21 28
-29 47 -8 18 -19 33 -24 33 -6 0 -11 6 -11 13 0 15 -71 112 -126 173 -21 23
-40 48 -43 55 -2 8 -20 35 -40 61 -20 25 -49 65 -65 87 -17 23 -33 41 -38 41
-4 0 -8 6 -8 13 0 8 -21 36 -46 63 -25 27 -98 105 -162 173 -65 69 -153 163
-197 210 -45 47 -102 111 -127 141 -52 62 -206 220 -256 263 -18 15 -76 64
-130 109 -53 45 -99 85 -102 89 -3 3 -30 22 -60 42 -30 20 -68 48 -85 62 -45
40 -131 105 -212 159 -40 26 -77 54 -84 62 -6 8 -15 14 -20 14 -11 0 -94 57
-174 120 -71 56 -223 160 -233 160 -4 0 -31 16 -61 35 -29 19 -56 35 -60 35
-3 0 -30 16 -60 35 -29 19 -56 35 -60 35 -3 0 -29 15 -56 33 -28 17 -75 45
-105 60 -30 16 -62 32 -70 36 -14 8 -50 24 -150 68 -19 9 -52 24 -72 34 -20
11 -43 19 -51 19 -8 0 -20 7 -27 15 -7 8 -21 15 -31 15 -11 0 -36 9 -56 20
-21 11 -43 20 -50 20 -6 0 -24 6 -40 14 -15 8 -53 24 -83 36 -30 12 -68 28
-83 36 -16 8 -34 14 -40 14 -7 0 -29 9 -50 20 -20 11 -44 20 -53 20 -9 0 -28
6 -42 14 -33 18 -114 45 -167 56 -47 10 -126 36 -173 56 -18 8 -49 14 -70 14
-20 0 -50 7 -66 15 -16 8 -54 18 -85 21 -31 4 -68 13 -83 20 -15 8 -53 14 -85
14 -32 0 -71 7 -87 15 -16 8 -54 18 -85 21 -31 3 -72 12 -91 19 -19 8 -78 16
-130 18 -53 2 -106 9 -119 16 -12 7 -79 16 -149 21 -70 5 -143 13 -162 19 -25
8 -1130 11 -3815 11 l-3780 0 -47 -30z" fill="none" stroke="url(#sThread1)" stroke-width="30" stroke-dasharray="30,15"/>
  <path d="M5198 17040 c-27 -17 -48 -36 -48 -44 0 -8 -7 -22 -16 -31 -9 -9 -21
-35 -26 -58 -5 -23 -15 -49 -22 -57 -8 -8 -17 -29 -21 -47 -3 -17 -13 -37 -21
-44 -8 -6 -14 -19 -14 -29 0 -9 -9 -29 -20 -43 -11 -14 -20 -29 -20 -34 0 -15
-63 -136 -101 -193 -9 -14 -20 -37 -24 -50 -4 -14 -13 -32 -20 -40 -8 -8 -17
-28 -21 -43 -3 -16 -13 -31 -20 -34 -8 -3 -14 -13 -14 -22 0 -9 -8 -28 -17
-41 -28 -39 -73 -133 -73 -151 0 -9 -6 -19 -14 -22 -7 -3 -16 -21 -20 -40 -4
-19 -13 -40 -21 -47 -8 -7 -15 -18 -15 -24 0 -14 -49 -113 -73 -146 -9 -13
-17 -30 -17 -37 0 -7 -9 -22 -20 -33 -11 -11 -20 -29 -20 -40 0 -11 -6 -23
-14 -26 -8 -3 -17 -17 -21 -31 -3 -15 -15 -38 -26 -51 -10 -14 -19 -30 -19
-37 0 -7 -6 -18 -14 -24 -8 -7 -17 -24 -21 -39 -4 -15 -12 -34 -20 -42 -7 -8
-18 -32 -24 -52 -7 -20 -19 -42 -27 -48 -7 -7 -14 -23 -14 -36 0 -12 -5 -26
-11 -30 -6 -3 -17 -21 -25 -38 -8 -17 -18 -38 -23 -46 -8 -13 -48 -99 -66
-140 -3 -8 -17 -33 -30 -55 -14 -22 -31 -54 -39 -71 -8 -17 -22 -36 -30 -44
-9 -7 -16 -23 -16 -36 0 -12 -4 -25 -9 -29 -14 -8 -71 -125 -71 -144 0 -9 -9
-24 -20 -34 -11 -9 -20 -26 -20 -38 0 -11 -9 -32 -20 -46 -11 -14 -20 -33 -20
-43 0 -9 -9 -27 -20 -40 -11 -13 -20 -28 -20 -35 0 -7 -9 -22 -20 -35 -11 -13
-20 -30 -20 -37 0 -8 -9 -26 -20 -40 -11 -14 -20 -34 -20 -44 0 -10 -4 -20 -9
-24 -12 -7 -71 -124 -71 -140 0 -7 -9 -22 -20 -35 -11 -13 -20 -31 -20 -40 0
-10 -9 -29 -20 -43 -11 -14 -20 -29 -20 -35 0 -5 -9 -19 -20 -32 -11 -13 -20
-31 -20 -41 0 -10 -4 -21 -10 -24 -5 -3 -28 -43 -50 -88 -42 -85 -52 -104 -82
-149 -10 -15 -18 -34 -18 -41 0 -8 -9 -26 -20 -40 -11 -14 -20 -32 -20 -40 0
-8 -8 -25 -19 -38 -10 -13 -22 -39 -25 -56 -4 -18 -11 -33 -16 -33 -5 0 -14
-15 -20 -34 -6 -19 -18 -40 -26 -46 -7 -7 -14 -20 -14 -30 0 -9 -9 -29 -20
-43 -11 -14 -20 -32 -20 -40 0 -7 -9 -22 -19 -31 -10 -10 -22 -32 -25 -51 -4
-18 -13 -38 -21 -45 -8 -7 -15 -18 -15 -25 0 -7 -8 -23 -19 -36 -10 -13 -22
-35 -26 -49 -4 -14 -13 -32 -20 -40 -7 -8 -16 -26 -20 -40 -4 -14 -13 -32 -20
-40 -7 -8 -15 -31 -19 -52 -4 -20 -13 -38 -20 -41 -8 -3 -17 -19 -21 -36 -3
-16 -12 -35 -20 -41 -8 -6 -17 -24 -20 -40 -3 -16 -12 -34 -20 -40 -7 -6 -16
-26 -19 -44 -4 -19 -13 -39 -21 -46 -7 -6 -17 -24 -20 -40 -3 -16 -12 -31 -20
-33 -7 -3 -16 -20 -20 -37 -4 -17 -13 -34 -21 -37 -8 -3 -14 -13 -14 -23 0 -9
-9 -28 -19 -42 -11 -13 -23 -36 -26 -51 -4 -14 -13 -31 -20 -37 -8 -6 -17 -24
-20 -40 -3 -16 -13 -34 -20 -40 -8 -7 -17 -27 -21 -46 -3 -18 -12 -38 -19 -44
-8 -6 -17 -25 -20 -41 -4 -16 -10 -31 -15 -34 -5 -3 -23 -36 -40 -73 -18 -37
-36 -74 -41 -82 -5 -8 -16 -28 -25 -45 -8 -16 -26 -48 -40 -70 -13 -22 -31
-54 -39 -72 -8 -17 -19 -34 -24 -37 -5 -4 -13 -21 -17 -39 -3 -17 -15 -43 -25
-56 -11 -13 -19 -31 -19 -41 0 -9 -9 -25 -20 -35 -11 -10 -20 -27 -20 -37 0
-11 -9 -31 -20 -45 -11 -14 -20 -33 -20 -42 0 -9 -9 -29 -20 -46 -11 -16 -20
-37 -20 -46 0 -9 -9 -24 -20 -34 -11 -10 -20 -26 -20 -35 0 -9 -9 -25 -20 -35
-11 -10 -20 -25 -20 -32 0 -8 -9 -26 -20 -40 -11 -14 -20 -34 -20 -43 0 -10
-7 -23 -15 -30 -8 -6 -17 -22 -21 -33 -4 -12 -15 -33 -25 -46 -11 -13 -19 -31
-19 -41 0 -10 -9 -29 -20 -43 -11 -14 -20 -33 -20 -42 0 -9 -9 -28 -20 -42
-11 -14 -20 -33 -20 -43 0 -10 -9 -29 -20 -43 -11 -14 -20 -32 -20 -40 0 -8
-9 -26 -20 -40 -11 -14 -20 -32 -20 -40 0 -7 -9 -22 -20 -32 -11 -10 -20 -24
-20 -30 0 -7 -9 -24 -20 -38 -11 -14 -20 -32 -20 -40 0 -7 -9 -24 -20 -37 -11
-13 -20 -33 -20 -45 0 -12 -8 -33 -19 -46 -10 -13 -21 -34 -25 -46 -4 -11 -13
-27 -21 -33 -8 -7 -15 -21 -15 -31 0 -11 -9 -27 -20 -36 -11 -10 -20 -25 -20
-34 0 -9 -9 -26 -19 -38 -23 -27 -36 -103 -22 -130 6 -10 31 -27 55 -36 41
-16 48 -16 99 -1 41 12 99 16 221 16 156 0 170 2 214 24 43 22 132 101 132
117 0 4 20 28 45 55 25 26 45 50 45 53 0 4 30 38 66 76 36 39 84 94 106 123
22 28 44 52 48 52 4 0 12 11 18 24 10 22 66 87 234 268 39 42 74 82 79 89 7
12 41 50 215 238 34 36 65 74 70 83 5 9 32 41 60 70 28 29 55 60 60 69 9 17
79 97 175 203 31 33 60 68 65 77 13 24 108 132 198 225 44 45 84 90 89 100 6
10 24 32 41 49 17 17 60 65 96 106 36 41 82 92 103 114 20 21 37 42 37 46 0 4
28 37 63 72 75 77 232 247 278 302 19 22 42 46 52 53 9 7 41 43 71 80 29 37
65 80 80 95 14 15 26 31 26 35 0 4 26 34 58 67 31 34 66 73 77 89 11 15 39 47
63 72 23 24 42 47 42 52 0 4 28 37 63 73 34 36 96 105 137 154 81 96 170 197
279 315 38 41 92 100 119 131 28 32 58 66 68 76 11 11 26 30 34 43 8 13 24 33
35 44 11 12 41 46 65 76 25 30 69 79 98 109 28 30 52 58 52 63 0 4 9 17 20 28
10 10 50 54 87 97 37 43 81 92 99 108 18 17 49 50 69 75 21 25 59 69 86 98 27
29 49 57 49 61 0 4 11 20 25 35 14 15 25 32 25 38 0 12 6 20 75 89 40 41 52
47 101 53 69 8 180 -2 216 -20 14 -8 59 -17 100 -20 40 -4 85 -13 100 -20 16
-8 59 -14 103 -14 42 0 90 -6 109 -14 18 -7 53 -17 77 -20 43 -7 78 -20 151
-57 20 -11 45 -19 56 -19 10 0 27 -7 38 -15 10 -8 28 -15 39 -15 11 0 38 -9
60 -20 22 -11 49 -20 60 -20 11 0 29 -7 39 -15 11 -8 31 -15 46 -15 14 0 42
-9 63 -20 20 -11 43 -20 51 -20 8 0 27 -6 43 -14 56 -28 120 -56 128 -56 8 0
58 -22 134 -58 19 -10 57 -32 85 -49 28 -18 56 -33 62 -33 6 0 17 -6 23 -14 7
-8 27 -17 45 -20 19 -4 39 -13 46 -21 7 -8 18 -15 24 -15 6 0 34 -15 61 -32
28 -17 69 -42 93 -55 24 -13 64 -39 89 -58 25 -19 50 -35 56 -35 5 0 37 -22
71 -49 58 -46 137 -102 346 -245 139 -95 260 -195 409 -336 127 -121 335 -338
416 -435 22 -27 45 -53 50 -59 40 -42 145 -169 170 -206 17 -25 33 -49 38 -55
4 -5 30 -39 57 -75 28 -36 62 -80 77 -98 42 -50 78 -101 113 -159 17 -29 35
-53 39 -53 3 0 12 -12 19 -27 6 -16 23 -46 37 -68 13 -22 32 -53 40 -70 9 -16
27 -48 41 -70 13 -22 32 -57 41 -77 9 -21 19 -38 24 -38 4 0 10 -13 14 -30 4
-16 10 -32 15 -35 4 -3 26 -43 49 -89 23 -47 46 -88 51 -91 6 -3 10 -15 10
-27 0 -11 9 -31 20 -45 11 -14 20 -35 20 -45 0 -11 9 -31 20 -45 11 -14 20
-33 20 -43 0 -9 9 -27 20 -40 11 -13 20 -30 20 -37 0 -8 9 -26 20 -40 11 -14
20 -35 20 -47 0 -11 9 -34 20 -51 11 -16 20 -42 20 -56 0 -14 9 -36 20 -49 11
-13 20 -37 20 -53 0 -17 7 -38 15 -47 9 -10 19 -35 22 -56 3 -22 12 -46 19
-55 8 -8 18 -36 22 -61 5 -25 16 -56 25 -69 10 -13 17 -39 17 -59 0 -19 9 -48
20 -65 11 -16 20 -47 20 -68 0 -20 9 -54 20 -74 11 -21 20 -56 20 -78 0 -22 9
-60 20 -84 11 -24 20 -63 20 -87 0 -25 9 -70 20 -101 11 -32 20 -80 20 -108 0
-31 8 -64 20 -88 14 -26 20 -56 20 -105 0 -38 9 -102 20 -143 13 -49 20 -107
20 -174 0 -55 7 -131 15 -170 8 -38 15 -97 15 -130 1 -70 13 -142 27 -156 6
-6 1435 -10 3969 -9 l3958 0 28 27 c25 24 28 33 28 95 0 39 -7 84 -15 105 -12
27 -17 94 -21 267 -4 161 -10 245 -20 276 -8 25 -17 97 -20 160 -3 63 -12 142
-20 175 -8 33 -18 107 -23 165 -5 58 -16 123 -24 145 -9 22 -16 66 -17 97 0
39 -6 68 -20 90 -13 21 -20 51 -20 83 0 30 -6 60 -16 74 -10 13 -18 51 -21 89
-3 37 -13 88 -24 114 -10 26 -19 65 -19 87 0 23 -9 58 -20 78 -11 21 -20 55
-20 75 0 21 -9 52 -20 70 -11 18 -20 45 -20 61 0 15 -9 44 -20 64 -11 21 -20
55 -20 77 0 22 -7 47 -16 57 -9 10 -18 37 -21 61 -4 23 -15 56 -25 73 -10 16
-18 45 -18 64 0 19 -7 42 -15 51 -9 10 -19 35 -22 56 -3 22 -14 50 -25 63 -10
13 -18 34 -18 47 0 13 -9 41 -20 61 -11 21 -20 51 -20 68 0 16 -9 44 -20 60
-11 17 -20 44 -20 61 0 18 -8 38 -20 49 -11 10 -20 25 -20 34 0 9 -9 30 -20
46 -11 17 -20 37 -20 46 0 9 -9 28 -20 42 -11 14 -20 36 -20 50 0 13 -9 36
-20 50 -11 14 -20 34 -20 45 0 10 -9 27 -20 37 -11 10 -20 25 -20 34 0 9 -9
30 -20 46 -11 17 -20 39 -20 51 0 12 -9 31 -20 44 -11 13 -20 31 -20 41 0 10
-4 20 -9 24 -12 7 -71 124 -71 140 0 7 -9 24 -20 38 -11 14 -20 32 -20 40 0 7
-9 22 -20 32 -11 10 -20 26 -20 35 0 9 -9 25 -20 35 -11 10 -20 28 -20 40 0
13 -7 28 -14 35 -8 6 -20 28 -27 48 -7 20 -27 58 -46 84 -18 26 -33 52 -33 56
0 5 -9 17 -20 27 -11 10 -20 26 -20 35 0 9 -9 25 -20 35 -11 10 -20 26 -20 35
0 9 -9 25 -20 35 -11 10 -20 22 -20 27 0 5 -20 35 -45 66 -25 31 -51 66 -60
77 -8 11 -24 32 -35 47 -11 14 -20 31 -20 36 0 5 -7 15 -16 22 -8 8 -21 28
-29 47 -8 18 -19 33 -24 33 -6 0 -11 6 -11 13 0 15 -71 112 -126 173 -21 23
-40 48 -43 55 -2 8 -20 35 -40 61 -20 25 -49 65 -65 87 -17 23 -33 41 -38 41
-4 0 -8 6 -8 13 0 8 -21 36 -46 63 -25 27 -98 105 -162 173 -65 69 -153 163
-197 210 -45 47 -102 111 -127 141 -52 62 -206 220 -256 263 -18 15 -76 64
-130 109 -53 45 -99 85 -102 89 -3 3 -30 22 -60 42 -30 20 -68 48 -85 62 -45
40 -131 105 -212 159 -40 26 -77 54 -84 62 -6 8 -15 14 -20 14 -11 0 -94 57
-174 120 -71 56 -223 160 -233 160 -4 0 -31 16 -61 35 -29 19 -56 35 -60 35
-3 0 -30 16 -60 35 -29 19 -56 35 -60 35 -3 0 -29 15 -56 33 -28 17 -75 45
-105 60 -30 16 -62 32 -70 36 -14 8 -50 24 -150 68 -19 9 -52 24 -72 34 -20
11 -43 19 -51 19 -8 0 -20 7 -27 15 -7 8 -21 15 -31 15 -11 0 -36 9 -56 20
-21 11 -43 20 -50 20 -6 0 -24 6 -40 14 -15 8 -53 24 -83 36 -30 12 -68 28
-83 36 -16 8 -34 14 -40 14 -7 0 -29 9 -50 20 -20 11 -44 20 -53 20 -9 0 -28
6 -42 14 -33 18 -114 45 -167 56 -47 10 -126 36 -173 56 -18 8 -49 14 -70 14
-20 0 -50 7 -66 15 -16 8 -54 18 -85 21 -31 4 -68 13 -83 20 -15 8 -53 14 -85
14 -32 0 -71 7 -87 15 -16 8 -54 18 -85 21 -31 3 -72 12 -91 19 -19 8 -78 16
-130 18 -53 2 -106 9 -119 16 -12 7 -79 16 -149 21 -70 5 -143 13 -162 19 -25
8 -1130 11 -3815 11 l-3780 0 -47 -30z" fill="none" stroke="#b89840" stroke-width="14" stroke-dasharray="20,12" opacity="0.5"/>
  
  <!-- LOWER BODY -->
  <path d="M11491 8546 c-20 -21 -22 -32 -20 -107 5 -152 -12 -421 -28 -474 -9
-27 -19 -98 -22 -157 -4 -66 -12 -112 -20 -122 -8 -10 -16 -50 -18 -94 -3 -44
-13 -97 -24 -124 -11 -28 -19 -70 -19 -105 0 -41 -6 -67 -20 -88 -11 -17 -20
-47 -20 -70 0 -23 -9 -53 -20 -70 -12 -19 -20 -47 -20 -75 0 -28 -8 -56 -20
-75 -11 -16 -20 -46 -20 -65 0 -19 -9 -48 -20 -65 -11 -16 -20 -41 -20 -55 0
-14 -9 -38 -20 -55 -11 -16 -20 -39 -20 -50 0 -11 -9 -33 -20 -50 -11 -16 -20
-44 -20 -61 0 -17 -9 -43 -20 -57 -11 -14 -20 -36 -20 -50 0 -13 -9 -36 -20
-50 -11 -14 -20 -34 -20 -45 0 -10 -9 -31 -20 -45 -11 -14 -20 -32 -20 -40 0
-8 -9 -26 -20 -40 -11 -14 -20 -34 -20 -45 0 -10 -8 -27 -19 -36 -10 -9 -21
-34 -25 -55 -3 -21 -13 -44 -21 -51 -8 -7 -15 -21 -15 -32 0 -11 -9 -31 -20
-45 -11 -14 -20 -33 -20 -43 0 -10 -8 -28 -18 -41 -10 -13 -23 -35 -30 -49 -7
-14 -23 -43 -37 -65 -13 -22 -31 -53 -39 -70 -9 -16 -27 -48 -41 -70 -37 -60
-98 -163 -114 -193 -8 -15 -18 -30 -23 -33 -9 -6 -36 -52 -63 -106 -8 -18 -19
-33 -24 -33 -6 0 -13 -10 -17 -22 -3 -13 -21 -41 -39 -63 -17 -22 -36 -47 -41
-56 -5 -9 -23 -34 -41 -55 -17 -22 -71 -88 -119 -149 -48 -60 -100 -123 -114
-140 -15 -16 -70 -77 -121 -135 -111 -123 -440 -455 -519 -522 -79 -66 -95
-78 -190 -143 -47 -32 -92 -64 -100 -71 -46 -43 -77 -68 -114 -91 -71 -44
-119 -77 -148 -104 -16 -14 -46 -36 -69 -50 -22 -13 -60 -39 -84 -56 -24 -18
-65 -44 -91 -58 -26 -14 -52 -29 -58 -34 -6 -5 -22 -12 -36 -16 -14 -4 -44
-20 -67 -35 -22 -16 -52 -31 -65 -35 -12 -4 -25 -10 -28 -14 -13 -15 -71 -51
-83 -51 -8 0 -26 -9 -40 -20 -14 -11 -34 -20 -45 -20 -11 0 -25 -6 -31 -14 -7
-8 -27 -17 -45 -20 -19 -4 -39 -13 -46 -21 -7 -8 -19 -15 -27 -15 -8 0 -31 -9
-51 -20 -56 -29 -192 -90 -202 -90 -4 0 -21 -6 -37 -14 -76 -38 -122 -56 -144
-56 -13 0 -33 -7 -43 -15 -11 -8 -31 -15 -46 -15 -14 0 -34 -6 -45 -14 -11 -7
-36 -17 -55 -21 -19 -4 -45 -13 -57 -21 -12 -8 -29 -14 -38 -14 -8 0 -32 -9
-52 -20 -21 -11 -56 -20 -79 -20 -23 0 -61 -7 -84 -15 -23 -8 -66 -15 -95 -15
-29 0 -81 -9 -115 -20 -34 -11 -79 -20 -100 -20 -21 0 -43 -7 -50 -15 -7 -8
-29 -15 -49 -15 -20 0 -56 -5 -80 -11 -60 -14 -134 3 -172 39 -16 15 -29 31
-29 36 0 5 -20 34 -45 65 -25 31 -50 63 -57 71 -6 8 -39 44 -72 80 -82 87
-169 188 -180 209 -5 9 -29 36 -54 61 -24 25 -61 65 -80 90 -20 25 -43 52 -52
60 -9 8 -36 40 -61 70 -24 30 -71 82 -104 116 -104 106 -247 260 -257 277 -5
9 -42 51 -83 93 -41 43 -75 81 -75 86 0 5 -18 28 -40 50 -22 23 -40 46 -40 52
0 5 -28 39 -63 75 -69 74 -110 120 -178 201 -26 30 -72 81 -103 114 -31 32
-56 62 -56 66 0 4 -28 37 -62 72 -35 36 -99 107 -143 157 -44 50 -114 127
-155 172 -41 44 -79 88 -84 97 -5 9 -14 22 -20 27 -7 6 -34 37 -62 71 -28 33
-72 83 -100 110 -27 27 -62 67 -79 89 -16 22 -43 52 -61 67 -17 15 -44 46 -60
69 -16 24 -48 62 -72 86 -23 24 -42 47 -42 51 0 5 -21 31 -48 59 -26 27 -60
67 -77 89 -31 41 -59 73 -190 214 -44 48 -117 129 -163 181 -46 52 -105 119
-132 149 -27 30 -61 71 -77 91 -15 19 -54 62 -85 94 -32 32 -58 62 -58 66 0 4
-34 41 -75 81 -40 41 -84 88 -97 105 -23 32 -106 131 -157 188 -14 17 -34 41
-43 55 -8 14 -35 46 -59 71 -24 25 -57 60 -73 79 -15 19 -52 60 -80 90 -29 30
-57 62 -62 71 -5 9 -35 45 -66 79 -32 34 -58 67 -58 72 0 13 -79 91 -115 113
-26 16 -58 19 -270 22 -132 3 -257 5 -277 6 -43 1 -78 -25 -78 -58 0 -43 46
-143 80 -175 3 -3 19 -32 35 -65 16 -33 37 -71 47 -84 10 -13 18 -31 18 -41 0
-9 9 -27 20 -40 11 -13 20 -30 20 -39 0 -9 9 -24 20 -34 11 -9 20 -23 20 -30
0 -8 9 -24 20 -37 11 -13 20 -32 20 -42 0 -11 9 -31 20 -45 11 -14 20 -33 20
-42 0 -9 7 -26 15 -36 34 -44 65 -97 65 -109 0 -7 9 -25 20 -39 11 -14 20 -34
20 -45 0 -10 9 -31 20 -45 11 -14 20 -32 20 -40 0 -8 9 -26 20 -40 11 -14 20
-32 20 -40 0 -8 9 -26 20 -40 11 -14 20 -32 20 -40 0 -8 9 -26 20 -40 11 -14
20 -32 20 -40 0 -9 5 -19 11 -23 6 -3 19 -25 30 -48 10 -22 23 -48 28 -56 5
-8 14 -26 20 -40 6 -14 22 -43 36 -65 13 -22 30 -54 38 -71 8 -17 20 -35 26
-38 6 -4 11 -16 11 -27 0 -11 9 -37 19 -57 11 -20 24 -48 30 -62 6 -14 22 -43
36 -65 13 -22 30 -54 38 -71 8 -17 20 -35 26 -38 6 -4 11 -15 11 -25 0 -10 9
-30 20 -44 11 -14 20 -32 20 -40 0 -7 9 -22 20 -32 11 -10 20 -24 20 -31 0 -7
11 -33 23 -57 13 -24 27 -53 30 -63 4 -11 11 -26 16 -34 5 -8 14 -26 20 -40 6
-14 22 -43 36 -65 13 -22 29 -51 35 -65 6 -14 19 -41 30 -61 11 -20 20 -43 20
-52 0 -8 6 -20 14 -26 8 -7 18 -25 21 -41 3 -16 12 -34 20 -40 8 -6 17 -26 21
-43 3 -17 14 -43 23 -57 30 -46 41 -65 56 -97 8 -17 19 -34 24 -37 5 -4 13
-21 16 -39 4 -17 16 -48 26 -67 10 -19 21 -42 24 -50 3 -8 17 -33 30 -55 14
-22 30 -51 36 -65 6 -14 15 -32 20 -40 5 -8 14 -26 20 -40 6 -14 15 -32 20
-40 5 -8 25 -49 46 -90 20 -41 43 -81 50 -88 7 -7 13 -22 13 -31 0 -10 7 -24
14 -31 8 -6 20 -27 26 -46 6 -19 15 -34 20 -34 4 0 11 -12 15 -27 3 -16 12
-35 20 -43 7 -8 18 -32 24 -52 7 -20 19 -42 27 -48 7 -7 14 -20 14 -30 0 -9 9
-25 20 -35 11 -10 20 -25 20 -32 0 -8 9 -26 20 -40 11 -14 20 -32 20 -39 0
-12 24 -61 72 -146 7 -13 21 -34 31 -47 9 -13 17 -31 17 -41 0 -10 9 -29 20
-43 11 -14 20 -34 20 -44 0 -10 8 -29 17 -43 25 -36 103 -191 103 -205 0 -6 9
-22 20 -35 11 -13 20 -31 20 -41 0 -10 4 -20 10 -24 8 -5 36 -60 79 -155 10
-23 16 -34 41 -77 6 -10 18 -34 26 -53 9 -19 22 -42 29 -50 7 -8 16 -29 20
-47 3 -17 13 -37 21 -44 8 -6 14 -17 14 -24 0 -7 9 -24 20 -38 11 -14 20 -32
20 -40 0 -9 6 -22 13 -29 7 -7 39 -66 71 -131 33 -65 63 -120 67 -123 5 -3 9
-13 9 -24 0 -16 36 -99 61 -140 5 -8 16 -29 24 -47 8 -17 19 -34 24 -37 5 -4
12 -19 16 -35 3 -16 13 -35 21 -42 8 -6 14 -19 14 -28 0 -9 17 -41 38 -71 20
-30 43 -66 50 -80 6 -14 16 -32 20 -40 10 -17 46 -92 62 -130 6 -14 22 -43 35
-65 14 -22 30 -51 36 -65 6 -14 15 -32 20 -40 5 -8 14 -26 19 -40 6 -14 15
-32 20 -40 6 -8 15 -26 20 -40 6 -14 15 -32 20 -40 6 -8 16 -26 22 -40 7 -14
20 -36 30 -49 10 -13 18 -30 18 -38 0 -8 9 -26 20 -40 11 -14 20 -34 20 -45 0
-10 6 -21 14 -24 8 -3 18 -20 22 -37 3 -18 15 -43 25 -56 11 -13 19 -30 19
-38 0 -8 9 -26 20 -40 11 -14 20 -32 20 -40 0 -8 9 -26 20 -40 11 -14 20 -32
20 -40 0 -8 9 -26 20 -40 11 -14 20 -35 20 -45 0 -11 9 -31 20 -45 11 -14 20
-32 20 -39 0 -8 19 -32 42 -54 34 -31 52 -40 92 -45 28 -3 1705 -4 3726 -3
3410 4 3679 5 3735 21 44 12 100 17 207 17 100 0 161 5 190 14 24 8 85 17 137
21 52 4 109 14 127 21 18 8 57 14 86 14 29 0 66 7 82 15 16 8 54 18 85 21 31
4 68 13 83 20 15 8 49 14 75 14 26 0 61 7 76 15 16 8 52 17 80 21 29 4 61 13
72 20 11 8 35 14 55 14 20 0 45 6 56 14 11 8 38 18 60 22 21 4 48 13 59 20 11
8 30 14 42 14 13 0 40 9 60 20 21 11 47 20 58 20 11 0 29 7 39 15 11 8 28 15
38 15 10 0 35 9 55 20 21 11 45 20 53 20 8 0 24 7 34 15 11 8 31 15 44 15 22
0 90 27 132 51 8 5 22 12 30 15 8 3 33 13 55 23 22 10 56 25 75 34 19 9 46 19
60 23 14 3 31 11 38 17 7 6 50 29 95 52 45 23 94 49 107 57 45 29 115 68 140
79 14 6 32 15 40 20 8 5 42 23 75 40 56 28 108 60 219 134 24 17 81 53 126 80
44 28 111 73 148 100 37 28 94 68 127 89 85 56 404 306 505 396 47 41 101 89
120 105 67 58 347 342 460 468 63 71 136 151 163 179 26 28 47 53 47 57 0 3
25 33 55 66 30 33 55 63 55 67 0 4 14 22 31 40 17 18 41 49 54 68 12 19 34 48
49 63 14 15 26 32 26 36 0 7 71 106 102 141 7 8 39 53 71 100 31 47 77 112
102 145 25 33 48 67 52 75 4 8 24 37 45 63 21 27 38 54 38 61 0 6 9 19 20 29
11 9 20 25 20 34 0 10 9 24 20 31 11 7 20 20 20 31 0 10 9 26 20 36 11 10 20
26 20 35 0 9 9 25 20 35 11 10 20 26 20 35 0 9 9 25 20 35 11 10 20 28 20 40
0 12 9 30 20 40 11 10 20 26 20 36 0 10 5 21 11 25 6 3 18 21 26 38 21 43 45
87 66 116 9 13 17 32 17 41 0 9 9 28 20 42 11 14 20 32 20 40 0 8 9 26 20 40
11 14 20 33 20 42 0 9 9 28 20 42 11 14 20 33 20 43 0 10 9 29 20 43 11 14 20
33 20 42 0 9 9 28 20 42 11 14 20 33 20 43 0 10 9 29 20 43 11 14 20 35 20 47
0 12 9 33 20 47 11 14 20 36 20 48 0 12 9 34 20 48 11 14 20 33 20 44 0 10 9
32 20 48 11 17 20 39 20 50 0 11 9 37 20 58 11 20 20 47 20 59 0 13 9 37 20
53 11 17 20 42 20 56 0 15 9 38 20 52 11 14 20 36 20 50 0 13 8 35 18 48 11
13 22 41 25 63 3 21 13 46 22 56 8 9 15 34 15 56 0 22 9 56 20 77 11 20 20 54
20 74 0 21 9 52 20 68 11 17 20 44 20 60 0 17 9 45 20 63 11 18 20 47 20 65 0
17 9 52 20 76 11 24 20 64 20 90 0 27 8 62 20 84 14 25 20 56 20 99 0 41 7 78
20 107 11 24 20 64 20 90 0 25 9 66 20 90 11 24 20 64 20 90 1 25 8 64 17 86
8 22 19 92 23 156 5 68 14 128 23 145 9 18 16 70 19 139 3 65 11 124 20 145
11 26 17 98 22 285 6 184 11 256 22 277 9 17 14 59 14 116 l0 89 -38 27 -38
26 -3955 0 -3956 0 -22 -24z" fill="#7a5818" fill-opacity="0.5"/>
  <path d="M11491 8546 c-20 -21 -22 -32 -20 -107 5 -152 -12 -421 -28 -474 -9
-27 -19 -98 -22 -157 -4 -66 -12 -112 -20 -122 -8 -10 -16 -50 -18 -94 -3 -44
-13 -97 -24 -124 -11 -28 -19 -70 -19 -105 0 -41 -6 -67 -20 -88 -11 -17 -20
-47 -20 -70 0 -23 -9 -53 -20 -70 -12 -19 -20 -47 -20 -75 0 -28 -8 -56 -20
-75 -11 -16 -20 -46 -20 -65 0 -19 -9 -48 -20 -65 -11 -16 -20 -41 -20 -55 0
-14 -9 -38 -20 -55 -11 -16 -20 -39 -20 -50 0 -11 -9 -33 -20 -50 -11 -16 -20
-44 -20 -61 0 -17 -9 -43 -20 -57 -11 -14 -20 -36 -20 -50 0 -13 -9 -36 -20
-50 -11 -14 -20 -34 -20 -45 0 -10 -9 -31 -20 -45 -11 -14 -20 -32 -20 -40 0
-8 -9 -26 -20 -40 -11 -14 -20 -34 -20 -45 0 -10 -8 -27 -19 -36 -10 -9 -21
-34 -25 -55 -3 -21 -13 -44 -21 -51 -8 -7 -15 -21 -15 -32 0 -11 -9 -31 -20
-45 -11 -14 -20 -33 -20 -43 0 -10 -8 -28 -18 -41 -10 -13 -23 -35 -30 -49 -7
-14 -23 -43 -37 -65 -13 -22 -31 -53 -39 -70 -9 -16 -27 -48 -41 -70 -37 -60
-98 -163 -114 -193 -8 -15 -18 -30 -23 -33 -9 -6 -36 -52 -63 -106 -8 -18 -19
-33 -24 -33 -6 0 -13 -10 -17 -22 -3 -13 -21 -41 -39 -63 -17 -22 -36 -47 -41
-56 -5 -9 -23 -34 -41 -55 -17 -22 -71 -88 -119 -149 -48 -60 -100 -123 -114
-140 -15 -16 -70 -77 -121 -135 -111 -123 -440 -455 -519 -522 -79 -66 -95
-78 -190 -143 -47 -32 -92 -64 -100 -71 -46 -43 -77 -68 -114 -91 -71 -44
-119 -77 -148 -104 -16 -14 -46 -36 -69 -50 -22 -13 -60 -39 -84 -56 -24 -18
-65 -44 -91 -58 -26 -14 -52 -29 -58 -34 -6 -5 -22 -12 -36 -16 -14 -4 -44
-20 -67 -35 -22 -16 -52 -31 -65 -35 -12 -4 -25 -10 -28 -14 -13 -15 -71 -51
-83 -51 -8 0 -26 -9 -40 -20 -14 -11 -34 -20 -45 -20 -11 0 -25 -6 -31 -14 -7
-8 -27 -17 -45 -20 -19 -4 -39 -13 -46 -21 -7 -8 -19 -15 -27 -15 -8 0 -31 -9
-51 -20 -56 -29 -192 -90 -202 -90 -4 0 -21 -6 -37 -14 -76 -38 -122 -56 -144
-56 -13 0 -33 -7 -43 -15 -11 -8 -31 -15 -46 -15 -14 0 -34 -6 -45 -14 -11 -7
-36 -17 -55 -21 -19 -4 -45 -13 -57 -21 -12 -8 -29 -14 -38 -14 -8 0 -32 -9
-52 -20 -21 -11 -56 -20 -79 -20 -23 0 -61 -7 -84 -15 -23 -8 -66 -15 -95 -15
-29 0 -81 -9 -115 -20 -34 -11 -79 -20 -100 -20 -21 0 -43 -7 -50 -15 -7 -8
-29 -15 -49 -15 -20 0 -56 -5 -80 -11 -60 -14 -134 3 -172 39 -16 15 -29 31
-29 36 0 5 -20 34 -45 65 -25 31 -50 63 -57 71 -6 8 -39 44 -72 80 -82 87
-169 188 -180 209 -5 9 -29 36 -54 61 -24 25 -61 65 -80 90 -20 25 -43 52 -52
60 -9 8 -36 40 -61 70 -24 30 -71 82 -104 116 -104 106 -247 260 -257 277 -5
9 -42 51 -83 93 -41 43 -75 81 -75 86 0 5 -18 28 -40 50 -22 23 -40 46 -40 52
0 5 -28 39 -63 75 -69 74 -110 120 -178 201 -26 30 -72 81 -103 114 -31 32
-56 62 -56 66 0 4 -28 37 -62 72 -35 36 -99 107 -143 157 -44 50 -114 127
-155 172 -41 44 -79 88 -84 97 -5 9 -14 22 -20 27 -7 6 -34 37 -62 71 -28 33
-72 83 -100 110 -27 27 -62 67 -79 89 -16 22 -43 52 -61 67 -17 15 -44 46 -60
69 -16 24 -48 62 -72 86 -23 24 -42 47 -42 51 0 5 -21 31 -48 59 -26 27 -60
67 -77 89 -31 41 -59 73 -190 214 -44 48 -117 129 -163 181 -46 52 -105 119
-132 149 -27 30 -61 71 -77 91 -15 19 -54 62 -85 94 -32 32 -58 62 -58 66 0 4
-34 41 -75 81 -40 41 -84 88 -97 105 -23 32 -106 131 -157 188 -14 17 -34 41
-43 55 -8 14 -35 46 -59 71 -24 25 -57 60 -73 79 -15 19 -52 60 -80 90 -29 30
-57 62 -62 71 -5 9 -35 45 -66 79 -32 34 -58 67 -58 72 0 13 -79 91 -115 113
-26 16 -58 19 -270 22 -132 3 -257 5 -277 6 -43 1 -78 -25 -78 -58 0 -43 46
-143 80 -175 3 -3 19 -32 35 -65 16 -33 37 -71 47 -84 10 -13 18 -31 18 -41 0
-9 9 -27 20 -40 11 -13 20 -30 20 -39 0 -9 9 -24 20 -34 11 -9 20 -23 20 -30
0 -8 9 -24 20 -37 11 -13 20 -32 20 -42 0 -11 9 -31 20 -45 11 -14 20 -33 20
-42 0 -9 7 -26 15 -36 34 -44 65 -97 65 -109 0 -7 9 -25 20 -39 11 -14 20 -34
20 -45 0 -10 9 -31 20 -45 11 -14 20 -32 20 -40 0 -8 9 -26 20 -40 11 -14 20
-32 20 -40 0 -8 9 -26 20 -40 11 -14 20 -32 20 -40 0 -8 9 -26 20 -40 11 -14
20 -32 20 -40 0 -9 5 -19 11 -23 6 -3 19 -25 30 -48 10 -22 23 -48 28 -56 5
-8 14 -26 20 -40 6 -14 22 -43 36 -65 13 -22 30 -54 38 -71 8 -17 20 -35 26
-38 6 -4 11 -16 11 -27 0 -11 9 -37 19 -57 11 -20 24 -48 30 -62 6 -14 22 -43
36 -65 13 -22 30 -54 38 -71 8 -17 20 -35 26 -38 6 -4 11 -15 11 -25 0 -10 9
-30 20 -44 11 -14 20 -32 20 -40 0 -7 9 -22 20 -32 11 -10 20 -24 20 -31 0 -7
11 -33 23 -57 13 -24 27 -53 30 -63 4 -11 11 -26 16 -34 5 -8 14 -26 20 -40 6
-14 22 -43 36 -65 13 -22 29 -51 35 -65 6 -14 19 -41 30 -61 11 -20 20 -43 20
-52 0 -8 6 -20 14 -26 8 -7 18 -25 21 -41 3 -16 12 -34 20 -40 8 -6 17 -26 21
-43 3 -17 14 -43 23 -57 30 -46 41 -65 56 -97 8 -17 19 -34 24 -37 5 -4 13
-21 16 -39 4 -17 16 -48 26 -67 10 -19 21 -42 24 -50 3 -8 17 -33 30 -55 14
-22 30 -51 36 -65 6 -14 15 -32 20 -40 5 -8 14 -26 20 -40 6 -14 15 -32 20
-40 5 -8 25 -49 46 -90 20 -41 43 -81 50 -88 7 -7 13 -22 13 -31 0 -10 7 -24
14 -31 8 -6 20 -27 26 -46 6 -19 15 -34 20 -34 4 0 11 -12 15 -27 3 -16 12
-35 20 -43 7 -8 18 -32 24 -52 7 -20 19 -42 27 -48 7 -7 14 -20 14 -30 0 -9 9
-25 20 -35 11 -10 20 -25 20 -32 0 -8 9 -26 20 -40 11 -14 20 -32 20 -39 0
-12 24 -61 72 -146 7 -13 21 -34 31 -47 9 -13 17 -31 17 -41 0 -10 9 -29 20
-43 11 -14 20 -34 20 -44 0 -10 8 -29 17 -43 25 -36 103 -191 103 -205 0 -6 9
-22 20 -35 11 -13 20 -31 20 -41 0 -10 4 -20 10 -24 8 -5 36 -60 79 -155 10
-23 16 -34 41 -77 6 -10 18 -34 26 -53 9 -19 22 -42 29 -50 7 -8 16 -29 20
-47 3 -17 13 -37 21 -44 8 -6 14 -17 14 -24 0 -7 9 -24 20 -38 11 -14 20 -32
20 -40 0 -9 6 -22 13 -29 7 -7 39 -66 71 -131 33 -65 63 -120 67 -123 5 -3 9
-13 9 -24 0 -16 36 -99 61 -140 5 -8 16 -29 24 -47 8 -17 19 -34 24 -37 5 -4
12 -19 16 -35 3 -16 13 -35 21 -42 8 -6 14 -19 14 -28 0 -9 17 -41 38 -71 20
-30 43 -66 50 -80 6 -14 16 -32 20 -40 10 -17 46 -92 62 -130 6 -14 22 -43 35
-65 14 -22 30 -51 36 -65 6 -14 15 -32 20 -40 5 -8 14 -26 19 -40 6 -14 15
-32 20 -40 6 -8 15 -26 20 -40 6 -14 15 -32 20 -40 6 -8 16 -26 22 -40 7 -14
20 -36 30 -49 10 -13 18 -30 18 -38 0 -8 9 -26 20 -40 11 -14 20 -34 20 -45 0
-10 6 -21 14 -24 8 -3 18 -20 22 -37 3 -18 15 -43 25 -56 11 -13 19 -30 19
-38 0 -8 9 -26 20 -40 11 -14 20 -32 20 -40 0 -8 9 -26 20 -40 11 -14 20 -32
20 -40 0 -8 9 -26 20 -40 11 -14 20 -35 20 -45 0 -11 9 -31 20 -45 11 -14 20
-32 20 -39 0 -8 19 -32 42 -54 34 -31 52 -40 92 -45 28 -3 1705 -4 3726 -3
3410 4 3679 5 3735 21 44 12 100 17 207 17 100 0 161 5 190 14 24 8 85 17 137
21 52 4 109 14 127 21 18 8 57 14 86 14 29 0 66 7 82 15 16 8 54 18 85 21 31
4 68 13 83 20 15 8 49 14 75 14 26 0 61 7 76 15 16 8 52 17 80 21 29 4 61 13
72 20 11 8 35 14 55 14 20 0 45 6 56 14 11 8 38 18 60 22 21 4 48 13 59 20 11
8 30 14 42 14 13 0 40 9 60 20 21 11 47 20 58 20 11 0 29 7 39 15 11 8 28 15
38 15 10 0 35 9 55 20 21 11 45 20 53 20 8 0 24 7 34 15 11 8 31 15 44 15 22
0 90 27 132 51 8 5 22 12 30 15 8 3 33 13 55 23 22 10 56 25 75 34 19 9 46 19
60 23 14 3 31 11 38 17 7 6 50 29 95 52 45 23 94 49 107 57 45 29 115 68 140
79 14 6 32 15 40 20 8 5 42 23 75 40 56 28 108 60 219 134 24 17 81 53 126 80
44 28 111 73 148 100 37 28 94 68 127 89 85 56 404 306 505 396 47 41 101 89
120 105 67 58 347 342 460 468 63 71 136 151 163 179 26 28 47 53 47 57 0 3
25 33 55 66 30 33 55 63 55 67 0 4 14 22 31 40 17 18 41 49 54 68 12 19 34 48
49 63 14 15 26 32 26 36 0 7 71 106 102 141 7 8 39 53 71 100 31 47 77 112
102 145 25 33 48 67 52 75 4 8 24 37 45 63 21 27 38 54 38 61 0 6 9 19 20 29
11 9 20 25 20 34 0 10 9 24 20 31 11 7 20 20 20 31 0 10 9 26 20 36 11 10 20
26 20 35 0 9 9 25 20 35 11 10 20 26 20 35 0 9 9 25 20 35 11 10 20 28 20 40
0 12 9 30 20 40 11 10 20 26 20 36 0 10 5 21 11 25 6 3 18 21 26 38 21 43 45
87 66 116 9 13 17 32 17 41 0 9 9 28 20 42 11 14 20 32 20 40 0 8 9 26 20 40
11 14 20 33 20 42 0 9 9 28 20 42 11 14 20 33 20 43 0 10 9 29 20 43 11 14 20
33 20 42 0 9 9 28 20 42 11 14 20 33 20 43 0 10 9 29 20 43 11 14 20 35 20 47
0 12 9 33 20 47 11 14 20 36 20 48 0 12 9 34 20 48 11 14 20 33 20 44 0 10 9
32 20 48 11 17 20 39 20 50 0 11 9 37 20 58 11 20 20 47 20 59 0 13 9 37 20
53 11 17 20 42 20 56 0 15 9 38 20 52 11 14 20 36 20 50 0 13 8 35 18 48 11
13 22 41 25 63 3 21 13 46 22 56 8 9 15 34 15 56 0 22 9 56 20 77 11 20 20 54
20 74 0 21 9 52 20 68 11 17 20 44 20 60 0 17 9 45 20 63 11 18 20 47 20 65 0
17 9 52 20 76 11 24 20 64 20 90 0 27 8 62 20 84 14 25 20 56 20 99 0 41 7 78
20 107 11 24 20 64 20 90 0 25 9 66 20 90 11 24 20 64 20 90 1 25 8 64 17 86
8 22 19 92 23 156 5 68 14 128 23 145 9 18 16 70 19 139 3 65 11 124 20 145
11 26 17 98 22 285 6 184 11 256 22 277 9 17 14 59 14 116 l0 89 -38 27 -38
26 -3955 0 -3956 0 -22 -24z" fill="none" stroke="url(#sThread2)" stroke-width="30" stroke-dasharray="30,15"/>
  <path d="M11491 8546 c-20 -21 -22 -32 -20 -107 5 -152 -12 -421 -28 -474 -9
-27 -19 -98 -22 -157 -4 -66 -12 -112 -20 -122 -8 -10 -16 -50 -18 -94 -3 -44
-13 -97 -24 -124 -11 -28 -19 -70 -19 -105 0 -41 -6 -67 -20 -88 -11 -17 -20
-47 -20 -70 0 -23 -9 -53 -20 -70 -12 -19 -20 -47 -20 -75 0 -28 -8 -56 -20
-75 -11 -16 -20 -46 -20 -65 0 -19 -9 -48 -20 -65 -11 -16 -20 -41 -20 -55 0
-14 -9 -38 -20 -55 -11 -16 -20 -39 -20 -50 0 -11 -9 -33 -20 -50 -11 -16 -20
-44 -20 -61 0 -17 -9 -43 -20 -57 -11 -14 -20 -36 -20 -50 0 -13 -9 -36 -20
-50 -11 -14 -20 -34 -20 -45 0 -10 -9 -31 -20 -45 -11 -14 -20 -32 -20 -40 0
-8 -9 -26 -20 -40 -11 -14 -20 -34 -20 -45 0 -10 -8 -27 -19 -36 -10 -9 -21
-34 -25 -55 -3 -21 -13 -44 -21 -51 -8 -7 -15 -21 -15 -32 0 -11 -9 -31 -20
-45 -11 -14 -20 -33 -20 -43 0 -10 -8 -28 -18 -41 -10 -13 -23 -35 -30 -49 -7
-14 -23 -43 -37 -65 -13 -22 -31 -53 -39 -70 -9 -16 -27 -48 -41 -70 -37 -60
-98 -163 -114 -193 -8 -15 -18 -30 -23 -33 -9 -6 -36 -52 -63 -106 -8 -18 -19
-33 -24 -33 -6 0 -13 -10 -17 -22 -3 -13 -21 -41 -39 -63 -17 -22 -36 -47 -41
-56 -5 -9 -23 -34 -41 -55 -17 -22 -71 -88 -119 -149 -48 -60 -100 -123 -114
-140 -15 -16 -70 -77 -121 -135 -111 -123 -440 -455 -519 -522 -79 -66 -95
-78 -190 -143 -47 -32 -92 -64 -100 -71 -46 -43 -77 -68 -114 -91 -71 -44
-119 -77 -148 -104 -16 -14 -46 -36 -69 -50 -22 -13 -60 -39 -84 -56 -24 -18
-65 -44 -91 -58 -26 -14 -52 -29 -58 -34 -6 -5 -22 -12 -36 -16 -14 -4 -44
-20 -67 -35 -22 -16 -52 -31 -65 -35 -12 -4 -25 -10 -28 -14 -13 -15 -71 -51
-83 -51 -8 0 -26 -9 -40 -20 -14 -11 -34 -20 -45 -20 -11 0 -25 -6 -31 -14 -7
-8 -27 -17 -45 -20 -19 -4 -39 -13 -46 -21 -7 -8 -19 -15 -27 -15 -8 0 -31 -9
-51 -20 -56 -29 -192 -90 -202 -90 -4 0 -21 -6 -37 -14 -76 -38 -122 -56 -144
-56 -13 0 -33 -7 -43 -15 -11 -8 -31 -15 -46 -15 -14 0 -34 -6 -45 -14 -11 -7
-36 -17 -55 -21 -19 -4 -45 -13 -57 -21 -12 -8 -29 -14 -38 -14 -8 0 -32 -9
-52 -20 -21 -11 -56 -20 -79 -20 -23 0 -61 -7 -84 -15 -23 -8 -66 -15 -95 -15
-29 0 -81 -9 -115 -20 -34 -11 -79 -20 -100 -20 -21 0 -43 -7 -50 -15 -7 -8
-29 -15 -49 -15 -20 0 -56 -5 -80 -11 -60 -14 -134 3 -172 39 -16 15 -29 31
-29 36 0 5 -20 34 -45 65 -25 31 -50 63 -57 71 -6 8 -39 44 -72 80 -82 87
-169 188 -180 209 -5 9 -29 36 -54 61 -24 25 -61 65 -80 90 -20 25 -43 52 -52
60 -9 8 -36 40 -61 70 -24 30 -71 82 -104 116 -104 106 -247 260 -257 277 -5
9 -42 51 -83 93 -41 43 -75 81 -75 86 0 5 -18 28 -40 50 -22 23 -40 46 -40 52
0 5 -28 39 -63 75 -69 74 -110 120 -178 201 -26 30 -72 81 -103 114 -31 32
-56 62 -56 66 0 4 -28 37 -62 72 -35 36 -99 107 -143 157 -44 50 -114 127
-155 172 -41 44 -79 88 -84 97 -5 9 -14 22 -20 27 -7 6 -34 37 -62 71 -28 33
-72 83 -100 110 -27 27 -62 67 -79 89 -16 22 -43 52 -61 67 -17 15 -44 46 -60
69 -16 24 -48 62 -72 86 -23 24 -42 47 -42 51 0 5 -21 31 -48 59 -26 27 -60
67 -77 89 -31 41 -59 73 -190 214 -44 48 -117 129 -163 181 -46 52 -105 119
-132 149 -27 30 -61 71 -77 91 -15 19 -54 62 -85 94 -32 32 -58 62 -58 66 0 4
-34 41 -75 81 -40 41 -84 88 -97 105 -23 32 -106 131 -157 188 -14 17 -34 41
-43 55 -8 14 -35 46 -59 71 -24 25 -57 60 -73 79 -15 19 -52 60 -80 90 -29 30
-57 62 -62 71 -5 9 -35 45 -66 79 -32 34 -58 67 -58 72 0 13 -79 91 -115 113
-26 16 -58 19 -270 22 -132 3 -257 5 -277 6 -43 1 -78 -25 -78 -58 0 -43 46
-143 80 -175 3 -3 19 -32 35 -65 16 -33 37 -71 47 -84 10 -13 18 -31 18 -41 0
-9 9 -27 20 -40 11 -13 20 -30 20 -39 0 -9 9 -24 20 -34 11 -9 20 -23 20 -30
0 -8 9 -24 20 -37 11 -13 20 -32 20 -42 0 -11 9 -31 20 -45 11 -14 20 -33 20
-42 0 -9 7 -26 15 -36 34 -44 65 -97 65 -109 0 -7 9 -25 20 -39 11 -14 20 -34
20 -45 0 -10 9 -31 20 -45 11 -14 20 -32 20 -40 0 -8 9 -26 20 -40 11 -14 20
-32 20 -40 0 -8 9 -26 20 -40 11 -14 20 -32 20 -40 0 -8 9 -26 20 -40 11 -14
20 -32 20 -40 0 -9 5 -19 11 -23 6 -3 19 -25 30 -48 10 -22 23 -48 28 -56 5
-8 14 -26 20 -40 6 -14 22 -43 36 -65 13 -22 30 -54 38 -71 8 -17 20 -35 26
-38 6 -4 11 -16 11 -27 0 -11 9 -37 19 -57 11 -20 24 -48 30 -62 6 -14 22 -43
36 -65 13 -22 30 -54 38 -71 8 -17 20 -35 26 -38 6 -4 11 -15 11 -25 0 -10 9
-30 20 -44 11 -14 20 -32 20 -40 0 -7 9 -22 20 -32 11 -10 20 -24 20 -31 0 -7
11 -33 23 -57 13 -24 27 -53 30 -63 4 -11 11 -26 16 -34 5 -8 14 -26 20 -40 6
-14 22 -43 36 -65 13 -22 29 -51 35 -65 6 -14 19 -41 30 -61 11 -20 20 -43 20
-52 0 -8 6 -20 14 -26 8 -7 18 -25 21 -41 3 -16 12 -34 20 -40 8 -6 17 -26 21
-43 3 -17 14 -43 23 -57 30 -46 41 -65 56 -97 8 -17 19 -34 24 -37 5 -4 13
-21 16 -39 4 -17 16 -48 26 -67 10 -19 21 -42 24 -50 3 -8 17 -33 30 -55 14
-22 30 -51 36 -65 6 -14 15 -32 20 -40 5 -8 14 -26 20 -40 6 -14 15 -32 20
-40 5 -8 25 -49 46 -90 20 -41 43 -81 50 -88 7 -7 13 -22 13 -31 0 -10 7 -24
14 -31 8 -6 20 -27 26 -46 6 -19 15 -34 20 -34 4 0 11 -12 15 -27 3 -16 12
-35 20 -43 7 -8 18 -32 24 -52 7 -20 19 -42 27 -48 7 -7 14 -20 14 -30 0 -9 9
-25 20 -35 11 -10 20 -25 20 -32 0 -8 9 -26 20 -40 11 -14 20 -32 20 -39 0
-12 24 -61 72 -146 7 -13 21 -34 31 -47 9 -13 17 -31 17 -41 0 -10 9 -29 20
-43 11 -14 20 -34 20 -44 0 -10 8 -29 17 -43 25 -36 103 -191 103 -205 0 -6 9
-22 20 -35 11 -13 20 -31 20 -41 0 -10 4 -20 10 -24 8 -5 36 -60 79 -155 10
-23 16 -34 41 -77 6 -10 18 -34 26 -53 9 -19 22 -42 29 -50 7 -8 16 -29 20
-47 3 -17 13 -37 21 -44 8 -6 14 -17 14 -24 0 -7 9 -24 20 -38 11 -14 20 -32
20 -40 0 -9 6 -22 13 -29 7 -7 39 -66 71 -131 33 -65 63 -120 67 -123 5 -3 9
-13 9 -24 0 -16 36 -99 61 -140 5 -8 16 -29 24 -47 8 -17 19 -34 24 -37 5 -4
12 -19 16 -35 3 -16 13 -35 21 -42 8 -6 14 -19 14 -28 0 -9 17 -41 38 -71 20
-30 43 -66 50 -80 6 -14 16 -32 20 -40 10 -17 46 -92 62 -130 6 -14 22 -43 35
-65 14 -22 30 -51 36 -65 6 -14 15 -32 20 -40 5 -8 14 -26 19 -40 6 -14 15
-32 20 -40 6 -8 15 -26 20 -40 6 -14 15 -32 20 -40 6 -8 16 -26 22 -40 7 -14
20 -36 30 -49 10 -13 18 -30 18 -38 0 -8 9 -26 20 -40 11 -14 20 -34 20 -45 0
-10 6 -21 14 -24 8 -3 18 -20 22 -37 3 -18 15 -43 25 -56 11 -13 19 -30 19
-38 0 -8 9 -26 20 -40 11 -14 20 -32 20 -40 0 -8 9 -26 20 -40 11 -14 20 -32
20 -40 0 -8 9 -26 20 -40 11 -14 20 -35 20 -45 0 -11 9 -31 20 -45 11 -14 20
-32 20 -39 0 -8 19 -32 42 -54 34 -31 52 -40 92 -45 28 -3 1705 -4 3726 -3
3410 4 3679 5 3735 21 44 12 100 17 207 17 100 0 161 5 190 14 24 8 85 17 137
21 52 4 109 14 127 21 18 8 57 14 86 14 29 0 66 7 82 15 16 8 54 18 85 21 31
4 68 13 83 20 15 8 49 14 75 14 26 0 61 7 76 15 16 8 52 17 80 21 29 4 61 13
72 20 11 8 35 14 55 14 20 0 45 6 56 14 11 8 38 18 60 22 21 4 48 13 59 20 11
8 30 14 42 14 13 0 40 9 60 20 21 11 47 20 58 20 11 0 29 7 39 15 11 8 28 15
38 15 10 0 35 9 55 20 21 11 45 20 53 20 8 0 24 7 34 15 11 8 31 15 44 15 22
0 90 27 132 51 8 5 22 12 30 15 8 3 33 13 55 23 22 10 56 25 75 34 19 9 46 19
60 23 14 3 31 11 38 17 7 6 50 29 95 52 45 23 94 49 107 57 45 29 115 68 140
79 14 6 32 15 40 20 8 5 42 23 75 40 56 28 108 60 219 134 24 17 81 53 126 80
44 28 111 73 148 100 37 28 94 68 127 89 85 56 404 306 505 396 47 41 101 89
120 105 67 58 347 342 460 468 63 71 136 151 163 179 26 28 47 53 47 57 0 3
25 33 55 66 30 33 55 63 55 67 0 4 14 22 31 40 17 18 41 49 54 68 12 19 34 48
49 63 14 15 26 32 26 36 0 7 71 106 102 141 7 8 39 53 71 100 31 47 77 112
102 145 25 33 48 67 52 75 4 8 24 37 45 63 21 27 38 54 38 61 0 6 9 19 20 29
11 9 20 25 20 34 0 10 9 24 20 31 11 7 20 20 20 31 0 10 9 26 20 36 11 10 20
26 20 35 0 9 9 25 20 35 11 10 20 26 20 35 0 9 9 25 20 35 11 10 20 28 20 40
0 12 9 30 20 40 11 10 20 26 20 36 0 10 5 21 11 25 6 3 18 21 26 38 21 43 45
87 66 116 9 13 17 32 17 41 0 9 9 28 20 42 11 14 20 32 20 40 0 8 9 26 20 40
11 14 20 33 20 42 0 9 9 28 20 42 11 14 20 33 20 43 0 10 9 29 20 43 11 14 20
33 20 42 0 9 9 28 20 42 11 14 20 33 20 43 0 10 9 29 20 43 11 14 20 35 20 47
0 12 9 33 20 47 11 14 20 36 20 48 0 12 9 34 20 48 11 14 20 33 20 44 0 10 9
32 20 48 11 17 20 39 20 50 0 11 9 37 20 58 11 20 20 47 20 59 0 13 9 37 20
53 11 17 20 42 20 56 0 15 9 38 20 52 11 14 20 36 20 50 0 13 8 35 18 48 11
13 22 41 25 63 3 21 13 46 22 56 8 9 15 34 15 56 0 22 9 56 20 77 11 20 20 54
20 74 0 21 9 52 20 68 11 17 20 44 20 60 0 17 9 45 20 63 11 18 20 47 20 65 0
17 9 52 20 76 11 24 20 64 20 90 0 27 8 62 20 84 14 25 20 56 20 99 0 41 7 78
20 107 11 24 20 64 20 90 0 25 9 66 20 90 11 24 20 64 20 90 1 25 8 64 17 86
8 22 19 92 23 156 5 68 14 128 23 145 9 18 16 70 19 139 3 65 11 124 20 145
11 26 17 98 22 285 6 184 11 256 22 277 9 17 14 59 14 116 l0 89 -38 27 -38
26 -3955 0 -3956 0 -22 -24z" fill="none" stroke="#b89840" stroke-width="14" stroke-dasharray="20,12" opacity="0.5"/>
  
  <!-- UPPER ARC -->
  <path d="M7530 13516 c-19 -13 -50 -44 -69 -70 -19 -25 -38 -46 -41 -46 -4 0
-21 -20 -38 -44 -32 -44 -59 -75 -222 -251 -122 -133 -194 -214 -204 -232 -8
-15 -117 -131 -276 -293 -109 -111 -231 -244 -270 -294 -17 -22 -43 -51 -59
-66 -15 -15 -52 -56 -81 -91 -29 -35 -58 -68 -65 -74 -6 -5 -31 -35 -56 -65
-24 -30 -69 -80 -99 -111 -88 -89 -171 -180 -220 -240 -25 -30 -58 -68 -75
-85 -16 -16 -43 -47 -60 -69 -46 -62 -90 -110 -225 -246 -126 -126 -226 -237
-245 -270 -5 -9 -50 -60 -100 -112 -94 -99 -156 -168 -202 -228 -16 -19 -62
-69 -103 -111 -75 -75 -167 -177 -218 -240 -15 -19 -40 -47 -57 -64 -16 -16
-52 -56 -80 -89 -27 -33 -55 -64 -62 -70 -7 -5 -34 -37 -60 -70 -26 -33 -70
-81 -97 -105 -76 -69 -185 -180 -251 -255 -33 -37 -95 -105 -139 -151 -43 -46
-88 -97 -100 -113 -12 -16 -46 -57 -76 -90 -112 -123 -116 -135 -72 -176 27
-26 27 -26 167 -21 354 12 2475 28 2555 19 62 -7 98 -6 132 2 52 13 98 53 98
86 0 11 7 22 15 25 8 4 15 14 15 23 0 9 6 26 13 38 6 12 28 53 47 90 19 38 43
79 52 92 10 13 18 30 18 38 0 8 9 26 20 40 11 14 20 34 20 45 0 10 6 21 14 24
8 3 18 19 21 36 4 16 13 32 20 35 8 2 17 17 20 33 3 16 13 34 21 41 8 6 17 29
21 51 3 22 12 42 19 45 6 2 15 16 19 30 3 15 15 38 26 51 10 14 19 30 19 37 0
6 9 20 20 30 11 10 20 26 20 35 0 10 7 23 15 30 8 7 17 27 21 46 3 18 15 43
25 55 10 12 19 30 19 39 0 9 9 25 20 35 11 10 20 28 20 39 0 12 9 29 20 39 11
9 20 25 20 36 0 10 7 24 15 31 8 7 17 27 21 46 3 18 15 43 25 55 10 12 19 32
19 43 0 12 9 29 20 39 11 9 20 25 20 35 0 11 9 27 20 37 11 10 20 25 20 34 0
9 9 30 20 46 11 17 20 39 20 51 0 11 9 29 20 39 11 10 20 26 20 35 0 9 9 27
20 40 11 13 20 31 20 40 0 9 9 25 20 35 11 10 20 26 20 36 0 10 4 20 9 24 14
8 71 125 71 145 0 9 9 25 20 35 11 10 20 26 20 35 0 9 9 27 20 40 11 13 20 29
20 35 0 7 9 24 20 38 11 14 20 34 20 45 0 10 9 31 20 45 11 14 20 34 20 45 0
11 6 27 13 34 7 7 30 48 50 90 21 42 42 80 47 83 6 3 10 19 10 34 0 16 9 40
20 54 11 14 20 33 20 42 0 24 60 74 98 81 22 4 54 -1 96 -15 34 -11 74 -21 87
-21 14 0 30 -5 36 -11 6 -6 30 -15 54 -20 24 -5 58 -16 74 -23 17 -8 53 -24
80 -36 28 -12 62 -28 77 -36 14 -8 35 -14 46 -14 12 0 24 -4 27 -10 3 -5 29
-21 58 -36 29 -14 70 -40 92 -58 22 -17 66 -45 98 -61 96 -50 119 -65 249
-162 129 -97 411 -378 543 -540 11 -14 33 -39 48 -56 16 -18 36 -45 44 -61 8
-16 31 -52 51 -80 20 -28 48 -69 64 -91 15 -22 41 -59 58 -83 16 -23 30 -46
30 -51 0 -13 65 -137 101 -191 9 -14 20 -40 23 -57 4 -17 14 -37 22 -44 8 -6
14 -23 14 -38 0 -14 8 -42 18 -61 11 -19 22 -55 26 -79 4 -24 13 -53 21 -64 8
-12 15 -31 15 -42 0 -38 53 -96 106 -117 63 -24 175 -25 261 -2 52 14 67 22
75 43 14 35 4 152 -14 182 -9 13 -18 54 -21 91 -2 38 -12 79 -21 93 -9 13 -16
39 -16 58 0 18 -8 49 -19 69 -10 20 -21 58 -25 84 -3 26 -12 55 -20 63 -7 9
-16 43 -20 76 -4 33 -13 69 -20 80 -7 11 -16 41 -20 67 -4 25 -13 51 -20 58
-8 6 -17 26 -20 44 -4 19 -13 39 -21 46 -7 6 -17 26 -20 43 -4 18 -13 39 -20
47 -7 8 -16 31 -20 50 -4 19 -13 44 -19 55 -7 11 -18 37 -25 57 -7 20 -19 42
-27 48 -7 7 -14 23 -14 35 0 12 -7 28 -15 35 -8 7 -17 28 -21 49 -4 20 -15 47
-25 60 -11 13 -19 32 -19 43 0 10 -6 21 -14 24 -8 3 -17 16 -20 30 -4 13 -15
33 -26 44 -11 11 -20 29 -20 40 0 11 -7 23 -15 26 -8 4 -15 10 -15 14 0 13
-18 51 -45 95 -13 22 -30 51 -37 65 -7 14 -21 31 -30 38 -10 7 -18 21 -18 31
0 10 -9 26 -20 36 -11 10 -20 22 -20 27 0 10 -37 63 -62 90 -10 10 -18 25 -18
33 0 9 -6 18 -14 21 -8 3 -27 24 -42 47 -16 23 -45 63 -66 88 -21 26 -38 50
-38 54 0 4 -10 18 -22 30 -28 28 -41 45 -54 67 -17 31 -280 317 -389 423 -125
122 -302 270 -391 328 -69 44 -136 90 -218 149 -33 24 -83 57 -111 73 -29 17
-71 42 -93 58 -23 15 -47 27 -53 27 -6 0 -22 9 -36 20 -14 11 -34 20 -44 20
-10 0 -20 4 -24 9 -3 5 -33 23 -68 41 -34 17 -69 35 -77 40 -8 6 -26 14 -40
20 -14 5 -32 14 -40 18 -8 5 -28 15 -45 23 -16 9 -48 25 -70 36 -118 62 -204
71 -265 29z" fill="#8a6820" fill-opacity="0.45"/>
  <path d="M7530 13516 c-19 -13 -50 -44 -69 -70 -19 -25 -38 -46 -41 -46 -4 0
-21 -20 -38 -44 -32 -44 -59 -75 -222 -251 -122 -133 -194 -214 -204 -232 -8
-15 -117 -131 -276 -293 -109 -111 -231 -244 -270 -294 -17 -22 -43 -51 -59
-66 -15 -15 -52 -56 -81 -91 -29 -35 -58 -68 -65 -74 -6 -5 -31 -35 -56 -65
-24 -30 -69 -80 -99 -111 -88 -89 -171 -180 -220 -240 -25 -30 -58 -68 -75
-85 -16 -16 -43 -47 -60 -69 -46 -62 -90 -110 -225 -246 -126 -126 -226 -237
-245 -270 -5 -9 -50 -60 -100 -112 -94 -99 -156 -168 -202 -228 -16 -19 -62
-69 -103 -111 -75 -75 -167 -177 -218 -240 -15 -19 -40 -47 -57 -64 -16 -16
-52 -56 -80 -89 -27 -33 -55 -64 -62 -70 -7 -5 -34 -37 -60 -70 -26 -33 -70
-81 -97 -105 -76 -69 -185 -180 -251 -255 -33 -37 -95 -105 -139 -151 -43 -46
-88 -97 -100 -113 -12 -16 -46 -57 -76 -90 -112 -123 -116 -135 -72 -176 27
-26 27 -26 167 -21 354 12 2475 28 2555 19 62 -7 98 -6 132 2 52 13 98 53 98
86 0 11 7 22 15 25 8 4 15 14 15 23 0 9 6 26 13 38 6 12 28 53 47 90 19 38 43
79 52 92 10 13 18 30 18 38 0 8 9 26 20 40 11 14 20 34 20 45 0 10 6 21 14 24
8 3 18 19 21 36 4 16 13 32 20 35 8 2 17 17 20 33 3 16 13 34 21 41 8 6 17 29
21 51 3 22 12 42 19 45 6 2 15 16 19 30 3 15 15 38 26 51 10 14 19 30 19 37 0
6 9 20 20 30 11 10 20 26 20 35 0 10 7 23 15 30 8 7 17 27 21 46 3 18 15 43
25 55 10 12 19 30 19 39 0 9 9 25 20 35 11 10 20 28 20 39 0 12 9 29 20 39 11
9 20 25 20 36 0 10 7 24 15 31 8 7 17 27 21 46 3 18 15 43 25 55 10 12 19 32
19 43 0 12 9 29 20 39 11 9 20 25 20 35 0 11 9 27 20 37 11 10 20 25 20 34 0
9 9 30 20 46 11 17 20 39 20 51 0 11 9 29 20 39 11 10 20 26 20 35 0 9 9 27
20 40 11 13 20 31 20 40 0 9 9 25 20 35 11 10 20 26 20 36 0 10 4 20 9 24 14
8 71 125 71 145 0 9 9 25 20 35 11 10 20 26 20 35 0 9 9 27 20 40 11 13 20 29
20 35 0 7 9 24 20 38 11 14 20 34 20 45 0 10 9 31 20 45 11 14 20 34 20 45 0
11 6 27 13 34 7 7 30 48 50 90 21 42 42 80 47 83 6 3 10 19 10 34 0 16 9 40
20 54 11 14 20 33 20 42 0 24 60 74 98 81 22 4 54 -1 96 -15 34 -11 74 -21 87
-21 14 0 30 -5 36 -11 6 -6 30 -15 54 -20 24 -5 58 -16 74 -23 17 -8 53 -24
80 -36 28 -12 62 -28 77 -36 14 -8 35 -14 46 -14 12 0 24 -4 27 -10 3 -5 29
-21 58 -36 29 -14 70 -40 92 -58 22 -17 66 -45 98 -61 96 -50 119 -65 249
-162 129 -97 411 -378 543 -540 11 -14 33 -39 48 -56 16 -18 36 -45 44 -61 8
-16 31 -52 51 -80 20 -28 48 -69 64 -91 15 -22 41 -59 58 -83 16 -23 30 -46
30 -51 0 -13 65 -137 101 -191 9 -14 20 -40 23 -57 4 -17 14 -37 22 -44 8 -6
14 -23 14 -38 0 -14 8 -42 18 -61 11 -19 22 -55 26 -79 4 -24 13 -53 21 -64 8
-12 15 -31 15 -42 0 -38 53 -96 106 -117 63 -24 175 -25 261 -2 52 14 67 22
75 43 14 35 4 152 -14 182 -9 13 -18 54 -21 91 -2 38 -12 79 -21 93 -9 13 -16
39 -16 58 0 18 -8 49 -19 69 -10 20 -21 58 -25 84 -3 26 -12 55 -20 63 -7 9
-16 43 -20 76 -4 33 -13 69 -20 80 -7 11 -16 41 -20 67 -4 25 -13 51 -20 58
-8 6 -17 26 -20 44 -4 19 -13 39 -21 46 -7 6 -17 26 -20 43 -4 18 -13 39 -20
47 -7 8 -16 31 -20 50 -4 19 -13 44 -19 55 -7 11 -18 37 -25 57 -7 20 -19 42
-27 48 -7 7 -14 23 -14 35 0 12 -7 28 -15 35 -8 7 -17 28 -21 49 -4 20 -15 47
-25 60 -11 13 -19 32 -19 43 0 10 -6 21 -14 24 -8 3 -17 16 -20 30 -4 13 -15
33 -26 44 -11 11 -20 29 -20 40 0 11 -7 23 -15 26 -8 4 -15 10 -15 14 0 13
-18 51 -45 95 -13 22 -30 51 -37 65 -7 14 -21 31 -30 38 -10 7 -18 21 -18 31
0 10 -9 26 -20 36 -11 10 -20 22 -20 27 0 10 -37 63 -62 90 -10 10 -18 25 -18
33 0 9 -6 18 -14 21 -8 3 -27 24 -42 47 -16 23 -45 63 -66 88 -21 26 -38 50
-38 54 0 4 -10 18 -22 30 -28 28 -41 45 -54 67 -17 31 -280 317 -389 423 -125
122 -302 270 -391 328 -69 44 -136 90 -218 149 -33 24 -83 57 -111 73 -29 17
-71 42 -93 58 -23 15 -47 27 -53 27 -6 0 -22 9 -36 20 -14 11 -34 20 -44 20
-10 0 -20 4 -24 9 -3 5 -33 23 -68 41 -34 17 -69 35 -77 40 -8 6 -26 14 -40
20 -14 5 -32 14 -40 18 -8 5 -28 15 -45 23 -16 9 -48 25 -70 36 -118 62 -204
71 -265 29z" fill="none" stroke="url(#sThread1)" stroke-width="25" stroke-dasharray="25,12"/>
  <path d="M7530 13516 c-19 -13 -50 -44 -69 -70 -19 -25 -38 -46 -41 -46 -4 0
-21 -20 -38 -44 -32 -44 -59 -75 -222 -251 -122 -133 -194 -214 -204 -232 -8
-15 -117 -131 -276 -293 -109 -111 -231 -244 -270 -294 -17 -22 -43 -51 -59
-66 -15 -15 -52 -56 -81 -91 -29 -35 -58 -68 -65 -74 -6 -5 -31 -35 -56 -65
-24 -30 -69 -80 -99 -111 -88 -89 -171 -180 -220 -240 -25 -30 -58 -68 -75
-85 -16 -16 -43 -47 -60 -69 -46 -62 -90 -110 -225 -246 -126 -126 -226 -237
-245 -270 -5 -9 -50 -60 -100 -112 -94 -99 -156 -168 -202 -228 -16 -19 -62
-69 -103 -111 -75 -75 -167 -177 -218 -240 -15 -19 -40 -47 -57 -64 -16 -16
-52 -56 -80 -89 -27 -33 -55 -64 -62 -70 -7 -5 -34 -37 -60 -70 -26 -33 -70
-81 -97 -105 -76 -69 -185 -180 -251 -255 -33 -37 -95 -105 -139 -151 -43 -46
-88 -97 -100 -113 -12 -16 -46 -57 -76 -90 -112 -123 -116 -135 -72 -176 27
-26 27 -26 167 -21 354 12 2475 28 2555 19 62 -7 98 -6 132 2 52 13 98 53 98
86 0 11 7 22 15 25 8 4 15 14 15 23 0 9 6 26 13 38 6 12 28 53 47 90 19 38 43
79 52 92 10 13 18 30 18 38 0 8 9 26 20 40 11 14 20 34 20 45 0 10 6 21 14 24
8 3 18 19 21 36 4 16 13 32 20 35 8 2 17 17 20 33 3 16 13 34 21 41 8 6 17 29
21 51 3 22 12 42 19 45 6 2 15 16 19 30 3 15 15 38 26 51 10 14 19 30 19 37 0
6 9 20 20 30 11 10 20 26 20 35 0 10 7 23 15 30 8 7 17 27 21 46 3 18 15 43
25 55 10 12 19 30 19 39 0 9 9 25 20 35 11 10 20 28 20 39 0 12 9 29 20 39 11
9 20 25 20 36 0 10 7 24 15 31 8 7 17 27 21 46 3 18 15 43 25 55 10 12 19 32
19 43 0 12 9 29 20 39 11 9 20 25 20 35 0 11 9 27 20 37 11 10 20 25 20 34 0
9 9 30 20 46 11 17 20 39 20 51 0 11 9 29 20 39 11 10 20 26 20 35 0 9 9 27
20 40 11 13 20 31 20 40 0 9 9 25 20 35 11 10 20 26 20 36 0 10 4 20 9 24 14
8 71 125 71 145 0 9 9 25 20 35 11 10 20 26 20 35 0 9 9 27 20 40 11 13 20 29
20 35 0 7 9 24 20 38 11 14 20 34 20 45 0 10 9 31 20 45 11 14 20 34 20 45 0
11 6 27 13 34 7 7 30 48 50 90 21 42 42 80 47 83 6 3 10 19 10 34 0 16 9 40
20 54 11 14 20 33 20 42 0 24 60 74 98 81 22 4 54 -1 96 -15 34 -11 74 -21 87
-21 14 0 30 -5 36 -11 6 -6 30 -15 54 -20 24 -5 58 -16 74 -23 17 -8 53 -24
80 -36 28 -12 62 -28 77 -36 14 -8 35 -14 46 -14 12 0 24 -4 27 -10 3 -5 29
-21 58 -36 29 -14 70 -40 92 -58 22 -17 66 -45 98 -61 96 -50 119 -65 249
-162 129 -97 411 -378 543 -540 11 -14 33 -39 48 -56 16 -18 36 -45 44 -61 8
-16 31 -52 51 -80 20 -28 48 -69 64 -91 15 -22 41 -59 58 -83 16 -23 30 -46
30 -51 0 -13 65 -137 101 -191 9 -14 20 -40 23 -57 4 -17 14 -37 22 -44 8 -6
14 -23 14 -38 0 -14 8 -42 18 -61 11 -19 22 -55 26 -79 4 -24 13 -53 21 -64 8
-12 15 -31 15 -42 0 -38 53 -96 106 -117 63 -24 175 -25 261 -2 52 14 67 22
75 43 14 35 4 152 -14 182 -9 13 -18 54 -21 91 -2 38 -12 79 -21 93 -9 13 -16
39 -16 58 0 18 -8 49 -19 69 -10 20 -21 58 -25 84 -3 26 -12 55 -20 63 -7 9
-16 43 -20 76 -4 33 -13 69 -20 80 -7 11 -16 41 -20 67 -4 25 -13 51 -20 58
-8 6 -17 26 -20 44 -4 19 -13 39 -21 46 -7 6 -17 26 -20 43 -4 18 -13 39 -20
47 -7 8 -16 31 -20 50 -4 19 -13 44 -19 55 -7 11 -18 37 -25 57 -7 20 -19 42
-27 48 -7 7 -14 23 -14 35 0 12 -7 28 -15 35 -8 7 -17 28 -21 49 -4 20 -15 47
-25 60 -11 13 -19 32 -19 43 0 10 -6 21 -14 24 -8 3 -17 16 -20 30 -4 13 -15
33 -26 44 -11 11 -20 29 -20 40 0 11 -7 23 -15 26 -8 4 -15 10 -15 14 0 13
-18 51 -45 95 -13 22 -30 51 -37 65 -7 14 -21 31 -30 38 -10 7 -18 21 -18 31
0 10 -9 26 -20 36 -11 10 -20 22 -20 27 0 10 -37 63 -62 90 -10 10 -18 25 -18
33 0 9 -6 18 -14 21 -8 3 -27 24 -42 47 -16 23 -45 63 -66 88 -21 26 -38 50
-38 54 0 4 -10 18 -22 30 -28 28 -41 45 -54 67 -17 31 -280 317 -389 423 -125
122 -302 270 -391 328 -69 44 -136 90 -218 149 -33 24 -83 57 -111 73 -29 17
-71 42 -93 58 -23 15 -47 27 -53 27 -6 0 -22 9 -36 20 -14 11 -34 20 -44 20
-10 0 -20 4 -24 9 -3 5 -33 23 -68 41 -34 17 -69 35 -77 40 -8 6 -26 14 -40
20 -14 5 -32 14 -40 18 -8 5 -28 15 -45 23 -16 9 -48 25 -70 36 -118 62 -204
71 -265 29z" fill="none" stroke="#b89840" stroke-width="12" stroke-dasharray="18,10" opacity="0.5"/>
  
  <!-- LOWER ARC -->
  <path d="M3613 8560 c-26 -10 -38 -48 -29 -86 4 -14 66 -86 139 -161 299 -306
400 -415 421 -452 5 -9 48 -56 96 -106 48 -49 122 -128 165 -175 43 -47 114
-121 158 -165 44 -44 87 -92 96 -106 24 -39 115 -142 206 -234 45 -44 101
-105 125 -135 25 -30 60 -70 77 -90 18 -19 33 -38 33 -41 0 -3 37 -44 83 -90
45 -46 116 -122 158 -169 129 -144 183 -204 194 -218 5 -8 39 -46 75 -85 36
-40 81 -90 100 -111 19 -22 52 -57 74 -79 21 -21 61 -64 89 -96 27 -31 118
-127 201 -214 83 -87 153 -164 156 -172 3 -7 22 -32 42 -56 21 -24 50 -60 65
-79 43 -55 90 -106 199 -217 125 -128 286 -300 326 -350 16 -21 33 -40 38 -43
5 -3 23 -23 40 -45 17 -22 66 -77 108 -121 145 -153 187 -199 235 -258 26 -33
53 -64 60 -70 8 -6 33 -36 57 -66 59 -74 137 -146 179 -166 39 -19 109 -13
144 11 12 8 31 15 43 15 12 0 27 6 33 14 6 7 25 16 42 20 17 3 37 13 45 21 9
8 26 15 38 15 13 0 29 7 36 15 7 8 16 15 21 15 12 0 51 18 84 40 17 11 41 26
55 33 30 15 83 49 90 58 3 3 16 10 30 14 22 7 76 41 90 56 3 3 25 15 50 28 25
13 63 37 85 55 22 17 62 42 88 56 26 14 60 36 76 50 15 14 47 38 72 55 52 34
167 122 190 144 9 9 43 39 75 66 83 70 430 419 484 485 24 30 52 63 62 73 10
10 18 21 18 26 0 4 18 27 40 52 22 24 40 50 40 57 0 7 9 20 20 29 11 10 20 22
20 28 0 6 14 27 31 46 17 19 47 59 67 89 20 30 42 61 49 68 7 7 13 19 13 26 0
7 9 21 20 31 11 10 20 27 20 37 0 10 7 21 15 25 9 3 22 20 30 37 9 17 26 49
39 71 14 22 32 54 40 70 17 32 30 55 58 96 9 15 20 38 23 52 4 14 13 28 21 31
8 3 14 16 14 29 0 14 8 35 19 48 10 13 22 35 26 49 4 14 13 32 20 40 7 8 16
29 19 47 4 17 13 34 20 36 7 3 16 23 19 45 4 22 14 45 22 52 8 7 15 22 15 34
0 12 8 37 19 56 10 19 22 54 25 77 4 23 14 47 21 53 7 6 16 29 20 50 4 21 13
44 20 50 7 6 16 30 20 53 4 23 13 52 20 63 8 12 17 46 21 75 4 30 13 61 20 69
7 9 16 43 20 75 4 33 15 76 26 95 10 19 18 52 18 73 0 21 7 48 15 61 9 13 18
54 21 92 4 38 14 80 22 94 20 31 23 143 4 162 -10 10 -55 12 -190 11 l-177 -3
-27 -32 c-15 -18 -30 -49 -33 -68 -4 -19 -12 -46 -20 -60 -7 -14 -16 -43 -21
-65 -4 -22 -15 -56 -25 -75 -11 -19 -19 -41 -19 -48 0 -8 -9 -25 -20 -39 -11
-14 -20 -32 -20 -40 0 -8 -9 -26 -20 -40 -11 -14 -20 -34 -20 -43 0 -10 -6
-23 -14 -29 -8 -7 -18 -27 -22 -44 -3 -18 -15 -43 -25 -56 -11 -13 -19 -29
-19 -36 0 -6 -9 -20 -20 -30 -11 -10 -20 -22 -20 -27 0 -4 -16 -31 -36 -59
-19 -28 -38 -58 -42 -67 -12 -30 -99 -156 -128 -187 -16 -16 -40 -46 -54 -67
-32 -47 -112 -130 -231 -243 -130 -123 -192 -174 -349 -292 -74 -55 -144 -110
-155 -120 -12 -11 -33 -26 -48 -34 -53 -28 -132 -67 -147 -73 -8 -4 -33 -17
-55 -29 -53 -30 -109 -59 -170 -87 -27 -12 -63 -29 -78 -36 -16 -8 -33 -14
-39 -14 -5 0 -47 -18 -93 -40 -46 -22 -91 -40 -102 -40 -10 0 -27 -7 -37 -15
-11 -9 -41 -15 -68 -15 -43 0 -54 5 -93 41 -25 23 -45 49 -45 59 0 9 -9 25
-20 35 -11 10 -20 28 -20 40 0 12 -9 30 -20 40 -11 10 -20 25 -20 32 0 8 -9
26 -20 40 -11 14 -20 33 -20 42 0 9 -9 30 -20 46 -11 17 -20 37 -20 46 0 9 -9
24 -20 34 -11 10 -20 28 -20 39 0 12 -9 29 -20 39 -11 9 -20 25 -20 35 0 11
-9 27 -20 37 -11 10 -20 23 -20 30 0 16 -59 133 -71 140 -5 4 -9 17 -9 29 0
13 -9 35 -20 49 -11 14 -20 32 -20 40 0 9 -6 22 -13 29 -18 19 -67 117 -67
135 0 8 -9 26 -20 40 -11 14 -20 36 -20 48 0 12 -9 32 -20 45 -11 13 -20 29
-20 35 0 7 -9 24 -20 38 -11 14 -20 32 -20 40 0 8 -9 26 -20 40 -11 14 -20 32
-20 40 0 8 -9 26 -20 40 -11 14 -20 32 -20 40 0 8 -9 25 -19 39 -11 13 -23 36
-26 51 -4 14 -13 28 -21 31 -8 3 -14 16 -14 29 0 13 -9 32 -20 42 -11 10 -20
26 -20 35 0 10 -9 29 -20 43 -11 14 -20 32 -20 40 0 8 -9 26 -20 40 -11 14
-20 32 -20 40 0 8 -9 26 -20 40 -11 14 -20 32 -20 40 0 8 -9 26 -20 40 -11 14
-20 32 -20 40 0 8 -8 25 -19 38 -10 13 -22 39 -25 56 -4 18 -12 35 -17 39 -5
3 -16 20 -25 37 -8 18 -26 50 -39 72 -14 22 -32 54 -40 72 -8 17 -19 34 -25
38 -5 3 -10 17 -10 29 0 13 -9 35 -20 49 -11 14 -23 39 -26 56 -4 16 -12 32
-20 35 -8 3 -14 13 -14 23 0 10 -12 41 -25 68 -14 28 -25 57 -25 65 0 8 -20
34 -45 58 -37 36 -51 42 -87 43 -24 0 -621 0 -1328 -1 -1120 -1 -1295 1 -1365
15 -89 17 -120 18 -152 5z" fill="#7a5818" fill-opacity="0.45"/>
  <path d="M3613 8560 c-26 -10 -38 -48 -29 -86 4 -14 66 -86 139 -161 299 -306
400 -415 421 -452 5 -9 48 -56 96 -106 48 -49 122 -128 165 -175 43 -47 114
-121 158 -165 44 -44 87 -92 96 -106 24 -39 115 -142 206 -234 45 -44 101
-105 125 -135 25 -30 60 -70 77 -90 18 -19 33 -38 33 -41 0 -3 37 -44 83 -90
45 -46 116 -122 158 -169 129 -144 183 -204 194 -218 5 -8 39 -46 75 -85 36
-40 81 -90 100 -111 19 -22 52 -57 74 -79 21 -21 61 -64 89 -96 27 -31 118
-127 201 -214 83 -87 153 -164 156 -172 3 -7 22 -32 42 -56 21 -24 50 -60 65
-79 43 -55 90 -106 199 -217 125 -128 286 -300 326 -350 16 -21 33 -40 38 -43
5 -3 23 -23 40 -45 17 -22 66 -77 108 -121 145 -153 187 -199 235 -258 26 -33
53 -64 60 -70 8 -6 33 -36 57 -66 59 -74 137 -146 179 -166 39 -19 109 -13
144 11 12 8 31 15 43 15 12 0 27 6 33 14 6 7 25 16 42 20 17 3 37 13 45 21 9
8 26 15 38 15 13 0 29 7 36 15 7 8 16 15 21 15 12 0 51 18 84 40 17 11 41 26
55 33 30 15 83 49 90 58 3 3 16 10 30 14 22 7 76 41 90 56 3 3 25 15 50 28 25
13 63 37 85 55 22 17 62 42 88 56 26 14 60 36 76 50 15 14 47 38 72 55 52 34
167 122 190 144 9 9 43 39 75 66 83 70 430 419 484 485 24 30 52 63 62 73 10
10 18 21 18 26 0 4 18 27 40 52 22 24 40 50 40 57 0 7 9 20 20 29 11 10 20 22
20 28 0 6 14 27 31 46 17 19 47 59 67 89 20 30 42 61 49 68 7 7 13 19 13 26 0
7 9 21 20 31 11 10 20 27 20 37 0 10 7 21 15 25 9 3 22 20 30 37 9 17 26 49
39 71 14 22 32 54 40 70 17 32 30 55 58 96 9 15 20 38 23 52 4 14 13 28 21 31
8 3 14 16 14 29 0 14 8 35 19 48 10 13 22 35 26 49 4 14 13 32 20 40 7 8 16
29 19 47 4 17 13 34 20 36 7 3 16 23 19 45 4 22 14 45 22 52 8 7 15 22 15 34
0 12 8 37 19 56 10 19 22 54 25 77 4 23 14 47 21 53 7 6 16 29 20 50 4 21 13
44 20 50 7 6 16 30 20 53 4 23 13 52 20 63 8 12 17 46 21 75 4 30 13 61 20 69
7 9 16 43 20 75 4 33 15 76 26 95 10 19 18 52 18 73 0 21 7 48 15 61 9 13 18
54 21 92 4 38 14 80 22 94 20 31 23 143 4 162 -10 10 -55 12 -190 11 l-177 -3
-27 -32 c-15 -18 -30 -49 -33 -68 -4 -19 -12 -46 -20 -60 -7 -14 -16 -43 -21
-65 -4 -22 -15 -56 -25 -75 -11 -19 -19 -41 -19 -48 0 -8 -9 -25 -20 -39 -11
-14 -20 -32 -20 -40 0 -8 -9 -26 -20 -40 -11 -14 -20 -34 -20 -43 0 -10 -6
-23 -14 -29 -8 -7 -18 -27 -22 -44 -3 -18 -15 -43 -25 -56 -11 -13 -19 -29
-19 -36 0 -6 -9 -20 -20 -30 -11 -10 -20 -22 -20 -27 0 -4 -16 -31 -36 -59
-19 -28 -38 -58 -42 -67 -12 -30 -99 -156 -128 -187 -16 -16 -40 -46 -54 -67
-32 -47 -112 -130 -231 -243 -130 -123 -192 -174 -349 -292 -74 -55 -144 -110
-155 -120 -12 -11 -33 -26 -48 -34 -53 -28 -132 -67 -147 -73 -8 -4 -33 -17
-55 -29 -53 -30 -109 -59 -170 -87 -27 -12 -63 -29 -78 -36 -16 -8 -33 -14
-39 -14 -5 0 -47 -18 -93 -40 -46 -22 -91 -40 -102 -40 -10 0 -27 -7 -37 -15
-11 -9 -41 -15 -68 -15 -43 0 -54 5 -93 41 -25 23 -45 49 -45 59 0 9 -9 25
-20 35 -11 10 -20 28 -20 40 0 12 -9 30 -20 40 -11 10 -20 25 -20 32 0 8 -9
26 -20 40 -11 14 -20 33 -20 42 0 9 -9 30 -20 46 -11 17 -20 37 -20 46 0 9 -9
24 -20 34 -11 10 -20 28 -20 39 0 12 -9 29 -20 39 -11 9 -20 25 -20 35 0 11
-9 27 -20 37 -11 10 -20 23 -20 30 0 16 -59 133 -71 140 -5 4 -9 17 -9 29 0
13 -9 35 -20 49 -11 14 -20 32 -20 40 0 9 -6 22 -13 29 -18 19 -67 117 -67
135 0 8 -9 26 -20 40 -11 14 -20 36 -20 48 0 12 -9 32 -20 45 -11 13 -20 29
-20 35 0 7 -9 24 -20 38 -11 14 -20 32 -20 40 0 8 -9 26 -20 40 -11 14 -20 32
-20 40 0 8 -9 26 -20 40 -11 14 -20 32 -20 40 0 8 -9 25 -19 39 -11 13 -23 36
-26 51 -4 14 -13 28 -21 31 -8 3 -14 16 -14 29 0 13 -9 32 -20 42 -11 10 -20
26 -20 35 0 10 -9 29 -20 43 -11 14 -20 32 -20 40 0 8 -9 26 -20 40 -11 14
-20 32 -20 40 0 8 -9 26 -20 40 -11 14 -20 32 -20 40 0 8 -9 26 -20 40 -11 14
-20 32 -20 40 0 8 -8 25 -19 38 -10 13 -22 39 -25 56 -4 18 -12 35 -17 39 -5
3 -16 20 -25 37 -8 18 -26 50 -39 72 -14 22 -32 54 -40 72 -8 17 -19 34 -25
38 -5 3 -10 17 -10 29 0 13 -9 35 -20 49 -11 14 -23 39 -26 56 -4 16 -12 32
-20 35 -8 3 -14 13 -14 23 0 10 -12 41 -25 68 -14 28 -25 57 -25 65 0 8 -20
34 -45 58 -37 36 -51 42 -87 43 -24 0 -621 0 -1328 -1 -1120 -1 -1295 1 -1365
15 -89 17 -120 18 -152 5z" fill="none" stroke="url(#sThread2)" stroke-width="25" stroke-dasharray="25,12"/>
  <path d="M3613 8560 c-26 -10 -38 -48 -29 -86 4 -14 66 -86 139 -161 299 -306
400 -415 421 -452 5 -9 48 -56 96 -106 48 -49 122 -128 165 -175 43 -47 114
-121 158 -165 44 -44 87 -92 96 -106 24 -39 115 -142 206 -234 45 -44 101
-105 125 -135 25 -30 60 -70 77 -90 18 -19 33 -38 33 -41 0 -3 37 -44 83 -90
45 -46 116 -122 158 -169 129 -144 183 -204 194 -218 5 -8 39 -46 75 -85 36
-40 81 -90 100 -111 19 -22 52 -57 74 -79 21 -21 61 -64 89 -96 27 -31 118
-127 201 -214 83 -87 153 -164 156 -172 3 -7 22 -32 42 -56 21 -24 50 -60 65
-79 43 -55 90 -106 199 -217 125 -128 286 -300 326 -350 16 -21 33 -40 38 -43
5 -3 23 -23 40 -45 17 -22 66 -77 108 -121 145 -153 187 -199 235 -258 26 -33
53 -64 60 -70 8 -6 33 -36 57 -66 59 -74 137 -146 179 -166 39 -19 109 -13
144 11 12 8 31 15 43 15 12 0 27 6 33 14 6 7 25 16 42 20 17 3 37 13 45 21 9
8 26 15 38 15 13 0 29 7 36 15 7 8 16 15 21 15 12 0 51 18 84 40 17 11 41 26
55 33 30 15 83 49 90 58 3 3 16 10 30 14 22 7 76 41 90 56 3 3 25 15 50 28 25
13 63 37 85 55 22 17 62 42 88 56 26 14 60 36 76 50 15 14 47 38 72 55 52 34
167 122 190 144 9 9 43 39 75 66 83 70 430 419 484 485 24 30 52 63 62 73 10
10 18 21 18 26 0 4 18 27 40 52 22 24 40 50 40 57 0 7 9 20 20 29 11 10 20 22
20 28 0 6 14 27 31 46 17 19 47 59 67 89 20 30 42 61 49 68 7 7 13 19 13 26 0
7 9 21 20 31 11 10 20 27 20 37 0 10 7 21 15 25 9 3 22 20 30 37 9 17 26 49
39 71 14 22 32 54 40 70 17 32 30 55 58 96 9 15 20 38 23 52 4 14 13 28 21 31
8 3 14 16 14 29 0 14 8 35 19 48 10 13 22 35 26 49 4 14 13 32 20 40 7 8 16
29 19 47 4 17 13 34 20 36 7 3 16 23 19 45 4 22 14 45 22 52 8 7 15 22 15 34
0 12 8 37 19 56 10 19 22 54 25 77 4 23 14 47 21 53 7 6 16 29 20 50 4 21 13
44 20 50 7 6 16 30 20 53 4 23 13 52 20 63 8 12 17 46 21 75 4 30 13 61 20 69
7 9 16 43 20 75 4 33 15 76 26 95 10 19 18 52 18 73 0 21 7 48 15 61 9 13 18
54 21 92 4 38 14 80 22 94 20 31 23 143 4 162 -10 10 -55 12 -190 11 l-177 -3
-27 -32 c-15 -18 -30 -49 -33 -68 -4 -19 -12 -46 -20 -60 -7 -14 -16 -43 -21
-65 -4 -22 -15 -56 -25 -75 -11 -19 -19 -41 -19 -48 0 -8 -9 -25 -20 -39 -11
-14 -20 -32 -20 -40 0 -8 -9 -26 -20 -40 -11 -14 -20 -34 -20 -43 0 -10 -6
-23 -14 -29 -8 -7 -18 -27 -22 -44 -3 -18 -15 -43 -25 -56 -11 -13 -19 -29
-19 -36 0 -6 -9 -20 -20 -30 -11 -10 -20 -22 -20 -27 0 -4 -16 -31 -36 -59
-19 -28 -38 -58 -42 -67 -12 -30 -99 -156 -128 -187 -16 -16 -40 -46 -54 -67
-32 -47 -112 -130 -231 -243 -130 -123 -192 -174 -349 -292 -74 -55 -144 -110
-155 -120 -12 -11 -33 -26 -48 -34 -53 -28 -132 -67 -147 -73 -8 -4 -33 -17
-55 -29 -53 -30 -109 -59 -170 -87 -27 -12 -63 -29 -78 -36 -16 -8 -33 -14
-39 -14 -5 0 -47 -18 -93 -40 -46 -22 -91 -40 -102 -40 -10 0 -27 -7 -37 -15
-11 -9 -41 -15 -68 -15 -43 0 -54 5 -93 41 -25 23 -45 49 -45 59 0 9 -9 25
-20 35 -11 10 -20 28 -20 40 0 12 -9 30 -20 40 -11 10 -20 25 -20 32 0 8 -9
26 -20 40 -11 14 -20 33 -20 42 0 9 -9 30 -20 46 -11 17 -20 37 -20 46 0 9 -9
24 -20 34 -11 10 -20 28 -20 39 0 12 -9 29 -20 39 -11 9 -20 25 -20 35 0 11
-9 27 -20 37 -11 10 -20 23 -20 30 0 16 -59 133 -71 140 -5 4 -9 17 -9 29 0
13 -9 35 -20 49 -11 14 -20 32 -20 40 0 9 -6 22 -13 29 -18 19 -67 117 -67
135 0 8 -9 26 -20 40 -11 14 -20 36 -20 48 0 12 -9 32 -20 45 -11 13 -20 29
-20 35 0 7 -9 24 -20 38 -11 14 -20 32 -20 40 0 8 -9 26 -20 40 -11 14 -20 32
-20 40 0 8 -9 26 -20 40 -11 14 -20 32 -20 40 0 8 -9 25 -19 39 -11 13 -23 36
-26 51 -4 14 -13 28 -21 31 -8 3 -14 16 -14 29 0 13 -9 32 -20 42 -11 10 -20
26 -20 35 0 10 -9 29 -20 43 -11 14 -20 32 -20 40 0 8 -9 26 -20 40 -11 14
-20 32 -20 40 0 8 -9 26 -20 40 -11 14 -20 32 -20 40 0 8 -9 26 -20 40 -11 14
-20 32 -20 40 0 8 -8 25 -19 38 -10 13 -22 39 -25 56 -4 18 -12 35 -17 39 -5
3 -16 20 -25 37 -8 18 -26 50 -39 72 -14 22 -32 54 -40 72 -8 17 -19 34 -25
38 -5 3 -10 17 -10 29 0 13 -9 35 -20 49 -11 14 -23 39 -26 56 -4 16 -12 32
-20 35 -8 3 -14 13 -14 23 0 10 -12 41 -25 68 -14 28 -25 57 -25 65 0 8 -20
34 -45 58 -37 36 -51 42 -87 43 -24 0 -621 0 -1328 -1 -1120 -1 -1295 1 -1365
15 -89 17 -120 18 -152 5z" fill="none" stroke="#b89840" stroke-width="12" stroke-dasharray="18,10" opacity="0.5"/>
  
  <!-- CENTER CIRCLE -->
  <path d="M8181 10000 c-24 -11 -53 -20 -65 -20 -12 0 -31 -7 -42 -15 -10 -8
-26 -15 -35 -15 -9 0 -26 -9 -39 -20 -13 -11 -31 -20 -41 -20 -10 0 -20 -4
-23 -9 -3 -5 -32 -21 -63 -37 -32 -15 -73 -41 -92 -58 -65 -60 -111 -106 -111
-114 0 -4 -25 -34 -55 -67 -30 -33 -55 -64 -55 -68 0 -5 -15 -27 -34 -50 -32
-40 -52 -74 -76 -127 -7 -14 -20 -42 -31 -62 -11 -21 -19 -58 -19 -85 -1 -26
-9 -66 -20 -88 -11 -23 -19 -62 -20 -90 0 -28 -7 -77 -15 -108 -19 -74 -19
-180 0 -280 8 -43 15 -109 15 -145 0 -50 5 -75 20 -97 11 -16 20 -40 20 -52 0
-25 72 -168 101 -199 10 -11 19 -24 19 -28 0 -5 18 -30 40 -56 22 -26 40 -51
40 -54 0 -9 102 -136 109 -136 3 0 20 -12 36 -28 25 -23 149 -111 188 -134 7
-4 35 -17 62 -28 28 -12 64 -28 80 -36 17 -7 50 -17 75 -20 25 -4 59 -14 75
-22 44 -22 412 -23 447 0 12 8 42 18 65 21 40 7 57 13 133 52 137 69 186 106
329 245 49 47 83 93 138 185 28 47 73 139 73 150 0 7 9 24 20 38 11 14 20 36
20 49 0 12 9 37 20 53 12 18 20 47 20 75 0 25 9 63 20 85 17 35 19 63 20 245
0 174 -2 209 -16 229 -9 13 -20 54 -24 92 -5 41 -15 77 -24 88 -9 10 -16 31
-16 48 0 17 -9 42 -20 56 -11 14 -20 29 -20 35 0 5 -9 19 -20 32 -11 13 -20
28 -20 35 0 7 -9 22 -20 35 -11 13 -20 29 -20 36 0 7 -6 19 -12 26 -7 7 -26
33 -43 58 -34 51 -128 148 -195 201 -58 45 -214 137 -249 146 -14 3 -35 12
-46 19 -11 8 -31 14 -46 14 -14 0 -55 9 -89 20 -53 17 -90 20 -244 20 -159 0
-186 -3 -225 -20z" fill="#9a7828" fill-opacity="0.55"/>
  <path d="M8181 10000 c-24 -11 -53 -20 -65 -20 -12 0 -31 -7 -42 -15 -10 -8
-26 -15 -35 -15 -9 0 -26 -9 -39 -20 -13 -11 -31 -20 -41 -20 -10 0 -20 -4
-23 -9 -3 -5 -32 -21 -63 -37 -32 -15 -73 -41 -92 -58 -65 -60 -111 -106 -111
-114 0 -4 -25 -34 -55 -67 -30 -33 -55 -64 -55 -68 0 -5 -15 -27 -34 -50 -32
-40 -52 -74 -76 -127 -7 -14 -20 -42 -31 -62 -11 -21 -19 -58 -19 -85 -1 -26
-9 -66 -20 -88 -11 -23 -19 -62 -20 -90 0 -28 -7 -77 -15 -108 -19 -74 -19
-180 0 -280 8 -43 15 -109 15 -145 0 -50 5 -75 20 -97 11 -16 20 -40 20 -52 0
-25 72 -168 101 -199 10 -11 19 -24 19 -28 0 -5 18 -30 40 -56 22 -26 40 -51
40 -54 0 -9 102 -136 109 -136 3 0 20 -12 36 -28 25 -23 149 -111 188 -134 7
-4 35 -17 62 -28 28 -12 64 -28 80 -36 17 -7 50 -17 75 -20 25 -4 59 -14 75
-22 44 -22 412 -23 447 0 12 8 42 18 65 21 40 7 57 13 133 52 137 69 186 106
329 245 49 47 83 93 138 185 28 47 73 139 73 150 0 7 9 24 20 38 11 14 20 36
20 49 0 12 9 37 20 53 12 18 20 47 20 75 0 25 9 63 20 85 17 35 19 63 20 245
0 174 -2 209 -16 229 -9 13 -20 54 -24 92 -5 41 -15 77 -24 88 -9 10 -16 31
-16 48 0 17 -9 42 -20 56 -11 14 -20 29 -20 35 0 5 -9 19 -20 32 -11 13 -20
28 -20 35 0 7 -9 22 -20 35 -11 13 -20 29 -20 36 0 7 -6 19 -12 26 -7 7 -26
33 -43 58 -34 51 -128 148 -195 201 -58 45 -214 137 -249 146 -14 3 -35 12
-46 19 -11 8 -31 14 -46 14 -14 0 -55 9 -89 20 -53 17 -90 20 -244 20 -159 0
-186 -3 -225 -20z" fill="none" stroke="url(#sThread1)" stroke-width="20" stroke-dasharray="20,10"/>
  <path d="M8181 10000 c-24 -11 -53 -20 -65 -20 -12 0 -31 -7 -42 -15 -10 -8
-26 -15 -35 -15 -9 0 -26 -9 -39 -20 -13 -11 -31 -20 -41 -20 -10 0 -20 -4
-23 -9 -3 -5 -32 -21 -63 -37 -32 -15 -73 -41 -92 -58 -65 -60 -111 -106 -111
-114 0 -4 -25 -34 -55 -67 -30 -33 -55 -64 -55 -68 0 -5 -15 -27 -34 -50 -32
-40 -52 -74 -76 -127 -7 -14 -20 -42 -31 -62 -11 -21 -19 -58 -19 -85 -1 -26
-9 -66 -20 -88 -11 -23 -19 -62 -20 -90 0 -28 -7 -77 -15 -108 -19 -74 -19
-180 0 -280 8 -43 15 -109 15 -145 0 -50 5 -75 20 -97 11 -16 20 -40 20 -52 0
-25 72 -168 101 -199 10 -11 19 -24 19 -28 0 -5 18 -30 40 -56 22 -26 40 -51
40 -54 0 -9 102 -136 109 -136 3 0 20 -12 36 -28 25 -23 149 -111 188 -134 7
-4 35 -17 62 -28 28 -12 64 -28 80 -36 17 -7 50 -17 75 -20 25 -4 59 -14 75
-22 44 -22 412 -23 447 0 12 8 42 18 65 21 40 7 57 13 133 52 137 69 186 106
329 245 49 47 83 93 138 185 28 47 73 139 73 150 0 7 9 24 20 38 11 14 20 36
20 49 0 12 9 37 20 53 12 18 20 47 20 75 0 25 9 63 20 85 17 35 19 63 20 245
0 174 -2 209 -16 229 -9 13 -20 54 -24 92 -5 41 -15 77 -24 88 -9 10 -16 31
-16 48 0 17 -9 42 -20 56 -11 14 -20 29 -20 35 0 5 -9 19 -20 32 -11 13 -20
28 -20 35 0 7 -9 22 -20 35 -11 13 -20 29 -20 36 0 7 -6 19 -12 26 -7 7 -26
33 -43 58 -34 51 -128 148 -195 201 -58 45 -214 137 -249 146 -14 3 -35 12
-46 19 -11 8 -31 14 -46 14 -14 0 -55 9 -89 20 -53 17 -90 20 -244 20 -159 0
-186 -3 -225 -20z" fill="none" stroke="#c4a050" stroke-width="10" stroke-dasharray="14,8" opacity="0.5"/>
</g>

<!-- === TEXT ARCS (stitched) === -->
<text font-family="Georgia, 'Times New Roman', serif" font-size="120" font-weight="bold" 
      fill="none" stroke="url(#sTextThread)" stroke-width="2.5" stroke-dasharray="6,3" letter-spacing="8">
  <textPath href="#sTxtTop" startOffset="50%" text-anchor="middle">FERENGI ALLIANCE</textPath>
</text>
<text font-family="Georgia, 'Times New Roman', serif" font-size="100" font-weight="bold" 
      fill="none" stroke="url(#sTextThread)" stroke-width="2.5" stroke-dasharray="6,3" letter-spacing="6">
  <textPath href="#sTxtBot" startOffset="50%" text-anchor="middle">COMMERCE AUTHORITY</textPath>
</text>

<!-- Decorative cross-stitch diamonds -->
<g stroke="#c4a050" stroke-width="3" fill="none" opacity="0.7">
  <polygon points="620,2700 655,2682 690,2700 655,2718" stroke-dasharray="4,3"/>
  <polygon points="4710,2700 4745,2682 4780,2700 4745,2718" stroke-dasharray="4,3"/>
</g>

</svg>