<svg version="1.0" xmlns="http://www.w3.org/2000/svg"
 width="441.000000" height="500.000000" viewBox="0 0 441.000000 500.000000"
 preserveAspectRatio="xMidYMid meet">
<metadata>
Created by potrace 1.16, written by Peter Selinger 2001-2019
</metadata>
<g transform="translate(0.000000,500.000000) scale(0.100000,-0.100000)"
fill="#ffcc44" stroke="none">
<path d="M1278 4373 c-9 -10 -34 -54 -55 -98 -22 -44 -110 -217 -195 -385 -86
-168 -212 -417 -282 -554 -70 -138 -124 -256 -122 -263 4 -8 24 -13 59 -13
l53 0 65 71 c35 39 84 95 109 124 39 47 287 328 361 410 15 17 79 90 143 163
141 159 128 155 306 94 251 -85 465 -274 597 -530 18 -35 33 -71 33 -81 0 -9
7 -26 15 -37 8 -10 15 -29 15 -40 0 -12 7 -27 15 -34 10 -8 15 -30 15 -62 0
-27 4 -58 10 -68 5 -10 13 -49 17 -87 l8 -68 730 0 730 0 0 85 c-1 93 -18 217
-41 295 -42 140 -58 186 -95 272 -94 221 -276 454 -464 593 -62 46 -270 155
-314 165 -18 4 -44 13 -59 21 -15 8 -43 14 -62 14 -19 1 -46 7 -60 15 -21 12
-143 14 -771 15 -698 0 -747 -1 -761 -17z M1623 3643 c-48 -53 -97 -106 -108
-118 -11 -12 -63 -69 -116 -126 -53 -57 -111 -122 -130 -144 -42 -50 -217
-243 -245 -270 -27 -27 -36 -53 -22 -61 7 -4 126 -7 267 -6 221 2 257 4 273
19 10 9 18 21 18 26 0 9 43 100 81 170 19 36 29 55 86 165 66 129 76 141 104
124 10 -7 26 -12 35 -12 57 0 244 -169 283 -255 52 -117 54 -120 86 -120 l30
0 -1 58 c-1 32 -6 68 -12 80 -5 12 -18 45 -27 72 -63 181 -229 374 -401 463
-93 48 -99 47 -201 -65z M1820 3093 c-48 -9 -86 -50 -130 -138 -26 -53 -25
-105 4 -168 57 -124 165 -172 271 -119 48 23 76 53 101 111 24 54 33 144 15
156 -5 3 -12 19 -16 35 -9 42 -83 115 -124 123 -36 7 -80 7 -121 0z M1013
2823 c-29 -11 -13 -32 192 -253 23 -25 83 -92 135 -150 126 -141 383 -420 387
-420 12 0 144 68 173 89 160 116 302 307 342 461 36 137 35 160 -10 160 -31 0
-52 -16 -52 -38 0 -36 -68 -148 -125 -207 -74 -77 -229 -158 -261 -137 -6 4
-28 43 -49 87 -22 44 -45 86 -52 93 -7 7 -13 22 -13 32 0 10 -4 21 -9 24 -5 4
-19 27 -31 54 -12 26 -26 56 -33 67 -6 11 -23 44 -38 74 -15 30 -33 58 -41 62
-14 9 -494 11 -515 2z M2447 2823 c-4 -3 -7 -25 -7 -47 -1 -23 -7 -59 -15 -81
-8 -22 -15 -56 -15 -75 0 -19 -7 -46 -15 -60 -8 -14 -14 -36 -15 -48 0 -13 -6
-36 -13 -50 -8 -15 -29 -58 -48 -97 -83 -171 -228 -338 -373 -429 -65 -41
-200 -106 -220 -106 -12 0 -30 -6 -41 -14 -11 -7 -51 -16 -89 -19 -77 -6 -66
-12 -156 94 -30 35 -82 93 -116 129 -33 36 -74 81 -90 101 -39 48 -274 317
-349 399 -33 36 -81 91 -107 122 -45 53 -49 55 -92 54 -25 0 -50 -6 -57 -13
-13 -13 35 -110 525 -1066 50 -97 98 -191 107 -209 31 -61 -5 -58 693 -58 664
0 803 7 926 46 25 8 54 14 65 14 11 1 29 7 39 15 11 8 27 15 36 15 10 0 39 12
66 26 106 56 179 97 184 103 3 3 22 17 42 31 79 52 262 252 341 371 42 64 77
120 77 124 0 4 13 36 30 72 16 35 33 75 36 89 3 13 10 27 15 30 5 3 9 15 9 27
0 12 7 35 15 51 8 15 15 39 15 53 0 14 6 39 14 56 16 38 37 164 43 266 3 55 1
76 -9 82 -15 10 -1441 12 -1451 2z"/>
</g>
</svg>
