<?xml version="1.0" encoding="UTF-8"?>
<svg xmlns="http://www.w3.org/2000/svg" xmlns:xlink="http://www.w3.org/1999/xlink" width="700" height="700" viewBox="0 0 25000 25000">
<defs>
  <clipPath id="clipInner"><circle cx="12500" cy="12500" r="10200"/></clipPath>
  <path id="fTextTop" d="M 1650,12500 A 10850,10850 0 0,1 23350,12500" fill="none"/>
  <path id="fTextBot" d="M 1550,12500 A 10950,10950 0 1,0 23450,12500" fill="none"/>
</defs>

<!-- Ring fill -->
<circle cx="12500" cy="12500" r="11650" fill="#3a4828"/>
<circle cx="12500" cy="12500" r="11650" fill="none" stroke="#5a7038" stroke-width="50"/>
<circle cx="12500" cy="12500" r="10200" fill="none" stroke="#5a7038" stroke-width="50"/>

<!-- Inner dark -->
<circle cx="12500" cy="12500" r="10175" fill="#060a04"/>

<!-- Emblem - flat solid olive-green -->
<g transform="translate(4817,4300) scale(0.82)"><g transform="translate(0,20000) scale(1,-1)"><path d="M4349 19333 c-35 -15 -37 -41 -9 -113 11 -28 20 -63 20 -78 1 -15 7
-38 15 -52 8 -14 14 -37 15 -53 0 -15 9 -53 20 -84 11 -32 20 -71 20 -88 0
-16 7 -43 15 -58 8 -16 17 -52 21 -80 3 -29 12 -69 20 -90 8 -20 14 -51 14
-67 0 -17 9 -56 20 -87 11 -32 20 -73 20 -93 0 -19 7 -48 15 -64 8 -16 18 -54
21 -85 4 -31 12 -67 19 -81 7 -14 15 -50 19 -81 3 -31 13 -69 21 -85 8 -16 15
-47 15 -69 0 -23 9 -66 20 -98 11 -31 20 -70 20 -87 0 -17 6 -41 14 -53 7 -12
16 -44 19 -72 3 -27 13 -63 21 -80 9 -16 16 -48 16 -70 0 -22 7 -52 14 -67 8
-16 18 -49 22 -75 3 -27 11 -57 17 -67 5 -11 13 -51 18 -90 4 -39 15 -84 23
-101 9 -16 16 -45 16 -63 0 -18 6 -45 14 -60 8 -15 17 -50 21 -77 3 -28 13
-67 21 -88 8 -20 14 -53 14 -72 0 -20 9 -61 20 -92 11 -32 20 -78 20 -103 0
-25 6 -55 14 -66 8 -12 18 -45 22 -75 4 -30 13 -63 20 -74 8 -11 14 -36 14
-57 0 -20 9 -60 20 -88 11 -28 20 -70 20 -93 0 -23 6 -51 14 -62 7 -11 17 -49
21 -85 4 -35 13 -74 20 -85 7 -11 15 -46 18 -78 3 -32 11 -65 17 -72 6 -7 14
-40 17 -72 3 -32 11 -67 18 -78 7 -11 15 -47 20 -80 4 -33 13 -72 21 -87 8
-15 14 -49 14 -75 0 -26 7 -61 16 -78 8 -16 18 -52 21 -80 3 -27 11 -59 18
-70 6 -11 15 -46 19 -79 3 -32 13 -68 21 -79 8 -12 15 -40 15 -62 0 -22 9 -66
20 -98 11 -31 20 -73 20 -92 0 -20 6 -48 14 -63 7 -15 16 -51 20 -81 4 -30 14
-67 22 -82 7 -15 14 -45 14 -66 0 -21 9 -64 20 -96 11 -31 20 -70 20 -87 0
-17 6 -45 13 -63 8 -18 17 -61 21 -96 4 -36 14 -77 22 -92 8 -16 14 -43 14
-62 0 -19 9 -54 20 -78 11 -24 20 -60 20 -79 0 -19 7 -48 15 -64 8 -15 15 -44
15 -62 0 -19 9 -60 20 -91 11 -32 20 -71 20 -88 0 -16 7 -43 16 -60 9 -17 19
-64 21 -105 5 -68 3 -77 -18 -101 -83 -91 -110 -119 -156 -157 -63 -52 -710
-698 -918 -916 -82 -86 -226 -232 -319 -324 -93 -92 -208 -207 -255 -256 -143
-148 -514 -519 -921 -922 -486 -480 -563 -557 -785 -784 -99 -102 -476 -481
-837 -842 -594 -593 -658 -660 -658 -689 0 -35 28 -65 151 -162 41 -31 101
-80 134 -108 33 -27 71 -59 85 -71 14 -11 45 -39 70 -63 25 -23 75 -66 110
-96 36 -30 78 -66 93 -82 15 -16 54 -50 85 -76 31 -26 98 -86 147 -133 153
-144 294 -271 365 -329 37 -30 81 -69 96 -86 16 -16 76 -70 134 -120 58 -50
116 -101 131 -114 14 -13 41 -36 60 -51 18 -14 61 -52 94 -83 33 -31 74 -68
90 -82 17 -14 73 -66 126 -114 53 -49 114 -103 135 -120 22 -17 71 -61 109
-98 39 -37 99 -91 134 -120 35 -29 70 -58 76 -64 7 -7 41 -37 76 -67 35 -30
95 -84 134 -120 38 -36 92 -83 119 -105 27 -22 72 -62 101 -90 28 -27 76 -70
105 -95 30 -24 81 -69 114 -100 69 -65 64 -61 146 -129 36 -30 70 -60 75 -65
6 -6 37 -33 70 -61 51 -43 123 -107 185 -165 8 -8 31 -27 50 -41 19 -15 69
-60 110 -100 42 -41 100 -94 130 -119 30 -24 87 -74 125 -111 39 -37 102 -94
140 -126 39 -33 82 -71 96 -84 14 -13 52 -46 84 -74 33 -27 82 -72 110 -99 27
-27 77 -71 110 -99 52 -44 105 -91 180 -162 12 -11 48 -42 80 -70 33 -27 80
-70 105 -94 25 -24 72 -67 105 -94 74 -61 191 -166 304 -273 47 -44 111 -100
141 -124 30 -25 64 -54 75 -65 11 -11 47 -42 80 -70 60 -51 206 -184 215 -196
3 -4 32 -29 65 -56 33 -26 92 -78 130 -114 82 -78 181 -165 284 -252 41 -34
91 -78 111 -97 20 -19 54 -50 75 -69 39 -33 252 -230 284 -262 9 -9 23 -20 32
-25 9 -5 50 -39 90 -76 41 -36 92 -81 114 -100 36 -29 97 -83 129 -113 6 -6
47 -42 91 -80 44 -38 87 -77 95 -86 8 -9 40 -36 69 -60 30 -24 89 -78 131
-119 42 -41 110 -103 151 -137 109 -92 205 -177 281 -249 36 -35 94 -86 128
-115 34 -28 85 -73 113 -99 29 -26 68 -60 87 -76 19 -16 70 -61 113 -101 49
-45 87 -73 101 -73 27 0 61 25 157 116 40 40 90 85 109 100 19 16 66 59 105
96 38 36 97 88 130 114 33 27 62 52 63 56 2 5 34 34 70 64 37 31 107 93 156
138 49 44 98 87 110 95 11 8 23 18 26 21 3 4 52 48 110 99 58 51 137 123 175
160 39 36 97 89 129 116 33 28 83 71 110 97 28 25 67 59 86 75 20 15 45 37 56
48 61 59 135 126 184 165 30 24 69 58 85 75 17 17 68 64 115 105 47 40 105 93
130 116 25 23 72 64 106 91 33 26 75 64 94 83 19 19 59 55 90 80 30 25 87 75
125 111 39 37 90 84 115 104 25 20 74 65 110 99 36 34 92 84 125 111 33 28 97
85 142 129 45 43 95 87 111 99 15 12 51 43 78 69 65 62 87 82 169 153 37 33
86 77 108 98 22 21 65 59 96 84 31 25 80 68 109 95 29 28 69 64 90 80 20 16
69 60 107 97 39 37 97 89 130 115 33 26 65 53 70 60 15 17 106 96 156 136 24
19 60 51 80 70 19 19 62 57 95 85 32 27 91 80 129 117 39 37 88 81 110 98 22
17 72 62 110 98 39 37 97 89 130 117 33 27 74 63 90 79 17 17 57 53 90 80 33
26 92 78 130 115 39 36 86 78 105 93 19 14 62 52 95 84 33 31 85 77 115 101
30 25 89 77 130 117 41 40 88 82 104 94 36 27 134 114 240 211 45 40 117 104
161 141 44 37 103 91 130 119 28 29 84 80 125 114 41 33 98 83 126 111 27 28
68 66 90 85 21 18 72 63 113 100 40 36 82 71 92 76 10 6 52 42 93 82 40 39 99
91 129 116 70 57 126 107 146 130 9 10 51 48 94 84 43 37 100 87 125 112 26
26 74 69 107 96 33 28 83 73 112 102 28 28 89 83 135 122 134 115 208 180 295
259 46 41 96 84 111 96 16 12 51 42 78 68 27 25 67 60 89 77 79 59 125 112
125 142 0 32 -65 102 -240 260 -52 47 -140 132 -195 189 -134 139 -298 303
-371 370 -32 31 -157 157 -276 280 -200 208 -775 792 -974 990 -139 139 -761
754 -773 765 -24 22 -1271 1277 -1496 1506 -132 134 -307 308 -388 385 l-147
141 0 82 c0 62 5 90 20 118 11 21 20 57 20 81 0 23 6 53 14 65 7 12 16 48 19
79 3 32 13 68 21 80 9 12 16 40 16 61 0 20 7 54 15 74 9 21 18 64 22 98 3 33
11 71 18 85 7 14 15 46 18 73 4 26 13 61 22 77 8 16 15 47 15 70 0 23 7 54 15
70 9 16 18 51 21 77 3 27 12 64 19 83 7 19 16 62 18 95 3 33 12 74 21 90 9 17
16 48 16 70 0 22 7 54 16 70 8 17 18 53 21 80 3 28 11 61 18 75 7 14 15 50 19
81 3 31 13 69 21 85 8 16 15 51 15 77 0 26 7 61 15 77 9 16 18 51 22 77 3 27
12 60 19 75 8 15 14 41 14 58 0 17 9 56 20 87 11 32 20 72 20 90 0 19 6 49 14
68 8 18 18 60 21 92 4 32 13 69 20 83 7 14 15 50 19 80 4 30 12 60 17 67 6 6
13 38 16 70 3 32 11 69 18 83 7 14 16 48 20 75 4 28 11 58 16 67 5 9 14 52 19
95 6 43 17 94 25 113 7 19 16 59 19 89 3 29 10 59 15 65 6 7 15 42 20 79 5 36
13 72 18 79 4 7 13 38 20 68 6 30 16 73 22 95 5 22 14 63 20 90 5 28 14 69 20
93 27 106 33 130 42 178 5 28 16 67 24 87 8 20 15 49 15 65 0 16 9 58 20 92
11 34 20 78 20 97 0 19 6 46 14 61 8 15 17 54 21 87 4 33 14 69 21 80 8 11 14
41 14 67 0 26 9 70 20 98 11 28 20 68 20 88 0 21 6 46 14 57 7 11 16 44 20 74
4 30 13 66 20 80 7 14 16 52 19 84 3 32 11 65 17 72 6 7 14 40 17 72 3 32 11
67 18 78 6 11 15 44 19 74 4 30 14 70 22 89 8 19 14 52 14 74 0 21 7 52 15 67
8 16 17 48 21 72 3 24 12 58 19 74 18 41 36 111 42 162 4 34 1 43 -15 52 -31
16 -9965 20 -10003 4z m9025 -706 c28 -21 32 -89 7 -137 -11 -22 -21 -49 -21
-59 0 -10 -9 -38 -20 -62 -11 -24 -20 -62 -20 -84 0 -22 -7 -51 -15 -65 -8
-14 -15 -38 -15 -55 -1 -16 -8 -48 -16 -70 -9 -22 -20 -62 -24 -90 -4 -27 -15
-68 -24 -90 -8 -22 -15 -57 -16 -78 0 -21 -6 -50 -14 -65 -7 -15 -16 -59 -18
-98 -3 -43 -12 -81 -22 -95 -9 -13 -16 -43 -16 -69 0 -25 -7 -58 -16 -75 -9
-16 -18 -55 -21 -85 -3 -30 -11 -64 -18 -75 -6 -11 -15 -42 -18 -68 -4 -27
-14 -58 -22 -70 -8 -12 -15 -39 -15 -60 0 -20 -7 -54 -15 -74 -9 -21 -19 -64
-22 -97 -3 -33 -12 -71 -20 -86 -7 -14 -13 -42 -13 -62 0 -21 -9 -60 -20 -88
-11 -28 -20 -67 -20 -86 0 -19 -6 -48 -14 -63 -8 -15 -18 -63 -22 -107 -4 -43
-13 -91 -20 -106 -8 -15 -14 -42 -14 -60 -1 -18 -9 -51 -20 -73 -11 -22 -19
-58 -20 -80 0 -22 -6 -49 -14 -60 -7 -11 -16 -41 -20 -66 -4 -26 -13 -55 -21
-65 -8 -11 -15 -40 -15 -66 0 -26 -9 -70 -20 -98 -11 -28 -20 -67 -20 -86 0
-19 -6 -47 -14 -62 -8 -15 -17 -49 -21 -76 -4 -27 -14 -61 -21 -75 -8 -14 -14
-44 -14 -66 0 -22 -7 -53 -16 -70 -9 -16 -19 -61 -21 -100 -3 -38 -11 -79 -18
-90 -6 -11 -15 -46 -19 -79 -3 -32 -13 -68 -21 -79 -8 -12 -15 -41 -15 -64 0
-23 -9 -65 -20 -93 -11 -28 -20 -64 -20 -81 0 -16 -6 -42 -14 -57 -7 -15 -17
-53 -20 -85 -4 -32 -14 -70 -22 -85 -7 -15 -14 -45 -14 -67 0 -22 -7 -53 -16
-70 -9 -16 -18 -57 -21 -90 -3 -33 -11 -71 -18 -85 -7 -14 -16 -51 -19 -83 -4
-32 -14 -70 -22 -85 -7 -15 -14 -52 -14 -82 -1 -33 -8 -71 -20 -95 -11 -22
-19 -55 -20 -73 0 -18 -6 -45 -14 -60 -7 -15 -17 -51 -21 -81 -4 -30 -14 -69
-21 -87 -8 -18 -14 -48 -14 -66 0 -18 -7 -46 -16 -63 -9 -16 -18 -55 -21 -85
-3 -30 -11 -64 -18 -75 -6 -11 -15 -43 -18 -72 -3 -29 -13 -65 -21 -82 -9 -16
-16 -49 -16 -73 0 -24 -7 -56 -15 -72 -9 -16 -20 -57 -24 -92 -5 -34 -14 -70
-19 -80 -5 -11 -13 -50 -17 -89 -4 -38 -13 -82 -21 -97 -8 -15 -14 -56 -14
-93 0 -82 10 -97 134 -216 171 -163 891 -885 1076 -1078 102 -107 210 -217
240 -245 39 -36 887 -885 1057 -1059 12 -12 1039 -1029 1333 -1320 140 -138
263 -263 272 -277 35 -49 19 -92 -62 -167 -25 -24 -50 -43 -57 -43 -7 0 -23
-10 -36 -23 -62 -56 -94 -84 -113 -97 -12 -8 -55 -45 -95 -81 -87 -79 -176
-155 -278 -242 -41 -34 -96 -83 -123 -109 -26 -26 -65 -58 -86 -72 -21 -13
-58 -43 -83 -67 -25 -24 -63 -56 -85 -71 -22 -16 -58 -45 -80 -66 -21 -21 -61
-55 -89 -77 -27 -22 -73 -62 -100 -90 -28 -27 -75 -68 -105 -91 -30 -23 -73
-59 -95 -80 -22 -21 -58 -51 -80 -66 -22 -15 -56 -42 -75 -61 -19 -18 -51 -44
-70 -57 -19 -13 -57 -45 -85 -71 -27 -27 -68 -61 -90 -77 -22 -17 -76 -64
-120 -106 -44 -42 -84 -76 -88 -76 -4 0 -38 -28 -75 -63 -37 -34 -83 -73 -102
-86 -19 -13 -39 -29 -45 -35 -5 -6 -46 -40 -90 -76 -44 -35 -105 -88 -135
-116 -30 -29 -72 -66 -92 -82 -21 -16 -68 -59 -105 -95 -78 -74 -128 -117
-138 -117 -4 0 -30 -24 -58 -52 -29 -29 -72 -66 -97 -83 -25 -16 -59 -43 -75
-60 -17 -16 -49 -42 -71 -57 -21 -15 -64 -51 -94 -80 -30 -29 -71 -63 -90 -77
-19 -13 -67 -55 -107 -93 -39 -39 -84 -78 -100 -88 -15 -9 -48 -37 -73 -61
-25 -24 -79 -72 -120 -105 -41 -34 -95 -80 -120 -103 -25 -22 -48 -41 -52 -41
-4 0 -31 -22 -61 -50 -29 -27 -81 -72 -116 -99 -34 -27 -87 -75 -118 -105 -31
-31 -60 -56 -64 -56 -8 0 -23 -13 -114 -98 -27 -26 -68 -61 -90 -77 -22 -16
-62 -50 -90 -76 -27 -26 -68 -60 -90 -74 -22 -15 -53 -41 -70 -57 -16 -17 -46
-41 -65 -53 -19 -13 -64 -53 -100 -90 -36 -37 -96 -92 -135 -122 -38 -31 -77
-63 -85 -72 -28 -31 -118 -101 -128 -101 -6 0 -15 -6 -19 -14 -4 -8 -45 -44
-91 -81 -45 -36 -97 -81 -115 -98 -18 -18 -57 -52 -87 -77 -30 -24 -80 -68
-111 -98 -31 -29 -69 -62 -85 -72 -16 -10 -56 -44 -90 -76 -33 -33 -78 -71
-100 -86 -21 -15 -55 -42 -74 -61 -19 -18 -55 -47 -80 -64 -25 -17 -58 -45
-75 -63 -16 -18 -52 -49 -80 -70 -27 -21 -78 -64 -113 -97 -34 -32 -89 -78
-120 -102 -32 -25 -75 -66 -95 -93 -24 -30 -55 -55 -84 -68 -44 -19 -49 -19
-87 -5 -23 9 -64 38 -91 66 -28 27 -61 56 -75 63 -14 8 -47 35 -75 61 -27 26
-77 70 -110 97 -33 28 -85 73 -115 100 -30 26 -73 62 -95 79 -22 17 -60 49
-85 73 -25 23 -68 58 -97 79 -28 21 -53 41 -55 45 -2 4 -39 37 -83 72 -44 36
-87 72 -95 81 -8 8 -49 45 -90 80 -41 35 -92 82 -115 103 -22 21 -65 57 -95
80 -29 23 -75 60 -100 83 -25 23 -64 55 -85 71 -22 16 -67 54 -100 85 -33 32
-63 57 -67 57 -7 0 -48 36 -148 130 -8 8 -31 27 -50 42 -19 15 -64 54 -100 87
-36 34 -70 61 -76 61 -5 0 -35 24 -65 53 -29 29 -81 75 -114 101 -33 27 -64
53 -70 60 -21 24 -113 96 -123 96 -6 0 -15 6 -19 13 -4 7 -53 53 -108 102 -55
49 -122 110 -150 136 -27 26 -68 61 -90 78 -22 17 -53 43 -70 57 -16 14 -57
48 -90 76 -33 27 -85 72 -116 100 -31 27 -70 58 -85 67 -16 10 -49 38 -74 62
-25 25 -70 65 -100 89 -30 24 -81 69 -112 99 -32 30 -76 67 -97 81 -22 15 -47
35 -57 44 -9 10 -49 43 -88 73 -39 31 -78 64 -86 73 -8 9 -49 44 -90 77 -41
33 -84 71 -95 83 -11 12 -53 50 -94 83 -41 34 -88 75 -105 92 -17 17 -69 62
-116 100 -47 38 -96 81 -110 95 -14 14 -37 33 -53 43 -15 10 -58 46 -95 80
-37 34 -85 76 -107 92 -22 16 -54 44 -71 61 -18 17 -58 52 -90 79 -33 26 -84
69 -114 96 -30 27 -81 70 -113 95 -32 25 -74 61 -95 80 -20 19 -40 34 -44 34
-3 0 -44 36 -90 80 -46 44 -88 80 -94 80 -6 0 -44 33 -85 72 -42 40 -100 93
-130 118 -30 24 -70 59 -89 76 -74 68 -93 84 -99 84 -4 0 -25 17 -46 38 -22
20 -76 66 -120 102 -44 36 -93 79 -110 96 -16 16 -43 39 -60 49 -16 10 -59 46
-95 80 -36 33 -88 80 -117 103 -29 24 -74 64 -100 89 -26 25 -64 56 -83 68
-19 13 -56 42 -81 66 -46 44 -78 66 -134 93 -49 23 -77 60 -82 109 l-5 44 832
834 c458 459 864 866 903 904 39 39 177 177 306 309 130 131 278 280 329 330
52 50 282 278 512 506 230 228 476 472 547 541 70 70 200 200 289 290 89 90
221 221 294 290 l133 127 -1 92 c-1 65 -6 100 -17 116 -8 13 -18 45 -21 71 -4
27 -13 58 -20 70 -8 12 -14 41 -14 63 0 22 -9 66 -20 97 -11 32 -20 76 -20 98
0 22 -6 50 -14 61 -8 12 -18 45 -22 75 -4 30 -13 66 -20 81 -8 15 -14 43 -14
62 0 19 -9 58 -20 86 -11 28 -20 73 -20 101 0 27 -6 62 -14 77 -7 15 -17 52
-21 82 -4 30 -14 64 -21 75 -8 11 -14 36 -14 57 0 20 -9 60 -20 88 -11 28 -20
65 -20 83 0 18 -6 44 -14 59 -8 14 -17 55 -21 90 -4 34 -13 74 -20 88 -7 14
-15 51 -18 83 -3 32 -11 65 -17 72 -6 7 -14 40 -17 72 -3 32 -11 69 -18 83 -7
14 -16 52 -20 85 -4 33 -13 68 -21 79 -8 11 -14 41 -14 66 0 25 -7 59 -16 75
-9 17 -18 55 -21 85 -4 30 -12 64 -18 75 -7 11 -15 45 -19 76 -3 31 -13 72
-21 92 -8 20 -15 51 -15 69 0 18 -7 46 -15 62 -9 16 -18 57 -22 90 -3 34 -11
70 -18 81 -7 11 -16 45 -20 75 -4 30 -14 67 -21 82 -8 15 -14 41 -14 57 0 17
-9 53 -20 81 -11 28 -20 66 -20 84 0 19 -6 49 -14 67 -7 19 -17 64 -21 101 -3
36 -13 74 -20 85 -8 10 -15 35 -15 55 0 21 -9 60 -20 88 -11 28 -20 65 -20 83
-1 18 -7 43 -15 57 -8 14 -14 40 -15 58 0 18 -9 58 -20 89 -11 32 -20 72 -20
89 0 17 -9 60 -20 94 -11 34 -20 76 -20 92 0 17 -6 44 -14 61 -8 18 -17 55
-20 84 -2 29 -12 65 -20 82 -9 16 -16 46 -16 65 0 19 -9 58 -20 86 -11 28 -20
72 -20 98 -1 26 -7 58 -15 72 -8 14 -15 39 -15 55 0 17 -9 50 -20 74 -11 24
-20 57 -20 75 0 17 -9 57 -20 89 -11 31 -20 70 -20 87 0 17 -6 43 -14 58 -7
15 -16 53 -20 85 -3 32 -13 72 -21 87 -8 16 -15 46 -15 67 0 21 -7 48 -15 61
-9 12 -18 45 -22 74 -3 29 -11 62 -18 73 -6 11 -15 49 -18 85 -3 36 -13 79
-21 95 -9 17 -16 41 -16 54 0 13 -7 44 -17 70 -18 53 -13 91 17 121 20 20 51
20 4018 20 3241 0 4002 -2 4016 -13z" fill="#7a9048"/></g></g>
<g transform="translate(4817,4300) scale(0.82)"><g transform="translate(0,20000) scale(1,-1)"><path d="M5816 18253 c-28 -24 -34 -69 -15 -105 12 -23 31 -99 53 -208 7 -36
17 -74 23 -85 6 -11 13 -43 17 -72 4 -28 13 -68 21 -87 8 -19 15 -48 15 -64 0
-15 9 -53 20 -85 11 -31 20 -73 20 -92 0 -20 6 -48 14 -63 7 -15 16 -53 20
-86 3 -32 13 -68 21 -79 8 -12 15 -35 15 -52 0 -17 9 -56 20 -88 11 -31 20
-74 20 -95 0 -20 6 -46 14 -57 7 -11 16 -43 20 -72 4 -28 13 -68 21 -87 8 -19
15 -57 15 -83 1 -26 9 -66 20 -88 11 -22 19 -54 20 -71 0 -16 7 -39 15 -50 8
-10 15 -31 15 -47 0 -15 9 -53 20 -84 11 -32 20 -72 20 -91 0 -18 7 -47 16
-63 8 -17 17 -53 20 -82 3 -29 12 -68 19 -87 7 -19 16 -55 19 -80 3 -25 12
-59 20 -75 9 -17 16 -46 16 -65 0 -20 7 -45 15 -57 8 -12 18 -50 22 -85 3 -35
12 -72 19 -83 8 -11 14 -40 14 -65 1 -25 8 -63 16 -85 9 -22 20 -60 24 -85 4
-25 15 -63 24 -85 8 -22 15 -53 16 -68 0 -15 6 -38 14 -50 7 -12 16 -47 19
-77 3 -30 12 -68 21 -85 9 -16 16 -52 16 -78 0 -26 7 -62 16 -79 9 -16 18 -56
21 -87 3 -31 12 -68 19 -83 8 -15 14 -42 14 -60 1 -18 9 -51 20 -73 11 -22 19
-59 20 -83 0 -24 6 -55 14 -70 8 -15 17 -54 21 -87 4 -33 14 -72 21 -87 8 -15
14 -40 14 -55 0 -15 9 -48 20 -72 11 -24 20 -57 20 -75 0 -17 6 -40 14 -51 7
-11 17 -49 21 -85 4 -36 14 -77 21 -92 8 -15 14 -43 14 -62 0 -19 9 -58 20
-86 11 -28 20 -70 20 -93 0 -23 6 -54 14 -69 8 -14 17 -50 21 -78 4 -28 13
-64 21 -78 8 -15 14 -39 14 -54 0 -15 9 -50 20 -78 11 -28 20 -71 20 -96 0
-24 6 -60 14 -79 8 -19 18 -55 22 -81 4 -26 13 -59 20 -73 8 -14 14 -37 14
-51 0 -14 7 -38 16 -55 8 -16 18 -52 21 -80 3 -27 11 -61 18 -75 7 -14 16 -56
20 -95 4 -38 13 -82 21 -97 8 -15 14 -41 14 -57 0 -17 9 -53 20 -81 11 -28 20
-68 20 -88 0 -21 6 -46 14 -57 7 -11 17 -42 21 -70 4 -27 13 -61 20 -75 7 -14
15 -51 18 -83 3 -32 10 -64 16 -71 6 -7 15 -43 20 -80 5 -37 14 -73 19 -79 5
-7 13 -34 16 -60 4 -26 14 -63 22 -82 8 -19 14 -47 14 -63 0 -15 9 -53 20 -85
11 -31 20 -75 20 -97 0 -22 7 -57 15 -77 8 -20 18 -60 22 -90 4 -39 13 -62 33
-84 l28 -29 1788 2 1789 3 21 40 c11 22 24 69 28 103 4 34 13 74 21 89 8 16
15 42 15 59 0 18 9 51 20 75 11 24 20 61 20 82 0 21 6 50 14 65 7 15 16 48 19
75 4 26 13 61 22 77 8 16 15 46 15 67 0 21 7 50 14 65 8 16 18 49 21 75 3 27
12 66 20 88 7 22 16 64 19 93 3 29 12 62 21 74 8 13 15 40 15 61 0 21 7 52 16
69 9 16 18 56 21 87 3 31 12 66 19 78 8 12 14 39 14 60 1 21 8 56 16 78 9 22
20 60 24 85 4 25 15 63 24 85 8 22 15 55 16 73 0 18 6 43 14 55 7 12 16 50 19
84 3 34 12 72 21 85 10 13 16 43 16 73 0 28 6 60 15 72 8 11 17 47 21 79 3 33
13 69 20 81 8 12 14 37 14 55 0 18 7 47 16 63 9 17 19 59 24 95 4 36 15 83 24
105 8 22 15 56 16 75 0 19 7 44 15 54 8 11 15 39 15 63 0 24 9 60 20 80 11 21
20 53 20 71 0 18 6 45 14 60 7 15 17 54 21 87 4 33 13 72 21 87 8 15 14 43 14
62 0 19 9 58 20 86 11 28 20 70 20 93 1 23 7 53 15 67 8 14 15 36 15 50 1 14
8 43 16 65 8 22 19 72 24 110 5 39 16 84 24 100 9 17 16 43 16 58 0 15 6 40
14 55 7 15 17 49 21 77 4 27 13 62 21 77 8 15 14 45 14 68 0 22 7 57 16 78 8
20 19 66 24 102 10 74 36 179 56 228 8 18 14 45 14 59 0 24 13 73 55 213 7 25
17 67 21 95 4 27 13 64 20 82 8 18 14 48 14 67 0 18 9 53 20 77 11 24 20 61
20 82 0 21 7 51 15 67 8 15 18 55 21 87 4 32 12 69 19 83 7 14 15 50 18 81 3
31 12 71 21 87 9 17 16 46 16 64 0 19 9 59 20 91 11 31 20 71 20 89 0 18 6 44
13 58 8 15 17 47 20 73 4 26 13 61 22 77 8 16 15 49 15 73 0 25 9 64 20 88 11
24 20 59 20 77 0 18 6 43 14 55 7 12 16 45 19 72 3 28 13 64 21 80 9 17 16 47
16 68 0 21 7 54 16 75 8 20 18 67 21 104 3 39 12 73 19 79 8 6 14 28 14 48 0
20 9 53 20 74 11 20 20 52 20 69 1 18 7 44 15 58 38 67 -1 135 -78 134 -42 -1
-517 -2 -1292 -2 -231 -1 -760 -1 -1175 -2 -415 0 -1600 1 -2632 2 l-1877 3
-25 -22z m4224 -495 c11 -12 20 -31 21 -42 0 -12 1 -102 2 -201 2 -154 5 -184
20 -205 9 -13 17 -34 17 -45 0 -17 15 -50 76 -166 21 -40 216 -234 255 -254
19 -10 38 -24 42 -31 4 -8 16 -14 27 -14 10 0 25 -6 32 -13 7 -7 40 -25 73
-41 33 -15 77 -36 97 -47 20 -10 48 -19 61 -19 14 0 30 -6 36 -14 7 -8 38 -18
69 -21 31 -3 77 -14 102 -23 64 -23 559 -23 605 0 17 8 58 18 93 22 35 3 73
13 85 21 12 8 31 15 42 15 11 0 37 9 58 20 20 11 47 20 59 20 13 0 37 7 53 16
27 14 137 54 149 54 3 0 10 -9 16 -21 17 -30 -8 -84 -88 -189 -37 -49 -81
-108 -99 -132 -18 -24 -50 -63 -73 -88 -22 -25 -43 -54 -46 -65 -6 -18 -58
-88 -94 -126 -8 -9 -24 -29 -35 -45 -11 -15 -60 -81 -110 -146 -49 -65 -108
-142 -130 -173 -72 -99 -79 -109 -125 -160 -25 -27 -66 -75 -90 -105 -24 -30
-51 -63 -60 -72 -26 -29 -42 -48 -129 -158 -89 -112 -116 -142 -335 -374 -78
-81 -148 -157 -156 -168 -8 -11 -23 -29 -32 -39 -9 -10 -24 -31 -32 -48 -34
-64 -114 -93 -148 -53 -9 9 -28 46 -43 82 -15 36 -31 72 -36 80 -5 8 -18 33
-28 55 -11 22 -31 55 -45 74 -14 19 -26 38 -26 42 0 13 -118 182 -156 224
-113 124 -152 162 -224 220 -44 36 -83 65 -86 65 -7 0 -69 44 -72 52 -2 4 -27
21 -57 38 -29 16 -58 37 -65 45 -7 8 -20 15 -30 15 -9 0 -25 9 -35 20 -10 11
-26 20 -35 20 -10 0 -29 9 -43 20 -14 11 -30 20 -37 20 -7 0 -23 9 -37 20 -14
11 -35 20 -47 20 -11 0 -34 9 -51 20 -16 11 -46 20 -65 20 -19 0 -48 9 -65 20
-16 11 -46 20 -65 20 -20 0 -45 7 -57 15 -11 8 -40 17 -64 21 -24 4 -56 13
-71 21 -16 7 -72 18 -126 23 -54 5 -111 14 -127 20 -16 6 -94 15 -174 20 -80
6 -177 14 -216 20 -89 12 -406 12 -465 0 -25 -6 -135 -14 -245 -19 -110 -6
-229 -17 -265 -25 -36 -9 -90 -16 -120 -16 -31 0 -81 -9 -113 -20 -78 -28
-129 -26 -164 5 l-28 24 24 43 c13 24 55 82 92 129 38 48 69 90 69 94 0 9 23
38 92 117 188 216 409 432 557 543 14 11 56 43 93 72 37 29 71 53 76 53 5 0
19 12 33 26 13 14 49 42 79 62 30 20 59 42 63 49 4 7 14 13 21 13 7 0 24 8 37
19 13 10 51 33 84 51 132 72 192 105 230 127 22 13 54 30 70 39 17 8 41 22 55
29 14 8 32 15 40 15 8 0 29 9 45 20 17 11 37 20 46 20 9 0 19 7 23 15 3 8 13
15 23 15 10 0 35 9 56 20 20 11 45 20 55 20 9 0 33 8 52 18 19 11 55 22 79 26
24 4 53 13 64 21 12 8 33 15 47 15 14 0 39 7 55 16 17 9 56 20 89 25 32 6 71
16 87 24 15 8 44 15 64 15 20 0 57 9 83 19 26 11 81 22 122 25 41 3 93 12 115
20 23 9 75 15 122 16 45 0 102 6 125 14 63 21 78 24 135 25 42 1 56 -3 73 -21z
m-2635 -38 c287 -8 393 -8 430 0 81 19 206 17 254 -5 32 -14 41 -23 41 -44 0
-29 -55 -91 -80 -91 -9 0 -25 -9 -35 -20 -10 -11 -28 -20 -41 -20 -13 0 -26
-4 -29 -10 -3 -5 -38 -26 -78 -45 -40 -19 -90 -49 -112 -65 -22 -16 -49 -34
-60 -39 -11 -5 -42 -25 -70 -45 -27 -20 -53 -36 -57 -36 -3 0 -21 -13 -40 -29
-18 -17 -52 -43 -75 -58 -22 -15 -58 -42 -80 -60 -82 -68 -152 -123 -158 -123
-29 0 -279 -238 -347 -330 -42 -58 -152 -167 -174 -174 -14 -4 -27 1 -44 19
-23 24 -24 33 -29 228 -4 118 -11 210 -18 222 -6 11 -14 45 -18 75 -4 30 -14
64 -21 75 -8 11 -14 28 -14 39 0 10 -25 70 -55 131 -30 62 -55 115 -55 118 0
5 -21 31 -116 139 -64 71 -73 102 -43 134 12 12 33 24 48 26 51 6 703 -1 1076
-12z m4352 -2355 c103 -55 138 -117 138 -245 0 -75 -3 -90 -28 -132 -31 -52
-90 -108 -113 -108 -8 0 -26 -7 -39 -16 -52 -34 -190 3 -254 68 -53 52 -68
119 -54 234 12 100 38 139 120 178 32 15 65 32 73 36 32 18 108 11 157 -15z
m-3587 -175 c30 -5 102 -14 160 -20 58 -7 126 -21 152 -31 26 -11 56 -19 67
-19 12 0 38 -9 58 -20 21 -11 47 -20 59 -20 12 0 33 -9 47 -20 14 -11 32 -20
40 -20 8 0 20 -7 27 -15 6 -8 32 -26 57 -40 68 -41 202 -190 203 -228 1 -7 9
-30 20 -52 11 -22 20 -56 20 -75 0 -19 8 -48 17 -65 14 -25 17 -59 17 -195 0
-120 -4 -172 -14 -190 -7 -14 -17 -61 -21 -106 -4 -45 -14 -95 -23 -112 -9
-17 -16 -53 -16 -79 0 -27 -6 -58 -14 -69 -8 -11 -18 -38 -22 -60 -9 -49 -40
-113 -60 -121 -31 -12 -57 38 -110 212 -23 78 -84 218 -114 265 -6 8 -15 26
-20 40 -11 26 -48 85 -135 212 -69 101 -325 357 -425 423 -25 17 -49 35 -55
41 -5 5 -30 23 -55 40 -25 16 -49 34 -55 40 -18 20 -133 83 -172 94 -21 6 -47
17 -57 25 -11 8 -28 15 -39 15 -20 0 -107 47 -119 65 -23 32 4 74 57 88 33 8
467 6 525 -3z m-988 -741 c31 -34 78 -93 104 -133 26 -39 69 -93 95 -121 26
-27 68 -81 94 -120 26 -38 62 -86 80 -105 17 -19 43 -51 58 -72 15 -20 41 -52
59 -71 41 -43 71 -80 150 -182 34 -44 107 -125 163 -180 294 -291 464 -455
472 -455 4 0 25 -16 46 -35 77 -71 236 -195 250 -195 8 0 20 -7 27 -16 8 -8
27 -22 44 -29 17 -8 54 -31 81 -50 85 -61 105 -72 171 -104 23 -11 45 -24 48
-30 4 -6 18 -11 30 -11 13 0 29 -6 35 -14 7 -8 27 -18 44 -22 18 -3 50 -16 72
-27 80 -41 91 -45 130 -52 22 -4 49 -13 60 -20 11 -6 45 -15 75 -19 30 -4 61
-12 68 -18 7 -6 60 -15 117 -19 57 -4 112 -12 123 -18 29 -16 160 -13 207 4
22 8 56 14 76 15 23 0 43 7 54 20 10 11 25 20 34 20 36 0 260 239 291 311 5
13 24 49 42 79 32 56 98 207 98 224 0 5 8 27 19 50 27 61 42 104 56 167 7 30
17 64 22 75 6 10 14 41 18 69 4 27 13 58 21 69 8 11 14 37 14 58 0 20 9 60 20
88 11 28 20 64 20 81 0 16 6 45 14 63 7 18 17 57 21 87 7 52 35 122 54 133 4
3 17 -4 27 -15 22 -25 24 -88 6 -219 -7 -47 -12 -161 -12 -255 0 -107 -5 -192
-14 -230 -8 -33 -17 -119 -20 -191 -4 -73 -14 -156 -21 -185 -8 -30 -15 -85
-15 -122 0 -38 -7 -84 -16 -105 -8 -20 -19 -75 -23 -122 -4 -47 -13 -94 -18
-105 -6 -11 -14 -47 -18 -80 -4 -33 -13 -70 -21 -82 -8 -12 -14 -34 -14 -48 0
-14 -9 -43 -20 -65 -11 -22 -20 -47 -20 -57 0 -10 -6 -28 -14 -39 -8 -11 -17
-37 -21 -57 -4 -20 -13 -41 -21 -48 -8 -6 -14 -20 -14 -31 0 -16 -8 -35 -51
-118 -5 -8 -18 -34 -30 -58 -12 -24 -31 -55 -43 -70 -12 -15 -34 -45 -48 -67
-74 -111 -291 -285 -356 -285 -10 0 -34 -9 -55 -20 -33 -18 -56 -20 -226 -20
-161 0 -198 3 -251 20 -34 11 -75 20 -89 20 -15 0 -35 6 -46 14 -11 7 -31 17
-45 21 -32 9 -104 40 -152 65 -20 11 -44 20 -53 20 -9 0 -18 7 -21 15 -4 8
-12 15 -19 15 -7 0 -35 17 -62 39 -27 21 -58 41 -69 45 -11 3 -35 20 -54 38
-19 18 -69 59 -110 93 -170 138 -404 374 -506 511 -36 49 -70 90 -74 92 -5 2
-23 27 -41 55 -18 29 -55 80 -81 113 -26 34 -48 64 -48 67 0 7 -39 65 -60 90
-29 35 -36 43 -85 117 -27 41 -55 81 -62 88 -7 7 -13 19 -13 26 0 6 -5 17 -12
24 -11 11 -30 43 -94 157 -19 34 -97 157 -124 195 -9 14 -21 37 -25 50 -4 14
-13 32 -20 40 -7 8 -23 36 -37 61 -13 26 -32 54 -41 63 -9 10 -17 26 -17 36 0
10 -4 21 -10 25 -5 3 -39 67 -75 143 -75 157 -75 158 -143 274 -27 47 -53 97
-57 110 -4 12 -37 82 -72 153 -81 164 -120 260 -128 319 -7 44 -6 46 16 46 16
0 42 -20 81 -61z" fill="#7a9048"/></g></g>
<g transform="translate(4817,4300) scale(0.82)"><g transform="translate(0,20000) scale(1,-1)">
  <path d="M8105 9563 c-11 -2 -37 -11 -58 -19 -20 -8 -56 -14 -80 -14 -23 0
-62 -9 -86 -20 -24 -11 -57 -20 -75 -20 -17 0 -44 -9 -61 -20 -16 -11 -41 -20
-53 -20 -13 0 -35 -9 -49 -20 -14 -11 -35 -20 -45 -20 -11 0 -31 -9 -45 -20
-14 -11 -35 -20 -45 -20 -11 0 -31 -9 -45 -20 -14 -11 -31 -20 -38 -20 -7 0
-18 -6 -24 -14 -7 -8 -25 -18 -41 -21 -16 -3 -31 -13 -34 -21 -3 -8 -10 -14
-16 -14 -14 0 -93 -52 -103 -67 -4 -7 -14 -13 -21 -13 -21 0 -160 -111 -279
-222 -134 -126 -292 -324 -349 -438 -7 -14 -25 -41 -40 -61 -15 -20 -32 -47
-38 -60 -6 -13 -23 -44 -38 -69 -15 -25 -38 -70 -51 -100 -13 -30 -32 -73 -42
-96 -11 -23 -19 -49 -19 -58 0 -9 -6 -29 -14 -44 -7 -15 -16 -47 -20 -71 -4
-24 -13 -53 -21 -64 -8 -12 -15 -33 -15 -47 0 -14 -9 -51 -20 -83 -11 -31 -20
-79 -20 -106 0 -28 -7 -76 -15 -108 -21 -79 -21 -457 -1 -529 8 -27 17 -80 21
-119 4 -38 13 -82 21 -97 8 -15 14 -43 14 -63 0 -20 7 -50 16 -66 8 -17 19
-52 24 -77 9 -50 30 -114 57 -172 21 -47 47 -103 77 -172 15 -31 31 -60 36
-63 6 -3 10 -13 10 -22 0 -8 9 -27 21 -41 11 -15 54 -78 95 -141 98 -149 299
-371 429 -473 33 -26 71 -57 84 -68 13 -11 28 -20 32 -20 4 0 56 -32 115 -72
109 -72 190 -118 210 -118 6 0 23 -9 37 -20 14 -11 33 -20 44 -20 10 0 32 -9
48 -20 17 -11 39 -20 50 -20 11 0 34 -9 50 -20 17 -11 38 -20 47 -20 9 0 29
-6 45 -14 34 -18 130 -42 233 -60 41 -8 89 -19 105 -26 22 -9 118 -12 345 -13
264 0 321 2 351 15 20 9 68 19 106 23 39 4 82 13 96 20 14 7 45 16 69 20 24 4
55 14 70 21 15 8 35 14 45 14 10 0 35 9 56 20 20 11 43 20 50 20 7 0 28 8 47
19 19 10 49 21 67 25 17 4 37 14 44 22 6 8 19 14 29 14 9 0 29 9 43 20 14 11
30 20 35 20 6 0 45 24 87 52 43 29 87 60 100 68 122 80 260 195 362 301 122
128 316 393 364 499 6 14 15 32 20 40 5 8 12 22 15 30 3 8 14 33 25 55 10 22
19 43 19 47 0 4 15 40 33 80 61 132 91 226 108 333 5 33 17 103 27 155 25 136
24 597 -1 685 -9 32 -17 82 -17 111 0 28 -9 80 -20 114 -11 34 -20 70 -20 79
0 9 -7 25 -15 35 -8 11 -15 29 -15 41 0 11 -9 37 -20 58 -11 20 -20 44 -20 52
0 9 -9 33 -19 53 -11 20 -36 73 -56 117 -21 44 -41 87 -46 95 -5 8 -15 27 -22
41 -34 72 -146 234 -213 309 -12 14 -45 51 -74 83 -64 73 -224 227 -276 266
-21 16 -54 42 -73 58 -31 26 -57 42 -121 75 -14 7 -60 36 -103 65 -43 29 -84
53 -91 53 -7 0 -24 8 -37 19 -13 10 -38 22 -56 25 -17 4 -37 14 -44 22 -6 8
-20 14 -31 14 -10 0 -36 9 -58 20 -22 11 -47 20 -57 20 -10 0 -31 9 -48 20
-16 11 -46 20 -65 20 -19 0 -48 7 -65 16 -16 9 -65 20 -108 25 -43 4 -86 14
-94 21 -13 10 -95 13 -372 15 -196 0 -365 -1 -376 -4z" fill="#8aa050"/>
</g></g>
<g transform="translate(4817,4300) scale(0.82)"><g transform="translate(0,20000) scale(1,-1)">
  <path d="M11191 7870 c-24 -11 -58 -20 -76 -20 -18 0 -43 -8 -56 -19 -13 -10
-33 -20 -44 -22 -29 -6 -63 -76 -64 -130 -1 -26 6 -66 14 -89 21 -59 22 -558
1 -616 -7 -22 -16 -77 -20 -123 -4 -47 -12 -91 -17 -98 -6 -7 -15 -45 -19 -85
-5 -40 -16 -86 -24 -103 -9 -16 -16 -46 -16 -66 0 -20 -7 -42 -15 -49 -8 -7
-15 -19 -15 -28 0 -8 -9 -36 -21 -61 -53 -116 -71 -151 -79 -156 -5 -3 -11
-18 -15 -34 -3 -16 -13 -35 -21 -42 -8 -6 -14 -20 -14 -31 0 -11 -7 -32 -16
-48 -11 -18 -14 -37 -10 -55 10 -40 93 -115 170 -154 37 -19 69 -37 71 -41 3
-4 17 -11 32 -15 15 -3 34 -12 41 -18 23 -19 115 -48 181 -58 35 -5 83 -16
107 -25 60 -23 394 -16 439 9 17 9 45 17 63 17 18 0 50 9 72 20 22 11 46 20
54 20 17 0 159 74 195 102 13 10 29 18 35 18 6 0 19 8 28 18 10 9 43 37 75 61
73 56 182 182 216 251 5 8 19 33 32 55 14 22 36 65 50 95 15 30 32 69 40 85 8
17 17 53 21 80 4 28 13 67 20 89 19 53 19 309 0 362 -7 22 -17 66 -21 99 -4
33 -13 68 -21 79 -8 11 -14 30 -14 42 0 12 -6 27 -14 33 -8 7 -17 23 -21 38
-3 14 -22 46 -41 71 -18 25 -34 49 -34 55 0 25 -173 213 -235 255 -22 14 -58
41 -81 59 -23 18 -45 33 -49 33 -5 0 -16 7 -25 15 -24 22 -109 65 -128 65 -9
0 -30 9 -47 20 -16 11 -44 20 -62 20 -18 0 -55 9 -83 20 -45 18 -74 20 -273
20 -200 0 -226 -2 -266 -20z" fill="#8aa050"/>
</g></g>

<!-- Diamond markers -->
<g transform="translate(12500,850) rotate(45)">
  <rect x="-80" y="-80" width="160" height="160" fill="#5a7038" opacity="0.65"/>
</g>
<g transform="translate(20207,4793) rotate(45)">
  <rect x="-80" y="-80" width="160" height="160" fill="#5a7038" opacity="0.65"/>
</g>
<g transform="translate(23400,12500) rotate(45)">
  <rect x="-80" y="-80" width="160" height="160" fill="#5a7038" opacity="0.65"/>
</g>
<g transform="translate(20207,20207) rotate(45)">
  <rect x="-80" y="-80" width="160" height="160" fill="#5a7038" opacity="0.65"/>
</g>
<g transform="translate(12500,24150) rotate(45)">
  <rect x="-80" y="-80" width="160" height="160" fill="#5a7038" opacity="0.65"/>
</g>
<g transform="translate(4793,20207) rotate(45)">
  <rect x="-80" y="-80" width="160" height="160" fill="#5a7038" opacity="0.65"/>
</g>
<g transform="translate(1600,12500) rotate(45)">
  <rect x="-80" y="-80" width="160" height="160" fill="#5a7038" opacity="0.65"/>
</g>
<g transform="translate(4793,4793) rotate(45)">
  <rect x="-80" y="-80" width="160" height="160" fill="#5a7038" opacity="0.65"/>
</g>

<!-- Text flat -->
<text font-family="'Helvetica Neue',Helvetica,Arial,sans-serif" font-size="520" font-weight="900" fill="#8aa050" opacity="0.90" text-anchor="middle">
  <textPath xlink:href="#fTextTop" startOffset="50%" textLength="21000" lengthAdjust="spacing">GORN HEGEMONY</textPath>
</text>
<text font-family="'Helvetica Neue',Helvetica,Arial,sans-serif" font-size="520" font-weight="900" fill="#8aa050" opacity="0.90" text-anchor="middle">
  <textPath xlink:href="#fTextBot" startOffset="50%" textLength="23500" lengthAdjust="spacing">STRENGTH PREVAILS</textPath>
</text>

</svg>