<?xml version="1.0" encoding="UTF-8"?>
<svg xmlns="http://www.w3.org/2000/svg" xmlns:xlink="http://www.w3.org/1999/xlink" width="700" height="700" viewBox="0 0 25000 25000">
<defs>
  <clipPath id="clipFrame"><circle cx="12500" cy="12500" r="10200"/></clipPath>
  <clipPath id="clipRing">
    <path d="M12500,850 A11650,11650 0 1,1 12499.9,850 Z M12500,2300 A10200,10200 0 1,0 12500.1,2300 Z" clip-rule="evenodd"/>
  </clipPath>
  <path id="textTop" d="M 1650,12500 A 10850,10850 0 0,1 23350,12500" fill="none"/>
  <path id="textBot" d="M 1550,12500 A 10950,10950 0 1,0 23450,12500" fill="none"/>
</defs>

<!-- Inner area -->
<g clip-path="url(#clipFrame)">
  <circle cx="12500" cy="12500" r="10200" fill="#1a0e08"/>
  <g transform="translate(1895,22839) scale(1.4,-1.4)">
    <g fill="#c8a882" stroke="none">
<path d="M7575 14290 c-22 -5 -106 -9 -186 -9 -99 -1 -162 -6 -195 -16 -27 -8
-70 -15 -95 -15 -26 0 -66 -7 -89 -15 -23 -8 -68 -15 -100 -15 -32 0 -77 -7
-100 -15 -23 -8 -59 -15 -79 -15 -20 -1 -47 -7 -61 -15 -14 -8 -35 -14 -46
-15 -12 0 -35 -7 -50 -15 -16 -8 -37 -15 -46 -15 -9 0 -20 -4 -23 -10 -3 -5
-13 -10 -21 -10 -36 0 -183 -82 -235 -131 -29 -28 -59 -83 -59 -111 0 -19 30
-81 52 -108 17 -20 106 -80 119 -80 6 0 24 -7 40 -15 16 -8 42 -22 58 -30 16
-8 37 -15 48 -15 10 0 27 -7 37 -15 11 -8 30 -15 42 -15 13 0 25 -4 28 -9 4
-5 25 -12 48 -16 23 -4 49 -11 58 -15 20 -10 109 -29 195 -41 39 -5 80 -14 93
-19 13 -6 62 -10 110 -10 48 0 114 -7 147 -15 76 -18 776 -22 822 -4 15 6 78
13 138 16 61 3 132 11 159 19 27 8 70 14 96 14 25 0 51 5 56 10 6 6 35 13 65
17 30 3 59 9 64 13 6 4 26 11 45 15 49 10 132 35 152 46 10 5 23 9 30 9 20 0
141 62 186 96 68 51 85 80 90 145 4 57 4 58 -42 107 -25 27 -63 57 -83 68 -21
10 -40 22 -43 25 -4 6 -71 37 -125 58 -48 19 -93 33 -125 40 -19 4 -45 13 -57
19 -12 7 -37 12 -56 12 -19 0 -51 7 -70 15 -20 8 -56 15 -79 15 -24 0 -65 7
-92 15 -27 8 -82 15 -122 15 -40 0 -85 5 -101 12 -15 6 -107 15 -203 19 -96 4
-215 10 -265 13 -49 3 -108 1 -130 -4z"/>
<path d="M5585 13900 c-94 -11 -183 -28 -206 -40 -10 -6 -26 -10 -36 -10 -10
0 -31 -7 -47 -15 -15 -8 -38 -15 -51 -15 -12 0 -28 -7 -35 -15 -7 -8 -22 -15
-34 -15 -12 0 -31 -7 -42 -15 -10 -8 -29 -15 -40 -15 -12 0 -27 -7 -34 -15 -7
-8 -22 -15 -34 -15 -11 0 -30 -7 -40 -15 -11 -8 -30 -15 -42 -15 -12 0 -27 -7
-34 -15 -7 -8 -17 -15 -24 -15 -10 0 -104 -42 -136 -61 -8 -5 -22 -12 -30 -15
-8 -3 -22 -10 -30 -15 -8 -5 -21 -11 -27 -14 -31 -12 -41 -17 -98 -49 -33 -19
-83 -46 -111 -60 -27 -13 -74 -40 -102 -60 -29 -19 -61 -38 -72 -41 -11 -3
-20 -10 -20 -14 0 -4 -19 -17 -42 -30 -24 -12 -55 -30 -70 -39 -55 -35 -164
-110 -186 -128 -27 -22 -98 -75 -240 -179 -57 -42 -128 -99 -159 -128 -104
-98 -248 -248 -267 -280 -11 -18 -23 -34 -27 -37 -17 -13 -66 -120 -77 -168
-15 -67 0 -107 53 -148 37 -28 39 -28 174 -27 98 0 148 5 181 17 25 8 56 16
70 16 14 0 36 7 50 15 14 8 39 15 55 15 17 0 39 7 49 15 11 8 32 15 46 15 14
0 35 7 46 15 10 8 26 15 35 15 8 0 37 11 65 24 27 13 67 31 89 40 22 10 54 24
70 31 17 7 48 21 70 30 22 9 47 21 55 26 8 5 22 12 30 15 8 3 22 10 30 15 8 5
22 12 30 15 31 12 36 15 65 34 17 11 37 23 45 26 35 14 136 68 150 79 8 7 42
27 75 44 33 18 101 59 150 91 50 33 101 66 115 73 60 30 237 154 279 195 8 7
26 21 40 30 38 24 59 42 170 140 14 13 44 37 67 53 35 26 132 126 246 254 133
150 171 312 84 363 -41 24 -180 35 -291 22z"/>
<path d="M9564 13903 c-29 -3 -50 -13 -68 -32 -25 -26 -28 -36 -28 -98 0 -52
6 -79 22 -108 84 -157 219 -308 418 -470 40 -33 99 -81 130 -107 31 -26 62
-47 69 -48 6 0 13 -4 15 -9 2 -4 47 -38 100 -74 54 -36 108 -76 120 -87 24
-22 131 -90 142 -90 4 0 19 -8 34 -18 63 -43 112 -72 187 -112 44 -23 87 -49
96 -56 8 -8 23 -14 31 -14 9 0 21 -7 28 -15 7 -8 19 -15 26 -15 8 0 42 -17 76
-37 117 -70 334 -169 423 -193 17 -4 71 -22 120 -39 251 -88 309 -101 461
-101 122 0 131 1 167 26 42 28 57 57 57 111 0 32 -18 85 -41 123 -5 8 -12 22
-16 30 -13 29 -128 176 -182 234 -96 100 -366 325 -467 389 -22 14 -47 31 -55
39 -8 8 -32 25 -54 38 -22 13 -42 27 -45 30 -3 4 -48 34 -100 68 -52 34 -100
65 -105 69 -6 4 -33 19 -60 33 -28 14 -74 40 -104 58 -30 19 -63 38 -75 43
-12 5 -29 13 -38 19 -10 5 -26 15 -35 20 -10 6 -24 12 -30 15 -7 3 -19 7 -25
10 -7 3 -35 19 -63 35 -27 17 -60 35 -72 40 -12 5 -52 23 -90 41 -37 17 -93
42 -123 56 -30 13 -68 30 -83 38 -16 8 -36 15 -46 15 -9 0 -26 7 -37 15 -10 8
-26 15 -35 15 -9 0 -30 7 -45 15 -16 8 -37 15 -47 15 -9 0 -25 4 -35 9 -28 15
-113 39 -167 46 -27 4 -57 11 -65 15 -18 9 -229 19 -286 13z"/>
<path d="M6340 13059 c-30 -5 -104 -13 -163 -17 -60 -5 -114 -15 -120 -21 -6
-6 -36 -11 -66 -11 -31 -1 -67 -7 -81 -15 -14 -8 -39 -14 -56 -15 -16 0 -39
-7 -50 -15 -10 -8 -31 -15 -45 -15 -15 0 -40 -7 -55 -15 -16 -8 -39 -15 -51
-15 -12 0 -24 -4 -27 -9 -4 -5 -24 -12 -46 -16 -22 -4 -42 -11 -46 -16 -3 -5
-12 -9 -21 -9 -15 0 -65 -19 -116 -46 -16 -8 -36 -14 -46 -14 -9 0 -26 -7 -37
-15 -10 -8 -28 -15 -39 -15 -12 0 -26 -5 -31 -10 -11 -11 -49 -32 -179 -98
-49 -25 -92 -48 -95 -51 -3 -3 -23 -14 -45 -25 -22 -10 -47 -22 -55 -27 -8 -5
-24 -13 -35 -18 -11 -5 -58 -35 -105 -65 -46 -31 -88 -56 -93 -56 -4 0 -22
-14 -40 -31 -18 -17 -55 -46 -84 -65 -28 -18 -55 -39 -58 -45 -4 -6 -31 -26
-60 -44 -29 -19 -59 -40 -66 -47 -8 -8 -48 -40 -89 -73 -96 -76 -315 -289
-388 -379 -31 -38 -64 -77 -73 -86 -16 -17 -99 -135 -109 -155 -19 -38 -73
-115 -81 -115 -5 0 -9 -5 -9 -11 0 -6 -13 -30 -28 -53 -15 -22 -31 -48 -35
-56 -4 -8 -18 -33 -32 -55 -13 -22 -24 -48 -25 -57 0 -10 -4 -18 -9 -18 -5 0
-12 -10 -16 -22 -7 -24 -29 -83 -51 -135 -8 -17 -14 -35 -14 -41 0 -5 -7 -23
-15 -38 -8 -16 -15 -37 -15 -47 0 -10 -5 -27 -10 -38 -10 -18 -14 -42 -41
-224 -11 -75 -3 -333 11 -350 4 -5 11 -26 14 -45 10 -49 62 -177 77 -190 4 -3
9 -14 13 -26 3 -11 30 -44 58 -74 29 -29 57 -61 63 -70 5 -10 16 -27 23 -38
18 -31 -16 -47 -77 -36 -81 13 -332 10 -371 -5 -19 -8 -53 -20 -75 -28 -22 -8
-47 -19 -55 -24 -8 -4 -34 -18 -57 -30 -24 -13 -43 -25 -43 -28 0 -4 -17 -15
-37 -26 -113 -59 -275 -211 -357 -336 -27 -41 -54 -78 -60 -84 -36 -32 -166
-261 -166 -291 0 -6 -7 -17 -15 -24 -8 -7 -15 -23 -15 -35 0 -12 -7 -28 -15
-35 -8 -7 -15 -20 -15 -29 0 -10 -7 -26 -15 -37 -8 -10 -15 -28 -15 -39 0 -11
-7 -29 -15 -39 -8 -11 -15 -31 -15 -45 0 -14 -7 -35 -15 -45 -8 -11 -15 -27
-15 -37 0 -9 -7 -30 -15 -45 -8 -16 -15 -39 -15 -50 0 -12 -7 -35 -15 -50 -8
-16 -15 -45 -15 -64 0 -19 -7 -44 -15 -54 -8 -11 -15 -36 -15 -55 0 -20 -7
-54 -15 -76 -8 -22 -14 -63 -15 -90 0 -28 -5 -56 -11 -62 -6 -6 -15 -55 -19
-109 -5 -55 -14 -130 -19 -169 -13 -89 -13 -582 0 -655 5 -30 13 -101 18 -158
4 -57 13 -108 20 -115 6 -6 11 -35 11 -64 0 -30 7 -70 15 -90 8 -19 15 -52 15
-72 1 -20 7 -54 15 -76 8 -22 15 -49 15 -60 0 -11 6 -32 13 -46 8 -14 17 -45
21 -69 4 -24 11 -49 15 -55 5 -5 11 -21 14 -35 7 -34 35 -111 47 -132 6 -10
10 -26 10 -37 0 -10 6 -24 14 -30 8 -6 16 -22 19 -34 10 -40 33 -97 45 -109 7
-7 12 -20 12 -29 0 -10 5 -21 10 -24 6 -4 17 -21 25 -38 27 -61 93 -171 104
-175 6 -2 11 -10 11 -17 0 -8 6 -20 13 -27 7 -7 34 -42 61 -78 27 -36 97 -113
157 -172 129 -127 171 -157 364 -252 81 -39 102 -45 202 -55 81 -8 143 -9 227
-1 64 6 121 8 126 5 6 -4 8 -16 4 -28 -7 -23 -77 -118 -121 -165 -14 -15 -29
-36 -34 -47 -5 -11 -13 -27 -18 -35 -5 -8 -16 -31 -24 -50 -8 -19 -20 -46 -26
-60 -17 -39 -32 -108 -43 -195 -10 -87 -2 -318 12 -345 5 -10 14 -42 19 -71
12 -66 30 -137 42 -164 4 -11 18 -45 29 -75 29 -76 48 -119 71 -160 11 -19 31
-57 45 -85 33 -64 41 -77 89 -150 22 -33 44 -68 50 -77 130 -217 573 -660 855
-853 47 -32 121 -84 165 -115 44 -31 107 -71 140 -89 33 -18 65 -36 70 -41 13
-9 149 -83 240 -129 112 -57 323 -147 400 -171 22 -7 76 -25 120 -41 44 -16
116 -38 160 -50 76 -20 119 -29 310 -64 127 -24 347 -36 505 -29 354 15 633
126 831 331 57 58 148 188 149 211 1 4 9 25 20 47 11 22 19 48 20 57 0 9 4 19
9 23 6 3 13 25 16 49 7 45 34 67 53 42 22 -27 42 -77 42 -105 0 -32 12 -63 64
-171 72 -150 310 -339 507 -404 70 -22 148 -43 234 -62 110 -24 515 -24 655 0
125 21 233 44 296 62 28 8 57 14 66 14 16 0 152 43 288 92 93 33 98 35 183 72
31 14 84 37 117 51 33 14 74 33 92 44 19 10 67 35 108 57 41 21 103 55 138 76
34 21 64 38 67 38 2 0 32 20 67 43 35 24 68 46 73 48 11 5 125 82 201 137 52
37 91 69 219 176 87 74 368 354 421 420 21 27 46 56 55 65 36 37 189 253 189
268 0 3 6 14 14 22 22 25 120 219 161 317 20 49 41 98 46 109 39 85 71 269 76
430 6 198 -19 322 -95 470 -12 24 -113 157 -181 238 -26 31 -1 35 131 22 107
-12 145 -12 230 -1 115 15 137 22 257 80 147 69 337 226 445 366 47 60 128
177 139 200 4 8 16 29 27 45 11 17 42 77 71 135 28 58 55 112 60 120 5 8 12
22 15 30 3 8 12 29 20 47 8 17 14 37 14 45 0 8 5 19 11 25 6 6 14 26 19 44 5
19 17 59 28 89 29 82 50 150 58 195 3 22 9 45 13 50 3 6 11 37 18 70 6 33 19
94 28 135 9 41 20 110 24 153 5 42 14 98 19 125 12 53 26 295 25 422 -1 199
-35 536 -68 690 -9 41 -20 101 -25 133 -6 32 -14 66 -19 75 -4 9 -11 36 -15
60 -3 24 -11 51 -16 60 -5 9 -12 34 -15 55 -3 20 -10 37 -15 37 -6 0 -10 13
-10 29 0 16 -6 42 -14 58 -13 26 -23 50 -63 158 -8 22 -19 47 -24 55 -5 8 -12
22 -15 30 -28 68 -118 239 -151 287 -13 17 -23 34 -23 38 0 7 -115 161 -139
187 -9 9 -43 48 -76 86 -33 38 -76 80 -95 93 -19 13 -55 40 -80 60 -25 20 -52
39 -60 43 -8 3 -35 17 -59 31 -24 14 -50 25 -56 25 -7 0 -18 7 -25 15 -7 8
-23 15 -36 15 -12 0 -25 4 -28 9 -3 4 -35 18 -70 30 -66 22 -135 24 -408 9
-25 -2 -50 0 -53 4 -6 6 60 88 133 166 7 8 20 28 29 45 9 18 19 34 22 37 17
13 59 136 85 245 29 124 22 336 -16 495 -6 25 -14 61 -18 80 -9 39 -54 168
-74 215 -34 75 -112 232 -127 255 -9 14 -49 74 -89 134 -60 90 -178 247 -200
266 -3 3 -31 37 -62 75 -64 80 -205 219 -293 289 -33 27 -78 65 -100 85 -22
21 -87 72 -145 114 -58 43 -109 81 -115 85 -57 44 -88 64 -131 86 -28 14 -59
34 -70 44 -32 30 -106 77 -174 112 -213 107 -345 171 -405 196 -16 6 -47 19
-68 28 -21 9 -44 16 -52 16 -9 0 -23 5 -33 10 -21 13 -147 59 -187 69 -17 4
-40 13 -52 19 -12 7 -34 12 -50 12 -15 0 -41 7 -57 15 -15 8 -39 15 -52 15
-14 0 -41 7 -61 15 -19 8 -49 15 -65 15 -16 0 -39 5 -51 12 -12 6 -71 15 -132
19 -60 5 -150 14 -198 20 -70 10 -116 10 -215 0 -70 -7 -163 -16 -207 -20 -44
-4 -90 -13 -102 -19 -12 -7 -32 -12 -45 -12 -13 0 -33 -7 -44 -15 -10 -8 -28
-15 -39 -15 -11 0 -29 -7 -39 -15 -11 -8 -29 -15 -40 -15 -12 0 -30 -7 -40
-15 -11 -8 -26 -15 -34 -15 -20 0 -179 -105 -226 -149 -50 -47 -156 -186 -156
-204 0 -8 -7 -20 -15 -27 -8 -7 -15 -22 -15 -34 0 -11 -7 -30 -15 -40 -10 -13
-15 -44 -15 -85 0 -44 -7 -81 -20 -109 -18 -39 -21 -42 -40 -30 -11 7 -23 24
-26 38 -2 14 -11 48 -19 76 -8 28 -15 58 -15 67 0 8 -6 28 -14 44 -7 15 -22
46 -32 68 -32 71 -87 148 -147 207 -32 32 -62 58 -67 58 -4 0 -23 14 -41 30
-19 17 -44 33 -56 36 -13 3 -23 9 -23 13 0 4 -30 22 -67 40 -122 59 -180 81
-243 90 -25 4 -51 11 -59 15 -8 5 -48 13 -90 18 -42 5 -107 13 -146 18 -85 11
-231 10 -305 -1z m1391 -1181 c10 -29 19 -71 19 -93 0 -22 7 -53 15 -69 8 -15
15 -42 15 -60 0 -17 7 -44 15 -60 8 -15 15 -36 15 -45 0 -9 14 -43 31 -76 17
-33 53 -103 80 -155 27 -52 72 -126 99 -165 27 -38 70 -99 95 -135 86 -122 96
-135 198 -244 182 -196 268 -275 440 -408 33 -26 70 -56 81 -65 12 -10 46 -36
76 -58 30 -21 57 -42 60 -45 7 -9 100 -70 106 -70 5 0 71 -42 204 -129 77 -51
333 -176 470 -230 79 -32 101 -41 133 -57 16 -8 35 -14 44 -14 8 0 29 -6 46
-14 30 -13 75 -28 157 -54 51 -16 194 -48 370 -83 164 -33 646 -39 717 -9 12
5 46 12 75 16 29 3 72 13 95 21 44 16 83 10 83 -12 0 -8 -60 -74 -133 -147
-103 -102 -152 -161 -213 -253 -43 -66 -81 -124 -82 -130 -2 -5 -31 -66 -63
-135 -33 -69 -66 -138 -73 -155 -7 -16 -21 -47 -30 -68 -9 -21 -16 -45 -16
-55 0 -9 -7 -26 -15 -36 -8 -11 -15 -29 -15 -40 0 -12 -7 -30 -15 -40 -8 -11
-15 -34 -15 -50 0 -17 -7 -40 -15 -50 -8 -11 -15 -39 -15 -62 0 -23 -7 -55
-15 -70 -8 -16 -15 -45 -15 -65 0 -20 -7 -50 -15 -65 -8 -16 -15 -53 -15 -82
0 -29 -5 -63 -11 -74 -6 -11 -15 -64 -20 -117 -4 -53 -12 -123 -18 -156 -12
-80 -13 -606 0 -670 6 -27 14 -89 19 -137 5 -48 13 -96 19 -107 6 -11 11 -39
11 -63 1 -24 7 -61 15 -83 8 -22 15 -55 15 -73 0 -18 7 -49 15 -69 8 -19 15
-50 15 -67 1 -17 7 -42 15 -56 8 -14 14 -36 15 -50 0 -14 6 -34 14 -45 7 -11
16 -31 19 -45 9 -41 26 -89 71 -192 8 -18 21 -51 29 -73 25 -67 27 -69 36 -85
5 -8 19 -35 31 -60 33 -68 73 -140 105 -190 49 -78 178 -244 209 -270 17 -14
42 -38 56 -54 14 -16 37 -41 53 -54 47 -43 37 -52 -56 -52 -46 0 -88 5 -93 10
-6 6 -33 15 -60 20 -27 5 -67 13 -89 19 -50 13 -395 13 -455 0 -25 -5 -75 -13
-111 -18 -36 -5 -75 -13 -86 -20 -12 -6 -48 -11 -81 -11 -33 0 -76 -7 -95 -15
-20 -8 -49 -15 -66 -15 -16 0 -42 -7 -57 -15 -16 -8 -36 -15 -45 -15 -9 0 -30
-7 -45 -15 -16 -8 -37 -15 -46 -15 -9 0 -20 -4 -23 -10 -3 -5 -14 -10 -23 -10
-9 0 -30 -7 -46 -15 -15 -8 -36 -15 -45 -15 -10 0 -26 -7 -37 -15 -10 -8 -26
-15 -34 -15 -8 0 -42 -13 -75 -29 -33 -16 -91 -44 -130 -61 -148 -68 -414
-205 -425 -220 -3 -3 -12 -10 -20 -14 -28 -13 -136 -84 -195 -128 -16 -13 -73
-54 -125 -92 -52 -38 -97 -72 -100 -75 -3 -3 -48 -42 -100 -85 -95 -79 -310
-289 -364 -356 -16 -19 -50 -59 -77 -87 -26 -29 -53 -62 -59 -74 -7 -11 -26
-37 -43 -57 -18 -21 -36 -44 -42 -54 -5 -9 -31 -47 -56 -85 -26 -38 -59 -91
-73 -118 -37 -68 -44 -82 -56 -102 -5 -10 -19 -38 -31 -63 -12 -25 -28 -57
-35 -72 -8 -14 -14 -37 -14 -50 0 -12 -7 -32 -15 -42 -8 -11 -15 -36 -15 -56
0 -20 -5 -41 -12 -48 -6 -6 -15 -33 -19 -59 -9 -60 -29 -135 -39 -146 -20 -22
-46 4 -57 55 -28 133 -34 153 -43 162 -6 6 -10 24 -10 41 0 17 -7 40 -15 51
-8 10 -15 27 -15 36 0 9 -6 29 -14 45 -8 15 -33 65 -55 111 -34 70 -158 286
-183 317 -4 6 -38 51 -74 100 -37 50 -70 92 -73 95 -3 3 -51 55 -105 115 -199
222 -322 331 -606 539 -80 59 -158 116 -173 128 -15 11 -45 30 -65 41 -33 17
-85 47 -147 85 -11 6 -42 23 -70 37 -27 14 -72 39 -100 55 -27 16 -57 32 -65
36 -8 3 -31 12 -50 21 -19 8 -51 22 -70 30 -19 8 -47 22 -62 29 -14 8 -32 14
-39 14 -7 0 -20 6 -28 13 -9 7 -41 21 -71 31 -30 10 -62 20 -70 23 -95 36
-181 66 -205 72 -17 4 -40 13 -52 19 -12 7 -39 12 -60 12 -21 0 -51 7 -67 15
-15 8 -48 15 -71 15 -24 0 -56 5 -72 11 -15 6 -62 15 -103 19 -41 5 -95 14
-120 19 -71 16 -385 13 -455 -4 -33 -8 -78 -15 -100 -15 -22 0 -51 -7 -65 -15
-30 -17 -103 -19 -132 -4 -19 10 -18 14 34 67 30 32 86 93 124 137 38 44 71
82 74 85 12 11 126 187 133 205 4 11 11 22 15 25 4 3 15 23 26 45 10 22 22 47
26 55 22 40 79 160 95 200 9 25 22 56 27 70 5 13 19 51 30 85 11 33 26 74 34
92 8 17 14 44 14 60 1 15 7 39 15 53 8 14 14 39 15 55 0 17 4 35 9 40 9 10 23
77 41 190 6 33 14 71 19 85 5 14 12 60 15 103 3 43 10 86 15 95 14 27 23 512
11 672 -9 132 -15 184 -50 404 -6 39 -16 78 -21 87 -5 10 -9 32 -9 49 0 17 -7
47 -15 67 -8 19 -15 46 -15 60 0 13 -5 34 -12 46 -6 12 -15 38 -19 57 -4 19
-12 49 -17 65 -6 17 -15 46 -22 65 -6 19 -15 49 -20 65 -27 99 -129 333 -175
400 -25 37 -41 63 -57 95 -7 14 -16 30 -20 35 -42 54 -98 137 -98 143 0 8 -51
64 -167 184 -68 70 -88 109 -52 99 8 -2 64 -10 124 -17 61 -8 142 -19 180 -24
182 -27 569 -5 720 41 17 5 57 13 90 18 65 10 139 28 170 41 11 5 47 16 80 25
33 9 73 23 88 31 16 8 36 14 46 14 9 0 26 7 37 15 10 8 28 15 39 15 17 0 102
37 177 76 14 8 33 14 42 14 9 0 16 4 16 10 0 5 12 13 28 16 15 4 63 26 107 50
44 23 105 55 135 70 30 16 60 35 68 42 7 6 17 12 22 12 5 0 45 25 90 55 45 30
84 55 87 55 2 0 30 20 61 43 31 24 62 46 68 48 11 4 32 20 128 94 28 22 62 48
76 57 14 9 42 31 62 50 20 18 65 58 100 88 101 87 304 297 351 363 12 17 39
49 60 71 20 22 37 43 37 47 0 4 25 43 56 86 31 43 60 88 65 101 5 12 13 22 19
22 5 0 10 4 10 9 0 8 72 137 100 181 6 8 13 22 16 30 10 26 36 84 51 112 7 14
13 34 13 45 0 10 7 27 15 37 8 11 15 32 15 47 0 15 7 40 15 55 8 16 15 39 15
50 0 12 7 35 15 50 8 16 15 43 15 60 0 22 7 36 23 47 12 8 24 13 26 11 2 -2
12 -27 22 -56z"/>
<path d="M7370 10084 c-25 -7 -76 -14 -113 -14 -37 0 -84 -7 -104 -15 -19 -8
-54 -15 -77 -15 -22 -1 -52 -7 -66 -15 -14 -8 -36 -14 -50 -15 -14 0 -38 -7
-54 -15 -15 -8 -36 -15 -46 -15 -10 0 -31 -6 -47 -14 -27 -14 -68 -32 -123
-54 -27 -11 -124 -56 -210 -96 -102 -48 -261 -149 -366 -231 -29 -22 -61 -47
-72 -55 -97 -73 -309 -281 -379 -372 -24 -32 -58 -73 -75 -91 -16 -17 -40 -48
-53 -68 -13 -20 -29 -42 -37 -50 -7 -8 -19 -25 -26 -39 -14 -30 -29 -54 -59
-97 -13 -17 -23 -36 -23 -41 0 -5 -6 -14 -13 -20 -24 -20 -167 -321 -167 -351
0 -10 -7 -24 -15 -31 -8 -7 -15 -23 -15 -35 0 -13 -6 -36 -14 -52 -29 -59 -46
-104 -46 -126 -1 -12 -7 -33 -15 -47 -8 -14 -14 -44 -15 -66 0 -23 -7 -55 -15
-70 -8 -16 -15 -50 -15 -76 0 -26 -5 -59 -11 -75 -7 -15 -15 -66 -20 -113 -5
-47 -13 -110 -18 -140 -12 -72 -12 -261 0 -325 5 -27 13 -93 18 -145 4 -53 13
-106 20 -117 6 -12 11 -47 11 -78 0 -30 7 -72 15 -92 8 -19 15 -50 15 -67 1
-17 7 -42 15 -56 8 -14 14 -37 15 -51 0 -14 7 -34 15 -45 8 -10 15 -33 15 -50
0 -16 7 -39 15 -50 8 -10 15 -28 15 -40 0 -11 7 -29 15 -40 8 -10 15 -26 15
-34 0 -14 81 -187 149 -318 13 -25 176 -275 194 -297 4 -5 18 -24 30 -41 86
-120 325 -362 452 -457 214 -162 305 -219 495 -313 96 -47 119 -58 200 -89 25
-9 56 -22 70 -27 50 -20 143 -48 160 -48 9 0 20 -3 24 -7 10 -11 98 -32 171
-43 33 -5 73 -13 88 -19 16 -6 52 -11 82 -11 29 0 89 -7 132 -15 101 -19 330
-19 448 0 50 8 113 15 142 15 28 0 64 5 79 10 15 6 52 15 83 20 94 15 164 32
198 46 17 8 36 14 43 14 53 0 476 177 518 218 7 6 17 12 22 12 7 0 279 177
290 190 3 3 27 23 55 45 163 131 348 320 460 470 16 22 33 45 37 50 84 107
166 244 247 410 35 72 70 142 77 157 8 14 14 33 14 41 0 9 6 28 14 44 24 48
64 163 77 223 4 19 17 71 28 114 65 245 87 557 63 864 -14 179 -30 267 -77
437 -8 28 -16 61 -19 75 -5 32 -25 87 -42 122 -8 14 -14 33 -14 42 0 8 -6 30
-14 48 -8 18 -21 49 -30 70 -9 20 -16 40 -16 45 0 10 -96 201 -147 294 -38 69
-116 183 -154 227 -16 18 -29 36 -29 41 0 4 -11 20 -24 34 -13 14 -44 52 -69
84 -60 78 -287 299 -362 353 -33 24 -62 47 -65 50 -3 4 -30 24 -60 45 -30 21
-61 45 -68 52 -8 7 -28 21 -45 29 -16 9 -39 25 -50 35 -11 10 -30 22 -41 25
-12 4 -23 10 -26 13 -9 12 -90 51 -105 51 -8 0 -15 4 -15 9 0 5 -10 13 -22 16
-33 9 -92 39 -96 48 -2 4 -10 7 -19 7 -8 0 -27 6 -41 14 -51 26 -103 46 -120
46 -9 0 -26 7 -36 15 -11 8 -29 15 -41 15 -12 0 -30 7 -41 15 -10 8 -31 15
-45 15 -15 0 -43 7 -62 15 -20 8 -53 15 -72 15 -20 0 -46 5 -58 12 -12 6 -58
15 -102 19 -44 5 -100 13 -125 18 -72 16 -576 13 -630 -5z"/>
<path d="M2898 12064 c-32 -11 -73 -33 -130 -69 -17 -11 -96 -74 -167 -133
-24 -20 -62 -59 -84 -87 -21 -27 -56 -68 -76 -90 -20 -22 -67 -80 -104 -130
-37 -49 -70 -94 -75 -100 -37 -47 -132 -175 -132 -179 0 -3 -19 -33 -42 -68
-52 -78 -61 -93 -87 -140 -11 -21 -33 -57 -48 -80 -15 -24 -41 -68 -56 -98
-16 -30 -35 -62 -42 -70 -7 -8 -16 -25 -19 -37 -4 -13 -12 -23 -17 -23 -5 0
-9 -6 -9 -14 0 -12 -61 -139 -109 -226 -4 -8 -16 -33 -25 -55 -10 -22 -24 -53
-32 -68 -8 -16 -14 -34 -14 -42 0 -7 -7 -18 -15 -25 -8 -7 -15 -20 -15 -30 0
-10 -7 -23 -15 -30 -8 -7 -15 -22 -15 -34 0 -12 -7 -31 -15 -42 -8 -10 -15
-28 -15 -40 0 -11 -7 -29 -15 -40 -8 -10 -15 -30 -15 -44 0 -14 -7 -34 -15
-44 -8 -11 -15 -31 -15 -45 0 -14 -7 -35 -15 -45 -8 -11 -15 -36 -15 -55 0
-20 -7 -45 -15 -55 -8 -11 -15 -37 -15 -58 0 -21 -7 -55 -15 -75 -18 -44 -23
-302 -7 -344 12 -30 55 -67 88 -75 92 -23 369 175 533 381 30 39 73 89 96 111
22 23 47 52 55 64 8 12 21 28 28 36 6 7 12 18 12 24 0 6 7 13 15 16 8 4 15 15
15 25 0 10 4 19 9 19 5 0 19 19 31 43 12 23 28 46 36 50 8 4 14 13 14 19 0 5
14 27 30 48 17 21 30 42 30 48 0 5 6 15 14 21 8 7 24 32 35 57 12 24 26 44 31
44 6 0 10 5 10 12 0 6 20 44 45 84 25 39 45 75 45 78 0 4 10 23 23 44 64 102
231 431 241 475 4 15 11 27 16 27 6 0 10 8 10 18 0 9 6 29 14 43 7 14 16 37
20 52 3 15 11 27 16 27 6 0 10 13 10 28 0 16 7 37 15 48 8 10 15 28 15 40 0
11 7 29 15 40 8 10 15 30 15 44 0 14 7 34 15 44 8 11 15 32 15 46 0 14 7 35
15 46 8 10 15 35 15 55 0 20 7 53 15 72 8 20 15 54 15 75 0 22 7 59 15 82 20
57 19 145 -3 205 -23 67 -27 72 -72 95 -44 23 -60 23 -112 4z"/>
<path d="M12373 12062 c-26 -8 -58 -48 -66 -82 -31 -127 -32 -129 -14 -198 9
-37 17 -87 17 -112 1 -25 7 -56 15 -70 8 -14 15 -43 15 -65 0 -22 7 -49 15
-59 8 -11 15 -32 15 -46 0 -14 5 -31 11 -37 6 -6 14 -26 19 -44 8 -34 20 -70
48 -144 14 -40 25 -64 57 -140 10 -22 23 -53 30 -70 73 -170 249 -516 266
-523 5 -2 9 -8 9 -14 0 -9 67 -127 100 -178 6 -8 15 -27 21 -42 6 -16 14 -28
18 -28 3 0 17 -20 31 -45 14 -25 28 -45 32 -45 5 0 8 -5 8 -11 0 -6 14 -28 30
-49 17 -21 30 -41 30 -44 0 -7 183 -249 258 -341 86 -105 213 -228 312 -302
66 -49 118 -75 184 -93 44 -12 52 -11 83 5 59 32 73 74 73 225 0 93 -4 141
-15 167 -8 19 -15 52 -15 72 -1 20 -7 47 -15 61 -8 14 -15 39 -15 55 0 17 -7
41 -15 55 -8 14 -14 35 -15 46 0 12 -7 35 -15 50 -8 16 -15 38 -15 50 0 11 -4
24 -8 30 -4 5 -18 36 -31 69 -13 33 -29 74 -36 90 -8 17 -23 50 -33 75 -65
146 -188 401 -213 440 -9 14 -35 61 -59 105 -62 115 -61 113 -107 183 -24 35
-43 66 -43 69 0 3 -13 25 -30 50 -16 24 -30 47 -30 50 0 3 -13 22 -30 43 -16
21 -30 41 -30 45 0 4 -14 26 -32 49 -63 81 -182 231 -188 236 -3 3 -27 32 -52
65 -75 98 -283 294 -363 342 -87 52 -161 71 -212 55z"/>
<path d="M1248 8965 c-19 -20 -44 -52 -54 -73 -10 -20 -21 -39 -24 -42 -10
-10 -40 -72 -40 -83 0 -7 -6 -24 -14 -39 -8 -14 -17 -45 -21 -67 -4 -23 -11
-43 -16 -47 -5 -3 -9 -17 -9 -32 0 -15 -7 -40 -15 -56 -8 -15 -15 -42 -15 -60
-1 -17 -7 -49 -15 -71 -8 -22 -15 -58 -15 -81 0 -22 -7 -63 -15 -90 -8 -27
-15 -80 -15 -119 0 -38 -7 -97 -15 -130 -22 -90 -22 -1048 0 -1132 8 -31 15
-96 15 -144 0 -51 6 -104 15 -129 8 -23 15 -64 15 -90 0 -26 7 -61 15 -76 8
-16 15 -45 15 -65 0 -20 7 -53 15 -72 8 -20 15 -47 15 -61 0 -13 7 -37 15 -52
8 -16 15 -37 15 -46 0 -9 6 -29 14 -45 8 -15 33 -68 57 -117 23 -49 52 -98 63
-110 58 -60 130 -73 177 -33 30 26 89 101 89 113 0 5 11 31 25 59 51 103 92
239 119 395 7 41 18 95 24 120 27 117 35 188 62 525 11 144 11 630 0 770 -5
61 -14 166 -19 235 -5 69 -15 138 -20 154 -6 15 -11 47 -11 70 0 24 -7 60 -15
79 -8 20 -15 55 -15 77 0 23 -5 50 -11 61 -6 11 -14 41 -19 67 -12 65 -35 151
-50 187 -39 96 -108 219 -138 250 -32 32 -41 35 -92 35 -51 0 -60 -3 -92 -35z"/>
<path d="M13950 8967 c-34 -32 -130 -207 -130 -238 0 -8 -7 -24 -15 -35 -8
-10 -15 -31 -15 -45 0 -14 -7 -34 -15 -45 -8 -10 -15 -35 -15 -54 0 -19 -7
-46 -15 -60 -8 -14 -14 -50 -15 -81 0 -31 -7 -73 -15 -92 -8 -20 -15 -59 -15
-86 0 -28 -7 -76 -15 -108 -9 -35 -15 -103 -15 -178 0 -66 -7 -176 -15 -245
-19 -161 -19 -500 0 -640 8 -58 15 -157 15 -220 0 -69 6 -137 15 -170 8 -30
15 -78 15 -106 0 -28 7 -71 15 -94 8 -23 15 -65 15 -92 0 -27 7 -65 15 -85 8
-19 15 -50 15 -67 0 -18 7 -41 15 -52 8 -10 15 -31 15 -45 0 -15 7 -32 15 -39
8 -7 15 -24 15 -39 0 -14 7 -35 15 -45 8 -11 15 -27 15 -37 0 -9 7 -22 15 -29
8 -7 15 -19 15 -27 0 -42 105 -133 154 -133 54 0 138 78 161 149 3 12 11 21
16 21 5 0 9 7 9 16 0 9 6 28 14 42 60 115 117 359 151 642 9 74 21 167 27 205
16 108 22 874 8 997 -7 57 -16 141 -21 188 -20 202 -48 381 -75 474 -8 26 -14
56 -14 64 0 16 -39 129 -64 187 -41 93 -82 164 -114 198 -33 34 -40 37 -92 37
-48 0 -59 -4 -90 -33z"/>
<path d="M1425 5474 c-30 -32 -33 -43 -39 -117 -7 -91 6 -264 23 -295 6 -12
11 -34 11 -51 0 -17 6 -45 14 -63 7 -18 21 -60 31 -93 21 -72 42 -130 61 -168
8 -16 14 -36 14 -46 0 -9 7 -26 15 -37 8 -10 15 -29 15 -40 0 -12 7 -27 15
-34 8 -7 15 -18 15 -26 0 -13 25 -76 41 -104 5 -8 12 -22 15 -30 11 -29 37
-85 46 -100 4 -8 11 -22 14 -30 9 -20 43 -92 53 -110 5 -8 21 -39 35 -69 32
-66 263 -451 323 -538 23 -35 43 -65 43 -68 0 -5 90 -126 100 -135 3 -3 28
-34 55 -70 27 -36 67 -87 90 -114 57 -70 257 -270 291 -292 16 -10 52 -35 79
-55 28 -20 60 -40 73 -44 12 -3 22 -11 22 -16 0 -5 27 -9 60 -9 80 0 118 31
133 110 18 93 8 245 -24 370 -6 25 -18 72 -26 105 -8 33 -21 75 -29 93 -8 18
-14 39 -14 47 0 14 -20 66 -46 118 -8 16 -14 35 -14 42 0 8 -6 29 -14 47 -8
18 -21 49 -30 70 -9 20 -16 39 -16 42 0 15 -199 421 -231 471 -10 17 -22 37
-25 45 -3 8 -8 20 -10 25 -2 6 -13 24 -24 40 -11 17 -24 39 -29 50 -5 11 -34
58 -65 104 -31 46 -56 86 -56 88 0 3 -20 34 -45 70 -25 35 -45 66 -45 68 0 8
-98 147 -140 200 -22 28 -44 55 -48 60 -73 97 -136 168 -257 290 -113 113
-140 137 -193 166 -20 11 -55 31 -77 44 -30 18 -55 24 -99 25 -54 0 -60 -2
-91 -36z"/>
<path d="M13790 5495 c-7 -8 -20 -15 -30 -15 -10 0 -23 -7 -30 -15 -7 -8 -17
-15 -23 -15 -19 0 -162 -113 -232 -184 -38 -39 -95 -105 -126 -146 -31 -41
-75 -96 -98 -121 -23 -26 -53 -64 -67 -85 -15 -22 -30 -40 -35 -42 -5 -2 -9
-9 -9 -16 0 -6 -20 -34 -45 -63 -25 -28 -45 -54 -45 -57 0 -3 -13 -25 -30 -48
-16 -22 -30 -46 -30 -52 0 -6 -12 -22 -25 -35 -14 -13 -28 -34 -31 -47 -3 -13
-10 -24 -14 -24 -4 0 -13 -12 -19 -27 -6 -16 -20 -41 -30 -58 -20 -30 -43 -71
-77 -135 -11 -19 -22 -37 -25 -40 -8 -6 -17 -23 -126 -242 -51 -100 -95 -195
-99 -211 -3 -15 -10 -30 -15 -33 -5 -3 -9 -16 -9 -28 0 -13 -7 -29 -15 -36 -8
-7 -15 -20 -15 -29 0 -10 -7 -26 -15 -37 -8 -10 -15 -29 -15 -40 0 -12 -7 -27
-15 -34 -8 -7 -15 -25 -15 -39 0 -15 -7 -36 -15 -47 -8 -10 -15 -31 -15 -45 0
-14 -7 -34 -15 -45 -8 -10 -15 -30 -15 -44 0 -14 -7 -36 -15 -50 -8 -14 -14
-38 -15 -53 0 -16 -5 -38 -12 -50 -12 -21 -19 -73 -34 -234 -14 -154 36 -253
127 -253 126 0 350 189 616 520 37 47 87 112 111 145 58 81 232 345 243 370 5
11 15 29 21 40 7 11 24 38 38 60 14 22 40 69 59 105 19 36 39 72 46 80 33 42
213 434 271 590 13 36 28 74 33 85 21 51 63 186 84 270 43 173 47 198 47 310
0 124 -17 182 -59 205 -31 16 -126 13 -141 -5z"/>
<path d="M3295 2610 c-3 -5 -14 -10 -24 -10 -57 0 -103 -96 -81 -167 17 -55
47 -116 68 -139 9 -10 33 -39 52 -64 106 -139 237 -265 443 -427 115 -90 434
-311 477 -330 8 -3 28 -15 43 -26 16 -10 47 -29 70 -42 23 -12 58 -32 77 -44
19 -11 42 -24 50 -27 8 -4 22 -12 30 -19 35 -28 343 -185 363 -185 7 0 17 -4
23 -9 5 -5 50 -25 99 -46 50 -20 97 -40 105 -45 9 -4 30 -11 48 -14 17 -4 34
-12 37 -17 4 -5 15 -9 27 -9 11 0 34 -6 51 -13 61 -26 102 -39 149 -47 27 -5
52 -11 56 -14 25 -15 178 -38 252 -38 94 1 141 16 179 55 20 22 23 36 23 93 0
45 -7 79 -19 103 -59 117 -207 276 -491 529 -28 25 -93 72 -234 169 -18 13
-37 26 -43 30 -38 30 -278 186 -315 204 -25 13 -80 45 -123 71 -43 27 -88 53
-100 59 -12 5 -44 23 -72 39 -27 16 -60 34 -71 39 -12 5 -82 39 -155 74 -74
35 -159 74 -189 87 -65 26 -79 32 -144 59 -27 12 -55 21 -62 21 -8 0 -22 4
-32 9 -39 21 -164 54 -277 72 -33 6 -74 15 -91 20 -41 12 -191 12 -199 -1z"/>
<path d="M11860 2610 c-8 -5 -28 -10 -45 -10 -16 0 -43 -7 -59 -15 -15 -8 -45
-15 -65 -15 -21 0 -46 -7 -57 -15 -10 -8 -33 -15 -50 -15 -16 0 -39 -7 -50
-15 -10 -8 -31 -15 -45 -15 -15 0 -32 -7 -39 -15 -7 -8 -21 -15 -30 -15 -10 0
-33 -8 -52 -17 -18 -9 -45 -22 -60 -30 -14 -7 -33 -13 -41 -13 -7 0 -27 -6
-43 -14 -53 -25 -159 -77 -174 -86 -8 -5 -63 -32 -123 -60 -59 -29 -110 -56
-113 -61 -3 -5 -14 -9 -25 -9 -10 0 -19 -4 -19 -9 0 -5 -9 -13 -21 -16 -26 -8
-123 -67 -127 -77 -2 -5 -10 -8 -18 -8 -7 0 -47 -24 -89 -52 -42 -29 -100 -66
-130 -83 -57 -32 -160 -101 -184 -123 -8 -8 -33 -25 -55 -39 -23 -14 -54 -38
-71 -53 -16 -15 -52 -44 -80 -65 -121 -90 -435 -391 -435 -417 0 -6 -13 -27
-30 -48 -16 -21 -30 -42 -30 -48 0 -5 -6 -15 -13 -21 -19 -15 -41 -113 -33
-144 32 -130 239 -141 597 -33 62 20 155 52 204 72 50 20 106 42 125 49 83 31
323 147 435 210 44 25 87 48 95 52 92 47 423 258 570 364 323 233 581 488 676
668 35 67 44 150 20 186 -31 48 -84 65 -198 65 -57 0 -110 -5 -118 -10z"/>
<path d="M7415 1339 c-59 -10 -207 -26 -355 -40 -58 -5 -118 -14 -134 -19 -16
-6 -46 -10 -68 -10 -21 0 -55 -7 -75 -15 -19 -8 -47 -15 -62 -15 -14 -1 -37
-7 -51 -15 -14 -8 -37 -14 -51 -15 -14 0 -34 -7 -45 -15 -10 -8 -31 -15 -45
-15 -14 0 -34 -7 -45 -15 -10 -8 -27 -15 -37 -15 -9 0 -25 -4 -35 -9 -9 -5
-37 -19 -60 -31 -51 -24 -128 -93 -148 -132 -26 -51 -18 -91 30 -144 42 -47
172 -134 199 -134 7 0 22 -7 33 -15 10 -8 29 -15 42 -15 13 0 33 -5 45 -12 12
-6 38 -15 57 -20 76 -17 146 -35 160 -41 20 -8 125 -25 230 -37 47 -5 103 -14
125 -19 22 -6 87 -13 145 -16 58 -3 125 -10 150 -15 74 -15 453 -12 560 5 52
8 124 15 160 15 36 0 81 5 101 10 19 5 73 14 120 20 419 48 772 193 809 331
14 50 -1 102 -39 139 -34 34 -118 90 -135 90 -7 0 -21 7 -32 15 -10 8 -25 15
-32 15 -8 0 -28 6 -45 13 -46 20 -98 38 -132 46 -17 4 -40 13 -52 19 -12 7
-32 12 -45 12 -13 0 -41 7 -63 15 -22 8 -59 14 -83 15 -24 0 -53 5 -64 11 -12
6 -62 15 -112 20 -50 5 -158 17 -241 25 -169 18 -604 26 -680 13z"/>
    </g>
  </g>
</g>

<!-- Ring -->
<g clip-path="url(#clipRing)">
  <rect x="0" y="0" width="25000" height="25000" fill="#2a1a10"/>
</g>
<circle cx="12500" cy="12500" r="11650" fill="none" stroke="#8a6840" stroke-width="40"/>
<circle cx="12500" cy="12500" r="10200" fill="none" stroke="#8a6840" stroke-width="40"/>
<circle cx="12500" cy="12500" r="11600" fill="none" stroke="#c8a878" stroke-width="10"/>
<circle cx="12500" cy="12500" r="10240" fill="none" stroke="#c8a878" stroke-width="10"/>

<!-- Text -->
<text font-family="'Helvetica Neue',Helvetica,Arial,sans-serif" font-size="520" font-weight="900" fill="#c8a878" text-anchor="middle">
  <textPath xlink:href="#textTop" startOffset="50%" textLength="21000" lengthAdjust="spacing">HIROGEN HUNTERS</textPath>
</text>
<text font-family="'Helvetica Neue',Helvetica,Arial,sans-serif" font-size="520" font-weight="900" fill="#c8a878" text-anchor="middle">
  <textPath xlink:href="#textBot" startOffset="50%" textLength="23500" lengthAdjust="spacing">THE HUNT IS SACRED</textPath>
</text>
</svg>