<svg xmlns="http://www.w3.org/2000/svg" viewBox="-60 -30 652 685">
  <defs>
    <linearGradient id="sBladeGold" x1="0%" y1="0%" x2="100%" y2="100%">
      <stop offset="0%" stop-color="#e8c860"/><stop offset="20%" stop-color="#c49c35"/>
      <stop offset="40%" stop-color="#a07820"/><stop offset="60%" stop-color="#7a5815"/>
      <stop offset="80%" stop-color="#5a3c0c"/><stop offset="100%" stop-color="#3a2406"/>
    </linearGradient>
    <linearGradient id="sWineH" x1="0%" y1="0%" x2="100%" y2="0%">
      <stop offset="0%" stop-color="#2a0308"/><stop offset="15%" stop-color="#3d060e"/>
      <stop offset="35%" stop-color="#55091a"/><stop offset="50%" stop-color="#6a0e20"/>
      <stop offset="65%" stop-color="#55091a"/><stop offset="85%" stop-color="#3d060e"/>
      <stop offset="100%" stop-color="#2a0308"/>
    </linearGradient>
    <linearGradient id="sWineV" x1="0%" y1="0%" x2="0%" y2="100%">
      <stop offset="0%" stop-color="#6a0e20" stop-opacity="0.3"/><stop offset="30%" stop-color="#3d060e" stop-opacity="0"/>
      <stop offset="50%" stop-color="#7a1228" stop-opacity="0.2"/><stop offset="70%" stop-color="#3d060e" stop-opacity="0"/>
      <stop offset="100%" stop-color="#55091a" stop-opacity="0.2"/>
    </linearGradient>
    <linearGradient id="sWineSpec" x1="25%" y1="10%" x2="75%" y2="90%">
      <stop offset="0%" stop-color="#aa2040" stop-opacity="0.18"/><stop offset="30%" stop-color="#ffffff" stop-opacity="0.04"/>
      <stop offset="50%" stop-color="#881830" stop-opacity="0.08"/><stop offset="70%" stop-color="#ffffff" stop-opacity="0.02"/>
      <stop offset="100%" stop-color="#550a18" stop-opacity="0"/>
    </linearGradient>
    <linearGradient id="sRingGold" x1="0%" y1="0%" x2="100%" y2="100%">
      <stop offset="0%" stop-color="#e8c860"/><stop offset="20%" stop-color="#c49c35"/>
      <stop offset="40%" stop-color="#a07820"/><stop offset="60%" stop-color="#7a5815"/>
      <stop offset="80%" stop-color="#5a3c0c"/><stop offset="100%" stop-color="#3a2406"/>
    </linearGradient>
    <filter id="sE16" x="-5%" y="-5%" width="110%" height="110%"><feMorphology operator="erode" radius="16"/></filter>
    <filter id="sE14" x="-5%" y="-5%" width="110%" height="110%"><feMorphology operator="erode" radius="14"/></filter>
    <filter id="sRBev" x="-5%" y="-5%" width="110%" height="110%">
      <feGaussianBlur in="SourceAlpha" stdDeviation="3" result="b"/>
      <feSpecularLighting in="b" surfaceScale="6" specularConstant="0.7" specularExponent="25" lighting-color="#fdf0b0" result="s"><feDistantLight azimuth="220" elevation="50"/></feSpecularLighting>
      <feComposite in="s" in2="SourceAlpha" operator="in" result="sc"/><feComposite in="SourceGraphic" in2="sc" operator="arithmetic" k1="0" k2="1" k3="0.25" k4="0"/>
    </filter>
    <filter id="sBBev" x="-5%" y="-5%" width="110%" height="110%">
      <feGaussianBlur in="SourceAlpha" stdDeviation="2.5" result="b"/>
      <feSpecularLighting in="b" surfaceScale="5" specularConstant="0.6" specularExponent="25" lighting-color="#fdf0b0" result="s"><feDistantLight azimuth="220" elevation="50"/></feSpecularLighting>
      <feComposite in="s" in2="SourceAlpha" operator="in" result="sc"/><feComposite in="SourceGraphic" in2="sc" operator="arithmetic" k1="0" k2="1" k3="0.2" k4="0"/>
    </filter>
    <filter id="sG1" x="-80%" y="-80%" width="260%" height="260%"><feGaussianBlur stdDeviation="18"/></filter>
    <filter id="sG2" x="-50%" y="-50%" width="200%" height="200%"><feGaussianBlur stdDeviation="8"/></filter>
    <filter id="sG3" x="-30%" y="-30%" width="160%" height="160%"><feGaussianBlur stdDeviation="3"/></filter>
  </defs>
  <g><animate attributeName="opacity" values="0.4;0.7;0.4" dur="3.5s" repeatCount="indefinite" calcMode="spline" keySplines="0.4 0 0.6 1;0.4 0 0.6 1"/>
    <circle cx="251" cy="397" r="160" fill="none" stroke="#881010" stroke-width="40" filter="url(#sG1)" opacity="0.7"/>
    <circle cx="251" cy="397" r="160" fill="none" stroke="#cc1818" stroke-width="36" filter="url(#sG2)" opacity="0.6"/>
    <circle cx="251" cy="397" r="160" fill="none" stroke="#ff3030" stroke-width="32" filter="url(#sG3)" opacity="0.4"/>
  </g>
  <circle cx="251" cy="397" r="160" fill="none" stroke="url(#sRingGold)" stroke-width="30" filter="url(#sRBev)"/>
  <circle cx="251" cy="397" r="175" fill="none" stroke="#1a0e02" stroke-width="2"/>
  <circle cx="251" cy="397" r="174" fill="none" stroke="#3a2406" stroke-width="1" opacity="0.6"/>
  <circle cx="251" cy="397" r="145" fill="none" stroke="#c49c35" stroke-width="1.5" opacity="0.5"/>
  <circle cx="251" cy="397" r="146" fill="none" stroke="#e8c860" stroke-width="0.5" opacity="0.3"/>
  <circle cx="251" cy="397" r="165" fill="none" stroke="#fdf0b0" stroke-width="0.6" opacity="0.15" stroke-dasharray="20 45 12 50"/>
  <path fill="url(#sBladeGold)" d="M316.636322,308.261414 C321.471313,315.687927 320.314758,322.042511 315.993744,329.234955 C296.917114,360.988403 278.327209,393.034546 259.614441,425.005981 C257.113678,429.278656 254.962357,433.754364 252.567841,438.091156 C250.289536,442.217529 248.921906,442.361206 246.343826,438.337555 C236.137405,422.408356 225.854996,406.521729 215.988495,390.382294 C203.254547,369.552307 190.957397,348.455658 178.313080,327.570129 C175.837219,323.480560 175.616196,319.781799 177.325836,315.340790 C182.741852,301.271881 188.198593,287.199036 192.949600,272.898468 C199.799835,252.279129 207.118423,231.722778 212.299438,210.662872 C220.370697,177.854477 226.991608,144.682541 233.869858,111.590416 C237.012741,96.469643 239.630173,81.219673 241.870804,65.938118 C243.450546,55.164047 243.988342,44.237526 245.003799,33.380230 C245.433075,28.790327 245.894257,24.203407 247.412735,19.324734 C248.286285,24.050556 249.282516,28.757519 250.012512,33.505417 C253.437134,55.779629 256.098511,78.197044 260.328156,100.315552 C266.640045,133.322906 273.635254,166.215027 281.152100,198.969742 C284.699707,214.428375 289.995850,229.497391 294.751068,244.664139 C299.987762,261.366760 305.431152,278.006226 310.966339,294.612579 C312.479675,299.152954 314.645966,303.475708 316.636322,308.261414 Z" filter="url(#sBBev)"/>
  <path fill="url(#sWineH)" d="M316.636322,308.261414 C321.471313,315.687927 320.314758,322.042511 315.993744,329.234955 C296.917114,360.988403 278.327209,393.034546 259.614441,425.005981 C257.113678,429.278656 254.962357,433.754364 252.567841,438.091156 C250.289536,442.217529 248.921906,442.361206 246.343826,438.337555 C236.137405,422.408356 225.854996,406.521729 215.988495,390.382294 C203.254547,369.552307 190.957397,348.455658 178.313080,327.570129 C175.837219,323.480560 175.616196,319.781799 177.325836,315.340790 C182.741852,301.271881 188.198593,287.199036 192.949600,272.898468 C199.799835,252.279129 207.118423,231.722778 212.299438,210.662872 C220.370697,177.854477 226.991608,144.682541 233.869858,111.590416 C237.012741,96.469643 239.630173,81.219673 241.870804,65.938118 C243.450546,55.164047 243.988342,44.237526 245.003799,33.380230 C245.433075,28.790327 245.894257,24.203407 247.412735,19.324734 C248.286285,24.050556 249.282516,28.757519 250.012512,33.505417 C253.437134,55.779629 256.098511,78.197044 260.328156,100.315552 C266.640045,133.322906 273.635254,166.215027 281.152100,198.969742 C284.699707,214.428375 289.995850,229.497391 294.751068,244.664139 C299.987762,261.366760 305.431152,278.006226 310.966339,294.612579 C312.479675,299.152954 314.645966,303.475708 316.636322,308.261414 Z" filter="url(#sE16)"/>
  <path fill="url(#sWineV)" d="M316.636322,308.261414 C321.471313,315.687927 320.314758,322.042511 315.993744,329.234955 C296.917114,360.988403 278.327209,393.034546 259.614441,425.005981 C257.113678,429.278656 254.962357,433.754364 252.567841,438.091156 C250.289536,442.217529 248.921906,442.361206 246.343826,438.337555 C236.137405,422.408356 225.854996,406.521729 215.988495,390.382294 C203.254547,369.552307 190.957397,348.455658 178.313080,327.570129 C175.837219,323.480560 175.616196,319.781799 177.325836,315.340790 C182.741852,301.271881 188.198593,287.199036 192.949600,272.898468 C199.799835,252.279129 207.118423,231.722778 212.299438,210.662872 C220.370697,177.854477 226.991608,144.682541 233.869858,111.590416 C237.012741,96.469643 239.630173,81.219673 241.870804,65.938118 C243.450546,55.164047 243.988342,44.237526 245.003799,33.380230 C245.433075,28.790327 245.894257,24.203407 247.412735,19.324734 C248.286285,24.050556 249.282516,28.757519 250.012512,33.505417 C253.437134,55.779629 256.098511,78.197044 260.328156,100.315552 C266.640045,133.322906 273.635254,166.215027 281.152100,198.969742 C284.699707,214.428375 289.995850,229.497391 294.751068,244.664139 C299.987762,261.366760 305.431152,278.006226 310.966339,294.612579 C312.479675,299.152954 314.645966,303.475708 316.636322,308.261414 Z" filter="url(#sE16)"/>
  <path fill="url(#sWineSpec)" d="M316.636322,308.261414 C321.471313,315.687927 320.314758,322.042511 315.993744,329.234955 C296.917114,360.988403 278.327209,393.034546 259.614441,425.005981 C257.113678,429.278656 254.962357,433.754364 252.567841,438.091156 C250.289536,442.217529 248.921906,442.361206 246.343826,438.337555 C236.137405,422.408356 225.854996,406.521729 215.988495,390.382294 C203.254547,369.552307 190.957397,348.455658 178.313080,327.570129 C175.837219,323.480560 175.616196,319.781799 177.325836,315.340790 C182.741852,301.271881 188.198593,287.199036 192.949600,272.898468 C199.799835,252.279129 207.118423,231.722778 212.299438,210.662872 C220.370697,177.854477 226.991608,144.682541 233.869858,111.590416 C237.012741,96.469643 239.630173,81.219673 241.870804,65.938118 C243.450546,55.164047 243.988342,44.237526 245.003799,33.380230 C245.433075,28.790327 245.894257,24.203407 247.412735,19.324734 C248.286285,24.050556 249.282516,28.757519 250.012512,33.505417 C253.437134,55.779629 256.098511,78.197044 260.328156,100.315552 C266.640045,133.322906 273.635254,166.215027 281.152100,198.969742 C284.699707,214.428375 289.995850,229.497391 294.751068,244.664139 C299.987762,261.366760 305.431152,278.006226 310.966339,294.612579 C312.479675,299.152954 314.645966,303.475708 316.636322,308.261414 Z" filter="url(#sE16)"/>
  <path fill="url(#sBladeGold)" d="M506.827942,469.598022 C498.145935,479.146912 487.135376,485.379822 475.775146,490.980896 C453.735596,501.847168 430.290649,506.095734 405.823273,505.124329 C395.588043,504.717926 385.205780,505.240631 375.158966,503.647247 C365.197906,502.067535 355.616028,498.199402 345.791473,495.626740 C336.650055,493.232971 327.485504,490.784637 318.192902,489.142975 C302.357849,486.345581 286.412720,484.172638 270.519592,481.700348 C269.101624,481.479706 267.725739,480.988434 265.958984,480.525574 C286.675079,436.421234 314.955994,397.256714 338.259979,354.371124 C344.518402,362.561737 350.165009,370.080383 355.946594,377.493744 C372.333527,398.505615 392.491425,415.324310 415.463135,428.471741 C426.121887,434.572144 438.091919,438.385071 449.478577,443.208801 C459.175079,447.316559 469.271118,449.842224 479.722565,451.184601 C487.860962,452.229919 495.941528,453.725281 504.671814,455.370575 C511.766632,458.726440 511.748169,458.717438 508.447083,465.481781 C507.802490,466.802673 507.362396,468.223358 506.827942,469.598022 Z" filter="url(#sBBev)"/>
  <path fill="url(#sWineH)" d="M506.827942,469.598022 C498.145935,479.146912 487.135376,485.379822 475.775146,490.980896 C453.735596,501.847168 430.290649,506.095734 405.823273,505.124329 C395.588043,504.717926 385.205780,505.240631 375.158966,503.647247 C365.197906,502.067535 355.616028,498.199402 345.791473,495.626740 C336.650055,493.232971 327.485504,490.784637 318.192902,489.142975 C302.357849,486.345581 286.412720,484.172638 270.519592,481.700348 C269.101624,481.479706 267.725739,480.988434 265.958984,480.525574 C286.675079,436.421234 314.955994,397.256714 338.259979,354.371124 C344.518402,362.561737 350.165009,370.080383 355.946594,377.493744 C372.333527,398.505615 392.491425,415.324310 415.463135,428.471741 C426.121887,434.572144 438.091919,438.385071 449.478577,443.208801 C459.175079,447.316559 469.271118,449.842224 479.722565,451.184601 C487.860962,452.229919 495.941528,453.725281 504.671814,455.370575 C511.766632,458.726440 511.748169,458.717438 508.447083,465.481781 C507.802490,466.802673 507.362396,468.223358 506.827942,469.598022 Z" filter="url(#sE14)"/>
  <path fill="url(#sWineV)" d="M506.827942,469.598022 C498.145935,479.146912 487.135376,485.379822 475.775146,490.980896 C453.735596,501.847168 430.290649,506.095734 405.823273,505.124329 C395.588043,504.717926 385.205780,505.240631 375.158966,503.647247 C365.197906,502.067535 355.616028,498.199402 345.791473,495.626740 C336.650055,493.232971 327.485504,490.784637 318.192902,489.142975 C302.357849,486.345581 286.412720,484.172638 270.519592,481.700348 C269.101624,481.479706 267.725739,480.988434 265.958984,480.525574 C286.675079,436.421234 314.955994,397.256714 338.259979,354.371124 C344.518402,362.561737 350.165009,370.080383 355.946594,377.493744 C372.333527,398.505615 392.491425,415.324310 415.463135,428.471741 C426.121887,434.572144 438.091919,438.385071 449.478577,443.208801 C459.175079,447.316559 469.271118,449.842224 479.722565,451.184601 C487.860962,452.229919 495.941528,453.725281 504.671814,455.370575 C511.766632,458.726440 511.748169,458.717438 508.447083,465.481781 C507.802490,466.802673 507.362396,468.223358 506.827942,469.598022 Z" filter="url(#sE14)"/>
  <path fill="url(#sWineSpec)" d="M506.827942,469.598022 C498.145935,479.146912 487.135376,485.379822 475.775146,490.980896 C453.735596,501.847168 430.290649,506.095734 405.823273,505.124329 C395.588043,504.717926 385.205780,505.240631 375.158966,503.647247 C365.197906,502.067535 355.616028,498.199402 345.791473,495.626740 C336.650055,493.232971 327.485504,490.784637 318.192902,489.142975 C302.357849,486.345581 286.412720,484.172638 270.519592,481.700348 C269.101624,481.479706 267.725739,480.988434 265.958984,480.525574 C286.675079,436.421234 314.955994,397.256714 338.259979,354.371124 C344.518402,362.561737 350.165009,370.080383 355.946594,377.493744 C372.333527,398.505615 392.491425,415.324310 415.463135,428.471741 C426.121887,434.572144 438.091919,438.385071 449.478577,443.208801 C459.175079,447.316559 469.271118,449.842224 479.722565,451.184601 C487.860962,452.229919 495.941528,453.725281 504.671814,455.370575 C511.766632,458.726440 511.748169,458.717438 508.447083,465.481781 C507.802490,466.802673 507.362396,468.223358 506.827942,469.598022 Z" filter="url(#sE14)"/>
  <path fill="url(#sBladeGold)" d="M164.511902,366.432495 C188.043610,402.963867 209.515854,440.270844 230.981934,478.385651 C219.599930,479.542755 209.513657,480.267120 199.518173,481.648529 C180.300064,484.304535 161.300369,487.922668 143.418594,495.963013 C132.785141,500.744202 121.725273,504.656219 111.369392,509.959381 C88.515587,521.662659 70.401558,539.000000 55.245075,559.529663 C51.873909,564.095947 48.855282,568.922485 45.674339,573.629211 C45.148098,573.586853 44.621861,573.544495 44.095619,573.502075 C42.111629,565.071716 39.455276,556.734009 38.279175,548.192383 C35.565002,528.480286 36.297348,508.837738 42.160439,489.645721 C46.300941,476.092285 52.774647,463.855133 61.573193,452.572754 C70.943718,440.556946 81.768761,430.180359 93.009056,420.040161 C105.303627,408.948853 116.982849,397.177094 129.226547,386.027222 C138.408646,377.665436 145.881073,368.019531 152.582657,357.673828 C154.873474,354.137299 156.410095,354.102600 158.716843,357.519562 C160.631378,360.355560 162.459869,363.249664 164.511902,366.432495 Z" filter="url(#sBBev)"/>
  <path fill="url(#sWineH)" d="M164.511902,366.432495 C188.043610,402.963867 209.515854,440.270844 230.981934,478.385651 C219.599930,479.542755 209.513657,480.267120 199.518173,481.648529 C180.300064,484.304535 161.300369,487.922668 143.418594,495.963013 C132.785141,500.744202 121.725273,504.656219 111.369392,509.959381 C88.515587,521.662659 70.401558,539.000000 55.245075,559.529663 C51.873909,564.095947 48.855282,568.922485 45.674339,573.629211 C45.148098,573.586853 44.621861,573.544495 44.095619,573.502075 C42.111629,565.071716 39.455276,556.734009 38.279175,548.192383 C35.565002,528.480286 36.297348,508.837738 42.160439,489.645721 C46.300941,476.092285 52.774647,463.855133 61.573193,452.572754 C70.943718,440.556946 81.768761,430.180359 93.009056,420.040161 C105.303627,408.948853 116.982849,397.177094 129.226547,386.027222 C138.408646,377.665436 145.881073,368.019531 152.582657,357.673828 C154.873474,354.137299 156.410095,354.102600 158.716843,357.519562 C160.631378,360.355560 162.459869,363.249664 164.511902,366.432495 Z" filter="url(#sE14)"/>
  <path fill="url(#sWineV)" d="M164.511902,366.432495 C188.043610,402.963867 209.515854,440.270844 230.981934,478.385651 C219.599930,479.542755 209.513657,480.267120 199.518173,481.648529 C180.300064,484.304535 161.300369,487.922668 143.418594,495.963013 C132.785141,500.744202 121.725273,504.656219 111.369392,509.959381 C88.515587,521.662659 70.401558,539.000000 55.245075,559.529663 C51.873909,564.095947 48.855282,568.922485 45.674339,573.629211 C45.148098,573.586853 44.621861,573.544495 44.095619,573.502075 C42.111629,565.071716 39.455276,556.734009 38.279175,548.192383 C35.565002,528.480286 36.297348,508.837738 42.160439,489.645721 C46.300941,476.092285 52.774647,463.855133 61.573193,452.572754 C70.943718,440.556946 81.768761,430.180359 93.009056,420.040161 C105.303627,408.948853 116.982849,397.177094 129.226547,386.027222 C138.408646,377.665436 145.881073,368.019531 152.582657,357.673828 C154.873474,354.137299 156.410095,354.102600 158.716843,357.519562 C160.631378,360.355560 162.459869,363.249664 164.511902,366.432495 Z" filter="url(#sE14)"/>
  <path fill="url(#sWineSpec)" d="M164.511902,366.432495 C188.043610,402.963867 209.515854,440.270844 230.981934,478.385651 C219.599930,479.542755 209.513657,480.267120 199.518173,481.648529 C180.300064,484.304535 161.300369,487.922668 143.418594,495.963013 C132.785141,500.744202 121.725273,504.656219 111.369392,509.959381 C88.515587,521.662659 70.401558,539.000000 55.245075,559.529663 C51.873909,564.095947 48.855282,568.922485 45.674339,573.629211 C45.148098,573.586853 44.621861,573.544495 44.095619,573.502075 C42.111629,565.071716 39.455276,556.734009 38.279175,548.192383 C35.565002,528.480286 36.297348,508.837738 42.160439,489.645721 C46.300941,476.092285 52.774647,463.855133 61.573193,452.572754 C70.943718,440.556946 81.768761,430.180359 93.009056,420.040161 C105.303627,408.948853 116.982849,397.177094 129.226547,386.027222 C138.408646,377.665436 145.881073,368.019531 152.582657,357.673828 C154.873474,354.137299 156.410095,354.102600 158.716843,357.519562 C160.631378,360.355560 162.459869,363.249664 164.511902,366.432495 Z" filter="url(#sE14)"/>
  <line x1="247.0" y1="19.3" x2="248.4" y2="141.4" stroke="#1a0e02" stroke-width="0.8" opacity="0.35"/>
  <line x1="248.0" y1="19.3" x2="249.4" y2="141.4" stroke="#e8d070" stroke-width="0.6" opacity="0.3"/>
  <line x1="177.5" y1="320.8" x2="199.3" y2="318.7" stroke="#1a0e02" stroke-width="0.8" opacity="0.35"/>
  <line x1="178.3" y1="319.6" x2="200.1" y2="317.5" stroke="#e8d070" stroke-width="0.6" opacity="0.3"/>
  <line x1="319.4" y1="319.8" x2="298.6" y2="316.6" stroke="#1a0e02" stroke-width="0.8" opacity="0.35"/>
  <line x1="318.6" y1="318.6" x2="297.8" y2="315.4" stroke="#e8d070" stroke-width="0.6" opacity="0.3"/>
  <line x1="249.0" y1="438.2" x2="248.3" y2="399.0" stroke="#1a0e02" stroke-width="0.8" opacity="0.35"/>
  <line x1="250.0" y1="438.2" x2="249.3" y2="399.0" stroke="#e8d070" stroke-width="0.6" opacity="0.3"/>
  <line x1="337.9" y1="354.4" x2="341.5" y2="392.1" stroke="#1a0e02" stroke-width="0.8" opacity="0.35"/>
  <line x1="338.9" y1="354.4" x2="342.5" y2="392.1" stroke="#e8d070" stroke-width="0.6" opacity="0.3"/>
  <line x1="509.1" y1="461.3" x2="478.8" y2="468.8" stroke="#1a0e02" stroke-width="0.8" opacity="0.35"/>
  <line x1="509.1" y1="460.3" x2="478.8" y2="467.8" stroke="#e8d070" stroke-width="0.6" opacity="0.3"/>
  <line x1="266.0" y1="481.0" x2="293.4" y2="469.8" stroke="#1a0e02" stroke-width="0.8" opacity="0.35"/>
  <line x1="266.0" y1="480.0" x2="293.4" y2="468.8" stroke="#e8d070" stroke-width="0.6" opacity="0.3"/>
  <line x1="156.2" y1="358.0" x2="154.6" y2="388.4" stroke="#1a0e02" stroke-width="0.8" opacity="0.35"/>
  <line x1="157.2" y1="358.0" x2="155.6" y2="388.4" stroke="#e8d070" stroke-width="0.6" opacity="0.3"/>
  <line x1="44.6" y1="573.5" x2="52.7" y2="533.4" stroke="#1a0e02" stroke-width="0.8" opacity="0.35"/>
  <line x1="45.6" y1="573.5" x2="53.7" y2="533.4" stroke="#e8d070" stroke-width="0.6" opacity="0.3"/>
  <line x1="231.0" y1="478.9" x2="200.4" y2="462.1" stroke="#1a0e02" stroke-width="0.8" opacity="0.35"/>
  <line x1="231.0" y1="477.9" x2="200.4" y2="461.1" stroke="#e8d070" stroke-width="0.6" opacity="0.3"/>
</svg>