<?xml version="1.0" encoding="UTF-8"?>
<svg xmlns="http://www.w3.org/2000/svg" xmlns:xlink="http://www.w3.org/1999/xlink" width="700" height="700" viewBox="0 0 25000 25000">
<defs>
  <filter id="fabricNoise" x="0%" y="0%" width="100%" height="100%">
    <feTurbulence type="fractalNoise" baseFrequency="0.08" numOctaves="6" seed="2371"/>
    <feColorMatrix type="saturate" values="0"/>
    <feComponentTransfer><feFuncA type="linear" slope="0.12" intercept="0"/></feComponentTransfer>
    <feComposite operator="in" in2="SourceGraphic"/>
  </filter>
  <filter id="threadTex" x="0%" y="0%" width="100%" height="100%">
    <feTurbulence type="fractalNoise" baseFrequency="0.15 0.02" numOctaves="3" seed="237"/>
    <feColorMatrix type="saturate" values="0"/>
    <feComponentTransfer><feFuncA type="linear" slope="0.15" intercept="0"/></feComponentTransfer>
    <feComposite operator="in" in2="SourceGraphic"/>
  </filter>
  <filter id="stitchShadow" x="-5%" y="-5%" width="110%" height="110%">
    <feDropShadow dx="15" dy="25" stdDeviation="20" flood-color="#000" flood-opacity="0.4"/>
  </filter>
  <clipPath id="clipFrame"><circle cx="12500" cy="12500" r="10200"/></clipPath>
  <clipPath id="clipRing">
    <path d="M12500,850 A11650,11650 0 1,1 12499.9,850 Z M12500,2300 A10200,10200 0 1,0 12500.1,2300 Z" clip-rule="evenodd"/>
  </clipPath>
  <path id="textTop" d="M 1650,12500 A 10850,10850 0 0,1 23350,12500" fill="none"/>
  <path id="textBot" d="M 1550,12500 A 10950,10950 0 1,0 23450,12500" fill="none"/>
</defs>

<g clip-path="url(#clipFrame)">
  <circle cx="12500" cy="12500" r="10200" fill="#080204"/>
  <circle cx="12500" cy="12500" r="10200" filter="url(#fabricNoise)"/>
  <g filter="url(#stitchShadow)">
    <g transform="translate(5500,18719) scale(1.2111,-1.2111)">
      <g fill="#803030" stroke="none">
<path d="M5720 9738 c-19 -12 -75 -45 -125 -73 -49 -28 -164 -95 -254 -148
-90 -53 -165 -97 -167 -97 -1 0 -54 -30 -116 -66 -62 -37 -133 -78 -158 -92
-25 -14 -76 -44 -115 -67 -114 -68 -204 -121 -305 -177 -39 -22 -136 -78 -443
-256 l-79 -46 7 -35 c5 -31 51 -162 84 -243 6 -13 24 -63 41 -113 17 -49 35
-99 40 -110 5 -11 20 -54 35 -95 33 -93 64 -179 75 -205 4 -11 13 -36 20 -55
7 -19 16 -44 20 -55 11 -26 79 -212 92 -250 10 -29 19 -52 37 -97 11 -26 44
-120 67 -188 8 -25 19 -54 23 -65 5 -11 14 -36 21 -55 7 -19 16 -44 21 -55 4
-11 15 -40 23 -65 8 -25 31 -88 51 -140 20 -52 43 -115 51 -140 8 -25 19 -55
25 -67 23 -57 29 -73 58 -153 63 -181 83 -236 91 -255 5 -11 16 -40 24 -65 8
-25 31 -88 51 -140 20 -52 43 -115 51 -140 8 -25 19 -54 24 -65 8 -19 23 -61
70 -190 12 -33 36 -96 52 -140 16 -44 36 -100 44 -125 8 -25 19 -54 24 -65 5
-11 14 -38 21 -60 7 -22 16 -45 20 -50 13 -18 56 -154 51 -160 -3 -2 -32 32
-66 78 -33 45 -119 161 -190 257 -217 293 -290 391 -354 480 -35 47 -91 123
-127 170 -35 47 -99 133 -142 191 -43 58 -145 197 -228 308 -82 112 -203 276
-269 365 -135 183 -182 247 -194 261 -9 11 -115 155 -315 425 -75 102 -193
262 -262 355 -70 94 -132 171 -140 173 -8 2 -34 -8 -59 -22 -26 -14 -67 -38
-93 -52 -27 -15 -59 -35 -73 -44 -14 -9 -50 -31 -80 -47 -30 -17 -149 -86
-265 -153 -115 -68 -239 -140 -275 -160 -36 -20 -110 -63 -165 -95 -55 -32
-114 -66 -131 -76 -38 -21 -252 -146 -416 -242 -65 -37 -118 -73 -118 -80 0
-6 514 -525 1142 -1154 1460 -1461 2199 -2205 2194 -2210 -4 -5 -120 61 -1256
712 -344 197 -674 386 -735 420 -150 85 -160 91 -320 182 -77 44 -156 90 -175
100 -19 11 -186 107 -370 213 -351 202 -402 230 -420 230 -7 0 -10 -394 -10
-1279 l0 -1280 139 -153 c399 -441 955 -948 1372 -1251 13 -9 69 -50 124 -90
117 -86 352 -247 360 -247 4 0 32 -17 63 -39 307 -207 904 -493 1287 -615 137
-44 196 -60 348 -96 242 -57 508 -92 710 -92 140 0 407 22 459 38 9 2 42 9 75
15 32 6 76 15 98 19 22 5 63 13 90 18 44 9 154 37 240 62 400 114 910 348
1345 617 123 76 367 238 456 303 34 25 97 71 141 103 44 32 89 65 99 75 11 9
49 39 84 67 374 285 970 847 1270 1196 l60 70 0 1279 c0 952 -3 1280 -11 1280
-7 0 -79 -39 -162 -86 -82 -47 -165 -94 -183 -105 -19 -10 -51 -29 -71 -40
-21 -12 -58 -33 -83 -47 -74 -42 -361 -207 -418 -241 -29 -17 -55 -31 -58 -31
-3 0 -18 -8 -32 -19 -15 -10 -63 -38 -107 -61 -44 -24 -87 -49 -96 -56 -8 -8
-18 -14 -21 -14 -4 0 -51 -25 -105 -56 -54 -31 -123 -70 -153 -87 -30 -16 -66
-38 -80 -47 -14 -9 -54 -33 -90 -52 -36 -19 -130 -73 -210 -120 -80 -47 -150
-87 -155 -89 -6 -2 -42 -23 -80 -45 -95 -56 -482 -278 -578 -331 -43 -24 -167
-94 -275 -157 -302 -173 -315 -180 -311 -168 2 6 751 761 1664 1678 913 916
1661 1672 1663 1679 2 10 -67 65 -82 65 -2 0 -33 17 -67 38 -35 22 -84 50
-109 64 -61 34 -90 51 -265 153 -82 48 -170 99 -195 113 -25 13 -49 28 -55 32
-5 5 -37 23 -70 40 -33 18 -67 39 -76 46 -8 8 -18 14 -22 14 -3 0 -30 14 -59
32 -138 82 -600 348 -605 348 -3 0 -17 9 -32 19 -15 11 -32 17 -37 13 -9 -6
-182 -237 -271 -362 -21 -28 -134 -180 -146 -195 -6 -8 -222 -300 -351 -475
-66 -89 -302 -408 -396 -535 -53 -71 -136 -184 -185 -250 -49 -66 -139 -187
-200 -270 -61 -82 -179 -241 -261 -351 -82 -111 -221 -298 -309 -417 -151
-203 -188 -240 -150 -150 9 21 23 58 31 83 8 25 19 54 23 65 5 11 14 36 21 55
7 19 16 44 20 55 5 11 20 52 34 90 14 39 37 102 51 140 15 39 33 90 41 115 8
25 19 54 24 65 8 18 42 111 102 275 11 30 24 64 29 75 4 11 24 65 43 120 18
55 39 114 46 130 7 17 16 39 21 50 4 11 17 49 29 85 12 36 25 74 30 85 7 18
22 58 102 275 11 30 24 64 28 75 4 11 13 34 18 50 16 45 83 227 92 250 5 11
18 49 30 85 12 36 25 74 30 85 5 11 16 43 26 70 9 28 21 54 26 59 4 6 8 20 8
31 0 12 3 25 7 28 6 7 30 70 59 157 8 25 19 54 23 65 5 11 14 34 21 50 12 30
84 226 100 275 5 14 29 79 53 145 25 66 53 143 62 170 10 28 21 59 26 70 30
77 49 138 44 144 -4 8 -88 60 -177 110 -57 32 -94 53 -198 113 -52 31 -113 66
-135 79 -22 12 -88 51 -148 86 -59 35 -112 63 -117 63 -6 0 -10 5 -10 10 0 6
-4 10 -10 10 -5 0 -31 13 -57 29 -98 58 -396 231 -483 279 -25 13 -49 28 -55
32 -5 4 -28 18 -50 30 -57 32 -219 127 -293 172 -73 44 -85 46 -132 16z"/>
      </g>
    </g>
  </g>
  <g transform="translate(5500,18719) scale(1.2111,-1.2111)">
    <g fill="#b04840" stroke="none" filter="url(#threadTex)">
<path d="M5720 9738 c-19 -12 -75 -45 -125 -73 -49 -28 -164 -95 -254 -148
-90 -53 -165 -97 -167 -97 -1 0 -54 -30 -116 -66 -62 -37 -133 -78 -158 -92
-25 -14 -76 -44 -115 -67 -114 -68 -204 -121 -305 -177 -39 -22 -136 -78 -443
-256 l-79 -46 7 -35 c5 -31 51 -162 84 -243 6 -13 24 -63 41 -113 17 -49 35
-99 40 -110 5 -11 20 -54 35 -95 33 -93 64 -179 75 -205 4 -11 13 -36 20 -55
7 -19 16 -44 20 -55 11 -26 79 -212 92 -250 10 -29 19 -52 37 -97 11 -26 44
-120 67 -188 8 -25 19 -54 23 -65 5 -11 14 -36 21 -55 7 -19 16 -44 21 -55 4
-11 15 -40 23 -65 8 -25 31 -88 51 -140 20 -52 43 -115 51 -140 8 -25 19 -55
25 -67 23 -57 29 -73 58 -153 63 -181 83 -236 91 -255 5 -11 16 -40 24 -65 8
-25 31 -88 51 -140 20 -52 43 -115 51 -140 8 -25 19 -54 24 -65 8 -19 23 -61
70 -190 12 -33 36 -96 52 -140 16 -44 36 -100 44 -125 8 -25 19 -54 24 -65 5
-11 14 -38 21 -60 7 -22 16 -45 20 -50 13 -18 56 -154 51 -160 -3 -2 -32 32
-66 78 -33 45 -119 161 -190 257 -217 293 -290 391 -354 480 -35 47 -91 123
-127 170 -35 47 -99 133 -142 191 -43 58 -145 197 -228 308 -82 112 -203 276
-269 365 -135 183 -182 247 -194 261 -9 11 -115 155 -315 425 -75 102 -193
262 -262 355 -70 94 -132 171 -140 173 -8 2 -34 -8 -59 -22 -26 -14 -67 -38
-93 -52 -27 -15 -59 -35 -73 -44 -14 -9 -50 -31 -80 -47 -30 -17 -149 -86
-265 -153 -115 -68 -239 -140 -275 -160 -36 -20 -110 -63 -165 -95 -55 -32
-114 -66 -131 -76 -38 -21 -252 -146 -416 -242 -65 -37 -118 -73 -118 -80 0
-6 514 -525 1142 -1154 1460 -1461 2199 -2205 2194 -2210 -4 -5 -120 61 -1256
712 -344 197 -674 386 -735 420 -150 85 -160 91 -320 182 -77 44 -156 90 -175
100 -19 11 -186 107 -370 213 -351 202 -402 230 -420 230 -7 0 -10 -394 -10
-1279 l0 -1280 139 -153 c399 -441 955 -948 1372 -1251 13 -9 69 -50 124 -90
117 -86 352 -247 360 -247 4 0 32 -17 63 -39 307 -207 904 -493 1287 -615 137
-44 196 -60 348 -96 242 -57 508 -92 710 -92 140 0 407 22 459 38 9 2 42 9 75
15 32 6 76 15 98 19 22 5 63 13 90 18 44 9 154 37 240 62 400 114 910 348
1345 617 123 76 367 238 456 303 34 25 97 71 141 103 44 32 89 65 99 75 11 9
49 39 84 67 374 285 970 847 1270 1196 l60 70 0 1279 c0 952 -3 1280 -11 1280
-7 0 -79 -39 -162 -86 -82 -47 -165 -94 -183 -105 -19 -10 -51 -29 -71 -40
-21 -12 -58 -33 -83 -47 -74 -42 -361 -207 -418 -241 -29 -17 -55 -31 -58 -31
-3 0 -18 -8 -32 -19 -15 -10 -63 -38 -107 -61 -44 -24 -87 -49 -96 -56 -8 -8
-18 -14 -21 -14 -4 0 -51 -25 -105 -56 -54 -31 -123 -70 -153 -87 -30 -16 -66
-38 -80 -47 -14 -9 -54 -33 -90 -52 -36 -19 -130 -73 -210 -120 -80 -47 -150
-87 -155 -89 -6 -2 -42 -23 -80 -45 -95 -56 -482 -278 -578 -331 -43 -24 -167
-94 -275 -157 -302 -173 -315 -180 -311 -168 2 6 751 761 1664 1678 913 916
1661 1672 1663 1679 2 10 -67 65 -82 65 -2 0 -33 17 -67 38 -35 22 -84 50
-109 64 -61 34 -90 51 -265 153 -82 48 -170 99 -195 113 -25 13 -49 28 -55 32
-5 5 -37 23 -70 40 -33 18 -67 39 -76 46 -8 8 -18 14 -22 14 -3 0 -30 14 -59
32 -138 82 -600 348 -605 348 -3 0 -17 9 -32 19 -15 11 -32 17 -37 13 -9 -6
-182 -237 -271 -362 -21 -28 -134 -180 -146 -195 -6 -8 -222 -300 -351 -475
-66 -89 -302 -408 -396 -535 -53 -71 -136 -184 -185 -250 -49 -66 -139 -187
-200 -270 -61 -82 -179 -241 -261 -351 -82 -111 -221 -298 -309 -417 -151
-203 -188 -240 -150 -150 9 21 23 58 31 83 8 25 19 54 23 65 5 11 14 36 21 55
7 19 16 44 20 55 5 11 20 52 34 90 14 39 37 102 51 140 15 39 33 90 41 115 8
25 19 54 24 65 8 18 42 111 102 275 11 30 24 64 29 75 4 11 24 65 43 120 18
55 39 114 46 130 7 17 16 39 21 50 4 11 17 49 29 85 12 36 25 74 30 85 7 18
22 58 102 275 11 30 24 64 28 75 4 11 13 34 18 50 16 45 83 227 92 250 5 11
18 49 30 85 12 36 25 74 30 85 5 11 16 43 26 70 9 28 21 54 26 59 4 6 8 20 8
31 0 12 3 25 7 28 6 7 30 70 59 157 8 25 19 54 23 65 5 11 14 34 21 50 12 30
84 226 100 275 5 14 29 79 53 145 25 66 53 143 62 170 10 28 21 59 26 70 30
77 49 138 44 144 -4 8 -88 60 -177 110 -57 32 -94 53 -198 113 -52 31 -113 66
-135 79 -22 12 -88 51 -148 86 -59 35 -112 63 -117 63 -6 0 -10 5 -10 10 0 6
-4 10 -10 10 -5 0 -31 13 -57 29 -98 58 -396 231 -483 279 -25 13 -49 28 -55
32 -5 4 -28 18 -50 30 -57 32 -219 127 -293 172 -73 44 -85 46 -132 16z"/>
    </g>
  </g>
  <g transform="translate(5500,18719) scale(1.2111,-1.2111)">
    <g fill="none" stroke="#d06050" stroke-width="50" stroke-dasharray="100,70" opacity="0.7">
<path d="M5720 9738 c-19 -12 -75 -45 -125 -73 -49 -28 -164 -95 -254 -148
-90 -53 -165 -97 -167 -97 -1 0 -54 -30 -116 -66 -62 -37 -133 -78 -158 -92
-25 -14 -76 -44 -115 -67 -114 -68 -204 -121 -305 -177 -39 -22 -136 -78 -443
-256 l-79 -46 7 -35 c5 -31 51 -162 84 -243 6 -13 24 -63 41 -113 17 -49 35
-99 40 -110 5 -11 20 -54 35 -95 33 -93 64 -179 75 -205 4 -11 13 -36 20 -55
7 -19 16 -44 20 -55 11 -26 79 -212 92 -250 10 -29 19 -52 37 -97 11 -26 44
-120 67 -188 8 -25 19 -54 23 -65 5 -11 14 -36 21 -55 7 -19 16 -44 21 -55 4
-11 15 -40 23 -65 8 -25 31 -88 51 -140 20 -52 43 -115 51 -140 8 -25 19 -55
25 -67 23 -57 29 -73 58 -153 63 -181 83 -236 91 -255 5 -11 16 -40 24 -65 8
-25 31 -88 51 -140 20 -52 43 -115 51 -140 8 -25 19 -54 24 -65 8 -19 23 -61
70 -190 12 -33 36 -96 52 -140 16 -44 36 -100 44 -125 8 -25 19 -54 24 -65 5
-11 14 -38 21 -60 7 -22 16 -45 20 -50 13 -18 56 -154 51 -160 -3 -2 -32 32
-66 78 -33 45 -119 161 -190 257 -217 293 -290 391 -354 480 -35 47 -91 123
-127 170 -35 47 -99 133 -142 191 -43 58 -145 197 -228 308 -82 112 -203 276
-269 365 -135 183 -182 247 -194 261 -9 11 -115 155 -315 425 -75 102 -193
262 -262 355 -70 94 -132 171 -140 173 -8 2 -34 -8 -59 -22 -26 -14 -67 -38
-93 -52 -27 -15 -59 -35 -73 -44 -14 -9 -50 -31 -80 -47 -30 -17 -149 -86
-265 -153 -115 -68 -239 -140 -275 -160 -36 -20 -110 -63 -165 -95 -55 -32
-114 -66 -131 -76 -38 -21 -252 -146 -416 -242 -65 -37 -118 -73 -118 -80 0
-6 514 -525 1142 -1154 1460 -1461 2199 -2205 2194 -2210 -4 -5 -120 61 -1256
712 -344 197 -674 386 -735 420 -150 85 -160 91 -320 182 -77 44 -156 90 -175
100 -19 11 -186 107 -370 213 -351 202 -402 230 -420 230 -7 0 -10 -394 -10
-1279 l0 -1280 139 -153 c399 -441 955 -948 1372 -1251 13 -9 69 -50 124 -90
117 -86 352 -247 360 -247 4 0 32 -17 63 -39 307 -207 904 -493 1287 -615 137
-44 196 -60 348 -96 242 -57 508 -92 710 -92 140 0 407 22 459 38 9 2 42 9 75
15 32 6 76 15 98 19 22 5 63 13 90 18 44 9 154 37 240 62 400 114 910 348
1345 617 123 76 367 238 456 303 34 25 97 71 141 103 44 32 89 65 99 75 11 9
49 39 84 67 374 285 970 847 1270 1196 l60 70 0 1279 c0 952 -3 1280 -11 1280
-7 0 -79 -39 -162 -86 -82 -47 -165 -94 -183 -105 -19 -10 -51 -29 -71 -40
-21 -12 -58 -33 -83 -47 -74 -42 -361 -207 -418 -241 -29 -17 -55 -31 -58 -31
-3 0 -18 -8 -32 -19 -15 -10 -63 -38 -107 -61 -44 -24 -87 -49 -96 -56 -8 -8
-18 -14 -21 -14 -4 0 -51 -25 -105 -56 -54 -31 -123 -70 -153 -87 -30 -16 -66
-38 -80 -47 -14 -9 -54 -33 -90 -52 -36 -19 -130 -73 -210 -120 -80 -47 -150
-87 -155 -89 -6 -2 -42 -23 -80 -45 -95 -56 -482 -278 -578 -331 -43 -24 -167
-94 -275 -157 -302 -173 -315 -180 -311 -168 2 6 751 761 1664 1678 913 916
1661 1672 1663 1679 2 10 -67 65 -82 65 -2 0 -33 17 -67 38 -35 22 -84 50
-109 64 -61 34 -90 51 -265 153 -82 48 -170 99 -195 113 -25 13 -49 28 -55 32
-5 5 -37 23 -70 40 -33 18 -67 39 -76 46 -8 8 -18 14 -22 14 -3 0 -30 14 -59
32 -138 82 -600 348 -605 348 -3 0 -17 9 -32 19 -15 11 -32 17 -37 13 -9 -6
-182 -237 -271 -362 -21 -28 -134 -180 -146 -195 -6 -8 -222 -300 -351 -475
-66 -89 -302 -408 -396 -535 -53 -71 -136 -184 -185 -250 -49 -66 -139 -187
-200 -270 -61 -82 -179 -241 -261 -351 -82 -111 -221 -298 -309 -417 -151
-203 -188 -240 -150 -150 9 21 23 58 31 83 8 25 19 54 23 65 5 11 14 36 21 55
7 19 16 44 20 55 5 11 20 52 34 90 14 39 37 102 51 140 15 39 33 90 41 115 8
25 19 54 24 65 8 18 42 111 102 275 11 30 24 64 29 75 4 11 24 65 43 120 18
55 39 114 46 130 7 17 16 39 21 50 4 11 17 49 29 85 12 36 25 74 30 85 7 18
22 58 102 275 11 30 24 64 28 75 4 11 13 34 18 50 16 45 83 227 92 250 5 11
18 49 30 85 12 36 25 74 30 85 5 11 16 43 26 70 9 28 21 54 26 59 4 6 8 20 8
31 0 12 3 25 7 28 6 7 30 70 59 157 8 25 19 54 23 65 5 11 14 34 21 50 12 30
84 226 100 275 5 14 29 79 53 145 25 66 53 143 62 170 10 28 21 59 26 70 30
77 49 138 44 144 -4 8 -88 60 -177 110 -57 32 -94 53 -198 113 -52 31 -113 66
-135 79 -22 12 -88 51 -148 86 -59 35 -112 63 -117 63 -6 0 -10 5 -10 10 0 6
-4 10 -10 10 -5 0 -31 13 -57 29 -98 58 -396 231 -483 279 -25 13 -49 28 -55
32 -5 4 -28 18 -50 30 -57 32 -219 127 -293 172 -73 44 -85 46 -132 16z"/>
    </g>
  </g>
</g>

<g clip-path="url(#clipRing)">
  <rect x="0" y="0" width="25000" height="25000" fill="#080204"/>
  <rect x="0" y="0" width="25000" height="25000" filter="url(#fabricNoise)"/>
</g>
<circle cx="12500" cy="12500" r="11650" fill="none" stroke="#040102" stroke-width="50"/>
<circle cx="12500" cy="12500" r="10200" fill="none" stroke="#040102" stroke-width="50"/>
<circle cx="12500" cy="12500" r="11400" fill="none" stroke="#602020" stroke-width="25" stroke-dasharray="120,80" opacity="0.7"/>
<circle cx="12500" cy="12500" r="10450" fill="none" stroke="#602020" stroke-width="20" stroke-dasharray="80,60" opacity="0.5"/>

<text font-family="'Helvetica Neue',Helvetica,Arial,sans-serif" font-size="520" font-weight="900" fill="#b04840" text-anchor="middle" filter="url(#stitchShadow)">
  <textPath xlink:href="#textTop" startOffset="50%" textLength="15000" lengthAdjust="spacing">MAQUIS</textPath>
</text>
<text font-family="'Helvetica Neue',Helvetica,Arial,sans-serif" font-size="520" font-weight="900" fill="#b04840" text-anchor="middle" filter="url(#stitchShadow)">
  <textPath xlink:href="#textBot" startOffset="50%" textLength="23500" lengthAdjust="spacing">RESISTANCE CELLS</textPath>
</text>

</svg>
