<?xml version="1.0" encoding="UTF-8"?>
<svg xmlns="http://www.w3.org/2000/svg" xmlns:xlink="http://www.w3.org/1999/xlink" width="700" height="700" viewBox="0 0 25000 25000">
<defs>
  <!-- Background: resistance cell void -->
  <radialGradient id="nebulaBg" cx="50%" cy="50%" r="55%">
    <stop offset="0%" stop-color="#180408"/>
    <stop offset="60%" stop-color="#0a0204"/>
    <stop offset="100%" stop-color="#060102"/>
  </radialGradient>
  <radialGradient id="neb1" cx="35%" cy="40%" r="45%">
    <stop offset="0%" stop-color="#200610" stop-opacity="0.4"/>
    <stop offset="100%" stop-color="transparent"/>
  </radialGradient>
  <radialGradient id="neb2" cx="65%" cy="55%" r="40%">
    <stop offset="0%" stop-color="#1a0408" stop-opacity="0.35"/>
    <stop offset="100%" stop-color="transparent"/>
  </radialGradient>
  <radialGradient id="neb3" cx="45%" cy="65%" r="35%">
    <stop offset="0%" stop-color="#280810" stop-opacity="0.25"/>
    <stop offset="100%" stop-color="transparent"/>
  </radialGradient>
  
  <!-- Resistance metallic - warm copper-red -->
  <linearGradient id="resMetal" x1="20%" y1="0%" x2="80%" y2="100%">
    <stop offset="0%" stop-color="#e8a888"/>
    <stop offset="20%" stop-color="#d08060"/>
    <stop offset="40%" stop-color="#d89878"/>
    <stop offset="55%" stop-color="#b86848"/>
    <stop offset="75%" stop-color="#d08868"/>
    <stop offset="100%" stop-color="#a05838"/>
  </linearGradient>
  
  <linearGradient id="metalHL" x1="30%" y1="0%" x2="70%" y2="100%">
    <stop offset="0%" stop-color="#fff" stop-opacity="0.35"/>
    <stop offset="30%" stop-color="#fff" stop-opacity="0.08"/>
    <stop offset="60%" stop-color="#fff" stop-opacity="0"/>
    <stop offset="100%" stop-color="#000" stop-opacity="0.2"/>
  </linearGradient>
  
  <radialGradient id="coreGlow" cx="48%" cy="45%" r="35%">
    <stop offset="0%" stop-color="#e08060" stop-opacity="0.4"/>
    <stop offset="50%" stop-color="#602020" stop-opacity="0.15"/>
    <stop offset="100%" stop-color="#0a0204" stop-opacity="0"/>
  </radialGradient>
  
  <filter id="shadow" x="-10%" y="-10%" width="130%" height="130%">
    <feGaussianBlur stdDeviation="80" result="blur"/>
    <feComposite operator="in" in="blur" in2="SourceGraphic"/>
  </filter>
  
  <filter id="chiselText" x="-5%" y="-5%" width="110%" height="110%">
    <feGaussianBlur stdDeviation="8" result="blur"/>
    <feSpecularLighting in="blur" surfaceScale="3" specularConstant="0.6" specularExponent="25" result="spec">
      <fePointLight x="12500" y="5000" z="5000"/>
    </feSpecularLighting>
    <feComposite operator="in" in="spec" in2="SourceGraphic" result="specIn"/>
    <feMerge><feMergeNode in="SourceGraphic"/><feMergeNode in="specIn"/></feMerge>
  </filter>
  
  <filter id="resGlow" x="-20%" y="-20%" width="140%" height="140%">
    <feGaussianBlur stdDeviation="60" result="glow"/>
    <feMerge><feMergeNode in="glow"/><feMergeNode in="glow"/><feMergeNode in="SourceGraphic"/></feMerge>
  </filter>
  
  <filter id="metal3D" x="-5%" y="-5%" width="110%" height="110%">
    <feGaussianBlur stdDeviation="15" result="blur"/>
    <feSpecularLighting in="blur" surfaceScale="6" specularConstant="0.8" specularExponent="35" result="spec">
      <fePointLight x="8000" y="4000" z="8000"/>
    </feSpecularLighting>
    <feComposite operator="in" in="spec" in2="SourceGraphic" result="specIn"/>
    <feComposite operator="arithmetic" k1="0" k2="1" k3="0.4" k4="0" in="SourceGraphic" in2="specIn"/>
  </filter>

  <filter id="edgeGlow" x="-5%" y="-5%" width="110%" height="110%">
    <feGaussianBlur stdDeviation="30" result="glow"/>
    <feMerge><feMergeNode in="glow"/><feMergeNode in="SourceGraphic"/></feMerge>
  </filter>

  <!-- Ring: battle-worn dark red -->
  <linearGradient id="ringRes" x1="0%" y1="0%" x2="100%" y2="100%">
    <stop offset="0%" stop-color="#060102"/>
    <stop offset="25%" stop-color="#100408"/>
    <stop offset="50%" stop-color="#080204"/>
    <stop offset="75%" stop-color="#100408"/>
    <stop offset="100%" stop-color="#060102"/>
  </linearGradient>
  
  <filter id="battleTex" x="0%" y="0%" width="100%" height="100%">
    <feTurbulence type="fractalNoise" baseFrequency="0.008" numOctaves="5" seed="23"/>
    <feColorMatrix type="saturate" values="0"/>
    <feComponentTransfer><feFuncA type="linear" slope="0.12" intercept="0"/></feComponentTransfer>
    <feComposite operator="in" in2="SourceGraphic"/>
  </filter>
  
  <!-- Resistance scratched pattern -->
  <pattern id="scratchPattern" x="0" y="0" width="1200" height="1200" patternUnits="userSpaceOnUse">
    <rect width="1200" height="1200" fill="none"/>
    <line x1="100" y1="200" x2="1100" y2="300" stroke="#401818" stroke-width="4" opacity="0.2"/>
    <line x1="200" y1="600" x2="900" y2="500" stroke="#501818" stroke-width="3" opacity="0.15"/>
    <line x1="50" y1="900" x2="1150" y2="1000" stroke="#381010" stroke-width="5" opacity="0.12"/>
  </pattern>
  
  <filter id="scratchGlow" x="-10%" y="-10%" width="120%" height="120%">
    <feGaussianBlur stdDeviation="15" result="glow"/>
    <feMerge><feMergeNode in="glow"/><feMergeNode in="SourceGraphic"/></feMerge>
  </filter>

  <filter id="cloudNoiseFilter">
    <feTurbulence type="fractalNoise" baseFrequency="0.00028" numOctaves="4" seed="23" result="noise"/>
    <feGaussianBlur stdDeviation="100" result="blurredNoise"/>
    <feComponentTransfer in="blurredNoise"><feFuncA type="table" tableValues="0 0 1 1"/></feComponentTransfer>
  </filter>
  <mask id="cloudMask"><rect width="25000" height="25000" filter="url(#cloudNoiseFilter)"/></mask>

  <clipPath id="clipFrame"><circle cx="12500" cy="12500" r="10200"/></clipPath>
  <clipPath id="clipRing">
    <path d="M12500,850 A11650,11650 0 1,1 12499.9,850 Z M12500,2300 A10200,10200 0 1,0 12500.1,2300 Z" clip-rule="evenodd"/>
  </clipPath>
  <path id="textTop" d="M 1650,12500 A 10850,10850 0 0,1 23350,12500" fill="none"/>
  <path id="textBot" d="M 1550,12500 A 10950,10950 0 1,0 23450,12500" fill="none"/>
  
  <radialGradient id="engineGlow" cx="50%" cy="50%" r="50%">
    <stop offset="0%" stop-color="#e08060" stop-opacity="0.8"/>
    <stop offset="50%" stop-color="#e08060" stop-opacity="0.3"/>
    <stop offset="100%" stop-color="#e08060" stop-opacity="0"/>
  </radialGradient>
  
  <filter id="engineBlur"><feGaussianBlur stdDeviation="120"/></filter>
  
  <linearGradient id="ringShine" x1="0" y1="0" x2="0" y2="100%">
    <stop offset="0%" stop-color="#fff" stop-opacity="0.08"/>
    <stop offset="50%" stop-color="#fff" stop-opacity="0"/>
    <stop offset="100%" stop-color="#000" stop-opacity="0.1"/>
  </linearGradient>
  
  <style>
    @keyframes resPulse { 0%,100% { opacity:0; } 50% { opacity:0.6; } }
  </style>
</defs>

<!-- ===== INNER AREA ===== -->
<g clip-path="url(#clipFrame)">
  <circle cx="12500" cy="12500" r="10200" fill="url(#nebulaBg)"/>
  <rect x="0" y="0" width="25000" height="25000" fill="url(#neb1)"/>
  <rect x="0" y="0" width="25000" height="25000" fill="url(#neb2)"/>
  <rect x="0" y="0" width="25000" height="25000" fill="url(#neb3)"/>
  
<circle cx="21303" cy="18934" r="16" fill="rgba(214,70,116,0.73)" />
<circle cx="5297" cy="9842" r="30" fill="rgba(191,117,112,0.80)" />
<circle cx="16322" cy="14345" r="41" fill="rgba(163,70,110,0.50)" />
<circle cx="21163" cy="4896" r="50" fill="rgba(165,102,88,0.59)" />
<circle cx="9926" cy="16976" r="47" fill="rgba(182,84,103,0.85)" />
<circle cx="9101" cy="13668" r="64" fill="rgba(175,76,69,0.79)" />
<circle cx="3021" cy="14519" r="61" fill="rgba(178,80,114,0.84)" />
<circle cx="13410" cy="2541" r="52" fill="rgba(201,71,112,0.91)" />
<circle cx="5341" cy="12895" r="32" fill="rgba(170,93,62,0.68)" />
<circle cx="22394" cy="11434" r="74" fill="rgba(151,93,109,0.91)" />
<circle cx="12400" cy="15859" r="72" fill="rgba(192,82,88,0.96)" />
<circle cx="18491" cy="5479" r="54" fill="rgba(149,72,102,0.73)" />
<circle cx="20367" cy="14037" r="70" fill="rgba(186,81,103,0.79)" />
<circle cx="21094" cy="21944" r="61" fill="rgba(152,119,91,0.94)" />
<circle cx="22362" cy="16402" r="25" fill="rgba(154,63,66,0.85)" />
<circle cx="4300" cy="15664" r="30" fill="rgba(187,76,110,0.56)" />
<circle cx="10946" cy="4276" r="75" fill="rgba(191,97,74,0.62)" />
<circle cx="14438" cy="14537" r="64" fill="rgba(189,79,80,0.72)" />
<circle cx="13197" cy="11343" r="45" fill="rgba(216,104,95,0.55)" />
<circle cx="3604" cy="16626" r="62" fill="rgba(166,107,83,0.87)" />
<circle cx="4145" cy="9773" r="39" fill="rgba(145,101,101,0.87)" />
<circle cx="12700" cy="9438" r="71" fill="rgba(176,113,63,1.00)" />
<circle cx="17287" cy="17355" r="61" fill="rgba(146,118,71,0.94)" />
<circle cx="3553" cy="12415" r="19" fill="rgba(159,115,115,0.97)" />
<circle cx="10520" cy="22174" r="17" fill="rgba(143,72,69,0.87)" />

  <circle cx="12500" cy="12500" r="10200" fill="url(#coreGlow)"/>

  <!-- Shadow -->
  <g transform="translate(5500,18719) scale(1.2111,-1.2111)">
    <g fill="#000" stroke="none" opacity="0.35" filter="url(#shadow)">
<path d="M5720 9738 c-19 -12 -75 -45 -125 -73 -49 -28 -164 -95 -254 -148
-90 -53 -165 -97 -167 -97 -1 0 -54 -30 -116 -66 -62 -37 -133 -78 -158 -92
-25 -14 -76 -44 -115 -67 -114 -68 -204 -121 -305 -177 -39 -22 -136 -78 -443
-256 l-79 -46 7 -35 c5 -31 51 -162 84 -243 6 -13 24 -63 41 -113 17 -49 35
-99 40 -110 5 -11 20 -54 35 -95 33 -93 64 -179 75 -205 4 -11 13 -36 20 -55
7 -19 16 -44 20 -55 11 -26 79 -212 92 -250 10 -29 19 -52 37 -97 11 -26 44
-120 67 -188 8 -25 19 -54 23 -65 5 -11 14 -36 21 -55 7 -19 16 -44 21 -55 4
-11 15 -40 23 -65 8 -25 31 -88 51 -140 20 -52 43 -115 51 -140 8 -25 19 -55
25 -67 23 -57 29 -73 58 -153 63 -181 83 -236 91 -255 5 -11 16 -40 24 -65 8
-25 31 -88 51 -140 20 -52 43 -115 51 -140 8 -25 19 -54 24 -65 8 -19 23 -61
70 -190 12 -33 36 -96 52 -140 16 -44 36 -100 44 -125 8 -25 19 -54 24 -65 5
-11 14 -38 21 -60 7 -22 16 -45 20 -50 13 -18 56 -154 51 -160 -3 -2 -32 32
-66 78 -33 45 -119 161 -190 257 -217 293 -290 391 -354 480 -35 47 -91 123
-127 170 -35 47 -99 133 -142 191 -43 58 -145 197 -228 308 -82 112 -203 276
-269 365 -135 183 -182 247 -194 261 -9 11 -115 155 -315 425 -75 102 -193
262 -262 355 -70 94 -132 171 -140 173 -8 2 -34 -8 -59 -22 -26 -14 -67 -38
-93 -52 -27 -15 -59 -35 -73 -44 -14 -9 -50 -31 -80 -47 -30 -17 -149 -86
-265 -153 -115 -68 -239 -140 -275 -160 -36 -20 -110 -63 -165 -95 -55 -32
-114 -66 -131 -76 -38 -21 -252 -146 -416 -242 -65 -37 -118 -73 -118 -80 0
-6 514 -525 1142 -1154 1460 -1461 2199 -2205 2194 -2210 -4 -5 -120 61 -1256
712 -344 197 -674 386 -735 420 -150 85 -160 91 -320 182 -77 44 -156 90 -175
100 -19 11 -186 107 -370 213 -351 202 -402 230 -420 230 -7 0 -10 -394 -10
-1279 l0 -1280 139 -153 c399 -441 955 -948 1372 -1251 13 -9 69 -50 124 -90
117 -86 352 -247 360 -247 4 0 32 -17 63 -39 307 -207 904 -493 1287 -615 137
-44 196 -60 348 -96 242 -57 508 -92 710 -92 140 0 407 22 459 38 9 2 42 9 75
15 32 6 76 15 98 19 22 5 63 13 90 18 44 9 154 37 240 62 400 114 910 348
1345 617 123 76 367 238 456 303 34 25 97 71 141 103 44 32 89 65 99 75 11 9
49 39 84 67 374 285 970 847 1270 1196 l60 70 0 1279 c0 952 -3 1280 -11 1280
-7 0 -79 -39 -162 -86 -82 -47 -165 -94 -183 -105 -19 -10 -51 -29 -71 -40
-21 -12 -58 -33 -83 -47 -74 -42 -361 -207 -418 -241 -29 -17 -55 -31 -58 -31
-3 0 -18 -8 -32 -19 -15 -10 -63 -38 -107 -61 -44 -24 -87 -49 -96 -56 -8 -8
-18 -14 -21 -14 -4 0 -51 -25 -105 -56 -54 -31 -123 -70 -153 -87 -30 -16 -66
-38 -80 -47 -14 -9 -54 -33 -90 -52 -36 -19 -130 -73 -210 -120 -80 -47 -150
-87 -155 -89 -6 -2 -42 -23 -80 -45 -95 -56 -482 -278 -578 -331 -43 -24 -167
-94 -275 -157 -302 -173 -315 -180 -311 -168 2 6 751 761 1664 1678 913 916
1661 1672 1663 1679 2 10 -67 65 -82 65 -2 0 -33 17 -67 38 -35 22 -84 50
-109 64 -61 34 -90 51 -265 153 -82 48 -170 99 -195 113 -25 13 -49 28 -55 32
-5 5 -37 23 -70 40 -33 18 -67 39 -76 46 -8 8 -18 14 -22 14 -3 0 -30 14 -59
32 -138 82 -600 348 -605 348 -3 0 -17 9 -32 19 -15 11 -32 17 -37 13 -9 -6
-182 -237 -271 -362 -21 -28 -134 -180 -146 -195 -6 -8 -222 -300 -351 -475
-66 -89 -302 -408 -396 -535 -53 -71 -136 -184 -185 -250 -49 -66 -139 -187
-200 -270 -61 -82 -179 -241 -261 -351 -82 -111 -221 -298 -309 -417 -151
-203 -188 -240 -150 -150 9 21 23 58 31 83 8 25 19 54 23 65 5 11 14 36 21 55
7 19 16 44 20 55 5 11 20 52 34 90 14 39 37 102 51 140 15 39 33 90 41 115 8
25 19 54 24 65 8 18 42 111 102 275 11 30 24 64 29 75 4 11 24 65 43 120 18
55 39 114 46 130 7 17 16 39 21 50 4 11 17 49 29 85 12 36 25 74 30 85 7 18
22 58 102 275 11 30 24 64 28 75 4 11 13 34 18 50 16 45 83 227 92 250 5 11
18 49 30 85 12 36 25 74 30 85 5 11 16 43 26 70 9 28 21 54 26 59 4 6 8 20 8
31 0 12 3 25 7 28 6 7 30 70 59 157 8 25 19 54 23 65 5 11 14 34 21 50 12 30
84 226 100 275 5 14 29 79 53 145 25 66 53 143 62 170 10 28 21 59 26 70 30
77 49 138 44 144 -4 8 -88 60 -177 110 -57 32 -94 53 -198 113 -52 31 -113 66
-135 79 -22 12 -88 51 -148 86 -59 35 -112 63 -117 63 -6 0 -10 5 -10 10 0 6
-4 10 -10 10 -5 0 -31 13 -57 29 -98 58 -396 231 -483 279 -25 13 -49 28 -55
32 -5 4 -28 18 -50 30 -57 32 -219 127 -293 172 -73 44 -85 46 -132 16z"/>
    </g>
  </g>

  <!-- Resistance glow -->
  <g transform="translate(5500,18719) scale(1.2111,-1.2111)">
    <g fill="#c05030" stroke="none" opacity="0.5" filter="url(#resGlow)">
<path d="M5720 9738 c-19 -12 -75 -45 -125 -73 -49 -28 -164 -95 -254 -148
-90 -53 -165 -97 -167 -97 -1 0 -54 -30 -116 -66 -62 -37 -133 -78 -158 -92
-25 -14 -76 -44 -115 -67 -114 -68 -204 -121 -305 -177 -39 -22 -136 -78 -443
-256 l-79 -46 7 -35 c5 -31 51 -162 84 -243 6 -13 24 -63 41 -113 17 -49 35
-99 40 -110 5 -11 20 -54 35 -95 33 -93 64 -179 75 -205 4 -11 13 -36 20 -55
7 -19 16 -44 20 -55 11 -26 79 -212 92 -250 10 -29 19 -52 37 -97 11 -26 44
-120 67 -188 8 -25 19 -54 23 -65 5 -11 14 -36 21 -55 7 -19 16 -44 21 -55 4
-11 15 -40 23 -65 8 -25 31 -88 51 -140 20 -52 43 -115 51 -140 8 -25 19 -55
25 -67 23 -57 29 -73 58 -153 63 -181 83 -236 91 -255 5 -11 16 -40 24 -65 8
-25 31 -88 51 -140 20 -52 43 -115 51 -140 8 -25 19 -54 24 -65 8 -19 23 -61
70 -190 12 -33 36 -96 52 -140 16 -44 36 -100 44 -125 8 -25 19 -54 24 -65 5
-11 14 -38 21 -60 7 -22 16 -45 20 -50 13 -18 56 -154 51 -160 -3 -2 -32 32
-66 78 -33 45 -119 161 -190 257 -217 293 -290 391 -354 480 -35 47 -91 123
-127 170 -35 47 -99 133 -142 191 -43 58 -145 197 -228 308 -82 112 -203 276
-269 365 -135 183 -182 247 -194 261 -9 11 -115 155 -315 425 -75 102 -193
262 -262 355 -70 94 -132 171 -140 173 -8 2 -34 -8 -59 -22 -26 -14 -67 -38
-93 -52 -27 -15 -59 -35 -73 -44 -14 -9 -50 -31 -80 -47 -30 -17 -149 -86
-265 -153 -115 -68 -239 -140 -275 -160 -36 -20 -110 -63 -165 -95 -55 -32
-114 -66 -131 -76 -38 -21 -252 -146 -416 -242 -65 -37 -118 -73 -118 -80 0
-6 514 -525 1142 -1154 1460 -1461 2199 -2205 2194 -2210 -4 -5 -120 61 -1256
712 -344 197 -674 386 -735 420 -150 85 -160 91 -320 182 -77 44 -156 90 -175
100 -19 11 -186 107 -370 213 -351 202 -402 230 -420 230 -7 0 -10 -394 -10
-1279 l0 -1280 139 -153 c399 -441 955 -948 1372 -1251 13 -9 69 -50 124 -90
117 -86 352 -247 360 -247 4 0 32 -17 63 -39 307 -207 904 -493 1287 -615 137
-44 196 -60 348 -96 242 -57 508 -92 710 -92 140 0 407 22 459 38 9 2 42 9 75
15 32 6 76 15 98 19 22 5 63 13 90 18 44 9 154 37 240 62 400 114 910 348
1345 617 123 76 367 238 456 303 34 25 97 71 141 103 44 32 89 65 99 75 11 9
49 39 84 67 374 285 970 847 1270 1196 l60 70 0 1279 c0 952 -3 1280 -11 1280
-7 0 -79 -39 -162 -86 -82 -47 -165 -94 -183 -105 -19 -10 -51 -29 -71 -40
-21 -12 -58 -33 -83 -47 -74 -42 -361 -207 -418 -241 -29 -17 -55 -31 -58 -31
-3 0 -18 -8 -32 -19 -15 -10 -63 -38 -107 -61 -44 -24 -87 -49 -96 -56 -8 -8
-18 -14 -21 -14 -4 0 -51 -25 -105 -56 -54 -31 -123 -70 -153 -87 -30 -16 -66
-38 -80 -47 -14 -9 -54 -33 -90 -52 -36 -19 -130 -73 -210 -120 -80 -47 -150
-87 -155 -89 -6 -2 -42 -23 -80 -45 -95 -56 -482 -278 -578 -331 -43 -24 -167
-94 -275 -157 -302 -173 -315 -180 -311 -168 2 6 751 761 1664 1678 913 916
1661 1672 1663 1679 2 10 -67 65 -82 65 -2 0 -33 17 -67 38 -35 22 -84 50
-109 64 -61 34 -90 51 -265 153 -82 48 -170 99 -195 113 -25 13 -49 28 -55 32
-5 5 -37 23 -70 40 -33 18 -67 39 -76 46 -8 8 -18 14 -22 14 -3 0 -30 14 -59
32 -138 82 -600 348 -605 348 -3 0 -17 9 -32 19 -15 11 -32 17 -37 13 -9 -6
-182 -237 -271 -362 -21 -28 -134 -180 -146 -195 -6 -8 -222 -300 -351 -475
-66 -89 -302 -408 -396 -535 -53 -71 -136 -184 -185 -250 -49 -66 -139 -187
-200 -270 -61 -82 -179 -241 -261 -351 -82 -111 -221 -298 -309 -417 -151
-203 -188 -240 -150 -150 9 21 23 58 31 83 8 25 19 54 23 65 5 11 14 36 21 55
7 19 16 44 20 55 5 11 20 52 34 90 14 39 37 102 51 140 15 39 33 90 41 115 8
25 19 54 24 65 8 18 42 111 102 275 11 30 24 64 29 75 4 11 24 65 43 120 18
55 39 114 46 130 7 17 16 39 21 50 4 11 17 49 29 85 12 36 25 74 30 85 7 18
22 58 102 275 11 30 24 64 28 75 4 11 13 34 18 50 16 45 83 227 92 250 5 11
18 49 30 85 12 36 25 74 30 85 5 11 16 43 26 70 9 28 21 54 26 59 4 6 8 20 8
31 0 12 3 25 7 28 6 7 30 70 59 157 8 25 19 54 23 65 5 11 14 34 21 50 12 30
84 226 100 275 5 14 29 79 53 145 25 66 53 143 62 170 10 28 21 59 26 70 30
77 49 138 44 144 -4 8 -88 60 -177 110 -57 32 -94 53 -198 113 -52 31 -113 66
-135 79 -22 12 -88 51 -148 86 -59 35 -112 63 -117 63 -6 0 -10 5 -10 10 0 6
-4 10 -10 10 -5 0 -31 13 -57 29 -98 58 -396 231 -483 279 -25 13 -49 28 -55
32 -5 4 -28 18 -50 30 -57 32 -219 127 -293 172 -73 44 -85 46 -132 16z"/>
    </g>
  </g>

  <!-- Main metallic body -->
  <g transform="translate(5500,18719) scale(1.2111,-1.2111)">
    <g fill="url(#resMetal)" stroke="none">
<path d="M5720 9738 c-19 -12 -75 -45 -125 -73 -49 -28 -164 -95 -254 -148
-90 -53 -165 -97 -167 -97 -1 0 -54 -30 -116 -66 -62 -37 -133 -78 -158 -92
-25 -14 -76 -44 -115 -67 -114 -68 -204 -121 -305 -177 -39 -22 -136 -78 -443
-256 l-79 -46 7 -35 c5 -31 51 -162 84 -243 6 -13 24 -63 41 -113 17 -49 35
-99 40 -110 5 -11 20 -54 35 -95 33 -93 64 -179 75 -205 4 -11 13 -36 20 -55
7 -19 16 -44 20 -55 11 -26 79 -212 92 -250 10 -29 19 -52 37 -97 11 -26 44
-120 67 -188 8 -25 19 -54 23 -65 5 -11 14 -36 21 -55 7 -19 16 -44 21 -55 4
-11 15 -40 23 -65 8 -25 31 -88 51 -140 20 -52 43 -115 51 -140 8 -25 19 -55
25 -67 23 -57 29 -73 58 -153 63 -181 83 -236 91 -255 5 -11 16 -40 24 -65 8
-25 31 -88 51 -140 20 -52 43 -115 51 -140 8 -25 19 -54 24 -65 8 -19 23 -61
70 -190 12 -33 36 -96 52 -140 16 -44 36 -100 44 -125 8 -25 19 -54 24 -65 5
-11 14 -38 21 -60 7 -22 16 -45 20 -50 13 -18 56 -154 51 -160 -3 -2 -32 32
-66 78 -33 45 -119 161 -190 257 -217 293 -290 391 -354 480 -35 47 -91 123
-127 170 -35 47 -99 133 -142 191 -43 58 -145 197 -228 308 -82 112 -203 276
-269 365 -135 183 -182 247 -194 261 -9 11 -115 155 -315 425 -75 102 -193
262 -262 355 -70 94 -132 171 -140 173 -8 2 -34 -8 -59 -22 -26 -14 -67 -38
-93 -52 -27 -15 -59 -35 -73 -44 -14 -9 -50 -31 -80 -47 -30 -17 -149 -86
-265 -153 -115 -68 -239 -140 -275 -160 -36 -20 -110 -63 -165 -95 -55 -32
-114 -66 -131 -76 -38 -21 -252 -146 -416 -242 -65 -37 -118 -73 -118 -80 0
-6 514 -525 1142 -1154 1460 -1461 2199 -2205 2194 -2210 -4 -5 -120 61 -1256
712 -344 197 -674 386 -735 420 -150 85 -160 91 -320 182 -77 44 -156 90 -175
100 -19 11 -186 107 -370 213 -351 202 -402 230 -420 230 -7 0 -10 -394 -10
-1279 l0 -1280 139 -153 c399 -441 955 -948 1372 -1251 13 -9 69 -50 124 -90
117 -86 352 -247 360 -247 4 0 32 -17 63 -39 307 -207 904 -493 1287 -615 137
-44 196 -60 348 -96 242 -57 508 -92 710 -92 140 0 407 22 459 38 9 2 42 9 75
15 32 6 76 15 98 19 22 5 63 13 90 18 44 9 154 37 240 62 400 114 910 348
1345 617 123 76 367 238 456 303 34 25 97 71 141 103 44 32 89 65 99 75 11 9
49 39 84 67 374 285 970 847 1270 1196 l60 70 0 1279 c0 952 -3 1280 -11 1280
-7 0 -79 -39 -162 -86 -82 -47 -165 -94 -183 -105 -19 -10 -51 -29 -71 -40
-21 -12 -58 -33 -83 -47 -74 -42 -361 -207 -418 -241 -29 -17 -55 -31 -58 -31
-3 0 -18 -8 -32 -19 -15 -10 -63 -38 -107 -61 -44 -24 -87 -49 -96 -56 -8 -8
-18 -14 -21 -14 -4 0 -51 -25 -105 -56 -54 -31 -123 -70 -153 -87 -30 -16 -66
-38 -80 -47 -14 -9 -54 -33 -90 -52 -36 -19 -130 -73 -210 -120 -80 -47 -150
-87 -155 -89 -6 -2 -42 -23 -80 -45 -95 -56 -482 -278 -578 -331 -43 -24 -167
-94 -275 -157 -302 -173 -315 -180 -311 -168 2 6 751 761 1664 1678 913 916
1661 1672 1663 1679 2 10 -67 65 -82 65 -2 0 -33 17 -67 38 -35 22 -84 50
-109 64 -61 34 -90 51 -265 153 -82 48 -170 99 -195 113 -25 13 -49 28 -55 32
-5 5 -37 23 -70 40 -33 18 -67 39 -76 46 -8 8 -18 14 -22 14 -3 0 -30 14 -59
32 -138 82 -600 348 -605 348 -3 0 -17 9 -32 19 -15 11 -32 17 -37 13 -9 -6
-182 -237 -271 -362 -21 -28 -134 -180 -146 -195 -6 -8 -222 -300 -351 -475
-66 -89 -302 -408 -396 -535 -53 -71 -136 -184 -185 -250 -49 -66 -139 -187
-200 -270 -61 -82 -179 -241 -261 -351 -82 -111 -221 -298 -309 -417 -151
-203 -188 -240 -150 -150 9 21 23 58 31 83 8 25 19 54 23 65 5 11 14 36 21 55
7 19 16 44 20 55 5 11 20 52 34 90 14 39 37 102 51 140 15 39 33 90 41 115 8
25 19 54 24 65 8 18 42 111 102 275 11 30 24 64 29 75 4 11 24 65 43 120 18
55 39 114 46 130 7 17 16 39 21 50 4 11 17 49 29 85 12 36 25 74 30 85 7 18
22 58 102 275 11 30 24 64 28 75 4 11 13 34 18 50 16 45 83 227 92 250 5 11
18 49 30 85 12 36 25 74 30 85 5 11 16 43 26 70 9 28 21 54 26 59 4 6 8 20 8
31 0 12 3 25 7 28 6 7 30 70 59 157 8 25 19 54 23 65 5 11 14 34 21 50 12 30
84 226 100 275 5 14 29 79 53 145 25 66 53 143 62 170 10 28 21 59 26 70 30
77 49 138 44 144 -4 8 -88 60 -177 110 -57 32 -94 53 -198 113 -52 31 -113 66
-135 79 -22 12 -88 51 -148 86 -59 35 -112 63 -117 63 -6 0 -10 5 -10 10 0 6
-4 10 -10 10 -5 0 -31 13 -57 29 -98 58 -396 231 -483 279 -25 13 -49 28 -55
32 -5 4 -28 18 -50 30 -57 32 -219 127 -293 172 -73 44 -85 46 -132 16z"/>
    </g>
  </g>

  <!-- 3D lighting -->
  <g transform="translate(5500,18719) scale(1.2111,-1.2111)">
    <g fill="url(#metalHL)" stroke="none">
<path d="M5720 9738 c-19 -12 -75 -45 -125 -73 -49 -28 -164 -95 -254 -148
-90 -53 -165 -97 -167 -97 -1 0 -54 -30 -116 -66 -62 -37 -133 -78 -158 -92
-25 -14 -76 -44 -115 -67 -114 -68 -204 -121 -305 -177 -39 -22 -136 -78 -443
-256 l-79 -46 7 -35 c5 -31 51 -162 84 -243 6 -13 24 -63 41 -113 17 -49 35
-99 40 -110 5 -11 20 -54 35 -95 33 -93 64 -179 75 -205 4 -11 13 -36 20 -55
7 -19 16 -44 20 -55 11 -26 79 -212 92 -250 10 -29 19 -52 37 -97 11 -26 44
-120 67 -188 8 -25 19 -54 23 -65 5 -11 14 -36 21 -55 7 -19 16 -44 21 -55 4
-11 15 -40 23 -65 8 -25 31 -88 51 -140 20 -52 43 -115 51 -140 8 -25 19 -55
25 -67 23 -57 29 -73 58 -153 63 -181 83 -236 91 -255 5 -11 16 -40 24 -65 8
-25 31 -88 51 -140 20 -52 43 -115 51 -140 8 -25 19 -54 24 -65 8 -19 23 -61
70 -190 12 -33 36 -96 52 -140 16 -44 36 -100 44 -125 8 -25 19 -54 24 -65 5
-11 14 -38 21 -60 7 -22 16 -45 20 -50 13 -18 56 -154 51 -160 -3 -2 -32 32
-66 78 -33 45 -119 161 -190 257 -217 293 -290 391 -354 480 -35 47 -91 123
-127 170 -35 47 -99 133 -142 191 -43 58 -145 197 -228 308 -82 112 -203 276
-269 365 -135 183 -182 247 -194 261 -9 11 -115 155 -315 425 -75 102 -193
262 -262 355 -70 94 -132 171 -140 173 -8 2 -34 -8 -59 -22 -26 -14 -67 -38
-93 -52 -27 -15 -59 -35 -73 -44 -14 -9 -50 -31 -80 -47 -30 -17 -149 -86
-265 -153 -115 -68 -239 -140 -275 -160 -36 -20 -110 -63 -165 -95 -55 -32
-114 -66 -131 -76 -38 -21 -252 -146 -416 -242 -65 -37 -118 -73 -118 -80 0
-6 514 -525 1142 -1154 1460 -1461 2199 -2205 2194 -2210 -4 -5 -120 61 -1256
712 -344 197 -674 386 -735 420 -150 85 -160 91 -320 182 -77 44 -156 90 -175
100 -19 11 -186 107 -370 213 -351 202 -402 230 -420 230 -7 0 -10 -394 -10
-1279 l0 -1280 139 -153 c399 -441 955 -948 1372 -1251 13 -9 69 -50 124 -90
117 -86 352 -247 360 -247 4 0 32 -17 63 -39 307 -207 904 -493 1287 -615 137
-44 196 -60 348 -96 242 -57 508 -92 710 -92 140 0 407 22 459 38 9 2 42 9 75
15 32 6 76 15 98 19 22 5 63 13 90 18 44 9 154 37 240 62 400 114 910 348
1345 617 123 76 367 238 456 303 34 25 97 71 141 103 44 32 89 65 99 75 11 9
49 39 84 67 374 285 970 847 1270 1196 l60 70 0 1279 c0 952 -3 1280 -11 1280
-7 0 -79 -39 -162 -86 -82 -47 -165 -94 -183 -105 -19 -10 -51 -29 -71 -40
-21 -12 -58 -33 -83 -47 -74 -42 -361 -207 -418 -241 -29 -17 -55 -31 -58 -31
-3 0 -18 -8 -32 -19 -15 -10 -63 -38 -107 -61 -44 -24 -87 -49 -96 -56 -8 -8
-18 -14 -21 -14 -4 0 -51 -25 -105 -56 -54 -31 -123 -70 -153 -87 -30 -16 -66
-38 -80 -47 -14 -9 -54 -33 -90 -52 -36 -19 -130 -73 -210 -120 -80 -47 -150
-87 -155 -89 -6 -2 -42 -23 -80 -45 -95 -56 -482 -278 -578 -331 -43 -24 -167
-94 -275 -157 -302 -173 -315 -180 -311 -168 2 6 751 761 1664 1678 913 916
1661 1672 1663 1679 2 10 -67 65 -82 65 -2 0 -33 17 -67 38 -35 22 -84 50
-109 64 -61 34 -90 51 -265 153 -82 48 -170 99 -195 113 -25 13 -49 28 -55 32
-5 5 -37 23 -70 40 -33 18 -67 39 -76 46 -8 8 -18 14 -22 14 -3 0 -30 14 -59
32 -138 82 -600 348 -605 348 -3 0 -17 9 -32 19 -15 11 -32 17 -37 13 -9 -6
-182 -237 -271 -362 -21 -28 -134 -180 -146 -195 -6 -8 -222 -300 -351 -475
-66 -89 -302 -408 -396 -535 -53 -71 -136 -184 -185 -250 -49 -66 -139 -187
-200 -270 -61 -82 -179 -241 -261 -351 -82 -111 -221 -298 -309 -417 -151
-203 -188 -240 -150 -150 9 21 23 58 31 83 8 25 19 54 23 65 5 11 14 36 21 55
7 19 16 44 20 55 5 11 20 52 34 90 14 39 37 102 51 140 15 39 33 90 41 115 8
25 19 54 24 65 8 18 42 111 102 275 11 30 24 64 29 75 4 11 24 65 43 120 18
55 39 114 46 130 7 17 16 39 21 50 4 11 17 49 29 85 12 36 25 74 30 85 7 18
22 58 102 275 11 30 24 64 28 75 4 11 13 34 18 50 16 45 83 227 92 250 5 11
18 49 30 85 12 36 25 74 30 85 5 11 16 43 26 70 9 28 21 54 26 59 4 6 8 20 8
31 0 12 3 25 7 28 6 7 30 70 59 157 8 25 19 54 23 65 5 11 14 34 21 50 12 30
84 226 100 275 5 14 29 79 53 145 25 66 53 143 62 170 10 28 21 59 26 70 30
77 49 138 44 144 -4 8 -88 60 -177 110 -57 32 -94 53 -198 113 -52 31 -113 66
-135 79 -22 12 -88 51 -148 86 -59 35 -112 63 -117 63 -6 0 -10 5 -10 10 0 6
-4 10 -10 10 -5 0 -31 13 -57 29 -98 58 -396 231 -483 279 -25 13 -49 28 -55
32 -5 4 -28 18 -50 30 -57 32 -219 127 -293 172 -73 44 -85 46 -132 16z"/>
    </g>
  </g>

  <!-- Specular -->
  <g transform="translate(5500,18719) scale(1.2111,-1.2111)">
    <g fill="url(#resMetal)" stroke="none" filter="url(#metal3D)" opacity="0.6">
<path d="M5720 9738 c-19 -12 -75 -45 -125 -73 -49 -28 -164 -95 -254 -148
-90 -53 -165 -97 -167 -97 -1 0 -54 -30 -116 -66 -62 -37 -133 -78 -158 -92
-25 -14 -76 -44 -115 -67 -114 -68 -204 -121 -305 -177 -39 -22 -136 -78 -443
-256 l-79 -46 7 -35 c5 -31 51 -162 84 -243 6 -13 24 -63 41 -113 17 -49 35
-99 40 -110 5 -11 20 -54 35 -95 33 -93 64 -179 75 -205 4 -11 13 -36 20 -55
7 -19 16 -44 20 -55 11 -26 79 -212 92 -250 10 -29 19 -52 37 -97 11 -26 44
-120 67 -188 8 -25 19 -54 23 -65 5 -11 14 -36 21 -55 7 -19 16 -44 21 -55 4
-11 15 -40 23 -65 8 -25 31 -88 51 -140 20 -52 43 -115 51 -140 8 -25 19 -55
25 -67 23 -57 29 -73 58 -153 63 -181 83 -236 91 -255 5 -11 16 -40 24 -65 8
-25 31 -88 51 -140 20 -52 43 -115 51 -140 8 -25 19 -54 24 -65 8 -19 23 -61
70 -190 12 -33 36 -96 52 -140 16 -44 36 -100 44 -125 8 -25 19 -54 24 -65 5
-11 14 -38 21 -60 7 -22 16 -45 20 -50 13 -18 56 -154 51 -160 -3 -2 -32 32
-66 78 -33 45 -119 161 -190 257 -217 293 -290 391 -354 480 -35 47 -91 123
-127 170 -35 47 -99 133 -142 191 -43 58 -145 197 -228 308 -82 112 -203 276
-269 365 -135 183 -182 247 -194 261 -9 11 -115 155 -315 425 -75 102 -193
262 -262 355 -70 94 -132 171 -140 173 -8 2 -34 -8 -59 -22 -26 -14 -67 -38
-93 -52 -27 -15 -59 -35 -73 -44 -14 -9 -50 -31 -80 -47 -30 -17 -149 -86
-265 -153 -115 -68 -239 -140 -275 -160 -36 -20 -110 -63 -165 -95 -55 -32
-114 -66 -131 -76 -38 -21 -252 -146 -416 -242 -65 -37 -118 -73 -118 -80 0
-6 514 -525 1142 -1154 1460 -1461 2199 -2205 2194 -2210 -4 -5 -120 61 -1256
712 -344 197 -674 386 -735 420 -150 85 -160 91 -320 182 -77 44 -156 90 -175
100 -19 11 -186 107 -370 213 -351 202 -402 230 -420 230 -7 0 -10 -394 -10
-1279 l0 -1280 139 -153 c399 -441 955 -948 1372 -1251 13 -9 69 -50 124 -90
117 -86 352 -247 360 -247 4 0 32 -17 63 -39 307 -207 904 -493 1287 -615 137
-44 196 -60 348 -96 242 -57 508 -92 710 -92 140 0 407 22 459 38 9 2 42 9 75
15 32 6 76 15 98 19 22 5 63 13 90 18 44 9 154 37 240 62 400 114 910 348
1345 617 123 76 367 238 456 303 34 25 97 71 141 103 44 32 89 65 99 75 11 9
49 39 84 67 374 285 970 847 1270 1196 l60 70 0 1279 c0 952 -3 1280 -11 1280
-7 0 -79 -39 -162 -86 -82 -47 -165 -94 -183 -105 -19 -10 -51 -29 -71 -40
-21 -12 -58 -33 -83 -47 -74 -42 -361 -207 -418 -241 -29 -17 -55 -31 -58 -31
-3 0 -18 -8 -32 -19 -15 -10 -63 -38 -107 -61 -44 -24 -87 -49 -96 -56 -8 -8
-18 -14 -21 -14 -4 0 -51 -25 -105 -56 -54 -31 -123 -70 -153 -87 -30 -16 -66
-38 -80 -47 -14 -9 -54 -33 -90 -52 -36 -19 -130 -73 -210 -120 -80 -47 -150
-87 -155 -89 -6 -2 -42 -23 -80 -45 -95 -56 -482 -278 -578 -331 -43 -24 -167
-94 -275 -157 -302 -173 -315 -180 -311 -168 2 6 751 761 1664 1678 913 916
1661 1672 1663 1679 2 10 -67 65 -82 65 -2 0 -33 17 -67 38 -35 22 -84 50
-109 64 -61 34 -90 51 -265 153 -82 48 -170 99 -195 113 -25 13 -49 28 -55 32
-5 5 -37 23 -70 40 -33 18 -67 39 -76 46 -8 8 -18 14 -22 14 -3 0 -30 14 -59
32 -138 82 -600 348 -605 348 -3 0 -17 9 -32 19 -15 11 -32 17 -37 13 -9 -6
-182 -237 -271 -362 -21 -28 -134 -180 -146 -195 -6 -8 -222 -300 -351 -475
-66 -89 -302 -408 -396 -535 -53 -71 -136 -184 -185 -250 -49 -66 -139 -187
-200 -270 -61 -82 -179 -241 -261 -351 -82 -111 -221 -298 -309 -417 -151
-203 -188 -240 -150 -150 9 21 23 58 31 83 8 25 19 54 23 65 5 11 14 36 21 55
7 19 16 44 20 55 5 11 20 52 34 90 14 39 37 102 51 140 15 39 33 90 41 115 8
25 19 54 24 65 8 18 42 111 102 275 11 30 24 64 29 75 4 11 24 65 43 120 18
55 39 114 46 130 7 17 16 39 21 50 4 11 17 49 29 85 12 36 25 74 30 85 7 18
22 58 102 275 11 30 24 64 28 75 4 11 13 34 18 50 16 45 83 227 92 250 5 11
18 49 30 85 12 36 25 74 30 85 5 11 16 43 26 70 9 28 21 54 26 59 4 6 8 20 8
31 0 12 3 25 7 28 6 7 30 70 59 157 8 25 19 54 23 65 5 11 14 34 21 50 12 30
84 226 100 275 5 14 29 79 53 145 25 66 53 143 62 170 10 28 21 59 26 70 30
77 49 138 44 144 -4 8 -88 60 -177 110 -57 32 -94 53 -198 113 -52 31 -113 66
-135 79 -22 12 -88 51 -148 86 -59 35 -112 63 -117 63 -6 0 -10 5 -10 10 0 6
-4 10 -10 10 -5 0 -31 13 -57 29 -98 58 -396 231 -483 279 -25 13 -49 28 -55
32 -5 4 -28 18 -50 30 -57 32 -219 127 -293 172 -73 44 -85 46 -132 16z"/>
    </g>
  </g>

  <!-- Edge glow -->
  <g transform="translate(5500,18719) scale(1.2111,-1.2111)">
    <g fill="none" stroke="#f0c0a0" stroke-width="15" opacity="0.4" filter="url(#edgeGlow)">
<path d="M5720 9738 c-19 -12 -75 -45 -125 -73 -49 -28 -164 -95 -254 -148
-90 -53 -165 -97 -167 -97 -1 0 -54 -30 -116 -66 -62 -37 -133 -78 -158 -92
-25 -14 -76 -44 -115 -67 -114 -68 -204 -121 -305 -177 -39 -22 -136 -78 -443
-256 l-79 -46 7 -35 c5 -31 51 -162 84 -243 6 -13 24 -63 41 -113 17 -49 35
-99 40 -110 5 -11 20 -54 35 -95 33 -93 64 -179 75 -205 4 -11 13 -36 20 -55
7 -19 16 -44 20 -55 11 -26 79 -212 92 -250 10 -29 19 -52 37 -97 11 -26 44
-120 67 -188 8 -25 19 -54 23 -65 5 -11 14 -36 21 -55 7 -19 16 -44 21 -55 4
-11 15 -40 23 -65 8 -25 31 -88 51 -140 20 -52 43 -115 51 -140 8 -25 19 -55
25 -67 23 -57 29 -73 58 -153 63 -181 83 -236 91 -255 5 -11 16 -40 24 -65 8
-25 31 -88 51 -140 20 -52 43 -115 51 -140 8 -25 19 -54 24 -65 8 -19 23 -61
70 -190 12 -33 36 -96 52 -140 16 -44 36 -100 44 -125 8 -25 19 -54 24 -65 5
-11 14 -38 21 -60 7 -22 16 -45 20 -50 13 -18 56 -154 51 -160 -3 -2 -32 32
-66 78 -33 45 -119 161 -190 257 -217 293 -290 391 -354 480 -35 47 -91 123
-127 170 -35 47 -99 133 -142 191 -43 58 -145 197 -228 308 -82 112 -203 276
-269 365 -135 183 -182 247 -194 261 -9 11 -115 155 -315 425 -75 102 -193
262 -262 355 -70 94 -132 171 -140 173 -8 2 -34 -8 -59 -22 -26 -14 -67 -38
-93 -52 -27 -15 -59 -35 -73 -44 -14 -9 -50 -31 -80 -47 -30 -17 -149 -86
-265 -153 -115 -68 -239 -140 -275 -160 -36 -20 -110 -63 -165 -95 -55 -32
-114 -66 -131 -76 -38 -21 -252 -146 -416 -242 -65 -37 -118 -73 -118 -80 0
-6 514 -525 1142 -1154 1460 -1461 2199 -2205 2194 -2210 -4 -5 -120 61 -1256
712 -344 197 -674 386 -735 420 -150 85 -160 91 -320 182 -77 44 -156 90 -175
100 -19 11 -186 107 -370 213 -351 202 -402 230 -420 230 -7 0 -10 -394 -10
-1279 l0 -1280 139 -153 c399 -441 955 -948 1372 -1251 13 -9 69 -50 124 -90
117 -86 352 -247 360 -247 4 0 32 -17 63 -39 307 -207 904 -493 1287 -615 137
-44 196 -60 348 -96 242 -57 508 -92 710 -92 140 0 407 22 459 38 9 2 42 9 75
15 32 6 76 15 98 19 22 5 63 13 90 18 44 9 154 37 240 62 400 114 910 348
1345 617 123 76 367 238 456 303 34 25 97 71 141 103 44 32 89 65 99 75 11 9
49 39 84 67 374 285 970 847 1270 1196 l60 70 0 1279 c0 952 -3 1280 -11 1280
-7 0 -79 -39 -162 -86 -82 -47 -165 -94 -183 -105 -19 -10 -51 -29 -71 -40
-21 -12 -58 -33 -83 -47 -74 -42 -361 -207 -418 -241 -29 -17 -55 -31 -58 -31
-3 0 -18 -8 -32 -19 -15 -10 -63 -38 -107 -61 -44 -24 -87 -49 -96 -56 -8 -8
-18 -14 -21 -14 -4 0 -51 -25 -105 -56 -54 -31 -123 -70 -153 -87 -30 -16 -66
-38 -80 -47 -14 -9 -54 -33 -90 -52 -36 -19 -130 -73 -210 -120 -80 -47 -150
-87 -155 -89 -6 -2 -42 -23 -80 -45 -95 -56 -482 -278 -578 -331 -43 -24 -167
-94 -275 -157 -302 -173 -315 -180 -311 -168 2 6 751 761 1664 1678 913 916
1661 1672 1663 1679 2 10 -67 65 -82 65 -2 0 -33 17 -67 38 -35 22 -84 50
-109 64 -61 34 -90 51 -265 153 -82 48 -170 99 -195 113 -25 13 -49 28 -55 32
-5 5 -37 23 -70 40 -33 18 -67 39 -76 46 -8 8 -18 14 -22 14 -3 0 -30 14 -59
32 -138 82 -600 348 -605 348 -3 0 -17 9 -32 19 -15 11 -32 17 -37 13 -9 -6
-182 -237 -271 -362 -21 -28 -134 -180 -146 -195 -6 -8 -222 -300 -351 -475
-66 -89 -302 -408 -396 -535 -53 -71 -136 -184 -185 -250 -49 -66 -139 -187
-200 -270 -61 -82 -179 -241 -261 -351 -82 -111 -221 -298 -309 -417 -151
-203 -188 -240 -150 -150 9 21 23 58 31 83 8 25 19 54 23 65 5 11 14 36 21 55
7 19 16 44 20 55 5 11 20 52 34 90 14 39 37 102 51 140 15 39 33 90 41 115 8
25 19 54 24 65 8 18 42 111 102 275 11 30 24 64 29 75 4 11 24 65 43 120 18
55 39 114 46 130 7 17 16 39 21 50 4 11 17 49 29 85 12 36 25 74 30 85 7 18
22 58 102 275 11 30 24 64 28 75 4 11 13 34 18 50 16 45 83 227 92 250 5 11
18 49 30 85 12 36 25 74 30 85 5 11 16 43 26 70 9 28 21 54 26 59 4 6 8 20 8
31 0 12 3 25 7 28 6 7 30 70 59 157 8 25 19 54 23 65 5 11 14 34 21 50 12 30
84 226 100 275 5 14 29 79 53 145 25 66 53 143 62 170 10 28 21 59 26 70 30
77 49 138 44 144 -4 8 -88 60 -177 110 -57 32 -94 53 -198 113 -52 31 -113 66
-135 79 -22 12 -88 51 -148 86 -59 35 -112 63 -117 63 -6 0 -10 5 -10 10 0 6
-4 10 -10 10 -5 0 -31 13 -57 29 -98 58 -396 231 -483 279 -25 13 -49 28 -55
32 -5 4 -28 18 -50 30 -57 32 -219 127 -293 172 -73 44 -85 46 -132 16z"/>
    </g>
  </g>
</g>

<!-- ===== RING - Battle-worn resistance ===== -->
<g clip-path="url(#clipRing)">
  <rect x="0" y="0" width="25000" height="25000" fill="url(#ringRes)"/>
  <rect x="0" y="0" width="25000" height="25000" filter="url(#battleTex)"/>
  
  <g mask="url(#cloudMask)" opacity="0.4">
    <rect x="0" y="0" width="25000" height="25000" fill="#040102"/>
  </g>
  
  <rect x="0" y="0" width="25000" height="25000" fill="url(#scratchPattern)" filter="url(#scratchGlow)"/>
  
  <circle cx="12500" cy="12500" r="11550" fill="none" stroke="#200808" stroke-width="120" opacity="0.5"/>
  <circle cx="12500" cy="12500" r="10300" fill="none" stroke="#200808" stroke-width="120" opacity="0.5"/>
  <circle cx="12500" cy="12500" r="11610" fill="none" stroke="#802828" stroke-width="12" opacity="0.5"/>
  <circle cx="12500" cy="12500" r="11490" fill="none" stroke="#802828" stroke-width="12" opacity="0.5"/>
  <circle cx="12500" cy="12500" r="10360" fill="none" stroke="#802828" stroke-width="12" opacity="0.5"/>
  <circle cx="12500" cy="12500" r="10240" fill="none" stroke="#802828" stroke-width="12" opacity="0.5"/>
  
  <!-- Resistance star accents -->
  <circle cx="12500" cy="1575" r="120" fill="#c04040" stroke="#802828" stroke-width="15" opacity="0.7"/>
  <circle cx="12500" cy="23425" r="120" fill="#c04040" stroke="#802828" stroke-width="15" opacity="0.7"/>
  <circle cx="1575" cy="12500" r="120" fill="#701818" stroke="#802828" stroke-width="15" opacity="0.7"/>
  <circle cx="23425" cy="12500" r="120" fill="#701818" stroke="#802828" stroke-width="15" opacity="0.7"/>
  <circle cx="4793" cy="4793" r="100" fill="#c04040" stroke="#802828" stroke-width="12" opacity="0.6"/>
  <circle cx="20207" cy="4793" r="100" fill="#c04040" stroke="#802828" stroke-width="12" opacity="0.6"/>
  <circle cx="4793" cy="20207" r="100" fill="#701818" stroke="#802828" stroke-width="12" opacity="0.6"/>
  <circle cx="20207" cy="20207" r="100" fill="#701818" stroke="#802828" stroke-width="12" opacity="0.6"/>
  
  <rect x="0" y="0" width="25000" height="25000" fill="url(#ringShine)"/>
</g>

<!-- Ring borders -->
<circle cx="12500" cy="12500" r="11650" fill="none" stroke="#040102" stroke-opacity="0.5" stroke-width="60"/>
<circle cx="12500" cy="12500" r="10200" fill="none" stroke="#040102" stroke-opacity="0.5" stroke-width="60"/>
<circle cx="12500" cy="12500" r="11650" fill="none" stroke="#802828" stroke-width="25"/>
<circle cx="12500" cy="12500" r="10200" fill="none" stroke="#802828" stroke-width="25"/>

<!-- ===== RESISTANCE ENERGY GLOWS ===== -->
<circle cx="12500" cy="850" r="600" fill="url(#engineGlow)" filter="url(#engineBlur)"/>
<circle cx="12500" cy="850" r="400" fill="#e08060" opacity="0" filter="url(#engineBlur)" style="animation:resPulse 3s ease-in-out 0.0s infinite"/>
<circle cx="20207" cy="4793" r="600" fill="url(#engineGlow)" filter="url(#engineBlur)"/>
<circle cx="20207" cy="4793" r="400" fill="#e08060" opacity="0" filter="url(#engineBlur)" style="animation:resPulse 3s ease-in-out 0.4s infinite"/>
<circle cx="23400" cy="12500" r="600" fill="url(#engineGlow)" filter="url(#engineBlur)"/>
<circle cx="23400" cy="12500" r="400" fill="#e08060" opacity="0" filter="url(#engineBlur)" style="animation:resPulse 3s ease-in-out 0.8s infinite"/>
<circle cx="20207" cy="20207" r="600" fill="url(#engineGlow)" filter="url(#engineBlur)"/>
<circle cx="20207" cy="20207" r="400" fill="#e08060" opacity="0" filter="url(#engineBlur)" style="animation:resPulse 3s ease-in-out 1.2s infinite"/>
<circle cx="12500" cy="24150" r="600" fill="url(#engineGlow)" filter="url(#engineBlur)"/>
<circle cx="12500" cy="24150" r="400" fill="#e08060" opacity="0" filter="url(#engineBlur)" style="animation:resPulse 3s ease-in-out 1.5s infinite"/>
<circle cx="4793" cy="20207" r="600" fill="url(#engineGlow)" filter="url(#engineBlur)"/>
<circle cx="4793" cy="20207" r="400" fill="#e08060" opacity="0" filter="url(#engineBlur)" style="animation:resPulse 3s ease-in-out 1.9s infinite"/>
<circle cx="1600" cy="12500" r="600" fill="url(#engineGlow)" filter="url(#engineBlur)"/>
<circle cx="1600" cy="12500" r="400" fill="#e08060" opacity="0" filter="url(#engineBlur)" style="animation:resPulse 3s ease-in-out 2.3s infinite"/>
<circle cx="4793" cy="4793" r="600" fill="url(#engineGlow)" filter="url(#engineBlur)"/>
<circle cx="4793" cy="4793" r="400" fill="#e08060" opacity="0" filter="url(#engineBlur)" style="animation:resPulse 3s ease-in-out 2.6s infinite"/>

<!-- ===== CHISELED TEXT ===== -->
<text font-family="'Helvetica Neue',Helvetica,Arial,sans-serif" font-size="520" font-weight="900" fill="#d06040" text-anchor="middle" filter="url(#chiselText)">
  <textPath xlink:href="#textTop" startOffset="50%" textLength="15000" lengthAdjust="spacing">MAQUIS</textPath>
</text>
<text font-family="'Helvetica Neue',Helvetica,Arial,sans-serif" font-size="520" font-weight="900" fill="#d06040" text-anchor="middle" filter="url(#chiselText)">
  <textPath xlink:href="#textBot" startOffset="50%" textLength="23500" lengthAdjust="spacing">RESISTANCE CELLS</textPath>
</text>

</svg>
