<?xml version="1.0" encoding="UTF-8"?>
<svg xmlns="http://www.w3.org/2000/svg" xmlns:xlink="http://www.w3.org/1999/xlink" width="700" height="700" viewBox="0 0 25000 25000">
<defs>
  <!-- Background: bio-organic void -->
  <radialGradient id="nebulaBg" cx="50%" cy="50%" r="55%">
    <stop offset="0%" stop-color="#081808"/>
    <stop offset="60%" stop-color="#040a04"/>
    <stop offset="100%" stop-color="#020602"/>
  </radialGradient>
  <radialGradient id="neb1" cx="35%" cy="40%" r="45%">
    <stop offset="0%" stop-color="#0a1a08" stop-opacity="0.4"/>
    <stop offset="100%" stop-color="transparent"/>
  </radialGradient>
  <radialGradient id="neb2" cx="65%" cy="55%" r="40%">
    <stop offset="0%" stop-color="#081a06" stop-opacity="0.35"/>
    <stop offset="100%" stop-color="transparent"/>
  </radialGradient>
  <radialGradient id="neb3" cx="45%" cy="65%" r="35%">
    <stop offset="0%" stop-color="#102010" stop-opacity="0.25"/>
    <stop offset="100%" stop-color="transparent"/>
  </radialGradient>
  
  <!-- Bio-organic metallic -->
  <linearGradient id="bioMetal" x1="20%" y1="0%" x2="80%" y2="100%">
    <stop offset="0%" stop-color="#78c858"/>
    <stop offset="20%" stop-color="#50a838"/>
    <stop offset="40%" stop-color="#68b848"/>
    <stop offset="55%" stop-color="#408828"/>
    <stop offset="75%" stop-color="#60b040"/>
    <stop offset="100%" stop-color="#308018"/>
  </linearGradient>
  
  <linearGradient id="metalHL" x1="30%" y1="0%" x2="70%" y2="100%">
    <stop offset="0%" stop-color="#fff" stop-opacity="0.35"/>
    <stop offset="30%" stop-color="#fff" stop-opacity="0.08"/>
    <stop offset="60%" stop-color="#fff" stop-opacity="0"/>
    <stop offset="100%" stop-color="#000" stop-opacity="0.2"/>
  </linearGradient>
  
  <radialGradient id="coreGlow" cx="48%" cy="45%" r="35%">
    <stop offset="0%" stop-color="#80d060" stop-opacity="0.4"/>
    <stop offset="50%" stop-color="#306828" stop-opacity="0.15"/>
    <stop offset="100%" stop-color="#040a04" stop-opacity="0"/>
  </radialGradient>
  
  <filter id="shadow" x="-10%" y="-10%" width="130%" height="130%">
    <feGaussianBlur stdDeviation="80" result="blur"/>
    <feComposite operator="in" in="blur" in2="SourceGraphic"/>
  </filter>
  
  <filter id="chiselText" x="-5%" y="-5%" width="110%" height="110%">
    <feGaussianBlur stdDeviation="8" result="blur"/>
    <feSpecularLighting in="blur" surfaceScale="3" specularConstant="0.6" specularExponent="25" result="spec">
      <fePointLight x="12500" y="5000" z="5000"/>
    </feSpecularLighting>
    <feComposite operator="in" in="spec" in2="SourceGraphic" result="specIn"/>
    <feMerge><feMergeNode in="SourceGraphic"/><feMergeNode in="specIn"/></feMerge>
  </filter>
  
  <filter id="bioGlow" x="-20%" y="-20%" width="140%" height="140%">
    <feGaussianBlur stdDeviation="60" result="glow"/>
    <feMerge><feMergeNode in="glow"/><feMergeNode in="glow"/><feMergeNode in="SourceGraphic"/></feMerge>
  </filter>
  
  <filter id="metal3D" x="-5%" y="-5%" width="110%" height="110%">
    <feGaussianBlur stdDeviation="15" result="blur"/>
    <feSpecularLighting in="blur" surfaceScale="6" specularConstant="0.8" specularExponent="35" result="spec">
      <fePointLight x="8000" y="4000" z="8000"/>
    </feSpecularLighting>
    <feComposite operator="in" in="spec" in2="SourceGraphic" result="specIn"/>
    <feComposite operator="arithmetic" k1="0" k2="1" k3="0.4" k4="0" in="SourceGraphic" in2="specIn"/>
  </filter>

  <filter id="edgeGlow" x="-5%" y="-5%" width="110%" height="110%">
    <feGaussianBlur stdDeviation="30" result="glow"/>
    <feMerge><feMergeNode in="glow"/><feMergeNode in="SourceGraphic"/></feMerge>
  </filter>

  <!-- Ring: bio-organic tissue -->
  <linearGradient id="ringBio" x1="0%" y1="0%" x2="100%" y2="100%">
    <stop offset="0%" stop-color="#020602"/>
    <stop offset="25%" stop-color="#081408"/>
    <stop offset="50%" stop-color="#040a04"/>
    <stop offset="75%" stop-color="#081408"/>
    <stop offset="100%" stop-color="#020602"/>
  </linearGradient>
  
  <filter id="tissueTex" x="0%" y="0%" width="100%" height="100%">
    <feTurbulence type="fractalNoise" baseFrequency="0.008" numOctaves="5" seed="84"/>
    <feColorMatrix type="saturate" values="0"/>
    <feComponentTransfer><feFuncA type="linear" slope="0.12" intercept="0"/></feComponentTransfer>
    <feComposite operator="in" in2="SourceGraphic"/>
  </filter>
  
  <!-- Bio-organic vein pattern -->
  <pattern id="bioVeins" x="0" y="0" width="1200" height="1200" patternUnits="userSpaceOnUse">
    <rect width="1200" height="1200" fill="none"/>
    <path d="M100,300 Q350,100 600,300 T1100,300" fill="none" stroke="#306020" stroke-width="6" opacity="0.2"/>
    <path d="M100,600 Q400,400 700,600 T1100,600" fill="none" stroke="#408030" stroke-width="5" opacity="0.15"/>
    <path d="M100,900 Q300,700 600,900 T1100,900" fill="none" stroke="#285018" stroke-width="7" opacity="0.12"/>
    <circle cx="350" cy="300" r="15" fill="#508040" opacity="0.2"/>
    <circle cx="700" cy="600" r="12" fill="#60a048" opacity="0.18"/>
  </pattern>
  
  <filter id="veinGlow" x="-10%" y="-10%" width="120%" height="120%">
    <feGaussianBlur stdDeviation="15" result="glow"/>
    <feMerge><feMergeNode in="glow"/><feMergeNode in="SourceGraphic"/></feMerge>
  </filter>

  <filter id="cloudNoiseFilter">
    <feTurbulence type="fractalNoise" baseFrequency="0.00028" numOctaves="4" seed="84" result="noise"/>
    <feGaussianBlur stdDeviation="100" result="blurredNoise"/>
    <feComponentTransfer in="blurredNoise"><feFuncA type="table" tableValues="0 0 1 1"/></feComponentTransfer>
  </filter>
  <mask id="cloudMask"><rect width="25000" height="25000" filter="url(#cloudNoiseFilter)"/></mask>

  <clipPath id="clipFrame"><circle cx="12500" cy="12500" r="10200"/></clipPath>
  <clipPath id="clipRing">
    <path d="M12500,850 A11650,11650 0 1,1 12499.9,850 Z M12500,2300 A10200,10200 0 1,0 12500.1,2300 Z" clip-rule="evenodd"/>
  </clipPath>
  <path id="textTop" d="M 1650,12500 A 10850,10850 0 0,1 23350,12500" fill="none"/>
  <path id="textBot" d="M 1550,12500 A 10950,10950 0 1,0 23450,12500" fill="none"/>
  
  <radialGradient id="engineGlow" cx="50%" cy="50%" r="50%">
    <stop offset="0%" stop-color="#80d060" stop-opacity="0.8"/>
    <stop offset="50%" stop-color="#80d060" stop-opacity="0.3"/>
    <stop offset="100%" stop-color="#80d060" stop-opacity="0"/>
  </radialGradient>
  
  <filter id="engineBlur"><feGaussianBlur stdDeviation="120"/></filter>
  
  <linearGradient id="ringShine" x1="0" y1="0" x2="0" y2="100%">
    <stop offset="0%" stop-color="#fff" stop-opacity="0.08"/>
    <stop offset="50%" stop-color="#fff" stop-opacity="0"/>
    <stop offset="100%" stop-color="#000" stop-opacity="0.1"/>
  </linearGradient>
  
  <style>
    @keyframes bioPulse { 0%,100% { opacity:0; } 50% { opacity:0.6; } }
  </style>
</defs>

<!-- ===== INNER AREA ===== -->
<g clip-path="url(#clipFrame)">
  <circle cx="12500" cy="12500" r="10200" fill="url(#nebulaBg)"/>
  <rect x="0" y="0" width="25000" height="25000" fill="url(#neb1)"/>
  <rect x="0" y="0" width="25000" height="25000" fill="url(#neb2)"/>
  <rect x="0" y="0" width="25000" height="25000" fill="url(#neb3)"/>
  
<circle cx="20272" cy="18675" r="61" fill="rgba(62,125,43,0.95)" />
<circle cx="4479" cy="20306" r="22" fill="rgba(55,110,91,0.57)" />
<circle cx="16766" cy="14613" r="34" fill="rgba(67,134,93,0.55)" />
<circle cx="17159" cy="17657" r="16" fill="rgba(76,153,58,0.62)" />
<circle cx="9006" cy="6691" r="41" fill="rgba(44,89,48,0.97)" />
<circle cx="10024" cy="12510" r="71" fill="rgba(69,138,64,0.80)" />
<circle cx="13728" cy="18509" r="23" fill="rgba(47,94,59,0.76)" />
<circle cx="15367" cy="7512" r="18" fill="rgba(82,165,54,0.60)" />
<circle cx="3004" cy="12376" r="44" fill="rgba(59,118,81,0.80)" />
<circle cx="6156" cy="22288" r="34" fill="rgba(61,123,45,0.95)" />
<circle cx="7657" cy="20711" r="35" fill="rgba(48,97,91,0.75)" />
<circle cx="16098" cy="21366" r="30" fill="rgba(52,104,65,0.51)" />
<circle cx="19069" cy="10689" r="73" fill="rgba(51,103,85,0.84)" />
<circle cx="8301" cy="6921" r="48" fill="rgba(61,123,62,0.60)" />
<circle cx="17437" cy="20280" r="27" fill="rgba(51,103,84,0.52)" />
<circle cx="10535" cy="3470" r="62" fill="rgba(43,86,61,0.66)" />
<circle cx="8493" cy="22095" r="45" fill="rgba(65,130,90,0.74)" />
<circle cx="12079" cy="9348" r="61" fill="rgba(53,106,75,0.75)" />
<circle cx="16573" cy="19876" r="74" fill="rgba(85,170,61,0.94)" />
<circle cx="5272" cy="14883" r="72" fill="rgba(83,167,48,0.67)" />
<circle cx="13416" cy="6114" r="31" fill="rgba(63,127,58,0.84)" />
<circle cx="8747" cy="12355" r="46" fill="rgba(84,169,83,0.86)" />
<circle cx="16873" cy="19926" r="54" fill="rgba(81,162,97,0.83)" />
<circle cx="10052" cy="15900" r="55" fill="rgba(59,118,60,0.64)" />
<circle cx="17927" cy="19241" r="38" fill="rgba(59,118,78,0.52)" />

  <circle cx="12500" cy="12500" r="10200" fill="url(#coreGlow)"/>

  <!-- Shadow -->
  <g transform="translate(5500,18354) scale(1.1076,-1.1076)">
    <g fill="#000" stroke="none" opacity="0.35" filter="url(#shadow)">
<path d="M6250 9595 c-94 -15 -158 -31 -212 -51 -78 -29 -270 -127 -275 -141
-3 -7 -10 -13 -16 -13 -34 0 -256 -205 -373 -344 -27 -32 -54 -64 -59 -70 -6
-6 -28 -33 -49 -61 -22 -27 -121 -131 -221 -230 -200 -199 -346 -315 -555
-444 -74 -45 -155 -98 -180 -116 -25 -19 -49 -34 -53 -34 -5 -1 -14 -7 -21
-13 -7 -7 -32 -29 -56 -48 -99 -79 -140 -117 -246 -223 -103 -105 -259 -290
-285 -340 -7 -12 -30 -45 -51 -73 -21 -28 -38 -54 -38 -58 0 -4 -15 -31 -34
-59 -65 -100 -160 -283 -261 -502 -56 -123 -73 -156 -129 -250 -32 -55 -59
-106 -59 -112 0 -7 -3 -13 -7 -13 -4 0 -27 -28 -51 -62 -24 -35 -53 -73 -64
-84 -11 -12 -40 -45 -65 -74 -149 -174 -316 -295 -540 -393 -78 -34 -170 -59
-295 -80 l-70 -12 38 -22 c21 -13 42 -23 48 -23 5 0 55 -30 111 -67 173 -114
316 -266 430 -458 50 -84 178 -373 178 -402 0 -7 4 -21 9 -31 5 -9 15 -37 21
-62 7 -25 23 -76 35 -115 12 -38 32 -104 45 -145 12 -41 26 -84 31 -95 4 -11
20 -56 35 -100 15 -44 35 -98 45 -119 11 -22 19 -44 19 -49 0 -17 141 -334
192 -432 50 -96 92 -172 107 -195 9 -14 23 -38 31 -55 8 -16 17 -32 20 -35 3
-3 10 -12 15 -21 141 -225 259 -373 445 -559 145 -146 225 -209 485 -385 274
-186 414 -295 546 -425 173 -171 218 -235 312 -440 51 -111 128 -266 149 -301
140 -227 316 -396 513 -493 154 -76 248 -101 435 -115 342 -26 627 45 850 212
108 80 263 256 347 392 12 19 132 262 176 355 79 168 202 321 396 494 75 67
307 237 481 351 492 324 804 696 1113 1327 37 76 67 142 67 146 0 5 6 22 14
38 15 32 44 99 56 129 4 11 12 31 18 45 34 80 184 538 212 645 20 77 91 249
143 350 6 11 20 38 32 60 49 95 149 229 233 314 103 104 205 177 355 254 32
16 55 32 52 35 -3 3 -26 7 -53 8 -60 3 -199 39 -287 74 -123 49 -296 149 -360
207 -11 10 -47 40 -79 67 -52 44 -211 221 -243 272 -7 10 -31 45 -53 76 -22
31 -40 60 -40 64 0 4 -6 15 -14 23 -15 16 -136 255 -176 346 -103 234 -259
504 -399 690 -202 269 -414 469 -664 630 -262 169 -395 260 -456 313 -36 31
-79 68 -96 82 -73 60 -310 306 -404 420 -223 272 -392 418 -596 515 -161 77
-188 86 -344 110 -110 17 -206 17 -311 0z m-640 -701 c0 -8 -7 -17 -15 -20 -8
-4 -15 -14 -15 -23 0 -9 -4 -21 -8 -26 -7 -9 -45 -97 -67 -160 -45 -124 -72
-420 -56 -619 11 -130 23 -233 36 -291 12 -56 26 -120 35 -155 12 -46 80 -269
90 -295 83 -214 184 -432 269 -580 22 -38 49 -90 60 -115 12 -25 25 -52 31
-60 15 -24 120 -239 120 -248 0 -5 9 -26 20 -49 34 -70 72 -242 65 -293 -4
-25 -12 -48 -18 -52 -7 -4 -320 -8 -696 -8 -389 0 -699 -4 -720 -9 -20 -5 -63
-15 -96 -21 -174 -35 -405 -143 -605 -284 -130 -92 -399 -336 -400 -362 0 -8
132 -144 214 -220 42 -38 185 -147 260 -196 109 -72 331 -181 411 -203 233
-64 247 -65 974 -65 531 0 652 -2 663 -13 28 -28 3 -206 -44 -317 -6 -14 -14
-34 -18 -45 -13 -36 -169 -347 -225 -450 -93 -170 -191 -376 -232 -485 -13
-36 -28 -74 -33 -85 -23 -51 -108 -349 -121 -425 -25 -147 -30 -186 -40 -332
-14 -198 -1 -380 39 -553 36 -156 140 -355 239 -460 49 -52 166 -145 223 -178
158 -90 417 -128 630 -93 116 20 128 24 262 90 266 132 450 411 509 771 27
160 21 504 -11 665 -43 215 -53 253 -110 426 -16 50 -30 99 -30 108 0 9 -3 16
-8 16 -4 0 -13 19 -20 42 -7 22 -27 71 -44 107 -16 36 -37 82 -45 101 -25 60
-128 257 -197 380 -50 88 -186 369 -186 384 0 7 -4 16 -9 21 -31 34 -64 282
-41 310 11 13 90 15 639 15 585 0 635 1 739 20 234 42 395 100 606 219 142 80
380 265 495 386 l55 57 -90 87 c-111 108 -203 188 -257 223 -23 15 -60 41 -83
58 -23 16 -46 30 -51 30 -6 0 -16 7 -23 15 -21 25 -285 151 -387 185 -51 17
-148 42 -215 55 -123 25 -123 25 -768 25 -489 0 -649 3 -658 12 -14 14 -16
128 -3 172 5 17 16 54 24 81 42 140 154 378 271 575 67 113 222 455 262 580 8
25 19 54 23 65 5 11 14 40 21 65 7 25 16 56 21 70 18 52 51 187 60 245 26 161
32 235 32 420 0 204 -6 289 -24 360 -6 22 -15 58 -21 80 -6 22 -17 54 -24 72
-8 17 -14 36 -14 41 0 6 -18 46 -40 89 -22 42 -39 82 -37 88 4 11 55 -38 107
-105 33 -41 88 -105 135 -156 11 -12 45 -48 75 -80 69 -74 184 -181 336 -314
56 -49 231 -178 414 -304 262 -182 306 -222 462 -416 113 -140 219 -301 308
-465 17 -33 35 -64 40 -70 26 -35 290 -586 290 -606 0 -5 4 -17 9 -27 18 -34
40 -88 61 -152 12 -36 26 -74 31 -85 12 -27 40 -132 46 -172 3 -18 9 -33 13
-33 4 0 10 -17 13 -37 3 -21 14 -83 25 -138 30 -151 41 -226 53 -392 18 -229
-5 -541 -56 -773 -9 -41 -19 -92 -22 -113 -3 -20 -9 -40 -14 -43 -5 -3 -9 -15
-9 -26 0 -23 -17 -81 -31 -110 -5 -10 -9 -29 -9 -42 0 -14 -4 -28 -10 -31 -5
-3 -10 -14 -10 -24 0 -38 -143 -385 -233 -566 -140 -282 -339 -566 -532 -761
-107 -108 -163 -155 -310 -259 -272 -193 -487 -388 -661 -600 -43 -53 -165
-226 -201 -285 -24 -40 -122 -235 -148 -295 -116 -269 -230 -429 -385 -543
-62 -45 -189 -112 -213 -112 -9 0 -18 -4 -21 -9 -6 -8 -14 -10 -166 -36 -141
-24 -332 -17 -465 17 -65 17 -197 70 -240 96 -126 78 -246 203 -327 343 -43
72 -51 88 -99 194 -65 145 -106 228 -155 313 -30 51 -54 95 -54 98 0 2 -6 12
-14 21 -8 10 -48 63 -89 118 -98 131 -199 243 -322 357 -130 121 -339 289
-437 351 -125 79 -311 259 -465 447 -53 66 -213 302 -213 315 0 2 -15 28 -33
57 -32 50 -187 359 -187 372 0 3 -9 26 -20 51 -48 108 -58 133 -75 185 -10 30
-21 59 -26 65 -5 5 -9 17 -9 27 0 10 -4 26 -9 36 -5 9 -14 35 -20 57 -6 22
-19 69 -30 105 -29 101 -42 156 -63 270 -38 204 -43 272 -42 565 1 347 12 450
80 710 20 77 38 152 41 168 3 15 9 30 14 33 5 3 9 16 9 29 0 13 5 27 10 30 6
3 10 15 10 26 0 10 8 38 19 62 10 23 29 67 41 97 12 30 33 80 47 110 13 30 36
82 51 115 31 70 219 443 250 498 12 20 32 54 43 75 12 20 45 74 75 120 30 45
54 85 54 87 0 9 73 109 138 190 116 143 257 272 414 378 80 54 152 104 158
112 7 8 17 15 22 15 10 0 80 50 142 102 22 18 55 44 75 57 20 14 43 33 52 43
9 10 20 18 23 18 4 0 13 6 20 13 7 6 54 49 103 95 126 115 290 283 364 372 34
41 65 77 68 80 4 3 18 21 31 40 13 19 29 38 34 42 13 9 26 0 26 -18z"/>
    </g>
  </g>

  <!-- Bio glow underneath -->
  <g transform="translate(5500,18354) scale(1.1076,-1.1076)">
    <g fill="#50a030" stroke="none" opacity="0.5" filter="url(#bioGlow)">
<path d="M6250 9595 c-94 -15 -158 -31 -212 -51 -78 -29 -270 -127 -275 -141
-3 -7 -10 -13 -16 -13 -34 0 -256 -205 -373 -344 -27 -32 -54 -64 -59 -70 -6
-6 -28 -33 -49 -61 -22 -27 -121 -131 -221 -230 -200 -199 -346 -315 -555
-444 -74 -45 -155 -98 -180 -116 -25 -19 -49 -34 -53 -34 -5 -1 -14 -7 -21
-13 -7 -7 -32 -29 -56 -48 -99 -79 -140 -117 -246 -223 -103 -105 -259 -290
-285 -340 -7 -12 -30 -45 -51 -73 -21 -28 -38 -54 -38 -58 0 -4 -15 -31 -34
-59 -65 -100 -160 -283 -261 -502 -56 -123 -73 -156 -129 -250 -32 -55 -59
-106 -59 -112 0 -7 -3 -13 -7 -13 -4 0 -27 -28 -51 -62 -24 -35 -53 -73 -64
-84 -11 -12 -40 -45 -65 -74 -149 -174 -316 -295 -540 -393 -78 -34 -170 -59
-295 -80 l-70 -12 38 -22 c21 -13 42 -23 48 -23 5 0 55 -30 111 -67 173 -114
316 -266 430 -458 50 -84 178 -373 178 -402 0 -7 4 -21 9 -31 5 -9 15 -37 21
-62 7 -25 23 -76 35 -115 12 -38 32 -104 45 -145 12 -41 26 -84 31 -95 4 -11
20 -56 35 -100 15 -44 35 -98 45 -119 11 -22 19 -44 19 -49 0 -17 141 -334
192 -432 50 -96 92 -172 107 -195 9 -14 23 -38 31 -55 8 -16 17 -32 20 -35 3
-3 10 -12 15 -21 141 -225 259 -373 445 -559 145 -146 225 -209 485 -385 274
-186 414 -295 546 -425 173 -171 218 -235 312 -440 51 -111 128 -266 149 -301
140 -227 316 -396 513 -493 154 -76 248 -101 435 -115 342 -26 627 45 850 212
108 80 263 256 347 392 12 19 132 262 176 355 79 168 202 321 396 494 75 67
307 237 481 351 492 324 804 696 1113 1327 37 76 67 142 67 146 0 5 6 22 14
38 15 32 44 99 56 129 4 11 12 31 18 45 34 80 184 538 212 645 20 77 91 249
143 350 6 11 20 38 32 60 49 95 149 229 233 314 103 104 205 177 355 254 32
16 55 32 52 35 -3 3 -26 7 -53 8 -60 3 -199 39 -287 74 -123 49 -296 149 -360
207 -11 10 -47 40 -79 67 -52 44 -211 221 -243 272 -7 10 -31 45 -53 76 -22
31 -40 60 -40 64 0 4 -6 15 -14 23 -15 16 -136 255 -176 346 -103 234 -259
504 -399 690 -202 269 -414 469 -664 630 -262 169 -395 260 -456 313 -36 31
-79 68 -96 82 -73 60 -310 306 -404 420 -223 272 -392 418 -596 515 -161 77
-188 86 -344 110 -110 17 -206 17 -311 0z m-640 -701 c0 -8 -7 -17 -15 -20 -8
-4 -15 -14 -15 -23 0 -9 -4 -21 -8 -26 -7 -9 -45 -97 -67 -160 -45 -124 -72
-420 -56 -619 11 -130 23 -233 36 -291 12 -56 26 -120 35 -155 12 -46 80 -269
90 -295 83 -214 184 -432 269 -580 22 -38 49 -90 60 -115 12 -25 25 -52 31
-60 15 -24 120 -239 120 -248 0 -5 9 -26 20 -49 34 -70 72 -242 65 -293 -4
-25 -12 -48 -18 -52 -7 -4 -320 -8 -696 -8 -389 0 -699 -4 -720 -9 -20 -5 -63
-15 -96 -21 -174 -35 -405 -143 -605 -284 -130 -92 -399 -336 -400 -362 0 -8
132 -144 214 -220 42 -38 185 -147 260 -196 109 -72 331 -181 411 -203 233
-64 247 -65 974 -65 531 0 652 -2 663 -13 28 -28 3 -206 -44 -317 -6 -14 -14
-34 -18 -45 -13 -36 -169 -347 -225 -450 -93 -170 -191 -376 -232 -485 -13
-36 -28 -74 -33 -85 -23 -51 -108 -349 -121 -425 -25 -147 -30 -186 -40 -332
-14 -198 -1 -380 39 -553 36 -156 140 -355 239 -460 49 -52 166 -145 223 -178
158 -90 417 -128 630 -93 116 20 128 24 262 90 266 132 450 411 509 771 27
160 21 504 -11 665 -43 215 -53 253 -110 426 -16 50 -30 99 -30 108 0 9 -3 16
-8 16 -4 0 -13 19 -20 42 -7 22 -27 71 -44 107 -16 36 -37 82 -45 101 -25 60
-128 257 -197 380 -50 88 -186 369 -186 384 0 7 -4 16 -9 21 -31 34 -64 282
-41 310 11 13 90 15 639 15 585 0 635 1 739 20 234 42 395 100 606 219 142 80
380 265 495 386 l55 57 -90 87 c-111 108 -203 188 -257 223 -23 15 -60 41 -83
58 -23 16 -46 30 -51 30 -6 0 -16 7 -23 15 -21 25 -285 151 -387 185 -51 17
-148 42 -215 55 -123 25 -123 25 -768 25 -489 0 -649 3 -658 12 -14 14 -16
128 -3 172 5 17 16 54 24 81 42 140 154 378 271 575 67 113 222 455 262 580 8
25 19 54 23 65 5 11 14 40 21 65 7 25 16 56 21 70 18 52 51 187 60 245 26 161
32 235 32 420 0 204 -6 289 -24 360 -6 22 -15 58 -21 80 -6 22 -17 54 -24 72
-8 17 -14 36 -14 41 0 6 -18 46 -40 89 -22 42 -39 82 -37 88 4 11 55 -38 107
-105 33 -41 88 -105 135 -156 11 -12 45 -48 75 -80 69 -74 184 -181 336 -314
56 -49 231 -178 414 -304 262 -182 306 -222 462 -416 113 -140 219 -301 308
-465 17 -33 35 -64 40 -70 26 -35 290 -586 290 -606 0 -5 4 -17 9 -27 18 -34
40 -88 61 -152 12 -36 26 -74 31 -85 12 -27 40 -132 46 -172 3 -18 9 -33 13
-33 4 0 10 -17 13 -37 3 -21 14 -83 25 -138 30 -151 41 -226 53 -392 18 -229
-5 -541 -56 -773 -9 -41 -19 -92 -22 -113 -3 -20 -9 -40 -14 -43 -5 -3 -9 -15
-9 -26 0 -23 -17 -81 -31 -110 -5 -10 -9 -29 -9 -42 0 -14 -4 -28 -10 -31 -5
-3 -10 -14 -10 -24 0 -38 -143 -385 -233 -566 -140 -282 -339 -566 -532 -761
-107 -108 -163 -155 -310 -259 -272 -193 -487 -388 -661 -600 -43 -53 -165
-226 -201 -285 -24 -40 -122 -235 -148 -295 -116 -269 -230 -429 -385 -543
-62 -45 -189 -112 -213 -112 -9 0 -18 -4 -21 -9 -6 -8 -14 -10 -166 -36 -141
-24 -332 -17 -465 17 -65 17 -197 70 -240 96 -126 78 -246 203 -327 343 -43
72 -51 88 -99 194 -65 145 -106 228 -155 313 -30 51 -54 95 -54 98 0 2 -6 12
-14 21 -8 10 -48 63 -89 118 -98 131 -199 243 -322 357 -130 121 -339 289
-437 351 -125 79 -311 259 -465 447 -53 66 -213 302 -213 315 0 2 -15 28 -33
57 -32 50 -187 359 -187 372 0 3 -9 26 -20 51 -48 108 -58 133 -75 185 -10 30
-21 59 -26 65 -5 5 -9 17 -9 27 0 10 -4 26 -9 36 -5 9 -14 35 -20 57 -6 22
-19 69 -30 105 -29 101 -42 156 -63 270 -38 204 -43 272 -42 565 1 347 12 450
80 710 20 77 38 152 41 168 3 15 9 30 14 33 5 3 9 16 9 29 0 13 5 27 10 30 6
3 10 15 10 26 0 10 8 38 19 62 10 23 29 67 41 97 12 30 33 80 47 110 13 30 36
82 51 115 31 70 219 443 250 498 12 20 32 54 43 75 12 20 45 74 75 120 30 45
54 85 54 87 0 9 73 109 138 190 116 143 257 272 414 378 80 54 152 104 158
112 7 8 17 15 22 15 10 0 80 50 142 102 22 18 55 44 75 57 20 14 43 33 52 43
9 10 20 18 23 18 4 0 13 6 20 13 7 6 54 49 103 95 126 115 290 283 364 372 34
41 65 77 68 80 4 3 18 21 31 40 13 19 29 38 34 42 13 9 26 0 26 -18z"/>
    </g>
  </g>

  <!-- Main metallic body -->
  <g transform="translate(5500,18354) scale(1.1076,-1.1076)">
    <g fill="url(#bioMetal)" stroke="none">
<path d="M6250 9595 c-94 -15 -158 -31 -212 -51 -78 -29 -270 -127 -275 -141
-3 -7 -10 -13 -16 -13 -34 0 -256 -205 -373 -344 -27 -32 -54 -64 -59 -70 -6
-6 -28 -33 -49 -61 -22 -27 -121 -131 -221 -230 -200 -199 -346 -315 -555
-444 -74 -45 -155 -98 -180 -116 -25 -19 -49 -34 -53 -34 -5 -1 -14 -7 -21
-13 -7 -7 -32 -29 -56 -48 -99 -79 -140 -117 -246 -223 -103 -105 -259 -290
-285 -340 -7 -12 -30 -45 -51 -73 -21 -28 -38 -54 -38 -58 0 -4 -15 -31 -34
-59 -65 -100 -160 -283 -261 -502 -56 -123 -73 -156 -129 -250 -32 -55 -59
-106 -59 -112 0 -7 -3 -13 -7 -13 -4 0 -27 -28 -51 -62 -24 -35 -53 -73 -64
-84 -11 -12 -40 -45 -65 -74 -149 -174 -316 -295 -540 -393 -78 -34 -170 -59
-295 -80 l-70 -12 38 -22 c21 -13 42 -23 48 -23 5 0 55 -30 111 -67 173 -114
316 -266 430 -458 50 -84 178 -373 178 -402 0 -7 4 -21 9 -31 5 -9 15 -37 21
-62 7 -25 23 -76 35 -115 12 -38 32 -104 45 -145 12 -41 26 -84 31 -95 4 -11
20 -56 35 -100 15 -44 35 -98 45 -119 11 -22 19 -44 19 -49 0 -17 141 -334
192 -432 50 -96 92 -172 107 -195 9 -14 23 -38 31 -55 8 -16 17 -32 20 -35 3
-3 10 -12 15 -21 141 -225 259 -373 445 -559 145 -146 225 -209 485 -385 274
-186 414 -295 546 -425 173 -171 218 -235 312 -440 51 -111 128 -266 149 -301
140 -227 316 -396 513 -493 154 -76 248 -101 435 -115 342 -26 627 45 850 212
108 80 263 256 347 392 12 19 132 262 176 355 79 168 202 321 396 494 75 67
307 237 481 351 492 324 804 696 1113 1327 37 76 67 142 67 146 0 5 6 22 14
38 15 32 44 99 56 129 4 11 12 31 18 45 34 80 184 538 212 645 20 77 91 249
143 350 6 11 20 38 32 60 49 95 149 229 233 314 103 104 205 177 355 254 32
16 55 32 52 35 -3 3 -26 7 -53 8 -60 3 -199 39 -287 74 -123 49 -296 149 -360
207 -11 10 -47 40 -79 67 -52 44 -211 221 -243 272 -7 10 -31 45 -53 76 -22
31 -40 60 -40 64 0 4 -6 15 -14 23 -15 16 -136 255 -176 346 -103 234 -259
504 -399 690 -202 269 -414 469 -664 630 -262 169 -395 260 -456 313 -36 31
-79 68 -96 82 -73 60 -310 306 -404 420 -223 272 -392 418 -596 515 -161 77
-188 86 -344 110 -110 17 -206 17 -311 0z m-640 -701 c0 -8 -7 -17 -15 -20 -8
-4 -15 -14 -15 -23 0 -9 -4 -21 -8 -26 -7 -9 -45 -97 -67 -160 -45 -124 -72
-420 -56 -619 11 -130 23 -233 36 -291 12 -56 26 -120 35 -155 12 -46 80 -269
90 -295 83 -214 184 -432 269 -580 22 -38 49 -90 60 -115 12 -25 25 -52 31
-60 15 -24 120 -239 120 -248 0 -5 9 -26 20 -49 34 -70 72 -242 65 -293 -4
-25 -12 -48 -18 -52 -7 -4 -320 -8 -696 -8 -389 0 -699 -4 -720 -9 -20 -5 -63
-15 -96 -21 -174 -35 -405 -143 -605 -284 -130 -92 -399 -336 -400 -362 0 -8
132 -144 214 -220 42 -38 185 -147 260 -196 109 -72 331 -181 411 -203 233
-64 247 -65 974 -65 531 0 652 -2 663 -13 28 -28 3 -206 -44 -317 -6 -14 -14
-34 -18 -45 -13 -36 -169 -347 -225 -450 -93 -170 -191 -376 -232 -485 -13
-36 -28 -74 -33 -85 -23 -51 -108 -349 -121 -425 -25 -147 -30 -186 -40 -332
-14 -198 -1 -380 39 -553 36 -156 140 -355 239 -460 49 -52 166 -145 223 -178
158 -90 417 -128 630 -93 116 20 128 24 262 90 266 132 450 411 509 771 27
160 21 504 -11 665 -43 215 -53 253 -110 426 -16 50 -30 99 -30 108 0 9 -3 16
-8 16 -4 0 -13 19 -20 42 -7 22 -27 71 -44 107 -16 36 -37 82 -45 101 -25 60
-128 257 -197 380 -50 88 -186 369 -186 384 0 7 -4 16 -9 21 -31 34 -64 282
-41 310 11 13 90 15 639 15 585 0 635 1 739 20 234 42 395 100 606 219 142 80
380 265 495 386 l55 57 -90 87 c-111 108 -203 188 -257 223 -23 15 -60 41 -83
58 -23 16 -46 30 -51 30 -6 0 -16 7 -23 15 -21 25 -285 151 -387 185 -51 17
-148 42 -215 55 -123 25 -123 25 -768 25 -489 0 -649 3 -658 12 -14 14 -16
128 -3 172 5 17 16 54 24 81 42 140 154 378 271 575 67 113 222 455 262 580 8
25 19 54 23 65 5 11 14 40 21 65 7 25 16 56 21 70 18 52 51 187 60 245 26 161
32 235 32 420 0 204 -6 289 -24 360 -6 22 -15 58 -21 80 -6 22 -17 54 -24 72
-8 17 -14 36 -14 41 0 6 -18 46 -40 89 -22 42 -39 82 -37 88 4 11 55 -38 107
-105 33 -41 88 -105 135 -156 11 -12 45 -48 75 -80 69 -74 184 -181 336 -314
56 -49 231 -178 414 -304 262 -182 306 -222 462 -416 113 -140 219 -301 308
-465 17 -33 35 -64 40 -70 26 -35 290 -586 290 -606 0 -5 4 -17 9 -27 18 -34
40 -88 61 -152 12 -36 26 -74 31 -85 12 -27 40 -132 46 -172 3 -18 9 -33 13
-33 4 0 10 -17 13 -37 3 -21 14 -83 25 -138 30 -151 41 -226 53 -392 18 -229
-5 -541 -56 -773 -9 -41 -19 -92 -22 -113 -3 -20 -9 -40 -14 -43 -5 -3 -9 -15
-9 -26 0 -23 -17 -81 -31 -110 -5 -10 -9 -29 -9 -42 0 -14 -4 -28 -10 -31 -5
-3 -10 -14 -10 -24 0 -38 -143 -385 -233 -566 -140 -282 -339 -566 -532 -761
-107 -108 -163 -155 -310 -259 -272 -193 -487 -388 -661 -600 -43 -53 -165
-226 -201 -285 -24 -40 -122 -235 -148 -295 -116 -269 -230 -429 -385 -543
-62 -45 -189 -112 -213 -112 -9 0 -18 -4 -21 -9 -6 -8 -14 -10 -166 -36 -141
-24 -332 -17 -465 17 -65 17 -197 70 -240 96 -126 78 -246 203 -327 343 -43
72 -51 88 -99 194 -65 145 -106 228 -155 313 -30 51 -54 95 -54 98 0 2 -6 12
-14 21 -8 10 -48 63 -89 118 -98 131 -199 243 -322 357 -130 121 -339 289
-437 351 -125 79 -311 259 -465 447 -53 66 -213 302 -213 315 0 2 -15 28 -33
57 -32 50 -187 359 -187 372 0 3 -9 26 -20 51 -48 108 -58 133 -75 185 -10 30
-21 59 -26 65 -5 5 -9 17 -9 27 0 10 -4 26 -9 36 -5 9 -14 35 -20 57 -6 22
-19 69 -30 105 -29 101 -42 156 -63 270 -38 204 -43 272 -42 565 1 347 12 450
80 710 20 77 38 152 41 168 3 15 9 30 14 33 5 3 9 16 9 29 0 13 5 27 10 30 6
3 10 15 10 26 0 10 8 38 19 62 10 23 29 67 41 97 12 30 33 80 47 110 13 30 36
82 51 115 31 70 219 443 250 498 12 20 32 54 43 75 12 20 45 74 75 120 30 45
54 85 54 87 0 9 73 109 138 190 116 143 257 272 414 378 80 54 152 104 158
112 7 8 17 15 22 15 10 0 80 50 142 102 22 18 55 44 75 57 20 14 43 33 52 43
9 10 20 18 23 18 4 0 13 6 20 13 7 6 54 49 103 95 126 115 290 283 364 372 34
41 65 77 68 80 4 3 18 21 31 40 13 19 29 38 34 42 13 9 26 0 26 -18z"/>
    </g>
  </g>

  <!-- 3D lighting -->
  <g transform="translate(5500,18354) scale(1.1076,-1.1076)">
    <g fill="url(#metalHL)" stroke="none">
<path d="M6250 9595 c-94 -15 -158 -31 -212 -51 -78 -29 -270 -127 -275 -141
-3 -7 -10 -13 -16 -13 -34 0 -256 -205 -373 -344 -27 -32 -54 -64 -59 -70 -6
-6 -28 -33 -49 -61 -22 -27 -121 -131 -221 -230 -200 -199 -346 -315 -555
-444 -74 -45 -155 -98 -180 -116 -25 -19 -49 -34 -53 -34 -5 -1 -14 -7 -21
-13 -7 -7 -32 -29 -56 -48 -99 -79 -140 -117 -246 -223 -103 -105 -259 -290
-285 -340 -7 -12 -30 -45 -51 -73 -21 -28 -38 -54 -38 -58 0 -4 -15 -31 -34
-59 -65 -100 -160 -283 -261 -502 -56 -123 -73 -156 -129 -250 -32 -55 -59
-106 -59 -112 0 -7 -3 -13 -7 -13 -4 0 -27 -28 -51 -62 -24 -35 -53 -73 -64
-84 -11 -12 -40 -45 -65 -74 -149 -174 -316 -295 -540 -393 -78 -34 -170 -59
-295 -80 l-70 -12 38 -22 c21 -13 42 -23 48 -23 5 0 55 -30 111 -67 173 -114
316 -266 430 -458 50 -84 178 -373 178 -402 0 -7 4 -21 9 -31 5 -9 15 -37 21
-62 7 -25 23 -76 35 -115 12 -38 32 -104 45 -145 12 -41 26 -84 31 -95 4 -11
20 -56 35 -100 15 -44 35 -98 45 -119 11 -22 19 -44 19 -49 0 -17 141 -334
192 -432 50 -96 92 -172 107 -195 9 -14 23 -38 31 -55 8 -16 17 -32 20 -35 3
-3 10 -12 15 -21 141 -225 259 -373 445 -559 145 -146 225 -209 485 -385 274
-186 414 -295 546 -425 173 -171 218 -235 312 -440 51 -111 128 -266 149 -301
140 -227 316 -396 513 -493 154 -76 248 -101 435 -115 342 -26 627 45 850 212
108 80 263 256 347 392 12 19 132 262 176 355 79 168 202 321 396 494 75 67
307 237 481 351 492 324 804 696 1113 1327 37 76 67 142 67 146 0 5 6 22 14
38 15 32 44 99 56 129 4 11 12 31 18 45 34 80 184 538 212 645 20 77 91 249
143 350 6 11 20 38 32 60 49 95 149 229 233 314 103 104 205 177 355 254 32
16 55 32 52 35 -3 3 -26 7 -53 8 -60 3 -199 39 -287 74 -123 49 -296 149 -360
207 -11 10 -47 40 -79 67 -52 44 -211 221 -243 272 -7 10 -31 45 -53 76 -22
31 -40 60 -40 64 0 4 -6 15 -14 23 -15 16 -136 255 -176 346 -103 234 -259
504 -399 690 -202 269 -414 469 -664 630 -262 169 -395 260 -456 313 -36 31
-79 68 -96 82 -73 60 -310 306 -404 420 -223 272 -392 418 -596 515 -161 77
-188 86 -344 110 -110 17 -206 17 -311 0z m-640 -701 c0 -8 -7 -17 -15 -20 -8
-4 -15 -14 -15 -23 0 -9 -4 -21 -8 -26 -7 -9 -45 -97 -67 -160 -45 -124 -72
-420 -56 -619 11 -130 23 -233 36 -291 12 -56 26 -120 35 -155 12 -46 80 -269
90 -295 83 -214 184 -432 269 -580 22 -38 49 -90 60 -115 12 -25 25 -52 31
-60 15 -24 120 -239 120 -248 0 -5 9 -26 20 -49 34 -70 72 -242 65 -293 -4
-25 -12 -48 -18 -52 -7 -4 -320 -8 -696 -8 -389 0 -699 -4 -720 -9 -20 -5 -63
-15 -96 -21 -174 -35 -405 -143 -605 -284 -130 -92 -399 -336 -400 -362 0 -8
132 -144 214 -220 42 -38 185 -147 260 -196 109 -72 331 -181 411 -203 233
-64 247 -65 974 -65 531 0 652 -2 663 -13 28 -28 3 -206 -44 -317 -6 -14 -14
-34 -18 -45 -13 -36 -169 -347 -225 -450 -93 -170 -191 -376 -232 -485 -13
-36 -28 -74 -33 -85 -23 -51 -108 -349 -121 -425 -25 -147 -30 -186 -40 -332
-14 -198 -1 -380 39 -553 36 -156 140 -355 239 -460 49 -52 166 -145 223 -178
158 -90 417 -128 630 -93 116 20 128 24 262 90 266 132 450 411 509 771 27
160 21 504 -11 665 -43 215 -53 253 -110 426 -16 50 -30 99 -30 108 0 9 -3 16
-8 16 -4 0 -13 19 -20 42 -7 22 -27 71 -44 107 -16 36 -37 82 -45 101 -25 60
-128 257 -197 380 -50 88 -186 369 -186 384 0 7 -4 16 -9 21 -31 34 -64 282
-41 310 11 13 90 15 639 15 585 0 635 1 739 20 234 42 395 100 606 219 142 80
380 265 495 386 l55 57 -90 87 c-111 108 -203 188 -257 223 -23 15 -60 41 -83
58 -23 16 -46 30 -51 30 -6 0 -16 7 -23 15 -21 25 -285 151 -387 185 -51 17
-148 42 -215 55 -123 25 -123 25 -768 25 -489 0 -649 3 -658 12 -14 14 -16
128 -3 172 5 17 16 54 24 81 42 140 154 378 271 575 67 113 222 455 262 580 8
25 19 54 23 65 5 11 14 40 21 65 7 25 16 56 21 70 18 52 51 187 60 245 26 161
32 235 32 420 0 204 -6 289 -24 360 -6 22 -15 58 -21 80 -6 22 -17 54 -24 72
-8 17 -14 36 -14 41 0 6 -18 46 -40 89 -22 42 -39 82 -37 88 4 11 55 -38 107
-105 33 -41 88 -105 135 -156 11 -12 45 -48 75 -80 69 -74 184 -181 336 -314
56 -49 231 -178 414 -304 262 -182 306 -222 462 -416 113 -140 219 -301 308
-465 17 -33 35 -64 40 -70 26 -35 290 -586 290 -606 0 -5 4 -17 9 -27 18 -34
40 -88 61 -152 12 -36 26 -74 31 -85 12 -27 40 -132 46 -172 3 -18 9 -33 13
-33 4 0 10 -17 13 -37 3 -21 14 -83 25 -138 30 -151 41 -226 53 -392 18 -229
-5 -541 -56 -773 -9 -41 -19 -92 -22 -113 -3 -20 -9 -40 -14 -43 -5 -3 -9 -15
-9 -26 0 -23 -17 -81 -31 -110 -5 -10 -9 -29 -9 -42 0 -14 -4 -28 -10 -31 -5
-3 -10 -14 -10 -24 0 -38 -143 -385 -233 -566 -140 -282 -339 -566 -532 -761
-107 -108 -163 -155 -310 -259 -272 -193 -487 -388 -661 -600 -43 -53 -165
-226 -201 -285 -24 -40 -122 -235 -148 -295 -116 -269 -230 -429 -385 -543
-62 -45 -189 -112 -213 -112 -9 0 -18 -4 -21 -9 -6 -8 -14 -10 -166 -36 -141
-24 -332 -17 -465 17 -65 17 -197 70 -240 96 -126 78 -246 203 -327 343 -43
72 -51 88 -99 194 -65 145 -106 228 -155 313 -30 51 -54 95 -54 98 0 2 -6 12
-14 21 -8 10 -48 63 -89 118 -98 131 -199 243 -322 357 -130 121 -339 289
-437 351 -125 79 -311 259 -465 447 -53 66 -213 302 -213 315 0 2 -15 28 -33
57 -32 50 -187 359 -187 372 0 3 -9 26 -20 51 -48 108 -58 133 -75 185 -10 30
-21 59 -26 65 -5 5 -9 17 -9 27 0 10 -4 26 -9 36 -5 9 -14 35 -20 57 -6 22
-19 69 -30 105 -29 101 -42 156 -63 270 -38 204 -43 272 -42 565 1 347 12 450
80 710 20 77 38 152 41 168 3 15 9 30 14 33 5 3 9 16 9 29 0 13 5 27 10 30 6
3 10 15 10 26 0 10 8 38 19 62 10 23 29 67 41 97 12 30 33 80 47 110 13 30 36
82 51 115 31 70 219 443 250 498 12 20 32 54 43 75 12 20 45 74 75 120 30 45
54 85 54 87 0 9 73 109 138 190 116 143 257 272 414 378 80 54 152 104 158
112 7 8 17 15 22 15 10 0 80 50 142 102 22 18 55 44 75 57 20 14 43 33 52 43
9 10 20 18 23 18 4 0 13 6 20 13 7 6 54 49 103 95 126 115 290 283 364 372 34
41 65 77 68 80 4 3 18 21 31 40 13 19 29 38 34 42 13 9 26 0 26 -18z"/>
    </g>
  </g>

  <!-- Specular -->
  <g transform="translate(5500,18354) scale(1.1076,-1.1076)">
    <g fill="url(#bioMetal)" stroke="none" filter="url(#metal3D)" opacity="0.6">
<path d="M6250 9595 c-94 -15 -158 -31 -212 -51 -78 -29 -270 -127 -275 -141
-3 -7 -10 -13 -16 -13 -34 0 -256 -205 -373 -344 -27 -32 -54 -64 -59 -70 -6
-6 -28 -33 -49 -61 -22 -27 -121 -131 -221 -230 -200 -199 -346 -315 -555
-444 -74 -45 -155 -98 -180 -116 -25 -19 -49 -34 -53 -34 -5 -1 -14 -7 -21
-13 -7 -7 -32 -29 -56 -48 -99 -79 -140 -117 -246 -223 -103 -105 -259 -290
-285 -340 -7 -12 -30 -45 -51 -73 -21 -28 -38 -54 -38 -58 0 -4 -15 -31 -34
-59 -65 -100 -160 -283 -261 -502 -56 -123 -73 -156 -129 -250 -32 -55 -59
-106 -59 -112 0 -7 -3 -13 -7 -13 -4 0 -27 -28 -51 -62 -24 -35 -53 -73 -64
-84 -11 -12 -40 -45 -65 -74 -149 -174 -316 -295 -540 -393 -78 -34 -170 -59
-295 -80 l-70 -12 38 -22 c21 -13 42 -23 48 -23 5 0 55 -30 111 -67 173 -114
316 -266 430 -458 50 -84 178 -373 178 -402 0 -7 4 -21 9 -31 5 -9 15 -37 21
-62 7 -25 23 -76 35 -115 12 -38 32 -104 45 -145 12 -41 26 -84 31 -95 4 -11
20 -56 35 -100 15 -44 35 -98 45 -119 11 -22 19 -44 19 -49 0 -17 141 -334
192 -432 50 -96 92 -172 107 -195 9 -14 23 -38 31 -55 8 -16 17 -32 20 -35 3
-3 10 -12 15 -21 141 -225 259 -373 445 -559 145 -146 225 -209 485 -385 274
-186 414 -295 546 -425 173 -171 218 -235 312 -440 51 -111 128 -266 149 -301
140 -227 316 -396 513 -493 154 -76 248 -101 435 -115 342 -26 627 45 850 212
108 80 263 256 347 392 12 19 132 262 176 355 79 168 202 321 396 494 75 67
307 237 481 351 492 324 804 696 1113 1327 37 76 67 142 67 146 0 5 6 22 14
38 15 32 44 99 56 129 4 11 12 31 18 45 34 80 184 538 212 645 20 77 91 249
143 350 6 11 20 38 32 60 49 95 149 229 233 314 103 104 205 177 355 254 32
16 55 32 52 35 -3 3 -26 7 -53 8 -60 3 -199 39 -287 74 -123 49 -296 149 -360
207 -11 10 -47 40 -79 67 -52 44 -211 221 -243 272 -7 10 -31 45 -53 76 -22
31 -40 60 -40 64 0 4 -6 15 -14 23 -15 16 -136 255 -176 346 -103 234 -259
504 -399 690 -202 269 -414 469 -664 630 -262 169 -395 260 -456 313 -36 31
-79 68 -96 82 -73 60 -310 306 -404 420 -223 272 -392 418 -596 515 -161 77
-188 86 -344 110 -110 17 -206 17 -311 0z m-640 -701 c0 -8 -7 -17 -15 -20 -8
-4 -15 -14 -15 -23 0 -9 -4 -21 -8 -26 -7 -9 -45 -97 -67 -160 -45 -124 -72
-420 -56 -619 11 -130 23 -233 36 -291 12 -56 26 -120 35 -155 12 -46 80 -269
90 -295 83 -214 184 -432 269 -580 22 -38 49 -90 60 -115 12 -25 25 -52 31
-60 15 -24 120 -239 120 -248 0 -5 9 -26 20 -49 34 -70 72 -242 65 -293 -4
-25 -12 -48 -18 -52 -7 -4 -320 -8 -696 -8 -389 0 -699 -4 -720 -9 -20 -5 -63
-15 -96 -21 -174 -35 -405 -143 -605 -284 -130 -92 -399 -336 -400 -362 0 -8
132 -144 214 -220 42 -38 185 -147 260 -196 109 -72 331 -181 411 -203 233
-64 247 -65 974 -65 531 0 652 -2 663 -13 28 -28 3 -206 -44 -317 -6 -14 -14
-34 -18 -45 -13 -36 -169 -347 -225 -450 -93 -170 -191 -376 -232 -485 -13
-36 -28 -74 -33 -85 -23 -51 -108 -349 -121 -425 -25 -147 -30 -186 -40 -332
-14 -198 -1 -380 39 -553 36 -156 140 -355 239 -460 49 -52 166 -145 223 -178
158 -90 417 -128 630 -93 116 20 128 24 262 90 266 132 450 411 509 771 27
160 21 504 -11 665 -43 215 -53 253 -110 426 -16 50 -30 99 -30 108 0 9 -3 16
-8 16 -4 0 -13 19 -20 42 -7 22 -27 71 -44 107 -16 36 -37 82 -45 101 -25 60
-128 257 -197 380 -50 88 -186 369 -186 384 0 7 -4 16 -9 21 -31 34 -64 282
-41 310 11 13 90 15 639 15 585 0 635 1 739 20 234 42 395 100 606 219 142 80
380 265 495 386 l55 57 -90 87 c-111 108 -203 188 -257 223 -23 15 -60 41 -83
58 -23 16 -46 30 -51 30 -6 0 -16 7 -23 15 -21 25 -285 151 -387 185 -51 17
-148 42 -215 55 -123 25 -123 25 -768 25 -489 0 -649 3 -658 12 -14 14 -16
128 -3 172 5 17 16 54 24 81 42 140 154 378 271 575 67 113 222 455 262 580 8
25 19 54 23 65 5 11 14 40 21 65 7 25 16 56 21 70 18 52 51 187 60 245 26 161
32 235 32 420 0 204 -6 289 -24 360 -6 22 -15 58 -21 80 -6 22 -17 54 -24 72
-8 17 -14 36 -14 41 0 6 -18 46 -40 89 -22 42 -39 82 -37 88 4 11 55 -38 107
-105 33 -41 88 -105 135 -156 11 -12 45 -48 75 -80 69 -74 184 -181 336 -314
56 -49 231 -178 414 -304 262 -182 306 -222 462 -416 113 -140 219 -301 308
-465 17 -33 35 -64 40 -70 26 -35 290 -586 290 -606 0 -5 4 -17 9 -27 18 -34
40 -88 61 -152 12 -36 26 -74 31 -85 12 -27 40 -132 46 -172 3 -18 9 -33 13
-33 4 0 10 -17 13 -37 3 -21 14 -83 25 -138 30 -151 41 -226 53 -392 18 -229
-5 -541 -56 -773 -9 -41 -19 -92 -22 -113 -3 -20 -9 -40 -14 -43 -5 -3 -9 -15
-9 -26 0 -23 -17 -81 -31 -110 -5 -10 -9 -29 -9 -42 0 -14 -4 -28 -10 -31 -5
-3 -10 -14 -10 -24 0 -38 -143 -385 -233 -566 -140 -282 -339 -566 -532 -761
-107 -108 -163 -155 -310 -259 -272 -193 -487 -388 -661 -600 -43 -53 -165
-226 -201 -285 -24 -40 -122 -235 -148 -295 -116 -269 -230 -429 -385 -543
-62 -45 -189 -112 -213 -112 -9 0 -18 -4 -21 -9 -6 -8 -14 -10 -166 -36 -141
-24 -332 -17 -465 17 -65 17 -197 70 -240 96 -126 78 -246 203 -327 343 -43
72 -51 88 -99 194 -65 145 -106 228 -155 313 -30 51 -54 95 -54 98 0 2 -6 12
-14 21 -8 10 -48 63 -89 118 -98 131 -199 243 -322 357 -130 121 -339 289
-437 351 -125 79 -311 259 -465 447 -53 66 -213 302 -213 315 0 2 -15 28 -33
57 -32 50 -187 359 -187 372 0 3 -9 26 -20 51 -48 108 -58 133 -75 185 -10 30
-21 59 -26 65 -5 5 -9 17 -9 27 0 10 -4 26 -9 36 -5 9 -14 35 -20 57 -6 22
-19 69 -30 105 -29 101 -42 156 -63 270 -38 204 -43 272 -42 565 1 347 12 450
80 710 20 77 38 152 41 168 3 15 9 30 14 33 5 3 9 16 9 29 0 13 5 27 10 30 6
3 10 15 10 26 0 10 8 38 19 62 10 23 29 67 41 97 12 30 33 80 47 110 13 30 36
82 51 115 31 70 219 443 250 498 12 20 32 54 43 75 12 20 45 74 75 120 30 45
54 85 54 87 0 9 73 109 138 190 116 143 257 272 414 378 80 54 152 104 158
112 7 8 17 15 22 15 10 0 80 50 142 102 22 18 55 44 75 57 20 14 43 33 52 43
9 10 20 18 23 18 4 0 13 6 20 13 7 6 54 49 103 95 126 115 290 283 364 372 34
41 65 77 68 80 4 3 18 21 31 40 13 19 29 38 34 42 13 9 26 0 26 -18z"/>
    </g>
  </g>

  <!-- Bio edge glow -->
  <g transform="translate(5500,18354) scale(1.1076,-1.1076)">
    <g fill="none" stroke="#a0e880" stroke-width="15" opacity="0.4" filter="url(#edgeGlow)">
<path d="M6250 9595 c-94 -15 -158 -31 -212 -51 -78 -29 -270 -127 -275 -141
-3 -7 -10 -13 -16 -13 -34 0 -256 -205 -373 -344 -27 -32 -54 -64 -59 -70 -6
-6 -28 -33 -49 -61 -22 -27 -121 -131 -221 -230 -200 -199 -346 -315 -555
-444 -74 -45 -155 -98 -180 -116 -25 -19 -49 -34 -53 -34 -5 -1 -14 -7 -21
-13 -7 -7 -32 -29 -56 -48 -99 -79 -140 -117 -246 -223 -103 -105 -259 -290
-285 -340 -7 -12 -30 -45 -51 -73 -21 -28 -38 -54 -38 -58 0 -4 -15 -31 -34
-59 -65 -100 -160 -283 -261 -502 -56 -123 -73 -156 -129 -250 -32 -55 -59
-106 -59 -112 0 -7 -3 -13 -7 -13 -4 0 -27 -28 -51 -62 -24 -35 -53 -73 -64
-84 -11 -12 -40 -45 -65 -74 -149 -174 -316 -295 -540 -393 -78 -34 -170 -59
-295 -80 l-70 -12 38 -22 c21 -13 42 -23 48 -23 5 0 55 -30 111 -67 173 -114
316 -266 430 -458 50 -84 178 -373 178 -402 0 -7 4 -21 9 -31 5 -9 15 -37 21
-62 7 -25 23 -76 35 -115 12 -38 32 -104 45 -145 12 -41 26 -84 31 -95 4 -11
20 -56 35 -100 15 -44 35 -98 45 -119 11 -22 19 -44 19 -49 0 -17 141 -334
192 -432 50 -96 92 -172 107 -195 9 -14 23 -38 31 -55 8 -16 17 -32 20 -35 3
-3 10 -12 15 -21 141 -225 259 -373 445 -559 145 -146 225 -209 485 -385 274
-186 414 -295 546 -425 173 -171 218 -235 312 -440 51 -111 128 -266 149 -301
140 -227 316 -396 513 -493 154 -76 248 -101 435 -115 342 -26 627 45 850 212
108 80 263 256 347 392 12 19 132 262 176 355 79 168 202 321 396 494 75 67
307 237 481 351 492 324 804 696 1113 1327 37 76 67 142 67 146 0 5 6 22 14
38 15 32 44 99 56 129 4 11 12 31 18 45 34 80 184 538 212 645 20 77 91 249
143 350 6 11 20 38 32 60 49 95 149 229 233 314 103 104 205 177 355 254 32
16 55 32 52 35 -3 3 -26 7 -53 8 -60 3 -199 39 -287 74 -123 49 -296 149 -360
207 -11 10 -47 40 -79 67 -52 44 -211 221 -243 272 -7 10 -31 45 -53 76 -22
31 -40 60 -40 64 0 4 -6 15 -14 23 -15 16 -136 255 -176 346 -103 234 -259
504 -399 690 -202 269 -414 469 -664 630 -262 169 -395 260 -456 313 -36 31
-79 68 -96 82 -73 60 -310 306 -404 420 -223 272 -392 418 -596 515 -161 77
-188 86 -344 110 -110 17 -206 17 -311 0z m-640 -701 c0 -8 -7 -17 -15 -20 -8
-4 -15 -14 -15 -23 0 -9 -4 -21 -8 -26 -7 -9 -45 -97 -67 -160 -45 -124 -72
-420 -56 -619 11 -130 23 -233 36 -291 12 -56 26 -120 35 -155 12 -46 80 -269
90 -295 83 -214 184 -432 269 -580 22 -38 49 -90 60 -115 12 -25 25 -52 31
-60 15 -24 120 -239 120 -248 0 -5 9 -26 20 -49 34 -70 72 -242 65 -293 -4
-25 -12 -48 -18 -52 -7 -4 -320 -8 -696 -8 -389 0 -699 -4 -720 -9 -20 -5 -63
-15 -96 -21 -174 -35 -405 -143 -605 -284 -130 -92 -399 -336 -400 -362 0 -8
132 -144 214 -220 42 -38 185 -147 260 -196 109 -72 331 -181 411 -203 233
-64 247 -65 974 -65 531 0 652 -2 663 -13 28 -28 3 -206 -44 -317 -6 -14 -14
-34 -18 -45 -13 -36 -169 -347 -225 -450 -93 -170 -191 -376 -232 -485 -13
-36 -28 -74 -33 -85 -23 -51 -108 -349 -121 -425 -25 -147 -30 -186 -40 -332
-14 -198 -1 -380 39 -553 36 -156 140 -355 239 -460 49 -52 166 -145 223 -178
158 -90 417 -128 630 -93 116 20 128 24 262 90 266 132 450 411 509 771 27
160 21 504 -11 665 -43 215 -53 253 -110 426 -16 50 -30 99 -30 108 0 9 -3 16
-8 16 -4 0 -13 19 -20 42 -7 22 -27 71 -44 107 -16 36 -37 82 -45 101 -25 60
-128 257 -197 380 -50 88 -186 369 -186 384 0 7 -4 16 -9 21 -31 34 -64 282
-41 310 11 13 90 15 639 15 585 0 635 1 739 20 234 42 395 100 606 219 142 80
380 265 495 386 l55 57 -90 87 c-111 108 -203 188 -257 223 -23 15 -60 41 -83
58 -23 16 -46 30 -51 30 -6 0 -16 7 -23 15 -21 25 -285 151 -387 185 -51 17
-148 42 -215 55 -123 25 -123 25 -768 25 -489 0 -649 3 -658 12 -14 14 -16
128 -3 172 5 17 16 54 24 81 42 140 154 378 271 575 67 113 222 455 262 580 8
25 19 54 23 65 5 11 14 40 21 65 7 25 16 56 21 70 18 52 51 187 60 245 26 161
32 235 32 420 0 204 -6 289 -24 360 -6 22 -15 58 -21 80 -6 22 -17 54 -24 72
-8 17 -14 36 -14 41 0 6 -18 46 -40 89 -22 42 -39 82 -37 88 4 11 55 -38 107
-105 33 -41 88 -105 135 -156 11 -12 45 -48 75 -80 69 -74 184 -181 336 -314
56 -49 231 -178 414 -304 262 -182 306 -222 462 -416 113 -140 219 -301 308
-465 17 -33 35 -64 40 -70 26 -35 290 -586 290 -606 0 -5 4 -17 9 -27 18 -34
40 -88 61 -152 12 -36 26 -74 31 -85 12 -27 40 -132 46 -172 3 -18 9 -33 13
-33 4 0 10 -17 13 -37 3 -21 14 -83 25 -138 30 -151 41 -226 53 -392 18 -229
-5 -541 -56 -773 -9 -41 -19 -92 -22 -113 -3 -20 -9 -40 -14 -43 -5 -3 -9 -15
-9 -26 0 -23 -17 -81 -31 -110 -5 -10 -9 -29 -9 -42 0 -14 -4 -28 -10 -31 -5
-3 -10 -14 -10 -24 0 -38 -143 -385 -233 -566 -140 -282 -339 -566 -532 -761
-107 -108 -163 -155 -310 -259 -272 -193 -487 -388 -661 -600 -43 -53 -165
-226 -201 -285 -24 -40 -122 -235 -148 -295 -116 -269 -230 -429 -385 -543
-62 -45 -189 -112 -213 -112 -9 0 -18 -4 -21 -9 -6 -8 -14 -10 -166 -36 -141
-24 -332 -17 -465 17 -65 17 -197 70 -240 96 -126 78 -246 203 -327 343 -43
72 -51 88 -99 194 -65 145 -106 228 -155 313 -30 51 -54 95 -54 98 0 2 -6 12
-14 21 -8 10 -48 63 -89 118 -98 131 -199 243 -322 357 -130 121 -339 289
-437 351 -125 79 -311 259 -465 447 -53 66 -213 302 -213 315 0 2 -15 28 -33
57 -32 50 -187 359 -187 372 0 3 -9 26 -20 51 -48 108 -58 133 -75 185 -10 30
-21 59 -26 65 -5 5 -9 17 -9 27 0 10 -4 26 -9 36 -5 9 -14 35 -20 57 -6 22
-19 69 -30 105 -29 101 -42 156 -63 270 -38 204 -43 272 -42 565 1 347 12 450
80 710 20 77 38 152 41 168 3 15 9 30 14 33 5 3 9 16 9 29 0 13 5 27 10 30 6
3 10 15 10 26 0 10 8 38 19 62 10 23 29 67 41 97 12 30 33 80 47 110 13 30 36
82 51 115 31 70 219 443 250 498 12 20 32 54 43 75 12 20 45 74 75 120 30 45
54 85 54 87 0 9 73 109 138 190 116 143 257 272 414 378 80 54 152 104 158
112 7 8 17 15 22 15 10 0 80 50 142 102 22 18 55 44 75 57 20 14 43 33 52 43
9 10 20 18 23 18 4 0 13 6 20 13 7 6 54 49 103 95 126 115 290 283 364 372 34
41 65 77 68 80 4 3 18 21 31 40 13 19 29 38 34 42 13 9 26 0 26 -18z"/>
    </g>
  </g>
</g>

<!-- ===== RING - Bio-organic tissue ===== -->
<g clip-path="url(#clipRing)">
  <rect x="0" y="0" width="25000" height="25000" fill="url(#ringBio)"/>
  <rect x="0" y="0" width="25000" height="25000" filter="url(#tissueTex)"/>
  
  <g mask="url(#cloudMask)" opacity="0.4">
    <rect x="0" y="0" width="25000" height="25000" fill="#020602"/>
  </g>
  
  <rect x="0" y="0" width="25000" height="25000" fill="url(#bioVeins)" filter="url(#veinGlow)"/>
  
  <circle cx="12500" cy="12500" r="11550" fill="none" stroke="#103010" stroke-width="120" opacity="0.5"/>
  <circle cx="12500" cy="12500" r="10300" fill="none" stroke="#103010" stroke-width="120" opacity="0.5"/>
  <circle cx="12500" cy="12500" r="11610" fill="none" stroke="#408030" stroke-width="12" opacity="0.5"/>
  <circle cx="12500" cy="12500" r="11490" fill="none" stroke="#408030" stroke-width="12" opacity="0.5"/>
  <circle cx="12500" cy="12500" r="10360" fill="none" stroke="#408030" stroke-width="12" opacity="0.5"/>
  <circle cx="12500" cy="12500" r="10240" fill="none" stroke="#408030" stroke-width="12" opacity="0.5"/>
  
  <!-- Bio-node accents -->
  <circle cx="12500" cy="1575" r="120" fill="#50a040" stroke="#408030" stroke-width="15" opacity="0.7"/>
  <circle cx="12500" cy="23425" r="120" fill="#50a040" stroke="#408030" stroke-width="15" opacity="0.7"/>
  <circle cx="1575" cy="12500" r="120" fill="#306020" stroke="#408030" stroke-width="15" opacity="0.7"/>
  <circle cx="23425" cy="12500" r="120" fill="#306020" stroke="#408030" stroke-width="15" opacity="0.7"/>
  <circle cx="4793" cy="4793" r="100" fill="#50a040" stroke="#408030" stroke-width="12" opacity="0.6"/>
  <circle cx="20207" cy="4793" r="100" fill="#50a040" stroke="#408030" stroke-width="12" opacity="0.6"/>
  <circle cx="4793" cy="20207" r="100" fill="#306020" stroke="#408030" stroke-width="12" opacity="0.6"/>
  <circle cx="20207" cy="20207" r="100" fill="#306020" stroke="#408030" stroke-width="12" opacity="0.6"/>
  
  <rect x="0" y="0" width="25000" height="25000" fill="url(#ringShine)"/>
</g>

<!-- Ring borders -->
<circle cx="12500" cy="12500" r="11650" fill="none" stroke="#020602" stroke-opacity="0.5" stroke-width="60"/>
<circle cx="12500" cy="12500" r="10200" fill="none" stroke="#020602" stroke-opacity="0.5" stroke-width="60"/>
<circle cx="12500" cy="12500" r="11650" fill="none" stroke="#408030" stroke-width="25"/>
<circle cx="12500" cy="12500" r="10200" fill="none" stroke="#408030" stroke-width="25"/>

<!-- ===== BIO ENERGY GLOWS ===== -->
<circle cx="12500" cy="850" r="600" fill="url(#engineGlow)" filter="url(#engineBlur)"/>
<circle cx="12500" cy="850" r="400" fill="#80d060" opacity="0" filter="url(#engineBlur)" style="animation:bioPulse 3s ease-in-out 0.0s infinite"/>
<circle cx="20207" cy="4793" r="600" fill="url(#engineGlow)" filter="url(#engineBlur)"/>
<circle cx="20207" cy="4793" r="400" fill="#80d060" opacity="0" filter="url(#engineBlur)" style="animation:bioPulse 3s ease-in-out 0.4s infinite"/>
<circle cx="23400" cy="12500" r="600" fill="url(#engineGlow)" filter="url(#engineBlur)"/>
<circle cx="23400" cy="12500" r="400" fill="#80d060" opacity="0" filter="url(#engineBlur)" style="animation:bioPulse 3s ease-in-out 0.8s infinite"/>
<circle cx="20207" cy="20207" r="600" fill="url(#engineGlow)" filter="url(#engineBlur)"/>
<circle cx="20207" cy="20207" r="400" fill="#80d060" opacity="0" filter="url(#engineBlur)" style="animation:bioPulse 3s ease-in-out 1.2s infinite"/>
<circle cx="12500" cy="24150" r="600" fill="url(#engineGlow)" filter="url(#engineBlur)"/>
<circle cx="12500" cy="24150" r="400" fill="#80d060" opacity="0" filter="url(#engineBlur)" style="animation:bioPulse 3s ease-in-out 1.5s infinite"/>
<circle cx="4793" cy="20207" r="600" fill="url(#engineGlow)" filter="url(#engineBlur)"/>
<circle cx="4793" cy="20207" r="400" fill="#80d060" opacity="0" filter="url(#engineBlur)" style="animation:bioPulse 3s ease-in-out 1.9s infinite"/>
<circle cx="1600" cy="12500" r="600" fill="url(#engineGlow)" filter="url(#engineBlur)"/>
<circle cx="1600" cy="12500" r="400" fill="#80d060" opacity="0" filter="url(#engineBlur)" style="animation:bioPulse 3s ease-in-out 2.3s infinite"/>
<circle cx="4793" cy="4793" r="600" fill="url(#engineGlow)" filter="url(#engineBlur)"/>
<circle cx="4793" cy="4793" r="400" fill="#80d060" opacity="0" filter="url(#engineBlur)" style="animation:bioPulse 3s ease-in-out 2.6s infinite"/>

<!-- ===== CHISELED TEXT ===== -->
<text font-family="'Helvetica Neue',Helvetica,Arial,sans-serif" font-size="520" font-weight="900" fill="#80c860" text-anchor="middle" filter="url(#chiselText)">
  <textPath xlink:href="#textTop" startOffset="50%" textLength="21000" lengthAdjust="spacing">SPECIES 8472</textPath>
</text>
<text font-family="'Helvetica Neue',Helvetica,Arial,sans-serif" font-size="520" font-weight="900" fill="#80c860" text-anchor="middle" filter="url(#chiselText)">
  <textPath xlink:href="#textBot" startOffset="50%" textLength="21000" lengthAdjust="spacing">FLUIDIC SPACE</textPath>
</text>

</svg>
