<?xml version="1.0" encoding="UTF-8"?>
<svg xmlns="http://www.w3.org/2000/svg" xmlns:xlink="http://www.w3.org/1999/xlink" width="700" height="700" viewBox="0 0 25000 25000">
<defs>
  <!-- Fabric noise texture -->
  <filter id="fabricNoise" x="0%" y="0%" width="100%" height="100%">
    <feTurbulence type="fractalNoise" baseFrequency="0.06" numOctaves="5" seed="42"/>
    <feColorMatrix type="saturate" values="0"/>
    <feComponentTransfer>
      <feFuncR type="linear" slope="0.10" intercept="0"/>
      <feFuncG type="linear" slope="0.07" intercept="0"/>
      <feFuncB type="linear" slope="0.04" intercept="0"/>
      <feFuncA type="linear" slope="0.30" intercept="0"/>
    </feComponentTransfer>
    <feComposite operator="in" in2="SourceGraphic"/>
  </filter>

  <!-- Fabric weave crosshatch -->
  <pattern id="weave" width="80" height="80" patternUnits="userSpaceOnUse">
    <rect width="80" height="80" fill="none"/>
    <line x1="0" y1="0" x2="80" y2="0" stroke="#1a0e06" stroke-width="2" opacity="0.2"/>
    <line x1="0" y1="40" x2="80" y2="40" stroke="#1a0e06" stroke-width="1.5" opacity="0.15"/>
    <line x1="0" y1="0" x2="0" y2="80" stroke="#1a0e06" stroke-width="2" opacity="0.2"/>
    <line x1="40" y1="0" x2="40" y2="80" stroke="#1a0e06" stroke-width="1.5" opacity="0.15"/>
  </pattern>

  <!-- Embroidery thread texture - subtle grain on stitched fills -->
  <filter id="threadGrain" x="-5%" y="-5%" width="110%" height="110%">
    <feTurbulence type="fractalNoise" baseFrequency="0.15" numOctaves="2" seed="7"/>
    <feColorMatrix type="saturate" values="0"/>
    <feComponentTransfer>
      <feFuncA type="linear" slope="0.12" intercept="0"/>
    </feComponentTransfer>
    <feComposite operator="in" in2="SourceGraphic"/>
  </filter>

  <clipPath id="clipInner"><circle cx="12500" cy="12500" r="10200"/></clipPath>
  <clipPath id="clipRing">
    <path d="M12500,850 A11650,11650 0 1,1 12499.9,850 Z M12500,2300 A10200,10200 0 1,0 12500.1,2300 Z" clip-rule="evenodd"/>
  </clipPath>

  <path id="sTextTop" d="M 1650,12500 A 10850,10850 0 0,1 23350,12500" fill="none"/>
  <path id="sTextBot" d="M 1550,12500 A 10950,10950 0 1,0 23450,12500" fill="none"/>
</defs>

<!-- ===== PATCH BACKGROUND ===== -->
<!-- Outer patch shape - slightly rounded dark brown felt -->
<circle cx="12500" cy="12500" r="11950" fill="#1a1008"/>
<circle cx="12500" cy="12500" r="11950" fill="url(#weave)"/>
<circle cx="12500" cy="12500" r="11950" filter="url(#fabricNoise)"/>

<!-- Outer border stitching - double row for that real patch look -->
<circle cx="12500" cy="12500" r="11870" fill="none" stroke="#b89050" stroke-width="50" stroke-dasharray="120,70" opacity="0.75"/>
<circle cx="12500" cy="12500" r="11750" fill="none" stroke="#907040" stroke-width="28" stroke-dasharray="90,55" opacity="0.55"/>

<!-- ===== RING BAND - fabric with stitched borders ===== -->
<g clip-path="url(#clipRing)">
  <rect x="0" y="0" width="25000" height="25000" fill="#5a4028"/>
  <rect x="0" y="0" width="25000" height="25000" fill="url(#weave)" opacity="0.7"/>
  <rect x="0" y="0" width="25000" height="25000" filter="url(#fabricNoise)"/>
</g>

<!-- Ring border stitching -->
<circle cx="12500" cy="12500" r="11650" fill="none" stroke="#c4a050" stroke-width="40" stroke-dasharray="80,50" opacity="0.75"/>
<circle cx="12500" cy="12500" r="10200" fill="none" stroke="#c4a050" stroke-width="40" stroke-dasharray="80,50" opacity="0.75"/>

<!-- ===== INNER AREA - dark fabric ===== -->
<g clip-path="url(#clipInner)">
  <circle cx="12500" cy="12500" r="10200" fill="#100a04"/>
  <circle cx="12500" cy="12500" r="10200" fill="url(#weave)" opacity="0.5"/>
  <circle cx="12500" cy="12500" r="10200" filter="url(#fabricNoise)"/>
</g>

<!-- ===== IDIC EMBLEM - embroidered thread effect ===== -->
<!-- Layer 1: Muted fill simulating dense thread base -->
<g opacity="0.80"><g transform="translate(4106,4704) scale(0.8419)"><g transform="translate(0,18860) scale(1,-1)">
  <path d="M9355 18150 c-44 -4 -96 -13 -115 -19 -19 -6 -78 -11 -130 -11 -56 0
-120 -7 -155 -16 -33 -9 -114 -19 -180 -23 -66 -4 -129 -12 -140 -18 -11 -6
-49 -14 -84 -18 -35 -4 -79 -14 -97 -21 -18 -8 -54 -14 -79 -14 -25 0 -71 -9
-102 -20 -32 -11 -79 -20 -106 -20 -26 0 -61 -7 -77 -15 -16 -9 -51 -18 -77
-22 -27 -3 -60 -12 -75 -19 -15 -8 -37 -14 -50 -14 -13 -1 -41 -9 -63 -20 -22
-11 -54 -19 -70 -20 -17 0 -40 -6 -51 -14 -11 -8 -42 -17 -68 -21 -27 -4 -61
-14 -75 -21 -14 -8 -36 -14 -49 -14 -12 0 -40 -9 -62 -20 -22 -11 -47 -20 -57
-20 -22 0 -126 -40 -234 -89 -25 -12 -53 -21 -61 -21 -9 0 -21 -6 -27 -14 -7
-8 -28 -17 -48 -21 -20 -3 -45 -12 -57 -20 -12 -7 -35 -16 -53 -20 -17 -3 -37
-13 -44 -21 -6 -8 -22 -14 -35 -14 -13 0 -38 -9 -56 -20 -18 -11 -43 -20 -54
-20 -12 0 -27 -6 -33 -14 -7 -8 -27 -17 -45 -20 -19 -4 -39 -13 -46 -21 -7 -8
-21 -15 -31 -15 -10 0 -20 -4 -24 -9 -3 -5 -51 -33 -108 -61 -56 -28 -109 -55
-117 -60 -8 -6 -26 -14 -40 -20 -14 -5 -32 -14 -40 -20 -8 -5 -26 -14 -40 -20
-23 -9 -33 -15 -77 -40 -10 -6 -33 -17 -52 -26 -18 -8 -52 -27 -75 -42 -22
-15 -52 -32 -66 -39 -14 -7 -38 -22 -55 -33 -16 -11 -41 -25 -55 -32 -14 -7
-45 -27 -69 -45 -24 -18 -48 -33 -53 -33 -5 0 -21 -9 -36 -19 -15 -11 -47 -32
-71 -48 -24 -15 -56 -36 -70 -46 -14 -9 -39 -24 -56 -31 -16 -8 -41 -25 -55
-38 -24 -22 -122 -96 -171 -128 -12 -8 -29 -22 -38 -30 -9 -8 -41 -32 -71 -52
-52 -34 -68 -48 -145 -116 -41 -36 -102 -82 -110 -82 -4 0 -21 -13 -38 -29
-18 -16 -75 -66 -127 -112 -52 -46 -97 -86 -100 -90 -3 -3 -45 -39 -95 -80
-49 -40 -117 -101 -150 -135 -147 -151 -327 -344 -372 -399 -28 -33 -58 -67
-67 -75 -10 -8 -46 -48 -79 -90 -34 -41 -73 -88 -89 -104 -51 -54 -198 -240
-198 -251 0 -4 -17 -28 -37 -54 -21 -25 -42 -53 -48 -62 -27 -44 -90 -135 -98
-140 -11 -8 -101 -134 -128 -179 -11 -19 -30 -51 -42 -72 -12 -20 -36 -60 -53
-90 -18 -29 -39 -60 -48 -67 -9 -7 -16 -19 -16 -26 0 -7 -16 -33 -35 -58 -19
-25 -40 -56 -46 -69 -5 -13 -21 -41 -34 -63 -14 -22 -31 -54 -39 -71 -8 -17
-22 -36 -30 -44 -9 -7 -16 -19 -16 -27 0 -8 -9 -26 -20 -40 -11 -14 -20 -34
-20 -43 0 -10 -7 -23 -15 -30 -8 -7 -15 -20 -15 -30 0 -9 -9 -29 -20 -43 -11
-14 -20 -30 -20 -35 0 -14 -52 -114 -67 -130 -7 -7 -13 -20 -13 -28 0 -8 -8
-32 -19 -52 -10 -20 -28 -57 -39 -82 -11 -25 -29 -66 -41 -91 -12 -25 -21 -53
-21 -61 0 -9 -6 -21 -14 -27 -8 -7 -18 -25 -21 -41 -3 -15 -15 -45 -26 -66
-10 -21 -19 -46 -19 -55 0 -9 -6 -22 -14 -28 -7 -6 -16 -26 -20 -44 -6 -32
-14 -53 -55 -137 -11 -25 -21 -54 -21 -65 0 -11 -9 -37 -20 -58 -11 -20 -20
-47 -20 -60 0 -12 -9 -39 -20 -60 -11 -20 -20 -46 -20 -57 0 -12 -9 -38 -20
-60 -11 -22 -20 -47 -20 -57 -1 -10 -9 -36 -20 -58 -11 -22 -19 -53 -20 -68 0
-15 -7 -41 -15 -58 -9 -16 -20 -58 -24 -92 -5 -34 -16 -80 -25 -102 -8 -22
-15 -54 -16 -70 0 -17 -6 -40 -14 -51 -8 -12 -18 -45 -21 -75 -4 -30 -13 -71
-20 -91 -8 -20 -17 -67 -21 -105 -4 -37 -12 -82 -19 -99 -7 -18 -16 -67 -20
-110 -3 -44 -13 -99 -20 -124 -7 -25 -16 -81 -20 -125 -3 -44 -12 -100 -20
-125 -7 -25 -16 -97 -19 -160 -4 -63 -13 -149 -21 -190 -31 -169 -24 -1387 9
-1530 9 -36 16 -94 16 -130 0 -36 9 -101 20 -145 11 -44 20 -99 20 -121 0 -23
6 -59 14 -80 7 -22 17 -79 21 -129 4 -49 13 -104 20 -120 6 -17 15 -57 20 -90
4 -33 11 -68 17 -78 5 -10 15 -53 23 -95 14 -82 29 -140 52 -212 8 -25 19 -74
24 -109 6 -36 17 -77 25 -92 8 -16 14 -41 14 -56 0 -16 9 -45 20 -66 11 -20
20 -47 20 -59 0 -13 9 -36 20 -53 11 -16 20 -43 20 -58 0 -15 9 -45 20 -67 11
-22 20 -46 20 -55 0 -8 9 -32 20 -52 11 -21 20 -46 20 -55 0 -10 9 -35 20 -55
11 -21 20 -47 20 -58 0 -12 9 -38 20 -60 11 -22 20 -49 20 -61 0 -12 6 -27 14
-33 8 -7 18 -27 21 -44 4 -18 13 -39 20 -47 7 -8 15 -31 19 -51 4 -21 13 -42
20 -48 8 -7 17 -27 20 -45 4 -19 13 -39 21 -46 8 -7 15 -20 15 -30 0 -9 9 -29
20 -43 11 -14 20 -33 20 -42 0 -9 9 -28 20 -42 11 -14 20 -31 20 -38 0 -16 59
-133 71 -140 5 -4 9 -17 9 -30 0 -13 5 -27 11 -31 6 -3 17 -21 25 -38 8 -17
19 -38 24 -46 6 -8 15 -26 21 -40 5 -14 21 -43 34 -65 14 -22 32 -53 40 -70
38 -75 108 -189 134 -221 8 -10 81 -139 106 -189 27 -53 99 -50 160 7 17 15
58 54 91 85 121 114 250 231 284 259 19 16 37 31 40 35 3 3 43 36 90 74 47 37
92 75 101 84 9 9 51 48 94 86 43 39 94 86 114 105 42 40 387 346 527 465 51
44 98 87 203 185 30 28 140 125 216 191 28 24 80 70 115 101 36 31 76 66 90
77 57 48 79 67 169 150 51 47 101 93 110 101 9 9 41 36 71 60 51 41 204 174
241 210 9 8 42 38 75 65 50 43 81 71 194 175 31 29 135 116 178 149 24 18 66
56 94 84 28 28 92 86 142 130 50 44 98 87 107 96 46 46 180 162 247 214 121
94 172 147 172 179 0 27 -60 124 -109 177 -12 15 -30 40 -38 56 -9 17 -22 34
-29 38 -8 4 -14 12 -14 17 0 5 -14 29 -30 52 -54 76 -163 244 -174 268 -4 8
-18 33 -31 55 -14 22 -30 51 -36 65 -6 14 -15 32 -20 40 -5 8 -14 26 -20 40
-6 14 -15 32 -20 40 -5 8 -14 26 -19 40 -6 14 -15 32 -20 40 -6 8 -13 22 -16
30 -8 22 -44 100 -65 142 -11 20 -19 46 -19 56 0 11 -7 25 -15 32 -8 7 -17 28
-21 49 -4 20 -15 50 -25 67 -11 17 -19 40 -19 50 0 11 -9 36 -20 57 -11 20
-20 46 -20 57 0 11 -9 37 -20 57 -11 21 -20 49 -20 63 0 14 -9 43 -20 65 -11
22 -20 53 -20 70 0 17 -6 40 -14 51 -8 11 -18 49 -22 85 -4 35 -12 75 -19 89
-7 14 -16 68 -21 120 -4 52 -12 108 -19 125 -7 16 -16 82 -20 145 -3 63 -13
134 -21 158 -20 62 -20 788 0 871 8 31 17 108 21 171 4 63 13 131 20 150 7 19
16 70 19 113 3 42 12 87 20 100 7 12 16 50 19 85 3 34 12 73 20 85 8 12 16 46
19 75 3 29 12 60 20 70 9 9 18 37 21 61 3 24 10 47 17 51 6 4 13 24 17 46 3
21 14 55 25 74 10 19 18 46 18 59 0 13 7 32 15 41 9 10 19 35 22 56 3 22 11
46 19 54 7 8 15 29 19 45 5 27 35 97 57 135 4 8 11 22 14 30 17 47 100 217
130 265 13 22 29 49 35 60 5 11 21 38 34 60 14 22 32 54 40 72 8 17 20 35 25
38 6 4 16 17 21 28 9 21 66 113 121 194 14 22 41 55 58 74 17 19 48 59 68 89
20 30 42 60 48 65 6 6 24 28 40 50 16 22 32 42 35 45 3 3 40 46 81 95 63 76
265 282 359 366 15 13 44 40 65 59 42 38 139 116 174 140 12 8 34 25 48 38 15
12 45 36 67 53 22 16 75 55 117 87 116 87 110 83 209 135 30 16 61 35 69 42
18 16 109 68 159 91 19 9 40 22 48 30 8 8 21 14 30 14 8 0 26 9 40 20 14 11
34 20 43 20 10 0 23 6 29 14 7 8 27 17 45 20 19 4 39 13 46 21 7 8 21 15 32
15 11 0 32 6 46 14 40 21 113 53 142 61 14 4 34 14 45 21 11 8 27 14 37 14 10
0 35 9 55 20 21 11 50 20 64 20 15 0 32 6 38 14 7 8 31 18 54 21 23 4 51 13
62 20 11 7 39 15 61 19 23 3 54 13 70 21 16 8 42 15 57 15 15 0 41 7 57 15 16
8 61 17 102 21 40 3 89 12 110 19 20 8 78 17 130 21 51 3 116 12 143 19 28 7
106 16 175 19 69 3 143 10 165 16 65 16 565 12 670 -5 50 -8 114 -15 143 -15
29 0 67 -6 85 -14 18 -7 78 -17 133 -21 54 -4 115 -13 134 -20 19 -7 58 -16
87 -19 28 -4 64 -13 80 -21 15 -8 46 -15 68 -15 35 0 74 -10 200 -52 17 -6 54
-16 84 -23 30 -8 59 -19 64 -24 6 -6 19 -11 29 -11 10 0 35 -9 55 -20 21 -11
44 -20 51 -20 7 0 30 -9 52 -20 22 -11 48 -20 58 -20 11 0 25 -7 32 -15 7 -8
21 -15 31 -15 19 0 82 -26 151 -61 20 -10 42 -19 48 -19 9 0 63 -31 188 -105
9 -6 35 -21 57 -33 22 -13 58 -34 80 -47 22 -13 49 -29 60 -35 21 -12 60 -35
141 -84 26 -16 78 -52 115 -80 37 -28 121 -91 186 -139 66 -48 133 -100 150
-115 17 -15 66 -58 109 -97 175 -156 393 -388 497 -528 16 -21 36 -45 46 -55
50 -50 134 -167 240 -332 15 -25 59 -92 97 -150 69 -105 234 -421 234 -448 0
-8 9 -25 20 -39 11 -14 20 -36 20 -48 0 -12 7 -28 15 -35 8 -7 17 -28 21 -49
4 -20 12 -43 19 -51 8 -8 17 -33 21 -55 4 -22 13 -45 20 -52 7 -7 15 -30 19
-52 4 -22 13 -45 21 -52 8 -6 14 -23 14 -38 0 -14 9 -41 20 -59 11 -18 20 -43
20 -55 0 -12 9 -39 20 -60 11 -20 20 -56 20 -79 1 -24 9 -61 20 -83 11 -22 19
-61 20 -86 0 -26 9 -66 20 -90 11 -25 20 -66 20 -94 0 -28 9 -76 20 -108 14
-39 20 -82 20 -140 0 -52 7 -104 17 -138 16 -48 18 -103 18 -494 0 -345 -3
-448 -13 -475 -8 -19 -17 -82 -21 -140 -5 -65 -14 -118 -25 -137 -10 -20 -16
-57 -16 -100 0 -46 -7 -82 -20 -112 -11 -24 -20 -62 -20 -85 0 -23 -9 -58 -20
-79 -11 -20 -20 -54 -20 -75 0 -20 -9 -54 -20 -75 -11 -20 -20 -47 -20 -60 0
-12 -7 -32 -15 -44 -8 -11 -17 -40 -21 -64 -4 -24 -12 -51 -19 -59 -8 -8 -17
-33 -21 -55 -4 -22 -13 -49 -20 -60 -7 -11 -16 -37 -19 -57 -4 -21 -13 -42
-20 -48 -8 -6 -16 -29 -20 -50 -4 -21 -13 -44 -21 -51 -8 -6 -14 -16 -14 -22
0 -5 -8 -28 -19 -51 -10 -23 -24 -52 -30 -66 -6 -14 -15 -32 -20 -40 -5 -8
-23 -44 -40 -80 -17 -36 -49 -96 -71 -135 -22 -38 -47 -84 -54 -101 -8 -17
-22 -36 -30 -44 -9 -7 -16 -18 -16 -26 0 -7 -6 -19 -12 -26 -24 -26 -55 -74
-62 -96 -4 -12 -11 -22 -16 -22 -5 0 -23 -24 -40 -52 -17 -29 -51 -80 -75
-113 -25 -33 -60 -83 -80 -110 -19 -28 -49 -66 -67 -85 -19 -19 -61 -69 -93
-109 -81 -102 -382 -403 -480 -481 -44 -36 -84 -70 -90 -76 -12 -14 -136 -108
-240 -184 -42 -30 -107 -77 -143 -105 -37 -27 -88 -61 -112 -74 -25 -13 -52
-29 -60 -36 -8 -6 -26 -17 -40 -23 -14 -7 -52 -28 -85 -48 -33 -19 -78 -44
-100 -54 -22 -11 -62 -33 -90 -49 -27 -16 -57 -30 -66 -30 -9 -1 -22 -8 -29
-16 -7 -8 -27 -17 -46 -21 -18 -3 -38 -12 -45 -20 -6 -8 -20 -14 -31 -14 -10
0 -36 -9 -56 -20 -20 -11 -68 -31 -107 -46 -38 -14 -74 -30 -80 -35 -5 -5 -21
-9 -35 -9 -14 0 -35 -7 -47 -15 -12 -9 -41 -20 -65 -25 -41 -8 -107 -28 -173
-51 -16 -6 -51 -15 -77 -19 -27 -5 -58 -16 -70 -24 -12 -9 -41 -16 -63 -16
-22 0 -53 -7 -70 -16 -20 -11 -71 -19 -150 -23 -185 -11 -216 -39 -195 -181 5
-36 10 -90 10 -120 0 -30 9 -97 20 -149 12 -57 20 -133 20 -195 0 -56 7 -130
15 -166 8 -36 19 -141 25 -235 5 -93 14 -186 20 -205 6 -19 15 -100 20 -180 5
-80 14 -161 19 -181 6 -20 15 -96 20 -170 5 -74 14 -146 20 -161 6 -15 13
-108 17 -205 3 -98 12 -204 20 -236 8 -31 17 -124 20 -205 3 -81 12 -171 20
-200 8 -30 17 -109 20 -175 3 -67 12 -156 19 -197 8 -41 17 -133 20 -205 4
-71 13 -150 20 -175 7 -25 16 -105 19 -177 3 -73 12 -156 20 -185 8 -30 17
-124 20 -218 3 -91 11 -181 16 -200 6 -19 15 -105 20 -190 6 -89 16 -172 24
-195 8 -22 15 -71 15 -110 1 -38 10 -142 22 -230 29 -210 26 -207 179 -175 30
7 69 18 85 25 17 7 48 16 69 20 22 4 49 13 60 21 11 8 30 14 41 14 11 0 38 9
60 20 22 11 49 20 60 20 12 0 30 7 41 15 10 8 30 15 44 15 14 0 43 9 65 20 22
11 48 20 58 20 21 0 105 32 230 88 26 12 56 22 65 22 10 0 27 7 38 15 10 8 25
15 33 15 8 0 32 9 55 19 23 10 70 31 106 46 110 47 422 193 460 215 8 5 43 23
77 39 34 17 64 35 68 41 3 5 14 10 24 10 10 0 28 9 41 20 13 11 28 20 34 20 6
0 35 16 65 35 29 19 55 35 58 35 3 0 30 16 58 35 29 19 64 40 76 45 13 6 40
21 61 33 20 12 58 35 85 50 26 15 53 31 59 35 56 35 109 73 164 117 36 28 73
54 82 58 18 6 440 319 467 346 9 9 73 63 141 120 120 99 234 198 290 251 109
102 173 166 295 295 144 151 154 162 296 325 46 52 89 100 95 105 6 6 24 28
40 50 16 22 43 56 61 75 18 19 33 38 33 42 0 4 22 33 49 65 101 123 222 289
266 366 9 15 20 27 25 27 6 0 10 6 10 14 0 8 11 27 23 43 35 41 92 125 100
146 3 9 11 17 16 17 5 0 13 10 17 23 3 12 12 29 20 37 7 9 27 43 45 75 17 33
55 96 83 140 66 103 68 107 110 190 38 73 49 93 78 137 10 15 18 34 18 41 0 8
9 26 20 40 11 14 20 33 20 42 0 9 9 28 20 42 11 14 20 32 20 40 0 8 9 26 20
40 11 14 20 31 20 38 0 7 6 18 14 24 8 7 17 27 20 46 4 19 11 35 16 35 5 0 15
20 21 45 6 24 17 50 25 56 8 6 14 22 14 34 0 12 9 34 20 48 11 14 20 31 20 37
0 7 8 31 19 54 10 23 23 56 30 74 6 17 16 47 22 65 7 17 20 50 30 73 11 23 19
47 19 55 0 8 9 28 20 44 11 17 20 38 20 48 0 9 9 34 20 54 11 21 20 52 20 69
0 17 6 37 14 43 8 6 17 32 21 58 4 25 13 60 20 77 20 45 45 124 56 176 5 25
16 57 24 72 8 14 15 37 15 51 0 14 9 53 19 88 11 35 22 86 26 112 3 26 12 62
19 80 8 18 17 55 20 82 4 28 13 70 21 95 7 25 17 77 20 115 4 39 12 79 17 89
6 11 15 55 19 97 5 43 16 104 24 136 8 31 15 87 15 123 0 37 9 100 20 141 12
46 20 107 20 164 0 50 8 137 16 195 25 166 31 877 10 1088 -10 88 -21 236 -25
329 -5 92 -14 181 -20 197 -6 16 -15 77 -20 136 -5 59 -14 116 -19 127 -6 11
-14 51 -18 89 -4 38 -12 83 -19 99 -7 17 -16 66 -20 110 -4 43 -13 94 -20 114
-7 20 -16 66 -20 101 -4 36 -14 77 -21 92 -8 15 -14 40 -14 55 -1 15 -8 46
-16 68 -9 22 -20 63 -25 90 -6 28 -17 64 -25 82 -7 17 -14 44 -14 60 0 15 -9
48 -20 72 -11 24 -20 53 -20 66 0 13 -9 42 -20 66 -11 24 -20 53 -20 64 0 11
-9 38 -20 60 -11 22 -20 49 -20 60 0 11 -9 40 -20 64 -11 24 -20 54 -20 67 0
12 -4 26 -10 29 -5 3 -16 27 -24 53 -8 26 -21 61 -30 77 -9 17 -16 36 -16 43
0 6 -9 29 -20 49 -11 21 -20 43 -20 50 0 7 -9 30 -20 50 -11 21 -20 47 -20 59
0 12 -7 27 -15 34 -8 7 -15 20 -15 29 0 9 -11 37 -25 63 -14 26 -25 53 -25 61
0 8 -7 20 -15 27 -8 7 -15 20 -15 30 0 9 -9 29 -20 43 -11 14 -20 34 -20 45 0
12 -4 23 -9 26 -10 7 -111 206 -111 219 0 5 -9 20 -20 34 -11 14 -20 32 -20
40 0 8 -9 26 -20 40 -11 14 -20 33 -20 41 0 9 -7 24 -17 34 -20 22 -38 54 -54
91 -6 15 -15 27 -19 27 -5 0 -14 15 -20 34 -6 19 -17 37 -25 40 -8 3 -15 15
-15 26 0 11 -9 28 -20 37 -11 10 -20 21 -20 25 0 4 -18 34 -40 65 -22 32 -40
63 -40 69 0 6 -9 19 -20 29 -11 10 -20 22 -20 27 0 4 -16 31 -35 58 -19 27
-35 54 -35 59 0 5 -17 31 -38 58 -22 26 -41 53 -43 60 -2 6 -19 28 -36 49 -18
22 -47 59 -63 84 -17 25 -51 72 -76 105 -24 33 -56 77 -69 98 -14 21 -33 45
-43 55 -9 9 -46 53 -81 97 -35 44 -70 85 -77 91 -8 6 -36 40 -64 75 -28 35
-75 89 -104 119 -28 30 -72 80 -96 109 -62 75 -311 320 -541 531 -51 47 -102
94 -113 105 -12 11 -57 48 -101 83 -70 55 -106 83 -175 142 -41 34 -57 46
-100 75 -25 16 -75 52 -112 80 -37 27 -98 73 -135 101 -37 28 -79 57 -93 64
-13 7 -30 18 -36 24 -19 18 -94 66 -214 137 -30 18 -59 37 -65 41 -5 5 -32 23
-59 41 -28 18 -61 40 -75 50 -14 9 -39 24 -56 33 -16 8 -48 26 -70 39 -22 14
-47 27 -55 30 -8 3 -28 13 -45 22 -16 8 -56 29 -87 45 -32 16 -60 33 -63 38
-4 6 -14 10 -24 10 -10 0 -28 9 -41 20 -13 11 -30 20 -37 20 -8 0 -26 9 -40
20 -14 11 -34 20 -43 20 -10 0 -23 7 -30 15 -7 8 -18 15 -25 15 -8 0 -51 19
-97 42 -46 22 -99 48 -118 56 -19 8 -52 23 -72 33 -20 11 -44 19 -53 19 -8 0
-32 9 -52 20 -21 11 -44 20 -51 20 -8 0 -26 6 -40 14 -15 8 -49 24 -77 36 -27
12 -63 28 -80 36 -16 7 -43 16 -60 20 -16 4 -41 12 -55 19 -37 18 -120 46
-155 52 -16 3 -39 12 -51 19 -11 8 -40 18 -65 23 -24 5 -57 14 -74 20 -72 25
-134 43 -180 53 -27 5 -55 14 -61 19 -6 5 -33 12 -60 15 -27 4 -60 12 -74 19
-14 7 -48 15 -77 19 -28 4 -64 13 -80 21 -15 8 -48 15 -73 15 -25 0 -58 7 -75
16 -16 9 -57 18 -90 21 -33 3 -71 11 -85 18 -14 7 -58 15 -98 19 -41 3 -84 12
-95 18 -12 6 -71 15 -132 19 -60 4 -137 14 -170 23 -35 10 -100 16 -161 16
-70 0 -115 5 -145 17 -39 14 -115 16 -654 19 -335 1 -646 -2 -690 -6z" fill="#7a5828"/>
</g></g></g>
<g opacity="0.80"><g transform="translate(4106,4704) scale(0.8419)"><g transform="translate(0,18860) scale(1,-1)">
  <path d="M10618 12835 c-20 -7 -63 -16 -95 -20 -32 -4 -68 -13 -80 -21 -12 -8
-31 -14 -41 -14 -11 0 -31 -9 -45 -20 -14 -11 -28 -20 -32 -20 -17 0 -108 -72
-183 -144 -83 -80 -166 -192 -178 -241 -3 -14 -10 -28 -15 -31 -5 -2 -13 -24
-19 -47 -6 -23 -19 -58 -28 -77 -13 -29 -16 -70 -16 -225 1 -175 3 -193 22
-232 12 -23 22 -49 22 -57 0 -14 30 -83 51 -116 5 -8 16 -30 24 -47 9 -18 19
-33 24 -33 6 0 13 -10 16 -21 10 -30 141 -160 195 -194 25 -15 56 -34 70 -43
33 -22 131 -62 150 -62 8 0 29 -8 45 -17 24 -14 63 -18 200 -21 154 -3 175 -2
223 17 29 12 64 21 77 21 13 0 30 7 39 15 8 8 29 18 46 21 17 4 33 11 36 15 3
5 20 16 37 24 49 23 65 35 149 114 43 41 95 99 116 129 20 30 47 68 59 86 12
17 25 44 29 61 3 16 12 39 19 50 7 11 16 42 20 68 3 27 13 67 21 89 19 54 19
256 0 302 -7 18 -17 53 -21 77 -4 24 -13 53 -20 64 -7 11 -16 34 -20 52 -3 17
-13 37 -21 44 -8 6 -14 17 -14 23 0 19 -90 136 -145 190 -27 26 -75 64 -105
84 -30 20 -56 40 -58 43 -3 6 -65 38 -147 74 -16 8 -55 17 -85 20 -30 4 -74
13 -98 21 -53 17 -175 17 -224 -1z" fill="#7a5828"/>
</g></g></g>
<g opacity="0.80"><g transform="translate(4106,4704) scale(0.8419)"><g transform="translate(0,18860) scale(1,-1)">
  <path d="M10010 10941 c-70 -10 -77 -16 -375 -296 -50 -48 -217 -202 -289
-266 -28 -26 -100 -86 -161 -135 -60 -48 -112 -91 -115 -94 -13 -16 -283 -252
-345 -301 -38 -31 -95 -80 -126 -110 -31 -30 -91 -85 -135 -124 -43 -38 -111
-100 -152 -138 -40 -37 -124 -109 -185 -161 -62 -51 -126 -106 -143 -122 -18
-16 -67 -60 -110 -99 -42 -38 -85 -77 -93 -85 -61 -57 -290 -262 -329 -293
-69 -56 -156 -133 -236 -208 -39 -37 -91 -84 -115 -105 -24 -22 -63 -56 -85
-77 -23 -20 -59 -49 -81 -65 -21 -15 -47 -34 -55 -42 -45 -42 -142 -129 -181
-164 -24 -21 -94 -85 -156 -143 -120 -112 -125 -117 -228 -208 -38 -33 -105
-93 -149 -134 -45 -41 -93 -82 -108 -91 -25 -15 -133 -111 -252 -224 -23 -21
-72 -63 -111 -94 -38 -31 -118 -99 -176 -152 -58 -52 -135 -121 -170 -152 -35
-31 -82 -73 -104 -94 -103 -95 -154 -141 -186 -169 -19 -16 -86 -76 -149 -134
-63 -57 -126 -111 -140 -120 -26 -16 -61 -46 -135 -116 -41 -39 -126 -114
-209 -185 -22 -19 -70 -62 -106 -95 -36 -33 -103 -91 -149 -130 -88 -74 -103
-87 -191 -169 -31 -28 -82 -73 -115 -101 -33 -27 -80 -68 -105 -90 -25 -23
-70 -61 -100 -85 -30 -25 -62 -52 -70 -60 -9 -8 -30 -27 -47 -41 -17 -15 -55
-49 -85 -75 -30 -27 -81 -71 -114 -99 -32 -27 -90 -79 -129 -115 -38 -36 -97
-88 -130 -115 -32 -28 -66 -57 -75 -65 -9 -8 -61 -55 -115 -105 -55 -49 -124
-113 -155 -142 -78 -73 -101 -93 -150 -136 -24 -21 -81 -74 -127 -117 -45 -43
-106 -94 -136 -114 -74 -49 -137 -114 -130 -135 7 -18 53 -60 67 -61 5 0 28
-8 50 -18 60 -27 137 -53 171 -59 17 -3 48 -13 71 -24 22 -10 46 -19 53 -19 7
0 25 -6 39 -14 15 -8 48 -24 75 -35 26 -12 67 -30 91 -41 24 -11 50 -20 59
-20 8 0 28 -7 44 -15 54 -28 119 -55 131 -55 7 0 29 -9 49 -20 21 -11 43 -20
50 -20 6 0 24 -6 40 -14 15 -8 44 -19 63 -26 19 -6 58 -21 85 -32 28 -11 69
-26 92 -32 24 -7 48 -17 55 -24 7 -7 19 -12 28 -12 8 0 32 -9 53 -20 20 -11
44 -20 52 -20 8 0 32 -9 52 -20 21 -11 44 -20 51 -20 8 0 26 -6 40 -14 54 -27
123 -56 135 -56 7 0 29 -9 50 -20 20 -11 45 -20 56 -20 10 0 24 -6 30 -14 7
-8 27 -17 45 -20 19 -4 39 -13 46 -21 7 -8 21 -15 32 -15 10 0 36 -9 58 -20
22 -11 47 -20 57 -20 10 0 27 -6 38 -14 11 -7 38 -16 59 -20 22 -4 49 -14 60
-22 11 -8 29 -14 40 -14 10 0 37 -8 60 -19 23 -10 62 -28 87 -40 25 -11 52
-21 60 -21 8 0 23 -7 33 -15 11 -8 26 -15 34 -15 8 0 36 -9 61 -21 25 -12 66
-30 91 -41 25 -11 58 -27 73 -34 16 -8 34 -14 40 -14 7 -1 30 -9 52 -20 22
-11 48 -19 58 -20 9 0 34 -9 54 -20 21 -11 45 -20 53 -20 9 0 24 -6 35 -14 11
-7 34 -16 50 -20 17 -4 44 -13 60 -20 104 -47 127 -56 141 -56 9 0 28 -6 42
-14 44 -23 118 -56 128 -56 5 -1 27 -9 49 -20 22 -11 46 -19 53 -20 8 0 26 -6
40 -14 34 -17 151 -65 322 -130 19 -8 58 -23 85 -34 28 -11 66 -26 85 -32 19
-7 53 -21 76 -31 23 -11 50 -19 61 -19 10 0 23 -4 28 -9 9 -9 32 -18 137 -56
24 -9 58 -22 76 -30 17 -8 49 -22 70 -31 20 -9 54 -24 74 -35 20 -10 45 -19
55 -19 10 0 28 -6 39 -14 11 -8 37 -17 57 -21 20 -4 41 -13 48 -21 6 -8 20
-14 30 -14 11 0 36 -9 56 -20 21 -11 47 -20 58 -20 11 0 34 -9 50 -20 17 -11
39 -20 50 -20 11 0 30 -6 41 -14 11 -8 37 -17 57 -21 20 -4 41 -13 48 -21 6
-8 22 -14 35 -14 13 0 41 -9 61 -20 21 -11 43 -20 50 -20 7 0 30 -9 50 -20 21
-11 45 -20 53 -20 9 0 25 -7 36 -15 10 -8 26 -15 34 -15 8 0 32 -9 53 -20 20
-11 43 -20 50 -20 7 0 29 -9 50 -20 20 -11 45 -20 55 -20 10 0 27 -7 38 -15
10 -8 26 -15 34 -15 9 0 33 -9 55 -20 22 -11 48 -20 60 -20 11 0 34 -9 50 -20
17 -11 39 -20 51 -20 11 0 29 -7 40 -15 10 -8 25 -15 32 -15 7 0 39 -12 70
-26 101 -46 120 -54 129 -54 15 0 124 -47 136 -59 6 -6 21 -11 33 -11 13 0 26
-4 29 -10 3 -5 27 -16 53 -24 69 -22 133 -45 167 -60 17 -7 45 -19 63 -25 17
-6 47 -16 65 -22 17 -6 46 -17 62 -25 17 -7 55 -22 85 -34 30 -12 74 -30 98
-41 23 -10 49 -19 56 -19 7 0 19 -7 26 -15 7 -8 22 -15 34 -15 11 0 35 -9 51
-20 17 -11 38 -20 48 -20 10 0 32 -7 50 -17 18 -9 46 -20 62 -24 55 -15 136
-46 148 -58 6 -6 19 -11 29 -11 10 0 35 -9 55 -20 21 -11 43 -20 50 -20 7 0
30 -9 50 -20 21 -11 48 -20 60 -20 12 0 24 -4 28 -9 3 -5 30 -17 60 -25 30 -9
57 -21 60 -26 3 -6 15 -10 26 -10 10 0 36 -9 56 -20 21 -11 42 -20 48 -20 6 0
28 -9 50 -20 22 -11 47 -20 56 -20 9 0 22 -7 29 -15 7 -8 22 -15 34 -15 11 0
35 -9 51 -20 17 -11 39 -20 50 -20 11 0 29 -7 39 -15 11 -8 27 -15 35 -15 8 0
33 -8 55 -18 40 -18 65 -28 136 -52 19 -7 49 -18 65 -26 17 -7 44 -16 60 -20
28 -7 76 -28 137 -60 14 -8 33 -14 42 -14 9 0 33 -9 53 -20 21 -11 43 -20 50
-20 14 0 72 -24 208 -85 64 -29 108 -45 126 -45 34 0 42 39 30 131 -6 45 -11
108 -11 139 0 31 -6 79 -14 106 -8 27 -17 105 -21 174 -4 69 -13 166 -20 215
-8 50 -17 133 -20 185 -3 52 -12 131 -20 175 -7 44 -16 141 -20 215 -3 74 -12
171 -20 215 -7 44 -16 143 -20 220 -4 77 -13 165 -20 195 -7 30 -16 114 -20
185 -3 72 -12 155 -20 185 -7 30 -15 111 -19 180 -3 69 -10 141 -16 160 -6 19
-16 122 -21 229 -5 106 -14 212 -20 235 -5 22 -14 100 -19 171 -5 72 -16 148
-24 170 -11 28 -15 81 -16 181 0 98 -5 156 -15 190 -9 28 -18 106 -21 184 -3
75 -12 156 -20 182 -9 27 -19 120 -24 220 -5 95 -13 189 -19 208 -7 19 -14 94
-17 165 -3 72 -12 150 -19 175 -8 25 -17 113 -20 195 -4 83 -13 173 -20 200
-7 28 -16 109 -20 180 -4 72 -13 155 -20 185 -7 30 -16 140 -19 243 -4 103
-12 200 -18 215 -6 15 -15 86 -19 157 -4 74 -14 147 -23 170 -11 29 -15 80
-16 180 0 104 -5 160 -20 220 -13 51 -20 114 -20 176 0 59 -6 115 -16 145 -9
29 -19 117 -24 219 -5 97 -15 193 -24 225 -10 33 -16 94 -16 156 0 67 -5 114
-15 137 -9 23 -16 90 -21 198 -3 90 -12 184 -19 209 -7 25 -16 106 -20 180 -3
74 -12 155 -20 180 -8 27 -16 118 -19 226 -3 102 -12 207 -20 240 -8 33 -17
127 -20 210 -4 85 -13 171 -20 195 -8 25 -17 108 -20 190 -3 80 -11 159 -17
175 -7 16 -15 97 -19 179 -5 116 -10 158 -24 185 -21 40 -64 79 -87 80 -9 0
-22 7 -29 15 -7 8 -27 17 -46 21 -18 3 -38 12 -45 20 -6 8 -21 14 -34 14 -12
0 -32 9 -45 20 -13 11 -33 20 -44 20 -12 0 -31 6 -42 14 -11 8 -38 17 -60 21
-21 4 -46 8 -54 9 -8 2 -35 0 -60 -3z" fill="#7a5828"/>
</g></g></g>

<!-- Layer 2: Thread grain texture over fill -->
<g opacity="0.50"><g transform="translate(4106,4704) scale(0.8419)"><g transform="translate(0,18860) scale(1,-1)">
  <path d="M9355 18150 c-44 -4 -96 -13 -115 -19 -19 -6 -78 -11 -130 -11 -56 0
-120 -7 -155 -16 -33 -9 -114 -19 -180 -23 -66 -4 -129 -12 -140 -18 -11 -6
-49 -14 -84 -18 -35 -4 -79 -14 -97 -21 -18 -8 -54 -14 -79 -14 -25 0 -71 -9
-102 -20 -32 -11 -79 -20 -106 -20 -26 0 -61 -7 -77 -15 -16 -9 -51 -18 -77
-22 -27 -3 -60 -12 -75 -19 -15 -8 -37 -14 -50 -14 -13 -1 -41 -9 -63 -20 -22
-11 -54 -19 -70 -20 -17 0 -40 -6 -51 -14 -11 -8 -42 -17 -68 -21 -27 -4 -61
-14 -75 -21 -14 -8 -36 -14 -49 -14 -12 0 -40 -9 -62 -20 -22 -11 -47 -20 -57
-20 -22 0 -126 -40 -234 -89 -25 -12 -53 -21 -61 -21 -9 0 -21 -6 -27 -14 -7
-8 -28 -17 -48 -21 -20 -3 -45 -12 -57 -20 -12 -7 -35 -16 -53 -20 -17 -3 -37
-13 -44 -21 -6 -8 -22 -14 -35 -14 -13 0 -38 -9 -56 -20 -18 -11 -43 -20 -54
-20 -12 0 -27 -6 -33 -14 -7 -8 -27 -17 -45 -20 -19 -4 -39 -13 -46 -21 -7 -8
-21 -15 -31 -15 -10 0 -20 -4 -24 -9 -3 -5 -51 -33 -108 -61 -56 -28 -109 -55
-117 -60 -8 -6 -26 -14 -40 -20 -14 -5 -32 -14 -40 -20 -8 -5 -26 -14 -40 -20
-23 -9 -33 -15 -77 -40 -10 -6 -33 -17 -52 -26 -18 -8 -52 -27 -75 -42 -22
-15 -52 -32 -66 -39 -14 -7 -38 -22 -55 -33 -16 -11 -41 -25 -55 -32 -14 -7
-45 -27 -69 -45 -24 -18 -48 -33 -53 -33 -5 0 -21 -9 -36 -19 -15 -11 -47 -32
-71 -48 -24 -15 -56 -36 -70 -46 -14 -9 -39 -24 -56 -31 -16 -8 -41 -25 -55
-38 -24 -22 -122 -96 -171 -128 -12 -8 -29 -22 -38 -30 -9 -8 -41 -32 -71 -52
-52 -34 -68 -48 -145 -116 -41 -36 -102 -82 -110 -82 -4 0 -21 -13 -38 -29
-18 -16 -75 -66 -127 -112 -52 -46 -97 -86 -100 -90 -3 -3 -45 -39 -95 -80
-49 -40 -117 -101 -150 -135 -147 -151 -327 -344 -372 -399 -28 -33 -58 -67
-67 -75 -10 -8 -46 -48 -79 -90 -34 -41 -73 -88 -89 -104 -51 -54 -198 -240
-198 -251 0 -4 -17 -28 -37 -54 -21 -25 -42 -53 -48 -62 -27 -44 -90 -135 -98
-140 -11 -8 -101 -134 -128 -179 -11 -19 -30 -51 -42 -72 -12 -20 -36 -60 -53
-90 -18 -29 -39 -60 -48 -67 -9 -7 -16 -19 -16 -26 0 -7 -16 -33 -35 -58 -19
-25 -40 -56 -46 -69 -5 -13 -21 -41 -34 -63 -14 -22 -31 -54 -39 -71 -8 -17
-22 -36 -30 -44 -9 -7 -16 -19 -16 -27 0 -8 -9 -26 -20 -40 -11 -14 -20 -34
-20 -43 0 -10 -7 -23 -15 -30 -8 -7 -15 -20 -15 -30 0 -9 -9 -29 -20 -43 -11
-14 -20 -30 -20 -35 0 -14 -52 -114 -67 -130 -7 -7 -13 -20 -13 -28 0 -8 -8
-32 -19 -52 -10 -20 -28 -57 -39 -82 -11 -25 -29 -66 -41 -91 -12 -25 -21 -53
-21 -61 0 -9 -6 -21 -14 -27 -8 -7 -18 -25 -21 -41 -3 -15 -15 -45 -26 -66
-10 -21 -19 -46 -19 -55 0 -9 -6 -22 -14 -28 -7 -6 -16 -26 -20 -44 -6 -32
-14 -53 -55 -137 -11 -25 -21 -54 -21 -65 0 -11 -9 -37 -20 -58 -11 -20 -20
-47 -20 -60 0 -12 -9 -39 -20 -60 -11 -20 -20 -46 -20 -57 0 -12 -9 -38 -20
-60 -11 -22 -20 -47 -20 -57 -1 -10 -9 -36 -20 -58 -11 -22 -19 -53 -20 -68 0
-15 -7 -41 -15 -58 -9 -16 -20 -58 -24 -92 -5 -34 -16 -80 -25 -102 -8 -22
-15 -54 -16 -70 0 -17 -6 -40 -14 -51 -8 -12 -18 -45 -21 -75 -4 -30 -13 -71
-20 -91 -8 -20 -17 -67 -21 -105 -4 -37 -12 -82 -19 -99 -7 -18 -16 -67 -20
-110 -3 -44 -13 -99 -20 -124 -7 -25 -16 -81 -20 -125 -3 -44 -12 -100 -20
-125 -7 -25 -16 -97 -19 -160 -4 -63 -13 -149 -21 -190 -31 -169 -24 -1387 9
-1530 9 -36 16 -94 16 -130 0 -36 9 -101 20 -145 11 -44 20 -99 20 -121 0 -23
6 -59 14 -80 7 -22 17 -79 21 -129 4 -49 13 -104 20 -120 6 -17 15 -57 20 -90
4 -33 11 -68 17 -78 5 -10 15 -53 23 -95 14 -82 29 -140 52 -212 8 -25 19 -74
24 -109 6 -36 17 -77 25 -92 8 -16 14 -41 14 -56 0 -16 9 -45 20 -66 11 -20
20 -47 20 -59 0 -13 9 -36 20 -53 11 -16 20 -43 20 -58 0 -15 9 -45 20 -67 11
-22 20 -46 20 -55 0 -8 9 -32 20 -52 11 -21 20 -46 20 -55 0 -10 9 -35 20 -55
11 -21 20 -47 20 -58 0 -12 9 -38 20 -60 11 -22 20 -49 20 -61 0 -12 6 -27 14
-33 8 -7 18 -27 21 -44 4 -18 13 -39 20 -47 7 -8 15 -31 19 -51 4 -21 13 -42
20 -48 8 -7 17 -27 20 -45 4 -19 13 -39 21 -46 8 -7 15 -20 15 -30 0 -9 9 -29
20 -43 11 -14 20 -33 20 -42 0 -9 9 -28 20 -42 11 -14 20 -31 20 -38 0 -16 59
-133 71 -140 5 -4 9 -17 9 -30 0 -13 5 -27 11 -31 6 -3 17 -21 25 -38 8 -17
19 -38 24 -46 6 -8 15 -26 21 -40 5 -14 21 -43 34 -65 14 -22 32 -53 40 -70
38 -75 108 -189 134 -221 8 -10 81 -139 106 -189 27 -53 99 -50 160 7 17 15
58 54 91 85 121 114 250 231 284 259 19 16 37 31 40 35 3 3 43 36 90 74 47 37
92 75 101 84 9 9 51 48 94 86 43 39 94 86 114 105 42 40 387 346 527 465 51
44 98 87 203 185 30 28 140 125 216 191 28 24 80 70 115 101 36 31 76 66 90
77 57 48 79 67 169 150 51 47 101 93 110 101 9 9 41 36 71 60 51 41 204 174
241 210 9 8 42 38 75 65 50 43 81 71 194 175 31 29 135 116 178 149 24 18 66
56 94 84 28 28 92 86 142 130 50 44 98 87 107 96 46 46 180 162 247 214 121
94 172 147 172 179 0 27 -60 124 -109 177 -12 15 -30 40 -38 56 -9 17 -22 34
-29 38 -8 4 -14 12 -14 17 0 5 -14 29 -30 52 -54 76 -163 244 -174 268 -4 8
-18 33 -31 55 -14 22 -30 51 -36 65 -6 14 -15 32 -20 40 -5 8 -14 26 -20 40
-6 14 -15 32 -20 40 -5 8 -14 26 -19 40 -6 14 -15 32 -20 40 -6 8 -13 22 -16
30 -8 22 -44 100 -65 142 -11 20 -19 46 -19 56 0 11 -7 25 -15 32 -8 7 -17 28
-21 49 -4 20 -15 50 -25 67 -11 17 -19 40 -19 50 0 11 -9 36 -20 57 -11 20
-20 46 -20 57 0 11 -9 37 -20 57 -11 21 -20 49 -20 63 0 14 -9 43 -20 65 -11
22 -20 53 -20 70 0 17 -6 40 -14 51 -8 11 -18 49 -22 85 -4 35 -12 75 -19 89
-7 14 -16 68 -21 120 -4 52 -12 108 -19 125 -7 16 -16 82 -20 145 -3 63 -13
134 -21 158 -20 62 -20 788 0 871 8 31 17 108 21 171 4 63 13 131 20 150 7 19
16 70 19 113 3 42 12 87 20 100 7 12 16 50 19 85 3 34 12 73 20 85 8 12 16 46
19 75 3 29 12 60 20 70 9 9 18 37 21 61 3 24 10 47 17 51 6 4 13 24 17 46 3
21 14 55 25 74 10 19 18 46 18 59 0 13 7 32 15 41 9 10 19 35 22 56 3 22 11
46 19 54 7 8 15 29 19 45 5 27 35 97 57 135 4 8 11 22 14 30 17 47 100 217
130 265 13 22 29 49 35 60 5 11 21 38 34 60 14 22 32 54 40 72 8 17 20 35 25
38 6 4 16 17 21 28 9 21 66 113 121 194 14 22 41 55 58 74 17 19 48 59 68 89
20 30 42 60 48 65 6 6 24 28 40 50 16 22 32 42 35 45 3 3 40 46 81 95 63 76
265 282 359 366 15 13 44 40 65 59 42 38 139 116 174 140 12 8 34 25 48 38 15
12 45 36 67 53 22 16 75 55 117 87 116 87 110 83 209 135 30 16 61 35 69 42
18 16 109 68 159 91 19 9 40 22 48 30 8 8 21 14 30 14 8 0 26 9 40 20 14 11
34 20 43 20 10 0 23 6 29 14 7 8 27 17 45 20 19 4 39 13 46 21 7 8 21 15 32
15 11 0 32 6 46 14 40 21 113 53 142 61 14 4 34 14 45 21 11 8 27 14 37 14 10
0 35 9 55 20 21 11 50 20 64 20 15 0 32 6 38 14 7 8 31 18 54 21 23 4 51 13
62 20 11 7 39 15 61 19 23 3 54 13 70 21 16 8 42 15 57 15 15 0 41 7 57 15 16
8 61 17 102 21 40 3 89 12 110 19 20 8 78 17 130 21 51 3 116 12 143 19 28 7
106 16 175 19 69 3 143 10 165 16 65 16 565 12 670 -5 50 -8 114 -15 143 -15
29 0 67 -6 85 -14 18 -7 78 -17 133 -21 54 -4 115 -13 134 -20 19 -7 58 -16
87 -19 28 -4 64 -13 80 -21 15 -8 46 -15 68 -15 35 0 74 -10 200 -52 17 -6 54
-16 84 -23 30 -8 59 -19 64 -24 6 -6 19 -11 29 -11 10 0 35 -9 55 -20 21 -11
44 -20 51 -20 7 0 30 -9 52 -20 22 -11 48 -20 58 -20 11 0 25 -7 32 -15 7 -8
21 -15 31 -15 19 0 82 -26 151 -61 20 -10 42 -19 48 -19 9 0 63 -31 188 -105
9 -6 35 -21 57 -33 22 -13 58 -34 80 -47 22 -13 49 -29 60 -35 21 -12 60 -35
141 -84 26 -16 78 -52 115 -80 37 -28 121 -91 186 -139 66 -48 133 -100 150
-115 17 -15 66 -58 109 -97 175 -156 393 -388 497 -528 16 -21 36 -45 46 -55
50 -50 134 -167 240 -332 15 -25 59 -92 97 -150 69 -105 234 -421 234 -448 0
-8 9 -25 20 -39 11 -14 20 -36 20 -48 0 -12 7 -28 15 -35 8 -7 17 -28 21 -49
4 -20 12 -43 19 -51 8 -8 17 -33 21 -55 4 -22 13 -45 20 -52 7 -7 15 -30 19
-52 4 -22 13 -45 21 -52 8 -6 14 -23 14 -38 0 -14 9 -41 20 -59 11 -18 20 -43
20 -55 0 -12 9 -39 20 -60 11 -20 20 -56 20 -79 1 -24 9 -61 20 -83 11 -22 19
-61 20 -86 0 -26 9 -66 20 -90 11 -25 20 -66 20 -94 0 -28 9 -76 20 -108 14
-39 20 -82 20 -140 0 -52 7 -104 17 -138 16 -48 18 -103 18 -494 0 -345 -3
-448 -13 -475 -8 -19 -17 -82 -21 -140 -5 -65 -14 -118 -25 -137 -10 -20 -16
-57 -16 -100 0 -46 -7 -82 -20 -112 -11 -24 -20 -62 -20 -85 0 -23 -9 -58 -20
-79 -11 -20 -20 -54 -20 -75 0 -20 -9 -54 -20 -75 -11 -20 -20 -47 -20 -60 0
-12 -7 -32 -15 -44 -8 -11 -17 -40 -21 -64 -4 -24 -12 -51 -19 -59 -8 -8 -17
-33 -21 -55 -4 -22 -13 -49 -20 -60 -7 -11 -16 -37 -19 -57 -4 -21 -13 -42
-20 -48 -8 -6 -16 -29 -20 -50 -4 -21 -13 -44 -21 -51 -8 -6 -14 -16 -14 -22
0 -5 -8 -28 -19 -51 -10 -23 -24 -52 -30 -66 -6 -14 -15 -32 -20 -40 -5 -8
-23 -44 -40 -80 -17 -36 -49 -96 -71 -135 -22 -38 -47 -84 -54 -101 -8 -17
-22 -36 -30 -44 -9 -7 -16 -18 -16 -26 0 -7 -6 -19 -12 -26 -24 -26 -55 -74
-62 -96 -4 -12 -11 -22 -16 -22 -5 0 -23 -24 -40 -52 -17 -29 -51 -80 -75
-113 -25 -33 -60 -83 -80 -110 -19 -28 -49 -66 -67 -85 -19 -19 -61 -69 -93
-109 -81 -102 -382 -403 -480 -481 -44 -36 -84 -70 -90 -76 -12 -14 -136 -108
-240 -184 -42 -30 -107 -77 -143 -105 -37 -27 -88 -61 -112 -74 -25 -13 -52
-29 -60 -36 -8 -6 -26 -17 -40 -23 -14 -7 -52 -28 -85 -48 -33 -19 -78 -44
-100 -54 -22 -11 -62 -33 -90 -49 -27 -16 -57 -30 -66 -30 -9 -1 -22 -8 -29
-16 -7 -8 -27 -17 -46 -21 -18 -3 -38 -12 -45 -20 -6 -8 -20 -14 -31 -14 -10
0 -36 -9 -56 -20 -20 -11 -68 -31 -107 -46 -38 -14 -74 -30 -80 -35 -5 -5 -21
-9 -35 -9 -14 0 -35 -7 -47 -15 -12 -9 -41 -20 -65 -25 -41 -8 -107 -28 -173
-51 -16 -6 -51 -15 -77 -19 -27 -5 -58 -16 -70 -24 -12 -9 -41 -16 -63 -16
-22 0 -53 -7 -70 -16 -20 -11 -71 -19 -150 -23 -185 -11 -216 -39 -195 -181 5
-36 10 -90 10 -120 0 -30 9 -97 20 -149 12 -57 20 -133 20 -195 0 -56 7 -130
15 -166 8 -36 19 -141 25 -235 5 -93 14 -186 20 -205 6 -19 15 -100 20 -180 5
-80 14 -161 19 -181 6 -20 15 -96 20 -170 5 -74 14 -146 20 -161 6 -15 13
-108 17 -205 3 -98 12 -204 20 -236 8 -31 17 -124 20 -205 3 -81 12 -171 20
-200 8 -30 17 -109 20 -175 3 -67 12 -156 19 -197 8 -41 17 -133 20 -205 4
-71 13 -150 20 -175 7 -25 16 -105 19 -177 3 -73 12 -156 20 -185 8 -30 17
-124 20 -218 3 -91 11 -181 16 -200 6 -19 15 -105 20 -190 6 -89 16 -172 24
-195 8 -22 15 -71 15 -110 1 -38 10 -142 22 -230 29 -210 26 -207 179 -175 30
7 69 18 85 25 17 7 48 16 69 20 22 4 49 13 60 21 11 8 30 14 41 14 11 0 38 9
60 20 22 11 49 20 60 20 12 0 30 7 41 15 10 8 30 15 44 15 14 0 43 9 65 20 22
11 48 20 58 20 21 0 105 32 230 88 26 12 56 22 65 22 10 0 27 7 38 15 10 8 25
15 33 15 8 0 32 9 55 19 23 10 70 31 106 46 110 47 422 193 460 215 8 5 43 23
77 39 34 17 64 35 68 41 3 5 14 10 24 10 10 0 28 9 41 20 13 11 28 20 34 20 6
0 35 16 65 35 29 19 55 35 58 35 3 0 30 16 58 35 29 19 64 40 76 45 13 6 40
21 61 33 20 12 58 35 85 50 26 15 53 31 59 35 56 35 109 73 164 117 36 28 73
54 82 58 18 6 440 319 467 346 9 9 73 63 141 120 120 99 234 198 290 251 109
102 173 166 295 295 144 151 154 162 296 325 46 52 89 100 95 105 6 6 24 28
40 50 16 22 43 56 61 75 18 19 33 38 33 42 0 4 22 33 49 65 101 123 222 289
266 366 9 15 20 27 25 27 6 0 10 6 10 14 0 8 11 27 23 43 35 41 92 125 100
146 3 9 11 17 16 17 5 0 13 10 17 23 3 12 12 29 20 37 7 9 27 43 45 75 17 33
55 96 83 140 66 103 68 107 110 190 38 73 49 93 78 137 10 15 18 34 18 41 0 8
9 26 20 40 11 14 20 33 20 42 0 9 9 28 20 42 11 14 20 32 20 40 0 8 9 26 20
40 11 14 20 31 20 38 0 7 6 18 14 24 8 7 17 27 20 46 4 19 11 35 16 35 5 0 15
20 21 45 6 24 17 50 25 56 8 6 14 22 14 34 0 12 9 34 20 48 11 14 20 31 20 37
0 7 8 31 19 54 10 23 23 56 30 74 6 17 16 47 22 65 7 17 20 50 30 73 11 23 19
47 19 55 0 8 9 28 20 44 11 17 20 38 20 48 0 9 9 34 20 54 11 21 20 52 20 69
0 17 6 37 14 43 8 6 17 32 21 58 4 25 13 60 20 77 20 45 45 124 56 176 5 25
16 57 24 72 8 14 15 37 15 51 0 14 9 53 19 88 11 35 22 86 26 112 3 26 12 62
19 80 8 18 17 55 20 82 4 28 13 70 21 95 7 25 17 77 20 115 4 39 12 79 17 89
6 11 15 55 19 97 5 43 16 104 24 136 8 31 15 87 15 123 0 37 9 100 20 141 12
46 20 107 20 164 0 50 8 137 16 195 25 166 31 877 10 1088 -10 88 -21 236 -25
329 -5 92 -14 181 -20 197 -6 16 -15 77 -20 136 -5 59 -14 116 -19 127 -6 11
-14 51 -18 89 -4 38 -12 83 -19 99 -7 17 -16 66 -20 110 -4 43 -13 94 -20 114
-7 20 -16 66 -20 101 -4 36 -14 77 -21 92 -8 15 -14 40 -14 55 -1 15 -8 46
-16 68 -9 22 -20 63 -25 90 -6 28 -17 64 -25 82 -7 17 -14 44 -14 60 0 15 -9
48 -20 72 -11 24 -20 53 -20 66 0 13 -9 42 -20 66 -11 24 -20 53 -20 64 0 11
-9 38 -20 60 -11 22 -20 49 -20 60 0 11 -9 40 -20 64 -11 24 -20 54 -20 67 0
12 -4 26 -10 29 -5 3 -16 27 -24 53 -8 26 -21 61 -30 77 -9 17 -16 36 -16 43
0 6 -9 29 -20 49 -11 21 -20 43 -20 50 0 7 -9 30 -20 50 -11 21 -20 47 -20 59
0 12 -7 27 -15 34 -8 7 -15 20 -15 29 0 9 -11 37 -25 63 -14 26 -25 53 -25 61
0 8 -7 20 -15 27 -8 7 -15 20 -15 30 0 9 -9 29 -20 43 -11 14 -20 34 -20 45 0
12 -4 23 -9 26 -10 7 -111 206 -111 219 0 5 -9 20 -20 34 -11 14 -20 32 -20
40 0 8 -9 26 -20 40 -11 14 -20 33 -20 41 0 9 -7 24 -17 34 -20 22 -38 54 -54
91 -6 15 -15 27 -19 27 -5 0 -14 15 -20 34 -6 19 -17 37 -25 40 -8 3 -15 15
-15 26 0 11 -9 28 -20 37 -11 10 -20 21 -20 25 0 4 -18 34 -40 65 -22 32 -40
63 -40 69 0 6 -9 19 -20 29 -11 10 -20 22 -20 27 0 4 -16 31 -35 58 -19 27
-35 54 -35 59 0 5 -17 31 -38 58 -22 26 -41 53 -43 60 -2 6 -19 28 -36 49 -18
22 -47 59 -63 84 -17 25 -51 72 -76 105 -24 33 -56 77 -69 98 -14 21 -33 45
-43 55 -9 9 -46 53 -81 97 -35 44 -70 85 -77 91 -8 6 -36 40 -64 75 -28 35
-75 89 -104 119 -28 30 -72 80 -96 109 -62 75 -311 320 -541 531 -51 47 -102
94 -113 105 -12 11 -57 48 -101 83 -70 55 -106 83 -175 142 -41 34 -57 46
-100 75 -25 16 -75 52 -112 80 -37 27 -98 73 -135 101 -37 28 -79 57 -93 64
-13 7 -30 18 -36 24 -19 18 -94 66 -214 137 -30 18 -59 37 -65 41 -5 5 -32 23
-59 41 -28 18 -61 40 -75 50 -14 9 -39 24 -56 33 -16 8 -48 26 -70 39 -22 14
-47 27 -55 30 -8 3 -28 13 -45 22 -16 8 -56 29 -87 45 -32 16 -60 33 -63 38
-4 6 -14 10 -24 10 -10 0 -28 9 -41 20 -13 11 -30 20 -37 20 -8 0 -26 9 -40
20 -14 11 -34 20 -43 20 -10 0 -23 7 -30 15 -7 8 -18 15 -25 15 -8 0 -51 19
-97 42 -46 22 -99 48 -118 56 -19 8 -52 23 -72 33 -20 11 -44 19 -53 19 -8 0
-32 9 -52 20 -21 11 -44 20 -51 20 -8 0 -26 6 -40 14 -15 8 -49 24 -77 36 -27
12 -63 28 -80 36 -16 7 -43 16 -60 20 -16 4 -41 12 -55 19 -37 18 -120 46
-155 52 -16 3 -39 12 -51 19 -11 8 -40 18 -65 23 -24 5 -57 14 -74 20 -72 25
-134 43 -180 53 -27 5 -55 14 -61 19 -6 5 -33 12 -60 15 -27 4 -60 12 -74 19
-14 7 -48 15 -77 19 -28 4 -64 13 -80 21 -15 8 -48 15 -73 15 -25 0 -58 7 -75
16 -16 9 -57 18 -90 21 -33 3 -71 11 -85 18 -14 7 -58 15 -98 19 -41 3 -84 12
-95 18 -12 6 -71 15 -132 19 -60 4 -137 14 -170 23 -35 10 -100 16 -161 16
-70 0 -115 5 -145 17 -39 14 -115 16 -654 19 -335 1 -646 -2 -690 -6z" fill="#9a7838" filter="url(#threadGrain)"/>
</g></g></g>

<!-- Layer 3: Visible stitch outlines -->
<g opacity="0.70"><g transform="translate(4106,4704) scale(0.8419)"><g transform="translate(0,18860) scale(1,-1)">
  <path d="M9355 18150 c-44 -4 -96 -13 -115 -19 -19 -6 -78 -11 -130 -11 -56 0
-120 -7 -155 -16 -33 -9 -114 -19 -180 -23 -66 -4 -129 -12 -140 -18 -11 -6
-49 -14 -84 -18 -35 -4 -79 -14 -97 -21 -18 -8 -54 -14 -79 -14 -25 0 -71 -9
-102 -20 -32 -11 -79 -20 -106 -20 -26 0 -61 -7 -77 -15 -16 -9 -51 -18 -77
-22 -27 -3 -60 -12 -75 -19 -15 -8 -37 -14 -50 -14 -13 -1 -41 -9 -63 -20 -22
-11 -54 -19 -70 -20 -17 0 -40 -6 -51 -14 -11 -8 -42 -17 -68 -21 -27 -4 -61
-14 -75 -21 -14 -8 -36 -14 -49 -14 -12 0 -40 -9 -62 -20 -22 -11 -47 -20 -57
-20 -22 0 -126 -40 -234 -89 -25 -12 -53 -21 -61 -21 -9 0 -21 -6 -27 -14 -7
-8 -28 -17 -48 -21 -20 -3 -45 -12 -57 -20 -12 -7 -35 -16 -53 -20 -17 -3 -37
-13 -44 -21 -6 -8 -22 -14 -35 -14 -13 0 -38 -9 -56 -20 -18 -11 -43 -20 -54
-20 -12 0 -27 -6 -33 -14 -7 -8 -27 -17 -45 -20 -19 -4 -39 -13 -46 -21 -7 -8
-21 -15 -31 -15 -10 0 -20 -4 -24 -9 -3 -5 -51 -33 -108 -61 -56 -28 -109 -55
-117 -60 -8 -6 -26 -14 -40 -20 -14 -5 -32 -14 -40 -20 -8 -5 -26 -14 -40 -20
-23 -9 -33 -15 -77 -40 -10 -6 -33 -17 -52 -26 -18 -8 -52 -27 -75 -42 -22
-15 -52 -32 -66 -39 -14 -7 -38 -22 -55 -33 -16 -11 -41 -25 -55 -32 -14 -7
-45 -27 -69 -45 -24 -18 -48 -33 -53 -33 -5 0 -21 -9 -36 -19 -15 -11 -47 -32
-71 -48 -24 -15 -56 -36 -70 -46 -14 -9 -39 -24 -56 -31 -16 -8 -41 -25 -55
-38 -24 -22 -122 -96 -171 -128 -12 -8 -29 -22 -38 -30 -9 -8 -41 -32 -71 -52
-52 -34 -68 -48 -145 -116 -41 -36 -102 -82 -110 -82 -4 0 -21 -13 -38 -29
-18 -16 -75 -66 -127 -112 -52 -46 -97 -86 -100 -90 -3 -3 -45 -39 -95 -80
-49 -40 -117 -101 -150 -135 -147 -151 -327 -344 -372 -399 -28 -33 -58 -67
-67 -75 -10 -8 -46 -48 -79 -90 -34 -41 -73 -88 -89 -104 -51 -54 -198 -240
-198 -251 0 -4 -17 -28 -37 -54 -21 -25 -42 -53 -48 -62 -27 -44 -90 -135 -98
-140 -11 -8 -101 -134 -128 -179 -11 -19 -30 -51 -42 -72 -12 -20 -36 -60 -53
-90 -18 -29 -39 -60 -48 -67 -9 -7 -16 -19 -16 -26 0 -7 -16 -33 -35 -58 -19
-25 -40 -56 -46 -69 -5 -13 -21 -41 -34 -63 -14 -22 -31 -54 -39 -71 -8 -17
-22 -36 -30 -44 -9 -7 -16 -19 -16 -27 0 -8 -9 -26 -20 -40 -11 -14 -20 -34
-20 -43 0 -10 -7 -23 -15 -30 -8 -7 -15 -20 -15 -30 0 -9 -9 -29 -20 -43 -11
-14 -20 -30 -20 -35 0 -14 -52 -114 -67 -130 -7 -7 -13 -20 -13 -28 0 -8 -8
-32 -19 -52 -10 -20 -28 -57 -39 -82 -11 -25 -29 -66 -41 -91 -12 -25 -21 -53
-21 -61 0 -9 -6 -21 -14 -27 -8 -7 -18 -25 -21 -41 -3 -15 -15 -45 -26 -66
-10 -21 -19 -46 -19 -55 0 -9 -6 -22 -14 -28 -7 -6 -16 -26 -20 -44 -6 -32
-14 -53 -55 -137 -11 -25 -21 -54 -21 -65 0 -11 -9 -37 -20 -58 -11 -20 -20
-47 -20 -60 0 -12 -9 -39 -20 -60 -11 -20 -20 -46 -20 -57 0 -12 -9 -38 -20
-60 -11 -22 -20 -47 -20 -57 -1 -10 -9 -36 -20 -58 -11 -22 -19 -53 -20 -68 0
-15 -7 -41 -15 -58 -9 -16 -20 -58 -24 -92 -5 -34 -16 -80 -25 -102 -8 -22
-15 -54 -16 -70 0 -17 -6 -40 -14 -51 -8 -12 -18 -45 -21 -75 -4 -30 -13 -71
-20 -91 -8 -20 -17 -67 -21 -105 -4 -37 -12 -82 -19 -99 -7 -18 -16 -67 -20
-110 -3 -44 -13 -99 -20 -124 -7 -25 -16 -81 -20 -125 -3 -44 -12 -100 -20
-125 -7 -25 -16 -97 -19 -160 -4 -63 -13 -149 -21 -190 -31 -169 -24 -1387 9
-1530 9 -36 16 -94 16 -130 0 -36 9 -101 20 -145 11 -44 20 -99 20 -121 0 -23
6 -59 14 -80 7 -22 17 -79 21 -129 4 -49 13 -104 20 -120 6 -17 15 -57 20 -90
4 -33 11 -68 17 -78 5 -10 15 -53 23 -95 14 -82 29 -140 52 -212 8 -25 19 -74
24 -109 6 -36 17 -77 25 -92 8 -16 14 -41 14 -56 0 -16 9 -45 20 -66 11 -20
20 -47 20 -59 0 -13 9 -36 20 -53 11 -16 20 -43 20 -58 0 -15 9 -45 20 -67 11
-22 20 -46 20 -55 0 -8 9 -32 20 -52 11 -21 20 -46 20 -55 0 -10 9 -35 20 -55
11 -21 20 -47 20 -58 0 -12 9 -38 20 -60 11 -22 20 -49 20 -61 0 -12 6 -27 14
-33 8 -7 18 -27 21 -44 4 -18 13 -39 20 -47 7 -8 15 -31 19 -51 4 -21 13 -42
20 -48 8 -7 17 -27 20 -45 4 -19 13 -39 21 -46 8 -7 15 -20 15 -30 0 -9 9 -29
20 -43 11 -14 20 -33 20 -42 0 -9 9 -28 20 -42 11 -14 20 -31 20 -38 0 -16 59
-133 71 -140 5 -4 9 -17 9 -30 0 -13 5 -27 11 -31 6 -3 17 -21 25 -38 8 -17
19 -38 24 -46 6 -8 15 -26 21 -40 5 -14 21 -43 34 -65 14 -22 32 -53 40 -70
38 -75 108 -189 134 -221 8 -10 81 -139 106 -189 27 -53 99 -50 160 7 17 15
58 54 91 85 121 114 250 231 284 259 19 16 37 31 40 35 3 3 43 36 90 74 47 37
92 75 101 84 9 9 51 48 94 86 43 39 94 86 114 105 42 40 387 346 527 465 51
44 98 87 203 185 30 28 140 125 216 191 28 24 80 70 115 101 36 31 76 66 90
77 57 48 79 67 169 150 51 47 101 93 110 101 9 9 41 36 71 60 51 41 204 174
241 210 9 8 42 38 75 65 50 43 81 71 194 175 31 29 135 116 178 149 24 18 66
56 94 84 28 28 92 86 142 130 50 44 98 87 107 96 46 46 180 162 247 214 121
94 172 147 172 179 0 27 -60 124 -109 177 -12 15 -30 40 -38 56 -9 17 -22 34
-29 38 -8 4 -14 12 -14 17 0 5 -14 29 -30 52 -54 76 -163 244 -174 268 -4 8
-18 33 -31 55 -14 22 -30 51 -36 65 -6 14 -15 32 -20 40 -5 8 -14 26 -20 40
-6 14 -15 32 -20 40 -5 8 -14 26 -19 40 -6 14 -15 32 -20 40 -6 8 -13 22 -16
30 -8 22 -44 100 -65 142 -11 20 -19 46 -19 56 0 11 -7 25 -15 32 -8 7 -17 28
-21 49 -4 20 -15 50 -25 67 -11 17 -19 40 -19 50 0 11 -9 36 -20 57 -11 20
-20 46 -20 57 0 11 -9 37 -20 57 -11 21 -20 49 -20 63 0 14 -9 43 -20 65 -11
22 -20 53 -20 70 0 17 -6 40 -14 51 -8 11 -18 49 -22 85 -4 35 -12 75 -19 89
-7 14 -16 68 -21 120 -4 52 -12 108 -19 125 -7 16 -16 82 -20 145 -3 63 -13
134 -21 158 -20 62 -20 788 0 871 8 31 17 108 21 171 4 63 13 131 20 150 7 19
16 70 19 113 3 42 12 87 20 100 7 12 16 50 19 85 3 34 12 73 20 85 8 12 16 46
19 75 3 29 12 60 20 70 9 9 18 37 21 61 3 24 10 47 17 51 6 4 13 24 17 46 3
21 14 55 25 74 10 19 18 46 18 59 0 13 7 32 15 41 9 10 19 35 22 56 3 22 11
46 19 54 7 8 15 29 19 45 5 27 35 97 57 135 4 8 11 22 14 30 17 47 100 217
130 265 13 22 29 49 35 60 5 11 21 38 34 60 14 22 32 54 40 72 8 17 20 35 25
38 6 4 16 17 21 28 9 21 66 113 121 194 14 22 41 55 58 74 17 19 48 59 68 89
20 30 42 60 48 65 6 6 24 28 40 50 16 22 32 42 35 45 3 3 40 46 81 95 63 76
265 282 359 366 15 13 44 40 65 59 42 38 139 116 174 140 12 8 34 25 48 38 15
12 45 36 67 53 22 16 75 55 117 87 116 87 110 83 209 135 30 16 61 35 69 42
18 16 109 68 159 91 19 9 40 22 48 30 8 8 21 14 30 14 8 0 26 9 40 20 14 11
34 20 43 20 10 0 23 6 29 14 7 8 27 17 45 20 19 4 39 13 46 21 7 8 21 15 32
15 11 0 32 6 46 14 40 21 113 53 142 61 14 4 34 14 45 21 11 8 27 14 37 14 10
0 35 9 55 20 21 11 50 20 64 20 15 0 32 6 38 14 7 8 31 18 54 21 23 4 51 13
62 20 11 7 39 15 61 19 23 3 54 13 70 21 16 8 42 15 57 15 15 0 41 7 57 15 16
8 61 17 102 21 40 3 89 12 110 19 20 8 78 17 130 21 51 3 116 12 143 19 28 7
106 16 175 19 69 3 143 10 165 16 65 16 565 12 670 -5 50 -8 114 -15 143 -15
29 0 67 -6 85 -14 18 -7 78 -17 133 -21 54 -4 115 -13 134 -20 19 -7 58 -16
87 -19 28 -4 64 -13 80 -21 15 -8 46 -15 68 -15 35 0 74 -10 200 -52 17 -6 54
-16 84 -23 30 -8 59 -19 64 -24 6 -6 19 -11 29 -11 10 0 35 -9 55 -20 21 -11
44 -20 51 -20 7 0 30 -9 52 -20 22 -11 48 -20 58 -20 11 0 25 -7 32 -15 7 -8
21 -15 31 -15 19 0 82 -26 151 -61 20 -10 42 -19 48 -19 9 0 63 -31 188 -105
9 -6 35 -21 57 -33 22 -13 58 -34 80 -47 22 -13 49 -29 60 -35 21 -12 60 -35
141 -84 26 -16 78 -52 115 -80 37 -28 121 -91 186 -139 66 -48 133 -100 150
-115 17 -15 66 -58 109 -97 175 -156 393 -388 497 -528 16 -21 36 -45 46 -55
50 -50 134 -167 240 -332 15 -25 59 -92 97 -150 69 -105 234 -421 234 -448 0
-8 9 -25 20 -39 11 -14 20 -36 20 -48 0 -12 7 -28 15 -35 8 -7 17 -28 21 -49
4 -20 12 -43 19 -51 8 -8 17 -33 21 -55 4 -22 13 -45 20 -52 7 -7 15 -30 19
-52 4 -22 13 -45 21 -52 8 -6 14 -23 14 -38 0 -14 9 -41 20 -59 11 -18 20 -43
20 -55 0 -12 9 -39 20 -60 11 -20 20 -56 20 -79 1 -24 9 -61 20 -83 11 -22 19
-61 20 -86 0 -26 9 -66 20 -90 11 -25 20 -66 20 -94 0 -28 9 -76 20 -108 14
-39 20 -82 20 -140 0 -52 7 -104 17 -138 16 -48 18 -103 18 -494 0 -345 -3
-448 -13 -475 -8 -19 -17 -82 -21 -140 -5 -65 -14 -118 -25 -137 -10 -20 -16
-57 -16 -100 0 -46 -7 -82 -20 -112 -11 -24 -20 -62 -20 -85 0 -23 -9 -58 -20
-79 -11 -20 -20 -54 -20 -75 0 -20 -9 -54 -20 -75 -11 -20 -20 -47 -20 -60 0
-12 -7 -32 -15 -44 -8 -11 -17 -40 -21 -64 -4 -24 -12 -51 -19 -59 -8 -8 -17
-33 -21 -55 -4 -22 -13 -49 -20 -60 -7 -11 -16 -37 -19 -57 -4 -21 -13 -42
-20 -48 -8 -6 -16 -29 -20 -50 -4 -21 -13 -44 -21 -51 -8 -6 -14 -16 -14 -22
0 -5 -8 -28 -19 -51 -10 -23 -24 -52 -30 -66 -6 -14 -15 -32 -20 -40 -5 -8
-23 -44 -40 -80 -17 -36 -49 -96 -71 -135 -22 -38 -47 -84 -54 -101 -8 -17
-22 -36 -30 -44 -9 -7 -16 -18 -16 -26 0 -7 -6 -19 -12 -26 -24 -26 -55 -74
-62 -96 -4 -12 -11 -22 -16 -22 -5 0 -23 -24 -40 -52 -17 -29 -51 -80 -75
-113 -25 -33 -60 -83 -80 -110 -19 -28 -49 -66 -67 -85 -19 -19 -61 -69 -93
-109 -81 -102 -382 -403 -480 -481 -44 -36 -84 -70 -90 -76 -12 -14 -136 -108
-240 -184 -42 -30 -107 -77 -143 -105 -37 -27 -88 -61 -112 -74 -25 -13 -52
-29 -60 -36 -8 -6 -26 -17 -40 -23 -14 -7 -52 -28 -85 -48 -33 -19 -78 -44
-100 -54 -22 -11 -62 -33 -90 -49 -27 -16 -57 -30 -66 -30 -9 -1 -22 -8 -29
-16 -7 -8 -27 -17 -46 -21 -18 -3 -38 -12 -45 -20 -6 -8 -20 -14 -31 -14 -10
0 -36 -9 -56 -20 -20 -11 -68 -31 -107 -46 -38 -14 -74 -30 -80 -35 -5 -5 -21
-9 -35 -9 -14 0 -35 -7 -47 -15 -12 -9 -41 -20 -65 -25 -41 -8 -107 -28 -173
-51 -16 -6 -51 -15 -77 -19 -27 -5 -58 -16 -70 -24 -12 -9 -41 -16 -63 -16
-22 0 -53 -7 -70 -16 -20 -11 -71 -19 -150 -23 -185 -11 -216 -39 -195 -181 5
-36 10 -90 10 -120 0 -30 9 -97 20 -149 12 -57 20 -133 20 -195 0 -56 7 -130
15 -166 8 -36 19 -141 25 -235 5 -93 14 -186 20 -205 6 -19 15 -100 20 -180 5
-80 14 -161 19 -181 6 -20 15 -96 20 -170 5 -74 14 -146 20 -161 6 -15 13
-108 17 -205 3 -98 12 -204 20 -236 8 -31 17 -124 20 -205 3 -81 12 -171 20
-200 8 -30 17 -109 20 -175 3 -67 12 -156 19 -197 8 -41 17 -133 20 -205 4
-71 13 -150 20 -175 7 -25 16 -105 19 -177 3 -73 12 -156 20 -185 8 -30 17
-124 20 -218 3 -91 11 -181 16 -200 6 -19 15 -105 20 -190 6 -89 16 -172 24
-195 8 -22 15 -71 15 -110 1 -38 10 -142 22 -230 29 -210 26 -207 179 -175 30
7 69 18 85 25 17 7 48 16 69 20 22 4 49 13 60 21 11 8 30 14 41 14 11 0 38 9
60 20 22 11 49 20 60 20 12 0 30 7 41 15 10 8 30 15 44 15 14 0 43 9 65 20 22
11 48 20 58 20 21 0 105 32 230 88 26 12 56 22 65 22 10 0 27 7 38 15 10 8 25
15 33 15 8 0 32 9 55 19 23 10 70 31 106 46 110 47 422 193 460 215 8 5 43 23
77 39 34 17 64 35 68 41 3 5 14 10 24 10 10 0 28 9 41 20 13 11 28 20 34 20 6
0 35 16 65 35 29 19 55 35 58 35 3 0 30 16 58 35 29 19 64 40 76 45 13 6 40
21 61 33 20 12 58 35 85 50 26 15 53 31 59 35 56 35 109 73 164 117 36 28 73
54 82 58 18 6 440 319 467 346 9 9 73 63 141 120 120 99 234 198 290 251 109
102 173 166 295 295 144 151 154 162 296 325 46 52 89 100 95 105 6 6 24 28
40 50 16 22 43 56 61 75 18 19 33 38 33 42 0 4 22 33 49 65 101 123 222 289
266 366 9 15 20 27 25 27 6 0 10 6 10 14 0 8 11 27 23 43 35 41 92 125 100
146 3 9 11 17 16 17 5 0 13 10 17 23 3 12 12 29 20 37 7 9 27 43 45 75 17 33
55 96 83 140 66 103 68 107 110 190 38 73 49 93 78 137 10 15 18 34 18 41 0 8
9 26 20 40 11 14 20 33 20 42 0 9 9 28 20 42 11 14 20 32 20 40 0 8 9 26 20
40 11 14 20 31 20 38 0 7 6 18 14 24 8 7 17 27 20 46 4 19 11 35 16 35 5 0 15
20 21 45 6 24 17 50 25 56 8 6 14 22 14 34 0 12 9 34 20 48 11 14 20 31 20 37
0 7 8 31 19 54 10 23 23 56 30 74 6 17 16 47 22 65 7 17 20 50 30 73 11 23 19
47 19 55 0 8 9 28 20 44 11 17 20 38 20 48 0 9 9 34 20 54 11 21 20 52 20 69
0 17 6 37 14 43 8 6 17 32 21 58 4 25 13 60 20 77 20 45 45 124 56 176 5 25
16 57 24 72 8 14 15 37 15 51 0 14 9 53 19 88 11 35 22 86 26 112 3 26 12 62
19 80 8 18 17 55 20 82 4 28 13 70 21 95 7 25 17 77 20 115 4 39 12 79 17 89
6 11 15 55 19 97 5 43 16 104 24 136 8 31 15 87 15 123 0 37 9 100 20 141 12
46 20 107 20 164 0 50 8 137 16 195 25 166 31 877 10 1088 -10 88 -21 236 -25
329 -5 92 -14 181 -20 197 -6 16 -15 77 -20 136 -5 59 -14 116 -19 127 -6 11
-14 51 -18 89 -4 38 -12 83 -19 99 -7 17 -16 66 -20 110 -4 43 -13 94 -20 114
-7 20 -16 66 -20 101 -4 36 -14 77 -21 92 -8 15 -14 40 -14 55 -1 15 -8 46
-16 68 -9 22 -20 63 -25 90 -6 28 -17 64 -25 82 -7 17 -14 44 -14 60 0 15 -9
48 -20 72 -11 24 -20 53 -20 66 0 13 -9 42 -20 66 -11 24 -20 53 -20 64 0 11
-9 38 -20 60 -11 22 -20 49 -20 60 0 11 -9 40 -20 64 -11 24 -20 54 -20 67 0
12 -4 26 -10 29 -5 3 -16 27 -24 53 -8 26 -21 61 -30 77 -9 17 -16 36 -16 43
0 6 -9 29 -20 49 -11 21 -20 43 -20 50 0 7 -9 30 -20 50 -11 21 -20 47 -20 59
0 12 -7 27 -15 34 -8 7 -15 20 -15 29 0 9 -11 37 -25 63 -14 26 -25 53 -25 61
0 8 -7 20 -15 27 -8 7 -15 20 -15 30 0 9 -9 29 -20 43 -11 14 -20 34 -20 45 0
12 -4 23 -9 26 -10 7 -111 206 -111 219 0 5 -9 20 -20 34 -11 14 -20 32 -20
40 0 8 -9 26 -20 40 -11 14 -20 33 -20 41 0 9 -7 24 -17 34 -20 22 -38 54 -54
91 -6 15 -15 27 -19 27 -5 0 -14 15 -20 34 -6 19 -17 37 -25 40 -8 3 -15 15
-15 26 0 11 -9 28 -20 37 -11 10 -20 21 -20 25 0 4 -18 34 -40 65 -22 32 -40
63 -40 69 0 6 -9 19 -20 29 -11 10 -20 22 -20 27 0 4 -16 31 -35 58 -19 27
-35 54 -35 59 0 5 -17 31 -38 58 -22 26 -41 53 -43 60 -2 6 -19 28 -36 49 -18
22 -47 59 -63 84 -17 25 -51 72 -76 105 -24 33 -56 77 -69 98 -14 21 -33 45
-43 55 -9 9 -46 53 -81 97 -35 44 -70 85 -77 91 -8 6 -36 40 -64 75 -28 35
-75 89 -104 119 -28 30 -72 80 -96 109 -62 75 -311 320 -541 531 -51 47 -102
94 -113 105 -12 11 -57 48 -101 83 -70 55 -106 83 -175 142 -41 34 -57 46
-100 75 -25 16 -75 52 -112 80 -37 27 -98 73 -135 101 -37 28 -79 57 -93 64
-13 7 -30 18 -36 24 -19 18 -94 66 -214 137 -30 18 -59 37 -65 41 -5 5 -32 23
-59 41 -28 18 -61 40 -75 50 -14 9 -39 24 -56 33 -16 8 -48 26 -70 39 -22 14
-47 27 -55 30 -8 3 -28 13 -45 22 -16 8 -56 29 -87 45 -32 16 -60 33 -63 38
-4 6 -14 10 -24 10 -10 0 -28 9 -41 20 -13 11 -30 20 -37 20 -8 0 -26 9 -40
20 -14 11 -34 20 -43 20 -10 0 -23 7 -30 15 -7 8 -18 15 -25 15 -8 0 -51 19
-97 42 -46 22 -99 48 -118 56 -19 8 -52 23 -72 33 -20 11 -44 19 -53 19 -8 0
-32 9 -52 20 -21 11 -44 20 -51 20 -8 0 -26 6 -40 14 -15 8 -49 24 -77 36 -27
12 -63 28 -80 36 -16 7 -43 16 -60 20 -16 4 -41 12 -55 19 -37 18 -120 46
-155 52 -16 3 -39 12 -51 19 -11 8 -40 18 -65 23 -24 5 -57 14 -74 20 -72 25
-134 43 -180 53 -27 5 -55 14 -61 19 -6 5 -33 12 -60 15 -27 4 -60 12 -74 19
-14 7 -48 15 -77 19 -28 4 -64 13 -80 21 -15 8 -48 15 -73 15 -25 0 -58 7 -75
16 -16 9 -57 18 -90 21 -33 3 -71 11 -85 18 -14 7 -58 15 -98 19 -41 3 -84 12
-95 18 -12 6 -71 15 -132 19 -60 4 -137 14 -170 23 -35 10 -100 16 -161 16
-70 0 -115 5 -145 17 -39 14 -115 16 -654 19 -335 1 -646 -2 -690 -6z" fill="none" stroke="#c8a858" stroke-width="45" stroke-dasharray="65,40"/>
</g></g></g>
<g opacity="0.65"><g transform="translate(4106,4704) scale(0.8419)"><g transform="translate(0,18860) scale(1,-1)">
  <path d="M10618 12835 c-20 -7 -63 -16 -95 -20 -32 -4 -68 -13 -80 -21 -12 -8
-31 -14 -41 -14 -11 0 -31 -9 -45 -20 -14 -11 -28 -20 -32 -20 -17 0 -108 -72
-183 -144 -83 -80 -166 -192 -178 -241 -3 -14 -10 -28 -15 -31 -5 -2 -13 -24
-19 -47 -6 -23 -19 -58 -28 -77 -13 -29 -16 -70 -16 -225 1 -175 3 -193 22
-232 12 -23 22 -49 22 -57 0 -14 30 -83 51 -116 5 -8 16 -30 24 -47 9 -18 19
-33 24 -33 6 0 13 -10 16 -21 10 -30 141 -160 195 -194 25 -15 56 -34 70 -43
33 -22 131 -62 150 -62 8 0 29 -8 45 -17 24 -14 63 -18 200 -21 154 -3 175 -2
223 17 29 12 64 21 77 21 13 0 30 7 39 15 8 8 29 18 46 21 17 4 33 11 36 15 3
5 20 16 37 24 49 23 65 35 149 114 43 41 95 99 116 129 20 30 47 68 59 86 12
17 25 44 29 61 3 16 12 39 19 50 7 11 16 42 20 68 3 27 13 67 21 89 19 54 19
256 0 302 -7 18 -17 53 -21 77 -4 24 -13 53 -20 64 -7 11 -16 34 -20 52 -3 17
-13 37 -21 44 -8 6 -14 17 -14 23 0 19 -90 136 -145 190 -27 26 -75 64 -105
84 -30 20 -56 40 -58 43 -3 6 -65 38 -147 74 -16 8 -55 17 -85 20 -30 4 -74
13 -98 21 -53 17 -175 17 -224 -1z" fill="none" stroke="#c8a858" stroke-width="40" stroke-dasharray="55,35"/>
</g></g></g>
<g opacity="0.60"><g transform="translate(4106,4704) scale(0.8419)"><g transform="translate(0,18860) scale(1,-1)">
  <path d="M10010 10941 c-70 -10 -77 -16 -375 -296 -50 -48 -217 -202 -289
-266 -28 -26 -100 -86 -161 -135 -60 -48 -112 -91 -115 -94 -13 -16 -283 -252
-345 -301 -38 -31 -95 -80 -126 -110 -31 -30 -91 -85 -135 -124 -43 -38 -111
-100 -152 -138 -40 -37 -124 -109 -185 -161 -62 -51 -126 -106 -143 -122 -18
-16 -67 -60 -110 -99 -42 -38 -85 -77 -93 -85 -61 -57 -290 -262 -329 -293
-69 -56 -156 -133 -236 -208 -39 -37 -91 -84 -115 -105 -24 -22 -63 -56 -85
-77 -23 -20 -59 -49 -81 -65 -21 -15 -47 -34 -55 -42 -45 -42 -142 -129 -181
-164 -24 -21 -94 -85 -156 -143 -120 -112 -125 -117 -228 -208 -38 -33 -105
-93 -149 -134 -45 -41 -93 -82 -108 -91 -25 -15 -133 -111 -252 -224 -23 -21
-72 -63 -111 -94 -38 -31 -118 -99 -176 -152 -58 -52 -135 -121 -170 -152 -35
-31 -82 -73 -104 -94 -103 -95 -154 -141 -186 -169 -19 -16 -86 -76 -149 -134
-63 -57 -126 -111 -140 -120 -26 -16 -61 -46 -135 -116 -41 -39 -126 -114
-209 -185 -22 -19 -70 -62 -106 -95 -36 -33 -103 -91 -149 -130 -88 -74 -103
-87 -191 -169 -31 -28 -82 -73 -115 -101 -33 -27 -80 -68 -105 -90 -25 -23
-70 -61 -100 -85 -30 -25 -62 -52 -70 -60 -9 -8 -30 -27 -47 -41 -17 -15 -55
-49 -85 -75 -30 -27 -81 -71 -114 -99 -32 -27 -90 -79 -129 -115 -38 -36 -97
-88 -130 -115 -32 -28 -66 -57 -75 -65 -9 -8 -61 -55 -115 -105 -55 -49 -124
-113 -155 -142 -78 -73 -101 -93 -150 -136 -24 -21 -81 -74 -127 -117 -45 -43
-106 -94 -136 -114 -74 -49 -137 -114 -130 -135 7 -18 53 -60 67 -61 5 0 28
-8 50 -18 60 -27 137 -53 171 -59 17 -3 48 -13 71 -24 22 -10 46 -19 53 -19 7
0 25 -6 39 -14 15 -8 48 -24 75 -35 26 -12 67 -30 91 -41 24 -11 50 -20 59
-20 8 0 28 -7 44 -15 54 -28 119 -55 131 -55 7 0 29 -9 49 -20 21 -11 43 -20
50 -20 6 0 24 -6 40 -14 15 -8 44 -19 63 -26 19 -6 58 -21 85 -32 28 -11 69
-26 92 -32 24 -7 48 -17 55 -24 7 -7 19 -12 28 -12 8 0 32 -9 53 -20 20 -11
44 -20 52 -20 8 0 32 -9 52 -20 21 -11 44 -20 51 -20 8 0 26 -6 40 -14 54 -27
123 -56 135 -56 7 0 29 -9 50 -20 20 -11 45 -20 56 -20 10 0 24 -6 30 -14 7
-8 27 -17 45 -20 19 -4 39 -13 46 -21 7 -8 21 -15 32 -15 10 0 36 -9 58 -20
22 -11 47 -20 57 -20 10 0 27 -6 38 -14 11 -7 38 -16 59 -20 22 -4 49 -14 60
-22 11 -8 29 -14 40 -14 10 0 37 -8 60 -19 23 -10 62 -28 87 -40 25 -11 52
-21 60 -21 8 0 23 -7 33 -15 11 -8 26 -15 34 -15 8 0 36 -9 61 -21 25 -12 66
-30 91 -41 25 -11 58 -27 73 -34 16 -8 34 -14 40 -14 7 -1 30 -9 52 -20 22
-11 48 -19 58 -20 9 0 34 -9 54 -20 21 -11 45 -20 53 -20 9 0 24 -6 35 -14 11
-7 34 -16 50 -20 17 -4 44 -13 60 -20 104 -47 127 -56 141 -56 9 0 28 -6 42
-14 44 -23 118 -56 128 -56 5 -1 27 -9 49 -20 22 -11 46 -19 53 -20 8 0 26 -6
40 -14 34 -17 151 -65 322 -130 19 -8 58 -23 85 -34 28 -11 66 -26 85 -32 19
-7 53 -21 76 -31 23 -11 50 -19 61 -19 10 0 23 -4 28 -9 9 -9 32 -18 137 -56
24 -9 58 -22 76 -30 17 -8 49 -22 70 -31 20 -9 54 -24 74 -35 20 -10 45 -19
55 -19 10 0 28 -6 39 -14 11 -8 37 -17 57 -21 20 -4 41 -13 48 -21 6 -8 20
-14 30 -14 11 0 36 -9 56 -20 21 -11 47 -20 58 -20 11 0 34 -9 50 -20 17 -11
39 -20 50 -20 11 0 30 -6 41 -14 11 -8 37 -17 57 -21 20 -4 41 -13 48 -21 6
-8 22 -14 35 -14 13 0 41 -9 61 -20 21 -11 43 -20 50 -20 7 0 30 -9 50 -20 21
-11 45 -20 53 -20 9 0 25 -7 36 -15 10 -8 26 -15 34 -15 8 0 32 -9 53 -20 20
-11 43 -20 50 -20 7 0 29 -9 50 -20 20 -11 45 -20 55 -20 10 0 27 -7 38 -15
10 -8 26 -15 34 -15 9 0 33 -9 55 -20 22 -11 48 -20 60 -20 11 0 34 -9 50 -20
17 -11 39 -20 51 -20 11 0 29 -7 40 -15 10 -8 25 -15 32 -15 7 0 39 -12 70
-26 101 -46 120 -54 129 -54 15 0 124 -47 136 -59 6 -6 21 -11 33 -11 13 0 26
-4 29 -10 3 -5 27 -16 53 -24 69 -22 133 -45 167 -60 17 -7 45 -19 63 -25 17
-6 47 -16 65 -22 17 -6 46 -17 62 -25 17 -7 55 -22 85 -34 30 -12 74 -30 98
-41 23 -10 49 -19 56 -19 7 0 19 -7 26 -15 7 -8 22 -15 34 -15 11 0 35 -9 51
-20 17 -11 38 -20 48 -20 10 0 32 -7 50 -17 18 -9 46 -20 62 -24 55 -15 136
-46 148 -58 6 -6 19 -11 29 -11 10 0 35 -9 55 -20 21 -11 43 -20 50 -20 7 0
30 -9 50 -20 21 -11 48 -20 60 -20 12 0 24 -4 28 -9 3 -5 30 -17 60 -25 30 -9
57 -21 60 -26 3 -6 15 -10 26 -10 10 0 36 -9 56 -20 21 -11 42 -20 48 -20 6 0
28 -9 50 -20 22 -11 47 -20 56 -20 9 0 22 -7 29 -15 7 -8 22 -15 34 -15 11 0
35 -9 51 -20 17 -11 39 -20 50 -20 11 0 29 -7 39 -15 11 -8 27 -15 35 -15 8 0
33 -8 55 -18 40 -18 65 -28 136 -52 19 -7 49 -18 65 -26 17 -7 44 -16 60 -20
28 -7 76 -28 137 -60 14 -8 33 -14 42 -14 9 0 33 -9 53 -20 21 -11 43 -20 50
-20 14 0 72 -24 208 -85 64 -29 108 -45 126 -45 34 0 42 39 30 131 -6 45 -11
108 -11 139 0 31 -6 79 -14 106 -8 27 -17 105 -21 174 -4 69 -13 166 -20 215
-8 50 -17 133 -20 185 -3 52 -12 131 -20 175 -7 44 -16 141 -20 215 -3 74 -12
171 -20 215 -7 44 -16 143 -20 220 -4 77 -13 165 -20 195 -7 30 -16 114 -20
185 -3 72 -12 155 -20 185 -7 30 -15 111 -19 180 -3 69 -10 141 -16 160 -6 19
-16 122 -21 229 -5 106 -14 212 -20 235 -5 22 -14 100 -19 171 -5 72 -16 148
-24 170 -11 28 -15 81 -16 181 0 98 -5 156 -15 190 -9 28 -18 106 -21 184 -3
75 -12 156 -20 182 -9 27 -19 120 -24 220 -5 95 -13 189 -19 208 -7 19 -14 94
-17 165 -3 72 -12 150 -19 175 -8 25 -17 113 -20 195 -4 83 -13 173 -20 200
-7 28 -16 109 -20 180 -4 72 -13 155 -20 185 -7 30 -16 140 -19 243 -4 103
-12 200 -18 215 -6 15 -15 86 -19 157 -4 74 -14 147 -23 170 -11 29 -15 80
-16 180 0 104 -5 160 -20 220 -13 51 -20 114 -20 176 0 59 -6 115 -16 145 -9
29 -19 117 -24 219 -5 97 -15 193 -24 225 -10 33 -16 94 -16 156 0 67 -5 114
-15 137 -9 23 -16 90 -21 198 -3 90 -12 184 -19 209 -7 25 -16 106 -20 180 -3
74 -12 155 -20 180 -8 27 -16 118 -19 226 -3 102 -12 207 -20 240 -8 33 -17
127 -20 210 -4 85 -13 171 -20 195 -8 25 -17 108 -20 190 -3 80 -11 159 -17
175 -7 16 -15 97 -19 179 -5 116 -10 158 -24 185 -21 40 -64 79 -87 80 -9 0
-22 7 -29 15 -7 8 -27 17 -46 21 -18 3 -38 12 -45 20 -6 8 -21 14 -34 14 -12
0 -32 9 -45 20 -13 11 -33 20 -44 20 -12 0 -31 6 -42 14 -11 8 -38 17 -60 21
-21 4 -46 8 -54 9 -8 2 -35 0 -60 -3z" fill="none" stroke="#c8a858" stroke-width="40" stroke-dasharray="55,35"/>
</g></g></g>

<!-- Layer 4: Inner highlight stitch -->
<g opacity="0.40"><g transform="translate(4106,4704) scale(0.8419)"><g transform="translate(0,18860) scale(1,-1)">
  <path d="M9355 18150 c-44 -4 -96 -13 -115 -19 -19 -6 -78 -11 -130 -11 -56 0
-120 -7 -155 -16 -33 -9 -114 -19 -180 -23 -66 -4 -129 -12 -140 -18 -11 -6
-49 -14 -84 -18 -35 -4 -79 -14 -97 -21 -18 -8 -54 -14 -79 -14 -25 0 -71 -9
-102 -20 -32 -11 -79 -20 -106 -20 -26 0 -61 -7 -77 -15 -16 -9 -51 -18 -77
-22 -27 -3 -60 -12 -75 -19 -15 -8 -37 -14 -50 -14 -13 -1 -41 -9 -63 -20 -22
-11 -54 -19 -70 -20 -17 0 -40 -6 -51 -14 -11 -8 -42 -17 -68 -21 -27 -4 -61
-14 -75 -21 -14 -8 -36 -14 -49 -14 -12 0 -40 -9 -62 -20 -22 -11 -47 -20 -57
-20 -22 0 -126 -40 -234 -89 -25 -12 -53 -21 -61 -21 -9 0 -21 -6 -27 -14 -7
-8 -28 -17 -48 -21 -20 -3 -45 -12 -57 -20 -12 -7 -35 -16 -53 -20 -17 -3 -37
-13 -44 -21 -6 -8 -22 -14 -35 -14 -13 0 -38 -9 -56 -20 -18 -11 -43 -20 -54
-20 -12 0 -27 -6 -33 -14 -7 -8 -27 -17 -45 -20 -19 -4 -39 -13 -46 -21 -7 -8
-21 -15 -31 -15 -10 0 -20 -4 -24 -9 -3 -5 -51 -33 -108 -61 -56 -28 -109 -55
-117 -60 -8 -6 -26 -14 -40 -20 -14 -5 -32 -14 -40 -20 -8 -5 -26 -14 -40 -20
-23 -9 -33 -15 -77 -40 -10 -6 -33 -17 -52 -26 -18 -8 -52 -27 -75 -42 -22
-15 -52 -32 -66 -39 -14 -7 -38 -22 -55 -33 -16 -11 -41 -25 -55 -32 -14 -7
-45 -27 -69 -45 -24 -18 -48 -33 -53 -33 -5 0 -21 -9 -36 -19 -15 -11 -47 -32
-71 -48 -24 -15 -56 -36 -70 -46 -14 -9 -39 -24 -56 -31 -16 -8 -41 -25 -55
-38 -24 -22 -122 -96 -171 -128 -12 -8 -29 -22 -38 -30 -9 -8 -41 -32 -71 -52
-52 -34 -68 -48 -145 -116 -41 -36 -102 -82 -110 -82 -4 0 -21 -13 -38 -29
-18 -16 -75 -66 -127 -112 -52 -46 -97 -86 -100 -90 -3 -3 -45 -39 -95 -80
-49 -40 -117 -101 -150 -135 -147 -151 -327 -344 -372 -399 -28 -33 -58 -67
-67 -75 -10 -8 -46 -48 -79 -90 -34 -41 -73 -88 -89 -104 -51 -54 -198 -240
-198 -251 0 -4 -17 -28 -37 -54 -21 -25 -42 -53 -48 -62 -27 -44 -90 -135 -98
-140 -11 -8 -101 -134 -128 -179 -11 -19 -30 -51 -42 -72 -12 -20 -36 -60 -53
-90 -18 -29 -39 -60 -48 -67 -9 -7 -16 -19 -16 -26 0 -7 -16 -33 -35 -58 -19
-25 -40 -56 -46 -69 -5 -13 -21 -41 -34 -63 -14 -22 -31 -54 -39 -71 -8 -17
-22 -36 -30 -44 -9 -7 -16 -19 -16 -27 0 -8 -9 -26 -20 -40 -11 -14 -20 -34
-20 -43 0 -10 -7 -23 -15 -30 -8 -7 -15 -20 -15 -30 0 -9 -9 -29 -20 -43 -11
-14 -20 -30 -20 -35 0 -14 -52 -114 -67 -130 -7 -7 -13 -20 -13 -28 0 -8 -8
-32 -19 -52 -10 -20 -28 -57 -39 -82 -11 -25 -29 -66 -41 -91 -12 -25 -21 -53
-21 -61 0 -9 -6 -21 -14 -27 -8 -7 -18 -25 -21 -41 -3 -15 -15 -45 -26 -66
-10 -21 -19 -46 -19 -55 0 -9 -6 -22 -14 -28 -7 -6 -16 -26 -20 -44 -6 -32
-14 -53 -55 -137 -11 -25 -21 -54 -21 -65 0 -11 -9 -37 -20 -58 -11 -20 -20
-47 -20 -60 0 -12 -9 -39 -20 -60 -11 -20 -20 -46 -20 -57 0 -12 -9 -38 -20
-60 -11 -22 -20 -47 -20 -57 -1 -10 -9 -36 -20 -58 -11 -22 -19 -53 -20 -68 0
-15 -7 -41 -15 -58 -9 -16 -20 -58 -24 -92 -5 -34 -16 -80 -25 -102 -8 -22
-15 -54 -16 -70 0 -17 -6 -40 -14 -51 -8 -12 -18 -45 -21 -75 -4 -30 -13 -71
-20 -91 -8 -20 -17 -67 -21 -105 -4 -37 -12 -82 -19 -99 -7 -18 -16 -67 -20
-110 -3 -44 -13 -99 -20 -124 -7 -25 -16 -81 -20 -125 -3 -44 -12 -100 -20
-125 -7 -25 -16 -97 -19 -160 -4 -63 -13 -149 -21 -190 -31 -169 -24 -1387 9
-1530 9 -36 16 -94 16 -130 0 -36 9 -101 20 -145 11 -44 20 -99 20 -121 0 -23
6 -59 14 -80 7 -22 17 -79 21 -129 4 -49 13 -104 20 -120 6 -17 15 -57 20 -90
4 -33 11 -68 17 -78 5 -10 15 -53 23 -95 14 -82 29 -140 52 -212 8 -25 19 -74
24 -109 6 -36 17 -77 25 -92 8 -16 14 -41 14 -56 0 -16 9 -45 20 -66 11 -20
20 -47 20 -59 0 -13 9 -36 20 -53 11 -16 20 -43 20 -58 0 -15 9 -45 20 -67 11
-22 20 -46 20 -55 0 -8 9 -32 20 -52 11 -21 20 -46 20 -55 0 -10 9 -35 20 -55
11 -21 20 -47 20 -58 0 -12 9 -38 20 -60 11 -22 20 -49 20 -61 0 -12 6 -27 14
-33 8 -7 18 -27 21 -44 4 -18 13 -39 20 -47 7 -8 15 -31 19 -51 4 -21 13 -42
20 -48 8 -7 17 -27 20 -45 4 -19 13 -39 21 -46 8 -7 15 -20 15 -30 0 -9 9 -29
20 -43 11 -14 20 -33 20 -42 0 -9 9 -28 20 -42 11 -14 20 -31 20 -38 0 -16 59
-133 71 -140 5 -4 9 -17 9 -30 0 -13 5 -27 11 -31 6 -3 17 -21 25 -38 8 -17
19 -38 24 -46 6 -8 15 -26 21 -40 5 -14 21 -43 34 -65 14 -22 32 -53 40 -70
38 -75 108 -189 134 -221 8 -10 81 -139 106 -189 27 -53 99 -50 160 7 17 15
58 54 91 85 121 114 250 231 284 259 19 16 37 31 40 35 3 3 43 36 90 74 47 37
92 75 101 84 9 9 51 48 94 86 43 39 94 86 114 105 42 40 387 346 527 465 51
44 98 87 203 185 30 28 140 125 216 191 28 24 80 70 115 101 36 31 76 66 90
77 57 48 79 67 169 150 51 47 101 93 110 101 9 9 41 36 71 60 51 41 204 174
241 210 9 8 42 38 75 65 50 43 81 71 194 175 31 29 135 116 178 149 24 18 66
56 94 84 28 28 92 86 142 130 50 44 98 87 107 96 46 46 180 162 247 214 121
94 172 147 172 179 0 27 -60 124 -109 177 -12 15 -30 40 -38 56 -9 17 -22 34
-29 38 -8 4 -14 12 -14 17 0 5 -14 29 -30 52 -54 76 -163 244 -174 268 -4 8
-18 33 -31 55 -14 22 -30 51 -36 65 -6 14 -15 32 -20 40 -5 8 -14 26 -20 40
-6 14 -15 32 -20 40 -5 8 -14 26 -19 40 -6 14 -15 32 -20 40 -6 8 -13 22 -16
30 -8 22 -44 100 -65 142 -11 20 -19 46 -19 56 0 11 -7 25 -15 32 -8 7 -17 28
-21 49 -4 20 -15 50 -25 67 -11 17 -19 40 -19 50 0 11 -9 36 -20 57 -11 20
-20 46 -20 57 0 11 -9 37 -20 57 -11 21 -20 49 -20 63 0 14 -9 43 -20 65 -11
22 -20 53 -20 70 0 17 -6 40 -14 51 -8 11 -18 49 -22 85 -4 35 -12 75 -19 89
-7 14 -16 68 -21 120 -4 52 -12 108 -19 125 -7 16 -16 82 -20 145 -3 63 -13
134 -21 158 -20 62 -20 788 0 871 8 31 17 108 21 171 4 63 13 131 20 150 7 19
16 70 19 113 3 42 12 87 20 100 7 12 16 50 19 85 3 34 12 73 20 85 8 12 16 46
19 75 3 29 12 60 20 70 9 9 18 37 21 61 3 24 10 47 17 51 6 4 13 24 17 46 3
21 14 55 25 74 10 19 18 46 18 59 0 13 7 32 15 41 9 10 19 35 22 56 3 22 11
46 19 54 7 8 15 29 19 45 5 27 35 97 57 135 4 8 11 22 14 30 17 47 100 217
130 265 13 22 29 49 35 60 5 11 21 38 34 60 14 22 32 54 40 72 8 17 20 35 25
38 6 4 16 17 21 28 9 21 66 113 121 194 14 22 41 55 58 74 17 19 48 59 68 89
20 30 42 60 48 65 6 6 24 28 40 50 16 22 32 42 35 45 3 3 40 46 81 95 63 76
265 282 359 366 15 13 44 40 65 59 42 38 139 116 174 140 12 8 34 25 48 38 15
12 45 36 67 53 22 16 75 55 117 87 116 87 110 83 209 135 30 16 61 35 69 42
18 16 109 68 159 91 19 9 40 22 48 30 8 8 21 14 30 14 8 0 26 9 40 20 14 11
34 20 43 20 10 0 23 6 29 14 7 8 27 17 45 20 19 4 39 13 46 21 7 8 21 15 32
15 11 0 32 6 46 14 40 21 113 53 142 61 14 4 34 14 45 21 11 8 27 14 37 14 10
0 35 9 55 20 21 11 50 20 64 20 15 0 32 6 38 14 7 8 31 18 54 21 23 4 51 13
62 20 11 7 39 15 61 19 23 3 54 13 70 21 16 8 42 15 57 15 15 0 41 7 57 15 16
8 61 17 102 21 40 3 89 12 110 19 20 8 78 17 130 21 51 3 116 12 143 19 28 7
106 16 175 19 69 3 143 10 165 16 65 16 565 12 670 -5 50 -8 114 -15 143 -15
29 0 67 -6 85 -14 18 -7 78 -17 133 -21 54 -4 115 -13 134 -20 19 -7 58 -16
87 -19 28 -4 64 -13 80 -21 15 -8 46 -15 68 -15 35 0 74 -10 200 -52 17 -6 54
-16 84 -23 30 -8 59 -19 64 -24 6 -6 19 -11 29 -11 10 0 35 -9 55 -20 21 -11
44 -20 51 -20 7 0 30 -9 52 -20 22 -11 48 -20 58 -20 11 0 25 -7 32 -15 7 -8
21 -15 31 -15 19 0 82 -26 151 -61 20 -10 42 -19 48 -19 9 0 63 -31 188 -105
9 -6 35 -21 57 -33 22 -13 58 -34 80 -47 22 -13 49 -29 60 -35 21 -12 60 -35
141 -84 26 -16 78 -52 115 -80 37 -28 121 -91 186 -139 66 -48 133 -100 150
-115 17 -15 66 -58 109 -97 175 -156 393 -388 497 -528 16 -21 36 -45 46 -55
50 -50 134 -167 240 -332 15 -25 59 -92 97 -150 69 -105 234 -421 234 -448 0
-8 9 -25 20 -39 11 -14 20 -36 20 -48 0 -12 7 -28 15 -35 8 -7 17 -28 21 -49
4 -20 12 -43 19 -51 8 -8 17 -33 21 -55 4 -22 13 -45 20 -52 7 -7 15 -30 19
-52 4 -22 13 -45 21 -52 8 -6 14 -23 14 -38 0 -14 9 -41 20 -59 11 -18 20 -43
20 -55 0 -12 9 -39 20 -60 11 -20 20 -56 20 -79 1 -24 9 -61 20 -83 11 -22 19
-61 20 -86 0 -26 9 -66 20 -90 11 -25 20 -66 20 -94 0 -28 9 -76 20 -108 14
-39 20 -82 20 -140 0 -52 7 -104 17 -138 16 -48 18 -103 18 -494 0 -345 -3
-448 -13 -475 -8 -19 -17 -82 -21 -140 -5 -65 -14 -118 -25 -137 -10 -20 -16
-57 -16 -100 0 -46 -7 -82 -20 -112 -11 -24 -20 -62 -20 -85 0 -23 -9 -58 -20
-79 -11 -20 -20 -54 -20 -75 0 -20 -9 -54 -20 -75 -11 -20 -20 -47 -20 -60 0
-12 -7 -32 -15 -44 -8 -11 -17 -40 -21 -64 -4 -24 -12 -51 -19 -59 -8 -8 -17
-33 -21 -55 -4 -22 -13 -49 -20 -60 -7 -11 -16 -37 -19 -57 -4 -21 -13 -42
-20 -48 -8 -6 -16 -29 -20 -50 -4 -21 -13 -44 -21 -51 -8 -6 -14 -16 -14 -22
0 -5 -8 -28 -19 -51 -10 -23 -24 -52 -30 -66 -6 -14 -15 -32 -20 -40 -5 -8
-23 -44 -40 -80 -17 -36 -49 -96 -71 -135 -22 -38 -47 -84 -54 -101 -8 -17
-22 -36 -30 -44 -9 -7 -16 -18 -16 -26 0 -7 -6 -19 -12 -26 -24 -26 -55 -74
-62 -96 -4 -12 -11 -22 -16 -22 -5 0 -23 -24 -40 -52 -17 -29 -51 -80 -75
-113 -25 -33 -60 -83 -80 -110 -19 -28 -49 -66 -67 -85 -19 -19 -61 -69 -93
-109 -81 -102 -382 -403 -480 -481 -44 -36 -84 -70 -90 -76 -12 -14 -136 -108
-240 -184 -42 -30 -107 -77 -143 -105 -37 -27 -88 -61 -112 -74 -25 -13 -52
-29 -60 -36 -8 -6 -26 -17 -40 -23 -14 -7 -52 -28 -85 -48 -33 -19 -78 -44
-100 -54 -22 -11 -62 -33 -90 -49 -27 -16 -57 -30 -66 -30 -9 -1 -22 -8 -29
-16 -7 -8 -27 -17 -46 -21 -18 -3 -38 -12 -45 -20 -6 -8 -20 -14 -31 -14 -10
0 -36 -9 -56 -20 -20 -11 -68 -31 -107 -46 -38 -14 -74 -30 -80 -35 -5 -5 -21
-9 -35 -9 -14 0 -35 -7 -47 -15 -12 -9 -41 -20 -65 -25 -41 -8 -107 -28 -173
-51 -16 -6 -51 -15 -77 -19 -27 -5 -58 -16 -70 -24 -12 -9 -41 -16 -63 -16
-22 0 -53 -7 -70 -16 -20 -11 -71 -19 -150 -23 -185 -11 -216 -39 -195 -181 5
-36 10 -90 10 -120 0 -30 9 -97 20 -149 12 -57 20 -133 20 -195 0 -56 7 -130
15 -166 8 -36 19 -141 25 -235 5 -93 14 -186 20 -205 6 -19 15 -100 20 -180 5
-80 14 -161 19 -181 6 -20 15 -96 20 -170 5 -74 14 -146 20 -161 6 -15 13
-108 17 -205 3 -98 12 -204 20 -236 8 -31 17 -124 20 -205 3 -81 12 -171 20
-200 8 -30 17 -109 20 -175 3 -67 12 -156 19 -197 8 -41 17 -133 20 -205 4
-71 13 -150 20 -175 7 -25 16 -105 19 -177 3 -73 12 -156 20 -185 8 -30 17
-124 20 -218 3 -91 11 -181 16 -200 6 -19 15 -105 20 -190 6 -89 16 -172 24
-195 8 -22 15 -71 15 -110 1 -38 10 -142 22 -230 29 -210 26 -207 179 -175 30
7 69 18 85 25 17 7 48 16 69 20 22 4 49 13 60 21 11 8 30 14 41 14 11 0 38 9
60 20 22 11 49 20 60 20 12 0 30 7 41 15 10 8 30 15 44 15 14 0 43 9 65 20 22
11 48 20 58 20 21 0 105 32 230 88 26 12 56 22 65 22 10 0 27 7 38 15 10 8 25
15 33 15 8 0 32 9 55 19 23 10 70 31 106 46 110 47 422 193 460 215 8 5 43 23
77 39 34 17 64 35 68 41 3 5 14 10 24 10 10 0 28 9 41 20 13 11 28 20 34 20 6
0 35 16 65 35 29 19 55 35 58 35 3 0 30 16 58 35 29 19 64 40 76 45 13 6 40
21 61 33 20 12 58 35 85 50 26 15 53 31 59 35 56 35 109 73 164 117 36 28 73
54 82 58 18 6 440 319 467 346 9 9 73 63 141 120 120 99 234 198 290 251 109
102 173 166 295 295 144 151 154 162 296 325 46 52 89 100 95 105 6 6 24 28
40 50 16 22 43 56 61 75 18 19 33 38 33 42 0 4 22 33 49 65 101 123 222 289
266 366 9 15 20 27 25 27 6 0 10 6 10 14 0 8 11 27 23 43 35 41 92 125 100
146 3 9 11 17 16 17 5 0 13 10 17 23 3 12 12 29 20 37 7 9 27 43 45 75 17 33
55 96 83 140 66 103 68 107 110 190 38 73 49 93 78 137 10 15 18 34 18 41 0 8
9 26 20 40 11 14 20 33 20 42 0 9 9 28 20 42 11 14 20 32 20 40 0 8 9 26 20
40 11 14 20 31 20 38 0 7 6 18 14 24 8 7 17 27 20 46 4 19 11 35 16 35 5 0 15
20 21 45 6 24 17 50 25 56 8 6 14 22 14 34 0 12 9 34 20 48 11 14 20 31 20 37
0 7 8 31 19 54 10 23 23 56 30 74 6 17 16 47 22 65 7 17 20 50 30 73 11 23 19
47 19 55 0 8 9 28 20 44 11 17 20 38 20 48 0 9 9 34 20 54 11 21 20 52 20 69
0 17 6 37 14 43 8 6 17 32 21 58 4 25 13 60 20 77 20 45 45 124 56 176 5 25
16 57 24 72 8 14 15 37 15 51 0 14 9 53 19 88 11 35 22 86 26 112 3 26 12 62
19 80 8 18 17 55 20 82 4 28 13 70 21 95 7 25 17 77 20 115 4 39 12 79 17 89
6 11 15 55 19 97 5 43 16 104 24 136 8 31 15 87 15 123 0 37 9 100 20 141 12
46 20 107 20 164 0 50 8 137 16 195 25 166 31 877 10 1088 -10 88 -21 236 -25
329 -5 92 -14 181 -20 197 -6 16 -15 77 -20 136 -5 59 -14 116 -19 127 -6 11
-14 51 -18 89 -4 38 -12 83 -19 99 -7 17 -16 66 -20 110 -4 43 -13 94 -20 114
-7 20 -16 66 -20 101 -4 36 -14 77 -21 92 -8 15 -14 40 -14 55 -1 15 -8 46
-16 68 -9 22 -20 63 -25 90 -6 28 -17 64 -25 82 -7 17 -14 44 -14 60 0 15 -9
48 -20 72 -11 24 -20 53 -20 66 0 13 -9 42 -20 66 -11 24 -20 53 -20 64 0 11
-9 38 -20 60 -11 22 -20 49 -20 60 0 11 -9 40 -20 64 -11 24 -20 54 -20 67 0
12 -4 26 -10 29 -5 3 -16 27 -24 53 -8 26 -21 61 -30 77 -9 17 -16 36 -16 43
0 6 -9 29 -20 49 -11 21 -20 43 -20 50 0 7 -9 30 -20 50 -11 21 -20 47 -20 59
0 12 -7 27 -15 34 -8 7 -15 20 -15 29 0 9 -11 37 -25 63 -14 26 -25 53 -25 61
0 8 -7 20 -15 27 -8 7 -15 20 -15 30 0 9 -9 29 -20 43 -11 14 -20 34 -20 45 0
12 -4 23 -9 26 -10 7 -111 206 -111 219 0 5 -9 20 -20 34 -11 14 -20 32 -20
40 0 8 -9 26 -20 40 -11 14 -20 33 -20 41 0 9 -7 24 -17 34 -20 22 -38 54 -54
91 -6 15 -15 27 -19 27 -5 0 -14 15 -20 34 -6 19 -17 37 -25 40 -8 3 -15 15
-15 26 0 11 -9 28 -20 37 -11 10 -20 21 -20 25 0 4 -18 34 -40 65 -22 32 -40
63 -40 69 0 6 -9 19 -20 29 -11 10 -20 22 -20 27 0 4 -16 31 -35 58 -19 27
-35 54 -35 59 0 5 -17 31 -38 58 -22 26 -41 53 -43 60 -2 6 -19 28 -36 49 -18
22 -47 59 -63 84 -17 25 -51 72 -76 105 -24 33 -56 77 -69 98 -14 21 -33 45
-43 55 -9 9 -46 53 -81 97 -35 44 -70 85 -77 91 -8 6 -36 40 -64 75 -28 35
-75 89 -104 119 -28 30 -72 80 -96 109 -62 75 -311 320 -541 531 -51 47 -102
94 -113 105 -12 11 -57 48 -101 83 -70 55 -106 83 -175 142 -41 34 -57 46
-100 75 -25 16 -75 52 -112 80 -37 27 -98 73 -135 101 -37 28 -79 57 -93 64
-13 7 -30 18 -36 24 -19 18 -94 66 -214 137 -30 18 -59 37 -65 41 -5 5 -32 23
-59 41 -28 18 -61 40 -75 50 -14 9 -39 24 -56 33 -16 8 -48 26 -70 39 -22 14
-47 27 -55 30 -8 3 -28 13 -45 22 -16 8 -56 29 -87 45 -32 16 -60 33 -63 38
-4 6 -14 10 -24 10 -10 0 -28 9 -41 20 -13 11 -30 20 -37 20 -8 0 -26 9 -40
20 -14 11 -34 20 -43 20 -10 0 -23 7 -30 15 -7 8 -18 15 -25 15 -8 0 -51 19
-97 42 -46 22 -99 48 -118 56 -19 8 -52 23 -72 33 -20 11 -44 19 -53 19 -8 0
-32 9 -52 20 -21 11 -44 20 -51 20 -8 0 -26 6 -40 14 -15 8 -49 24 -77 36 -27
12 -63 28 -80 36 -16 7 -43 16 -60 20 -16 4 -41 12 -55 19 -37 18 -120 46
-155 52 -16 3 -39 12 -51 19 -11 8 -40 18 -65 23 -24 5 -57 14 -74 20 -72 25
-134 43 -180 53 -27 5 -55 14 -61 19 -6 5 -33 12 -60 15 -27 4 -60 12 -74 19
-14 7 -48 15 -77 19 -28 4 -64 13 -80 21 -15 8 -48 15 -73 15 -25 0 -58 7 -75
16 -16 9 -57 18 -90 21 -33 3 -71 11 -85 18 -14 7 -58 15 -98 19 -41 3 -84 12
-95 18 -12 6 -71 15 -132 19 -60 4 -137 14 -170 23 -35 10 -100 16 -161 16
-70 0 -115 5 -145 17 -39 14 -115 16 -654 19 -335 1 -646 -2 -690 -6z" fill="none" stroke="#e0c870" stroke-width="22" stroke-dasharray="30,25"/>
</g></g></g>

<!-- ===== DECORATIVE CROSS-STITCH MARKS at 8 positions ===== -->
<g transform="translate(12500,1600)">
  <line x1="-250" y1="-250" x2="250" y2="250" stroke="#b89050" stroke-width="35" stroke-dasharray="60,35" opacity="0.6" stroke-linecap="round"/>
  <line x1="250" y1="-250" x2="-250" y2="250" stroke="#b89050" stroke-width="35" stroke-dasharray="60,35" opacity="0.6" stroke-linecap="round"/>
</g>
<g transform="translate(20207,4793)">
  <line x1="-250" y1="-250" x2="250" y2="250" stroke="#b89050" stroke-width="35" stroke-dasharray="60,35" opacity="0.6" stroke-linecap="round"/>
  <line x1="250" y1="-250" x2="-250" y2="250" stroke="#b89050" stroke-width="35" stroke-dasharray="60,35" opacity="0.6" stroke-linecap="round"/>
</g>
<g transform="translate(23400,12500)">
  <line x1="-250" y1="-250" x2="250" y2="250" stroke="#b89050" stroke-width="35" stroke-dasharray="60,35" opacity="0.6" stroke-linecap="round"/>
  <line x1="250" y1="-250" x2="-250" y2="250" stroke="#b89050" stroke-width="35" stroke-dasharray="60,35" opacity="0.6" stroke-linecap="round"/>
</g>
<g transform="translate(20207,20207)">
  <line x1="-250" y1="-250" x2="250" y2="250" stroke="#b89050" stroke-width="35" stroke-dasharray="60,35" opacity="0.6" stroke-linecap="round"/>
  <line x1="250" y1="-250" x2="-250" y2="250" stroke="#b89050" stroke-width="35" stroke-dasharray="60,35" opacity="0.6" stroke-linecap="round"/>
</g>
<g transform="translate(12500,23400)">
  <line x1="-250" y1="-250" x2="250" y2="250" stroke="#b89050" stroke-width="35" stroke-dasharray="60,35" opacity="0.6" stroke-linecap="round"/>
  <line x1="250" y1="-250" x2="-250" y2="250" stroke="#b89050" stroke-width="35" stroke-dasharray="60,35" opacity="0.6" stroke-linecap="round"/>
</g>
<g transform="translate(4793,20207)">
  <line x1="-250" y1="-250" x2="250" y2="250" stroke="#b89050" stroke-width="35" stroke-dasharray="60,35" opacity="0.6" stroke-linecap="round"/>
  <line x1="250" y1="-250" x2="-250" y2="250" stroke="#b89050" stroke-width="35" stroke-dasharray="60,35" opacity="0.6" stroke-linecap="round"/>
</g>
<g transform="translate(1600,12500)">
  <line x1="-250" y1="-250" x2="250" y2="250" stroke="#b89050" stroke-width="35" stroke-dasharray="60,35" opacity="0.6" stroke-linecap="round"/>
  <line x1="250" y1="-250" x2="-250" y2="250" stroke="#b89050" stroke-width="35" stroke-dasharray="60,35" opacity="0.6" stroke-linecap="round"/>
</g>
<g transform="translate(4793,4793)">
  <line x1="-250" y1="-250" x2="250" y2="250" stroke="#b89050" stroke-width="35" stroke-dasharray="60,35" opacity="0.6" stroke-linecap="round"/>
  <line x1="250" y1="-250" x2="-250" y2="250" stroke="#b89050" stroke-width="35" stroke-dasharray="60,35" opacity="0.6" stroke-linecap="round"/>
</g>

<!-- ===== TEXT - stitched embroidery style ===== -->
<!-- Top text: fill + stitch outline -->
<text font-family="'Helvetica Neue',Helvetica,Arial,sans-serif" font-size="520" font-weight="900" 
      fill="#6a5028" opacity="0.7" text-anchor="middle">
  <textPath xlink:href="#sTextTop" startOffset="50%" textLength="23860" lengthAdjust="spacing">VULCAN HIGH COMMAND</textPath>
</text>
<text font-family="'Helvetica Neue',Helvetica,Arial,sans-serif" font-size="520" font-weight="900" 
      fill="none" stroke="#c4a050" stroke-width="16" stroke-dasharray="40,25" opacity="0.70" text-anchor="middle">
  <textPath xlink:href="#sTextTop" startOffset="50%" textLength="23860" lengthAdjust="spacing">VULCAN HIGH COMMAND</textPath>
</text>

<!-- Bottom text -->
<text font-family="'Helvetica Neue',Helvetica,Arial,sans-serif" font-size="520" font-weight="900" 
      fill="#6a5028" opacity="0.7" text-anchor="middle">
  <textPath xlink:href="#sTextBot" startOffset="50%" textLength="24080" lengthAdjust="spacing">INFINITE DIVERSITY</textPath>
</text>
<text font-family="'Helvetica Neue',Helvetica,Arial,sans-serif" font-size="520" font-weight="900" 
      fill="none" stroke="#c4a050" stroke-width="16" stroke-dasharray="40,25" opacity="0.70" text-anchor="middle">
  <textPath xlink:href="#sTextBot" startOffset="50%" textLength="24080" lengthAdjust="spacing">INFINITE DIVERSITY</textPath>
</text>

</svg>