<svg xmlns="http://www.w3.org/2000/svg" viewBox="0 0 200 200">
  <defs>
    <linearGradient id="cardBrown" x1="0%" y1="0%" x2="0%" y2="100%">
      <stop offset="0%" stop-color="#daa520"/>
      <stop offset="50%" stop-color="#b8860b"/>
      <stop offset="100%" stop-color="#8b6914"/>
    </linearGradient>
    <linearGradient id="cardTan" x1="0%" y1="0%" x2="100%" y2="100%">
      <stop offset="0%" stop-color="#f4d03f"/>
      <stop offset="50%" stop-color="#d4ac0d"/>
      <stop offset="100%" stop-color="#9a7b0a"/>
    </linearGradient>
    <linearGradient id="cardDark" x1="0%" y1="0%" x2="0%" y2="100%">
      <stop offset="0%" stop-color="#2c1810"/>
      <stop offset="100%" stop-color="#0f0a05"/>
    </linearGradient>
    <filter id="cardGlow" x="-20%" y="-20%" width="140%" height="140%">
      <feGaussianBlur stdDeviation="2" result="blur"/>
      <feMerge><feMergeNode in="blur"/><feMergeNode in="SourceGraphic"/></feMerge>
    </filter>
    <filter id="cardInner">
      <feOffset dx="1" dy="1"/>
      <feGaussianBlur stdDeviation="1"/>
      <feComposite in2="SourceAlpha" operator="arithmetic" k2="-1" k3="1"/>
      <feColorMatrix type="matrix" values="0 0 0 0 0  0 0 0 0 0  0 0 0 0 0  0 0 0 0.4 0"/>
      <feBlend in2="SourceGraphic"/>
    </filter>
  </defs>
  
  <!-- Background - Elongated hexagonal shape (coffin-like) -->
  <polygon points="100,8 170,40 170,130 100,192 30,130 30,40" fill="url(#cardDark)"/>
  <polygon points="100,8 170,40 170,130 100,192 30,130 30,40" fill="none" stroke="url(#cardBrown)" stroke-width="6" filter="url(#cardGlow)"/>
  
  <!-- Inner border decoration -->
  <polygon points="100,22 158,48 158,122 100,178 42,122 42,48" fill="none" stroke="#8b6914" stroke-width="2"/>
  
  <!-- THE CARDASSIAN UNION SYMBOL - Stylized cobra/spoon head -->
  
  <!-- Main body/head shape -->
  <path d="M100,35
           C130,45 145,70 145,100
           C145,135 125,160 100,170
           C75,160 55,135 55,100
           C55,70 70,45 100,35Z"
        fill="url(#cardBrown)" stroke="url(#cardTan)" stroke-width="3" filter="url(#cardInner)"/>
  
  <!-- Inner decorative curve (gives the cobra hood look) -->
  <path d="M100,50
           C120,58 130,75 130,95
           C130,120 115,140 100,148
           C85,140 70,120 70,95
           C70,75 80,58 100,50Z"
        fill="url(#cardDark)" stroke="#9a7b0a" stroke-width="1.5"/>
  
  <!-- Central oval/eye shape -->
  <ellipse cx="100" cy="90" rx="22" ry="30" fill="url(#cardTan)" stroke="#8b6914" stroke-width="2"/>
  
  <!-- Inner eye detail -->
  <ellipse cx="100" cy="85" rx="14" ry="20" fill="url(#cardDark)"/>
  
  <!-- Central pupil/gem -->
  <ellipse cx="100" cy="82" rx="8" ry="12" fill="url(#cardBrown)"/>
  <ellipse cx="100" cy="80" rx="4" ry="6" fill="#f4d03f"/>
  <ellipse cx="99" cy="78" rx="2" ry="3" fill="#ffffff" opacity="0.6"/>
  
  <!-- Decorative lines extending from symbol -->
  <g stroke="url(#cardTan)" stroke-width="3" stroke-linecap="round">
    <line x1="55" y1="95" x2="35" y2="85"/>
    <line x1="145" y1="95" x2="165" y2="85"/>
    <line x1="60" y1="75" x2="42" y2="60"/>
    <line x1="140" y1="75" x2="158" y2="60"/>
  </g>
  
  <!-- Small decorative triangles at corners -->
  <g fill="url(#cardTan)">
    <polygon points="100,15 105,25 95,25"/>
    <polygon points="35,55 45,50 42,60"/>
    <polygon points="165,55 155,50 158,60"/>
  </g>
  
  <!-- Geometric frame accents -->
  <g fill="none" stroke="url(#cardBrown)" stroke-width="1.5">
    <path d="M70,40 L100,28 L130,40"/>
    <path d="M70,155 L100,170 L130,155"/>
  </g>
</svg>
