<svg version="1.0" xmlns="http://www.w3.org/2000/svg"
 width="500.000000" height="444.000000" viewBox="0 0 500.000000 444.000000"
 preserveAspectRatio="xMidYMid meet">
<metadata>
Created by potrace 1.16, written by Peter Selinger 2001-2019
</metadata>
<g transform="translate(0.000000,444.000000) scale(0.100000,-0.100000)"
fill="#88ccff" stroke="none">
<path d="M2190 3349 c-25 -5 -72 -13 -105 -18 -66 -9 -151 -29 -175 -41 -9 -4
-30 -11 -48 -14 -17 -4 -34 -12 -37 -17 -4 -5 -13 -9 -22 -9 -42 0 -226 -105
-353 -201 -73 -55 -220 -195 -220 -209 0 -4 -9 -17 -20 -30 -46 -52 -150 -221
-180 -290 -18 -41 -38 -87 -46 -102 -8 -14 -14 -35 -14 -46 0 -11 -7 -33 -15
-48 -8 -16 -15 -43 -15 -60 0 -17 -3 -34 -7 -38 -8 -8 -29 -156 -39 -281 -4
-46 -1 -99 10 -156 9 -47 16 -106 16 -132 0 -25 4 -48 9 -52 6 -3 13 -27 17
-53 3 -26 10 -51 14 -57 4 -5 10 -21 13 -35 9 -40 36 -109 53 -136 l16 -24
569 0 c336 0 570 4 574 9 3 5 -18 43 -47 83 -70 98 -138 238 -138 286 -1 15
-7 38 -15 52 -20 36 -20 334 0 370 8 14 14 39 15 57 0 17 4 34 9 38 5 3 12 19
16 35 22 101 178 310 284 383 25 17 48 34 51 38 8 12 162 87 210 103 221 73
465 56 667 -47 190 -97 317 -224 402 -402 19 -38 37 -78 42 -87 5 -9 12 -35
15 -58 4 -22 11 -43 15 -46 12 -7 11 -84 -1 -84 -5 0 -13 12 -16 28 -19 79
-117 178 -218 222 -63 27 -220 28 -286 2 -56 -21 -130 -72 -163 -111 -58 -70
-109 -221 -74 -221 9 0 19 5 22 10 9 15 41 12 55 -5 16 -19 46 -19 54 0 7 19
31 19 61 -1 30 -19 32 -54 7 -77 -24 -22 -50 -21 -74 0 -16 14 -22 15 -36 5
-31 -22 -45 -25 -63 -14 -44 28 -51 -1 -21 -84 34 -96 141 -211 215 -229 15
-4 30 -11 33 -16 3 -5 58 -9 122 -9 87 1 122 4 136 15 11 8 26 15 34 15 44 0
180 148 196 213 3 15 11 27 16 27 12 0 13 -77 1 -84 -5 -3 -12 -26 -15 -51 -4
-24 -11 -47 -17 -50 -5 -4 -9 -14 -9 -24 0 -26 -55 -126 -112 -203 -54 -74
-166 -183 -197 -193 -12 -3 -21 -10 -21 -14 0 -5 -34 -25 -75 -46 -41 -21 -75
-42 -75 -47 0 -4 70 -8 154 -8 l155 0 24 32 c48 64 130 220 142 271 4 15 11
30 16 33 5 3 9 15 9 28 0 12 7 31 15 42 8 10 15 35 15 54 0 19 7 46 15 60 8
14 15 52 16 85 0 33 4 71 8 85 11 38 35 31 46 -15 45 -182 213 -349 414 -411
68 -21 272 -15 339 10 183 69 289 174 372 371 17 38 30 127 30 193 -2 218
-126 423 -317 520 -85 44 -127 54 -250 59 -138 6 -194 -6 -300 -64 -108 -59
-239 -199 -259 -277 -3 -14 -10 -29 -15 -32 -5 -3 -9 -18 -9 -33 0 -35 -25
-70 -39 -56 -6 6 -14 47 -17 90 -4 44 -13 92 -20 107 -8 15 -14 42 -14 60 0
18 -7 42 -15 52 -8 11 -15 30 -15 42 0 13 -4 26 -10 29 -5 3 -10 13 -10 21 0
23 -73 169 -127 254 -152 240 -388 442 -638 544 -22 10 -48 21 -57 26 -10 6
-23 10 -29 10 -6 0 -25 6 -42 14 -50 21 -116 37 -192 47 -38 4 -88 13 -110 18
-48 12 -222 12 -285 0z m2409 -1030 c73 -23 150 -65 191 -104 190 -182 161
-500 -59 -645 -74 -50 -110 -61 -211 -67 -163 -10 -320 83 -388 230 -38 81
-55 206 -36 256 8 18 14 40 14 49 0 28 40 99 83 148 50 57 124 106 192 127 60
18 165 21 214 6z m-3152 -86 c53 -25 121 -77 150 -115 52 -70 73 -134 73 -227
0 -61 -4 -93 -15 -107 -8 -10 -15 -24 -15 -31 0 -25 -64 -105 -108 -136 -86
-59 -109 -66 -217 -67 -91 0 -105 3 -154 29 -108 57 -191 168 -191 256 0 42
11 58 25 35 10 -15 52 -12 59 5 3 8 12 15 20 15 8 0 21 -7 30 -15 22 -22 52
-18 70 10 22 33 20 47 -11 69 -20 15 -29 17 -42 7 -37 -26 -45 -26 -83 1 -14
10 -22 10 -38 0 -28 -17 -30 -16 -30 16 0 28 41 111 75 153 28 33 100 89 116
89 8 0 23 7 33 15 30 22 203 21 253 -2z m424 -226 c19 -12 35 -32 37 -42 3
-16 1 -18 -9 -7 -18 17 -39 15 -61 -5 -40 -36 -5 -102 48 -89 19 5 25 3 22 -6
-7 -19 -68 -58 -91 -58 -34 0 -86 42 -98 79 -17 50 3 103 50 129 46 27 60 27
102 -1z m2130 -9 c24 -27 29 -41 29 -86 0 -46 -4 -58 -29 -83 -26 -25 -37 -29
-86 -29 -49 0 -60 4 -86 29 -25 25 -29 37 -29 82 0 46 4 57 32 86 28 29 38 33
86 33 47 0 56 -4 83 -32z m-324 -50 c13 -12 23 -27 23 -33 0 -21 -37 -55 -60
-55 -44 0 -65 57 -33 92 21 24 42 23 70 -4z M4560 2080 c-44 -11 -105 -78
-114 -124 -24 -127 79 -232 206 -211 54 9 128 81 128 123 0 37 10 40 35 12 35
-38 75 -19 75 37 0 47 -32 63 -70 35 -31 -23 -40 -20 -40 14 0 28 -82 114
-108 114 -11 0 -32 2 -48 4 -16 3 -45 1 -64 -4z M4126 1955 c-9 -9 -16 -29
-16 -44 0 -53 48 -69 77 -25 15 24 15 29 2 53 -18 32 -41 38 -63 16z M4243
1953 c-28 -19 -30 -54 -5 -76 23 -21 41 -21 63 -1 17 15 20 15 44 0 32 -21 63
-13 71 19 13 53 -29 93 -65 61 -22 -20 -35 -20 -51 -1 -16 19 -29 18 -57 -2z
M1413 1951 c-13 -11 -23 -28 -23 -39 0 -40 70 -72 84 -37 3 8 12 15 19 15 8 0
20 -7 27 -15 17 -21 46 -19 70 5 26 26 25 47 -2 71 -28 23 -42 24 -58 4 -7 -8
-20 -15 -30 -15 -10 0 -23 7 -30 15 -16 20 -30 19 -57 -4z M400 2304 c-82 -16
-185 -81 -236 -151 -104 -141 -110 -304 -18 -448 41 -65 86 -106 159 -146 57
-31 65 -32 173 -33 74 0 116 4 124 12 7 7 20 12 29 12 10 0 24 6 31 13 7 7 27
21 44 32 17 11 45 36 61 55 38 44 93 144 93 170 0 26 -17 35 -25 13 -14 -43
-91 -72 -159 -59 -34 7 -96 59 -96 82 0 6 -7 17 -15 24 -13 10 -19 10 -33 -4
-10 -9 -32 -16 -49 -16 -26 0 -33 5 -42 32 -9 25 -8 36 4 55 18 28 69 32 83 6
12 -21 39 -11 51 19 5 13 23 37 41 53 28 27 38 30 97 30 63 0 67 -2 98 -38 57
-66 62 -15 9 81 -46 82 -94 128 -174 170 -53 28 -77 34 -144 37 -45 2 -92 1
-106 -1z M2118 2083 c-16 -2 -48 -24 -73 -49 -44 -45 -45 -47 -45 -111 0 -47
5 -74 19 -97 40 -64 112 -94 192 -81 47 8 119 75 119 111 0 31 17 40 39 20 23
-21 44 -20 65 3 24 26 17 62 -16 80 -24 14 -28 14 -47 -3 -23 -21 -41 -14 -41
18 0 32 -62 93 -108 105 -37 11 -54 11 -104 4z M2637 2083 c-15 -2 -46 -23
-68 -46 -22 -23 -54 -56 -70 -72 -16 -17 -29 -38 -29 -48 0 -27 19 -57 36 -57
8 0 19 -11 23 -24 15 -37 80 -85 126 -92 112 -16 205 64 205 178 0 105 -105
181 -223 161z M1210 1172 c-25 -9 -47 -18 -49 -19 -8 -5 23 -35 51 -49 28 -14
31 -14 64 15 46 41 79 41 92 1 8 -22 8 -40 -2 -67 -12 -36 -12 -39 17 -66 32
-30 31 -17 10 -164 -7 -53 7 -56 37 -8 12 19 26 35 31 35 5 0 9 -21 9 -47 0
-55 3 -60 47 -90 59 -42 70 -28 18 21 -44 42 -48 85 -9 113 l26 19 -27 80
c-15 43 -34 84 -42 91 -8 6 -20 35 -28 63 -21 81 -34 90 -124 89 -42 -1 -96
-9 -121 -17z M2418 1048 c-3 -105 -15 -118 -54 -60 l-23 33 -3 -33 c-3 -30 -7
-33 -46 -40 -55 -9 -87 3 -107 41 -22 43 -20 51 26 99 28 28 36 42 25 42 -9 0
-16 -4 -16 -10 0 -5 -5 -10 -11 -10 -22 0 -98 -70 -101 -93 -2 -17 -9 -21 -27
-19 -58 6 -65 42 -20 91 16 18 28 35 26 38 -3 2 -27 -11 -56 -28 -40 -25 -52
-39 -57 -65 -8 -43 3 -88 27 -110 16 -14 19 -31 19 -93 0 -70 -2 -79 -30 -111
-16 -19 -27 -36 -25 -38 2 -3 24 7 49 22 40 23 46 31 52 71 5 34 13 50 36 66
16 12 40 32 53 45 28 28 36 29 75 9 54 -28 63 -66 25 -107 -14 -15 -25 -29
-25 -32 0 -9 34 6 68 31 28 21 32 30 32 68 0 47 7 75 20 75 20 0 70 -54 70
-75 0 -26 -55 -75 -83 -75 -8 0 -32 -23 -52 -51 -69 -96 -57 -103 48 -29 63
45 72 48 87 35 21 -19 33 -19 56 3 43 39 61 119 36 167 -8 17 -28 43 -43 59
-27 27 -29 36 -29 103 0 106 -19 90 -22 -19z M2595 1083 c-62 -17 -94 -70 -75
-127 8 -26 22 -41 56 -58 88 -45 94 -49 94 -65 0 -9 -18 -38 -39 -63 -37 -44
-38 -47 -20 -58 10 -7 24 -12 29 -12 12 0 133 81 138 93 7 14 51 7 87 -14 30
-18 36 -19 33 -6 -6 28 29 18 85 -26 20 -16 37 -24 37 -18 0 6 -4 11 -10 11
-5 0 -10 9 -10 20 0 15 7 20 29 20 21 0 41 -14 84 -60 57 -60 70 -67 96 -51
11 7 8 14 -15 34 -29 25 -28 51 1 27 21 -17 61 -5 69 22 3 13 6 39 5 58 l0 35
-15 -27 c-8 -16 -23 -28 -33 -28 -20 0 -68 34 -90 63 -7 10 -37 34 -67 53 -42
27 -63 34 -103 34 -43 0 -53 4 -67 26 -15 23 -18 24 -27 9 -6 -11 -5 -21 2
-28 6 -6 11 -16 11 -21 0 -7 -3 -7 -8 0 -11 17 -115 24 -143 10 -50 -25 -139
32 -139 89 0 34 48 24 80 -17 20 -24 50 -14 50 17 0 12 -8 29 -17 38 -20 17
-78 28 -108 20z m125 -289 c0 -4 -11 -17 -25 -30 -14 -13 -25 -28 -25 -34 0
-5 -6 -10 -13 -10 -29 0 -25 14 11 46 36 32 52 41 52 28z M1730 1055 c0 -9 7
-30 16 -46 20 -39 4 -61 -40 -57 l-31 3 -5 -72 c-4 -56 -10 -77 -28 -98 -13
-15 -22 -28 -20 -30 2 -2 24 11 50 28 39 26 48 37 50 66 4 50 28 53 28 3 0
-25 6 -45 18 -55 31 -28 40 -20 39 29 -1 30 3 48 11 51 8 3 12 -6 12 -25 0
-23 9 -38 37 -61 47 -38 61 -40 37 -3 -12 16 -21 53 -24 92 -5 64 -5 65 -38
70 -27 4 -37 14 -61 60 -29 55 -51 75 -51 45z M3293 913 c-7 -2 -13 -11 -13
-19 0 -12 8 -13 38 -8 45 8 54 13 47 25 -6 9 -51 11 -72 2z"/>
</g>
</svg>
