<svg version="1.0" xmlns="http://www.w3.org/2000/svg"
 width="375.000000" height="500.000000" viewBox="0 0 375.000000 500.000000"
 preserveAspectRatio="xMidYMid meet">
<metadata>
Created by potrace 1.16, written by Peter Selinger 2001-2019
</metadata>
<g transform="translate(0.000000,500.000000) scale(0.100000,-0.100000)"
fill="#44ff44" stroke="none">
<path d="M1825 4233 c-14 -16 -24 -31 -23 -35 2 -4 35 -40 73 -80 39 -40 91
-98 115 -128 25 -30 47 -57 50 -60 51 -51 260 -399 260 -434 0 -8 7 -19 15
-26 8 -7 15 -21 15 -31 0 -11 5 -19 10 -19 6 0 10 -7 10 -15 0 -8 7 -31 16
-52 49 -113 97 -267 123 -398 7 -33 17 -79 22 -101 5 -23 13 -95 19 -160 5
-66 13 -145 16 -177 19 -167 -46 -650 -118 -887 -15 -46 -13 -117 3 -210 17
-96 18 -444 2 -565 -7 -49 -20 -119 -29 -155 -9 -36 -18 -81 -21 -100 -3 -19
-13 -40 -22 -47 -11 -8 -13 -15 -6 -22 7 -7 17 1 30 27 11 20 22 39 25 42 26
25 133 284 181 438 16 53 35 111 41 127 6 17 13 47 15 68 3 20 9 40 14 43 5 3
9 20 9 39 0 19 5 46 12 62 12 30 23 91 37 210 5 40 13 77 17 84 8 14 18 120
38 394 13 190 9 407 -10 515 -3 19 -9 58 -14 85 -4 28 -13 73 -20 100 -6 28
-16 68 -22 90 -5 22 -14 54 -20 70 -5 17 -12 41 -15 55 -2 14 -8 34 -13 45 -4
11 -13 34 -20 50 -6 17 -18 49 -27 73 -26 78 -136 308 -187 392 -12 19 -30 52
-41 73 -11 20 -23 37 -27 37 -5 0 -8 4 -8 9 0 14 -56 97 -159 234 -94 126
-312 367 -332 367 -5 0 -20 -12 -34 -27z M1672 4077 c-12 -13 -22 -27 -22 -31
0 -6 71 -98 90 -116 31 -29 161 -213 195 -275 6 -11 26 -47 45 -80 94 -170
145 -303 184 -485 8 -36 19 -139 26 -230 10 -140 10 -193 -4 -350 -9 -102 -23
-223 -32 -270 -9 -47 -20 -107 -25 -134 l-8 -49 67 -72 c37 -39 74 -85 82
-101 25 -48 50 -59 50 -21 1 12 7 33 15 47 8 14 14 39 15 57 0 17 4 35 10 38
6 3 10 25 10 49 0 24 7 65 15 92 21 69 21 406 0 484 -8 30 -15 78 -15 107 0
28 -4 55 -10 58 -5 3 -10 24 -10 46 0 22 -5 50 -12 62 -6 12 -15 40 -19 62
-11 60 -28 123 -38 143 -5 9 -21 55 -36 102 -14 47 -30 94 -34 105 -5 11 -16
40 -26 65 -10 25 -28 68 -40 95 -12 28 -30 67 -39 87 -9 20 -21 40 -26 43 -6
3 -10 15 -10 25 0 10 -3 20 -7 22 -5 2 -17 21 -28 43 -43 86 -153 234 -237
318 -48 48 -91 87 -96 87 -5 0 -18 -10 -30 -23z M1516 3891 c-21 -24 -24 -15
45 -121 31 -47 67 -105 82 -130 27 -47 133 -261 147 -295 4 -11 13 -33 20 -50
97 -235 113 -523 56 -1040 -8 -66 -12 -124 -9 -130 5 -15 125 -6 135 9 4 6 8
28 8 48 0 20 4 39 8 42 12 7 26 200 26 346 0 172 -29 433 -53 478 -6 11 -11
31 -11 43 0 45 -99 323 -163 459 -22 47 -64 121 -92 165 -52 81 -153 195 -172
195 -5 0 -18 -9 -27 -19z M1298 3557 c-38 -64 -73 -133 -103 -202 -46 -108
-52 -121 -74 -185 -13 -37 -27 -82 -41 -140 -5 -19 -14 -55 -20 -80 -48 -185
-61 -274 -84 -560 -19 -226 -19 -368 -1 -570 21 -224 31 -287 66 -406 5 -17 9
-38 9 -48 0 -10 6 -30 14 -44 7 -15 19 -45 26 -67 43 -138 178 -391 280 -522
87 -112 150 -163 117 -95 -8 15 -19 47 -26 72 -7 25 -18 56 -23 70 -23 56 -31
156 -31 375 0 234 9 343 31 382 7 12 12 35 12 52 0 16 4 33 10 36 5 3 10 16
10 27 0 33 104 238 145 285 20 24 34 47 30 53 -3 5 -22 10 -41 10 -19 0 -42 4
-52 9 -9 4 -35 17 -57 27 -60 28 -153 115 -180 168 -8 14 -20 38 -28 53 -27
51 -44 103 -76 229 -14 52 -14 459 -1 516 5 24 19 90 30 148 36 181 57 256
106 389 13 35 21 68 18 72 -12 20 -31 5 -66 -54z M1840 1751 c-42 -14 -84 -38
-113 -65 -30 -28 -97 -161 -97 -193 0 -10 -7 -50 -15 -88 -19 -89 -19 -278 -1
-409 8 -55 17 -119 20 -141 16 -125 25 -173 35 -198 6 -16 11 -42 11 -60 0
-19 4 -27 9 -22 5 6 12 66 15 135 6 151 19 257 34 287 7 12 12 31 12 43 0 33
54 142 87 175 118 118 295 26 375 -195 16 -43 21 -65 53 -213 8 -38 15 -105
15 -149 0 -45 2 -79 5 -76 13 12 35 124 35 176 0 31 7 93 15 137 16 91 18 236
4 310 -5 28 -12 79 -15 115 -4 36 -10 70 -14 75 -4 6 -10 25 -14 44 -11 58
-72 174 -115 217 -69 69 -128 95 -229 99 -48 3 -98 1 -112 -4z M1945 1105
c-63 -29 -101 -84 -130 -185 -27 -93 -25 -261 4 -352 35 -111 120 -198 177
-184 34 9 91 62 118 110 68 117 75 334 17 482 -23 57 -70 113 -110 130 -40 17
-38 17 -76 -1z"/>
</g>
</svg>
