<svg version="1.0" xmlns="http://www.w3.org/2000/svg"
 width="200.000000" height="292.000000" viewBox="0 0 200.000000 292.000000"
 preserveAspectRatio="xMidYMid meet">
<metadata>
Created by potrace 1.16, written by Peter Selinger 2001-2019
</metadata>
<g transform="translate(0.000000,292.000000) scale(0.100000,-0.100000)"
fill="#99bbdd" stroke="none">
<path d="M981 2424 c-17 -125 -62 -345 -95 -459 -14 -49 -26 -92 -26 -97 0 -4
19 2 43 12 25 12 64 20 97 20 33 0 72 -8 98 -20 23 -10 42 -17 42 -15 0 2 -16
62 -35 132 -36 134 -80 355 -91 461 -4 34 -10 62 -14 62 -3 0 -12 -43 -19 -96z"/>
<path d="M583 2217 c-77 -60 -124 -138 -123 -206 2 -76 60 -161 156 -222 35
-23 64 -43 64 -45 0 -2 -17 -12 -37 -23 -58 -29 -120 -87 -150 -139 -35 -60
-37 -137 -5 -198 20 -39 105 -124 123 -124 5 0 -5 21 -20 46 -37 58 -47 113
-30 172 18 65 94 139 179 175 l65 28 0 66 -1 65 -60 25 c-120 47 -189 133
-189 235 0 51 5 63 43 117 23 34 39 61 35 61 -4 0 -27 -15 -50 -33z"/>
<path d="M1376 2225 c4 -8 9 -15 13 -15 12 0 49 -73 56 -111 19 -104 -84 -237
-211 -271 l-40 -11 1 -69 1 -70 57 -23 c177 -72 242 -215 157 -349 -16 -25
-26 -46 -22 -46 5 0 27 16 50 36 49 41 87 103 96 154 15 88 -54 197 -167 264
l-57 34 35 18 c51 27 119 84 148 124 72 101 53 208 -54 304 -53 47 -73 57 -63
31z"/>
<path d="M925 1828 c-70 -39 -84 -90 -37 -138 75 -74 252 -34 252 57 0 30 -25
60 -67 82 -28 14 -122 14 -148 -1z"/>
<path d="M864 1608 c42 -144 90 -354 108 -477 13 -83 26 -151 29 -151 3 0 9
30 13 68 10 100 52 303 91 447 20 71 34 130 32 132 -2 2 -19 -5 -38 -14 -45
-24 -152 -24 -198 0 -43 22 -45 22 -37 -5z"/>
</g>
</svg>
