<svg version="1.0" xmlns="http://www.w3.org/2000/svg"
 width="304.000000" height="500.000000" viewBox="0 0 304.000000 500.000000"
 preserveAspectRatio="xMidYMid meet">
<metadata>
Created by potrace 1.16, written by Peter Selinger 2001-2019
</metadata>
<g transform="translate(0.000000,500.000000) scale(0.100000,-0.100000)"
fill="#ddaa33" stroke="none">
<path d="M1390 4515 c-157 -45 -242 -165 -267 -375 -3 -25 -12 -53 -21 -63
-22 -25 -70 -47 -103 -47 -15 0 -30 -4 -33 -9 -3 -5 -18 -12 -33 -16 -65 -16
-146 -64 -232 -137 -52 -45 -154 -177 -178 -230 -9 -21 -20 -38 -25 -38 -4 0
-8 -4 -8 -10 0 -5 -13 -38 -28 -72 -15 -35 -41 -103 -56 -153 -16 -49 -33
-100 -39 -112 -6 -13 -8 -25 -6 -27 2 -2 44 -27 92 -56 73 -44 182 -121 247
-175 8 -7 80 -78 160 -157 137 -135 187 -190 268 -294 53 -68 76 -52 42 31 -4
11 -13 40 -20 65 -7 25 -19 59 -26 77 -8 17 -14 38 -14 47 0 9 -4 24 -9 34 -5
9 -14 35 -20 57 -6 22 -20 69 -31 104 -17 54 -20 92 -20 242 0 98 4 180 9 183
5 3 12 32 15 63 4 32 10 78 13 103 3 25 9 49 14 55 5 5 9 28 9 50 0 44 13 60
92 119 43 31 78 31 201 1 78 -20 102 -15 93 18 -4 12 -12 55 -17 96 -12 92
-21 108 -61 116 -18 4 -37 11 -43 15 -5 5 -21 10 -35 12 -21 2 -26 10 -31 43
-4 22 -14 67 -23 99 -9 32 -15 60 -13 62 2 3 34 -20 72 -48 139 -108 180 -137
193 -138 11 0 72 40 92 60 3 3 12 10 21 15 9 6 47 34 84 63 38 28 69 51 71 49
1 -1 -4 -29 -13 -62 -8 -33 -18 -77 -21 -99 -7 -36 -10 -40 -57 -53 -88 -26
-91 -28 -103 -75 -20 -81 -34 -179 -28 -186 4 -3 42 2 84 12 127 29 170 31
195 9 12 -11 39 -30 60 -42 37 -23 41 -31 52 -106 3 -22 10 -65 16 -95 5 -30
14 -82 20 -115 6 -33 14 -130 17 -215 l7 -155 75 4 c41 2 83 7 92 12 9 5 34 9
55 9 27 0 54 10 88 33 65 42 169 120 173 130 2 4 9 7 15 7 7 0 23 10 37 23 14
12 37 28 53 36 30 16 35 49 16 98 -6 15 -15 37 -19 48 -4 11 -15 36 -23 55 -9
19 -21 46 -26 60 -6 14 -22 43 -36 65 -14 22 -29 49 -34 61 -5 11 -15 27 -23
35 -7 8 -39 44 -71 81 -32 37 -89 87 -125 113 -68 46 -199 105 -233 105 -15 0
-82 31 -97 45 -6 5 -22 76 -31 136 -5 31 -18 75 -30 99 -12 24 -21 47 -21 52
0 9 -34 50 -70 85 -75 72 -262 105 -390 68z m-512 -1289 c14 -14 26 -40 29
-63 4 -35 1 -45 -27 -76 -27 -31 -38 -37 -73 -37 -52 0 -107 48 -107 93 0 44
38 105 69 110 43 7 85 -4 109 -27z M1185 3739 c-60 -45 -65 -55 -65 -137 0
-40 -5 -82 -10 -92 -14 -26 -14 -240 -1 -253 6 -6 11 -23 11 -38 0 -15 5 -31
10 -34 6 -3 10 -17 10 -31 0 -14 7 -39 16 -55 8 -17 13 -33 10 -36 -3 -3 0
-15 6 -27 6 -11 15 -39 20 -61 10 -44 11 -47 63 -255 31 -124 48 -194 82 -350
3 -14 15 -38 27 -55 12 -16 36 -53 53 -82 50 -81 63 -93 104 -93 34 0 39 4
107 105 40 58 72 113 72 122 0 9 4 30 9 47 5 17 26 103 46 191 20 88 41 170
46 183 5 13 9 36 9 52 0 16 5 32 10 35 6 3 10 17 10 30 0 13 4 34 9 47 5 13
14 42 20 66 6 23 16 61 22 85 6 23 17 58 24 77 39 107 41 153 17 400 -11 106
-17 121 -69 159 -49 36 -97 40 -172 16 -25 -8 -67 -20 -93 -26 -41 -10 -48
-15 -48 -35 0 -16 6 -24 18 -24 16 -1 16 -1 0 -11 -27 -15 -22 -39 19 -81 30
-30 38 -48 44 -90 4 -29 10 -70 14 -91 6 -30 3 -46 -16 -82 l-24 -45 -76 0
-76 0 -23 44 c-23 46 -23 44 -2 178 5 34 17 57 45 87 41 44 46 65 20 80 -17
10 -17 10 0 11 11 0 17 8 17 24 0 20 -8 25 -47 36 -27 6 -69 18 -95 26 -75 22
-127 17 -173 -17z m265 -93 c0 -2 -19 -16 -42 -31 -48 -32 -60 -47 -69 -90 -4
-16 -16 -63 -28 -102 -26 -91 -26 -115 0 -139 32 -29 49 -68 49 -113 0 -22 5
-43 10 -46 6 -3 10 -24 10 -45 0 -21 5 -51 10 -65 6 -15 12 -43 14 -63 2 -21
8 -58 15 -84 25 -106 31 -140 31 -173 0 -18 5 -37 10 -40 6 -3 10 -24 10 -45
0 -54 18 -90 45 -90 32 0 48 24 57 86 4 30 12 78 18 107 5 28 13 80 18 114 5
33 12 65 15 70 8 13 43 200 54 283 3 29 18 63 41 95 l35 50 -17 70 c-42 169
-50 186 -102 219 -25 15 -43 31 -40 34 3 3 14 -2 24 -11 10 -10 24 -17 31 -17
21 0 61 -32 61 -49 0 -9 9 -41 20 -71 11 -30 20 -65 20 -77 0 -12 4 -24 9 -27
5 -4 12 -24 16 -45 6 -34 2 -45 -29 -89 -27 -37 -36 -59 -36 -90 0 -22 -4 -44
-10 -47 -5 -3 -10 -26 -10 -51 0 -25 -5 -55 -11 -66 -7 -12 -16 -49 -21 -82
-17 -119 -42 -255 -78 -446 -5 -25 -15 -76 -22 -115 -10 -54 -17 -71 -32 -73
-27 -6 -34 6 -46 78 -20 110 -30 163 -40 215 -18 89 -41 222 -58 328 -5 28
-14 65 -20 80 -7 16 -12 48 -12 72 0 24 -4 47 -10 50 -5 3 -10 27 -10 52 0 36
-7 56 -36 96 -41 57 -41 68 7 208 16 48 29 93 29 102 0 16 41 47 63 47 8 0 20
7 27 15 11 14 30 21 30 11z M2544 3236 c-49 -35 -127 -90 -173 -122 -89 -63
-78 -60 -284 -82 -74 -8 -97 -24 -97 -68 0 -13 -4 -26 -10 -29 -5 -3 -10 -19
-10 -35 0 -16 -4 -32 -10 -35 -5 -3 -10 -19 -10 -35 0 -16 -4 -31 -9 -34 -5
-3 -11 -18 -14 -33 -5 -30 -24 -87 -38 -115 -5 -10 -9 -29 -9 -42 0 -14 -4
-28 -10 -31 -16 -10 -13 -67 4 -63 7 2 50 49 96 106 161 201 379 402 567 525
40 26 76 47 80 47 4 0 19 9 31 18 23 18 23 20 8 55 -8 20 -17 37 -19 37 -2 0
-43 -29 -93 -64z M1280 2258 c0 -13 7 -79 16 -148 8 -69 19 -161 23 -206 4
-44 11 -86 15 -92 13 -21 36 -13 47 16 12 31 78 134 93 144 20 14 99 1 110
-18 6 -11 15 -26 21 -35 5 -9 25 -41 43 -73 19 -31 36 -56 38 -56 12 0 34 74
34 116 0 26 4 74 9 108 24 153 33 248 23 258 -6 6 -40 -19 -98 -76 -86 -83
-91 -86 -135 -86 -45 0 -49 3 -132 85 -47 47 -90 85 -96 85 -6 0 -11 -10 -11
-22z M1485 1942 c-13 -9 -34 -47 -81 -142 -15 -30 -34 -68 -42 -84 -8 -15 -19
-45 -24 -65 -14 -55 -27 -315 -16 -322 31 -20 120 83 148 170 8 27 19 53 23
57 4 4 7 19 7 33 0 14 4 33 9 40 11 17 19 1 42 -79 16 -58 48 -128 73 -163 22
-30 83 -70 96 -62 9 6 3 164 -11 265 -8 60 -24 103 -77 210 -36 74 -71 138
-77 142 -5 4 -21 8 -35 8 -14 0 -29 -4 -35 -8z M1495 1498 c-9 -67 -29 -114
-71 -165 -37 -45 -122 -93 -166 -93 -48 0 -47 -10 7 -240 56 -237 76 -324 92
-420 7 -39 11 -45 33 -45 28 0 24 -32 48 350 6 88 14 169 17 180 17 47 59 135
66 135 8 0 49 -93 61 -140 4 -19 13 -102 18 -185 6 -82 13 -184 16 -225 3 -41
7 -85 10 -98 6 -30 42 -30 48 1 3 12 8 36 11 52 3 17 10 50 15 75 5 25 13 63
18 85 5 22 17 74 27 115 9 41 26 111 37 155 27 111 40 184 33 196 -4 5 -19 9
-34 9 -35 0 -72 16 -129 54 -46 31 -98 124 -109 194 -12 76 -38 82 -48 10z"/>
</g>
</svg>
