<?xml version="1.0" encoding="UTF-8"?>
<svg xmlns="http://www.w3.org/2000/svg" width="700" height="700" viewBox="0 0 25000 25000">
<defs>
  <!-- Dark violet nebula -->
  <radialGradient id="nebulaBg" cx="50%" cy="50%" r="70%">
    <stop offset="0%" stop-color="#18102a"/>
    <stop offset="50%" stop-color="#0c0818"/>
    <stop offset="100%" stop-color="#06040c"/>
  </radialGradient>
  <radialGradient id="neb1" cx="35%" cy="40%" r="50%">
    <stop offset="0%" stop-color="rgba(80,50,140,0.35)"/>
    <stop offset="100%" stop-color="rgba(0,0,0,0)"/>
  </radialGradient>
  <radialGradient id="neb2" cx="65%" cy="60%" r="45%">
    <stop offset="0%" stop-color="rgba(100,60,160,0.25)"/>
    <stop offset="100%" stop-color="rgba(0,0,0,0)"/>
  </radialGradient>

  <!-- Body: violet-silver metallic -->
  <linearGradient id="gBody" x1="30%" y1="0%" x2="70%" y2="100%">
    <stop offset="0%" stop-color="#d8c8e8"/>
    <stop offset="20%" stop-color="#b8a0d0"/>
    <stop offset="40%" stop-color="#9880b8"/>
    <stop offset="60%" stop-color="#7860a0"/>
    <stop offset="80%" stop-color="#604888"/>
    <stop offset="100%" stop-color="#483070"/>
  </linearGradient>
  
  <radialGradient id="gBodyHL" cx="40%" cy="25%" r="50%">
    <stop offset="0%" stop-color="rgba(230,220,250,0.55)"/>
    <stop offset="40%" stop-color="rgba(200,180,230,0.2)"/>
    <stop offset="100%" stop-color="rgba(0,0,0,0)"/>
  </radialGradient>
  
  <linearGradient id="gEdge" x1="0%" y1="0%" x2="100%" y2="100%">
    <stop offset="0%" stop-color="#c0b0e0"/>
    <stop offset="50%" stop-color="#503870"/>
    <stop offset="100%" stop-color="#c0b0e0"/>
  </linearGradient>

  <!-- Inner cutouts: dark violet brushed -->
  <linearGradient id="gInnerViolet" x1="0%" y1="0%" x2="0%" y2="100%">
    <stop offset="0%" stop-color="#3a2858"/>
    <stop offset="30%" stop-color="#281840"/>
    <stop offset="50%" stop-color="#342050"/>
    <stop offset="70%" stop-color="#241838"/>
    <stop offset="100%" stop-color="#302048"/>
  </linearGradient>

  <!-- 3D metallic filter -->
  <filter id="metalFx" x="-10%" y="-10%" width="120%" height="120%">
    <!-- Strong bevel/emboss with tight blur for crisp edges -->
    <feGaussianBlur in="SourceAlpha" stdDeviation="25" result="tightBlur"/>
    <feSpecularLighting in="tightBlur" surfaceScale="25" specularConstant="1.5" 
                        specularExponent="20" lighting-color="#f0e0ff" result="tightSpec">
      <fePointLight x="6000" y="1000" z="22000"/>
    </feSpecularLighting>
    <feComposite in="tightSpec" in2="SourceAlpha" operator="in" result="tightComp"/>
    <!-- Broader ambient light -->
    <feGaussianBlur in="SourceAlpha" stdDeviation="80" result="wideBlur"/>
    <feSpecularLighting in="wideBlur" surfaceScale="10" specularConstant="0.8" 
                        specularExponent="35" lighting-color="#d0c0f0" result="wideSpec">
      <fePointLight x="7000" y="3000" z="16000"/>
    </feSpecularLighting>
    <feComposite in="wideSpec" in2="SourceAlpha" operator="in" result="wideComp"/>
    <!-- Rim light from below -->
    <feGaussianBlur in="SourceAlpha" stdDeviation="35" result="rimBlur"/>
    <feSpecularLighting in="rimBlur" surfaceScale="12" specularConstant="0.7" 
                        specularExponent="30" lighting-color="#b098d8" result="rimSpec">
      <fePointLight x="16000" y="22000" z="12000"/>
    </feSpecularLighting>
    <feComposite in="rimSpec" in2="SourceAlpha" operator="in" result="rimComp"/>
    <!-- Combine all three lights -->
    <feComposite in="SourceGraphic" in2="tightComp" operator="arithmetic" 
                 k1="0" k2="1" k3="0.6" k4="0" result="lit1"/>
    <feComposite in="lit1" in2="wideComp" operator="arithmetic" 
                 k1="0" k2="1" k3="0.3" k4="0" result="lit2"/>
    <feComposite in="lit2" in2="rimComp" operator="arithmetic" 
                 k1="0" k2="1" k3="0.2" k4="0"/>
  </filter>
  
  <!-- Inner depth/bevel for raised 3D look -->
  <filter id="innerDepth" x="-5%" y="-5%" width="110%" height="110%">
    <feGaussianBlur in="SourceAlpha" stdDeviation="30" result="b"/>
    <feDiffuseLighting in="b" surfaceScale="12" diffuseConstant="1.2" lighting-color="#d0c0e8" result="dl">
      <feDistantLight azimuth="315" elevation="50"/>
    </feDiffuseLighting>
    <feComposite in="dl" in2="SourceAlpha" operator="in" result="dlComp"/>
    <feComposite in="SourceGraphic" in2="dlComp" operator="arithmetic" k1="0" k2="0.7" k3="0.4" k4="0"/>
  </filter>

  <filter id="shadow" x="-20%" y="-20%" width="140%" height="140%">
    <feGaussianBlur stdDeviation="250"/>
  </filter>

  <!-- Ring: dark violet steel -->
  <linearGradient id="gRing" x1="0%" y1="0%" x2="100%" y2="100%">
    <stop offset="0%" stop-color="#3a2858"/>
    <stop offset="25%" stop-color="#201438"/>
    <stop offset="50%" stop-color="#4a3468"/>
    <stop offset="75%" stop-color="#201438"/>
    <stop offset="100%" stop-color="#3a2858"/>
  </linearGradient>
  <linearGradient id="gRingHL" x1="20%" y1="0%" x2="80%" y2="100%">
    <stop offset="0%" stop-color="#8070b0" stop-opacity="0.4"/>
    <stop offset="50%" stop-color="#504070" stop-opacity="0.1"/>
    <stop offset="100%" stop-color="#1a1030" stop-opacity="0"/>
  </linearGradient>
  
  <radialGradient id="auraGrad" cx="50%" cy="45%" r="55%">
    <stop offset="50%" stop-color="#8060c0" stop-opacity="0"/>
    <stop offset="75%" stop-color="#402060" stop-opacity="0.10"/>
    <stop offset="100%" stop-color="#100830" stop-opacity="0"/>
  </radialGradient>
  
  <filter id="softGlow" x="-50%" y="-50%" width="200%" height="200%">
    <feGaussianBlur stdDeviation="330"/>
  </filter>

  <clipPath id="clipFrame"><circle cx="12500" cy="12500" r="10200"/></clipPath>
  <path id="textTop" d="M 1650,12500 A 10850,10850 0 0,1 23350,12500" fill="none"/>
  <path id="textBot" d="M 1550,12500 A 10950,10950 0 1,0 23450,12500" fill="none"/>
  
  <style>
    @keyframes ringPulse{0%,100%{opacity:0}50%{opacity:0.25}}
    @keyframes auraPulse{0%,100%{opacity:0.6}50%{opacity:1}}
  </style>
</defs>

<g clip-path="url(#clipFrame)">
  <circle cx="12500" cy="12500" r="10200" fill="url(#nebulaBg)"/>
  <rect x="0" y="0" width="25000" height="25000" fill="url(#neb1)"/>
  <rect x="0" y="0" width="25000" height="25000" fill="url(#neb2)"/>
  <circle cx="9781" cy="12179" r="11" fill="rgba(235,225,255,0.90)"/>
  <circle cx="11078" cy="17105" r="16" fill="rgba(245,235,255,0.90)"/>
  <circle cx="6266" cy="19715" r="18" fill="rgba(235,225,255,0.90)"/>
  <circle cx="10673" cy="2429" r="21" fill="rgba(245,235,255,0.90)"/>
  <circle cx="7766" cy="18123" r="21" fill="rgba(220,210,250,0.90)"/>
  <circle cx="12034" cy="5343" r="9" fill="rgba(220,210,250,0.90)"/>
  <circle cx="18997" cy="16889" r="11" fill="rgba(235,225,255,0.90)"/>
  <circle cx="4152" cy="8057" r="19" fill="rgba(245,240,255,0.90)"/>
  <circle cx="21007" cy="19153" r="9" fill="rgba(245,235,255,0.85)"/>
  <circle cx="12276" cy="4375" r="9" fill="rgba(235,225,255,0.90)"/>
  <circle cx="19128" cy="4989" r="12" fill="rgba(235,225,255,0.90)"/>
  <circle cx="13015" cy="18857" r="8" fill="rgba(245,240,255,0.90)"/>
  <circle cx="20587" cy="21344" r="16" fill="rgba(245,240,255,0.90)"/>
  <circle cx="14693" cy="6033" r="20" fill="rgba(235,225,255,0.90)"/>
  <circle cx="2650" cy="3211" r="15" fill="rgba(220,210,250,0.90)"/>
  <circle cx="15682" cy="5363" r="12" fill="rgba(245,240,255,0.90)"/>
  <circle cx="3333" cy="22820" r="15" fill="rgba(235,225,255,0.90)"/>
  <circle cx="6330" cy="11272" r="16" fill="rgba(245,240,255,0.85)"/>
  <circle cx="13065" cy="15114" r="17" fill="rgba(245,240,255,0.75)"/>
  <circle cx="6298" cy="2375" r="19" fill="rgba(235,225,255,0.75)"/>
  <circle cx="23341" cy="16778" r="9" fill="rgba(245,240,255,0.90)"/>
  <circle cx="4878" cy="5944" r="11" fill="rgba(235,225,255,0.90)"/>
  <circle cx="6792" cy="6882" r="10" fill="rgba(245,235,255,0.78)"/>
  <circle cx="23468" cy="17933" r="20" fill="rgba(245,240,255,0.90)"/>
  <circle cx="17540" cy="18093" r="12" fill="rgba(235,225,255,0.90)"/>
  <circle cx="16948" cy="21874" r="14" fill="rgba(220,210,250,0.90)"/>
  <circle cx="10925" cy="16368" r="21" fill="rgba(245,240,255,0.90)"/>
  <circle cx="3818" cy="2668" r="8" fill="rgba(235,225,255,0.90)"/>
  <circle cx="4447" cy="23082" r="22" fill="rgba(245,235,255,0.85)"/>
  <circle cx="4222" cy="15431" r="10" fill="rgba(245,240,255,0.85)"/>
  <circle cx="10799" cy="16581" r="22" fill="rgba(245,240,255,0.90)"/>
  <circle cx="7856" cy="22797" r="14" fill="rgba(220,210,250,0.90)"/>
  <circle cx="4322" cy="18657" r="13" fill="rgba(245,235,255,0.90)"/>
  <circle cx="10709" cy="13564" r="20" fill="rgba(245,240,255,0.90)"/>
  <circle cx="22978" cy="18684" r="14" fill="rgba(245,240,255,0.90)"/>
  <circle cx="9852" cy="13903" r="19" fill="rgba(220,210,250,0.90)"/>
  <circle cx="4085" cy="10487" r="18" fill="rgba(245,235,255,0.85)"/>
  <circle cx="13282" cy="3105" r="11" fill="rgba(235,225,255,0.90)"/>
  <circle cx="18791" cy="2224" r="21" fill="rgba(235,225,255,0.90)"/>
  <circle cx="22453" cy="5688" r="12" fill="rgba(220,210,250,0.90)"/>
  <circle cx="3481" cy="18396" r="19" fill="rgba(245,240,255,0.90)"/>
  <circle cx="4339" cy="11344" r="9" fill="rgba(235,225,255,0.90)"/>
  <circle cx="3045" cy="16240" r="19" fill="rgba(245,240,255,0.90)"/>
  <circle cx="14760" cy="18969" r="21" fill="rgba(245,240,255,0.90)"/>
  <circle cx="1650" cy="5090" r="8" fill="rgba(245,235,255,0.90)"/>
  <circle cx="2756" cy="22366" r="20" fill="rgba(220,210,250,0.90)"/>
  <circle cx="22247" cy="7216" r="16" fill="rgba(235,225,255,0.90)"/>
  <circle cx="3784" cy="2976" r="16" fill="rgba(245,240,255,0.90)"/>
  <circle cx="18264" cy="3844" r="10" fill="rgba(245,235,255,0.90)"/>
  <circle cx="19243" cy="20105" r="20" fill="rgba(220,210,250,0.90)"/>
  <circle cx="16860" cy="9025" r="11" fill="rgba(245,240,255,0.90)"/>
  <circle cx="20033" cy="14169" r="19" fill="rgba(245,235,255,0.90)"/>
  <circle cx="14669" cy="4659" r="11" fill="rgba(220,210,250,0.90)"/>
  <circle cx="22584" cy="23409" r="13" fill="rgba(245,240,255,0.90)"/>
  <circle cx="7769" cy="17986" r="16" fill="rgba(245,235,255,0.90)"/>
  <circle cx="9830" cy="13120" r="20" fill="rgba(245,235,255,0.90)"/>
  <circle cx="12796" cy="23460" r="10" fill="rgba(245,240,255,0.90)"/>
  <circle cx="11082" cy="11410" r="15" fill="rgba(235,225,255,0.90)"/>
  <circle cx="17223" cy="20756" r="18" fill="rgba(220,210,250,0.83)"/>
  <circle cx="7170" cy="1802" r="22" fill="rgba(245,240,255,0.90)"/>
  <circle cx="15655" cy="18580" r="16" fill="rgba(245,240,255,0.90)"/>
  <circle cx="4849" cy="15928" r="20" fill="rgba(220,210,250,0.90)"/>
  <circle cx="16990" cy="17560" r="22" fill="rgba(245,235,255,0.90)"/>
  <circle cx="14146" cy="14223" r="21" fill="rgba(220,210,250,0.90)"/>
  <circle cx="2292" cy="20987" r="12" fill="rgba(245,240,255,0.90)"/>
  <circle cx="18251" cy="15977" r="18" fill="rgba(235,225,255,0.90)"/>
  <circle cx="14223" cy="12333" r="22" fill="rgba(220,210,250,0.90)"/>
  <circle cx="21087" cy="5105" r="13" fill="rgba(235,225,255,0.90)"/>
  <circle cx="16107" cy="6211" r="10" fill="rgba(220,210,250,0.80)"/>
  <circle cx="12755" cy="13207" r="9" fill="rgba(220,210,250,0.90)"/>
  <circle cx="5985" cy="7168" r="13" fill="rgba(235,225,255,0.90)"/>
  <circle cx="17004" cy="20782" r="9" fill="rgba(245,240,255,0.90)"/>
  <circle cx="9090" cy="8066" r="19" fill="rgba(235,225,255,0.90)"/>
  <circle cx="17324" cy="5011" r="17" fill="rgba(235,225,255,0.90)"/>
  <circle cx="4475" cy="2483" r="8" fill="rgba(245,240,255,0.90)"/>
  <circle cx="16825" cy="10605" r="14" fill="rgba(245,235,255,0.90)"/>
  <circle cx="18203" cy="13385" r="16" fill="rgba(235,225,255,0.90)"/>
  <circle cx="23219" cy="23234" r="20" fill="rgba(245,235,255,0.90)"/>
  <circle cx="7365" cy="19854" r="20" fill="rgba(220,210,250,0.90)"/>
  <circle cx="11472" cy="3222" r="19" fill="rgba(235,225,255,0.90)"/>
  <circle cx="18603" cy="7678" r="13" fill="rgba(245,240,255,0.90)"/>
  <circle cx="9532" cy="5245" r="16" fill="rgba(245,240,255,0.90)"/>
  <circle cx="14945" cy="20855" r="15" fill="rgba(245,235,255,0.85)"/>
  <circle cx="5510" cy="22450" r="15" fill="rgba(220,210,250,0.90)"/>
  <circle cx="10129" cy="12307" r="15" fill="rgba(220,210,250,0.90)"/>
  <circle cx="9005" cy="2469" r="8" fill="rgba(245,235,255,0.78)"/>
  <circle cx="21176" cy="2323" r="14" fill="rgba(245,235,255,0.90)"/>
  <circle cx="15461" cy="8973" r="17" fill="rgba(245,235,255,0.90)"/>
  <circle cx="11489" cy="12343" r="11" fill="rgba(235,225,255,0.90)"/>
  <circle cx="22699" cy="12428" r="15" fill="rgba(245,240,255,0.90)"/>
  <circle cx="7420" cy="14604" r="15" fill="rgba(245,235,255,0.90)"/>
  <circle cx="7639" cy="2477" r="21" fill="rgba(245,235,255,0.78)"/>
  <circle cx="2024" cy="13475" r="20" fill="rgba(245,240,255,0.90)"/>
  <circle cx="18165" cy="4482" r="21" fill="rgba(235,225,255,0.90)"/>
  <circle cx="21501" cy="16852" r="8" fill="rgba(220,210,250,0.88)"/>
  <circle cx="16624" cy="7507" r="9" fill="rgba(220,210,250,0.90)"/>
  <circle cx="11214" cy="5257" r="19" fill="rgba(220,210,250,0.90)"/>
  <circle cx="2002" cy="6692" r="12" fill="rgba(245,235,255,0.90)"/>
  <circle cx="15023" cy="9805" r="19" fill="rgba(235,225,255,0.90)"/>
  <circle cx="19708" cy="23065" r="22" fill="rgba(245,240,255,0.90)"/>
  <circle cx="8107" cy="3061" r="30" fill="rgba(240,235,255,0.95)"/>
  <circle cx="16276" cy="14659" r="36" fill="rgba(240,235,255,0.95)"/>
  <circle cx="14969" cy="6243" r="33" fill="rgba(240,235,255,0.95)"/>
  <circle cx="12138" cy="5504" r="40" fill="rgba(240,235,255,0.95)"/>
  <circle cx="12126" cy="9152" r="50" fill="rgba(240,235,255,0.95)"/>
  <circle cx="21454" cy="17242" r="37" fill="rgba(240,235,255,0.95)"/>
  <circle cx="19808" cy="10915" r="42" fill="rgba(240,235,255,0.95)"/>
  <circle cx="5426" cy="6193" r="30" fill="rgba(240,235,255,0.95)"/>
  <circle cx="5836" cy="18798" r="48" fill="rgba(240,235,255,0.95)"/>
  <circle cx="2899" cy="6505" r="39" fill="rgba(240,235,255,0.95)"/>
  <circle cx="15784" cy="5595" r="44" fill="rgba(240,235,255,0.95)"/>
  <circle cx="11013" cy="22391" r="34" fill="rgba(240,235,255,0.95)"/>

  <!-- Shadow -->
  <g filter="url(#shadow)" opacity="0.7">
    <g transform="translate(3677,4386) scale(0.92)">
      <g transform="translate(0,17280) scale(1,-1)">
        <path d="M9574 16707 c-12 -7 -32 -25 -45 -40 -19 -22 -1020 -1028 -1168
-1172 -25 -25 -1316 -1323 -1339 -1347 -9 -10 -1644 -1636 -1657 -1648 -19
-19 -500 -500 -510 -510 -7 -8 -452 -452 -538 -537 -49 -50 -1161 -1162 -1172
-1173 -22 -22 -1001 -1003 -1014 -1015 -62 -59 -721 -727 -738 -749 -15 -20
-23 -44 -23 -70 0 -39 5 -46 107 -143 60 -56 112 -105 116 -110 4 -4 792 -794
1750 -1755 958 -961 1808 -1814 1889 -1895 117 -118 299 -300 376 -377 82 -82
421 -422 1546 -1551 734 -737 1339 -1343 1343 -1348 16 -14 690 -687 776 -774
111 -112 94 -94 190 -194 89 -93 118 -113 146 -104 11 3 56 47 102 96 46 50
106 112 133 138 27 25 185 183 353 351 167 168 524 526 794 795 269 270 494
495 499 500 16 18 1907 1916 3500 3515 861 864 1824 1830 2140 2148 316 318
594 594 616 614 55 47 79 88 70 121 -3 15 -91 109 -212 229 -113 111 -220 217
-238 235 -17 17 -305 307 -641 645 -335 338 -621 626 -635 641 -14 15 -223
226 -465 468 -242 243 -865 867 -1385 1388 -520 521 -965 965 -990 988 -25 22
-49 47 -55 55 -5 8 -19 28 -30 44 -20 28 -20 45 -21 957 -1 827 -3 931 -17
944 -14 14 -82 16 -544 20 -954 6 -1298 11 -1333 19 -29 6 -110 82 -475 448
-242 243 -452 455 -466 472 -14 16 -64 66 -110 111 -136 132 -368 371 -458
470 -48 53 -97 96 -114 102 -16 6 -30 11 -31 11 -1 -1 -11 -6 -22 -13z m2151
-2155 c36 -7 41 -11 57 -57 17 -44 18 -66 11 -185 -4 -74 -8 -760 -8 -1525 0
-764 -4 -3255 -9 -5535 -5 -2739 -5 -4159 2 -4188 9 -38 -1 -108 -18 -126 -3
-2 -928 -7 -2055 -11 -1128 -3 -2070 -8 -2095 -10 -25 -3 -72 1 -104 8 -52 10
-61 15 -67 40 -4 15 -10 757 -14 1649 -6 1750 -7 1720 44 1740 33 14 737 11
763 -3 10 -5 25 -24 34 -42 18 -34 17 -115 -6 -407 -7 -92 -7 -186 0 -295 5
-88 14 -362 20 -610 10 -395 14 -458 31 -517 10 -36 19 -88 19 -115 0 -27 6
-58 15 -69 8 -10 17 -45 21 -76 4 -32 13 -63 20 -69 8 -6 14 -21 14 -32 0 -32
75 -175 132 -251 34 -46 72 -82 112 -107 l61 -39 253 0 c231 0 260 2 325 22
39 11 82 27 96 34 14 8 34 14 43 14 9 0 18 3 20 8 2 4 37 30 78 57 71 46 142
111 203 186 55 68 107 139 107 145 0 4 7 15 16 25 18 20 28 39 102 182 28 57
52 108 52 115 0 7 4 12 10 12 5 0 13 12 16 27 4 16 13 39 20 53 35 68 77 181
98 265 7 28 18 60 24 70 16 31 46 127 83 265 6 25 18 65 26 90 8 25 18 74 23
110 4 36 15 79 24 95 9 17 16 47 16 68 0 21 7 54 16 75 8 20 18 66 21 102 3
36 11 76 18 90 7 14 15 59 19 100 4 41 13 100 21 130 7 30 16 89 20 130 3 41
13 98 20 125 8 28 19 99 25 158 6 59 15 119 20 132 5 13 12 66 15 117 4 51 13
113 20 138 7 25 16 97 20 160 3 63 12 138 20 165 7 28 16 113 18 190 3 77 11
154 17 170 7 17 16 113 20 215 5 102 14 203 20 225 6 22 13 114 16 205 2 91
11 215 19 275 8 61 20 229 25 375 6 146 15 326 20 400 5 74 14 367 20 651 6
284 15 615 21 735 7 135 13 924 16 2053 3 1101 8 1842 14 1852 5 10 19 20 31
22 39 7 831 6 873 -1z m-3469 -5758 c27 -33 34 -72 34 -202 0 -83 4 -109 20
-139 11 -21 20 -45 20 -55 0 -35 80 -162 142 -227 61 -62 209 -131 282 -131
19 0 47 -5 63 -11 15 -6 62 -15 103 -19 42 -5 93 -16 114 -26 63 -31 66 -48
66 -368 -1 -345 6 -327 -140 -346 -52 -6 -126 -14 -165 -17 -142 -10 -278 -88
-386 -224 -66 -81 -119 -229 -119 -331 0 -60 -3 -70 -27 -93 l-28 -25 -370 0
c-464 0 -439 -7 -472 138 -12 53 -23 107 -23 120 0 12 -9 39 -20 59 -11 21
-20 44 -20 51 0 17 -87 127 -127 162 -49 42 -91 70 -106 70 -8 0 -20 6 -26 14
-7 8 -26 18 -42 21 -17 4 -42 13 -57 21 -19 10 -66 14 -165 14 -151 0 -202 13
-213 54 -2 11 -4 171 -2 354 3 283 5 334 18 342 8 5 67 10 130 10 74 1 129 6
155 15 22 8 51 15 65 15 14 0 43 9 65 20 22 11 48 19 57 20 9 0 18 3 20 8 2 4
22 20 46 36 68 46 182 183 182 219 0 7 9 26 20 42 11 17 20 43 20 58 0 15 7
44 15 64 9 20 18 85 21 152 7 125 14 148 47 161 12 4 193 6 402 4 l380 -4 21
-26z m-1917 -818 l31 -30 0 -306 0 -307 -26 -24 c-30 -28 54 -26 -803 -20
-556 4 -605 7 -625 39 -3 5 -6 150 -7 322 -1 345 -3 334 62 350 19 5 327 8
686 7 l652 -2 30 -29z" fill="#080410"/>
      </g>
    </g>
  </g>

  <!-- Main emblem body -->
  <g filter="url(#metalFx)">
    <g transform="translate(3677,4386) scale(0.92)">
      <g transform="translate(0,17280) scale(1,-1)">
        <path d="M9574 16707 c-12 -7 -32 -25 -45 -40 -19 -22 -1020 -1028 -1168
-1172 -25 -25 -1316 -1323 -1339 -1347 -9 -10 -1644 -1636 -1657 -1648 -19
-19 -500 -500 -510 -510 -7 -8 -452 -452 -538 -537 -49 -50 -1161 -1162 -1172
-1173 -22 -22 -1001 -1003 -1014 -1015 -62 -59 -721 -727 -738 -749 -15 -20
-23 -44 -23 -70 0 -39 5 -46 107 -143 60 -56 112 -105 116 -110 4 -4 792 -794
1750 -1755 958 -961 1808 -1814 1889 -1895 117 -118 299 -300 376 -377 82 -82
421 -422 1546 -1551 734 -737 1339 -1343 1343 -1348 16 -14 690 -687 776 -774
111 -112 94 -94 190 -194 89 -93 118 -113 146 -104 11 3 56 47 102 96 46 50
106 112 133 138 27 25 185 183 353 351 167 168 524 526 794 795 269 270 494
495 499 500 16 18 1907 1916 3500 3515 861 864 1824 1830 2140 2148 316 318
594 594 616 614 55 47 79 88 70 121 -3 15 -91 109 -212 229 -113 111 -220 217
-238 235 -17 17 -305 307 -641 645 -335 338 -621 626 -635 641 -14 15 -223
226 -465 468 -242 243 -865 867 -1385 1388 -520 521 -965 965 -990 988 -25 22
-49 47 -55 55 -5 8 -19 28 -30 44 -20 28 -20 45 -21 957 -1 827 -3 931 -17
944 -14 14 -82 16 -544 20 -954 6 -1298 11 -1333 19 -29 6 -110 82 -475 448
-242 243 -452 455 -466 472 -14 16 -64 66 -110 111 -136 132 -368 371 -458
470 -48 53 -97 96 -114 102 -16 6 -30 11 -31 11 -1 -1 -11 -6 -22 -13z m2151
-2155 c36 -7 41 -11 57 -57 17 -44 18 -66 11 -185 -4 -74 -8 -760 -8 -1525 0
-764 -4 -3255 -9 -5535 -5 -2739 -5 -4159 2 -4188 9 -38 -1 -108 -18 -126 -3
-2 -928 -7 -2055 -11 -1128 -3 -2070 -8 -2095 -10 -25 -3 -72 1 -104 8 -52 10
-61 15 -67 40 -4 15 -10 757 -14 1649 -6 1750 -7 1720 44 1740 33 14 737 11
763 -3 10 -5 25 -24 34 -42 18 -34 17 -115 -6 -407 -7 -92 -7 -186 0 -295 5
-88 14 -362 20 -610 10 -395 14 -458 31 -517 10 -36 19 -88 19 -115 0 -27 6
-58 15 -69 8 -10 17 -45 21 -76 4 -32 13 -63 20 -69 8 -6 14 -21 14 -32 0 -32
75 -175 132 -251 34 -46 72 -82 112 -107 l61 -39 253 0 c231 0 260 2 325 22
39 11 82 27 96 34 14 8 34 14 43 14 9 0 18 3 20 8 2 4 37 30 78 57 71 46 142
111 203 186 55 68 107 139 107 145 0 4 7 15 16 25 18 20 28 39 102 182 28 57
52 108 52 115 0 7 4 12 10 12 5 0 13 12 16 27 4 16 13 39 20 53 35 68 77 181
98 265 7 28 18 60 24 70 16 31 46 127 83 265 6 25 18 65 26 90 8 25 18 74 23
110 4 36 15 79 24 95 9 17 16 47 16 68 0 21 7 54 16 75 8 20 18 66 21 102 3
36 11 76 18 90 7 14 15 59 19 100 4 41 13 100 21 130 7 30 16 89 20 130 3 41
13 98 20 125 8 28 19 99 25 158 6 59 15 119 20 132 5 13 12 66 15 117 4 51 13
113 20 138 7 25 16 97 20 160 3 63 12 138 20 165 7 28 16 113 18 190 3 77 11
154 17 170 7 17 16 113 20 215 5 102 14 203 20 225 6 22 13 114 16 205 2 91
11 215 19 275 8 61 20 229 25 375 6 146 15 326 20 400 5 74 14 367 20 651 6
284 15 615 21 735 7 135 13 924 16 2053 3 1101 8 1842 14 1852 5 10 19 20 31
22 39 7 831 6 873 -1z m-3469 -5758 c27 -33 34 -72 34 -202 0 -83 4 -109 20
-139 11 -21 20 -45 20 -55 0 -35 80 -162 142 -227 61 -62 209 -131 282 -131
19 0 47 -5 63 -11 15 -6 62 -15 103 -19 42 -5 93 -16 114 -26 63 -31 66 -48
66 -368 -1 -345 6 -327 -140 -346 -52 -6 -126 -14 -165 -17 -142 -10 -278 -88
-386 -224 -66 -81 -119 -229 -119 -331 0 -60 -3 -70 -27 -93 l-28 -25 -370 0
c-464 0 -439 -7 -472 138 -12 53 -23 107 -23 120 0 12 -9 39 -20 59 -11 21
-20 44 -20 51 0 17 -87 127 -127 162 -49 42 -91 70 -106 70 -8 0 -20 6 -26 14
-7 8 -26 18 -42 21 -17 4 -42 13 -57 21 -19 10 -66 14 -165 14 -151 0 -202 13
-213 54 -2 11 -4 171 -2 354 3 283 5 334 18 342 8 5 67 10 130 10 74 1 129 6
155 15 22 8 51 15 65 15 14 0 43 9 65 20 22 11 48 19 57 20 9 0 18 3 20 8 2 4
22 20 46 36 68 46 182 183 182 219 0 7 9 26 20 42 11 17 20 43 20 58 0 15 7
44 15 64 9 20 18 85 21 152 7 125 14 148 47 161 12 4 193 6 402 4 l380 -4 21
-26z m-1917 -818 l31 -30 0 -306 0 -307 -26 -24 c-30 -28 54 -26 -803 -20
-556 4 -605 7 -625 39 -3 5 -6 150 -7 322 -1 345 -3 334 62 350 19 5 327 8
686 7 l652 -2 30 -29z" fill="url(#gBody)"/>
      </g>
    </g>
  </g>
  
  <!-- Highlight with depth -->
  <g opacity="0.7" filter="url(#innerDepth)">
    <g transform="translate(3677,4386) scale(0.92)">
      <g transform="translate(0,17280) scale(1,-1)">
        <path d="M9574 16707 c-12 -7 -32 -25 -45 -40 -19 -22 -1020 -1028 -1168
-1172 -25 -25 -1316 -1323 -1339 -1347 -9 -10 -1644 -1636 -1657 -1648 -19
-19 -500 -500 -510 -510 -7 -8 -452 -452 -538 -537 -49 -50 -1161 -1162 -1172
-1173 -22 -22 -1001 -1003 -1014 -1015 -62 -59 -721 -727 -738 -749 -15 -20
-23 -44 -23 -70 0 -39 5 -46 107 -143 60 -56 112 -105 116 -110 4 -4 792 -794
1750 -1755 958 -961 1808 -1814 1889 -1895 117 -118 299 -300 376 -377 82 -82
421 -422 1546 -1551 734 -737 1339 -1343 1343 -1348 16 -14 690 -687 776 -774
111 -112 94 -94 190 -194 89 -93 118 -113 146 -104 11 3 56 47 102 96 46 50
106 112 133 138 27 25 185 183 353 351 167 168 524 526 794 795 269 270 494
495 499 500 16 18 1907 1916 3500 3515 861 864 1824 1830 2140 2148 316 318
594 594 616 614 55 47 79 88 70 121 -3 15 -91 109 -212 229 -113 111 -220 217
-238 235 -17 17 -305 307 -641 645 -335 338 -621 626 -635 641 -14 15 -223
226 -465 468 -242 243 -865 867 -1385 1388 -520 521 -965 965 -990 988 -25 22
-49 47 -55 55 -5 8 -19 28 -30 44 -20 28 -20 45 -21 957 -1 827 -3 931 -17
944 -14 14 -82 16 -544 20 -954 6 -1298 11 -1333 19 -29 6 -110 82 -475 448
-242 243 -452 455 -466 472 -14 16 -64 66 -110 111 -136 132 -368 371 -458
470 -48 53 -97 96 -114 102 -16 6 -30 11 -31 11 -1 -1 -11 -6 -22 -13z m2151
-2155 c36 -7 41 -11 57 -57 17 -44 18 -66 11 -185 -4 -74 -8 -760 -8 -1525 0
-764 -4 -3255 -9 -5535 -5 -2739 -5 -4159 2 -4188 9 -38 -1 -108 -18 -126 -3
-2 -928 -7 -2055 -11 -1128 -3 -2070 -8 -2095 -10 -25 -3 -72 1 -104 8 -52 10
-61 15 -67 40 -4 15 -10 757 -14 1649 -6 1750 -7 1720 44 1740 33 14 737 11
763 -3 10 -5 25 -24 34 -42 18 -34 17 -115 -6 -407 -7 -92 -7 -186 0 -295 5
-88 14 -362 20 -610 10 -395 14 -458 31 -517 10 -36 19 -88 19 -115 0 -27 6
-58 15 -69 8 -10 17 -45 21 -76 4 -32 13 -63 20 -69 8 -6 14 -21 14 -32 0 -32
75 -175 132 -251 34 -46 72 -82 112 -107 l61 -39 253 0 c231 0 260 2 325 22
39 11 82 27 96 34 14 8 34 14 43 14 9 0 18 3 20 8 2 4 37 30 78 57 71 46 142
111 203 186 55 68 107 139 107 145 0 4 7 15 16 25 18 20 28 39 102 182 28 57
52 108 52 115 0 7 4 12 10 12 5 0 13 12 16 27 4 16 13 39 20 53 35 68 77 181
98 265 7 28 18 60 24 70 16 31 46 127 83 265 6 25 18 65 26 90 8 25 18 74 23
110 4 36 15 79 24 95 9 17 16 47 16 68 0 21 7 54 16 75 8 20 18 66 21 102 3
36 11 76 18 90 7 14 15 59 19 100 4 41 13 100 21 130 7 30 16 89 20 130 3 41
13 98 20 125 8 28 19 99 25 158 6 59 15 119 20 132 5 13 12 66 15 117 4 51 13
113 20 138 7 25 16 97 20 160 3 63 12 138 20 165 7 28 16 113 18 190 3 77 11
154 17 170 7 17 16 113 20 215 5 102 14 203 20 225 6 22 13 114 16 205 2 91
11 215 19 275 8 61 20 229 25 375 6 146 15 326 20 400 5 74 14 367 20 651 6
284 15 615 21 735 7 135 13 924 16 2053 3 1101 8 1842 14 1852 5 10 19 20 31
22 39 7 831 6 873 -1z m-3469 -5758 c27 -33 34 -72 34 -202 0 -83 4 -109 20
-139 11 -21 20 -45 20 -55 0 -35 80 -162 142 -227 61 -62 209 -131 282 -131
19 0 47 -5 63 -11 15 -6 62 -15 103 -19 42 -5 93 -16 114 -26 63 -31 66 -48
66 -368 -1 -345 6 -327 -140 -346 -52 -6 -126 -14 -165 -17 -142 -10 -278 -88
-386 -224 -66 -81 -119 -229 -119 -331 0 -60 -3 -70 -27 -93 l-28 -25 -370 0
c-464 0 -439 -7 -472 138 -12 53 -23 107 -23 120 0 12 -9 39 -20 59 -11 21
-20 44 -20 51 0 17 -87 127 -127 162 -49 42 -91 70 -106 70 -8 0 -20 6 -26 14
-7 8 -26 18 -42 21 -17 4 -42 13 -57 21 -19 10 -66 14 -165 14 -151 0 -202 13
-213 54 -2 11 -4 171 -2 354 3 283 5 334 18 342 8 5 67 10 130 10 74 1 129 6
155 15 22 8 51 15 65 15 14 0 43 9 65 20 22 11 48 19 57 20 9 0 18 3 20 8 2 4
22 20 46 36 68 46 182 183 182 219 0 7 9 26 20 42 11 17 20 43 20 58 0 15 7
44 15 64 9 20 18 85 21 152 7 125 14 148 47 161 12 4 193 6 402 4 l380 -4 21
-26z m-1917 -818 l31 -30 0 -306 0 -307 -26 -24 c-30 -28 54 -26 -803 -20
-556 4 -605 7 -625 39 -3 5 -6 150 -7 322 -1 345 -3 334 62 350 19 5 327 8
686 7 l652 -2 30 -29z" fill="url(#gBodyHL)"/>
      </g>
    </g>
  </g>

  <!-- Edge shimmer -->
  <g transform="translate(3677,4386) scale(0.92)" opacity="0.35">
    <g transform="translate(0,17280) scale(1,-1)">
      <path d="M9574 16707 c-12 -7 -32 -25 -45 -40 -19 -22 -1020 -1028 -1168
-1172 -25 -25 -1316 -1323 -1339 -1347 -9 -10 -1644 -1636 -1657 -1648 -19
-19 -500 -500 -510 -510 -7 -8 -452 -452 -538 -537 -49 -50 -1161 -1162 -1172
-1173 -22 -22 -1001 -1003 -1014 -1015 -62 -59 -721 -727 -738 -749 -15 -20
-23 -44 -23 -70 0 -39 5 -46 107 -143 60 -56 112 -105 116 -110 4 -4 792 -794
1750 -1755 958 -961 1808 -1814 1889 -1895 117 -118 299 -300 376 -377 82 -82
421 -422 1546 -1551 734 -737 1339 -1343 1343 -1348 16 -14 690 -687 776 -774
111 -112 94 -94 190 -194 89 -93 118 -113 146 -104 11 3 56 47 102 96 46 50
106 112 133 138 27 25 185 183 353 351 167 168 524 526 794 795 269 270 494
495 499 500 16 18 1907 1916 3500 3515 861 864 1824 1830 2140 2148 316 318
594 594 616 614 55 47 79 88 70 121 -3 15 -91 109 -212 229 -113 111 -220 217
-238 235 -17 17 -305 307 -641 645 -335 338 -621 626 -635 641 -14 15 -223
226 -465 468 -242 243 -865 867 -1385 1388 -520 521 -965 965 -990 988 -25 22
-49 47 -55 55 -5 8 -19 28 -30 44 -20 28 -20 45 -21 957 -1 827 -3 931 -17
944 -14 14 -82 16 -544 20 -954 6 -1298 11 -1333 19 -29 6 -110 82 -475 448
-242 243 -452 455 -466 472 -14 16 -64 66 -110 111 -136 132 -368 371 -458
470 -48 53 -97 96 -114 102 -16 6 -30 11 -31 11 -1 -1 -11 -6 -22 -13z m2151
-2155 c36 -7 41 -11 57 -57 17 -44 18 -66 11 -185 -4 -74 -8 -760 -8 -1525 0
-764 -4 -3255 -9 -5535 -5 -2739 -5 -4159 2 -4188 9 -38 -1 -108 -18 -126 -3
-2 -928 -7 -2055 -11 -1128 -3 -2070 -8 -2095 -10 -25 -3 -72 1 -104 8 -52 10
-61 15 -67 40 -4 15 -10 757 -14 1649 -6 1750 -7 1720 44 1740 33 14 737 11
763 -3 10 -5 25 -24 34 -42 18 -34 17 -115 -6 -407 -7 -92 -7 -186 0 -295 5
-88 14 -362 20 -610 10 -395 14 -458 31 -517 10 -36 19 -88 19 -115 0 -27 6
-58 15 -69 8 -10 17 -45 21 -76 4 -32 13 -63 20 -69 8 -6 14 -21 14 -32 0 -32
75 -175 132 -251 34 -46 72 -82 112 -107 l61 -39 253 0 c231 0 260 2 325 22
39 11 82 27 96 34 14 8 34 14 43 14 9 0 18 3 20 8 2 4 37 30 78 57 71 46 142
111 203 186 55 68 107 139 107 145 0 4 7 15 16 25 18 20 28 39 102 182 28 57
52 108 52 115 0 7 4 12 10 12 5 0 13 12 16 27 4 16 13 39 20 53 35 68 77 181
98 265 7 28 18 60 24 70 16 31 46 127 83 265 6 25 18 65 26 90 8 25 18 74 23
110 4 36 15 79 24 95 9 17 16 47 16 68 0 21 7 54 16 75 8 20 18 66 21 102 3
36 11 76 18 90 7 14 15 59 19 100 4 41 13 100 21 130 7 30 16 89 20 130 3 41
13 98 20 125 8 28 19 99 25 158 6 59 15 119 20 132 5 13 12 66 15 117 4 51 13
113 20 138 7 25 16 97 20 160 3 63 12 138 20 165 7 28 16 113 18 190 3 77 11
154 17 170 7 17 16 113 20 215 5 102 14 203 20 225 6 22 13 114 16 205 2 91
11 215 19 275 8 61 20 229 25 375 6 146 15 326 20 400 5 74 14 367 20 651 6
284 15 615 21 735 7 135 13 924 16 2053 3 1101 8 1842 14 1852 5 10 19 20 31
22 39 7 831 6 873 -1z m-3469 -5758 c27 -33 34 -72 34 -202 0 -83 4 -109 20
-139 11 -21 20 -45 20 -55 0 -35 80 -162 142 -227 61 -62 209 -131 282 -131
19 0 47 -5 63 -11 15 -6 62 -15 103 -19 42 -5 93 -16 114 -26 63 -31 66 -48
66 -368 -1 -345 6 -327 -140 -346 -52 -6 -126 -14 -165 -17 -142 -10 -278 -88
-386 -224 -66 -81 -119 -229 -119 -331 0 -60 -3 -70 -27 -93 l-28 -25 -370 0
c-464 0 -439 -7 -472 138 -12 53 -23 107 -23 120 0 12 -9 39 -20 59 -11 21
-20 44 -20 51 0 17 -87 127 -127 162 -49 42 -91 70 -106 70 -8 0 -20 6 -26 14
-7 8 -26 18 -42 21 -17 4 -42 13 -57 21 -19 10 -66 14 -165 14 -151 0 -202 13
-213 54 -2 11 -4 171 -2 354 3 283 5 334 18 342 8 5 67 10 130 10 74 1 129 6
155 15 22 8 51 15 65 15 14 0 43 9 65 20 22 11 48 19 57 20 9 0 18 3 20 8 2 4
22 20 46 36 68 46 182 183 182 219 0 7 9 26 20 42 11 17 20 43 20 58 0 15 7
44 15 64 9 20 18 85 21 152 7 125 14 148 47 161 12 4 193 6 402 4 l380 -4 21
-26z m-1917 -818 l31 -30 0 -306 0 -307 -26 -24 c-30 -28 54 -26 -803 -20
-556 4 -605 7 -625 39 -3 5 -6 150 -7 322 -1 345 -3 334 62 350 19 5 327 8
686 7 l652 -2 30 -29z" fill="none" stroke="url(#gEdge)" stroke-width="22"/>
    </g>
  </g>
</g>

<!-- Ring System -->
<circle cx="12500" cy="12500" r="10200" fill="url(#auraGrad)" style="animation:auraPulse 4s ease-in-out infinite"/>
<circle cx="12500" cy="12500" r="10900" fill="none" stroke="url(#gRing)" stroke-width="1400"/>
<circle cx="12500" cy="12500" r="10900" fill="none" stroke="url(#gRingHL)" stroke-width="1400"/>

<!-- Dominion Ring: segmented authority design -->
<!-- Dark base groove -->
<circle cx="12500" cy="12500" r="10280" fill="none" stroke="#080410" stroke-width="60"/>
<circle cx="12500" cy="12500" r="11520" fill="none" stroke="#080410" stroke-width="60"/>

<!-- Dark segment gaps for contrast -->
<circle cx="12500" cy="12500" r="10900" fill="none" stroke="#040208" stroke-width="1400" stroke-dasharray="120,350" opacity="0.4"/>

<!-- Segment dividers -->
<line x1="22715" y1="12500" x2="24085" y2="12500" stroke="#5a4880" stroke-width="55" opacity="0.95"/>
<line x1="22628" y1="13833" x2="23986" y2="14012" stroke="#5a4880" stroke-width="28" opacity="0.7"/>
<line x1="22367" y1="15144" x2="23690" y2="15498" stroke="#5a4880" stroke-width="28" opacity="0.7"/>
<line x1="21937" y1="16409" x2="23203" y2="16933" stroke="#5a4880" stroke-width="28" opacity="0.7"/>
<line x1="21346" y1="17608" x2="22533" y2="18292" stroke="#5a4880" stroke-width="55" opacity="0.95"/>
<line x1="20604" y1="18718" x2="21691" y2="19553" stroke="#5a4880" stroke-width="28" opacity="0.7"/>
<line x1="19723" y1="19723" x2="20692" y2="20692" stroke="#5a4880" stroke-width="28" opacity="0.7"/>
<line x1="18718" y1="20604" x2="19553" y2="21691" stroke="#5a4880" stroke-width="28" opacity="0.7"/>
<line x1="17608" y1="21346" x2="18292" y2="22533" stroke="#5a4880" stroke-width="55" opacity="0.95"/>
<line x1="16409" y1="21937" x2="16933" y2="23203" stroke="#5a4880" stroke-width="28" opacity="0.7"/>
<line x1="15144" y1="22367" x2="15498" y2="23690" stroke="#5a4880" stroke-width="28" opacity="0.7"/>
<line x1="13833" y1="22628" x2="14012" y2="23986" stroke="#5a4880" stroke-width="28" opacity="0.7"/>
<line x1="12500" y1="22715" x2="12500" y2="24085" stroke="#5a4880" stroke-width="55" opacity="0.95"/>
<line x1="11167" y1="22628" x2="10988" y2="23986" stroke="#5a4880" stroke-width="28" opacity="0.7"/>
<line x1="9856" y1="22367" x2="9502" y2="23690" stroke="#5a4880" stroke-width="28" opacity="0.7"/>
<line x1="8591" y1="21937" x2="8067" y2="23203" stroke="#5a4880" stroke-width="28" opacity="0.7"/>
<line x1="7393" y1="21346" x2="6708" y2="22533" stroke="#5a4880" stroke-width="55" opacity="0.95"/>
<line x1="6282" y1="20604" x2="5447" y2="21691" stroke="#5a4880" stroke-width="28" opacity="0.7"/>
<line x1="5277" y1="19723" x2="4308" y2="20692" stroke="#5a4880" stroke-width="28" opacity="0.7"/>
<line x1="4396" y1="18718" x2="3309" y2="19553" stroke="#5a4880" stroke-width="28" opacity="0.7"/>
<line x1="3654" y1="17608" x2="2467" y2="18292" stroke="#5a4880" stroke-width="55" opacity="0.95"/>
<line x1="3063" y1="16409" x2="1797" y2="16933" stroke="#5a4880" stroke-width="28" opacity="0.7"/>
<line x1="2633" y1="15144" x2="1310" y2="15498" stroke="#5a4880" stroke-width="28" opacity="0.7"/>
<line x1="2372" y1="13833" x2="1014" y2="14012" stroke="#5a4880" stroke-width="28" opacity="0.7"/>
<line x1="2285" y1="12500" x2="915" y2="12500" stroke="#5a4880" stroke-width="55" opacity="0.95"/>
<line x1="2372" y1="11167" x2="1014" y2="10988" stroke="#5a4880" stroke-width="28" opacity="0.7"/>
<line x1="2633" y1="9856" x2="1310" y2="9502" stroke="#5a4880" stroke-width="28" opacity="0.7"/>
<line x1="3063" y1="8591" x2="1797" y2="8067" stroke="#5a4880" stroke-width="28" opacity="0.7"/>
<line x1="3654" y1="7393" x2="2467" y2="6708" stroke="#5a4880" stroke-width="55" opacity="0.95"/>
<line x1="4396" y1="6282" x2="3309" y2="5447" stroke="#5a4880" stroke-width="28" opacity="0.7"/>
<line x1="5277" y1="5277" x2="4308" y2="4308" stroke="#5a4880" stroke-width="28" opacity="0.7"/>
<line x1="6282" y1="4396" x2="5447" y2="3309" stroke="#5a4880" stroke-width="28" opacity="0.7"/>
<line x1="7392" y1="3654" x2="6707" y2="2467" stroke="#5a4880" stroke-width="55" opacity="0.95"/>
<line x1="8591" y1="3063" x2="8067" y2="1797" stroke="#5a4880" stroke-width="28" opacity="0.7"/>
<line x1="9856" y1="2633" x2="9502" y2="1310" stroke="#5a4880" stroke-width="28" opacity="0.7"/>
<line x1="11167" y1="2372" x2="10988" y2="1014" stroke="#5a4880" stroke-width="28" opacity="0.7"/>
<line x1="12500" y1="2285" x2="12500" y2="915" stroke="#5a4880" stroke-width="55" opacity="0.95"/>
<line x1="13833" y1="2372" x2="14012" y2="1014" stroke="#5a4880" stroke-width="28" opacity="0.7"/>
<line x1="15144" y1="2633" x2="15498" y2="1310" stroke="#5a4880" stroke-width="28" opacity="0.7"/>
<line x1="16409" y1="3063" x2="16933" y2="1797" stroke="#5a4880" stroke-width="28" opacity="0.7"/>
<line x1="17608" y1="3654" x2="18292" y2="2467" stroke="#5a4880" stroke-width="55" opacity="0.95"/>
<line x1="18718" y1="4396" x2="19553" y2="3309" stroke="#5a4880" stroke-width="28" opacity="0.7"/>
<line x1="19723" y1="5277" x2="20692" y2="4308" stroke="#5a4880" stroke-width="28" opacity="0.7"/>
<line x1="20604" y1="6282" x2="21691" y2="5447" stroke="#5a4880" stroke-width="28" opacity="0.7"/>
<line x1="21346" y1="7392" x2="22533" y2="6707" stroke="#5a4880" stroke-width="55" opacity="0.95"/>
<line x1="21937" y1="8591" x2="23203" y2="8067" stroke="#5a4880" stroke-width="28" opacity="0.7"/>
<line x1="22367" y1="9856" x2="23690" y2="9502" stroke="#5a4880" stroke-width="28" opacity="0.7"/>
<line x1="22628" y1="11167" x2="23986" y2="10988" stroke="#5a4880" stroke-width="28" opacity="0.7"/>


<!-- Inner/outer accent lines (triple) -->
<circle cx="12500" cy="12500" r="10330" fill="none" stroke="#4a3870" stroke-width="18"/>
<circle cx="12500" cy="12500" r="10360" fill="none" stroke="#6a58a0" stroke-width="8"/>
<circle cx="12500" cy="12500" r="11470" fill="none" stroke="#4a3870" stroke-width="18"/>
<circle cx="12500" cy="12500" r="11440" fill="none" stroke="#6a58a0" stroke-width="8"/>

<!-- Chevron authority markers at 8 points -->
<path d="M12458,1323 L12500,1180 L12542,1323" fill="none" stroke="#9080c0" stroke-width="20" stroke-linejoin="miter"/>
<path d="M20374,4567 L20504,4496 L20433,4626" fill="none" stroke="#9080c0" stroke-width="20" stroke-linejoin="miter"/>
<path d="M23677,12458 L23820,12500 L23677,12542" fill="none" stroke="#9080c0" stroke-width="20" stroke-linejoin="miter"/>
<path d="M20433,20374 L20504,20504 L20374,20433" fill="none" stroke="#9080c0" stroke-width="20" stroke-linejoin="miter"/>
<path d="M12542,23677 L12500,23820 L12458,23677" fill="none" stroke="#9080c0" stroke-width="20" stroke-linejoin="miter"/>
<path d="M4626,20433 L4496,20504 L4567,20374" fill="none" stroke="#9080c0" stroke-width="20" stroke-linejoin="miter"/>
<path d="M1323,12542 L1180,12500 L1323,12458" fill="none" stroke="#9080c0" stroke-width="20" stroke-linejoin="miter"/>
<path d="M4567,4626 L4496,4496 L4626,4567" fill="none" stroke="#9080c0" stroke-width="20" stroke-linejoin="miter"/>


<!-- Glow -->
<circle cx="12500" cy="12500" r="10900" fill="none" stroke="#8060c0" stroke-width="1600" opacity="0" style="animation:ringPulse 3.5s ease-in-out infinite" filter="url(#softGlow)"/>

<!-- Text: THE DOMINION -->
<text font-family="'Helvetica Neue',Helvetica,Arial,sans-serif" font-size="520" font-weight="900" fill="#080410" opacity="0.70" text-anchor="middle" transform="translate(18,22)"><textPath href="#textTop" startOffset="50%" textLength="23860" lengthAdjust="spacing">THE DOMINION</textPath></text>
<text font-family="'Helvetica Neue',Helvetica,Arial,sans-serif" font-size="520" font-weight="900" fill="#9888c0" opacity="0.95" text-anchor="middle"><textPath href="#textTop" startOffset="50%" textLength="23860" lengthAdjust="spacing">THE DOMINION</textPath></text>
<text font-family="'Helvetica Neue',Helvetica,Arial,sans-serif" font-size="520" font-weight="900" fill="#c8b8e8" opacity="0.35" text-anchor="middle" transform="translate(-4,-8)"><textPath href="#textTop" startOffset="50%" textLength="23860" lengthAdjust="spacing">THE DOMINION</textPath></text>

<!-- Text: FOUNDERS' ORDER -->
<text font-family="'Helvetica Neue',Helvetica,Arial,sans-serif" font-size="520" font-weight="900" fill="#080410" opacity="0.70" text-anchor="middle" transform="translate(18,22)"><textPath href="#textBot" startOffset="50%" textLength="25800" lengthAdjust="spacing">FOUNDERS&#x27; ORDER</textPath></text>
<text font-family="'Helvetica Neue',Helvetica,Arial,sans-serif" font-size="520" font-weight="900" fill="#9888c0" opacity="0.95" text-anchor="middle"><textPath href="#textBot" startOffset="50%" textLength="25800" lengthAdjust="spacing">FOUNDERS&#x27; ORDER</textPath></text>
<text font-family="'Helvetica Neue',Helvetica,Arial,sans-serif" font-size="520" font-weight="900" fill="#c8b8e8" opacity="0.35" text-anchor="middle" transform="translate(-4,-8)"><textPath href="#textBot" startOffset="50%" textLength="25800" lengthAdjust="spacing">FOUNDERS&#x27; ORDER</textPath></text>

<!-- Diamond decorations at equator -->
<g>
  <path d="M1600,12320 L1710,12500 L1600,12680 L1490,12500 Z" fill="#201438" stroke="#7060a0" stroke-width="12"/>
  <path d="M23400,12320 L23510,12500 L23400,12680 L23290,12500 Z" fill="#201438" stroke="#7060a0" stroke-width="12"/>
</g>


  <!-- Strong contour edges for small-size readability -->
  <g transform="translate(3677,4386) scale(0.92)">
    <g transform="translate(0,17280) scale(1,-1)">
      <path d="M9574 16707 c-12 -7 -32 -25 -45 -40 -19 -22 -1020 -1028 -1168
-1172 -25 -25 -1316 -1323 -1339 -1347 -9 -10 -1644 -1636 -1657 -1648 -19
-19 -500 -500 -510 -510 -7 -8 -452 -452 -538 -537 -49 -50 -1161 -1162 -1172
-1173 -22 -22 -1001 -1003 -1014 -1015 -62 -59 -721 -727 -738 -749 -15 -20
-23 -44 -23 -70 0 -39 5 -46 107 -143 60 -56 112 -105 116 -110 4 -4 792 -794
1750 -1755 958 -961 1808 -1814 1889 -1895 117 -118 299 -300 376 -377 82 -82
421 -422 1546 -1551 734 -737 1339 -1343 1343 -1348 16 -14 690 -687 776 -774
111 -112 94 -94 190 -194 89 -93 118 -113 146 -104 11 3 56 47 102 96 46 50
106 112 133 138 27 25 185 183 353 351 167 168 524 526 794 795 269 270 494
495 499 500 16 18 1907 1916 3500 3515 861 864 1824 1830 2140 2148 316 318
594 594 616 614 55 47 79 88 70 121 -3 15 -91 109 -212 229 -113 111 -220 217
-238 235 -17 17 -305 307 -641 645 -335 338 -621 626 -635 641 -14 15 -223
226 -465 468 -242 243 -865 867 -1385 1388 -520 521 -965 965 -990 988 -25 22
-49 47 -55 55 -5 8 -19 28 -30 44 -20 28 -20 45 -21 957 -1 827 -3 931 -17
944 -14 14 -82 16 -544 20 -954 6 -1298 11 -1333 19 -29 6 -110 82 -475 448
-242 243 -452 455 -466 472 -14 16 -64 66 -110 111 -136 132 -368 371 -458
470 -48 53 -97 96 -114 102 -16 6 -30 11 -31 11 -1 -1 -11 -6 -22 -13z m2151
-2155 c36 -7 41 -11 57 -57 17 -44 18 -66 11 -185 -4 -74 -8 -760 -8 -1525 0
-764 -4 -3255 -9 -5535 -5 -2739 -5 -4159 2 -4188 9 -38 -1 -108 -18 -126 -3
-2 -928 -7 -2055 -11 -1128 -3 -2070 -8 -2095 -10 -25 -3 -72 1 -104 8 -52 10
-61 15 -67 40 -4 15 -10 757 -14 1649 -6 1750 -7 1720 44 1740 33 14 737 11
763 -3 10 -5 25 -24 34 -42 18 -34 17 -115 -6 -407 -7 -92 -7 -186 0 -295 5
-88 14 -362 20 -610 10 -395 14 -458 31 -517 10 -36 19 -88 19 -115 0 -27 6
-58 15 -69 8 -10 17 -45 21 -76 4 -32 13 -63 20 -69 8 -6 14 -21 14 -32 0 -32
75 -175 132 -251 34 -46 72 -82 112 -107 l61 -39 253 0 c231 0 260 2 325 22
39 11 82 27 96 34 14 8 34 14 43 14 9 0 18 3 20 8 2 4 37 30 78 57 71 46 142
111 203 186 55 68 107 139 107 145 0 4 7 15 16 25 18 20 28 39 102 182 28 57
52 108 52 115 0 7 4 12 10 12 5 0 13 12 16 27 4 16 13 39 20 53 35 68 77 181
98 265 7 28 18 60 24 70 16 31 46 127 83 265 6 25 18 65 26 90 8 25 18 74 23
110 4 36 15 79 24 95 9 17 16 47 16 68 0 21 7 54 16 75 8 20 18 66 21 102 3
36 11 76 18 90 7 14 15 59 19 100 4 41 13 100 21 130 7 30 16 89 20 130 3 41
13 98 20 125 8 28 19 99 25 158 6 59 15 119 20 132 5 13 12 66 15 117 4 51 13
113 20 138 7 25 16 97 20 160 3 63 12 138 20 165 7 28 16 113 18 190 3 77 11
154 17 170 7 17 16 113 20 215 5 102 14 203 20 225 6 22 13 114 16 205 2 91
11 215 19 275 8 61 20 229 25 375 6 146 15 326 20 400 5 74 14 367 20 651 6
284 15 615 21 735 7 135 13 924 16 2053 3 1101 8 1842 14 1852 5 10 19 20 31
22 39 7 831 6 873 -1z m-3469 -5758 c27 -33 34 -72 34 -202 0 -83 4 -109 20
-139 11 -21 20 -45 20 -55 0 -35 80 -162 142 -227 61 -62 209 -131 282 -131
19 0 47 -5 63 -11 15 -6 62 -15 103 -19 42 -5 93 -16 114 -26 63 -31 66 -48
66 -368 -1 -345 6 -327 -140 -346 -52 -6 -126 -14 -165 -17 -142 -10 -278 -88
-386 -224 -66 -81 -119 -229 -119 -331 0 -60 -3 -70 -27 -93 l-28 -25 -370 0
c-464 0 -439 -7 -472 138 -12 53 -23 107 -23 120 0 12 -9 39 -20 59 -11 21
-20 44 -20 51 0 17 -87 127 -127 162 -49 42 -91 70 -106 70 -8 0 -20 6 -26 14
-7 8 -26 18 -42 21 -17 4 -42 13 -57 21 -19 10 -66 14 -165 14 -151 0 -202 13
-213 54 -2 11 -4 171 -2 354 3 283 5 334 18 342 8 5 67 10 130 10 74 1 129 6
155 15 22 8 51 15 65 15 14 0 43 9 65 20 22 11 48 19 57 20 9 0 18 3 20 8 2 4
22 20 46 36 68 46 182 183 182 219 0 7 9 26 20 42 11 17 20 43 20 58 0 15 7
44 15 64 9 20 18 85 21 152 7 125 14 148 47 161 12 4 193 6 402 4 l380 -4 21
-26z m-1917 -818 l31 -30 0 -306 0 -307 -26 -24 c-30 -28 54 -26 -803 -20
-556 4 -605 7 -625 39 -3 5 -6 150 -7 322 -1 345 -3 334 62 350 19 5 327 8
686 7 l652 -2 30 -29z" fill="none" stroke="#0a0818" stroke-width="55"/>
    </g>
  </g>
  <g transform="translate(3677,4386) scale(0.92)" opacity="0.7">
    <g transform="translate(0,17280) scale(1,-1)">
      <path d="M9574 16707 c-12 -7 -32 -25 -45 -40 -19 -22 -1020 -1028 -1168
-1172 -25 -25 -1316 -1323 -1339 -1347 -9 -10 -1644 -1636 -1657 -1648 -19
-19 -500 -500 -510 -510 -7 -8 -452 -452 -538 -537 -49 -50 -1161 -1162 -1172
-1173 -22 -22 -1001 -1003 -1014 -1015 -62 -59 -721 -727 -738 -749 -15 -20
-23 -44 -23 -70 0 -39 5 -46 107 -143 60 -56 112 -105 116 -110 4 -4 792 -794
1750 -1755 958 -961 1808 -1814 1889 -1895 117 -118 299 -300 376 -377 82 -82
421 -422 1546 -1551 734 -737 1339 -1343 1343 -1348 16 -14 690 -687 776 -774
111 -112 94 -94 190 -194 89 -93 118 -113 146 -104 11 3 56 47 102 96 46 50
106 112 133 138 27 25 185 183 353 351 167 168 524 526 794 795 269 270 494
495 499 500 16 18 1907 1916 3500 3515 861 864 1824 1830 2140 2148 316 318
594 594 616 614 55 47 79 88 70 121 -3 15 -91 109 -212 229 -113 111 -220 217
-238 235 -17 17 -305 307 -641 645 -335 338 -621 626 -635 641 -14 15 -223
226 -465 468 -242 243 -865 867 -1385 1388 -520 521 -965 965 -990 988 -25 22
-49 47 -55 55 -5 8 -19 28 -30 44 -20 28 -20 45 -21 957 -1 827 -3 931 -17
944 -14 14 -82 16 -544 20 -954 6 -1298 11 -1333 19 -29 6 -110 82 -475 448
-242 243 -452 455 -466 472 -14 16 -64 66 -110 111 -136 132 -368 371 -458
470 -48 53 -97 96 -114 102 -16 6 -30 11 -31 11 -1 -1 -11 -6 -22 -13z m2151
-2155 c36 -7 41 -11 57 -57 17 -44 18 -66 11 -185 -4 -74 -8 -760 -8 -1525 0
-764 -4 -3255 -9 -5535 -5 -2739 -5 -4159 2 -4188 9 -38 -1 -108 -18 -126 -3
-2 -928 -7 -2055 -11 -1128 -3 -2070 -8 -2095 -10 -25 -3 -72 1 -104 8 -52 10
-61 15 -67 40 -4 15 -10 757 -14 1649 -6 1750 -7 1720 44 1740 33 14 737 11
763 -3 10 -5 25 -24 34 -42 18 -34 17 -115 -6 -407 -7 -92 -7 -186 0 -295 5
-88 14 -362 20 -610 10 -395 14 -458 31 -517 10 -36 19 -88 19 -115 0 -27 6
-58 15 -69 8 -10 17 -45 21 -76 4 -32 13 -63 20 -69 8 -6 14 -21 14 -32 0 -32
75 -175 132 -251 34 -46 72 -82 112 -107 l61 -39 253 0 c231 0 260 2 325 22
39 11 82 27 96 34 14 8 34 14 43 14 9 0 18 3 20 8 2 4 37 30 78 57 71 46 142
111 203 186 55 68 107 139 107 145 0 4 7 15 16 25 18 20 28 39 102 182 28 57
52 108 52 115 0 7 4 12 10 12 5 0 13 12 16 27 4 16 13 39 20 53 35 68 77 181
98 265 7 28 18 60 24 70 16 31 46 127 83 265 6 25 18 65 26 90 8 25 18 74 23
110 4 36 15 79 24 95 9 17 16 47 16 68 0 21 7 54 16 75 8 20 18 66 21 102 3
36 11 76 18 90 7 14 15 59 19 100 4 41 13 100 21 130 7 30 16 89 20 130 3 41
13 98 20 125 8 28 19 99 25 158 6 59 15 119 20 132 5 13 12 66 15 117 4 51 13
113 20 138 7 25 16 97 20 160 3 63 12 138 20 165 7 28 16 113 18 190 3 77 11
154 17 170 7 17 16 113 20 215 5 102 14 203 20 225 6 22 13 114 16 205 2 91
11 215 19 275 8 61 20 229 25 375 6 146 15 326 20 400 5 74 14 367 20 651 6
284 15 615 21 735 7 135 13 924 16 2053 3 1101 8 1842 14 1852 5 10 19 20 31
22 39 7 831 6 873 -1z m-3469 -5758 c27 -33 34 -72 34 -202 0 -83 4 -109 20
-139 11 -21 20 -45 20 -55 0 -35 80 -162 142 -227 61 -62 209 -131 282 -131
19 0 47 -5 63 -11 15 -6 62 -15 103 -19 42 -5 93 -16 114 -26 63 -31 66 -48
66 -368 -1 -345 6 -327 -140 -346 -52 -6 -126 -14 -165 -17 -142 -10 -278 -88
-386 -224 -66 -81 -119 -229 -119 -331 0 -60 -3 -70 -27 -93 l-28 -25 -370 0
c-464 0 -439 -7 -472 138 -12 53 -23 107 -23 120 0 12 -9 39 -20 59 -11 21
-20 44 -20 51 0 17 -87 127 -127 162 -49 42 -91 70 -106 70 -8 0 -20 6 -26 14
-7 8 -26 18 -42 21 -17 4 -42 13 -57 21 -19 10 -66 14 -165 14 -151 0 -202 13
-213 54 -2 11 -4 171 -2 354 3 283 5 334 18 342 8 5 67 10 130 10 74 1 129 6
155 15 22 8 51 15 65 15 14 0 43 9 65 20 22 11 48 19 57 20 9 0 18 3 20 8 2 4
22 20 46 36 68 46 182 183 182 219 0 7 9 26 20 42 11 17 20 43 20 58 0 15 7
44 15 64 9 20 18 85 21 152 7 125 14 148 47 161 12 4 193 6 402 4 l380 -4 21
-26z m-1917 -818 l31 -30 0 -306 0 -307 -26 -24 c-30 -28 54 -26 -803 -20
-556 4 -605 7 -625 39 -3 5 -6 150 -7 322 -1 345 -3 334 62 350 19 5 327 8
686 7 l652 -2 30 -29z" fill="none" stroke="#d8c8f0" stroke-width="18"/>
    </g>
  </g>

  <!-- Cutout depth: bright top-left edge + dark bottom-right (inset shadow) -->
  <g transform="translate(3677,4386) scale(0.92)">
    <g transform="translate(0,17280) scale(1,-1)">
      <path d="M9574 16707 c-12 -7 -32 -25 -45 -40 -19 -22 -1020 -1028 -1168
-1172 -25 -25 -1316 -1323 -1339 -1347 -9 -10 -1644 -1636 -1657 -1648 -19
-19 -500 -500 -510 -510 -7 -8 -452 -452 -538 -537 -49 -50 -1161 -1162 -1172
-1173 -22 -22 -1001 -1003 -1014 -1015 -62 -59 -721 -727 -738 -749 -15 -20
-23 -44 -23 -70 0 -39 5 -46 107 -143 60 -56 112 -105 116 -110 4 -4 792 -794
1750 -1755 958 -961 1808 -1814 1889 -1895 117 -118 299 -300 376 -377 82 -82
421 -422 1546 -1551 734 -737 1339 -1343 1343 -1348 16 -14 690 -687 776 -774
111 -112 94 -94 190 -194 89 -93 118 -113 146 -104 11 3 56 47 102 96 46 50
106 112 133 138 27 25 185 183 353 351 167 168 524 526 794 795 269 270 494
495 499 500 16 18 1907 1916 3500 3515 861 864 1824 1830 2140 2148 316 318
594 594 616 614 55 47 79 88 70 121 -3 15 -91 109 -212 229 -113 111 -220 217
-238 235 -17 17 -305 307 -641 645 -335 338 -621 626 -635 641 -14 15 -223
226 -465 468 -242 243 -865 867 -1385 1388 -520 521 -965 965 -990 988 -25 22
-49 47 -55 55 -5 8 -19 28 -30 44 -20 28 -20 45 -21 957 -1 827 -3 931 -17
944 -14 14 -82 16 -544 20 -954 6 -1298 11 -1333 19 -29 6 -110 82 -475 448
-242 243 -452 455 -466 472 -14 16 -64 66 -110 111 -136 132 -368 371 -458
470 -48 53 -97 96 -114 102 -16 6 -30 11 -31 11 -1 -1 -11 -6 -22 -13z m2151
-2155 c36 -7 41 -11 57 -57 17 -44 18 -66 11 -185 -4 -74 -8 -760 -8 -1525 0
-764 -4 -3255 -9 -5535 -5 -2739 -5 -4159 2 -4188 9 -38 -1 -108 -18 -126 -3
-2 -928 -7 -2055 -11 -1128 -3 -2070 -8 -2095 -10 -25 -3 -72 1 -104 8 -52 10
-61 15 -67 40 -4 15 -10 757 -14 1649 -6 1750 -7 1720 44 1740 33 14 737 11
763 -3 10 -5 25 -24 34 -42 18 -34 17 -115 -6 -407 -7 -92 -7 -186 0 -295 5
-88 14 -362 20 -610 10 -395 14 -458 31 -517 10 -36 19 -88 19 -115 0 -27 6
-58 15 -69 8 -10 17 -45 21 -76 4 -32 13 -63 20 -69 8 -6 14 -21 14 -32 0 -32
75 -175 132 -251 34 -46 72 -82 112 -107 l61 -39 253 0 c231 0 260 2 325 22
39 11 82 27 96 34 14 8 34 14 43 14 9 0 18 3 20 8 2 4 37 30 78 57 71 46 142
111 203 186 55 68 107 139 107 145 0 4 7 15 16 25 18 20 28 39 102 182 28 57
52 108 52 115 0 7 4 12 10 12 5 0 13 12 16 27 4 16 13 39 20 53 35 68 77 181
98 265 7 28 18 60 24 70 16 31 46 127 83 265 6 25 18 65 26 90 8 25 18 74 23
110 4 36 15 79 24 95 9 17 16 47 16 68 0 21 7 54 16 75 8 20 18 66 21 102 3
36 11 76 18 90 7 14 15 59 19 100 4 41 13 100 21 130 7 30 16 89 20 130 3 41
13 98 20 125 8 28 19 99 25 158 6 59 15 119 20 132 5 13 12 66 15 117 4 51 13
113 20 138 7 25 16 97 20 160 3 63 12 138 20 165 7 28 16 113 18 190 3 77 11
154 17 170 7 17 16 113 20 215 5 102 14 203 20 225 6 22 13 114 16 205 2 91
11 215 19 275 8 61 20 229 25 375 6 146 15 326 20 400 5 74 14 367 20 651 6
284 15 615 21 735 7 135 13 924 16 2053 3 1101 8 1842 14 1852 5 10 19 20 31
22 39 7 831 6 873 -1z m-3469 -5758 c27 -33 34 -72 34 -202 0 -83 4 -109 20
-139 11 -21 20 -45 20 -55 0 -35 80 -162 142 -227 61 -62 209 -131 282 -131
19 0 47 -5 63 -11 15 -6 62 -15 103 -19 42 -5 93 -16 114 -26 63 -31 66 -48
66 -368 -1 -345 6 -327 -140 -346 -52 -6 -126 -14 -165 -17 -142 -10 -278 -88
-386 -224 -66 -81 -119 -229 -119 -331 0 -60 -3 -70 -27 -93 l-28 -25 -370 0
c-464 0 -439 -7 -472 138 -12 53 -23 107 -23 120 0 12 -9 39 -20 59 -11 21
-20 44 -20 51 0 17 -87 127 -127 162 -49 42 -91 70 -106 70 -8 0 -20 6 -26 14
-7 8 -26 18 -42 21 -17 4 -42 13 -57 21 -19 10 -66 14 -165 14 -151 0 -202 13
-213 54 -2 11 -4 171 -2 354 3 283 5 334 18 342 8 5 67 10 130 10 74 1 129 6
155 15 22 8 51 15 65 15 14 0 43 9 65 20 22 11 48 19 57 20 9 0 18 3 20 8 2 4
22 20 46 36 68 46 182 183 182 219 0 7 9 26 20 42 11 17 20 43 20 58 0 15 7
44 15 64 9 20 18 85 21 152 7 125 14 148 47 161 12 4 193 6 402 4 l380 -4 21
-26z m-1917 -818 l31 -30 0 -306 0 -307 -26 -24 c-30 -28 54 -26 -803 -20
-556 4 -605 7 -625 39 -3 5 -6 150 -7 322 -1 345 -3 334 62 350 19 5 327 8
686 7 l652 -2 30 -29z" fill="none" stroke="#e0d0f8" stroke-width="8" opacity="0.6"/>
    </g>
  </g>
  <g transform="translate(3681,4390) scale(0.92)">
    <g transform="translate(0,17280) scale(1,-1)">
      <path d="M9574 16707 c-12 -7 -32 -25 -45 -40 -19 -22 -1020 -1028 -1168
-1172 -25 -25 -1316 -1323 -1339 -1347 -9 -10 -1644 -1636 -1657 -1648 -19
-19 -500 -500 -510 -510 -7 -8 -452 -452 -538 -537 -49 -50 -1161 -1162 -1172
-1173 -22 -22 -1001 -1003 -1014 -1015 -62 -59 -721 -727 -738 -749 -15 -20
-23 -44 -23 -70 0 -39 5 -46 107 -143 60 -56 112 -105 116 -110 4 -4 792 -794
1750 -1755 958 -961 1808 -1814 1889 -1895 117 -118 299 -300 376 -377 82 -82
421 -422 1546 -1551 734 -737 1339 -1343 1343 -1348 16 -14 690 -687 776 -774
111 -112 94 -94 190 -194 89 -93 118 -113 146 -104 11 3 56 47 102 96 46 50
106 112 133 138 27 25 185 183 353 351 167 168 524 526 794 795 269 270 494
495 499 500 16 18 1907 1916 3500 3515 861 864 1824 1830 2140 2148 316 318
594 594 616 614 55 47 79 88 70 121 -3 15 -91 109 -212 229 -113 111 -220 217
-238 235 -17 17 -305 307 -641 645 -335 338 -621 626 -635 641 -14 15 -223
226 -465 468 -242 243 -865 867 -1385 1388 -520 521 -965 965 -990 988 -25 22
-49 47 -55 55 -5 8 -19 28 -30 44 -20 28 -20 45 -21 957 -1 827 -3 931 -17
944 -14 14 -82 16 -544 20 -954 6 -1298 11 -1333 19 -29 6 -110 82 -475 448
-242 243 -452 455 -466 472 -14 16 -64 66 -110 111 -136 132 -368 371 -458
470 -48 53 -97 96 -114 102 -16 6 -30 11 -31 11 -1 -1 -11 -6 -22 -13z m2151
-2155 c36 -7 41 -11 57 -57 17 -44 18 -66 11 -185 -4 -74 -8 -760 -8 -1525 0
-764 -4 -3255 -9 -5535 -5 -2739 -5 -4159 2 -4188 9 -38 -1 -108 -18 -126 -3
-2 -928 -7 -2055 -11 -1128 -3 -2070 -8 -2095 -10 -25 -3 -72 1 -104 8 -52 10
-61 15 -67 40 -4 15 -10 757 -14 1649 -6 1750 -7 1720 44 1740 33 14 737 11
763 -3 10 -5 25 -24 34 -42 18 -34 17 -115 -6 -407 -7 -92 -7 -186 0 -295 5
-88 14 -362 20 -610 10 -395 14 -458 31 -517 10 -36 19 -88 19 -115 0 -27 6
-58 15 -69 8 -10 17 -45 21 -76 4 -32 13 -63 20 -69 8 -6 14 -21 14 -32 0 -32
75 -175 132 -251 34 -46 72 -82 112 -107 l61 -39 253 0 c231 0 260 2 325 22
39 11 82 27 96 34 14 8 34 14 43 14 9 0 18 3 20 8 2 4 37 30 78 57 71 46 142
111 203 186 55 68 107 139 107 145 0 4 7 15 16 25 18 20 28 39 102 182 28 57
52 108 52 115 0 7 4 12 10 12 5 0 13 12 16 27 4 16 13 39 20 53 35 68 77 181
98 265 7 28 18 60 24 70 16 31 46 127 83 265 6 25 18 65 26 90 8 25 18 74 23
110 4 36 15 79 24 95 9 17 16 47 16 68 0 21 7 54 16 75 8 20 18 66 21 102 3
36 11 76 18 90 7 14 15 59 19 100 4 41 13 100 21 130 7 30 16 89 20 130 3 41
13 98 20 125 8 28 19 99 25 158 6 59 15 119 20 132 5 13 12 66 15 117 4 51 13
113 20 138 7 25 16 97 20 160 3 63 12 138 20 165 7 28 16 113 18 190 3 77 11
154 17 170 7 17 16 113 20 215 5 102 14 203 20 225 6 22 13 114 16 205 2 91
11 215 19 275 8 61 20 229 25 375 6 146 15 326 20 400 5 74 14 367 20 651 6
284 15 615 21 735 7 135 13 924 16 2053 3 1101 8 1842 14 1852 5 10 19 20 31
22 39 7 831 6 873 -1z m-3469 -5758 c27 -33 34 -72 34 -202 0 -83 4 -109 20
-139 11 -21 20 -45 20 -55 0 -35 80 -162 142 -227 61 -62 209 -131 282 -131
19 0 47 -5 63 -11 15 -6 62 -15 103 -19 42 -5 93 -16 114 -26 63 -31 66 -48
66 -368 -1 -345 6 -327 -140 -346 -52 -6 -126 -14 -165 -17 -142 -10 -278 -88
-386 -224 -66 -81 -119 -229 -119 -331 0 -60 -3 -70 -27 -93 l-28 -25 -370 0
c-464 0 -439 -7 -472 138 -12 53 -23 107 -23 120 0 12 -9 39 -20 59 -11 21
-20 44 -20 51 0 17 -87 127 -127 162 -49 42 -91 70 -106 70 -8 0 -20 6 -26 14
-7 8 -26 18 -42 21 -17 4 -42 13 -57 21 -19 10 -66 14 -165 14 -151 0 -202 13
-213 54 -2 11 -4 171 -2 354 3 283 5 334 18 342 8 5 67 10 130 10 74 1 129 6
155 15 22 8 51 15 65 15 14 0 43 9 65 20 22 11 48 19 57 20 9 0 18 3 20 8 2 4
22 20 46 36 68 46 182 183 182 219 0 7 9 26 20 42 11 17 20 43 20 58 0 15 7
44 15 64 9 20 18 85 21 152 7 125 14 148 47 161 12 4 193 6 402 4 l380 -4 21
-26z m-1917 -818 l31 -30 0 -306 0 -307 -26 -24 c-30 -28 54 -26 -803 -20
-556 4 -605 7 -625 39 -3 5 -6 150 -7 322 -1 345 -3 334 62 350 19 5 327 8
686 7 l652 -2 30 -29z" fill="none" stroke="#080410" stroke-width="8" opacity="0.7"/>
    </g>
  </g>

</svg>