<svg version="1.0" xmlns="http://www.w3.org/2000/svg"
 width="360.000000" height="349.920000" viewBox="0 0 360.000000 349.920000"
 preserveAspectRatio="xMidYMid meet">
<metadata>
Created by potrace 1.16, written by Peter Selinger 2001-2019
</metadata>
<g transform="translate(0.000000,349.920000) scale(0.072000,-0.072000)"
fill="#c0d0e8" stroke="none">
<path d="M2309 3936 c-2 -2 -42 -10 -89 -16 -47 -6 -89 -16 -94 -21 -6 -5 -20
-9 -33 -9 -12 0 -39 -7 -60 -16 -89 -38 -105 -45 -140 -61 -45 -21 -136 -74
-143 -84 -3 -3 -23 -17 -45 -31 -65 -41 -219 -203 -278 -291 -65 -98 -117
-194 -117 -216 0 -9 -7 -25 -15 -35 -8 -11 -15 -29 -15 -41 0 -11 -6 -29 -14
-40 -7 -11 -16 -40 -19 -65 -3 -25 -10 -65 -16 -90 -13 -58 -13 -301 0 -360 6
-25 14 -69 19 -99 5 -29 13 -58 19 -64 6 -6 11 -23 11 -38 0 -15 6 -40 14 -56
8 -15 30 -62 50 -103 59 -123 114 -199 231 -317 164 -164 298 -243 530 -313
17 -4 67 -16 113 -25 101 -20 350 -16 457 8 118 27 173 42 181 50 4 4 15 7 24
7 10 0 23 7 30 15 7 8 23 15 36 15 12 0 25 4 28 9 3 5 25 19 48 31 69 35 187
128 266 209 123 125 238 317 281 471 7 25 17 55 22 68 33 83 46 406 22 525
-27 134 -110 338 -171 425 -12 16 -22 34 -22 39 0 5 -13 22 -30 38 -16 16 -30
34 -30 40 0 22 -235 239 -280 258 -8 4 -37 21 -65 37 -27 16 -57 33 -65 36 -8
3 -23 10 -32 15 -19 9 -107 39 -173 58 -76 21 -235 41 -333 41 -54 0 -101 -2
-103 -4z m296 -124 c39 -4 80 -13 92 -20 12 -7 33 -12 47 -12 13 0 37 -6 53
-14 168 -81 210 -104 262 -142 121 -88 244 -220 308 -329 29 -49 83 -167 83
-180 0 -7 4 -16 9 -19 5 -4 12 -25 16 -49 4 -23 11 -49 15 -57 5 -8 14 -69 20
-135 13 -118 3 -295 -20 -380 -35 -128 -46 -163 -59 -185 -4 -8 -15 -28 -24
-45 -36 -71 -52 -100 -57 -105 -3 -3 -17 -24 -32 -46 -42 -66 -197 -216 -273
-266 -83 -54 -183 -108 -201 -108 -7 0 -25 -6 -41 -14 -38 -19 -119 -43 -168
-50 -22 -3 -62 -10 -90 -15 -64 -12 -176 -12 -240 0 -27 5 -75 13 -105 18 -73
11 -119 28 -250 91 -76 36 -87 43 -159 94 -147 106 -278 262 -350 421 -31 69
-81 222 -81 249 0 14 -7 51 -15 83 -17 66 -20 222 -5 273 6 19 15 62 19 95 8
54 16 82 42 150 24 64 78 169 118 230 53 81 43 70 146 175 94 96 245 200 290
200 7 0 18 7 25 15 7 8 22 15 34 15 12 0 31 7 42 15 10 8 33 15 49 15 17 0 41
7 55 15 14 8 52 15 85 16 33 0 71 5 85 9 27 10 161 6 275 -8z"/>
<path d="M2754 3706 c-8 -21 3 -36 27 -36 15 0 20 6 17 22 -4 27 -35 37 -44
14z"/>
<path d="M2020 3664 c-11 -12 -10 -18 3 -32 16 -15 18 -15 34 0 13 14 14 20 3
32 -7 9 -16 16 -20 16 -4 0 -13 -7 -20 -16z"/>
<path d="M2560 3656 c0 -9 7 -16 16 -16 9 0 14 5 12 12 -6 18 -28 21 -28 4z"/>
<path d="M2247 3553 c-12 -11 -8 -23 8 -23 8 0 15 7 15 15 0 16 -12 20 -23 8z"/>
<path d="M3047 3493 c-8 -7 11 -33 24 -33 5 0 9 9 9 20 0 19 -20 27 -33 13z"/>
<path d="M2332 3428 c6 -18 28 -21 28 -4 0 9 -7 16 -16 16 -9 0 -14 -5 -12
-12z"/>
<path d="M1834 3315 c-4 -9 -2 -21 4 -27 15 -15 44 -1 40 19 -4 23 -36 29 -44
8z"/>
<path d="M2175 3300 c-9 -15 4 -30 26 -30 12 0 19 7 19 20 0 21 -33 29 -45 10z"/>
<path d="M2010 3284 c0 -9 7 -14 17 -12 25 5 28 28 4 28 -12 0 -21 -6 -21 -16z"/>
<path d="M3045 3240 c-4 -7 0 -19 9 -28 15 -15 18 -15 26 -2 5 8 8 20 7 25 -5
15 -34 18 -42 5z"/>
<path d="M2555 3181 c-3 -16 -13 -35 -21 -41 -21 -18 -7 -30 37 -30 42 0 49
12 24 44 -8 11 -15 28 -15 38 0 29 -18 21 -25 -11z"/>
<path d="M3100 3150 c0 -5 7 -10 15 -10 8 0 15 5 15 10 0 6 -7 10 -15 10 -8 0
-15 -4 -15 -10z"/>
<path d="M3326 3137 c-16 -12 -16 -14 2 -30 17 -16 20 -16 32 -2 11 13 11 19
-1 31 -12 12 -18 12 -33 1z"/>
<path d="M2817 3123 c-14 -13 -6 -33 13 -33 11 0 20 4 20 9 0 13 -26 32 -33
24z"/>
<path d="M2945 3100 c-8 -13 4 -32 16 -25 12 8 12 35 0 35 -6 0 -13 -4 -16
-10z"/>
<path d="M2462 3094 c35 -11 88 -67 94 -101 7 -37 24 -35 24 2 0 16 12 34 35
52 19 15 35 31 35 36 0 12 -35 8 -58 -8 -19 -14 -24 -14 -44 -1 -13 8 -41 17
-63 20 -22 3 -32 3 -23 0z"/>
<path d="M3030 3031 c0 -12 6 -21 16 -21 9 0 14 7 12 17 -5 25 -28 28 -28 4z"/>
<path d="M1475 3020 c-4 -6 -3 -16 3 -22 6 -6 12 -6 17 2 4 6 3 16 -3 22 -6 6
-12 6 -17 -2z"/>
<path d="M2415 2991 c-7 -12 12 -24 25 -16 11 7 4 25 -10 25 -5 0 -11 -4 -15
-9z"/>
<path d="M2865 2990 c-4 -6 -3 -16 3 -22 6 -6 12 -6 17 2 4 6 3 16 -3 22 -6 6
-12 6 -17 -2z"/>
<path d="M2743 2973 c-18 -7 -16 -20 3 -27 21 -8 34 1 27 19 -5 16 -10 17 -30
8z"/>
<path d="M3210 2940 c0 -13 7 -20 20 -20 13 0 20 7 20 20 0 13 -7 20 -20 20
-13 0 -20 -7 -20 -20z"/>
<path d="M2870 2907 c0 -8 7 -20 16 -28 13 -10 17 -10 25 2 13 20 6 34 -19 37
-14 2 -22 -2 -22 -11z"/>
<path d="M2972 2894 c4 -21 22 -23 26 -1 2 10 -3 17 -13 17 -10 0 -15 -6 -13
-16z"/>
<path d="M2077 2865 c-9 -20 -17 -45 -17 -56 0 -12 -17 -37 -37 -55 -28 -26
-46 -34 -74 -34 -69 0 -61 -30 13 -50 49 -14 86 -54 107 -114 21 -62 41 -72
41 -21 0 67 55 135 109 135 33 0 67 23 57 38 -4 7 -23 12 -42 12 -56 0 -101
40 -114 103 -16 76 -23 83 -43 42z m47 -145 c30 -11 32 -22 10 -44 -23 -24
-67 -20 -93 8 l-22 24 28 10 c37 14 47 14 77 2z"/>
<path d="M3060 2870 c0 -11 5 -20 10 -20 6 0 10 9 10 20 0 11 -4 20 -10 20 -5
0 -10 -9 -10 -20z"/>
<path d="M3342 2868 c4 -27 33 -36 42 -13 8 22 -1 35 -25 35 -15 0 -20 -6 -17
-22z"/>
<path d="M1532 2858 c2 -15 10 -23 23 -23 13 0 21 8 23 23 3 18 -1 22 -23 22
-22 0 -26 -4 -23 -22z"/>
<path d="M2840 2780 c0 -11 6 -20 13 -20 19 0 27 10 20 26 -8 21 -33 17 -33
-6z"/>
<path d="M2780 2745 c0 -8 5 -15 10 -15 6 0 10 7 10 15 0 8 -4 15 -10 15 -5 0
-10 -7 -10 -15z"/>
<path d="M2400 2735 c-10 -12 -10 -18 0 -29 16 -20 42 -8 38 17 -4 26 -21 32
-38 12z"/>
<path d="M1700 2720 c0 -24 15 -27 24 -4 9 22 8 24 -9 24 -8 0 -15 -9 -15 -20z"/>
<path d="M2631 2726 c-16 -19 -6 -36 20 -36 15 0 20 6 17 22 -4 27 -21 33 -37
14z"/>
<path d="M2895 2701 c-9 -16 3 -31 26 -31 14 0 19 6 17 17 -4 20 -33 29 -43
14z"/>
<path d="M3272 2646 c1 -10 8 -17 13 -17 15 1 12 24 -3 29 -9 3 -13 -2 -10
-12z"/>
<path d="M2425 2629 c-10 -15 3 -25 16 -12 7 7 7 13 1 17 -6 3 -14 1 -17 -5z"/>
<path d="M2253 2614 c-8 -20 8 -36 26 -25 15 10 8 41 -9 41 -6 0 -13 -7 -17
-16z"/>
<path d="M2787 2623 c-12 -11 -7 -43 6 -43 19 0 36 20 30 36 -5 15 -25 19 -36
7z"/>
<path d="M1454 2579 c-10 -17 23 -46 37 -32 7 7 9 19 6 27 -7 18 -33 21 -43 5z"/>
<path d="M2477 2573 c-14 -14 -7 -43 11 -43 26 0 33 10 21 31 -10 20 -21 24
-32 12z"/>
<path d="M2645 2547 c-4 -10 -5 -21 -1 -24 10 -10 18 4 13 24 -4 17 -4 17 -12
0z"/>
<path d="M3032 2547 c-9 -11 -10 -17 -2 -22 15 -9 23 -1 18 21 -3 15 -4 16
-16 1z"/>
<path d="M2751 2514 c-12 -19 -21 -36 -21 -37 0 -1 23 -2 50 -2 48 0 61 7 39
20 -5 4 -14 18 -19 31 -13 33 -24 30 -49 -12z"/>
<path d="M2310 2516 c0 -10 9 -16 21 -16 24 0 21 23 -4 28 -10 2 -17 -3 -17
-12z"/>
<path d="M1784 2509 c-10 -17 13 -36 27 -22 12 12 4 33 -11 33 -5 0 -12 -5
-16 -11z"/>
<path d="M1480 2450 c0 -24 29 -38 40 -20 12 19 1 40 -21 40 -12 0 -19 -7 -19
-20z"/>
<path d="M2730 2431 c0 -5 7 -11 15 -15 8 -3 15 -15 15 -26 0 -25 28 -27 37
-2 3 9 13 25 21 35 14 16 12 17 -36 17 -29 0 -52 -4 -52 -9z"/>
<path d="M1927 2414 c-13 -13 -7 -24 14 -24 11 0 19 5 17 12 -5 14 -22 21 -31
12z"/>
<path d="M2010 2405 c0 -8 9 -15 20 -15 24 0 27 15 4 24 -22 9 -24 8 -24 -9z"/>
<path d="M2540 2400 c0 -5 7 -10 15 -10 8 0 15 5 15 10 0 6 -7 10 -15 10 -8 0
-15 -4 -15 -10z"/>
<path d="M3310 2391 c0 -27 15 -34 34 -15 19 19 12 34 -15 34 -12 0 -19 -7
-19 -19z"/>
<path d="M2397 2324 c-12 -13 -8 -62 6 -67 23 -9 39 9 35 39 -3 27 -26 43 -41
28z"/>
<path d="M1736 2294 c-22 -22 -20 -50 5 -68 46 -32 98 25 59 64 -24 24 -43 25
-64 4z"/>
<path d="M1894 2285 c-4 -9 -2 -21 4 -27 15 -15 44 -1 40 19 -4 23 -36 29 -44
8z"/>
<path d="M2107 2294 c-9 -10 2 -24 19 -24 8 0 14 7 14 15 0 15 -21 21 -33 9z"/>
<path d="M1980 2249 c0 -24 23 -21 28 4 2 10 -3 17 -12 17 -10 0 -16 -9 -16
-21z"/>
<path d="M1517 2234 c-14 -14 -7 -35 11 -32 9 2 17 10 17 17 0 16 -18 25 -28
15z"/>
<path d="M2524 2225 c-6 -15 2 -35 14 -35 4 0 13 4 21 9 12 8 12 12 2 25 -17
20 -30 20 -37 1z"/>
<path d="M2148 2219 c-27 -15 -23 -57 7 -71 18 -8 28 -8 39 1 17 14 26 45 17
59 -10 16 -45 22 -63 11z"/>
<path d="M2617 2193 c-13 -12 -7 -23 13 -23 11 0 20 7 20 15 0 15 -21 21 -33
8z"/>
<path d="M2540 2151 c0 -11 26 -22 34 -14 12 12 5 23 -14 23 -11 0 -20 -4 -20
-9z"/>
<path d="M3150 2115 c0 -17 2 -18 24 -9 23 9 20 24 -4 24 -11 0 -20 -7 -20
-15z"/>
<path d="M2030 2090 c0 -11 5 -20 10 -20 6 0 10 9 10 20 0 11 -4 20 -10 20 -5
0 -10 -9 -10 -20z"/>
<path d="M1954 2039 c-10 -17 23 -46 37 -32 7 7 9 19 6 27 -7 18 -33 21 -43 5z"/>
<path d="M2622 2028 c4 -27 33 -36 42 -13 8 22 -1 35 -25 35 -15 0 -20 -6 -17
-22z"/>
<path d="M2445 2030 c-7 -12 2 -30 16 -30 5 0 9 9 9 20 0 21 -15 27 -25 10z"/>
<path d="M2035 1990 c-9 -15 14 -40 31 -33 22 8 18 43 -5 43 -11 0 -23 -5 -26
-10z"/>
<path d="M2513 1978 c2 -7 10 -13 17 -13 7 0 15 6 18 13 2 7 -5 12 -18 12 -13
0 -20 -5 -17 -12z"/>
<path d="M1820 1915 c0 -8 7 -15 15 -15 8 0 15 7 15 15 0 8 -7 15 -15 15 -8 0
-15 -7 -15 -15z"/>
<path d="M2550 1745 c0 -8 7 -15 15 -15 8 0 15 7 15 15 0 8 -7 15 -15 15 -8 0
-15 -7 -15 -15z"/>
<path d="M1605 3891 c-17 -4 -56 -24 -88 -44 -64 -41 -77 -45 -77 -21 0 31
-62 6 -108 -43 -47 -51 -67 -90 -88 -173 -19 -79 -19 -80 25 -80 37 0 99 27
166 72 39 27 165 157 176 183 5 11 13 27 17 35 26 45 32 62 27 70 -7 11 -7 11
-50 1z"/>
<path d="M3230 3879 c0 -6 20 -42 46 -80 45 -69 135 -158 209 -208 63 -43 159
-65 167 -39 12 34 -54 177 -107 235 -43 46 -95 68 -95 39 0 -23 -18 -20 -56 9
-18 14 -37 25 -42 25 -5 0 -15 7 -22 15 -15 18 -100 21 -100 4z"/>
<path d="M1155 3648 c-39 -45 -95 -151 -95 -180 0 -9 -5 -29 -11 -45 -8 -22
-12 -24 -19 -13 -6 8 -10 30 -10 48 0 24 -4 32 -18 32 -55 0 -111 -175 -98
-302 15 -141 18 -158 26 -158 4 0 13 -13 19 -30 18 -52 46 -40 143 58 128 129
143 190 32 138 -77 -36 -88 -33 -92 29 l-2 50 19 -25 19 -24 37 19 c90 48 267
228 250 255 -7 12 -63 2 -93 -17 -13 -8 -33 -13 -45 -11 -30 4 -35 65 -11 134
17 50 15 84 -5 84 -5 0 -26 -19 -46 -42z"/>
<path d="M3670 3665 c0 -15 7 -39 16 -56 9 -19 14 -49 12 -82 -3 -45 -6 -52
-25 -55 -13 -2 -33 4 -45 12 -29 20 -78 21 -78 2 0 -20 100 -137 147 -173 52
-39 123 -76 131 -69 3 4 6 52 5 107 -3 132 -35 225 -105 302 -40 43 -58 47
-58 12z"/>
<path d="M3875 3489 c-4 -6 -9 -74 -11 -152 -5 -164 -11 -178 -66 -157 -18 7
-40 19 -49 27 -8 7 -23 13 -32 13 -21 0 -23 -45 -3 -66 8 -7 16 -17 18 -21 2
-5 40 -43 85 -86 56 -53 86 -75 97 -71 9 3 26 27 38 53 19 40 21 64 22 187 0
117 -3 145 -17 167 -9 15 -17 33 -17 42 0 17 -39 75 -51 75 -4 0 -11 -5 -14
-11z"/>
<path d="M794 3219 c-28 -63 -25 -224 5 -304 46 -122 113 -225 146 -225 12 0
50 36 96 90 47 56 99 184 81 202 -8 8 -15 8 -24 1 -28 -23 -110 -63 -127 -63
-28 0 -89 135 -115 255 -9 43 -27 85 -36 85 -4 0 -15 -19 -26 -41z"/>
<path d="M4042 3225 c-7 -14 -12 -35 -12 -47 0 -21 -24 -100 -47 -155 -7 -17
-13 -35 -13 -40 0 -11 -49 -63 -59 -63 -10 0 -41 16 -91 48 -47 30 -60 28 -60
-8 0 -19 20 -63 55 -119 62 -98 99 -141 124 -141 26 0 111 103 111 133 0 8 7
20 15 27 8 7 15 24 15 39 0 15 7 37 16 49 12 18 14 43 11 125 -6 146 -36 216
-65 152z"/>
<path d="M4160 2938 c-11 -18 -20 -36 -20 -40 0 -11 -62 -142 -70 -148 -3 -3
-10 -12 -14 -20 -28 -60 -95 -130 -124 -130 -8 0 -41 25 -74 56 -75 68 -91 62
-64 -24 23 -73 69 -169 100 -207 l24 -29 46 24 c26 13 74 50 108 82 33 33 63
57 66 54 3 -3 -3 -16 -14 -28 -22 -26 -24 -29 -64 -85 -39 -56 -138 -133 -170
-133 -22 0 -31 10 -59 70 -36 75 -54 96 -72 85 -14 -9 -8 -167 8 -187 6 -7 13
-26 16 -43 3 -16 12 -48 20 -70 18 -48 37 -53 109 -29 172 57 276 187 317 394
27 140 22 176 -18 123 -11 -16 -24 -32 -29 -38 -4 -5 -11 -18 -15 -27 -3 -10
-11 -18 -17 -18 -11 0 -14 33 -4 43 22 22 45 124 50 228 8 129 -1 153 -36 97z"/>
<path d="M679 2953 c-11 -92 1 -184 43 -311 11 -35 18 -66 14 -69 -3 -4 -6 0
-6 8 0 8 -8 22 -17 31 -10 9 -26 28 -36 42 -10 15 -22 24 -28 21 -15 -10 -11
-130 6 -161 8 -16 15 -39 15 -50 0 -12 11 -46 24 -76 53 -119 118 -189 226
-240 119 -57 141 -52 168 34 41 131 54 276 24 286 -7 2 -22 -18 -37 -51 -25
-54 -68 -107 -88 -107 -5 0 -35 19 -67 43 -58 42 -108 102 -96 114 3 3 6 1 6
-5 0 -7 7 -12 14 -12 8 0 35 -13 59 -30 25 -16 52 -30 61 -30 30 0 99 128 131
242 27 96 6 102 -71 23 -30 -30 -60 -55 -68 -55 -32 0 -144 150 -210 283 -21
42 -45 77 -52 77 -8 0 -14 -3 -15 -7z"/>
<path d="M696 2261 c-9 -15 3 -57 36 -126 50 -103 56 -111 122 -173 90 -84
137 -106 261 -121 95 -12 99 -9 114 104 14 101 5 209 -22 264 -17 35 -29 29
-51 -26 -10 -26 -28 -71 -39 -100 -12 -31 -28 -53 -39 -56 -19 -5 -129 29
-138 43 -3 4 -14 10 -25 14 -19 6 -70 50 -171 148 -25 23 -44 36 -48 29z"/>
<path d="M4115 2204 c-84 -78 -160 -137 -190 -148 -5 -1 -26 -9 -45 -16 -74
-26 -85 -25 -108 15 -12 20 -22 44 -22 54 0 9 -7 26 -15 37 -8 10 -15 36 -15
57 0 38 -18 50 -37 25 -43 -56 -36 -353 9 -382 13 -7 40 -5 104 8 80 16 101
23 144 48 8 4 24 12 35 17 25 11 122 110 140 142 60 106 91 199 68 199 -5 0
-35 -25 -68 -56z"/>
<path d="M1310 1938 c-1 -18 -7 -44 -15 -58 -8 -14 -14 -34 -15 -46 0 -11 -9
-29 -21 -40 -18 -16 -34 -18 -107 -16 -47 2 -93 7 -101 12 -27 14 -104 16
-108 3 -7 -20 73 -98 129 -125 85 -41 118 -49 214 -55 88 -5 92 -5 104 17 15
28 4 231 -15 275 -7 17 -15 38 -19 48 -3 9 -15 17 -26 17 -16 0 -20 -7 -20
-32z"/>
<path d="M3546 1963 c-18 -18 -38 -84 -50 -168 -15 -97 -12 -148 10 -165 24
-21 241 3 266 28 7 7 19 12 28 12 22 1 140 98 140 115 0 17 -51 21 -79 6 -24
-14 -181 -23 -215 -13 -31 8 -43 37 -64 146 -7 39 -21 54 -36 39z"/>
<path d="M1473 1773 c-9 -3 -13 -32 -13 -93 0 -116 1 -115 -177 -106 -110 6
-133 5 -133 -7 0 -18 72 -84 107 -99 98 -40 132 -47 221 -48 86 0 95 -2 134
-30 26 -19 53 -30 74 -30 18 0 36 -4 39 -10 4 -6 65 -10 148 -10 78 0 160 -5
182 -11 22 -6 55 -13 73 -16 18 -3 35 -10 38 -15 13 -20 -23 -28 -128 -28 -64
0 -108 -4 -108 -10 0 -5 17 -20 38 -34 20 -13 43 -30 50 -39 8 -9 29 -21 48
-27 30 -10 47 -7 130 19 129 42 134 45 134 86 0 27 -7 39 -37 62 -54 40 -69
47 -153 72 -41 12 -89 26 -106 31 -17 6 -39 10 -49 10 -38 0 -213 55 -277 86
-49 25 -67 19 -48 -15 22 -42 6 -91 -30 -91 -14 0 -17 13 -18 76 -2 42 -9 88
-16 103 -7 14 -23 46 -34 71 -26 56 -73 110 -89 103z"/>
<path d="M3368 1741 c-33 -36 -76 -129 -89 -190 -5 -25 -12 -58 -15 -72 -5
-24 -3 -26 69 -44 71 -18 77 -18 148 -1 97 23 124 33 184 70 115 70 99 90 -51
66 -60 -10 -158 0 -176 18 -4 4 -11 45 -15 92 -5 46 -13 85 -19 87 -6 2 -22
-10 -36 -26z"/>
<path d="M3180 1522 c-38 -27 -238 -82 -299 -82 -17 0 -45 -6 -63 -14 -18 -7
-69 -29 -113 -47 -160 -66 -195 -122 -101 -163 123 -55 205 -62 253 -23 15 13
41 30 57 38 61 29 44 38 -80 41 -129 3 -152 15 -87 44 25 12 79 20 163 25 186
11 322 28 348 45 24 16 21 34 -5 34 -27 0 -42 32 -36 78 6 46 0 50 -37 24z"/>
</g>
</svg>
