<svg version="1.0" xmlns="http://www.w3.org/2000/svg"
 width="200.000000" height="294.000000" viewBox="0 0 200.000000 294.000000"
 preserveAspectRatio="xMidYMid meet">
<metadata>
Created by potrace 1.16, written by Peter Selinger 2001-2019
</metadata>
<g transform="translate(0.000000,294.000000) scale(0.100000,-0.100000)"
fill="#66cc66" stroke="none">
<path d="M640 2363 c1 -10 23 -110 49 -223 l49 -205 -175 -176 c-97 -97 -174
-181 -172 -187 5 -13 590 -534 607 -540 8 -2 605 524 610 539 2 5 -74 88 -170
185 -95 96 -174 176 -175 177 -1 2 20 97 48 211 27 115 49 215 49 223 0 11
-66 13 -360 13 -336 0 -360 -1 -360 -17z m650 -45 c0 -6 -23 -108 -51 -226
l-52 -214 154 -154 c84 -84 151 -155 149 -157 -3 -2 -114 -96 -248 -210 l-242
-208 -246 212 -246 212 152 152 152 153 -51 218 c-28 121 -51 222 -51 227 0
13 580 9 580 -5z"/>
<path d="M740 2304 c0 -3 111 -460 119 -492 l12 -43 131 3 131 3 62 260 c35
143 62 261 62 262 -2 1 -517 9 -517 7z m313 -64 c8 -40 56 -64 109 -56 l40 6
-32 -44 c-18 -24 -46 -58 -64 -75 l-32 -31 -22 30 c-36 48 -77 64 -165 64
l-78 0 38 39 c50 52 114 83 194 96 4 1 9 -12 12 -29z m-154 16 c-2 -2 -25 -20
-51 -40 -43 -32 -48 -34 -48 -15 0 11 -5 29 -10 40 -10 18 -7 19 51 19 34 0
60 -2 58 -4z m284 -181 c1 -5 -6 -11 -15 -13 -11 -2 -18 3 -18 13 0 17 30 18
33 0z m-225 -11 c15 -11 22 -25 22 -50 0 -37 -15 -46 -25 -14 -3 11 -23 33
-43 50 l-37 30 30 0 c17 0 41 -7 53 -16z m37 -180 c62 -23 89 -10 110 53 l15
48 -6 -60 c-12 -120 -46 -154 -119 -119 -41 19 -88 78 -135 169 l-31 60 61
-67 c42 -46 74 -72 105 -84z"/>
<path d="M860 1648 c-82 -42 -112 -143 -67 -222 33 -57 67 -79 134 -84 49 -3
64 0 93 20 55 37 80 83 80 143 0 126 -126 202 -240 143z"/>
<path d="M1127 1543 c-4 -3 -7 -21 -7 -38 0 -18 -5 -47 -11 -65 -9 -26 -9 -34
2 -41 16 -10 60 -12 84 -3 18 7 45 55 45 79 0 41 -88 94 -113 68z"/>
</g>
</svg>
