<svg version="1.0" xmlns="http://www.w3.org/2000/svg"
 width="500.000000" height="472.000000" viewBox="0 0 500.000000 472.000000"
 preserveAspectRatio="xMidYMid meet">
<metadata>
Created by potrace 1.16, written by Peter Selinger 2001-2019
</metadata>
<g transform="translate(0.000000,472.000000) scale(0.100000,-0.100000)"
fill="#44dd88" stroke="none">
<path d="M1560 3486 c-14 -8 -41 -21 -60 -29 -45 -19 -150 -73 -215 -108 -53
-29 -57 -36 -99 -168 -22 -66 -32 -256 -17 -331 21 -112 31 -154 41 -164 6 -6
10 -20 10 -32 0 -12 7 -27 15 -34 8 -7 15 -23 15 -35 0 -13 7 -25 15 -29 8 -3
15 -13 15 -23 1 -23 34 -63 52 -63 7 0 42 27 78 60 36 32 77 70 92 83 25 23
26 28 17 58 -39 123 -52 315 -30 449 19 113 59 247 98 319 31 58 22 74 -27 47z
M3394 3485 c-4 -8 1 -24 10 -34 9 -10 16 -25 16 -34 0 -9 4 -18 10 -22 5 -3
14 -22 20 -43 6 -20 18 -59 27 -87 54 -180 56 -422 6 -579 l-16 -50 32 -25
c18 -14 60 -52 95 -83 34 -32 69 -58 78 -58 8 0 24 19 37 43 12 23 25 49 30
57 26 47 40 81 55 135 9 33 22 76 28 95 18 57 14 287 -7 367 -10 37 -22 72
-27 78 -4 5 -8 19 -8 31 0 14 -13 33 -32 48 -29 21 -218 120 -303 157 -16 7
-33 15 -37 17 -5 2 -11 -4 -14 -13z M1045 3188 c-22 -18 -79 -71 -127 -117
l-88 -85 0 -51 c0 -29 7 -74 15 -101 8 -27 15 -59 15 -71 0 -12 8 -39 17 -60
45 -104 78 -169 90 -181 7 -7 13 -17 13 -21 0 -24 196 -234 213 -228 6 2 28
31 50 65 l39 63 -28 42 c-131 193 -189 409 -163 607 22 171 22 170 8 170 -8 0
-32 -15 -54 -32z M3894 3168 c15 -126 18 -304 6 -358 -19 -92 -48 -181 -71
-220 -5 -8 -12 -22 -15 -30 -3 -8 -10 -22 -15 -30 -5 -8 -12 -22 -16 -30 -3
-8 -20 -32 -37 -54 l-30 -39 24 -41 c13 -22 29 -51 34 -63 21 -44 38 -37 133
62 51 53 93 102 93 110 0 8 4 15 8 15 5 0 18 19 31 43 12 23 26 49 30 57 25
44 60 139 71 195 5 22 13 58 19 80 15 58 13 107 -5 133 -25 37 -236 222 -252
222 -11 0 -13 -11 -8 -52z M690 2802 c-58 -96 -110 -205 -110 -233 0 -33 38
-85 126 -174 90 -91 295 -255 319 -255 2 0 24 -13 48 -30 25 -16 48 -30 51
-30 4 0 14 16 22 35 28 68 22 81 -96 204 -61 62 -110 118 -110 123 0 5 -10 24
-23 41 -30 43 -45 68 -56 92 -5 11 -20 45 -34 75 -14 30 -33 80 -42 110 -37
121 -45 125 -95 42z M4234 2825 c-7 -19 -14 -43 -14 -54 0 -11 -4 -23 -10 -26
-5 -3 -10 -13 -10 -21 0 -9 -12 -41 -26 -72 -14 -31 -30 -66 -35 -77 -5 -11
-17 -32 -27 -46 -9 -15 -34 -53 -54 -85 -21 -33 -80 -101 -132 -153 -83 -82
-95 -98 -90 -120 20 -91 26 -95 75 -68 61 34 156 94 169 107 3 3 28 23 55 45
133 105 285 271 285 310 0 40 -140 295 -162 295 -5 0 -16 -16 -24 -35z M1500
2553 c-49 -37 -140 -126 -140 -136 0 -27 276 -277 304 -277 3 0 22 -11 42 -25
69 -47 269 -135 369 -162 47 -13 55 -43 12 -43 -12 0 -65 16 -117 34 -142 51
-162 59 -203 84 -21 12 -44 22 -52 22 -8 0 -17 5 -20 11 -4 5 -17 15 -28 20
-72 33 -172 106 -263 191 -70 67 -89 80 -102 71 -24 -15 -64 -96 -56 -116 3
-9 26 -29 51 -44 25 -15 57 -36 72 -45 84 -56 346 -171 471 -207 25 -7 65 -20
89 -27 25 -8 54 -14 65 -14 12 0 39 -7 61 -15 22 -8 54 -14 72 -15 23 0 33 -6
38 -21 9 -28 0 -34 -30 -21 -14 7 -42 12 -62 12 -19 0 -56 6 -82 14 -59 19
-128 36 -166 42 -16 3 -39 9 -50 14 -11 5 -49 19 -85 31 -36 12 -83 28 -104
36 -77 28 -212 96 -284 144 -40 27 -79 49 -87 49 -18 0 -28 -35 -23 -81 4 -39
10 -43 188 -112 149 -57 178 -67 220 -77 19 -4 49 -12 65 -18 17 -5 66 -17
110 -27 44 -9 96 -20 115 -25 19 -5 63 -11 98 -14 35 -3 71 -10 82 -16 10 -5
43 -10 74 -10 30 0 58 -5 62 -11 20 -34 -64 -31 -316 11 -36 6 -91 15 -124 19
-32 5 -63 14 -69 20 -6 6 -25 11 -41 11 -17 0 -48 6 -71 14 -22 7 -65 21 -95
31 -74 23 -186 64 -235 85 -67 30 -80 29 -83 -5 -1 -17 6 -44 18 -62 15 -26
27 -33 51 -33 16 0 39 -5 50 -11 21 -11 83 -24 183 -39 32 -4 63 -13 69 -19 6
-6 35 -11 64 -11 30 0 70 -7 90 -15 19 -8 59 -15 87 -15 28 -1 80 -7 116 -15
36 -8 112 -15 170 -15 108 -1 170 -15 178 -39 4 -12 -11 -13 -89 -7 -52 4
-150 11 -219 17 -69 5 -145 13 -170 19 -25 5 -66 9 -91 10 -25 0 -59 5 -75 10
-16 6 -58 14 -94 20 -36 5 -94 16 -130 24 -187 44 -196 44 -172 6 7 -11 12
-26 12 -33 0 -33 35 -45 160 -57 306 -28 499 -41 688 -47 192 -5 202 -6 202
-25 0 -19 -6 -20 -282 -13 -156 3 -335 11 -398 16 -223 18 -310 22 -310 13 1
-5 11 -21 23 -36 l22 -27 455 -5 c250 -4 470 -6 488 -6 22 0 32 -5 32 -15 0
-13 -42 -15 -307 -17 -269 -1 -548 -4 -607 -7 -18 -1 -18 -3 5 -27 l24 -27
195 6 c107 4 249 11 315 17 143 13 411 10 408 -5 -1 -5 -8 -11 -15 -12 -128
-15 -272 -26 -443 -34 -220 -9 -371 -22 -380 -31 -4 -3 6 -16 22 -28 20 -15
35 -20 53 -15 14 4 57 11 95 16 39 5 96 14 129 20 55 10 369 30 501 33 54 1
60 -1 60 -19 0 -19 -9 -20 -169 -27 -93 -4 -191 -12 -218 -18 -27 -5 -70 -10
-96 -10 -26 -1 -76 -7 -112 -15 -36 -8 -82 -14 -102 -15 -21 0 -38 -4 -38 -10
0 -17 59 -41 78 -32 9 5 40 13 67 16 28 4 64 11 80 16 17 5 67 11 111 13 45 3
88 8 95 12 7 5 85 11 172 13 133 4 159 2 155 -9 -3 -9 -23 -15 -52 -17 -31 -2
-46 -7 -43 -15 2 -7 10 -13 18 -13 8 -1 20 -2 28 -3 9 -1 11 -9 7 -27 -4 -16
-1 -35 7 -48 29 -43 41 -128 27 -187 -7 -30 -17 -60 -22 -66 -6 -7 -7 -20 -4
-29 8 -20 -12 -146 -25 -158 -5 -6 -9 -28 -9 -50 -1 -23 -7 -52 -15 -66 -8
-14 -14 -40 -15 -58 0 -18 -7 -47 -16 -63 -19 -38 -9 -52 55 -81 25 -11 53
-24 61 -29 8 -5 22 -12 30 -15 8 -3 23 -10 32 -15 10 -5 20 -9 23 -9 10 0 5
819 -4 825 -6 3 -13 27 -16 53 -3 26 -10 54 -14 62 -5 9 -12 35 -16 58 -4 23
-11 44 -16 48 -5 3 -9 18 -9 33 0 15 -7 36 -15 47 -8 10 -15 31 -15 45 0 15
-7 32 -15 39 -8 7 -15 21 -15 30 0 10 -6 31 -14 47 -8 15 -30 61 -48 100 -18
40 -36 73 -40 73 -5 0 -8 8 -8 19 0 10 -7 24 -15 31 -8 7 -15 18 -15 24 0 21
-42 51 -123 89 -203 95 -393 284 -489 488 -18 38 -35 69 -38 69 -3 0 -21 -12
-40 -27z M3436 2543 c-10 -21 -22 -45 -27 -53 -5 -8 -14 -26 -20 -40 -6 -14
-21 -39 -35 -57 -13 -17 -24 -36 -24 -41 0 -17 -165 -181 -233 -231 -37 -27
-110 -71 -162 -96 -94 -47 -108 -58 -131 -99 -19 -32 -104 -207 -121 -246 -8
-19 -21 -48 -29 -63 -8 -16 -14 -38 -14 -50 0 -12 -7 -31 -15 -41 -8 -11 -15
-30 -15 -42 0 -13 -4 -25 -9 -28 -5 -4 -12 -25 -16 -49 -4 -23 -11 -46 -15
-52 -4 -5 -11 -32 -15 -60 -4 -27 -12 -56 -18 -64 -14 -17 -22 -798 -8 -819 8
-14 12 -13 71 19 8 5 35 18 60 29 71 32 75 36 73 61 -5 54 -20 125 -31 146 -7
12 -12 36 -12 53 0 17 -4 39 -10 49 -11 21 -30 118 -34 176 -1 22 -11 64 -21
94 -19 58 -15 88 27 180 14 31 17 46 9 54 -18 18 -13 26 21 29 55 5 45 27 -14
30 -29 2 -52 8 -51 13 4 15 298 18 324 4 12 -6 58 -13 103 -15 44 -3 95 -9
111 -14 17 -5 53 -12 80 -16 28 -3 58 -11 68 -16 13 -7 26 -5 43 7 33 21 30
35 -8 35 -18 1 -62 7 -98 15 -36 8 -90 14 -120 15 -30 0 -71 4 -90 9 -40 11
-173 20 -303 21 -86 0 -88 1 -85 23 3 20 8 22 53 21 154 -4 475 -25 505 -34
19 -5 55 -10 79 -10 25 0 73 -7 107 -16 58 -14 65 -14 88 1 25 17 34 34 19 35
-66 5 -127 12 -163 19 -25 5 -135 13 -245 16 -230 7 -421 26 -418 40 4 14 287
18 413 5 58 -6 195 -13 305 -17 196 -6 200 -5 219 16 11 11 17 23 15 25 -7 6
-420 16 -676 16 -209 0 -243 2 -243 15 0 13 26 15 168 17 92 1 192 3 222 3 30
0 173 2 317 3 l262 2 25 27 c17 18 22 31 16 37 -6 6 -83 4 -217 -7 -115 -9
-332 -19 -484 -23 -249 -5 -277 -4 -282 10 -4 10 -1 19 6 21 6 2 95 6 197 9
175 4 458 24 670 46 52 5 105 10 116 10 32 0 61 31 68 71 l6 37 -47 -6 c-27
-2 -52 -8 -58 -12 -5 -5 -32 -11 -60 -15 -27 -3 -57 -9 -65 -13 -23 -9 -155
-31 -255 -42 -49 -5 -97 -12 -105 -16 -8 -3 -73 -9 -145 -14 -71 -5 -169 -12
-217 -16 -66 -5 -88 -4 -88 5 0 25 68 41 177 41 59 0 135 7 168 15 33 8 83 14
111 15 28 0 71 7 94 15 23 8 62 15 87 15 24 0 54 5 65 11 11 6 44 15 72 20
110 18 162 29 181 38 11 5 37 12 57 16 43 7 58 27 58 79 0 42 -11 45 -73 17
-57 -25 -176 -69 -210 -77 -15 -3 -30 -10 -33 -15 -3 -5 -20 -9 -37 -9 -18 -1
-43 -7 -57 -15 -14 -8 -37 -14 -51 -15 -15 0 -43 -7 -62 -15 -20 -8 -56 -15
-80 -15 -24 0 -47 -4 -52 -9 -13 -11 -175 -33 -289 -38 -70 -4 -87 -2 -84 9 3
8 29 15 69 19 35 3 80 11 99 18 19 6 56 11 83 11 26 0 55 4 65 10 9 5 44 14
77 20 120 22 150 28 175 38 14 5 52 17 85 27 33 9 69 21 80 26 11 5 42 16 68
24 69 23 191 81 205 97 6 8 9 27 7 43 -2 17 -4 38 -4 48 -1 24 -29 21 -67 -8
-18 -14 -35 -25 -38 -25 -3 0 -22 -12 -43 -26 -45 -31 -217 -114 -236 -114 -7
0 -17 -4 -22 -9 -6 -4 -57 -23 -115 -40 -58 -18 -118 -37 -135 -43 -16 -6 -52
-14 -80 -18 -27 -4 -63 -12 -78 -18 -16 -7 -46 -12 -68 -12 -22 0 -49 -5 -60
-10 -11 -6 -24 -8 -29 -5 -16 10 8 45 31 45 56 0 311 72 483 136 38 15 185 85
216 103 8 5 22 12 30 16 24 10 52 27 108 68 70 52 68 77 -9 170 -3 5 -33 -19
-65 -53 -52 -55 -206 -177 -244 -194 -8 -3 -28 -15 -45 -26 -16 -11 -37 -22
-45 -26 -8 -3 -22 -9 -30 -14 -74 -45 -308 -130 -356 -130 -15 0 -24 6 -24 15
0 8 1 15 3 15 11 0 231 81 254 93 16 9 57 30 93 47 36 18 72 39 81 46 8 8 20
14 26 14 6 0 17 7 24 16 8 9 32 28 54 42 44 28 211 188 220 211 7 17 -46 73
-121 132 -28 21 -53 39 -55 39 -3 0 -13 -17 -23 -37z M539 2469 c0 -2 -8 -31
-16 -64 -8 -33 -17 -98 -20 -144 -4 -78 -3 -84 19 -100 30 -21 60 -39 78 -46
8 -4 22 -10 30 -15 17 -11 129 -64 180 -87 19 -8 43 -19 52 -24 21 -11 250
-89 260 -89 5 0 8 27 8 59 l0 59 -62 32 c-160 83 -297 186 -435 328 -51 52
-93 92 -94 91z M4369 2378 c-117 -115 -226 -206 -290 -243 -9 -5 -59 -34 -111
-64 -51 -29 -94 -54 -96 -56 -7 -6 -9 -106 -1 -110 9 -6 59 7 116 32 17 7 36
13 42 13 6 0 19 4 29 9 9 5 53 24 97 42 44 18 114 50 155 71 41 21 80 38 88
38 7 0 15 7 18 15 4 8 14 15 23 15 9 1 26 9 39 19 18 16 22 29 22 79 0 32 -7
81 -15 108 -8 27 -15 64 -15 82 0 17 -4 32 -8 32 -5 0 -47 -37 -93 -82z M500
2028 c0 -40 7 -91 15 -113 8 -22 14 -54 15 -70 0 -30 2 -31 68 -43 37 -7 99
-16 137 -21 39 -4 80 -13 92 -19 12 -7 48 -12 80 -12 32 0 80 -7 107 -15 47
-14 147 -21 158 -10 3 3 0 26 -7 51 -12 49 -36 69 -100 85 -41 10 -96 30 -190
69 -145 59 -186 77 -217 97 -21 13 -44 23 -52 23 -8 0 -17 4 -21 9 -6 11 -63
41 -77 41 -4 0 -8 -33 -8 -72z M4452 2085 c-13 -7 -29 -18 -35 -24 -6 -6 -17
-11 -24 -11 -7 0 -30 -10 -51 -23 -20 -13 -73 -38 -117 -56 -44 -18 -89 -37
-100 -42 -38 -17 -160 -61 -190 -68 -64 -16 -88 -36 -100 -85 -7 -25 -10 -48
-7 -51 11 -10 99 -5 155 10 32 8 79 15 105 15 26 0 65 7 87 15 22 8 62 14 88
15 27 0 57 5 68 10 10 6 45 14 77 18 l57 7 6 50 c4 28 12 63 18 78 6 16 11 57
11 93 0 68 -5 73 -48 49z M560 1740 c0 -6 4 -18 10 -28 10 -19 35 -78 44 -105
3 -9 16 -21 29 -26 12 -5 152 -10 310 -10 316 -2 322 -1 277 56 -23 30 -19 29
-280 63 -41 5 -91 14 -110 20 -19 5 -53 10 -75 10 -22 0 -62 7 -89 15 -57 17
-116 20 -116 5z M4325 1735 c-27 -8 -66 -14 -85 -15 -19 0 -51 -5 -70 -10 -19
-6 -71 -15 -115 -21 -247 -29 -262 -33 -284 -61 -26 -33 -26 -45 -1 -53 31
-10 540 -3 578 7 17 5 32 14 32 20 0 9 25 68 51 119 16 33 -21 37 -106 14z
M2390 1655 c0 -3 18 -30 40 -59 22 -29 40 -60 40 -69 0 -43 42 -29 70 24 11
22 31 52 45 67 14 15 25 30 25 34 0 5 -49 8 -110 8 -60 0 -110 -2 -110 -5z
M2395 1580 c-4 -6 -1 -26 8 -43 27 -58 39 -99 69 -225 16 -69 37 -66 55 8 30
120 34 135 44 145 5 5 9 20 9 34 0 13 7 32 16 42 10 12 14 25 9 36 -6 16 -8
16 -18 -4 -5 -13 -13 -23 -17 -23 -3 0 -17 -25 -31 -55 -14 -31 -30 -55 -39
-55 -9 0 -26 23 -40 53 -13 28 -27 54 -31 57 -3 3 -10 13 -16 24 -7 13 -12 15
-18 6z M703 1522 c-18 -2 -33 -6 -33 -8 0 -10 72 -114 83 -121 15 -9 138 -3
159 8 19 10 105 21 322 39 66 5 120 11 122 13 1 1 -10 17 -24 35 l-27 32 -285
3 c-157 1 -300 1 -317 -1z M3666 1488 c-14 -18 -24 -34 -22 -35 1 -1 50 -5
109 -7 59 -3 115 -10 126 -16 11 -5 48 -10 84 -10 35 0 86 -6 113 -14 41 -12
117 -20 160 -17 12 1 84 104 84 121 0 7 -108 10 -314 10 l-315 0 -25 -32z
M1330 1400 c-14 -4 -52 -8 -85 -9 -33 -1 -87 -6 -120 -12 -33 -6 -91 -14 -130
-19 -87 -10 -173 -29 -180 -39 -2 -5 25 -36 60 -71 49 -46 70 -60 83 -55 76
32 192 72 267 93 22 6 63 17 90 25 28 8 71 18 98 22 53 7 59 20 24 53 -24 23
-61 27 -107 12z M3563 1391 c-37 -31 -29 -48 25 -56 26 -3 61 -10 77 -15 17
-5 57 -17 90 -26 61 -17 134 -40 170 -54 62 -24 113 -40 131 -40 20 0 124 99
124 118 0 11 -137 42 -188 42 -20 0 -53 4 -72 10 -19 5 -84 14 -145 20 -60 6
-128 13 -150 16 -30 3 -46 -1 -62 -15z M2167 1323 c-12 -12 -7 -53 9 -78 14
-21 14 -26 -1 -55 -22 -42 -30 -31 -30 39 0 49 -2 56 -21 59 -12 2 -28 -4 -37
-12 -20 -21 -27 -20 -27 2 0 9 -4 24 -10 32 -14 23 -53 -16 -40 -41 16 -28 12
-49 -9 -49 -11 0 -23 -9 -26 -20 -5 -15 -12 -19 -29 -14 -15 3 -25 0 -29 -9
-7 -19 3 -33 32 -42 17 -5 20 -10 12 -18 -16 -16 -14 -69 4 -105 25 -49 72
-88 131 -108 52 -18 57 -18 85 -2 32 19 54 15 63 -9 9 -22 6 -24 -69 -31 l-66
-7 -35 -65 c-20 -36 -44 -79 -55 -96 -35 -57 -28 -67 78 -118 53 -26 101 -45
106 -43 9 3 46 132 68 237 5 25 12 52 16 60 14 32 12 84 -4 95 -13 10 -12 15
15 44 33 37 47 101 36 173 -8 52 -74 128 -112 128 -21 0 -23 3 -17 30 6 25 4
30 -13 30 -10 0 -22 -3 -25 -7z m-87 -90 c0 -10 3 -28 6 -40 8 -30 -18 -31
-38 -1 -13 19 -13 24 1 39 21 23 31 23 31 2z m-80 -88 c0 -8 -4 -15 -10 -15
-5 0 -10 7 -10 15 0 8 5 15 10 15 6 0 10 -7 10 -15z m55 -14 c3 -5 1 -12 -4
-15 -12 -8 -41 3 -41 15 0 12 37 12 45 0z m173 -155 c9 -20 8 -25 -4 -30 -23
-9 -34 2 -34 30 0 31 23 31 38 0z M2785 1321 c-3 -5 -1 -12 5 -16 20 -12 10
-35 -15 -35 -33 0 -100 -69 -110 -113 -16 -73 -5 -135 31 -184 25 -33 30 -53
15 -53 -15 0 -11 -79 5 -109 8 -14 14 -37 14 -50 0 -25 5 -45 34 -137 9 -29
16 -59 16 -67 0 -31 21 -27 120 19 67 32 100 53 100 64 0 17 -84 174 -109 204
-8 9 -28 16 -46 16 -82 0 -115 21 -79 51 13 10 20 10 44 -5 17 -9 40 -14 55
-11 14 3 36 7 50 10 36 8 94 62 115 109 28 64 29 72 15 94 -16 22 -11 32 17
32 13 0 18 7 18 26 0 22 -4 25 -21 21 -34 -9 -80 43 -77 84 2 25 -1 34 -15 37
-24 5 -32 -24 -18 -64 14 -38 1 -74 -25 -74 -12 0 -14 8 -8 45 7 49 -5 75 -37
75 -21 0 -33 -32 -25 -65 3 -13 2 -34 -2 -46 l-9 -23 -18 28 c-18 27 -18 29
-1 61 22 41 15 85 -14 85 -10 0 -21 -4 -25 -9z m195 -191 c0 -12 -28 -25 -36
-17 -9 9 6 27 22 27 8 0 14 -5 14 -10z m-170 -144 c0 -25 -12 -46 -25 -46 -21
0 -27 17 -15 40 12 23 40 27 40 6z M1440 1289 c-84 -20 -172 -43 -220 -59 -14
-4 -52 -16 -85 -26 -33 -10 -64 -21 -70 -25 -5 -3 -22 -9 -37 -13 -41 -9 -34
-30 21 -71 l50 -36 38 23 c46 28 105 56 213 101 19 8 73 27 120 42 134 43 124
37 100 63 -24 26 -21 26 -130 1z M3420 1280 c-9 -17 -7 -20 17 -26 37 -8 169
-52 213 -71 110 -46 233 -105 241 -116 9 -12 109 61 109 79 0 8 -13 17 -30 21
-17 3 -33 10 -36 14 -3 5 -15 9 -27 9 -12 0 -35 7 -51 15 -15 8 -37 15 -47 15
-11 0 -27 4 -37 10 -29 16 -262 70 -303 70 -28 0 -41 -5 -49 -20z M1832 1266
c-67 -17 -85 -32 -48 -42 14 -3 39 -4 54 -1 60 12 123 34 125 43 3 14 -72 14
-131 0z M3035 1270 c-3 -6 0 -12 7 -14 106 -30 138 -37 163 -34 47 5 35 22
-30 40 -69 19 -131 23 -140 8z M1595 1210 c-11 -5 -54 -19 -95 -31 -41 -12
-79 -25 -84 -30 -6 -5 -18 -9 -27 -9 -10 0 -30 -7 -46 -14 -15 -8 -35 -17 -43
-20 -8 -3 -22 -10 -30 -15 -8 -5 -34 -18 -57 -28 -52 -22 -61 -42 -31 -65 61
-46 79 -46 153 1 74 48 178 101 270 140 106 44 110 46 110 62 0 17 -88 23
-120 9z M3285 1210 c-8 -13 13 -40 30 -40 30 0 254 -109 350 -171 64 -40 71
-42 101 -25 16 8 37 18 47 22 25 9 21 43 -7 54 -13 5 -27 14 -31 19 -3 6 -14
11 -24 11 -10 0 -24 7 -31 15 -7 8 -23 15 -36 15 -12 0 -25 4 -28 9 -3 4 -36
18 -73 30 -37 12 -77 26 -88 30 -100 39 -196 53 -210 31z M1765 1148 c-16 -5
-43 -16 -58 -24 -16 -8 -37 -14 -47 -14 -9 0 -23 -7 -30 -15 -7 -8 -18 -15
-25 -15 -32 0 -275 -138 -275 -157 0 -15 100 -64 114 -56 6 4 48 35 92 70 45
35 87 63 93 63 6 0 11 4 11 9 0 5 10 13 23 17 12 4 24 10 27 14 9 11 136 70
153 70 25 0 31 20 11 35 -22 16 -46 17 -89 3z M3146 1145 c-20 -15 -14 -35 11
-35 15 0 105 -42 158 -74 64 -38 162 -105 174 -119 7 -9 28 -26 45 -37 32 -19
32 -19 74 1 39 19 69 46 61 53 -42 33 -260 146 -282 146 -8 0 -20 7 -27 15 -7
8 -22 15 -34 15 -11 0 -30 7 -40 15 -11 8 -30 15 -42 15 -13 0 -26 5 -29 10
-9 14 -47 12 -69 -5z M1860 1065 c-14 -8 -52 -27 -85 -42 -52 -25 -194 -115
-249 -157 -21 -17 -16 -44 11 -52 10 -3 29 -11 43 -17 14 -6 41 -16 60 -22 35
-11 35 -11 93 51 32 35 86 84 120 109 71 54 77 65 63 111 -12 37 -18 39 -56
19z M3082 1044 c-6 -20 -9 -41 -6 -47 2 -7 35 -36 73 -66 38 -30 93 -80 121
-111 50 -55 53 -57 83 -47 18 5 44 16 59 23 14 8 33 14 41 14 8 0 20 7 27 15
11 13 8 20 -21 45 -51 44 -156 113 -229 149 -36 18 -78 39 -93 47 -40 20 -42
19 -55 -22z"/>
</g>
</svg>
