<svg version="1.0" xmlns="http://www.w3.org/2000/svg"
 width="200.000000" height="292.000000" viewBox="0 0 200.000000 292.000000"
 preserveAspectRatio="xMidYMid meet">
<metadata>
Created by potrace 1.16, written by Peter Selinger 2001-2019
</metadata>
<g transform="translate(0.000000,292.000000) scale(0.100000,-0.100000)"
fill="#dd8844" stroke="none">
<path d="M877 2234 c-113 -25 -174 -59 -262 -148 -122 -122 -165 -225 -165
-392 0 -111 29 -219 79 -293 7 -11 39 13 143 105 l134 118 -30 55 c-38 71 -47
173 -21 252 26 79 119 168 199 193 148 46 309 -23 378 -163 19 -38 23 -62 23
-136 0 -78 -4 -97 -27 -140 -14 -27 -41 -64 -60 -82 -38 -36 -126 -83 -157
-83 -12 0 -21 -6 -20 -12 2 -55 36 -339 41 -344 11 -11 105 26 165 65 240 155
322 466 191 725 -36 72 -153 193 -218 226 -123 63 -267 83 -393 54z"/>
<path d="M1007 1862 c-47 -52 20 -126 78 -88 28 18 35 72 13 94 -18 18 -73 14
-91 -6z"/>
<path d="M859 1632 c-79 -70 -201 -177 -270 -239 l-127 -111 127 -51 c329
-131 514 -201 519 -197 4 5 -51 581 -64 669 -11 75 -28 68 -185 -71z"/>
</g>
</svg>
